<svg width="74" height="68" viewBox="0 0 74 68" fill="none" xmlns="http://www.w3.org/2000/svg">
<path d="M0.1 68L12 36.35C12.5333 34.9833 13.2667 33.9833 14.2 33.35C15.1333 32.7167 16.2167 32.4 17.45 32.4C18.6833 32.4 19.7667 32.7167 20.7 33.35C21.6667 33.95 22.4 34.9333 22.9 36.3L34.85 68H29.6L26.55 59.55H8.25L5.15 68H0.1ZM9.75 55.3H25.1L18.85 37.95C18.6833 37.5167 18.5 37.1833 18.3 36.95C18.1 36.7167 17.8167 36.6 17.45 36.6C17.1167 36.6 16.85 36.7167 16.65 36.95C16.45 37.1833 16.2833 37.5167 16.15 37.95L9.75 55.3ZM37.5609 68V63.75H44.3109V37.25H37.5609V33H55.8109V37.25H49.1109V63.75H55.8109V68H37.5609Z" fill="#FFC857"/>
<path d="M45 14.1421C54.5109 12.5885 57.5852 9.48858 59.1421 2.38419e-07C60.114 9.94704 62.928 13.3177 73.2843 14.1421C63.6195 15.6497 60.5313 18.7613 59.1421 28.2843C57.6414 20.2344 54.5799 17.1176 45 14.1421Z" fill="url(#paint0_linear_283_416)" fill-opacity="0.6"/>
<defs>
<linearGradient id="paint0_linear_283_416" x1="52.0711" y1="7.07107" x2="66.2132" y2="21.2132" gradientUnits="userSpaceOnUse">
<stop stop-color="#004B97" stop-opacity="0.7"/>
<stop offset="1" stop-color="#24B685" stop-opacity="0.8"/>
</linearGradient>
</defs>
</svg>
