<svg width="650" height="109" viewBox="0 0 650 109" fill="none" xmlns="http://www.w3.org/2000/svg">
<line x1="56.0044" y1="48.5" x2="622.004" y2="49.5" stroke="#C6C6C6" stroke-width="5" stroke-dasharray="10 10"/>
<g filter="url(#filter0_d_572_1123)">
<rect x="4" y="1" width="100" height="100" rx="50" fill="white"/>
</g>
<path d="M71 25.5C71 28.7174 70.5732 31.9033 69.744 34.8757C68.9148 37.8482 67.6994 40.5491 66.1673 42.8241C64.6351 45.0992 62.8161 46.9038 60.8143 48.135C58.8124 49.3663 56.6668 50 54.5 50C52.3332 50 50.1876 49.3663 48.1857 48.135C46.1839 46.9038 44.3649 45.0992 42.8327 42.8241C41.3006 40.5491 40.0852 37.8482 39.256 34.8757C38.4268 31.9033 38 28.7174 38 25.5L54.5 25.5H71Z" fill="url(#paint0_linear_572_1123)" fill-opacity="0.5"/>
<path d="M65 37.5C65 39.0102 64.7155 40.5056 64.1627 41.9009C63.6099 43.2961 62.7996 44.5639 61.7782 45.6317C60.7567 46.6996 59.5441 47.5467 58.2095 48.1246C56.8749 48.7025 55.4445 49 54 49C52.5555 49 51.1251 48.7025 49.7905 48.1246C48.4559 47.5467 47.2433 46.6996 46.2218 45.6317C45.2004 44.5639 44.3901 43.2961 43.8373 41.9009C43.2845 40.5056 43 39.0102 43 37.5L54 37.5H65Z" fill="url(#paint1_linear_572_1123)"/>
<path d="M71 77.5C71 74.2826 70.5732 71.0967 69.744 68.1243C68.9148 65.1518 67.6994 62.4509 66.1673 60.1759C64.6351 57.9008 62.8161 56.0962 60.8143 54.865C58.8124 53.6337 56.6668 53 54.5 53C52.3332 53 50.1876 53.6337 48.1857 54.865C46.1839 56.0962 44.3649 57.9008 42.8327 60.1759C41.3006 62.4509 40.0852 65.1518 39.256 68.1243C38.4268 71.0967 38 74.2826 38 77.5L54.5 77.5H71Z" fill="url(#paint2_linear_572_1123)" fill-opacity="0.6"/>
<path d="M52.5 49H55.5C55.1343 51.6642 55.1446 51.4689 55.5 53.5H52.5C53.0689 51.1508 52.5 49 52.5 49Z" fill="url(#paint3_linear_572_1123)"/>
<rect x="35" y="77" width="40" height="7" rx="3.5" fill="#FFC69D"/>
<rect x="34" y="19" width="40" height="7" rx="3.5" fill="#FFC69D"/>
<circle cx="54.5" cy="50.5" r="0.5" fill="#FFE033"/>
<circle cx="54.5" cy="53.5" r="0.5" fill="#FFE033"/>
<circle cx="53.5" cy="52.5" r="0.5" fill="#FFE033"/>
<path d="M40 71C41 68.9999 69 71 69 71C69.9861 72.9083 70.1663 74.0077 70 76H39C39.3905 74.0473 39 73 40 71Z" fill="url(#paint4_linear_572_1123)"/>
<g filter="url(#filter1_d_572_1123)">
<rect x="139" width="100" height="100" rx="50" fill="white"/>
</g>
<path d="M152 48.9381L160.367 35.3299L192.44 19L223.119 35.3299V64.5876L192.44 85L160.367 67.9897V53.0206L152 48.9381Z" fill="url(#paint5_linear_572_1123)"/>
<path d="M160.367 35.3299L152 48.9381L160.367 53.0206M160.367 35.3299L192.44 52.3402M160.367 35.3299L192.44 19L223.119 35.3299M192.44 52.3402L184.073 65.9485L160.367 53.0206M192.44 52.3402L223.119 35.3299M192.44 52.3402V85M223.119 35.3299V64.5876L192.44 85M223.119 35.3299L228 44.8557M192.44 85L160.367 67.9897V53.0206" stroke="url(#paint6_linear_572_1123)" stroke-width="4" stroke-linecap="round" stroke-linejoin="round"/>
<path d="M192.5 42L200 46L192.5 50L184.5 46L192.5 42Z" fill="#FBFBFB"/>
<g filter="url(#filter2_d_572_1123)">
<g filter="url(#filter3_d_572_1123)">
<rect x="275" width="100" height="100" rx="50" fill="white"/>
</g>
<circle cx="324.5" cy="34.5" r="17.5" fill="url(#paint7_linear_572_1123)"/>
<circle cx="325" cy="34" r="6" fill="white"/>
<ellipse cx="324.5" cy="78.5" rx="16.5" ry="4.5" fill="#DEAFB0" fill-opacity="0.49"/>
<path d="M324.5 72L309.778 44.25H339.222L324.5 72Z" fill="url(#paint8_linear_572_1123)"/>
</g>
<g filter="url(#filter4_d_572_1123)">
<rect x="411" width="100" height="100" rx="50" fill="white"/>
</g>
<rect x="434" y="25" width="47" height="47" rx="9" fill="url(#paint9_linear_572_1123)" fill-opacity="0.8"/>
<circle cx="451.5" cy="71.5" r="8.5" fill="white"/>
<circle cx="451.5" cy="71.5" r="6" stroke="#8BDCFF" stroke-opacity="0.7" stroke-width="5"/>
<path d="M426 30C424.343 30 423 31.3431 423 33C423 34.6569 424.343 36 426 36V33V30ZM426 33V36H436V33V30H426V33Z" fill="url(#paint10_linear_572_1123)"/>
<path d="M449 36C450.657 36 452 37.3431 452 39C452 40.6569 450.657 42 449 42V39V36ZM449 39V42H434V39V36H449V39Z" fill="white"/>
<path d="M444 48C445.657 48 447 49.3431 447 51C447 52.6569 445.657 54 444 54V51V48ZM444 51V54H434V51V48H444V51Z" fill="white"/>
<path d="M426 54C424.343 54 423 55.3431 423 57C423 58.6569 424.343 60 426 60V57V54ZM426 57V60H436V57V54H426V57Z" fill="url(#paint11_linear_572_1123)"/>
<path d="M426 42C424.343 42 423 43.3431 423 45C423 46.6569 424.343 48 426 48V45V42ZM426 45V48H436V45V42H426V45Z" fill="url(#paint12_linear_572_1123)"/>
<path d="M481 36.5H489C493.039 39.7861 495.117 41.8369 498.5 46V66.5C497.971 69.366 497.135 70.3844 495 71.5C492.657 72.081 491.343 72.1636 489 71.5L481 62V36.5Z" fill="url(#paint13_linear_572_1123)"/>
<circle cx="481.5" cy="71.5" r="6" fill="white" stroke="#AEE7FF" stroke-width="5"/>
<path d="M481 43H486.5L491.5 48V54H481V43Z" fill="white"/>
<g filter="url(#filter5_d_572_1123)">
<rect x="546" y="1" width="100" height="100" rx="50" fill="white"/>
</g>
<path d="M584 48L601.321 75.75H566.679L584 48Z" fill="url(#paint14_linear_572_1123)" fill-opacity="0.8"/>
<line x1="606.5" y1="41" x2="606.5" y2="19" stroke="#B47E59"/>
<path d="M583 19H606V35H583L589 27L583 19Z" fill="url(#paint15_linear_572_1123)"/>
<path d="M606.5 40L621.655 76H591.345L606.5 40Z" fill="url(#paint16_linear_572_1123)"/>
<line x1="564" y1="75" x2="628" y2="75" stroke="#B47E59" stroke-width="2"/>
<path d="M606.5 39.5L601 53L604 58L606.5 55L609.5 58L612 53L606.5 39.5Z" fill="url(#paint17_linear_572_1123)"/>
<defs>
<filter id="filter0_d_572_1123" x="0" y="1" width="108" height="108" filterUnits="userSpaceOnUse" color-interpolation-filters="sRGB">
<feFlood flood-opacity="0" result="BackgroundImageFix"/>
<feColorMatrix in="SourceAlpha" type="matrix" values="0 0 0 0 0 0 0 0 0 0 0 0 0 0 0 0 0 0 127 0" result="hardAlpha"/>
<feOffset dy="4"/>
<feGaussianBlur stdDeviation="2"/>
<feComposite in2="hardAlpha" operator="out"/>
<feColorMatrix type="matrix" values="0 0 0 0 0 0 0 0 0 0 0 0 0 0 0 0 0 0 0.25 0"/>
<feBlend mode="normal" in2="BackgroundImageFix" result="effect1_dropShadow_572_1123"/>
<feBlend mode="normal" in="SourceGraphic" in2="effect1_dropShadow_572_1123" result="shape"/>
</filter>
<filter id="filter1_d_572_1123" x="135" y="0" width="108" height="108" filterUnits="userSpaceOnUse" color-interpolation-filters="sRGB">
<feFlood flood-opacity="0" result="BackgroundImageFix"/>
<feColorMatrix in="SourceAlpha" type="matrix" values="0 0 0 0 0 0 0 0 0 0 0 0 0 0 0 0 0 0 127 0" result="hardAlpha"/>
<feOffset dy="4"/>
<feGaussianBlur stdDeviation="2"/>
<feComposite in2="hardAlpha" operator="out"/>
<feColorMatrix type="matrix" values="0 0 0 0 0 0 0 0 0 0 0 0 0 0 0 0 0 0 0.25 0"/>
<feBlend mode="normal" in2="BackgroundImageFix" result="effect1_dropShadow_572_1123"/>
<feBlend mode="normal" in="SourceGraphic" in2="effect1_dropShadow_572_1123" result="shape"/>
</filter>
<filter id="filter2_d_572_1123" x="271" y="0" width="108" height="108" filterUnits="userSpaceOnUse" color-interpolation-filters="sRGB">
<feFlood flood-opacity="0" result="BackgroundImageFix"/>
<feColorMatrix in="SourceAlpha" type="matrix" values="0 0 0 0 0 0 0 0 0 0 0 0 0 0 0 0 0 0 127 0" result="hardAlpha"/>
<feOffset dy="4"/>
<feGaussianBlur stdDeviation="2"/>
<feComposite in2="hardAlpha" operator="out"/>
<feColorMatrix type="matrix" values="0 0 0 0 0 0 0 0 0 0 0 0 0 0 0 0 0 0 0.25 0"/>
<feBlend mode="normal" in2="BackgroundImageFix" result="effect1_dropShadow_572_1123"/>
<feBlend mode="normal" in="SourceGraphic" in2="effect1_dropShadow_572_1123" result="shape"/>
</filter>
<filter id="filter3_d_572_1123" x="271" y="0" width="108" height="108" filterUnits="userSpaceOnUse" color-interpolation-filters="sRGB">
<feFlood flood-opacity="0" result="BackgroundImageFix"/>
<feColorMatrix in="SourceAlpha" type="matrix" values="0 0 0 0 0 0 0 0 0 0 0 0 0 0 0 0 0 0 127 0" result="hardAlpha"/>
<feOffset dy="4"/>
<feGaussianBlur stdDeviation="2"/>
<feComposite in2="hardAlpha" operator="out"/>
<feColorMatrix type="matrix" values="0 0 0 0 0 0 0 0 0 0 0 0 0 0 0 0 0 0 0.25 0"/>
<feBlend mode="normal" in2="BackgroundImageFix" result="effect1_dropShadow_572_1123"/>
<feBlend mode="normal" in="SourceGraphic" in2="effect1_dropShadow_572_1123" result="shape"/>
</filter>
<filter id="filter4_d_572_1123" x="407" y="0" width="108" height="108" filterUnits="userSpaceOnUse" color-interpolation-filters="sRGB">
<feFlood flood-opacity="0" result="BackgroundImageFix"/>
<feColorMatrix in="SourceAlpha" type="matrix" values="0 0 0 0 0 0 0 0 0 0 0 0 0 0 0 0 0 0 127 0" result="hardAlpha"/>
<feOffset dy="4"/>
<feGaussianBlur stdDeviation="2"/>
<feComposite in2="hardAlpha" operator="out"/>
<feColorMatrix type="matrix" values="0 0 0 0 0 0 0 0 0 0 0 0 0 0 0 0 0 0 0.25 0"/>
<feBlend mode="normal" in2="BackgroundImageFix" result="effect1_dropShadow_572_1123"/>
<feBlend mode="normal" in="SourceGraphic" in2="effect1_dropShadow_572_1123" result="shape"/>
</filter>
<filter id="filter5_d_572_1123" x="542" y="1" width="108" height="108" filterUnits="userSpaceOnUse" color-interpolation-filters="sRGB">
<feFlood flood-opacity="0" result="BackgroundImageFix"/>
<feColorMatrix in="SourceAlpha" type="matrix" values="0 0 0 0 0 0 0 0 0 0 0 0 0 0 0 0 0 0 127 0" result="hardAlpha"/>
<feOffset dy="4"/>
<feGaussianBlur stdDeviation="2"/>
<feComposite in2="hardAlpha" operator="out"/>
<feColorMatrix type="matrix" values="0 0 0 0 0 0 0 0 0 0 0 0 0 0 0 0 0 0 0.25 0"/>
<feBlend mode="normal" in2="BackgroundImageFix" result="effect1_dropShadow_572_1123"/>
<feBlend mode="normal" in="SourceGraphic" in2="effect1_dropShadow_572_1123" result="shape"/>
</filter>
<linearGradient id="paint0_linear_572_1123" x1="54.5" y1="1" x2="54.5" y2="50" gradientUnits="userSpaceOnUse">
<stop stop-color="#FFC69D"/>
<stop offset="1" stop-color="#FFEE8F"/>
</linearGradient>
<linearGradient id="paint1_linear_572_1123" x1="54" y1="26" x2="54" y2="49" gradientUnits="userSpaceOnUse">
<stop stop-color="#FF3636"/>
<stop offset="1" stop-color="#FFE02D"/>
</linearGradient>
<linearGradient id="paint2_linear_572_1123" x1="54.5" y1="53" x2="54.5" y2="102" gradientUnits="userSpaceOnUse">
<stop stop-color="#FFF4BE"/>
<stop offset="1" stop-color="#FFC69D"/>
</linearGradient>
<linearGradient id="paint3_linear_572_1123" x1="54" y1="49" x2="54" y2="53.5" gradientUnits="userSpaceOnUse">
<stop stop-color="#FFF5BC"/>
<stop offset="1" stop-color="#FFF7D1"/>
</linearGradient>
<linearGradient id="paint4_linear_572_1123" x1="54.5273" y1="70.1111" x2="54.5273" y2="76" gradientUnits="userSpaceOnUse">
<stop stop-color="#FF991B"/>
<stop offset="1" stop-color="#FDE363"/>
</linearGradient>
<linearGradient id="paint5_linear_572_1123" x1="190" y1="19" x2="190" y2="85" gradientUnits="userSpaceOnUse">
<stop stop-color="#7CD6FF" stop-opacity="0.74"/>
<stop offset="1" stop-color="#DCADDB"/>
</linearGradient>
<linearGradient id="paint6_linear_572_1123" x1="190" y1="19" x2="190" y2="85" gradientUnits="userSpaceOnUse">
<stop stop-color="#EDF8FF"/>
<stop offset="1" stop-color="#EFE5FF"/>
</linearGradient>
<linearGradient id="paint7_linear_572_1123" x1="324.5" y1="17" x2="324.5" y2="52" gradientUnits="userSpaceOnUse">
<stop stop-color="#FF7EA7" stop-opacity="0.5"/>
<stop offset="1" stop-color="#D84372" stop-opacity="0.66"/>
</linearGradient>
<linearGradient id="paint8_linear_572_1123" x1="324.5" y1="35" x2="324.5" y2="72" gradientUnits="userSpaceOnUse">
<stop stop-color="#F09BB6"/>
<stop offset="1" stop-color="#FF6C9B"/>
</linearGradient>
<linearGradient id="paint9_linear_572_1123" x1="481" y1="48.5" x2="434" y2="48.5" gradientUnits="userSpaceOnUse">
<stop stop-color="#95BED0"/>
<stop offset="1" stop-color="#004B97" stop-opacity="0.9"/>
</linearGradient>
<linearGradient id="paint10_linear_572_1123" x1="426" y1="33.5" x2="436" y2="33.5" gradientUnits="userSpaceOnUse">
<stop stop-color="#004B97" stop-opacity="0.9"/>
<stop offset="1" stop-color="#4F83B7"/>
</linearGradient>
<linearGradient id="paint11_linear_572_1123" x1="426" y1="57.5" x2="436" y2="57.5" gradientUnits="userSpaceOnUse">
<stop stop-color="#1B5EA1"/>
<stop offset="1" stop-color="#4B80B5"/>
</linearGradient>
<linearGradient id="paint12_linear_572_1123" x1="426" y1="45.5" x2="436" y2="45.5" gradientUnits="userSpaceOnUse">
<stop stop-color="#1A5DA1"/>
<stop offset="1" stop-color="#4C81B6"/>
</linearGradient>
<linearGradient id="paint13_linear_572_1123" x1="498.5" y1="54.2336" x2="481" y2="54.2336" gradientUnits="userSpaceOnUse">
<stop stop-color="#CEF0FF" stop-opacity="0.74"/>
<stop offset="1" stop-color="#C1E0EF"/>
</linearGradient>
<linearGradient id="paint14_linear_572_1123" x1="584" y1="48" x2="584" y2="85" gradientUnits="userSpaceOnUse">
<stop stop-color="#30E96E"/>
<stop offset="1" stop-color="#32B4CB"/>
</linearGradient>
<linearGradient id="paint15_linear_572_1123" x1="606" y1="27" x2="583" y2="27" gradientUnits="userSpaceOnUse">
<stop stop-color="#FFD900"/>
<stop offset="1" stop-color="#FFF4BE"/>
</linearGradient>
<linearGradient id="paint16_linear_572_1123" x1="606.5" y1="40" x2="606.5" y2="88" gradientUnits="userSpaceOnUse">
<stop offset="0.269231" stop-color="#B3FF00"/>
<stop offset="1" stop-color="#199F46"/>
</linearGradient>
<linearGradient id="paint17_linear_572_1123" x1="606.5" y1="39.5" x2="606.5" y2="58" gradientUnits="userSpaceOnUse">
<stop stop-color="#D7FFBE"/>
<stop offset="1" stop-color="#EAFFCC"/>
</linearGradient>
</defs>
</svg>
