<svg width="649" height="109" viewBox="0 0 649 109" fill="none" xmlns="http://www.w3.org/2000/svg">
<line x1="56.0044" y1="47.5" x2="622.004" y2="48.5" stroke="#C6C6C6" stroke-width="5" stroke-dasharray="10 10"/>
<g filter="url(#filter0_d_573_1250)">
<rect x="4" width="100" height="100" rx="50" fill="white"/>
</g>
<path d="M71 24.5C71 27.7174 70.5732 30.9033 69.744 33.8757C68.9148 36.8482 67.6994 39.5491 66.1673 41.8241C64.6351 44.0992 62.8161 45.9038 60.8143 47.135C58.8124 48.3663 56.6668 49 54.5 49C52.3332 49 50.1876 48.3663 48.1857 47.135C46.1839 45.9038 44.3649 44.0992 42.8327 41.8241C41.3006 39.5491 40.0852 36.8482 39.256 33.8757C38.4268 30.9033 38 27.7174 38 24.5L54.5 24.5H71Z" fill="url(#paint0_linear_573_1250)" fill-opacity="0.5"/>
<path d="M65 36.5C65 38.0102 64.7155 39.5056 64.1627 40.9009C63.6099 42.2961 62.7996 43.5639 61.7782 44.6317C60.7567 45.6996 59.5441 46.5467 58.2095 47.1246C56.8749 47.7025 55.4445 48 54 48C52.5555 48 51.1251 47.7025 49.7905 47.1246C48.4559 46.5467 47.2433 45.6996 46.2218 44.6317C45.2004 43.5639 44.3901 42.2961 43.8373 40.9009C43.2845 39.5056 43 38.0102 43 36.5L54 36.5H65Z" fill="url(#paint1_linear_573_1250)"/>
<path d="M71 76.5C71 73.2826 70.5732 70.0967 69.744 67.1243C68.9148 64.1518 67.6994 61.4509 66.1673 59.1759C64.6351 56.9008 62.8161 55.0962 60.8143 53.865C58.8124 52.6337 56.6668 52 54.5 52C52.3332 52 50.1876 52.6337 48.1857 53.865C46.1839 55.0962 44.3649 56.9008 42.8327 59.1759C41.3006 61.4509 40.0852 64.1518 39.256 67.1243C38.4268 70.0967 38 73.2826 38 76.5L54.5 76.5H71Z" fill="url(#paint2_linear_573_1250)" fill-opacity="0.6"/>
<path d="M52.5 48H55.5C55.1343 50.6642 55.1446 50.4689 55.5 52.5H52.5C53.0689 50.1508 52.5 48 52.5 48Z" fill="url(#paint3_linear_573_1250)"/>
<rect x="35" y="76" width="40" height="7" rx="3.5" fill="#FFC69D"/>
<rect x="34" y="18" width="40" height="7" rx="3.5" fill="#FFC69D"/>
<circle cx="54.5" cy="49.5" r="0.5" fill="#FFE033"/>
<circle cx="54.5" cy="52.5" r="0.5" fill="#FFE033"/>
<circle cx="53.5" cy="51.5" r="0.5" fill="#FFE033"/>
<path d="M40 70C41 67.9999 69 70 69 70C69.9861 71.9083 70.1663 73.0077 70 75H39C39.3905 73.0473 39 72 40 70Z" fill="url(#paint4_linear_573_1250)"/>
<g filter="url(#filter1_d_573_1250)">
<rect x="545" y="1" width="100" height="100" rx="50" fill="white"/>
</g>
<path d="M605.5 42L620.655 78H590.345L605.5 42Z" fill="#D9D9D9"/>
<path d="M583 50L600.321 77.75H565.679L583 50Z" fill="#D9D9D9"/>
<line x1="605.5" y1="43" x2="605.5" y2="21" stroke="#B4B4B4"/>
<path d="M582 21H605V37H582L588 29L582 21Z" fill="#D9D9D9"/>
<line x1="563" y1="77" x2="627" y2="77" stroke="#B4B4B4" stroke-width="2"/>
<path d="M605.5 42.5L600 56L603 61L605.5 58L608.5 61L611 56L605.5 42.5Z" fill="#EEEEEE" stroke="#EEEEEE" stroke-linecap="round" stroke-linejoin="round"/>
<g filter="url(#filter2_d_573_1250)">
<rect x="410" y="1" width="100" height="100" rx="50" fill="white"/>
</g>
<rect x="433" y="27" width="47" height="47" rx="9" fill="#D9D9D9"/>
<circle cx="450.5" cy="72.5" r="6" fill="#EEEEEE" stroke="#B4B4B4" stroke-width="5"/>
<path d="M425 32C423.343 32 422 33.3431 422 35C422 36.6569 423.343 38 425 38V35V32ZM425 35V38H435V35V32H425V35Z" fill="#D9D9D9"/>
<path d="M448 38C449.657 38 451 39.3431 451 41C451 42.6569 449.657 44 448 44V41V38ZM448 41V44H433V41V38H448V41Z" fill="white"/>
<path d="M443 50C444.657 50 446 51.3431 446 53C446 54.6569 444.657 56 443 56V53V50ZM443 53V56H433V53V50H443V53Z" fill="white"/>
<path d="M425 56C423.343 56 422 57.3431 422 59C422 60.6569 423.343 62 425 62V59V56ZM425 59V62H435V59V56H425V59Z" fill="#D9D9D9"/>
<path d="M425 44C423.343 44 422 45.3431 422 47C422 48.6569 423.343 50 425 50V47V44ZM425 47V50H435V47V44H425V47Z" fill="#D9D9D9"/>
<path d="M480 38.5H488C492.039 41.7861 494.117 43.8369 497.5 48V68.5C496.971 71.366 496.135 72.3844 494 73.5C491.657 74.081 490.343 74.1636 488 73.5L480 64V38.5Z" fill="#D9D9D9"/>
<circle cx="480.5" cy="72.5" r="6" fill="#EEEEEE" stroke="#B4B4B4" stroke-width="5"/>
<path d="M480 45H485.5L490.5 50V56H480V45Z" fill="#EEEEEE"/>
<g filter="url(#filter3_d_573_1250)">
<rect x="274" y="1" width="100" height="100" rx="50" fill="white"/>
</g>
<path d="M323.5 73L308.778 45.25H338.222L323.5 73Z" fill="#D9D9D9"/>
<circle cx="323.5" cy="35.5" r="17.5" fill="#D9D9D9"/>
<circle cx="324" cy="35" r="6" fill="#EEEEEE"/>
<ellipse cx="323.5" cy="79.5" rx="16.5" ry="4.5" fill="#B4B4B4"/>
<g filter="url(#filter4_d_573_1250)">
<rect x="138" y="1" width="100" height="100" rx="50" fill="white"/>
</g>
<path d="M150 50.9381L158.367 37.3299L190.44 21L221.119 37.3299V66.5876L190.44 87L158.367 69.9897V55.0206L150 50.9381Z" fill="#D9D9D9"/>
<path d="M158.367 37.3299L150 50.9381L158.367 55.0206M158.367 37.3299L190.44 54.3402M158.367 37.3299L190.44 21L221.119 37.3299M190.44 54.3402L182.073 67.9485L158.367 55.0206M190.44 54.3402L221.119 37.3299M190.44 54.3402V87M221.119 37.3299V66.5876L190.44 87M221.119 37.3299L226 46.8557M190.44 87L158.367 69.9897V55.0206" stroke="#EEEEEE" stroke-width="4" stroke-linecap="round" stroke-linejoin="round"/>
<path d="M191 42.5L199 47L191 52L183 47L191 42.5Z" fill="#B4B4B4"/>
<defs>
<filter id="filter0_d_573_1250" x="0" y="0" width="108" height="108" filterUnits="userSpaceOnUse" color-interpolation-filters="sRGB">
<feFlood flood-opacity="0" result="BackgroundImageFix"/>
<feColorMatrix in="SourceAlpha" type="matrix" values="0 0 0 0 0 0 0 0 0 0 0 0 0 0 0 0 0 0 127 0" result="hardAlpha"/>
<feOffset dy="4"/>
<feGaussianBlur stdDeviation="2"/>
<feComposite in2="hardAlpha" operator="out"/>
<feColorMatrix type="matrix" values="0 0 0 0 0 0 0 0 0 0 0 0 0 0 0 0 0 0 0.25 0"/>
<feBlend mode="normal" in2="BackgroundImageFix" result="effect1_dropShadow_573_1250"/>
<feBlend mode="normal" in="SourceGraphic" in2="effect1_dropShadow_573_1250" result="shape"/>
</filter>
<filter id="filter1_d_573_1250" x="541" y="1" width="108" height="108" filterUnits="userSpaceOnUse" color-interpolation-filters="sRGB">
<feFlood flood-opacity="0" result="BackgroundImageFix"/>
<feColorMatrix in="SourceAlpha" type="matrix" values="0 0 0 0 0 0 0 0 0 0 0 0 0 0 0 0 0 0 127 0" result="hardAlpha"/>
<feOffset dy="4"/>
<feGaussianBlur stdDeviation="2"/>
<feComposite in2="hardAlpha" operator="out"/>
<feColorMatrix type="matrix" values="0 0 0 0 0 0 0 0 0 0 0 0 0 0 0 0 0 0 0.25 0"/>
<feBlend mode="normal" in2="BackgroundImageFix" result="effect1_dropShadow_573_1250"/>
<feBlend mode="normal" in="SourceGraphic" in2="effect1_dropShadow_573_1250" result="shape"/>
</filter>
<filter id="filter2_d_573_1250" x="406" y="1" width="108" height="108" filterUnits="userSpaceOnUse" color-interpolation-filters="sRGB">
<feFlood flood-opacity="0" result="BackgroundImageFix"/>
<feColorMatrix in="SourceAlpha" type="matrix" values="0 0 0 0 0 0 0 0 0 0 0 0 0 0 0 0 0 0 127 0" result="hardAlpha"/>
<feOffset dy="4"/>
<feGaussianBlur stdDeviation="2"/>
<feComposite in2="hardAlpha" operator="out"/>
<feColorMatrix type="matrix" values="0 0 0 0 0 0 0 0 0 0 0 0 0 0 0 0 0 0 0.25 0"/>
<feBlend mode="normal" in2="BackgroundImageFix" result="effect1_dropShadow_573_1250"/>
<feBlend mode="normal" in="SourceGraphic" in2="effect1_dropShadow_573_1250" result="shape"/>
</filter>
<filter id="filter3_d_573_1250" x="270" y="1" width="108" height="108" filterUnits="userSpaceOnUse" color-interpolation-filters="sRGB">
<feFlood flood-opacity="0" result="BackgroundImageFix"/>
<feColorMatrix in="SourceAlpha" type="matrix" values="0 0 0 0 0 0 0 0 0 0 0 0 0 0 0 0 0 0 127 0" result="hardAlpha"/>
<feOffset dy="4"/>
<feGaussianBlur stdDeviation="2"/>
<feComposite in2="hardAlpha" operator="out"/>
<feColorMatrix type="matrix" values="0 0 0 0 0 0 0 0 0 0 0 0 0 0 0 0 0 0 0.25 0"/>
<feBlend mode="normal" in2="BackgroundImageFix" result="effect1_dropShadow_573_1250"/>
<feBlend mode="normal" in="SourceGraphic" in2="effect1_dropShadow_573_1250" result="shape"/>
</filter>
<filter id="filter4_d_573_1250" x="134" y="1" width="108" height="108" filterUnits="userSpaceOnUse" color-interpolation-filters="sRGB">
<feFlood flood-opacity="0" result="BackgroundImageFix"/>
<feColorMatrix in="SourceAlpha" type="matrix" values="0 0 0 0 0 0 0 0 0 0 0 0 0 0 0 0 0 0 127 0" result="hardAlpha"/>
<feOffset dy="4"/>
<feGaussianBlur stdDeviation="2"/>
<feComposite in2="hardAlpha" operator="out"/>
<feColorMatrix type="matrix" values="0 0 0 0 0 0 0 0 0 0 0 0 0 0 0 0 0 0 0.25 0"/>
<feBlend mode="normal" in2="BackgroundImageFix" result="effect1_dropShadow_573_1250"/>
<feBlend mode="normal" in="SourceGraphic" in2="effect1_dropShadow_573_1250" result="shape"/>
</filter>
<linearGradient id="paint0_linear_573_1250" x1="54.5" y1="0" x2="54.5" y2="49" gradientUnits="userSpaceOnUse">
<stop stop-color="#FFC69D"/>
<stop offset="1" stop-color="#FFEE8F"/>
</linearGradient>
<linearGradient id="paint1_linear_573_1250" x1="54" y1="25" x2="54" y2="48" gradientUnits="userSpaceOnUse">
<stop stop-color="#FF3636"/>
<stop offset="1" stop-color="#FFE02D"/>
</linearGradient>
<linearGradient id="paint2_linear_573_1250" x1="54.5" y1="52" x2="54.5" y2="101" gradientUnits="userSpaceOnUse">
<stop stop-color="#FFF4BE"/>
<stop offset="1" stop-color="#FFC69D"/>
</linearGradient>
<linearGradient id="paint3_linear_573_1250" x1="54" y1="48" x2="54" y2="52.5" gradientUnits="userSpaceOnUse">
<stop stop-color="#FFF5BC"/>
<stop offset="1" stop-color="#FFF7D1"/>
</linearGradient>
<linearGradient id="paint4_linear_573_1250" x1="54.5273" y1="69.1111" x2="54.5273" y2="75" gradientUnits="userSpaceOnUse">
<stop stop-color="#FF991B"/>
<stop offset="1" stop-color="#FDE363"/>
</linearGradient>
</defs>
</svg>
