<svg width="130" height="40" viewBox="0 0 130 40" fill="none" xmlns="http://www.w3.org/2000/svg">
<g clip-path="url(#clip0_12_40)">
<path d="M0 20C0 8.95431 8.95431 0 20 0H110C121.046 0 130 8.95431 130 20C130 31.0457 121.046 40 110 40H20C8.9543 40 0 31.0457 0 20Z" fill="url(#paint0_linear_12_40)" fill-opacity="0.8"/>
<path d="M23 10L11 20.5085L23 30" stroke="white" stroke-width="3"/>
<path d="M42 24.978C41.832 25.0527 41.6593 25.0667 41.482 25.02C41.3047 24.9733 41.1787 24.8613 41.104 24.684C41.0387 24.5347 41.034 24.3853 41.09 24.236C41.146 24.0867 41.2533 23.9793 41.412 23.914C42.2707 23.5127 43.05 22.948 43.75 22.22C43.3487 21.7253 43.008 21.1887 42.728 20.61C42.4573 20.0313 42.2427 19.4293 42.084 18.804H41.636C41.6173 20.008 41.5007 21.044 41.286 21.912C41.0807 22.78 40.7867 23.5733 40.404 24.292C40.3293 24.4413 40.2127 24.544 40.054 24.6C39.9047 24.656 39.746 24.6513 39.578 24.586C39.4193 24.5207 39.312 24.4133 39.256 24.264C39.2093 24.1053 39.2233 23.9513 39.298 23.802C39.6247 23.1673 39.8907 22.4253 40.096 21.576C40.3013 20.7173 40.404 19.6487 40.404 18.37V16.928C40.404 16.172 40.5673 15.6493 40.894 15.36C41.23 15.0613 41.79 14.912 42.574 14.912H47.572C47.74 14.912 47.8707 14.968 47.964 15.08C48.0667 15.192 48.118 15.3273 48.118 15.486C48.118 15.6353 48.0667 15.7707 47.964 15.892C47.8707 16.004 47.74 16.06 47.572 16.06H42.7C42.2987 16.06 42.0187 16.1253 41.86 16.256C41.7107 16.3773 41.636 16.6293 41.636 17.012V17.698H45.304C45.92 17.698 46.3633 17.8753 46.634 18.23C46.9047 18.5753 46.9327 19.0467 46.718 19.644C46.41 20.5307 45.948 21.38 45.332 22.192C46.004 22.8267 46.802 23.3493 47.726 23.76C47.894 23.8253 48.0107 23.942 48.076 24.11C48.1413 24.2687 48.1367 24.4273 48.062 24.586C47.9687 24.7727 47.8287 24.894 47.642 24.95C47.4647 24.9967 47.2827 24.978 47.096 24.894C46.1253 24.4087 45.276 23.816 44.548 23.116C44.184 23.4893 43.7873 23.8347 43.358 24.152C42.9287 24.4693 42.476 24.7447 42 24.978ZM43.666 26.784C42.7233 26.784 41.916 26.7373 41.244 26.644C40.572 26.56 39.998 26.4153 39.522 26.21C39.046 26.014 38.6307 25.748 38.276 25.412C38.1267 25.5147 37.9447 25.6453 37.73 25.804C37.5247 25.9533 37.3287 26.0933 37.142 26.224C36.9553 26.364 36.8153 26.4713 36.722 26.546C36.5727 26.6487 36.4 26.686 36.204 26.658C36.008 26.63 35.8587 26.5367 35.756 26.378C35.6627 26.2193 35.6347 26.0513 35.672 25.874C35.7187 25.6967 35.8213 25.5613 35.98 25.468C36.092 25.412 36.2367 25.3327 36.414 25.23C36.6007 25.1273 36.792 25.0153 36.988 24.894C37.1933 24.7727 37.3753 24.6653 37.534 24.572V21.366C37.534 21.114 37.492 20.9413 37.408 20.848C37.324 20.7547 37.156 20.708 36.904 20.708H36.134C35.9567 20.708 35.812 20.652 35.7 20.54C35.5973 20.428 35.546 20.288 35.546 20.12C35.546 19.9613 35.5973 19.826 35.7 19.714C35.812 19.602 35.9567 19.546 36.134 19.546H37.338C38.2807 19.546 38.752 20.0173 38.752 20.96V24.39C39.06 24.6887 39.41 24.9313 39.802 25.118C40.194 25.3047 40.6933 25.44 41.3 25.524C41.916 25.5987 42.7047 25.636 43.666 25.636C44.4873 25.636 45.2433 25.622 45.934 25.594C46.6247 25.566 47.2267 25.5333 47.74 25.496C47.9453 25.4773 48.118 25.5287 48.258 25.65C48.398 25.762 48.468 25.9113 48.468 26.098C48.468 26.2847 48.4073 26.4387 48.286 26.56C48.174 26.6813 48.0013 26.742 47.768 26.742C47.4133 26.7513 46.9933 26.756 46.508 26.756C46.032 26.7653 45.542 26.77 45.038 26.77C44.5433 26.7793 44.086 26.784 43.666 26.784ZM38.836 17.46C38.7147 17.5813 38.5653 17.642 38.388 17.642C38.2107 17.642 38.066 17.5767 37.954 17.446C37.8233 17.278 37.66 17.096 37.464 16.9C37.2773 16.6947 37.0813 16.494 36.876 16.298C36.68 16.102 36.498 15.934 36.33 15.794C36.2087 15.6913 36.148 15.5607 36.148 15.402C36.148 15.234 36.204 15.0893 36.316 14.968C36.428 14.856 36.5633 14.7907 36.722 14.772C36.89 14.7533 37.0393 14.8 37.17 14.912C37.3567 15.0613 37.5527 15.2387 37.758 15.444C37.9727 15.64 38.178 15.836 38.374 16.032C38.5793 16.228 38.7473 16.4007 38.878 16.55C39.0087 16.6807 39.0647 16.8347 39.046 17.012C39.0367 17.18 38.9667 17.3293 38.836 17.46ZM44.52 21.31C44.7347 21.03 44.9213 20.7407 45.08 20.442C45.2387 20.1433 45.374 19.8447 45.486 19.546C45.5793 19.2847 45.584 19.098 45.5 18.986C45.4253 18.8647 45.2527 18.804 44.982 18.804H43.176C43.512 19.7653 43.96 20.6007 44.52 21.31ZM54.446 26.616C53.3633 26.616 52.5 26.4807 51.856 26.21C51.212 25.9393 50.75 25.4867 50.47 24.852C50.1993 24.2173 50.064 23.3587 50.064 22.276V19.084C50.064 17.992 50.1993 17.1333 50.47 16.508C50.75 15.8733 51.212 15.4207 51.856 15.15C52.5 14.8793 53.3633 14.744 54.446 14.744H57.554C58.646 14.744 59.5093 14.8793 60.144 15.15C60.788 15.4207 61.2453 15.8733 61.516 16.508C61.796 17.1333 61.936 17.992 61.936 19.084V22.276C61.936 23.3587 61.796 24.2173 61.516 24.852C61.2453 25.4867 60.788 25.9393 60.144 26.21C59.5093 26.4807 58.646 26.616 57.554 26.616H54.446ZM54.46 25.412H57.54C58.324 25.412 58.94 25.3187 59.388 25.132C59.8453 24.936 60.172 24.6093 60.368 24.152C60.564 23.6947 60.662 23.0787 60.662 22.304V19.056C60.662 18.272 60.564 17.656 60.368 17.208C60.172 16.7507 59.8453 16.4287 59.388 16.242C58.94 16.046 58.324 15.948 57.54 15.948H54.46C53.6853 15.948 53.0693 16.046 52.612 16.242C52.1547 16.4287 51.828 16.7507 51.632 17.208C51.436 17.656 51.338 18.272 51.338 19.056V22.304C51.338 23.0787 51.436 23.6947 51.632 24.152C51.828 24.6093 52.1547 24.936 52.612 25.132C53.0693 25.3187 53.6853 25.412 54.46 25.412ZM56 23.466C55.3187 23.466 54.782 23.3913 54.39 23.242C54.0073 23.0927 53.732 22.8453 53.564 22.5C53.4053 22.1547 53.326 21.688 53.326 21.1V20.26C53.326 19.6627 53.4053 19.196 53.564 18.86C53.732 18.5147 54.0073 18.2673 54.39 18.118C54.782 17.9687 55.3187 17.894 56 17.894C56.6813 17.894 57.2133 17.9687 57.596 18.118C57.988 18.2673 58.2633 18.5147 58.422 18.86C58.59 19.196 58.674 19.6627 58.674 20.26V21.1C58.674 21.688 58.59 22.1547 58.422 22.5C58.2633 22.8453 57.988 23.0927 57.596 23.242C57.2133 23.3913 56.6813 23.466 56 23.466ZM56 22.332C56.4013 22.332 56.7047 22.2993 56.91 22.234C57.1153 22.1593 57.2553 22.0333 57.33 21.856C57.4047 21.6693 57.442 21.4127 57.442 21.086V20.274C57.442 19.938 57.4047 19.6813 57.33 19.504C57.2553 19.3267 57.1153 19.2053 56.91 19.14C56.7047 19.0653 56.4013 19.028 56 19.028C55.608 19.028 55.3047 19.0653 55.09 19.14C54.8847 19.2053 54.7447 19.3267 54.67 19.504C54.5953 19.6813 54.558 19.938 54.558 20.274V21.086C54.558 21.4127 54.5953 21.6693 54.67 21.856C54.7447 22.0333 54.8847 22.1593 55.09 22.234C55.3047 22.2993 55.608 22.332 56 22.332ZM69.692 27.218C69.5333 27.218 69.398 27.1667 69.286 27.064C69.174 26.9613 69.118 26.8213 69.118 26.644V24.572H68.39C68.2687 24.572 68.1613 24.5253 68.068 24.432C67.9747 24.3387 67.928 24.2313 67.928 24.11C67.928 23.9793 67.9747 23.872 68.068 23.788C68.1613 23.6947 68.2687 23.648 68.39 23.648H69.118V22.08C69.118 21.436 69.2627 20.9833 69.552 20.722C69.8413 20.4513 70.3827 20.316 71.176 20.316H71.652V19.728H68.614C68.4927 19.728 68.3853 19.6813 68.292 19.588C68.1987 19.4947 68.152 19.3873 68.152 19.266C68.152 19.1353 68.1987 19.0233 68.292 18.93C68.3853 18.8367 68.4927 18.79 68.614 18.79H70.308V18.034H69.216C69.0947 18.034 68.9873 17.992 68.894 17.908C68.81 17.8147 68.768 17.7073 68.768 17.586C68.768 17.4553 68.81 17.348 68.894 17.264C68.9873 17.1707 69.0947 17.124 69.216 17.124H70.308V16.466H68.768C68.6467 16.466 68.5393 16.4193 68.446 16.326C68.3527 16.2327 68.306 16.1253 68.306 16.004C68.306 15.8733 68.3527 15.766 68.446 15.682C68.5393 15.5887 68.6467 15.542 68.768 15.542H70.308V14.758C70.308 14.59 70.364 14.4547 70.476 14.352C70.588 14.2493 70.7187 14.198 70.868 14.198C71.0267 14.198 71.1573 14.2493 71.26 14.352C71.372 14.4547 71.428 14.59 71.428 14.758V15.542H72.982V14.758C72.982 14.59 73.038 14.4547 73.15 14.352C73.262 14.2493 73.3927 14.198 73.542 14.198C73.7007 14.198 73.8313 14.2493 73.934 14.352C74.0367 14.4547 74.088 14.59 74.088 14.758V15.542H75.698C75.8287 15.542 75.936 15.5887 76.02 15.682C76.1133 15.766 76.16 15.8733 76.16 16.004C76.16 16.1253 76.1133 16.2327 76.02 16.326C75.936 16.4193 75.8287 16.466 75.698 16.466H74.088V17.124H75.32C75.4507 17.124 75.558 17.1707 75.642 17.264C75.7353 17.348 75.782 17.4553 75.782 17.586C75.782 17.7073 75.7353 17.8147 75.642 17.908C75.558 17.992 75.4507 18.034 75.32 18.034H74.088V18.79H75.88C76.0107 18.79 76.1227 18.8367 76.216 18.93C76.3093 19.0233 76.356 19.1353 76.356 19.266C76.356 19.3873 76.3093 19.4947 76.216 19.588C76.1227 19.6813 76.0107 19.728 75.88 19.728H72.758V20.316H73.248C74.0507 20.316 74.592 20.4513 74.872 20.722C75.1613 20.9833 75.306 21.436 75.306 22.08V23.648H76.104C76.2347 23.648 76.342 23.6947 76.426 23.788C76.5193 23.872 76.566 23.9793 76.566 24.11C76.566 24.2313 76.5193 24.3387 76.426 24.432C76.342 24.5253 76.2347 24.572 76.104 24.572H75.306V25.524C75.306 26.1307 75.1707 26.56 74.9 26.812C74.6293 27.0733 74.1393 27.204 73.43 27.204C73.262 27.204 73.1267 27.148 73.024 27.036C72.9307 26.9333 72.8747 26.8073 72.856 26.658C72.8467 26.4993 72.8933 26.364 72.996 26.252C73.0987 26.1493 73.2387 26.0933 73.416 26.084C73.752 26.0653 73.962 26.0233 74.046 25.958C74.13 25.8833 74.172 25.706 74.172 25.426V24.572H70.252V26.644C70.252 26.8213 70.196 26.9613 70.084 27.064C69.9813 27.1667 69.8507 27.218 69.692 27.218ZM65.968 23.76C65.5013 23.76 65.1327 23.7087 64.862 23.606C64.5913 23.5033 64.4 23.3213 64.288 23.06C64.176 22.7987 64.12 22.43 64.12 21.954V16.634C64.12 16.1487 64.176 15.7753 64.288 15.514C64.4 15.2527 64.5913 15.0707 64.862 14.968C65.1327 14.8653 65.5013 14.814 65.968 14.814C66.4347 14.814 66.8033 14.8653 67.074 14.968C67.3447 15.0707 67.536 15.2527 67.648 15.514C67.76 15.7753 67.816 16.1487 67.816 16.634V21.954C67.816 22.43 67.76 22.7987 67.648 23.06C67.536 23.3213 67.3447 23.5033 67.074 23.606C66.8033 23.7087 66.4347 23.76 65.968 23.76ZM63.784 26.994C63.6533 26.9193 63.5647 26.8073 63.518 26.658C63.4807 26.5087 63.504 26.3733 63.588 26.252C63.7 26.084 63.826 25.8833 63.966 25.65C64.1153 25.4073 64.2553 25.1647 64.386 24.922C64.5167 24.67 64.6147 24.4647 64.68 24.306C64.7453 24.166 64.8433 24.0727 64.974 24.026C65.1047 23.97 65.24 23.9653 65.38 24.012C65.5293 24.068 65.6367 24.166 65.702 24.306C65.7673 24.446 65.7673 24.5813 65.702 24.712C65.618 24.8987 65.506 25.1227 65.366 25.384C65.2353 25.6453 65.1 25.8973 64.96 26.14C64.82 26.392 64.6893 26.6067 64.568 26.784C64.4747 26.9147 64.3533 26.9987 64.204 27.036C64.064 27.0827 63.924 27.0687 63.784 26.994ZM68.306 26.868C68.166 26.952 68.0213 26.9753 67.872 26.938C67.7227 26.91 67.6013 26.8307 67.508 26.7C67.4053 26.5413 67.284 26.3453 67.144 26.112C67.004 25.8787 66.8687 25.6407 66.738 25.398C66.6073 25.146 66.4953 24.9267 66.402 24.74C66.3273 24.5907 66.3227 24.446 66.388 24.306C66.4533 24.166 66.5513 24.0727 66.682 24.026C66.8313 23.97 66.9713 23.97 67.102 24.026C67.2327 24.0727 67.3307 24.1707 67.396 24.32C67.48 24.4787 67.5827 24.6747 67.704 24.908C67.8347 25.132 67.97 25.356 68.11 25.58C68.25 25.7947 68.3667 25.9673 68.46 26.098C68.5533 26.2193 68.586 26.3547 68.558 26.504C68.53 26.6627 68.446 26.784 68.306 26.868ZM65.968 22.696C66.276 22.696 66.486 22.6447 66.598 22.542C66.71 22.4393 66.766 22.2387 66.766 21.94V21.016H65.17V21.94C65.17 22.2387 65.226 22.4393 65.338 22.542C65.45 22.6447 65.66 22.696 65.968 22.696ZM65.17 20.022H66.766V18.44H65.17V20.022ZM65.17 17.46H66.766V16.648C66.766 16.34 66.71 16.1393 66.598 16.046C66.486 15.9433 66.276 15.892 65.968 15.892C65.66 15.892 65.45 15.9433 65.338 16.046C65.226 16.1393 65.17 16.34 65.17 16.648V17.46ZM71.428 18.79H72.982V18.034H71.428V18.79ZM72.758 23.648H74.172V22.864H72.758V23.648ZM70.252 23.648H71.652V22.864H70.252V23.648ZM71.428 17.124H72.982V16.466H71.428V17.124ZM72.758 21.954H74.158C74.1487 21.6553 74.0787 21.4593 73.948 21.366C73.8267 21.2727 73.5933 21.226 73.248 21.226H72.758V21.954ZM70.266 21.954H71.652V21.226H71.176C70.8307 21.226 70.5927 21.2727 70.462 21.366C70.3407 21.4593 70.2753 21.6553 70.266 21.954ZM86.534 27.022C86.3473 27.022 86.184 26.9753 86.044 26.882C85.9133 26.7887 85.8387 26.6393 85.82 26.434C85.8013 26.2473 85.8433 26.0887 85.946 25.958C86.058 25.8273 86.212 25.7573 86.408 25.748C86.884 25.72 87.2433 25.6733 87.486 25.608C87.738 25.5333 87.92 25.398 88.032 25.202C88.144 25.006 88.2327 24.7213 88.298 24.348C88.3633 23.984 88.4287 23.5313 88.494 22.99C88.5593 22.4487 88.6153 21.8793 88.662 21.282C88.718 20.6753 88.7553 20.106 88.774 19.574C88.7927 19.21 88.746 18.93 88.634 18.734C88.522 18.5287 88.34 18.384 88.088 18.3C87.8453 20.1853 87.3367 21.7673 86.562 23.046C85.7967 24.3247 84.7327 25.3933 83.37 26.252C83.2113 26.3453 83.0387 26.378 82.852 26.35C82.6653 26.3313 82.5253 26.2473 82.432 26.098C82.348 25.9393 82.3247 25.7853 82.362 25.636C82.4087 25.4867 82.5067 25.3653 82.656 25.272C83.8507 24.572 84.812 23.6433 85.54 22.486C86.268 21.3287 86.758 19.9053 87.01 18.216H86.114C85.89 19.3827 85.512 20.4327 84.98 21.366C84.4573 22.2993 83.7667 23.1067 82.908 23.788C82.7773 23.8907 82.6233 23.9373 82.446 23.928C82.278 23.9093 82.138 23.8347 82.026 23.704C81.9327 23.5733 81.8953 23.4333 81.914 23.284C81.942 23.1253 82.0167 22.9993 82.138 22.906C82.8847 22.374 83.5007 21.6927 83.986 20.862C84.4807 20.0313 84.8307 19.1493 85.036 18.216H84.238C84.0887 18.5333 83.9253 18.846 83.748 19.154C83.5707 19.4527 83.384 19.7373 83.188 20.008C83.1133 20.148 82.992 20.2413 82.824 20.288C82.6653 20.3347 82.516 20.3207 82.376 20.246C82.2453 20.1713 82.152 20.0593 82.096 19.91C82.0493 19.7607 82.0727 19.6253 82.166 19.504C82.446 19.0933 82.712 18.6267 82.964 18.104C83.2253 17.5813 83.4587 17.0353 83.664 16.466C83.8693 15.8873 84.028 15.3273 84.14 14.786C84.1773 14.6087 84.266 14.4827 84.406 14.408C84.5553 14.3333 84.7093 14.3147 84.868 14.352C85.036 14.3893 85.1573 14.4733 85.232 14.604C85.316 14.7347 85.3393 14.8793 85.302 15.038C85.2367 15.374 85.1527 15.7147 85.05 16.06C84.9473 16.4053 84.8307 16.7507 84.7 17.096H87.458C88.074 17.096 88.564 17.1707 88.928 17.32C89.3013 17.46 89.572 17.7073 89.74 18.062C89.908 18.4167 89.9827 18.9067 89.964 19.532C89.9453 20.12 89.9127 20.7173 89.866 21.324C89.8193 21.9307 89.7633 22.5093 89.698 23.06C89.642 23.6107 89.5813 24.1007 89.516 24.53C89.4227 25.1553 89.2687 25.6453 89.054 26C88.8393 26.364 88.5313 26.6207 88.13 26.77C87.738 26.9287 87.206 27.0127 86.534 27.022ZM80.738 27.162C80.57 27.162 80.4253 27.106 80.304 26.994C80.192 26.882 80.136 26.7373 80.136 26.56V22.542C79.7813 22.6727 79.4453 22.7987 79.128 22.92C78.8107 23.032 78.554 23.1253 78.358 23.2C78.1713 23.2653 77.994 23.256 77.826 23.172C77.6673 23.088 77.56 22.9573 77.504 22.78C77.448 22.5933 77.4573 22.4253 77.532 22.276C77.6067 22.1173 77.742 22.01 77.938 21.954C78.2087 21.8793 78.54 21.7767 78.932 21.646C79.324 21.5153 79.7253 21.38 80.136 21.24V18.398H79.044C78.9787 18.678 78.9087 18.944 78.834 19.196C78.7593 19.448 78.6847 19.6813 78.61 19.896C78.5727 20.0733 78.484 20.204 78.344 20.288C78.204 20.3627 78.05 20.3813 77.882 20.344C77.7327 20.3067 77.616 20.2273 77.532 20.106C77.4573 19.9753 77.4387 19.8307 77.476 19.672C77.672 19.1867 77.84 18.622 77.98 17.978C78.12 17.334 78.2133 16.7133 78.26 16.116C78.2787 15.948 78.3487 15.8173 78.47 15.724C78.5913 15.6307 78.7267 15.5933 78.876 15.612C79.0347 15.6213 79.1653 15.682 79.268 15.794C79.3707 15.906 79.4127 16.0507 79.394 16.228C79.366 16.5733 79.324 16.914 79.268 17.25H80.136V14.786C80.136 14.5993 80.192 14.45 80.304 14.338C80.4253 14.226 80.57 14.17 80.738 14.17C80.9153 14.17 81.06 14.226 81.172 14.338C81.2933 14.45 81.354 14.5993 81.354 14.786V17.25H82.194C82.3713 17.25 82.5113 17.306 82.614 17.418C82.7167 17.53 82.768 17.6653 82.768 17.824C82.768 17.9827 82.7167 18.118 82.614 18.23C82.5113 18.342 82.3713 18.398 82.194 18.398H81.354V20.806C81.5127 20.7407 81.662 20.6847 81.802 20.638C81.9513 20.582 82.082 20.5353 82.194 20.498C82.3527 20.4327 82.4973 20.4327 82.628 20.498C82.7587 20.554 82.852 20.6567 82.908 20.806C82.964 20.9553 82.9687 21.1047 82.922 21.254C82.8753 21.394 82.768 21.5013 82.6 21.576C82.4507 21.6413 82.2687 21.716 82.054 21.8C81.8393 21.884 81.606 21.9773 81.354 22.08V26.56C81.354 26.7373 81.2933 26.882 81.172 26.994C81.06 27.106 80.9153 27.162 80.738 27.162ZM92.96 27.078C92.7547 27.134 92.5727 27.1293 92.414 27.064C92.2553 26.9987 92.1433 26.882 92.078 26.714C92.0127 26.5367 92.0173 26.3733 92.092 26.224C92.1667 26.0747 92.3067 25.9767 92.512 25.93C92.8667 25.8273 93.254 25.7013 93.674 25.552C94.1033 25.4027 94.5187 25.244 94.92 25.076C95.3213 24.8987 95.6667 24.7307 95.956 24.572C95.3493 24.5253 94.8827 24.418 94.556 24.25C94.2387 24.082 94.0193 23.816 93.898 23.452C93.7767 23.088 93.716 22.598 93.716 21.982V19.714C93.716 19.042 93.7907 18.5193 93.94 18.146C94.0893 17.7727 94.3647 17.5113 94.766 17.362C95.1673 17.2033 95.7507 17.1193 96.516 17.11C96.5813 16.942 96.656 16.732 96.74 16.48C96.824 16.228 96.8987 16.0133 96.964 15.836H92.26C92.092 15.836 91.9567 15.7847 91.854 15.682C91.7607 15.57 91.714 15.4393 91.714 15.29C91.714 15.1313 91.7607 15.0007 91.854 14.898C91.9567 14.7953 92.092 14.744 92.26 14.744H103.712C103.88 14.744 104.011 14.7953 104.104 14.898C104.207 15.0007 104.258 15.1313 104.258 15.29C104.258 15.4393 104.207 15.57 104.104 15.682C104.011 15.7847 103.88 15.836 103.712 15.836H98.448C98.3827 16.0413 98.3033 16.2607 98.21 16.494C98.126 16.7273 98.0467 16.9327 97.972 17.11H99.176C99.82 17.11 100.343 17.1473 100.744 17.222C101.145 17.2967 101.458 17.432 101.682 17.628C101.906 17.8147 102.06 18.0807 102.144 18.426C102.228 18.762 102.27 19.1913 102.27 19.714V21.982C102.27 22.598 102.209 23.088 102.088 23.452C101.967 23.816 101.743 24.082 101.416 24.25C101.099 24.418 100.632 24.5253 100.016 24.572C100.315 24.7307 100.665 24.8987 101.066 25.076C101.467 25.244 101.878 25.4027 102.298 25.552C102.727 25.7013 103.119 25.8273 103.474 25.93C103.679 25.9767 103.819 26.0747 103.894 26.224C103.969 26.3733 103.969 26.5367 103.894 26.714C103.838 26.882 103.731 26.9987 103.572 27.064C103.413 27.1293 103.231 27.134 103.026 27.078C102.634 26.9567 102.214 26.8073 101.766 26.63C101.318 26.462 100.884 26.28 100.464 26.084C100.053 25.888 99.6987 25.7013 99.4 25.524C99.26 25.44 99.176 25.328 99.148 25.188C99.1293 25.048 99.1573 24.908 99.232 24.768C99.2507 24.7307 99.274 24.698 99.302 24.67C99.33 24.642 99.3627 24.614 99.4 24.586L99.176 24.6H96.81L96.586 24.586C96.6607 24.642 96.7167 24.7027 96.754 24.768C96.8287 24.908 96.852 25.048 96.824 25.188C96.8053 25.328 96.7213 25.44 96.572 25.524C96.2733 25.7013 95.9187 25.888 95.508 26.084C95.0973 26.28 94.668 26.462 94.22 26.63C93.7813 26.8073 93.3613 26.9567 92.96 27.078ZM94.99 21.38H100.996V20.288H94.99V21.38ZM96.782 23.494H99.218C99.694 23.494 100.053 23.4707 100.296 23.424C100.548 23.3773 100.721 23.2747 100.814 23.116C100.917 22.9573 100.973 22.7193 100.982 22.402H95.004C95.0227 22.7193 95.0787 22.9573 95.172 23.116C95.2653 23.2747 95.438 23.3773 95.69 23.424C95.942 23.4707 96.306 23.494 96.782 23.494ZM95.004 19.266H100.982C100.973 18.9487 100.917 18.7153 100.814 18.566C100.721 18.4167 100.548 18.3187 100.296 18.272C100.053 18.2253 99.694 18.202 99.218 18.202H96.782C96.3153 18.202 95.956 18.2253 95.704 18.272C95.452 18.3187 95.2747 18.4167 95.172 18.566C95.0787 18.7153 95.0227 18.9487 95.004 19.266Z" fill="white"/>
</g>
<defs>
<linearGradient id="paint0_linear_12_40" x1="0" y1="20" x2="130" y2="20" gradientUnits="userSpaceOnUse">
<stop stop-color="#24B685" stop-opacity="0.6"/>
<stop offset="1" stop-color="#004B97" stop-opacity="0.8"/>
</linearGradient>
<clipPath id="clip0_12_40">
<rect width="130" height="40" fill="white"/>
</clipPath>
</defs>
</svg>
