<svg width="100" height="100" viewBox="0 0 100 100" fill="none" xmlns="http://www.w3.org/2000/svg">
<g clip-path="url(#clip0_10_292)">
<rect width="100" height="100" fill="white"/>
<circle cx="50" cy="50" r="50" fill="#FBFBFB"/>
<rect x="13" y="36" width="34" height="43" rx="1" fill="url(#paint0_linear_10_292)" fill-opacity="0.7"/>
<path d="M21 37C26.7601 9.35498 30.1608 10.0094 36.5 37M24 37C30.5301 9.22119 33.7057 9.19452 38.5 37" stroke="#689EBE"/>
<rect x="50" y="56" width="36" height="23" rx="5" fill="url(#paint1_linear_10_292)"/>
<path d="M51.5 58.5C51.5 68.5 83.5 67.5 83.5 58.5" stroke="white"/>
<circle cx="68" cy="62" r="1" fill="#E4DE49"/>
<rect x="52" y="34" width="32" height="19" rx="1" fill="url(#paint2_linear_10_292)" fill-opacity="0.5"/>
<line x1="56" y1="51.5" x2="84" y2="51.5" stroke="white"/>
<line x1="56" y1="50.5" x2="84" y2="50.5" stroke="white"/>
</g>
<defs>
<linearGradient id="paint0_linear_10_292" x1="30" y1="36" x2="30" y2="79" gradientUnits="userSpaceOnUse">
<stop stop-color="#24B685" stop-opacity="0.8"/>
<stop offset="1" stop-color="#004B97" stop-opacity="0.7"/>
</linearGradient>
<linearGradient id="paint1_linear_10_292" x1="86" y1="67.5" x2="50" y2="67.5" gradientUnits="userSpaceOnUse">
<stop stop-color="#6092BD" stop-opacity="0.5"/>
<stop offset="1" stop-color="#24B685" stop-opacity="0.6"/>
</linearGradient>
<linearGradient id="paint2_linear_10_292" x1="74" y1="53" x2="57" y2="34" gradientUnits="userSpaceOnUse">
<stop stop-color="#4E7FAE"/>
<stop offset="1" stop-color="#19958B" stop-opacity="0.569231"/>
</linearGradient>
<clipPath id="clip0_10_292">
<rect width="100" height="100" fill="white"/>
</clipPath>
</defs>
</svg>
