<svg width="100" height="100" viewBox="0 0 100 100" fill="none" xmlns="http://www.w3.org/2000/svg">
<circle cx="50" cy="50" r="50" fill="#FBFBFB"/>
<path d="M51.4917 24.7035C51.5447 24.3526 51.7845 24.0551 52.1163 23.9294C60.0861 20.9109 65.4011 21.287 76.0089 26.1042C76.0551 26.1252 76.1055 26.1436 76.1543 26.1574C83.1135 28.12 85.483 28.9125 88.0174 29.9124C88.3634 30.0489 88.6034 30.3689 88.6387 30.7392C89.593 40.7685 88.9433 49.8145 88.6036 63.1575C88.5898 63.7003 88.1461 64.1363 87.6031 64.1363H86.4937C86.2285 64.1363 85.9741 64.0309 85.7866 63.8434L85.3724 63.4292C85.1848 63.2416 85.0795 62.9873 85.0795 62.7221V50.3305C85.0795 49.913 84.8202 49.5395 84.4291 49.3936L52.1295 37.3415C51.7899 37.2148 51.5448 36.9133 51.4924 36.5547C50.8053 31.8543 50.8303 29.0802 51.4917 24.7035Z" fill="#4D81B7"/>
<path d="M57.5796 30.1364C66.2301 32.7199 67.4808 33.7751 72.0796 34.6364C72.4379 35.4267 72.5539 35.9138 72.0796 37.1364L69.0796 46.1364L52.0796 36.1364C54.2395 33.5836 55.4532 32.1044 57.5796 30.1364Z" fill="#FFEA83"/>
<path d="M51.0796 38.6364C62.4263 41.7718 69.2138 43.6511 83.5796 47.6364C84.9454 49.0821 85.5426 51.0953 85.5796 54.1364L71.0796 60.6364C66.0976 51.6797 58.4372 48.4512 34.0796 46.6364C40.633 42.6833 44.4008 41.3737 51.0796 38.6364Z" fill="#ABDAD5"/>
<rect x="12.5796" y="68.1364" width="5" height="5" rx="1" fill="#004B97" fill-opacity="0.7"/>
<rect x="44.5796" y="76.1364" width="4" height="6" rx="1" fill="#4D81B7"/>
<path d="M48.5796 70.1364L85.0796 54.1364V62.1364L48.5796 78.6364V70.1364Z" fill="#ABDAD5"/>
<path d="M37.0796 46.6364C60.9651 49.3717 67.2345 52.5773 70.5796 60.1364L49.5796 70.1364C49.279 67.1449 49.0569 65.5045 48.5796 62.6364C43.2043 57.6786 35.5565 55.5656 16.0796 52.6364C22.0405 48.5767 26.4062 47.0876 37.0796 46.6364Z" fill="white"/>
<path d="M10.3647 54.6078C10.4821 53.7333 11.1798 53.0501 12.056 52.9471C23.8825 51.5564 32.1635 53.7425 47.6938 61.6814C48.2485 61.965 48.6519 62.4944 48.7289 63.1127C48.9587 64.9597 48.9992 67.7534 48.6771 76.1812C48.6288 77.4463 47.4245 78.35 46.1964 78.0424C32.4447 74.5979 24.3204 72.2544 11.7764 68.0397C11.0457 67.7942 10.5196 67.1491 10.4349 66.3829C9.84972 61.0896 9.88406 58.188 10.3647 54.6078Z" fill="#ABDAD5"/>
<path d="M51.9855 33.7317C52.3408 33.4787 52.7762 33.3429 53.2045 33.4254C55.2999 33.8288 57.4995 35.7385 61.8709 40.6006C62.2905 41.0674 62.4652 41.708 62.3421 42.3235L61.8192 44.9378C61.6509 45.7794 60.9634 46.4236 60.1098 46.5131C52.9525 47.264 47.6098 46.4659 44.5364 43.4973C43.8882 42.8713 43.9288 41.8574 44.4959 41.1571C47.0595 37.9915 48.8456 35.9667 51.9855 33.7317Z" fill="#DCADDB"/>
<path d="M68.8721 37.1364C74.3495 37.3594 77.7293 38.7167 82.7714 41.8126C83.8585 42.4802 84.0195 43.989 83.1175 44.891L77.5401 50.4684C77.1171 50.8913 76.527 51.108 75.9347 51.0251C72.5602 50.5524 68.6855 49.2385 61.2909 46.244C59.986 45.7156 59.6298 44.034 60.6142 43.0275C64.663 38.8876 66.9098 37.0434 68.8721 37.1364Z" fill="#A9D1D6"/>
<path d="M56.5982 36.9653C57.1557 36.4802 57.985 36.5017 58.5505 36.9774C62.4875 40.2892 65.2028 41.2943 68.7579 41.04C69.9627 40.9538 70.9335 42.1491 70.4251 43.2447C69.5175 45.2006 68.6392 46.7844 67.2038 48.7862C66.8352 49.3002 66.177 49.5092 65.5681 49.3383C63.0674 48.6365 60.9559 48.3335 57.0278 48.1558C56.7355 48.1425 56.4518 48.046 56.2167 47.8719C54.4885 46.5929 53.4954 45.5541 52.2009 43.9292C51.8213 43.4527 51.7763 42.7895 52.0935 42.2694C53.3943 40.1366 54.5523 38.7454 56.5982 36.9653Z" fill="white"/>
</svg>
