<svg width="359" height="338" viewBox="0 0 359 338" fill="none" xmlns="http://www.w3.org/2000/svg">
<path d="M194.914 73.2059C191.606 94.5921 184.401 132.293 166.031 129.452C147.661 126.61 101.675 80.681 104.984 59.2948C108.292 37.9086 115.496 0.207371 133.866 3.04898C152.236 5.8906 198.222 51.8197 194.914 73.2059Z" fill="#B4FF4B"/>
<ellipse cx="12.4793" cy="18.3185" rx="12.4793" ry="18.3185" transform="matrix(0.997653 -0.0684789 0.079017 0.996873 113.373 45.0303)" fill="black"/>
<ellipse cx="12.4409" cy="18.3772" rx="12.4409" ry="18.3772" transform="matrix(0.961859 -0.273547 0.291335 0.956621 148.503 35.4412)" fill="black"/>
<path d="M171.948 132.107C170.955 138.525 171.871 144.848 175.104 150.508C176.821 153.513 181.356 173.995 183.245 161.787C184.572 153.203 183.22 145.366 176.293 139.962C175.383 139.252 172.085 134.651 171.418 136.104C170.144 138.876 170.244 143.118 169.777 146.137C168.873 151.982 166.753 158.257 169.021 163.578C171.258 168.824 186.633 166.772 181.038 160.648C178.775 158.172 177.713 146.191 178.259 142.66C179.612 133.914 173.377 134.765 179.276 141.221C184.02 146.413 195.006 170.79 182.159 168.802C179.222 168.348 170.26 168.637 168.593 166.349C167.503 164.853 175.607 166.267 176.485 166.683C189.371 172.794 186.457 165.89 183.192 156.991C181.232 151.649 178.893 145.882 178.535 140.308C178.259 136.023 176.253 135.188 174.555 131.8C174.385 131.462 179.332 136 180.19 138.17C184.705 149.6 189.088 160.449 192.78 172.041" stroke="#B4FF4B" stroke-width="5" stroke-linecap="round"/>
<path d="M166.037 148.679C143.969 145.265 125.362 140.988 104.366 133.015C89.5169 127.377 73.9688 123.257 61.1015 113.715C54.391 108.739 45.7837 105.474 37.7726 103.263C26.1157 100.045 11.1775 97.0269 3.74765 108.986C-0.774507 116.265 13.4718 109.497 15.33 105.915" stroke="#B4FF4B" stroke-width="5" stroke-linecap="round"/>
<path d="M184.213 142.383C204.608 126.312 231.536 112.839 256.783 105.911C277.333 100.272 293.124 101.566 313.857 104.773C320.897 105.862 327.386 106.4 332.563 111.76C333.084 112.299 336.548 116.571 337.28 116.049C339.222 114.663 338.281 110.874 336.947 109.947" stroke="#B4FF4B" stroke-width="5" stroke-linecap="round"/>
<ellipse cx="183.5" cy="242" rx="118.5" ry="83" fill="#D9D9D9"/>
<ellipse cx="184" cy="298" rx="175" ry="40" fill="url(#paint0_linear_163_159)"/>
<ellipse cx="110" cy="308.5" rx="17" ry="16.5" fill="#D9D9D9"/>
<ellipse cx="261" cy="308.5" rx="17" ry="16.5" fill="#D9D9D9"/>
<ellipse cx="187" cy="308.5" rx="17" ry="16.5" fill="#D9D9D9"/>
<defs>
<linearGradient id="paint0_linear_163_159" x1="184" y1="258" x2="184" y2="338" gradientUnits="userSpaceOnUse">
<stop stop-color="#D9D9D9"/>
<stop offset="1" stop-color="#737373"/>
</linearGradient>
</defs>
</svg>
