<svg width="29" height="27" viewBox="0 0 29 27" fill="none" xmlns="http://www.w3.org/2000/svg">
<path d="M6.97159 4.27273V13H5.91477V5.38068H5.86364L3.73295 6.79545V5.72159L5.91477 4.27273H6.97159ZM12.3281 13.1193C11.6861 13.1193 11.1392 12.9446 10.6875 12.5952C10.2358 12.2429 9.89063 11.733 9.65199 11.0653C9.41335 10.3949 9.29403 9.58523 9.29403 8.63636C9.29403 7.69318 9.41335 6.88778 9.65199 6.22017C9.89347 5.54972 10.2401 5.03835 10.6918 4.68608C11.1463 4.33097 11.6918 4.15341 12.3281 4.15341C12.9645 4.15341 13.5085 4.33097 13.9602 4.68608C14.4148 5.03835 14.7614 5.54972 15 6.22017C15.2415 6.88778 15.3622 7.69318 15.3622 8.63636C15.3622 9.58523 15.2429 10.3949 15.0043 11.0653C14.7656 11.733 14.4205 12.2429 13.9688 12.5952C13.517 12.9446 12.9702 13.1193 12.3281 13.1193ZM12.3281 12.1818C12.9645 12.1818 13.4588 11.875 13.8111 11.2614C14.1634 10.6477 14.3395 9.77273 14.3395 8.63636C14.3395 7.88068 14.2585 7.23722 14.0966 6.70597C13.9375 6.17472 13.7074 5.76989 13.4062 5.49148C13.108 5.21307 12.7486 5.07386 12.3281 5.07386C11.6974 5.07386 11.2045 5.38494 10.8494 6.0071C10.4943 6.62642 10.3168 7.50284 10.3168 8.63636C10.3168 9.39205 10.3963 10.0341 10.5554 10.5625C10.7145 11.0909 10.9432 11.4929 11.2415 11.7685C11.5426 12.044 11.9048 12.1818 12.3281 12.1818ZM21.4304 11.3636V10.9034C21.4304 10.5852 21.4957 10.294 21.6264 10.0298C21.7599 9.76278 21.9531 9.54972 22.206 9.39062C22.4616 9.22869 22.7713 9.14773 23.1349 9.14773C23.5043 9.14773 23.8139 9.22869 24.0639 9.39062C24.3139 9.54972 24.5028 9.76278 24.6307 10.0298C24.7585 10.294 24.8224 10.5852 24.8224 10.9034V11.3636C24.8224 11.6818 24.7571 11.9744 24.6264 12.2415C24.4986 12.5057 24.3082 12.7187 24.0554 12.8807C23.8054 13.0398 23.4986 13.1193 23.1349 13.1193C22.7656 13.1193 22.4545 13.0398 22.2017 12.8807C21.9489 12.7187 21.7571 12.5057 21.6264 12.2415C21.4957 11.9744 21.4304 11.6818 21.4304 11.3636ZM22.2997 10.9034V11.3636C22.2997 11.6278 22.3622 11.8651 22.4872 12.0753C22.6122 12.2827 22.8281 12.3864 23.1349 12.3864C23.4332 12.3864 23.6435 12.2827 23.7656 12.0753C23.8906 11.8651 23.9531 11.6278 23.9531 11.3636V10.9034C23.9531 10.6392 23.8935 10.4034 23.7741 10.196C23.6548 9.9858 23.4418 9.88068 23.1349 9.88068C22.8366 9.88068 22.6222 9.9858 22.4915 10.196C22.3636 10.4034 22.2997 10.6392 22.2997 10.9034ZM17.0838 6.36932V5.90909C17.0838 5.59091 17.1491 5.29972 17.2798 5.03551C17.4134 4.76847 17.6065 4.5554 17.8594 4.39631C18.1151 4.23437 18.4247 4.15341 18.7884 4.15341C19.1577 4.15341 19.4673 4.23437 19.7173 4.39631C19.9673 4.5554 20.1563 4.76847 20.2841 5.03551C20.4119 5.29972 20.4759 5.59091 20.4759 5.90909V6.36932C20.4759 6.6875 20.4105 6.98011 20.2798 7.24716C20.152 7.51136 19.9616 7.72443 19.7088 7.88636C19.4588 8.04545 19.152 8.125 18.7884 8.125C18.419 8.125 18.108 8.04545 17.8551 7.88636C17.6023 7.72443 17.4105 7.51136 17.2798 7.24716C17.1491 6.98011 17.0838 6.6875 17.0838 6.36932ZM17.9531 5.90909V6.36932C17.9531 6.63352 18.0156 6.87074 18.1406 7.08097C18.2656 7.28835 18.4815 7.39205 18.7884 7.39205C19.0866 7.39205 19.2969 7.28835 19.419 7.08097C19.544 6.87074 19.6065 6.63352 19.6065 6.36932V5.90909C19.6065 5.64489 19.5469 5.40909 19.4276 5.2017C19.3082 4.99148 19.0952 4.88636 18.7884 4.88636C18.4901 4.88636 18.2756 4.99148 18.1449 5.2017C18.017 5.40909 17.9531 5.64489 17.9531 5.90909ZM17.4077 13L23.4077 4.27273H24.3793L18.3793 13H17.4077ZM11.4205 18.6364C11.4205 19.5568 11.2543 20.3523 10.9219 21.0227C10.5895 21.6932 10.1335 22.2102 9.55398 22.5739C8.97443 22.9375 8.3125 23.1193 7.56818 23.1193C6.82386 23.1193 6.16193 22.9375 5.58239 22.5739C5.00284 22.2102 4.54688 21.6932 4.21449 21.0227C3.8821 20.3523 3.71591 19.5568 3.71591 18.6364C3.71591 17.7159 3.8821 16.9205 4.21449 16.25C4.54688 15.5795 5.00284 15.0625 5.58239 14.6989C6.16193 14.3352 6.82386 14.1534 7.56818 14.1534C8.3125 14.1534 8.97443 14.3352 9.55398 14.6989C10.1335 15.0625 10.5895 15.5795 10.9219 16.25C11.2543 16.9205 11.4205 17.7159 11.4205 18.6364ZM10.3977 18.6364C10.3977 17.8807 10.2713 17.2429 10.0185 16.723C9.76847 16.2031 9.42898 15.8097 9 15.5426C8.57386 15.2756 8.09659 15.142 7.56818 15.142C7.03977 15.142 6.56108 15.2756 6.1321 15.5426C5.70597 15.8097 5.36648 16.2031 5.11364 16.723C4.86364 17.2429 4.73864 17.8807 4.73864 18.6364C4.73864 19.392 4.86364 20.0298 5.11364 20.5497C5.36648 21.0696 5.70597 21.4631 6.1321 21.7301C6.56108 21.9972 7.03977 22.1307 7.56818 22.1307C8.09659 22.1307 8.57386 21.9972 9 21.7301C9.42898 21.4631 9.76847 21.0696 10.0185 20.5497C10.2713 20.0298 10.3977 19.392 10.3977 18.6364ZM13.1974 23V14.2727H18.4304V15.2102H14.2543V18.1591H18.0384V19.0966H14.2543V23H13.1974ZM20.2404 23V14.2727H25.4734V15.2102H21.2972V18.1591H25.0813V19.0966H21.2972V23H20.2404Z" fill="#383838"/>
</svg>
