<svg width="26" height="31" viewBox="0 0 26 31" fill="none" xmlns="http://www.w3.org/2000/svg">
<rect width="26" height="31" rx="1" fill="#4D81B7" fill-opacity="0.8"/>
<rect x="1" y="4" width="24" height="8" rx="3" fill="white"/>
<path d="M3.32 5.216C3.90133 5.216 4.35733 5.336 4.688 5.576C5.024 5.81067 5.192 6.17867 5.192 6.68C5.192 6.984 5.12267 7.248 4.984 7.472C4.84533 7.696 4.65067 7.872 4.4 8C4.15467 8.128 3.864 8.2 3.528 8.216L3.416 7.816C3.80533 7.82667 4.15467 7.896 4.464 8.024C4.77333 8.152 5.01867 8.33067 5.2 8.56C5.38133 8.78933 5.472 9.06133 5.472 9.376C5.472 9.664 5.41867 9.912 5.312 10.12C5.20533 10.3227 5.06133 10.4907 4.88 10.624C4.69867 10.752 4.49333 10.848 4.264 10.912C4.03467 10.9707 3.79733 11 3.552 11H1.832V5.216H3.32ZM3.48 7.752C3.8 7.752 4.032 7.664 4.176 7.488C4.32 7.30667 4.392 7.088 4.392 6.832C4.392 6.528 4.29867 6.30667 4.112 6.168C3.92533 6.02933 3.67467 5.96 3.36 5.96H2.608V7.752H3.48ZM3.512 10.28C3.72533 10.28 3.92 10.248 4.096 10.184C4.27733 10.12 4.41867 10.0213 4.52 9.888C4.62667 9.75467 4.68 9.58667 4.68 9.384C4.68 9.16 4.61867 8.984 4.496 8.856C4.37867 8.728 4.22667 8.63733 4.04 8.584C3.85333 8.52533 3.66133 8.496 3.464 8.496H2.608V10.28H3.512ZM6.41731 8.112C6.41731 7.712 6.49198 7.336 6.64131 6.984C6.79598 6.62667 7.00931 6.312 7.28131 6.04C7.55331 5.76267 7.86531 5.54667 8.21731 5.392C8.57465 5.232 8.95865 5.152 9.36931 5.152C9.77465 5.152 10.1533 5.232 10.5053 5.392C10.8626 5.54667 11.1773 5.76267 11.4493 6.04C11.7266 6.312 11.9426 6.62667 12.0973 6.984C12.252 7.336 12.3293 7.712 12.3293 8.112C12.3293 8.52267 12.252 8.90667 12.0973 9.264C11.9426 9.62133 11.7266 9.936 11.4493 10.208C11.1773 10.4747 10.8626 10.6853 10.5053 10.84C10.1533 10.9893 9.77465 11.064 9.36931 11.064C8.95865 11.064 8.57465 10.9893 8.21731 10.84C7.86531 10.6907 7.55331 10.4827 7.28131 10.216C7.00931 9.94933 6.79598 9.63733 6.64131 9.28C6.49198 8.92267 6.41731 8.53333 6.41731 8.112ZM7.21731 8.12C7.21731 8.424 7.27331 8.70933 7.38531 8.976C7.49731 9.23733 7.65198 9.46933 7.84931 9.672C8.04665 9.87467 8.27598 10.0347 8.53731 10.152C8.79865 10.264 9.08131 10.32 9.38531 10.32C9.68398 10.32 9.96398 10.264 10.2253 10.152C10.4866 10.0347 10.7133 9.87467 10.9053 9.672C11.0973 9.46933 11.2493 9.23733 11.3613 8.976C11.4733 8.70933 11.5293 8.42133 11.5293 8.112C11.5293 7.808 11.4733 7.52267 11.3613 7.256C11.2493 6.984 11.0946 6.74667 10.8973 6.544C10.7 6.34133 10.4706 6.184 10.2093 6.072C9.94798 5.95467 9.66798 5.896 9.36931 5.896C9.06531 5.896 8.78265 5.95467 8.52131 6.072C8.25998 6.18933 8.03065 6.34933 7.83331 6.552C7.63598 6.75467 7.48398 6.992 7.37731 7.264C7.27065 7.53067 7.21731 7.816 7.21731 8.12ZM13.2767 8.112C13.2767 7.712 13.3514 7.336 13.5007 6.984C13.6554 6.62667 13.8687 6.312 14.1407 6.04C14.4127 5.76267 14.7247 5.54667 15.0767 5.392C15.434 5.232 15.818 5.152 16.2287 5.152C16.634 5.152 17.0127 5.232 17.3647 5.392C17.722 5.54667 18.0367 5.76267 18.3087 6.04C18.586 6.312 18.802 6.62667 18.9567 6.984C19.1114 7.336 19.1887 7.712 19.1887 8.112C19.1887 8.52267 19.1114 8.90667 18.9567 9.264C18.802 9.62133 18.586 9.936 18.3087 10.208C18.0367 10.4747 17.722 10.6853 17.3647 10.84C17.0127 10.9893 16.634 11.064 16.2287 11.064C15.818 11.064 15.434 10.9893 15.0767 10.84C14.7247 10.6907 14.4127 10.4827 14.1407 10.216C13.8687 9.94933 13.6554 9.63733 13.5007 9.28C13.3514 8.92267 13.2767 8.53333 13.2767 8.112ZM14.0767 8.12C14.0767 8.424 14.1327 8.70933 14.2447 8.976C14.3567 9.23733 14.5114 9.46933 14.7087 9.672C14.906 9.87467 15.1354 10.0347 15.3967 10.152C15.658 10.264 15.9407 10.32 16.2447 10.32C16.5434 10.32 16.8234 10.264 17.0847 10.152C17.346 10.0347 17.5727 9.87467 17.7647 9.672C17.9567 9.46933 18.1087 9.23733 18.2207 8.976C18.3327 8.70933 18.3887 8.42133 18.3887 8.112C18.3887 7.808 18.3327 7.52267 18.2207 7.256C18.1087 6.984 17.954 6.74667 17.7567 6.544C17.5594 6.34133 17.33 6.184 17.0687 6.072C16.8074 5.95467 16.5274 5.896 16.2287 5.896C15.9247 5.896 15.642 5.95467 15.3807 6.072C15.1194 6.18933 14.89 6.34933 14.6927 6.552C14.4954 6.75467 14.3434 6.992 14.2367 7.264C14.13 7.53067 14.0767 7.816 14.0767 8.12ZM21.2801 7.544L21.2561 7.832L21.3601 7.688L23.7281 5.216H24.7281L22.3361 7.696L24.8641 11H23.8801L21.7681 8.192L21.2801 8.664V11H20.4961V5.216H21.2801V7.544Z" fill="#747474"/>
</svg>
