<svg width="79" height="100" viewBox="0 0 79 100" fill="none" xmlns="http://www.w3.org/2000/svg">
<rect width="9" height="100" fill="#004B97" fill-opacity="0.7"/>
<rect x="9" width="70" height="100" rx="1" fill="url(#paint0_linear_897_1336)" fill-opacity="0.8"/>
<rect x="15" y="20" width="59" height="24" rx="2" fill="white"/>
<path d="M20.8 24.54C22.2533 24.54 23.3933 24.84 24.22 25.44C25.06 26.0267 25.48 26.9467 25.48 28.2C25.48 28.96 25.3067 29.62 24.96 30.18C24.6133 30.74 24.1267 31.18 23.5 31.5C22.8867 31.82 22.16 32 21.32 32.04L21.04 31.04C22.0133 31.0667 22.8867 31.24 23.66 31.56C24.4333 31.88 25.0467 32.3267 25.5 32.9C25.9533 33.4733 26.18 34.1533 26.18 34.94C26.18 35.66 26.0467 36.28 25.78 36.8C25.5133 37.3067 25.1533 37.7267 24.7 38.06C24.2467 38.38 23.7333 38.62 23.16 38.78C22.5867 38.9267 21.9933 39 21.38 39H17.08V24.54H20.8ZM21.2 30.88C22 30.88 22.58 30.66 22.94 30.22C23.3 29.7667 23.48 29.22 23.48 28.58C23.48 27.82 23.2467 27.2667 22.78 26.92C22.3133 26.5733 21.6867 26.4 20.9 26.4H19.02V30.88H21.2ZM21.28 37.2C21.8133 37.2 22.3 37.12 22.74 36.96C23.1933 36.8 23.5467 36.5533 23.8 36.22C24.0667 35.8867 24.2 35.4667 24.2 34.96C24.2 34.4 24.0467 33.96 23.74 33.64C23.4467 33.32 23.0667 33.0933 22.6 32.96C22.1333 32.8133 21.6533 32.74 21.16 32.74H19.02V37.2H21.28ZM28.5433 31.78C28.5433 30.78 28.7299 29.84 29.1033 28.96C29.4899 28.0667 30.0233 27.28 30.7033 26.6C31.3833 25.9067 32.1633 25.3667 33.0433 24.98C33.9366 24.58 34.8966 24.38 35.9233 24.38C36.9366 24.38 37.8833 24.58 38.7633 24.98C39.6566 25.3667 40.4433 25.9067 41.1233 26.6C41.8166 27.28 42.3566 28.0667 42.7433 28.96C43.1299 29.84 43.3233 30.78 43.3233 31.78C43.3233 32.8067 43.1299 33.7667 42.7433 34.66C42.3566 35.5533 41.8166 36.34 41.1233 37.02C40.4433 37.6867 39.6566 38.2133 38.7633 38.6C37.8833 38.9733 36.9366 39.16 35.9233 39.16C34.8966 39.16 33.9366 38.9733 33.0433 38.6C32.1633 38.2267 31.3833 37.7067 30.7033 37.04C30.0233 36.3733 29.4899 35.5933 29.1033 34.7C28.7299 33.8067 28.5433 32.8333 28.5433 31.78ZM30.5433 31.8C30.5433 32.56 30.6833 33.2733 30.9633 33.94C31.2433 34.5933 31.6299 35.1733 32.1233 35.68C32.6166 36.1867 33.1899 36.5867 33.8433 36.88C34.4966 37.16 35.2033 37.3 35.9633 37.3C36.7099 37.3 37.4099 37.16 38.0633 36.88C38.7166 36.5867 39.2833 36.1867 39.7633 35.68C40.2433 35.1733 40.6233 34.5933 40.9033 33.94C41.1833 33.2733 41.3233 32.5533 41.3233 31.78C41.3233 31.02 41.1833 30.3067 40.9033 29.64C40.6233 28.96 40.2366 28.3667 39.7433 27.86C39.2499 27.3533 38.6766 26.96 38.0233 26.68C37.3699 26.3867 36.6699 26.24 35.9233 26.24C35.1633 26.24 34.4566 26.3867 33.8033 26.68C33.1499 26.9733 32.5766 27.3733 32.0833 27.88C31.5899 28.3867 31.2099 28.98 30.9433 29.66C30.6766 30.3267 30.5433 31.04 30.5433 31.8ZM45.6917 31.78C45.6917 30.78 45.8784 29.84 46.2517 28.96C46.6384 28.0667 47.1717 27.28 47.8517 26.6C48.5317 25.9067 49.3117 25.3667 50.1917 24.98C51.0851 24.58 52.0451 24.38 53.0717 24.38C54.0851 24.38 55.0317 24.58 55.9117 24.98C56.8051 25.3667 57.5917 25.9067 58.2717 26.6C58.9651 27.28 59.5051 28.0667 59.8917 28.96C60.2784 29.84 60.4717 30.78 60.4717 31.78C60.4717 32.8067 60.2784 33.7667 59.8917 34.66C59.5051 35.5533 58.9651 36.34 58.2717 37.02C57.5917 37.6867 56.8051 38.2133 55.9117 38.6C55.0317 38.9733 54.0851 39.16 53.0717 39.16C52.0451 39.16 51.0851 38.9733 50.1917 38.6C49.3117 38.2267 48.5317 37.7067 47.8517 37.04C47.1717 36.3733 46.6384 35.5933 46.2517 34.7C45.8784 33.8067 45.6917 32.8333 45.6917 31.78ZM47.6917 31.8C47.6917 32.56 47.8317 33.2733 48.1117 33.94C48.3917 34.5933 48.7784 35.1733 49.2717 35.68C49.7651 36.1867 50.3384 36.5867 50.9917 36.88C51.6451 37.16 52.3517 37.3 53.1117 37.3C53.8584 37.3 54.5584 37.16 55.2117 36.88C55.8651 36.5867 56.4317 36.1867 56.9117 35.68C57.3917 35.1733 57.7717 34.5933 58.0517 33.94C58.3317 33.2733 58.4717 32.5533 58.4717 31.78C58.4717 31.02 58.3317 30.3067 58.0517 29.64C57.7717 28.96 57.3851 28.3667 56.8917 27.86C56.3984 27.3533 55.8251 26.96 55.1717 26.68C54.5184 26.3867 53.8184 26.24 53.0717 26.24C52.3117 26.24 51.6051 26.3867 50.9517 26.68C50.2984 26.9733 49.7251 27.3733 49.2317 27.88C48.7384 28.3867 48.3584 28.98 48.0917 29.66C47.8251 30.3267 47.6917 31.04 47.6917 31.8ZM65.7002 30.36L65.6402 31.08L65.9002 30.72L71.8202 24.54H74.3202L68.3402 30.74L74.6602 39H72.2002L66.9202 31.98L65.7002 33.16V39H63.7402V24.54H65.7002V30.36Z" fill="#383838"/>
<defs>
<linearGradient id="paint0_linear_897_1336" x1="22" y1="8.50005e-07" x2="75.5" y2="100" gradientUnits="userSpaceOnUse">
<stop stop-color="#6092BD"/>
<stop offset="0.855769" stop-color="#24B685" stop-opacity="0.3"/>
</linearGradient>
</defs>
</svg>
