<svg xmlns="http://www.w3.org/2000/svg" xmlns:xlink="http://www.w3.org/1999/xlink" preserveAspectRatio="xMidYMid meet" version="1.0" viewBox="0.0 0.0 146.4 146.4" zoomAndPan="magnify" style="fill: rgb(0, 0, 0);" original_string_length="3858" width="674.9999821186067px" height="674.9999821186067px"><defs><clipPath id="__id0_s3w515dmck"><circle cx="73.205" cy="73.205" r="73.205" style="fill: rgb(157, 244, 230);"/></clipPath></defs><g><g id="__id1_s3w515dmck"><circle cx="73.205" cy="73.205" r="73.205" style="fill: rgb(233, 233, 233);"/></g><g><g id="__id2_s3w515dmck"><circle cx="73.205" cy="73.205" r="73.205" style="fill: rgb(157, 244, 230);"/></g><g clip-path="url(#__id0_s3w515dmck)" id="__id3_s3w515dmck"><ellipse cx="86.677" cy="148.773" rx="51.405" ry="39.84" style="fill: rgb(255, 192, 137);"/></g></g><g id="__id4_s3w515dmck"><path d="M71.213,89.407H85.456a3.513,3.513,0,0,1,3.513,3.513V110.7a10.634,10.634,0,0,1-10.634,10.634h0A10.634,10.634,0,0,1,67.7,110.7V92.92A3.513,3.513,0,0,1,71.213,89.407Z" style="fill: rgb(211, 122, 122);"/></g><g id="__id5_s3w515dmck" style="fill: rgb(229, 139, 137);"><path d="M54.479,77.35a5.99,5.99,0,0,1-5.991,5.99c-3.308,0-5.99-3.951-5.99-7.26s2.682-4.721,5.99-4.721A5.991,5.991,0,0,1,54.479,77.35Z" style="fill: inherit;"/><path d="M106.735,76.353c0,3.5-2.837,7.681-6.337,7.681a6.338,6.338,0,0,1,0-12.675C103.9,71.359,106.735,72.853,106.735,76.353Z" style="fill: inherit;"/></g><g id="__id6_s3w515dmck"><path d="M73.833,110.865c-21.577,2.767-26.255-30.729-26.558-43.458-.349-14.664,11.89-26.558,26.558-26.558h0c14.667,0,26.911,11.894,26.558,26.558C100.083,80.136,98.27,107.731,73.833,110.865Z" style="fill: rgb(253, 162, 151);"/></g><g id="__id7_s3w515dmck"><path d="M47.934,75.938s-4.985-16.529-3.419-23.4,9.656-17.746,28.314-17.746c19.312,0,24.865,13.744,27.569,19.659s-.671,23.244-.671,23.244-2.715-16.98-6.542-21.765S69.08,45.752,68.823,45.752,49.468,56.1,49.468,56.1Z" style="fill: rgb(24, 0, 139);"/></g><g id="__id8_s3w515dmck" style="fill: rgb(24, 0, 139);"><ellipse cx="58.858" cy="76.264" rx="1.249" ry="2.63" style="fill: inherit;"/><ellipse cx="77.757" cy="76.264" rx="1.249" ry="2.63" style="fill: inherit;"/></g><g id="__id9_s3w515dmck"><path d="M68.9,92.1a.6.6,0,0,1-.074,0,3.275,3.275,0,0,1-2.842-1.65c-1.008-2,.653-4.877.845-5.2a.747.747,0,0,1,1.281.768c-.378.633-1.334,2.683-.792,3.76.089.174.356.7,1.655.834A.747.747,0,0,1,68.9,92.1Z" style="fill: rgb(24, 0, 139);"/></g><g id="__id10_s3w515dmck" style="fill: rgb(24, 0, 139);"><path d="M52.987,72.807a.747.747,0,0,1-.428-1.359c.129-.09,3.205-2.165,8.334-1.077a.747.747,0,0,1-.309,1.461,9.853,9.853,0,0,0-7.177.846A.756.756,0,0,1,52.987,72.807Z" style="fill: inherit;"/><path d="M83.631,72.808a.739.739,0,0,1-.422-.131,9.869,9.869,0,0,0-7.177-.845.747.747,0,1,1-.309-1.461c5.13-1.088,8.2.988,8.333,1.077a.746.746,0,0,1-.425,1.36Z" style="fill: inherit;"/></g><g id="__id11_s3w515dmck"><path d="M73.2,100.307a.747.747,0,0,1,0-1.494,2.31,2.31,0,0,0,2.308-2.307.747.747,0,1,1,1.493,0A3.806,3.806,0,0,1,73.2,100.307Z" style="fill: rgb(24, 0, 139);"/></g><g id="__id12_s3w515dmck" style="fill: rgb(255, 255, 255);"><path d="M55.1,85.319A10.956,10.956,0,1,1,66.056,74.363,10.969,10.969,0,0,1,55.1,85.319Zm0-20.418a9.463,9.463,0,1,0,9.463,9.462A9.473,9.473,0,0,0,55.1,64.9Z" style="fill: inherit;"/><path d="M81.515,85.319A10.956,10.956,0,1,1,92.471,74.363,10.968,10.968,0,0,1,81.515,85.319Zm0-20.418a9.463,9.463,0,1,0,9.463,9.462A9.473,9.473,0,0,0,81.515,64.9Z" style="fill: inherit;"/><path d="M71.411,76.76a.746.746,0,0,1-.747-.746,2.339,2.339,0,1,0-4.678,0,.747.747,0,0,1-1.493,0,3.832,3.832,0,1,1,7.664,0A.746.746,0,0,1,71.411,76.76Z" style="fill: inherit;"/></g><g id="__id13_s3w515dmck"><path d="M101.15,48.274s1.3-6.746-10.308-12.657c-11.531-5.871-25.466-4.055-33.4-1.435-6.072,2-40.672,15.451-12.265,22.443,3.392.835,9.479.834,15.9.375-1.131.664-1.741,1.261-1.626,1.7.32,1.22,6.023.783,12.739-.976,4.7-1.232,8.648-2.784,10.485-4.024a13.487,13.487,0,0,0,1.644-.6c1.305,4.958,10.569,11.352,12.657,10.569S110.806,54.146,101.15,48.274Z" style="fill: rgb(85, 92, 228);"/></g></g></svg>