<svg width="33" height="33" viewBox="0 0 33 33" fill="none" xmlns="http://www.w3.org/2000/svg">
<circle cx="16.5" cy="16.5" r="16.5" fill="white"/>
<path d="M8 13.0454H26L24.5 23.0454H9.5L8 13.0454Z" fill="#A7C5DA"/>
<circle cx="17" cy="15.0454" r="7" fill="white"/>
<circle cx="17" cy="15.0454" r="6.5" stroke="#004B97" stroke-opacity="0.8"/>
<line x1="3" y1="9.54544" x2="8" y2="9.54544" stroke="#004B97" stroke-opacity="0.7"/>
<line x1="7.78166" y1="8.92971" x2="10.2085" y2="26.021" stroke="#4D81B7"/>
<line x1="10" y1="25.5454" x2="24" y2="25.5454" stroke="#4D81B7"/>
<circle cx="13.5" cy="28.5454" r="1.5" fill="#004B97" fill-opacity="0.7"/>
<circle cx="20.5" cy="28.5454" r="1.5" fill="#004B97" fill-opacity="0.7"/>
<path d="M17.5 11.0454C17.5 10.7693 17.2761 10.5454 17 10.5454C16.7239 10.5454 16.5 10.7693 16.5 11.0454H17H17.5ZM16.6464 19.399C16.8417 19.5943 17.1583 19.5943 17.3536 19.399L20.5355 16.217C20.7308 16.0218 20.7308 15.7052 20.5355 15.5099C20.3403 15.3146 20.0237 15.3146 19.8284 15.5099L17 18.3383L14.1716 15.5099C13.9763 15.3146 13.6597 15.3146 13.4645 15.5099C13.2692 15.7052 13.2692 16.0218 13.4645 16.217L16.6464 19.399ZM17 11.0454H16.5V19.0454H17H17.5V11.0454H17Z" fill="black"/>
</svg>
