<svg width="1940" height="483" viewBox="0 0 1940 483" fill="none" xmlns="http://www.w3.org/2000/svg">
<g clip-path="url(#clip0_22_65)">
<rect width="1940" height="483" fill="white"/>
<rect width="1940" height="483" fill="#EE36FF"/>
<rect y="41" width="1940" height="400" fill="white"/>
<path d="M450.1 323.4C448.767 323.4 447.6 322.933 446.6 322C445.667 321.133 445.2 319.967 445.2 318.5V249.5C445.2 245.567 445.667 242.467 446.6 240.2C447.6 237.867 449.333 236.2 451.8 235.2C454.333 234.2 457.867 233.7 462.4 233.7H479C483.533 233.7 487.067 234.2 489.6 235.2C492.133 236.2 493.9 237.867 494.9 240.2C495.9 242.467 496.4 245.567 496.4 249.5V310.5C496.4 314.9 495.4 317.967 493.4 319.7C491.467 321.5 488.233 322.5 483.7 322.7C481.9 322.767 480.433 322.333 479.3 321.4C478.233 320.533 477.633 319.333 477.5 317.8C477.3 316.267 477.6 315 478.4 314C479.267 312.933 480.333 312.333 481.6 312.2C483.733 312 485.067 311.667 485.6 311.2C486.2 310.667 486.5 309.6 486.5 308V284H469.7V294.8C469.7 295.8 469.9 296.5 470.3 296.9C470.767 297.3 471.7 297.5 473.1 297.5C473.833 297.5 474.8 297.467 476 297.4C477.267 297.333 478.467 297.3 479.6 297.3C480.867 297.3 481.933 297.7 482.8 298.5C483.667 299.3 484.067 300.467 484 302C483.8 305 482.1 306.5 478.9 306.5H470.6C466.933 306.5 464.3 305.9 462.7 304.7C461.167 303.5 460.4 301.2 460.4 297.8V284H455V318.5C455 319.967 454.5 321.133 453.5 322C452.567 322.933 451.433 323.4 450.1 323.4ZM424.6 323.5C423.267 323.5 422.133 323.067 421.2 322.2C420.333 321.333 419.9 320.167 419.9 318.7V280.6C418.167 280.8 416.467 281 414.8 281.2C413.133 281.4 411.633 281.567 410.3 281.7C408.833 281.833 407.6 281.533 406.6 280.8C405.6 280 405.033 278.9 404.9 277.5C404.767 276.167 405.067 275.033 405.8 274.1C406.533 273.1 407.633 272.567 409.1 272.5C409.633 272.433 410.2 272.4 410.8 272.4C411.467 272.333 412.133 272.267 412.8 272.2C414.867 269.067 417.2 265.333 419.8 261C418.667 260.2 417.3 259.333 415.7 258.4C414.1 257.4 412.533 256.433 411 255.5C409.533 254.5 408.3 253.733 407.3 253.2C406.3 252.667 405.667 251.833 405.4 250.7C405.2 249.567 405.367 248.467 405.9 247.4C406.433 246.333 407.3 245.633 408.5 245.3C409.7 244.9 410.833 245 411.9 245.6C412.1 245.667 412.3 245.8 412.5 246C412.7 246.133 412.933 246.267 413.2 246.4C413.933 245.133 414.7 243.667 415.5 242C416.367 240.333 417.167 238.733 417.9 237.2C418.7 235.667 419.3 234.467 419.7 233.6C420.233 232.4 421.067 231.633 422.2 231.3C423.333 230.9 424.5 230.967 425.7 231.5C426.833 231.967 427.633 232.8 428.1 234C428.567 235.133 428.5 236.267 427.9 237.4C427.367 238.467 426.667 239.8 425.8 241.4C424.933 243 424 244.633 423 246.3C422.067 247.967 421.233 249.467 420.5 250.8C421.233 251.267 421.9 251.7 422.5 252.1C423.167 252.5 423.767 252.867 424.3 253.2C425.433 251.267 426.467 249.4 427.4 247.6C428.333 245.8 429.133 244.233 429.8 242.9C430.333 241.767 431.167 241 432.3 240.6C433.5 240.2 434.733 240.267 436 240.8C437.133 241.333 437.9 242.2 438.3 243.4C438.767 244.6 438.7 245.767 438.1 246.9C436.967 249.1 435.567 251.633 433.9 254.5C432.233 257.3 430.5 260.167 428.7 263.1C426.9 266.033 425.167 268.8 423.5 271.4C424.833 271.267 426.167 271.133 427.5 271C428.833 270.867 430.067 270.767 431.2 270.7C431 270.3 430.8 269.9 430.6 269.5C430.4 269.1 430.233 268.733 430.1 268.4C429.567 267.333 429.5 266.267 429.9 265.2C430.367 264.067 431.133 263.267 432.2 262.8C433.333 262.267 434.5 262.167 435.7 262.5C436.9 262.833 437.767 263.5 438.3 264.5C438.9 265.5 439.567 266.833 440.3 268.5C441.1 270.1 441.867 271.7 442.6 273.3C443.333 274.9 443.9 276.233 444.3 277.3C444.833 278.433 444.833 279.567 444.3 280.7C443.833 281.767 442.967 282.567 441.7 283.1C440.567 283.567 439.4 283.6 438.2 283.2C437 282.733 436.167 281.9 435.7 280.7C435.633 280.367 435.5 280.067 435.3 279.8C435.167 279.467 435.033 279.1 434.9 278.7C434.1 278.833 433.233 278.967 432.3 279.1C431.367 279.233 430.4 279.367 429.4 279.5V318.7C429.4 320.167 428.933 321.333 428 322.2C427.067 323.067 425.933 323.5 424.6 323.5ZM455 258.8H462.7C461.767 258.4 461.1 257.7 460.7 256.7C460.567 256.3 460.3 255.7 459.9 254.9C459.5 254.033 459.1 253.167 458.7 252.3C458.3 251.433 458 250.8 457.8 250.4C457.333 249.4 457.333 248.367 457.8 247.3C458.267 246.233 459.033 245.5 460.1 245.1C461.233 244.633 462.333 244.6 463.4 245C464.533 245.4 465.333 246.133 465.8 247.2C466 247.533 466.3 248.133 466.7 249C467.1 249.8 467.467 250.633 467.8 251.5C468.2 252.3 468.467 252.9 468.6 253.3C469.067 254.367 469.067 255.433 468.6 256.5C468.133 257.567 467.333 258.333 466.2 258.8H470.9C471.3 257.733 471.767 256.467 472.3 255C472.9 253.467 473.433 252.033 473.9 250.7C474.433 249.3 474.767 248.267 474.9 247.6C475.233 246.4 475.933 245.533 477 245C478.133 244.467 479.3 244.367 480.5 244.7C481.833 245.033 482.767 245.733 483.3 246.8C483.833 247.8 483.9 248.9 483.5 250.1C483.233 250.9 482.733 252.167 482 253.9C481.333 255.633 480.633 257.267 479.9 258.8H486.5V250.3C486.5 247.367 485.933 245.433 484.8 244.5C483.733 243.5 481.633 243 478.5 243H462.8C459.733 243 457.667 243.5 456.6 244.5C455.533 245.433 455 247.367 455 250.3V258.8ZM407.4 311.2C406.333 310.867 405.533 310.2 405 309.2C404.467 308.2 404.4 307.167 404.8 306.1C405.4 304.633 406.033 302.933 406.7 301C407.367 299 407.967 297 408.5 295C409.1 292.933 409.567 291.1 409.9 289.5C410.167 288.433 410.767 287.6 411.7 287C412.7 286.4 413.733 286.2 414.8 286.4C416 286.6 416.9 287.167 417.5 288.1C418.167 288.967 418.4 289.967 418.2 291.1C417.867 292.767 417.4 294.667 416.8 296.8C416.2 298.933 415.567 301.033 414.9 303.1C414.3 305.1 413.7 306.867 413.1 308.4C412.7 309.533 411.933 310.367 410.8 310.9C409.733 311.367 408.6 311.467 407.4 311.2ZM441 307.1C439.733 307.567 438.533 307.567 437.4 307.1C436.333 306.567 435.6 305.7 435.2 304.5C434.867 303.233 434.433 301.733 433.9 300C433.367 298.2 432.833 296.4 432.3 294.6C431.767 292.8 431.333 291.267 431 290C430.733 288.867 430.933 287.833 431.6 286.9C432.267 285.9 433.133 285.267 434.2 285C435.333 284.733 436.4 284.867 437.4 285.4C438.4 285.933 439.033 286.767 439.3 287.9C439.633 289.1 440.067 290.567 440.6 292.3C441.133 293.967 441.667 295.667 442.2 297.4C442.8 299.067 443.3 300.5 443.7 301.7C444.1 302.9 444.033 304 443.5 305C443.033 306 442.2 306.7 441 307.1ZM455 275.6H466V266.9H455V275.6ZM475.8 275.6H486.5V266.9H475.8V275.6ZM511.4 320C509.733 320.4 508.233 320.2 506.9 319.4C505.633 318.667 504.8 317.533 504.4 316C503.933 314.4 504.133 313 505 311.8C505.867 310.6 507.1 309.833 508.7 309.5L509.5 309.4V278C509.5 276.467 509.967 275.267 510.9 274.4C511.833 273.533 512.967 273.1 514.3 273.1C515.633 273.1 516.767 273.533 517.7 274.4C518.7 275.267 519.2 276.467 519.2 278V307C519.933 306.867 520.7 306.7 521.5 306.5C522.3 306.3 523.067 306.1 523.8 305.9V268.7C520.467 268.433 517.833 267.733 515.9 266.6C513.967 265.4 512.567 263.6 511.7 261.2C510.9 258.8 510.5 255.6 510.5 251.6C510.5 247.133 511 243.667 512 241.2C513.067 238.667 514.833 236.9 517.3 235.9C519.767 234.9 523.133 234.4 527.4 234.4C531.667 234.4 535.033 234.9 537.5 235.9C539.967 236.9 541.7 238.667 542.7 241.2C543.767 243.667 544.3 247.133 544.3 251.6C544.3 257.067 543.5 261.067 541.9 263.6C540.367 266.067 537.6 267.667 533.6 268.4V278.5H540.7C542.7 278.5 544.1 279.267 544.9 280.8C545.167 280.667 545.333 280.6 545.4 280.6C552.2 277.133 558.533 272.733 564.4 267.4C563.267 266 562.167 264.567 561.1 263.1C560.1 261.567 559.133 260 558.2 258.4C556.533 260.667 554.867 262.733 553.2 264.6C552.267 265.667 551.1 266.3 549.7 266.5C548.367 266.7 547.1 266.367 545.9 265.5C544.833 264.633 544.233 263.567 544.1 262.3C544.033 261.033 544.433 259.9 545.3 258.9C547.233 256.767 549.133 254.267 551 251.4C552.933 248.533 554.7 245.567 556.3 242.5C557.967 239.433 559.3 236.633 560.3 234.1C560.9 232.633 561.867 231.633 563.2 231.1C564.533 230.567 565.9 230.567 567.3 231.1C570.3 232.233 571.167 234.4 569.9 237.6C569.633 238.133 569.367 238.7 569.1 239.3C568.9 239.9 568.633 240.5 568.3 241.1H579C581.867 241.1 584.133 241.8 585.8 243.2C587.533 244.533 588.5 246.333 588.7 248.6C588.967 250.8 588.3 253.233 586.7 255.9C585.5 257.833 584.233 259.733 582.9 261.6C581.567 263.467 580.167 265.267 578.7 267C581.433 269.267 584.333 271.367 587.4 273.3C590.467 275.167 593.633 276.833 596.9 278.3C598.433 278.967 599.467 280.067 600 281.6C600.6 283.067 600.567 284.5 599.9 285.9C599.167 287.567 597.933 288.567 596.2 288.9C594.533 289.233 592.867 289.033 591.2 288.3C587.733 286.567 584.3 284.6 580.9 282.4C577.5 280.133 574.267 277.567 571.2 274.7C568.133 277.567 564.867 280.2 561.4 282.6C557.933 285 554.333 287.167 550.6 289.1C549.4 289.7 548.133 289.933 546.8 289.8C545.467 289.6 544.4 289 543.6 288C542.733 288.667 541.767 289 540.7 289H533.6V303.3C535.133 302.833 536.6 302.4 538 302C539.4 301.6 540.633 301.267 541.7 301C543.167 300.533 544.433 300.633 545.5 301.3C546.633 301.9 547.333 302.867 547.6 304.2C547.933 305.667 547.833 306.933 547.3 308C546.767 309.067 545.767 309.833 544.3 310.3C542.367 310.967 539.967 311.733 537.1 312.6C534.233 313.467 531.233 314.367 528.1 315.3C524.967 316.233 521.933 317.1 519 317.9C516.067 318.767 513.533 319.467 511.4 320ZM571 321.3C565.933 321.3 562.033 320.8 559.3 319.8C556.567 318.867 554.667 317.1 553.6 314.5C552.6 311.9 552.1 308.233 552.1 303.5C552.1 298.7 552.6 295 553.6 292.4C554.667 289.8 556.567 288.033 559.3 287.1C562.033 286.1 565.933 285.6 571 285.6C576.067 285.6 579.933 286.1 582.6 287.1C585.333 288.033 587.2 289.8 588.2 292.4C589.267 295 589.8 298.7 589.8 303.5C589.8 308.233 589.267 311.9 588.2 314.5C587.2 317.1 585.333 318.867 582.6 319.8C579.933 320.8 576.067 321.3 571 321.3ZM571 311.8C573.133 311.8 574.767 311.6 575.9 311.2C577.1 310.8 577.9 310 578.3 308.8C578.767 307.6 579 305.8 579 303.4C579 300 578.467 297.767 577.4 296.7C576.333 295.633 574.2 295.1 571 295.1C567.8 295.1 565.667 295.667 564.6 296.8C563.533 297.867 563 300.033 563 303.3C563 305.7 563.2 307.5 563.6 308.7C564.067 309.9 564.867 310.733 566 311.2C567.2 311.6 568.867 311.8 571 311.8ZM527.4 258.4C529.933 258.4 531.6 257.933 532.4 257C533.267 256.067 533.7 254.267 533.7 251.6C533.7 248.867 533.267 247.033 532.4 246.1C531.6 245.167 529.933 244.7 527.4 244.7C524.8 244.7 523.1 245.167 522.3 246.1C521.5 247.033 521.1 248.867 521.1 251.6C521.1 254.267 521.5 256.067 522.3 257C523.1 257.933 524.8 258.4 527.4 258.4ZM571.5 259.9C572.233 258.967 572.933 258.033 573.6 257.1C574.333 256.167 574.967 255.233 575.5 254.3C577.3 251.367 576.5 249.9 573.1 249.9H564.5C565.5 251.633 566.567 253.367 567.7 255.1C568.9 256.767 570.167 258.367 571.5 259.9ZM618.6 282.2C617 283.2 615.367 283.533 613.7 283.2C612.1 282.8 610.867 281.867 610 280.4C609.267 279.067 609.1 277.667 609.5 276.2C609.9 274.733 610.767 273.6 612.1 272.8C615.833 270.733 619.6 268.233 623.4 265.3C627.2 262.3 630.533 259.267 633.4 256.2C633.933 255.667 634.467 255.267 635 255H612.2C610.6 255 609.333 254.5 608.4 253.5C607.467 252.433 607 251.167 607 249.7C607 248.233 607.467 247 608.4 246C609.333 244.933 610.6 244.4 612.2 244.4H645.7V236.5C645.7 234.633 646.3 233.167 647.5 232.1C648.767 230.967 650.267 230.4 652 230.4C653.733 230.4 655.2 230.967 656.4 232.1C657.6 233.167 658.2 234.633 658.2 236.5V244.4H691.7C693.3 244.4 694.567 244.933 695.5 246C696.433 247 696.9 248.233 696.9 249.7C696.9 251.167 696.433 252.433 695.5 253.5C694.567 254.5 693.3 255 691.7 255H668.1C668.567 255.2 668.967 255.467 669.3 255.8C671.5 257.667 673.867 259.533 676.4 261.4C679 263.267 681.633 265 684.3 266.6C686.967 268.2 689.467 269.567 691.8 270.7C693.2 271.367 694.1 272.467 694.5 274C694.9 275.533 694.733 276.967 694 278.3C693.133 279.833 691.9 280.833 690.3 281.3C688.7 281.7 687.133 281.5 685.6 280.7C682.933 279.3 680.133 277.667 677.2 275.8C674.333 273.867 671.533 271.867 668.8 269.8C666.133 267.667 663.7 265.633 661.5 263.7C660.367 262.633 659.767 261.333 659.7 259.8C659.633 258.2 660.133 256.867 661.2 255.8C661.4 255.667 661.567 255.533 661.7 255.4C661.9 255.2 662.133 255.067 662.4 255H640.5C640.967 255.2 641.367 255.467 641.7 255.8C642.767 256.867 643.333 258.133 643.4 259.6C643.467 261.067 642.933 262.433 641.8 263.7C639.8 265.9 637.467 268.133 634.8 270.4C632.2 272.667 629.467 274.833 626.6 276.9C623.8 278.9 621.133 280.667 618.6 282.2ZM616.5 323.2C612.233 324.333 609.467 323.167 608.2 319.7C607.667 318.1 607.767 316.567 608.5 315.1C609.233 313.7 610.6 312.767 612.6 312.3C618.8 310.767 624.467 308.867 629.6 306.6C634.8 304.333 639.5 301.567 643.7 298.3C641.5 295.767 639.433 293.033 637.5 290.1C635.567 287.1 633.767 283.9 632.1 280.5C631.367 278.967 631.3 277.5 631.9 276.1C632.5 274.7 633.5 273.7 634.9 273.1C636.367 272.433 637.8 272.367 639.2 272.9C640.6 273.367 641.667 274.367 642.4 275.9C645.133 281.5 648.333 286.4 652 290.6C653.933 288.467 655.7 286.167 657.3 283.7C658.967 281.233 660.533 278.567 662 275.7C662.8 274.1 663.933 273.033 665.4 272.5C666.867 271.967 668.367 272.067 669.9 272.8C671.3 273.467 672.267 274.533 672.8 276C673.333 277.4 673.133 278.967 672.2 280.7C670.467 284.033 668.6 287.167 666.6 290.1C664.6 293.033 662.433 295.767 660.1 298.3C664.433 301.7 669.167 304.5 674.3 306.7C679.5 308.833 685.033 310.5 690.9 311.7C692.9 312.033 694.3 312.933 695.1 314.4C695.967 315.867 696.133 317.5 695.6 319.3C695.067 321.167 694 322.4 692.4 323C690.8 323.6 689 323.667 687 323.2C680.333 321.667 674.033 319.5 668.1 316.7C662.233 313.967 656.8 310.5 651.8 306.3C647.067 310.167 641.767 313.467 635.9 316.2C630.1 319 623.633 321.333 616.5 323.2ZM771.1 323.2C769.1 323.2 767.467 322.733 766.2 321.8C765 320.933 764.3 319.667 764.1 318C763.833 316.333 764.167 314.867 765.1 313.6C766.033 312.267 767.433 311.533 769.3 311.4C771.3 311.2 772.833 310.967 773.9 310.7C775.033 310.367 775.867 309.8 776.4 309C777 308.2 777.5 307.033 777.9 305.5C778.233 304.1 778.567 302.467 778.9 300.6C779.233 298.667 779.533 296.8 779.8 295C780.267 292.2 780 290.233 779 289.1C778.067 287.9 776.033 287.3 772.9 287.3H772.4C770.733 291.433 768.6 295.567 766 299.7C763.467 303.767 760.567 307.633 757.3 311.3C754.1 314.967 750.7 318.233 747.1 321.1C745.767 322.167 744.2 322.667 742.4 322.6C740.667 322.533 739.3 321.867 738.3 320.6C737.367 319.4 737 318.033 737.2 316.5C737.4 315.033 738.1 313.867 739.3 313C743.833 309.667 748.033 305.7 751.9 301.1C755.767 296.5 758.833 291.9 761.1 287.3H752.3C750.033 291.233 747.133 295.167 743.6 299.1C740.133 303.033 736.3 306.7 732.1 310.1C727.9 313.433 723.6 316.233 719.2 318.5C717.733 319.167 716.233 319.3 714.7 318.9C713.233 318.567 712.133 317.7 711.4 316.3C710.733 314.967 710.6 313.633 711 312.3C711.467 310.9 712.433 309.833 713.9 309.1C717.167 307.433 720.467 305.4 723.8 303C727.2 300.533 730.367 297.933 733.3 295.2C736.233 292.467 738.667 289.833 740.6 287.3H730.7C728.167 289.567 725.533 291.667 722.8 293.6C720.133 295.533 717.467 297.167 714.8 298.5C713.333 299.3 711.833 299.5 710.3 299.1C708.767 298.633 707.633 297.667 706.9 296.2C706.233 294.867 706.1 293.533 706.5 292.2C706.967 290.8 707.9 289.733 709.3 289C713.433 286.667 717.633 283.933 721.9 280.8C726.167 277.6 729.767 274.367 732.7 271.1C728.633 270.033 725.8 268.2 724.2 265.6C722.667 262.933 721.9 259.267 721.9 254.6V250C721.9 245.667 722.567 242.233 723.9 239.7C725.233 237.1 727.5 235.233 730.7 234.1C733.967 232.967 738.467 232.4 744.2 232.4H760C765.733 232.4 770.2 232.967 773.4 234.1C776.667 235.233 778.967 237.1 780.3 239.7C781.633 242.233 782.3 245.667 782.3 250V254.6C782.3 258.867 781.633 262.3 780.3 264.9C778.967 267.5 776.667 269.367 773.4 270.5C770.2 271.633 765.733 272.2 760 272.2H744.4C743.2 274 741.8 275.8 740.2 277.6H775.2C781.2 277.6 785.6 278.967 788.4 281.7C791.267 284.433 792.367 288.6 791.7 294.2C791.367 296.867 791 299.433 790.6 301.9C790.2 304.367 789.733 306.8 789.2 309.2C788 314.533 785.967 318.2 783.1 320.2C780.3 322.2 776.3 323.2 771.1 323.2ZM744.2 262.9H760C763.667 262.9 766.2 262.5 767.6 261.7C769 260.833 769.8 259.167 770 256.7H734.2C734.4 259.167 735.2 260.833 736.6 261.7C738 262.5 740.533 262.9 744.2 262.9ZM734.2 247.9H770C769.8 245.433 769 243.8 767.6 243C766.2 242.133 763.667 241.7 760 241.7H744.2C740.533 241.7 738 242.133 736.6 243C735.2 243.8 734.4 245.433 734.2 247.9ZM835.6 323.4C833.933 323.4 832.467 322.833 831.2 321.7C830 320.567 829.4 319.067 829.4 317.2V278.8C824.933 283.4 820.133 287.267 815 290.4C813.533 291.267 812 291.6 810.4 291.4C808.867 291.2 807.6 290.367 806.6 288.9C805.733 287.567 805.4 286.167 805.6 284.7C805.867 283.233 806.633 282.1 807.9 281.3C819.7 273.967 828.5 264.433 834.3 252.7H810.9C809.367 252.7 808.1 252.2 807.1 251.2C806.167 250.133 805.7 248.9 805.7 247.5C805.7 246.033 806.167 244.8 807.1 243.8C808.1 242.733 809.367 242.2 810.9 242.2H838.6C838.933 240.933 839.267 239.667 839.6 238.4C839.933 237.067 840.233 235.767 840.5 234.5C840.833 232.567 841.767 231.233 843.3 230.5C844.9 229.767 846.6 229.6 848.4 230C850.333 230.467 851.667 231.367 852.4 232.7C853.133 233.967 853.233 235.5 852.7 237.3C852.5 238.1 852.267 238.933 852 239.8C851.8 240.6 851.533 241.4 851.2 242.2H893.2C894.733 242.2 895.967 242.733 896.9 243.8C897.9 244.8 898.4 246.033 898.4 247.5C898.4 248.9 897.9 250.133 896.9 251.2C895.967 252.2 894.733 252.7 893.2 252.7H847.1C846.5 254.1 845.867 255.467 845.2 256.8C844.533 258.067 843.833 259.367 843.1 260.7C843.833 260.567 844.633 260.5 845.5 260.5C846.367 260.5 847.267 260.5 848.2 260.5H863.6C868.4 260.5 872.167 260.967 874.9 261.9C877.633 262.833 879.567 264.5 880.7 266.9C881.833 269.233 882.4 272.533 882.4 276.8V307.7C882.4 313.167 881.067 317.033 878.4 319.3C875.733 321.567 871.433 322.7 865.5 322.7C863.767 322.7 862.3 322.233 861.1 321.3C859.9 320.367 859.233 319.033 859.1 317.3C858.9 315.433 859.233 313.933 860.1 312.8C861.033 311.6 862.3 310.9 863.9 310.7C866.433 310.433 868.1 310.033 868.9 309.5C869.7 308.9 870.1 307.667 870.1 305.8V300.8H841.7V317.2C841.7 319.067 841.1 320.567 839.9 321.7C838.7 322.833 837.267 323.4 835.6 323.4ZM841.7 291.6H870.1V285.9H841.7V291.6ZM841.7 276.6H870.1C870.033 274.267 869.567 272.7 868.7 271.9C867.833 271.1 865.967 270.7 863.1 270.7H848.8C846 270.7 844.133 271.1 843.2 271.9C842.333 272.7 841.833 274.267 841.7 276.6ZM1116.5 326.4C1115.5 326.867 1114.43 326.967 1113.3 326.7C1112.23 326.433 1111.43 325.8 1110.9 324.8C1110.43 323.8 1110.33 322.733 1110.6 321.6C1110.93 320.533 1111.63 319.767 1112.7 319.3C1116.1 317.833 1118.73 315.967 1120.6 313.7C1122.47 311.367 1123.4 308.9 1123.4 306.3C1123.4 305.3 1123.23 304.4 1122.9 303.6C1122.23 304.667 1121.3 305.567 1120.1 306.3C1118.97 306.967 1117.77 307.3 1116.5 307.3C1114.37 307.3 1112.53 306.6 1111 305.2C1109.47 303.8 1108.7 301.9 1108.7 299.5C1108.7 297.1 1109.57 295.233 1111.3 293.9C1113.1 292.567 1115.2 291.867 1117.6 291.8C1121.33 291.733 1124.43 293.1 1126.9 295.9C1129.43 298.633 1130.7 302.233 1130.7 306.7C1130.7 311.167 1129.53 315.033 1127.2 318.3C1124.93 321.633 1121.37 324.333 1116.5 326.4ZM1253.2 323.8C1251.73 323.8 1250.47 323.3 1249.4 322.3C1248.33 321.367 1247.8 320.067 1247.8 318.4V287.4C1247.8 284.133 1248.2 281.567 1249 279.7C1249.87 277.833 1251.33 276.5 1253.4 275.7C1255.53 274.833 1258.47 274.4 1262.2 274.4H1276.4C1280.2 274.4 1283.13 274.833 1285.2 275.7C1287.33 276.5 1288.8 277.833 1289.6 279.7C1290.47 281.567 1290.9 284.133 1290.9 287.4V310.5C1290.9 315.167 1289.67 318.467 1287.2 320.4C1284.73 322.4 1281.23 323.4 1276.7 323.4C1275.1 323.4 1273.8 322.967 1272.8 322.1C1271.87 321.3 1271.33 320.233 1271.2 318.9C1271.07 317.433 1271.37 316.167 1272.1 315.1C1272.83 314.033 1273.93 313.433 1275.4 313.3C1277.33 313.1 1278.57 312.8 1279.1 312.4C1279.63 311.933 1279.9 310.933 1279.9 309.4V306H1258.7V318.4C1258.7 320.067 1258.17 321.367 1257.1 322.3C1256.03 323.3 1254.73 323.8 1253.2 323.8ZM1244.3 270.8C1243.03 270.8 1242.03 270.367 1241.3 269.5C1240.57 268.633 1240.2 267.633 1240.2 266.5C1240.2 265.367 1240.57 264.4 1241.3 263.6C1242.03 262.8 1243.03 262.4 1244.3 262.4H1263V258.4H1249.6C1248.4 258.4 1247.47 258 1246.8 257.2C1246.2 256.333 1245.9 255.4 1245.9 254.4C1245.9 253.333 1246.2 252.433 1246.8 251.7C1247.47 250.9 1248.4 250.5 1249.6 250.5H1263V246.7H1246.5C1245.23 246.7 1244.23 246.267 1243.5 245.4C1242.77 244.533 1242.4 243.533 1242.4 242.4C1242.4 241.267 1242.77 240.3 1243.5 239.5C1244.23 238.7 1245.23 238.3 1246.5 238.3H1263V235.4C1263 233.667 1263.53 232.333 1264.6 231.4C1265.73 230.467 1267.07 230 1268.6 230C1270.13 230 1271.43 230.467 1272.5 231.4C1273.63 232.333 1274.2 233.667 1274.2 235.4V238.3H1291.7C1293.03 238.3 1294.03 238.7 1294.7 239.5C1295.43 240.3 1295.8 241.267 1295.8 242.4C1295.8 243.533 1295.43 244.533 1294.7 245.4C1294.03 246.267 1293.03 246.7 1291.7 246.7H1274.2V250.5H1289.4C1290.6 250.5 1291.5 250.9 1292.1 251.7C1292.77 252.433 1293.1 253.333 1293.1 254.4C1293.1 255.4 1292.77 256.333 1292.1 257.2C1291.5 258 1290.6 258.4 1289.4 258.4H1274.2V262.4H1294.3C1295.63 262.4 1296.63 262.8 1297.3 263.6C1298.03 264.4 1298.4 265.367 1298.4 266.5C1298.4 267.633 1298.03 268.633 1297.3 269.5C1296.63 270.367 1295.63 270.8 1294.3 270.8H1244.3ZM1225 320.5C1221.13 320.5 1218.07 320.033 1215.8 319.1C1213.6 318.233 1212.03 316.733 1211.1 314.6C1210.23 312.467 1209.8 309.5 1209.8 305.7C1209.8 301.833 1210.23 298.833 1211.1 296.7C1212.03 294.567 1213.6 293.1 1215.8 292.3C1218.07 291.433 1221.13 291 1225 291C1228.93 291 1232 291.433 1234.2 292.3C1236.47 293.1 1238.03 294.567 1238.9 296.7C1239.83 298.833 1240.3 301.833 1240.3 305.7C1240.3 309.5 1239.83 312.467 1238.9 314.6C1238.03 316.733 1236.47 318.233 1234.2 319.1C1232 320.033 1228.93 320.5 1225 320.5ZM1209.6 258.1C1208.13 258.1 1207 257.633 1206.2 256.7C1205.4 255.767 1205 254.667 1205 253.4C1205 252.133 1205.4 251.067 1206.2 250.2C1207 249.267 1208.13 248.8 1209.6 248.8H1239.6C1241 248.8 1242.1 249.267 1242.9 250.2C1243.7 251.067 1244.1 252.133 1244.1 253.4C1244.1 254.667 1243.7 255.767 1242.9 256.7C1242.1 257.633 1241 258.1 1239.6 258.1H1209.6ZM1215.1 244.1C1213.63 244.1 1212.47 243.633 1211.6 242.7C1210.73 241.7 1210.3 240.567 1210.3 239.3C1210.3 237.967 1210.73 236.833 1211.6 235.9C1212.47 234.967 1213.63 234.5 1215.1 234.5H1235C1236.53 234.5 1237.7 234.967 1238.5 235.9C1239.37 236.833 1239.8 237.967 1239.8 239.3C1239.8 240.567 1239.37 241.7 1238.5 242.7C1237.7 243.633 1236.53 244.1 1235 244.1H1215.1ZM1214.9 286.3C1213.43 286.3 1212.3 285.833 1211.5 284.9C1210.7 283.967 1210.3 282.867 1210.3 281.6C1210.3 280.267 1210.7 279.167 1211.5 278.3C1212.3 277.367 1213.43 276.9 1214.9 276.9H1235.2C1236.6 276.9 1237.7 277.367 1238.5 278.3C1239.37 279.167 1239.8 280.267 1239.8 281.6C1239.8 282.867 1239.37 283.967 1238.5 284.9C1237.7 285.833 1236.6 286.3 1235.2 286.3H1214.9ZM1214.9 272.2C1213.43 272.2 1212.3 271.733 1211.5 270.8C1210.7 269.867 1210.3 268.767 1210.3 267.5C1210.3 266.233 1210.7 265.133 1211.5 264.2C1212.3 263.267 1213.43 262.8 1214.9 262.8H1235.2C1236.6 262.8 1237.7 263.267 1238.5 264.2C1239.37 265.133 1239.8 266.233 1239.8 267.5C1239.8 268.767 1239.37 269.867 1238.5 270.8C1237.7 271.733 1236.6 272.2 1235.2 272.2H1214.9ZM1225 311.3C1227.13 311.3 1228.5 310.933 1229.1 310.2C1229.77 309.467 1230.1 307.967 1230.1 305.7C1230.1 303.5 1229.77 302.033 1229.1 301.3C1228.5 300.5 1227.13 300.1 1225 300.1C1222.93 300.1 1221.57 300.5 1220.9 301.3C1220.23 302.033 1219.9 303.5 1219.9 305.7C1219.9 307.967 1220.23 309.467 1220.9 310.2C1221.57 310.933 1222.93 311.3 1225 311.3ZM1258.7 298.6H1279.9V294.3H1258.7V298.6ZM1258.7 287H1279.9C1279.83 285.067 1279.43 283.9 1278.7 283.5C1277.97 283.033 1276.43 282.8 1274.1 282.8H1264.4C1262.07 282.8 1260.53 283.033 1259.8 283.5C1259.07 283.9 1258.7 285.067 1258.7 287ZM1324.5 323.5C1323.03 323.5 1321.77 323.033 1320.7 322.1C1319.7 321.167 1319.2 319.867 1319.2 318.2V235.7C1319.2 234.033 1319.7 232.733 1320.7 231.8C1321.77 230.867 1323.03 230.4 1324.5 230.4C1326.03 230.4 1327.3 230.867 1328.3 231.8C1329.37 232.733 1329.9 234.033 1329.9 235.7V251.5C1330.1 251.3 1330.33 251.1 1330.6 250.9C1330.93 250.633 1331.23 250.467 1331.5 250.4C1332.7 249.8 1333.9 249.667 1335.1 250C1336.37 250.333 1337.33 251.1 1338 252.3C1338.47 253.1 1339.03 254.167 1339.7 255.5C1340.43 256.767 1341.13 258.033 1341.8 259.3C1342.53 260.567 1343.07 261.6 1343.4 262.4V262.5C1343.53 258.567 1344.7 255.7 1346.9 253.9C1349.1 252.033 1352.8 251.1 1358 251.1H1360.5V247.1H1340.7C1339.37 247.1 1338.3 246.667 1337.5 245.8C1336.7 244.867 1336.3 243.8 1336.3 242.6C1336.3 241.4 1336.7 240.367 1337.5 239.5C1338.3 238.633 1339.37 238.2 1340.7 238.2H1360.5V235.4C1360.5 233.667 1361.07 232.3 1362.2 231.3C1363.33 230.233 1364.7 229.7 1366.3 229.7C1367.9 229.7 1369.23 230.233 1370.3 231.3C1371.43 232.3 1372 233.667 1372 235.4V238.2H1393.3C1394.7 238.2 1395.77 238.633 1396.5 239.5C1397.3 240.367 1397.7 241.4 1397.7 242.6C1397.7 243.8 1397.3 244.867 1396.5 245.8C1395.77 246.667 1394.7 247.1 1393.3 247.1H1372V251.1H1376.2C1381.67 251.1 1385.47 252.1 1387.6 254.1C1389.73 256.1 1390.8 259.267 1390.8 263.6V281.4C1390.8 285.667 1389.73 288.8 1387.6 290.8C1385.47 292.8 1381.67 293.8 1376.2 293.8H1358C1352.53 293.8 1348.73 292.8 1346.6 290.8C1344.47 288.8 1343.4 285.667 1343.4 281.4V267C1342.87 267.933 1342.1 268.667 1341.1 269.2C1339.83 269.733 1338.5 269.833 1337.1 269.5C1335.77 269.1 1334.83 268.267 1334.3 267C1333.83 265.867 1333.17 264.433 1332.3 262.7C1331.43 260.9 1330.63 259.3 1329.9 257.9V318.2C1329.9 319.867 1329.37 321.167 1328.3 322.1C1327.3 323.033 1326.03 323.5 1324.5 323.5ZM1344.2 322.7C1342.67 323.433 1341.1 323.633 1339.5 323.3C1337.97 323.033 1336.83 322.167 1336.1 320.7C1335.43 319.367 1335.3 318 1335.7 316.6C1336.1 315.2 1337.03 314.2 1338.5 313.6C1340.57 312.733 1342.97 311.6 1345.7 310.2C1348.43 308.733 1350.8 307.367 1352.8 306.1H1337.9C1336.57 306.1 1335.5 305.667 1334.7 304.8C1333.97 303.933 1333.6 302.9 1333.6 301.7C1333.6 300.5 1333.97 299.467 1334.7 298.6C1335.5 297.733 1336.57 297.3 1337.9 297.3H1394.8C1396.13 297.3 1397.17 297.733 1397.9 298.6C1398.7 299.467 1399.1 300.5 1399.1 301.7C1399.1 302.9 1398.7 303.933 1397.9 304.8C1397.17 305.667 1396.13 306.1 1394.8 306.1H1381C1383 307.367 1385.33 308.733 1388 310.2C1390.73 311.6 1393.13 312.733 1395.2 313.6C1396.73 314.2 1397.7 315.2 1398.1 316.6C1398.5 318 1398.33 319.367 1397.6 320.7C1396.87 322.167 1395.73 323.033 1394.2 323.3C1392.67 323.633 1391.13 323.433 1389.6 322.7C1388.07 321.967 1386.23 321.033 1384.1 319.9C1382.03 318.767 1380 317.567 1378 316.3C1376 315.033 1374.3 313.867 1372.9 312.8C1371.83 312 1371.3 310.967 1371.3 309.7C1371.3 308.367 1371.63 307.233 1372.3 306.3L1372.4 306.1H1361.3L1361.5 306.3C1362.17 307.233 1362.5 308.367 1362.5 309.7C1362.5 310.967 1361.93 312 1360.8 312.8C1359.47 313.867 1357.8 315.033 1355.8 316.3C1353.8 317.567 1351.77 318.767 1349.7 319.9C1347.63 321.033 1345.8 321.967 1344.2 322.7ZM1307.4 282.2C1306.07 281.933 1305.07 281.233 1304.4 280.1C1303.73 278.967 1303.53 277.733 1303.8 276.4C1304.2 274.667 1304.6 272.567 1305 270.1C1305.47 267.567 1305.9 265 1306.3 262.4C1306.7 259.8 1307 257.6 1307.2 255.8C1307.33 254.333 1307.93 253.2 1309 252.4C1310.13 251.6 1311.43 251.3 1312.9 251.5C1314.23 251.7 1315.3 252.3 1316.1 253.3C1316.9 254.233 1317.23 255.4 1317.1 256.8C1316.83 258.8 1316.5 261.167 1316.1 263.9C1315.7 266.633 1315.27 269.333 1314.8 272C1314.33 274.667 1313.9 276.9 1313.5 278.7C1313.23 280.033 1312.5 281.033 1311.3 281.7C1310.17 282.3 1308.87 282.467 1307.4 282.2ZM1354.9 274.5H1379.3V270.1H1354.9V274.5ZM1360.8 286H1373.4C1375.87 286 1377.43 285.733 1378.1 285.2C1378.83 284.6 1379.23 283.333 1379.3 281.4H1354.9C1354.9 283.333 1355.27 284.6 1356 285.2C1356.73 285.733 1358.33 286 1360.8 286ZM1354.9 263.3H1379.3C1379.23 261.433 1378.83 260.233 1378.1 259.7C1377.37 259.167 1375.8 258.9 1373.4 258.9H1360.8C1358.4 258.9 1356.83 259.167 1356.1 259.7C1355.37 260.233 1354.97 261.433 1354.9 263.3ZM1415.1 324.3C1413.57 324.3 1412.27 323.8 1411.2 322.8C1410.2 321.867 1409.7 320.567 1409.7 318.9V248.3C1409.7 244.567 1410.13 241.7 1411 239.7C1411.93 237.7 1413.6 236.333 1416 235.6C1418.47 234.8 1422 234.4 1426.6 234.4C1434.07 234.4 1438.97 235.733 1441.3 238.4C1443.7 241.067 1443.83 244.867 1441.7 249.8L1440.8 251.9C1441.8 250.567 1443.13 249.9 1444.8 249.9H1462V237.3C1462 235.433 1462.57 233.967 1463.7 232.9C1464.9 231.767 1466.33 231.2 1468 231.2C1469.67 231.2 1471.07 231.767 1472.2 232.9C1473.4 233.967 1474 235.433 1474 237.3V249.9H1493.2C1494.67 249.9 1495.9 250.433 1496.9 251.5C1497.9 252.5 1498.4 253.733 1498.4 255.2C1498.4 256.667 1497.9 257.933 1496.9 259C1495.9 260 1494.67 260.5 1493.2 260.5H1466.4V264.8C1466.4 265.6 1466.4 266.4 1466.4 267.2C1466.4 268 1466.37 268.767 1466.3 269.5H1473.9C1478.23 269.5 1481.6 269.967 1484 270.9C1486.47 271.833 1488.17 273.433 1489.1 275.7C1490.1 277.967 1490.5 281.067 1490.3 285C1490.1 290.2 1489.8 294.6 1489.4 298.2C1489.07 301.8 1488.53 305.367 1487.8 308.9C1486.87 313.967 1484.87 317.467 1481.8 319.4C1478.8 321.4 1474.3 322.4 1468.3 322.4C1466.57 322.4 1465.1 321.933 1463.9 321C1462.77 320.067 1462.13 318.733 1462 317C1461.87 315.267 1462.37 313.767 1463.5 312.5C1464.63 311.233 1466.13 310.567 1468 310.5C1471.13 310.367 1473.27 309.967 1474.4 309.3C1475.6 308.567 1476.43 307.133 1476.9 305C1477.5 302.733 1478 299.967 1478.4 296.7C1478.87 293.367 1479.13 289.867 1479.2 286.2C1479.27 283.867 1478.9 282.3 1478.1 281.5C1477.3 280.633 1475.77 280.2 1473.5 280.2H1465.5C1464.43 289.467 1462.03 297.367 1458.3 303.9C1454.63 310.433 1449.33 316.233 1442.4 321.3C1441 322.3 1439.43 322.733 1437.7 322.6C1435.97 322.533 1434.53 321.833 1433.4 320.5C1432.4 319.367 1432 317.967 1432.2 316.3C1432.4 314.633 1433.1 313.367 1434.3 312.5C1439.3 308.9 1443.27 305.033 1446.2 300.9C1449.2 296.7 1451.33 291.7 1452.6 285.9C1453.93 280.1 1454.6 273.067 1454.6 264.8V260.5H1444.8C1443.33 260.5 1442.1 260 1441.1 259C1440.1 257.933 1439.6 256.667 1439.6 255.2V254.5C1439 255.833 1438.4 257.167 1437.8 258.5C1437.27 259.833 1436.73 261.033 1436.2 262.1C1435.53 263.633 1435.07 264.867 1434.8 265.8C1434.6 266.733 1434.67 267.6 1435 268.4C1435.33 269.133 1435.93 270.1 1436.8 271.3C1438.8 273.967 1440.3 276.633 1441.3 279.3C1442.3 281.967 1442.8 284.9 1442.8 288.1C1442.8 293.767 1441.4 298.033 1438.6 300.9C1435.8 303.767 1431.93 305.367 1427 305.7C1423.6 305.833 1421.47 304.633 1420.6 302.1V318.9C1420.6 320.567 1420.07 321.867 1419 322.8C1417.93 323.8 1416.63 324.3 1415.1 324.3ZM1420.6 297.5C1421.4 295.567 1422.83 294.467 1424.9 294.2C1427.23 293.867 1428.9 293.1 1429.9 291.9C1430.9 290.7 1431.4 288.433 1431.4 285.1C1431.4 282.967 1430.93 280.933 1430 279C1429.13 277.067 1428.07 275.267 1426.8 273.6C1425.53 271.867 1424.63 270.433 1424.1 269.3C1423.57 268.167 1423.4 267 1423.6 265.8C1423.87 264.533 1424.43 262.867 1425.3 260.8C1426.1 259 1426.93 256.967 1427.8 254.7C1428.73 252.367 1429.53 250.333 1430.2 248.6C1430.8 247.133 1430.73 246.1 1430 245.5C1429.33 244.9 1427.9 244.6 1425.7 244.6C1423.7 244.6 1422.33 244.867 1421.6 245.4C1420.93 245.933 1420.6 246.967 1420.6 248.5V297.5Z" fill="black"/>
<path d="M906.5 321.6C905.233 320.867 904.367 319.767 903.9 318.3C903.5 316.833 903.667 315.5 904.4 314.3C906.267 311.167 907.867 308.1 909.2 305.1C910.533 302.1 911.6 298.867 912.4 295.4C913.267 291.933 913.9 288 914.3 283.6C914.7 279.2 914.9 274.033 914.9 268.1C914.9 265.767 914.867 263.8 914.8 262.2C914.8 260.533 914.8 258.967 914.8 257.5C914.8 255.967 914.767 254.267 914.7 252.4C914.567 247.733 915.167 244.033 916.5 241.3C917.833 238.567 920.1 236.633 923.3 235.5C926.5 234.3 930.833 233.7 936.3 233.7H963.1C968.433 233.7 972.7 234.3 975.9 235.5C979.1 236.633 981.4 238.567 982.8 241.3C984.2 244.033 984.8 247.767 984.6 252.5C984.533 254.633 984.5 256.533 984.5 258.2C984.5 259.8 984.5 261.633 984.5 263.7C984.5 264.567 984.5 265.5 984.5 266.5C984.5 267.433 984.5 268.467 984.5 269.6C984.5 277.333 984.867 284.467 985.6 291C986.4 297.467 987.7 302.733 989.5 306.8C990.3 308.667 991.067 308.6 991.8 306.6C992 306.067 992.2 305.533 992.4 305C992.6 304.467 992.8 304 993 303.6C993.533 302.333 994.4 301.467 995.6 301C996.867 300.467 998.2 300.467 999.6 301C1000.87 301.467 1001.73 302.3 1002.2 303.5C1002.73 304.633 1002.8 305.867 1002.4 307.2C1002 308.467 1001.5 309.867 1000.9 311.4C1000.3 312.867 999.633 314.3 998.9 315.7C997.5 318.633 995.7 320.567 993.5 321.5C991.367 322.433 989.2 322.367 987 321.3C984.8 320.3 982.9 318.267 981.3 315.2C978.367 309.467 976.333 302.8 975.2 295.2C974.067 287.533 973.5 279 973.5 269.6C973.5 266.867 973.5 264.567 973.5 262.7C973.5 260.833 973.5 259.167 973.5 257.7C973.567 256.167 973.6 254.533 973.6 252.8C973.667 250.4 973.433 248.567 972.9 247.3C972.367 245.967 971.333 245.067 969.8 244.6C968.267 244.067 966.033 243.8 963.1 243.8H936.3C933.367 243.8 931.1 244.067 929.5 244.6C927.9 245.067 926.8 245.967 926.2 247.3C925.6 248.567 925.3 250.4 925.3 252.8C925.367 255.6 925.4 258.3 925.4 260.9C925.4 263.5 925.4 266.133 925.4 268.8C925.4 276.733 925.033 283.667 924.3 289.6C923.633 295.533 922.5 300.867 920.9 305.6C919.3 310.333 917.133 314.933 914.4 319.4C913.6 320.667 912.4 321.533 910.8 322C909.267 322.467 907.833 322.333 906.5 321.6ZM975.6 319.7C974.333 320.367 972.967 320.467 971.5 320C970.033 319.533 968.967 318.667 968.3 317.4C967.967 316.667 967.533 315.867 967 315C966.533 314.133 966.033 313.2 965.5 312.2C963.1 312.667 960.3 313.167 957.1 313.7C953.967 314.233 950.7 314.767 947.3 315.3C943.9 315.833 940.667 316.3 937.6 316.7C934.6 317.167 932.033 317.533 929.9 317.8C928.233 318.067 926.8 317.767 925.6 316.9C924.4 316.1 923.667 314.867 923.4 313.2C923.2 311.667 923.533 310.333 924.4 309.2C925.333 308.067 926.7 307.433 928.5 307.3C930.3 307.1 932.6 306.833 935.4 306.5C938.267 306.1 941.3 305.7 944.5 305.3V293.3C940.567 293.3 937.433 292.867 935.1 292C932.833 291.133 931.2 289.667 930.2 287.6C929.267 285.467 928.8 282.633 928.8 279.1C928.8 275.5 929.267 272.667 930.2 270.6C931.2 268.533 932.833 267.067 935.1 266.2C937.433 265.333 940.567 264.9 944.5 264.9V259.7C942.5 259.9 940.533 260.1 938.6 260.3C936.733 260.433 934.933 260.567 933.2 260.7C931.733 260.767 930.433 260.433 929.3 259.7C928.233 258.967 927.6 257.8 927.4 256.2C927.267 254.733 927.633 253.467 928.5 252.4C929.367 251.333 930.567 250.767 932.1 250.7C935.233 250.5 938.667 250.2 942.4 249.8C946.133 249.4 949.8 248.933 953.4 248.4C957.067 247.8 960.267 247.2 963 246.6C964.733 246.2 966.233 246.267 967.5 246.8C968.767 247.333 969.6 248.267 970 249.6C970.467 251.133 970.367 252.533 969.7 253.8C969.1 255.067 967.933 255.867 966.2 256.2C964.4 256.6 962.5 257 960.5 257.4C958.567 257.733 956.533 258.067 954.4 258.4V264.9C958.333 264.9 961.433 265.367 963.7 266.3C965.967 267.167 967.567 268.633 968.5 270.7C969.5 272.767 970 275.567 970 279.1C970 282.633 969.5 285.433 968.5 287.5C967.567 289.567 965.967 291.067 963.7 292C961.433 292.867 958.333 293.3 954.4 293.3V303.9C955.467 303.767 956.5 303.633 957.5 303.5C958.5 303.367 959.433 303.233 960.3 303.1L959.6 302C958.933 300.867 958.767 299.633 959.1 298.3C959.5 296.967 960.267 295.967 961.4 295.3C962.533 294.567 963.833 294.333 965.3 294.6C966.767 294.867 967.933 295.633 968.8 296.9C969.733 298.233 970.767 299.867 971.9 301.8C973.033 303.667 974.167 305.567 975.3 307.5C976.433 309.433 977.333 311.1 978 312.5C978.733 313.833 978.833 315.167 978.3 316.5C977.833 317.9 976.933 318.967 975.6 319.7ZM944 284H944.5V274.2H944C941.733 274.2 940.267 274.5 939.6 275.1C938.933 275.633 938.6 276.967 938.6 279.1C938.6 281.233 938.933 282.6 939.6 283.2C940.267 283.733 941.733 284 944 284ZM954.4 284H954.8C957.067 284 958.533 283.733 959.2 283.2C959.867 282.6 960.2 281.233 960.2 279.1C960.2 276.967 959.867 275.633 959.2 275.1C958.533 274.5 957.067 274.2 954.8 274.2H954.4V284ZM1013.3 323.5C1011.83 323.5 1010.6 323.033 1009.6 322.1C1008.6 321.167 1008.1 319.9 1008.1 318.3V245.8C1008.1 242.533 1008.5 240.033 1009.3 238.3C1010.17 236.5 1011.73 235.267 1014 234.6C1016.27 233.933 1019.5 233.6 1023.7 233.6C1030.83 233.6 1035.37 234.9 1037.3 237.5C1039.23 240.1 1039.13 243.733 1037 248.4C1036.8 248.867 1036.53 249.433 1036.2 250.1C1035.93 250.7 1035.63 251.367 1035.3 252.1C1037.7 250.567 1040.27 248.8 1043 246.8C1045.8 244.733 1048.47 242.6 1051 240.4C1053.53 238.2 1055.67 236.167 1057.4 234.3C1059.6 231.967 1062.1 230.767 1064.9 230.7C1067.77 230.633 1070.4 231.667 1072.8 233.8C1074.67 235.467 1076.97 237.333 1079.7 239.4C1082.5 241.467 1085.4 243.467 1088.4 245.4C1091.4 247.267 1094.1 248.833 1096.5 250.1C1097.83 250.833 1098.7 252 1099.1 253.6C1099.57 255.2 1099.43 256.667 1098.7 258C1097.9 259.467 1096.73 260.5 1095.2 261.1C1093.67 261.633 1092.13 261.433 1090.6 260.5C1089.6 259.833 1088.53 259.1 1087.4 258.3C1086.27 257.5 1085.07 256.667 1083.8 255.8C1084.2 256.6 1084.4 257.467 1084.4 258.4C1084.4 259.667 1084 260.767 1083.2 261.7C1082.4 262.567 1081.27 263 1079.8 263H1052.8C1051.4 263 1050.27 262.567 1049.4 261.7C1048.6 260.767 1048.2 259.667 1048.2 258.4C1048.2 257.533 1048.33 256.833 1048.6 256.3C1047.4 257.167 1046.2 258.033 1045 258.9C1043.87 259.7 1042.8 260.467 1041.8 261.2C1040.33 262.133 1038.87 262.567 1037.4 262.5C1035.93 262.433 1034.67 261.733 1033.6 260.4C1032.93 259.667 1032.57 258.9 1032.5 258.1C1032.1 258.9 1031.73 259.6 1031.4 260.2C1031.13 260.8 1030.93 261.233 1030.8 261.5C1030.07 262.967 1029.7 264.067 1029.7 264.8C1029.77 265.533 1030.37 266.567 1031.5 267.9C1033.63 270.233 1035.3 272.9 1036.5 275.9C1037.7 278.9 1038.3 282.033 1038.3 285.3C1038.3 290.767 1037.03 294.9 1034.5 297.7C1031.97 300.5 1028.63 301.967 1024.5 302.1C1023.03 302.167 1021.77 301.867 1020.7 301.2C1019.63 300.533 1018.9 299.567 1018.5 298.3V318.3C1018.5 319.9 1018 321.167 1017 322.1C1016 323.033 1014.77 323.5 1013.3 323.5ZM1064.6 321.8C1063.53 321.067 1062.83 320.067 1062.5 318.8C1062.23 317.6 1062.43 316.467 1063.1 315.4C1062.23 316.2 1061.17 316.633 1059.9 316.7C1058.7 316.833 1057.63 316.467 1056.7 315.6C1056.3 315.333 1055.43 314.7 1054.1 313.7C1052.83 312.7 1051.7 311.767 1050.7 310.9C1049.57 312.633 1048.4 314.3 1047.2 315.9C1046.07 317.567 1044.93 319.033 1043.8 320.3C1042.8 321.367 1041.53 322 1040 322.2C1038.53 322.4 1037.2 322.067 1036 321.2C1034.93 320.333 1034.3 319.2 1034.1 317.8C1033.97 316.4 1034.33 315.167 1035.2 314.1C1036.67 312.433 1038.2 310.5 1039.8 308.3C1041.47 306.033 1043.03 303.733 1044.5 301.4C1046.03 299 1047.23 296.867 1048.1 295C1048.7 293.733 1049.67 292.9 1051 292.5C1052.33 292.1 1053.63 292.2 1054.9 292.8C1056.23 293.4 1057.13 294.3 1057.6 295.5C1058.07 296.7 1058 297.933 1057.4 299.2C1056.93 300.267 1056.33 301.467 1055.6 302.8C1056.2 303.267 1057 303.867 1058 304.6C1059 305.267 1059.93 305.933 1060.8 306.6C1061.73 307.2 1062.4 307.633 1062.8 307.9C1063.73 308.567 1064.33 309.5 1064.6 310.7C1064.87 311.833 1064.73 312.9 1064.2 313.9C1065.53 312.167 1066.9 310.2 1068.3 308C1069.7 305.733 1071 303.467 1072.2 301.2C1073.47 298.867 1074.47 296.8 1075.2 295C1075.73 293.733 1076.67 292.867 1078 292.4C1079.33 291.933 1080.63 291.967 1081.9 292.5C1083.23 293.033 1084.17 293.9 1084.7 295.1C1085.3 296.233 1085.33 297.467 1084.8 298.8C1084.53 299.4 1084.23 300.033 1083.9 300.7C1083.57 301.367 1083.23 302.067 1082.9 302.8C1083.9 303.533 1085.17 304.467 1086.7 305.6C1088.3 306.667 1089.87 307.733 1091.4 308.8C1092.93 309.867 1094.13 310.667 1095 311.2C1096.13 311.933 1096.73 313.033 1096.8 314.5C1096.87 315.9 1096.53 317.133 1095.8 318.2C1095 319.333 1093.9 320 1092.5 320.2C1091.1 320.4 1089.83 320.1 1088.7 319.3C1088.1 318.833 1087.17 318.133 1085.9 317.2C1084.7 316.267 1083.4 315.267 1082 314.2C1080.67 313.067 1079.47 312.1 1078.4 311.3C1077.4 313.033 1076.37 314.667 1075.3 316.2C1074.3 317.8 1073.3 319.233 1072.3 320.5C1071.43 321.633 1070.23 322.333 1068.7 322.6C1067.23 322.933 1065.87 322.667 1064.6 321.8ZM1081.1 291.1C1077.9 291.1 1075.4 290.767 1073.6 290.1C1071.8 289.367 1070.53 288.1 1069.8 286.3C1069.07 284.5 1068.7 281.967 1068.7 278.7C1068.7 275.433 1069.07 272.9 1069.8 271.1C1070.53 269.3 1071.8 268.067 1073.6 267.4C1075.4 266.667 1077.9 266.3 1081.1 266.3C1084.37 266.3 1086.9 266.667 1088.7 267.4C1090.5 268.067 1091.77 269.3 1092.5 271.1C1093.23 272.9 1093.6 275.433 1093.6 278.7C1093.6 281.967 1093.23 284.5 1092.5 286.3C1091.77 288.1 1090.5 289.367 1088.7 290.1C1086.9 290.767 1084.37 291.1 1081.1 291.1ZM1052.9 291.1C1049.7 291.1 1047.2 290.767 1045.4 290.1C1043.6 289.367 1042.33 288.1 1041.6 286.3C1040.87 284.5 1040.5 281.967 1040.5 278.7C1040.5 275.433 1040.87 272.9 1041.6 271.1C1042.33 269.3 1043.6 268.067 1045.4 267.4C1047.2 266.667 1049.7 266.3 1052.9 266.3C1056.17 266.3 1058.67 266.667 1060.4 267.4C1062.2 268.067 1063.43 269.3 1064.1 271.1C1064.83 272.9 1065.2 275.433 1065.2 278.7C1065.2 281.967 1064.83 284.5 1064.1 286.3C1063.43 288.1 1062.2 289.367 1060.4 290.1C1058.67 290.767 1056.17 291.1 1052.9 291.1ZM1018.5 294.6C1018.83 293.8 1019.33 293.1 1020 292.5C1020.73 291.9 1021.63 291.5 1022.7 291.3C1024.43 290.967 1025.63 290.3 1026.3 289.3C1027.03 288.233 1027.4 286.167 1027.4 283.1C1027.4 280.7 1026.8 278.3 1025.6 275.9C1024.4 273.433 1023.03 271.367 1021.5 269.7C1020.23 268.3 1019.53 267.033 1019.4 265.9C1019.27 264.7 1019.67 263.033 1020.6 260.9C1020.93 260.167 1021.37 259.167 1021.9 257.9C1022.43 256.567 1022.97 255.2 1023.5 253.8C1024.1 252.333 1024.63 251 1025.1 249.8C1025.63 248.6 1026 247.7 1026.2 247.1C1026.87 245.567 1027 244.5 1026.6 243.9C1026.2 243.3 1024.97 243 1022.9 243C1021.03 243 1019.83 243.233 1019.3 243.7C1018.77 244.167 1018.5 245.267 1018.5 247V294.6ZM1081 253.9C1078.67 252.1 1076.37 250.3 1074.1 248.5C1071.83 246.7 1069.97 245.1 1068.5 243.7C1067.43 242.7 1066.47 242.2 1065.6 242.2C1064.8 242.2 1063.87 242.767 1062.8 243.9C1060 246.9 1056.33 250.2 1051.8 253.8C1051.93 253.733 1052.1 253.7 1052.3 253.7C1052.5 253.7 1052.67 253.7 1052.8 253.7H1079.8C1080.2 253.7 1080.6 253.767 1081 253.9ZM1081.1 282.9C1082.63 282.9 1083.63 282.667 1084.1 282.2C1084.63 281.733 1084.9 280.567 1084.9 278.7C1084.9 276.9 1084.63 275.767 1084.1 275.3C1083.63 274.767 1082.63 274.5 1081.1 274.5C1079.57 274.5 1078.53 274.767 1078 275.3C1077.53 275.767 1077.3 276.9 1077.3 278.7C1077.3 280.567 1077.53 281.733 1078 282.2C1078.53 282.667 1079.57 282.9 1081.1 282.9ZM1052.9 282.9C1054.43 282.9 1055.4 282.667 1055.8 282.2C1056.27 281.733 1056.5 280.567 1056.5 278.7C1056.5 276.9 1056.27 275.767 1055.8 275.3C1055.4 274.767 1054.43 274.5 1052.9 274.5C1051.37 274.5 1050.37 274.767 1049.9 275.3C1049.43 275.767 1049.2 276.9 1049.2 278.7C1049.2 280.567 1049.43 281.733 1049.9 282.2C1050.37 282.667 1051.37 282.9 1052.9 282.9Z" fill="#FF3636"/>
<path d="M1566.6 323.7C1564.93 323.7 1563.5 323.133 1562.3 322C1561.17 320.933 1560.6 319.5 1560.6 317.7V258.7H1558.4C1555.87 263.3 1553.37 267.333 1550.9 270.8C1549.97 272.2 1548.67 273.1 1547 273.5C1545.33 273.833 1543.77 273.567 1542.3 272.7C1541.7 272.367 1541.13 271.867 1540.6 271.2C1539.67 272.333 1538.5 272.9 1537.1 272.9H1514.7C1513.43 272.9 1512.33 272.433 1511.4 271.5C1510.53 270.567 1510.1 269.467 1510.1 268.2C1510.1 266.867 1510.53 265.767 1511.4 264.9C1512.33 263.967 1513.43 263.5 1514.7 263.5H1537.1C1538.5 263.5 1539.67 264.033 1540.6 265.1C1542 263.233 1543.47 261 1545 258.4C1546.53 255.8 1548.03 253.067 1549.5 250.2C1550.97 247.267 1552.3 244.433 1553.5 241.7C1554.77 238.967 1555.77 236.567 1556.5 234.5C1557.17 232.767 1558.27 231.6 1559.8 231C1561.33 230.4 1562.93 230.433 1564.6 231.1C1566.13 231.7 1567.2 232.767 1567.8 234.3C1568.4 235.767 1568.4 237.267 1567.8 238.8C1567.27 240.2 1566.67 241.667 1566 243.2C1565.33 244.733 1564.63 246.333 1563.9 248H1593.7C1595.23 248 1596.5 248.533 1597.5 249.6C1598.57 250.6 1599.1 251.833 1599.1 253.3C1599.1 254.767 1598.57 256.033 1597.5 257.1C1596.5 258.167 1595.23 258.7 1593.7 258.7H1572.5V269.9H1590.6C1592.07 269.9 1593.3 270.433 1594.3 271.5C1595.37 272.5 1595.9 273.733 1595.9 275.2C1595.9 276.667 1595.37 277.9 1594.3 278.9C1593.3 279.9 1592.07 280.4 1590.6 280.4H1572.5V291.3H1590.6C1592.07 291.3 1593.3 291.833 1594.3 292.9C1595.37 293.9 1595.9 295.133 1595.9 296.6C1595.9 298.067 1595.37 299.3 1594.3 300.3C1593.3 301.3 1592.07 301.8 1590.6 301.8H1572.5V317.7C1572.5 319.5 1571.9 320.933 1570.7 322C1569.57 323.133 1568.2 323.7 1566.6 323.7ZM1525.9 321.7C1521.9 321.7 1518.73 321.233 1516.4 320.3C1514.07 319.367 1512.4 317.8 1511.4 315.6C1510.47 313.4 1510 310.433 1510 306.7C1510 302.833 1510.47 299.833 1511.4 297.7C1512.4 295.5 1514.07 293.933 1516.4 293C1518.73 292.067 1521.9 291.6 1525.9 291.6C1529.97 291.6 1533.13 292.067 1535.4 293C1537.73 293.933 1539.37 295.5 1540.3 297.7C1541.3 299.833 1541.8 302.833 1541.8 306.7C1541.8 310.433 1541.3 313.4 1540.3 315.6C1539.37 317.8 1537.73 319.367 1535.4 320.3C1533.13 321.233 1529.97 321.7 1525.9 321.7ZM1509.7 258.7C1508.43 258.7 1507.37 258.267 1506.5 257.4C1505.63 256.467 1505.2 255.367 1505.2 254.1C1505.2 252.767 1505.63 251.667 1506.5 250.8C1507.37 249.867 1508.43 249.4 1509.7 249.4H1541.6C1542.87 249.4 1543.93 249.867 1544.8 250.8C1545.73 251.667 1546.2 252.767 1546.2 254.1C1546.2 255.367 1545.73 256.467 1544.8 257.4C1543.93 258.267 1542.87 258.7 1541.6 258.7H1509.7ZM1514.9 244.7C1513.63 244.7 1512.53 244.233 1511.6 243.3C1510.67 242.3 1510.2 241.167 1510.2 239.9C1510.2 238.567 1510.67 237.433 1511.6 236.5C1512.53 235.567 1513.63 235.1 1514.9 235.1H1537C1538.33 235.1 1539.43 235.567 1540.3 236.5C1541.23 237.433 1541.7 238.567 1541.7 239.9C1541.7 241.167 1541.23 242.3 1540.3 243.3C1539.43 244.233 1538.33 244.7 1537 244.7H1514.9ZM1514.7 287C1513.43 287 1512.33 286.533 1511.4 285.6C1510.53 284.667 1510.1 283.567 1510.1 282.3C1510.1 281.033 1510.53 279.933 1511.4 279C1512.33 278.067 1513.43 277.6 1514.7 277.6H1537.1C1538.43 277.6 1539.53 278.067 1540.4 279C1541.27 279.933 1541.7 281.033 1541.7 282.3C1541.7 283.567 1541.27 284.667 1540.4 285.6C1539.53 286.533 1538.43 287 1537.1 287H1514.7ZM1525.9 312.3C1528.03 312.3 1529.43 311.933 1530.1 311.2C1530.83 310.467 1531.2 308.967 1531.2 306.7C1531.2 304.367 1530.83 302.833 1530.1 302.1C1529.43 301.367 1528.03 301 1525.9 301C1523.83 301 1522.43 301.367 1521.7 302.1C1520.97 302.833 1520.6 304.367 1520.6 306.7C1520.6 308.967 1520.97 310.467 1521.7 311.2C1522.43 311.933 1523.83 312.3 1525.9 312.3ZM1661 323.7C1660 323.7 1659.1 323.367 1658.3 322.7C1657.57 322.033 1657.2 321.067 1657.2 319.8V300.8C1656.53 304.067 1655.7 307.167 1654.7 310.1C1653.7 312.967 1652.53 315.633 1651.2 318.1C1650.53 319.367 1649.47 320.2 1648 320.6C1646.53 321 1645.17 320.867 1643.9 320.2C1642.63 319.533 1641.83 318.467 1641.5 317C1640.3 318.867 1638.6 320.233 1636.4 321.1C1634.27 321.967 1631.53 322.433 1628.2 322.5C1626.53 322.5 1625.2 322.067 1624.2 321.2C1623.27 320.333 1622.73 319.267 1622.6 318C1622.4 316.533 1622.67 315.3 1623.4 314.3C1624.13 313.233 1625.2 312.667 1626.6 312.6C1629.33 312.4 1631.2 312.033 1632.2 311.5C1633.27 310.967 1634 309.667 1634.4 307.6C1634.53 307.067 1634.63 306.467 1634.7 305.8C1634.77 305.133 1634.83 304.467 1634.9 303.8C1634.77 303.867 1634.6 303.933 1634.4 304C1634.2 304.067 1634.03 304.133 1633.9 304.2C1633.23 304.4 1632.53 304.333 1631.8 304C1631.13 303.667 1630.73 303.133 1630.6 302.4C1630.4 301.067 1630.03 299.367 1629.5 297.3C1629.03 295.233 1628.63 293.567 1628.3 292.3C1628.17 291.633 1628.27 291 1628.6 290.4C1628.93 289.733 1629.43 289.333 1630.1 289.2C1630.83 289 1631.5 289.1 1632.1 289.5C1632.77 289.833 1633.2 290.367 1633.4 291.1C1633.67 291.967 1633.97 293.067 1634.3 294.4C1634.7 295.667 1635.03 296.933 1635.3 298.2C1635.37 297 1635.4 295.833 1635.4 294.7C1635.4 293.5 1635.4 292.4 1635.4 291.4C1635.4 289.8 1635.13 288.7 1634.6 288.1C1634.07 287.433 1632.93 287.1 1631.2 287.1H1620.4C1616.13 287.1 1613.13 286.333 1611.4 284.8C1609.67 283.2 1608.8 280.467 1608.8 276.6V245.5C1608.8 241.367 1609.7 238.433 1611.5 236.7C1613.3 234.967 1616.4 234.1 1620.8 234.1H1642.3C1643.63 234.1 1644.67 234.567 1645.4 235.5C1646.13 236.367 1646.5 237.367 1646.5 238.5C1646.5 239.633 1646.13 240.667 1645.4 241.6C1644.67 242.467 1643.63 242.9 1642.3 242.9H1633.5V248.8H1639C1640.33 248.8 1641.37 249.233 1642.1 250.1C1642.9 250.9 1643.3 251.9 1643.3 253.1C1643.3 254.3 1642.9 255.333 1642.1 256.2C1641.37 257.067 1640.33 257.5 1639 257.5H1633.5V263.3H1639C1640.33 263.3 1641.37 263.733 1642.1 264.6C1642.9 265.4 1643.3 266.4 1643.3 267.6C1643.3 268.8 1642.9 269.833 1642.1 270.7C1641.37 271.567 1640.33 272 1639 272H1633.5V278.6H1634.4C1638.2 278.6 1640.97 279.433 1642.7 281.1C1644.43 282.7 1645.23 285.433 1645.1 289.3C1645.03 292.767 1644.87 296.467 1644.6 300.4C1644.4 304.267 1644.07 307.7 1643.6 310.7C1646.33 304.967 1648.1 298.8 1648.9 292.2C1649.77 285.533 1650.2 278.033 1650.2 269.7V261.8C1650.2 257.133 1651.2 253.8 1653.2 251.8C1655.2 249.8 1658.73 248.8 1663.8 248.8H1682.4C1686 248.8 1688.77 249.133 1690.7 249.8C1692.7 250.4 1694.07 251.567 1694.8 253.3C1695.6 254.967 1696 257.367 1696 260.5C1696 263.633 1695.6 266.067 1694.8 267.8C1694.07 269.467 1692.7 270.633 1690.7 271.3C1688.77 271.9 1686 272.2 1682.4 272.2H1659.9C1659.9 275.067 1659.8 277.967 1659.6 280.9C1660.67 279.7 1662.1 278.867 1663.9 278.4C1665.7 277.867 1667.93 277.6 1670.6 277.6H1683.6C1688.6 277.6 1692.13 278.5 1694.2 280.3C1696.27 282.1 1697.3 285.5 1697.3 290.5V313.3C1697.3 316.767 1696.6 319.267 1695.2 320.8C1693.87 322.333 1691.73 323.1 1688.8 323.1C1687.73 323.1 1686.8 322.8 1686 322.2C1685.2 321.667 1684.7 320.867 1684.5 319.8C1683.9 320.733 1682.97 321.2 1681.7 321.2C1680.83 321.2 1680.07 320.9 1679.4 320.3C1678.73 319.767 1678.4 318.967 1678.4 317.9V301.7H1675V317.9C1675 318.967 1674.67 319.767 1674 320.3C1673.4 320.9 1672.63 321.2 1671.7 321.2C1670.83 321.2 1670.07 320.9 1669.4 320.3C1668.73 319.767 1668.4 318.967 1668.4 317.9V301.7H1664.9V319.8C1664.9 321.067 1664.5 322.033 1663.7 322.7C1662.97 323.367 1662.07 323.7 1661 323.7ZM1651.7 243.1C1650.3 243.1 1649.2 242.667 1648.4 241.8C1647.6 240.933 1647.2 239.867 1647.2 238.6C1647.2 237.333 1647.6 236.267 1648.4 235.4C1649.2 234.533 1650.3 234.1 1651.7 234.1H1695.2C1696.6 234.1 1697.7 234.533 1698.5 235.4C1699.3 236.267 1699.7 237.333 1699.7 238.6C1699.7 239.867 1699.3 240.933 1698.5 241.8C1697.7 242.667 1696.6 243.1 1695.2 243.1H1651.7ZM1659.9 263.6H1682.1C1683.77 263.6 1684.83 263.4 1685.3 263C1685.83 262.6 1686.1 261.733 1686.1 260.4C1686.1 259.067 1685.83 258.233 1685.3 257.9C1684.83 257.5 1683.77 257.3 1682.1 257.3H1665.1C1663.03 257.3 1661.63 257.633 1660.9 258.3C1660.23 258.9 1659.9 260.2 1659.9 262.2V263.6ZM1608.1 311.1C1607.17 311.167 1606.33 310.867 1605.6 310.2C1604.93 309.533 1604.63 308.733 1604.7 307.8C1604.7 306.8 1604.7 305.5 1604.7 303.9C1604.7 302.233 1604.7 300.6 1604.7 299C1604.7 297.4 1604.67 296.1 1604.6 295.1C1604.53 294.167 1604.8 293.4 1605.4 292.8C1606.07 292.133 1606.83 291.733 1607.7 291.6C1608.7 291.467 1609.53 291.733 1610.2 292.4C1610.93 293 1611.33 293.767 1611.4 294.7C1611.47 295.633 1611.5 296.933 1611.5 298.6C1611.57 300.267 1611.6 301.933 1611.6 303.6C1611.67 305.2 1611.7 306.533 1611.7 307.6C1611.77 308.6 1611.47 309.433 1610.8 310.1C1610.13 310.7 1609.23 311.033 1608.1 311.1ZM1617.8 308.6C1616.87 308.733 1616.03 308.567 1615.3 308.1C1614.63 307.567 1614.27 306.867 1614.2 306C1614.2 305.067 1614.1 303.9 1613.9 302.5C1613.77 301.033 1613.63 299.6 1613.5 298.2C1613.37 296.8 1613.23 295.667 1613.1 294.8C1613.03 294 1613.23 293.267 1613.7 292.6C1614.23 291.933 1614.9 291.567 1615.7 291.5C1616.5 291.367 1617.23 291.567 1617.9 292.1C1618.57 292.567 1618.97 293.2 1619.1 294C1619.23 294.867 1619.37 296 1619.5 297.4C1619.7 298.8 1619.87 300.2 1620 301.6C1620.2 303 1620.33 304.133 1620.4 305C1620.47 305.867 1620.27 306.667 1619.8 307.4C1619.33 308.067 1618.67 308.467 1617.8 308.6ZM1626 306.6C1625.27 306.8 1624.57 306.7 1623.9 306.3C1623.23 305.9 1622.83 305.267 1622.7 304.4C1622.57 303 1622.3 301.233 1621.9 299.1C1621.57 296.9 1621.27 295.167 1621 293.9C1620.87 292.967 1621 292.2 1621.4 291.6C1621.87 290.933 1622.47 290.567 1623.2 290.5C1625 290.167 1626.1 290.933 1626.5 292.8C1626.7 293.667 1626.93 294.767 1627.2 296.1C1627.47 297.367 1627.7 298.633 1627.9 299.9C1628.17 301.167 1628.33 302.233 1628.4 303.1C1628.53 303.9 1628.37 304.667 1627.9 305.4C1627.5 306.067 1626.87 306.467 1626 306.6ZM1685 316.1C1685.53 315.3 1686.23 314.8 1687.1 314.6C1687.83 314.4 1688.3 314.167 1688.5 313.9C1688.77 313.633 1688.9 313.067 1688.9 312.2V301.7H1685V316.1ZM1623.1 278.6H1624.5V272H1618.1V274.5C1618.1 276.167 1618.4 277.267 1619 277.8C1619.67 278.333 1621.03 278.6 1623.1 278.6ZM1618.1 263.3H1624.5V257.5H1618.1V263.3ZM1618.1 248.8H1624.5V242.9H1623C1621.13 242.9 1619.83 243.233 1619.1 243.9C1618.43 244.5 1618.1 245.667 1618.1 247.4V248.8ZM1685 293.5H1688.9V290.7C1688.9 288.767 1688.67 287.5 1688.2 286.9C1687.8 286.3 1686.73 285.967 1685 285.9V293.5ZM1675 293.5H1678.4V285.8H1675V293.5ZM1664.9 293.5H1668.4V285.9C1666.93 285.967 1665.97 286.333 1665.5 287C1665.1 287.6 1664.9 288.833 1664.9 290.7V293.5Z" fill="#FFD900"/>
<path d="M323.67 211.5C325.594 208.167 330.406 208.167 332.33 211.5L401.612 331.5C403.537 334.833 401.131 339 397.282 339H258.718C254.869 339 252.463 334.833 254.388 331.5L323.67 211.5Z" fill="#FFD900"/>
<path d="M322.67 236.5C324.594 233.167 329.406 233.167 331.33 236.5L378.962 319C380.886 322.333 378.48 326.5 374.631 326.5H279.369C275.52 326.5 273.114 322.333 275.038 319L322.67 236.5Z" fill="white"/>
<path d="M328.7 296.9C325.833 296.9 324.3 294.933 324.1 291L322.8 252.9C322.667 248.9 324.6 246.9 328.6 246.9C332.733 246.9 334.7 248.9 334.5 252.9L333.2 291C333.067 294.933 331.567 296.9 328.7 296.9ZM328.6 318.4C326.533 318.4 324.767 317.667 323.3 316.2C321.833 314.733 321.1 312.967 321.1 310.9C321.1 308.767 321.833 306.967 323.3 305.5C324.767 304.033 326.533 303.3 328.6 303.3C330.733 303.3 332.533 304.033 334 305.5C335.533 306.967 336.3 308.767 336.3 310.9C336.3 312.967 335.533 314.733 334 316.2C332.533 317.667 330.733 318.4 328.6 318.4Z" fill="black"/>
<path d="M808.816 177.936C807.92 177.936 807.184 177.712 806.608 177.264C806.032 176.816 805.696 176.176 805.6 175.344C805.536 174.576 805.744 173.888 806.224 173.28C806.704 172.672 807.392 172.32 808.288 172.224C809.184 172.128 809.744 171.952 809.968 171.696C810.192 171.44 810.304 170.912 810.304 170.112V162.384C809.696 162.608 809.136 162.816 808.624 163.008C808.112 163.2 807.664 163.376 807.28 163.536C806.512 163.792 805.776 163.776 805.072 163.488C804.368 163.168 803.888 162.576 803.632 161.712C803.408 160.912 803.44 160.176 803.728 159.504C804.048 158.832 804.608 158.384 805.408 158.16C806.08 157.968 806.832 157.744 807.664 157.488C808.528 157.232 809.408 156.944 810.304 156.624V148.032H806.56C805.76 148.032 805.12 147.776 804.64 147.264C804.16 146.72 803.92 146.096 803.92 145.392C803.92 144.656 804.16 144.048 804.64 143.568C805.12 143.056 805.76 142.8 806.56 142.8H810.304V136.128C810.304 135.328 810.56 134.688 811.072 134.208C811.616 133.728 812.24 133.488 812.944 133.488C813.68 133.488 814.304 133.728 814.816 134.208C815.328 134.688 815.584 135.328 815.584 136.128V142.8H818.176C818.976 142.8 819.6 143.056 820.048 143.568C820.528 144.048 820.768 144.656 820.768 145.392C820.768 146.096 820.528 146.72 820.048 147.264C819.6 147.776 818.976 148.032 818.176 148.032H815.584V154.8C816 154.64 816.384 154.512 816.736 154.416C817.088 154.288 817.408 154.16 817.696 154.032C818.432 153.744 819.104 153.744 819.712 154.032C820.352 154.288 820.784 154.736 821.008 155.376C821.584 156.912 821.088 158.032 819.52 158.736C819.04 158.928 818.464 159.168 817.792 159.456C817.12 159.712 816.384 160 815.584 160.32V171.36C815.584 173.6 815.056 175.248 814 176.304C812.944 177.392 811.216 177.936 808.816 177.936ZM833.584 177.024C830.864 177.024 828.736 176.768 827.2 176.256C825.664 175.744 824.592 174.848 823.984 173.568C823.376 172.256 823.072 170.432 823.072 168.096C823.072 165.76 823.376 163.952 823.984 162.672C824.592 161.392 825.664 160.496 827.2 159.984C828.736 159.472 830.864 159.216 833.584 159.216C836.336 159.216 838.464 159.472 839.968 159.984C841.504 160.496 842.576 161.392 843.184 162.672C843.792 163.952 844.096 165.76 844.096 168.096C844.096 170.432 843.792 172.256 843.184 173.568C842.576 174.848 841.504 175.744 839.968 176.256C838.464 176.768 836.336 177.024 833.584 177.024ZM818.848 152.688C818.368 152.24 818.128 151.648 818.128 150.912C818.16 150.176 818.416 149.552 818.896 149.04C820.016 147.92 821.184 146.656 822.4 145.248C823.648 143.808 824.832 142.368 825.952 140.928C827.104 139.488 828.08 138.192 828.88 137.04C830.096 135.248 831.52 134.336 833.152 134.304C834.816 134.272 836.336 135.104 837.712 136.8C838.576 137.888 839.616 139.136 840.832 140.544C842.08 141.92 843.344 143.296 844.624 144.672C845.936 146.048 847.12 147.232 848.176 148.224C848.752 148.736 849.088 149.36 849.184 150.096C849.28 150.832 849.072 151.488 848.56 152.064C848.048 152.704 847.392 153.072 846.592 153.168C845.792 153.264 845.072 153.024 844.432 152.448C843.44 151.456 842.32 150.272 841.072 148.896C839.824 147.52 838.608 146.128 837.424 144.72C836.24 143.312 835.248 142.064 834.448 140.976C833.712 139.952 832.976 139.968 832.24 141.024C831.504 142.112 830.608 143.376 829.552 144.816C828.496 146.256 827.376 147.68 826.192 149.088C825.008 150.464 823.872 151.664 822.784 152.688C822.208 153.2 821.552 153.472 820.816 153.504C820.112 153.504 819.456 153.232 818.848 152.688ZM827.44 155.424C826.64 155.424 826 155.168 825.52 154.656C825.072 154.144 824.848 153.536 824.848 152.832C824.848 152.128 825.072 151.536 825.52 151.056C826 150.544 826.64 150.288 827.44 150.288H839.584C840.384 150.288 841.008 150.544 841.456 151.056C841.936 151.536 842.176 152.128 842.176 152.832C842.176 153.536 841.936 154.144 841.456 154.656C841.008 155.168 840.384 155.424 839.584 155.424H827.44ZM833.584 171.984C834.96 171.984 835.984 171.904 836.656 171.744C837.36 171.552 837.824 171.184 838.048 170.64C838.304 170.064 838.432 169.216 838.432 168.096C838.432 166.976 838.304 166.144 838.048 165.6C837.824 165.056 837.36 164.704 836.656 164.544C835.984 164.352 834.96 164.256 833.584 164.256C832.208 164.256 831.168 164.336 830.464 164.496C829.792 164.656 829.328 165.008 829.072 165.552C828.848 166.096 828.736 166.928 828.736 168.048C828.736 169.168 828.848 170.016 829.072 170.592C829.328 171.136 829.792 171.504 830.464 171.696C831.168 171.888 832.208 171.984 833.584 171.984ZM857.776 177.888C856.944 178.112 856.208 178.112 855.568 177.888C854.96 177.664 854.528 177.184 854.272 176.448C854.048 175.808 854.08 175.152 854.368 174.48C854.656 173.84 855.152 173.456 855.856 173.328C857.072 173.04 858.528 172.592 860.224 171.984C861.92 171.376 863.456 170.752 864.832 170.112C862.976 169.824 861.664 169.168 860.896 168.144C860.128 167.12 859.744 165.568 859.744 163.488V157.344C859.744 155.552 860.016 154.16 860.56 153.168C861.136 152.176 862.064 151.488 863.344 151.104C864.656 150.688 866.4 150.48 868.576 150.48H879.568C881.776 150.48 883.52 150.688 884.8 151.104C886.08 151.488 886.992 152.176 887.536 153.168C888.112 154.16 888.4 155.552 888.4 157.344V163.488C888.4 165.568 888.016 167.12 887.248 168.144C886.48 169.168 885.168 169.824 883.312 170.112C884.656 170.72 886.16 171.328 887.824 171.936C889.488 172.544 890.912 172.992 892.096 173.28C892.864 173.472 893.408 173.872 893.728 174.48C894.048 175.12 894.096 175.776 893.872 176.448C893.648 177.152 893.216 177.616 892.576 177.84C891.936 178.096 891.2 178.112 890.368 177.888C889.344 177.6 888.16 177.2 886.816 176.688C885.504 176.208 884.208 175.68 882.928 175.104C881.648 174.56 880.56 174.048 879.664 173.568C879.056 173.248 878.672 172.784 878.512 172.176C878.384 171.568 878.48 170.992 878.8 170.448L878.848 170.4H869.296L869.344 170.448C869.696 170.992 869.792 171.568 869.632 172.176C869.504 172.784 869.12 173.248 868.48 173.568C867.584 174.048 866.496 174.56 865.216 175.104C863.936 175.68 862.64 176.208 861.328 176.688C860.016 177.2 858.832 177.6 857.776 177.888ZM880.624 149.04C878.288 149.04 876.464 148.864 875.152 148.512C873.84 148.128 872.912 147.488 872.368 146.592C871.856 145.664 871.6 144.416 871.6 142.848V136.032C871.6 135.232 871.84 134.608 872.32 134.16C872.832 133.68 873.44 133.44 874.144 133.44C874.88 133.44 875.488 133.68 875.968 134.16C876.448 134.608 876.688 135.232 876.688 136.032V137.808C877.936 137.584 879.312 137.312 880.816 136.992C882.32 136.672 883.776 136.336 885.184 135.984C886.592 135.6 887.76 135.264 888.688 134.976C889.424 134.72 890.096 134.72 890.704 134.976C891.344 135.2 891.744 135.616 891.904 136.224C892.096 136.896 892.08 137.504 891.856 138.048C891.632 138.592 891.104 138.976 890.272 139.2C889.088 139.52 887.68 139.872 886.048 140.256C884.416 140.608 882.768 140.944 881.104 141.264C879.472 141.552 878 141.776 876.688 141.936C876.72 142.96 876.96 143.632 877.408 143.952C877.888 144.272 878.96 144.432 880.624 144.432H886.24C887.648 144.432 888.704 144.256 889.408 143.904C890.112 143.552 890.624 142.928 890.944 142.032C891.2 141.392 891.632 140.944 892.24 140.688C892.848 140.4 893.456 140.336 894.064 140.496C894.8 140.72 895.328 141.12 895.648 141.696C895.968 142.24 896.048 142.88 895.888 143.616C895.408 145.664 894.416 147.088 892.912 147.888C891.408 148.656 889.184 149.04 886.24 149.04H880.624ZM862.96 150.096C862.224 150.096 861.584 149.856 861.04 149.376C860.528 148.864 860.272 148.208 860.272 147.408V143.856C859.536 144.304 858.784 144.736 858.016 145.152C857.28 145.536 856.592 145.888 855.952 146.208C855.152 146.592 854.368 146.704 853.6 146.544C852.864 146.352 852.32 145.904 851.968 145.2C851.648 144.56 851.6 143.92 851.824 143.28C852.048 142.608 852.496 142.112 853.168 141.792C854.48 141.216 855.872 140.512 857.344 139.68C858.816 138.816 860.224 137.904 861.568 136.944C862.944 135.984 864.096 135.088 865.024 134.256C865.568 133.776 866.192 133.552 866.896 133.584C867.632 133.616 868.24 133.904 868.72 134.448C869.2 134.96 869.424 135.552 869.392 136.224C869.36 136.864 869.072 137.44 868.528 137.952C868.112 138.304 867.648 138.672 867.136 139.056C866.656 139.44 866.144 139.84 865.6 140.256V147.408C865.6 148.208 865.344 148.864 864.832 149.376C864.32 149.856 863.696 150.096 862.96 150.096ZM865.36 161.28H882.736V159.408H865.36V161.28ZM868.672 166.464H879.472C880.688 166.464 881.52 166.352 881.968 166.128C882.416 165.904 882.672 165.376 882.736 164.544H865.408C865.472 165.376 865.728 165.904 866.176 166.128C866.656 166.352 867.488 166.464 868.672 166.464ZM865.408 156.144H882.736C882.64 155.376 882.368 154.896 881.92 154.704C881.472 154.512 880.656 154.416 879.472 154.416H868.672C867.488 154.416 866.672 154.512 866.224 154.704C865.776 154.896 865.504 155.376 865.408 156.144ZM904.048 155.952C903.44 155.984 902.944 155.84 902.56 155.52C902.208 155.2 902 154.784 901.936 154.272C901.904 153.792 902.032 153.36 902.32 152.976C902.64 152.592 903.072 152.384 903.616 152.352C904.416 152.288 905.296 152.224 906.256 152.16C907.248 152.096 908.288 152.032 909.376 151.968V149.904H905.44C904.96 149.904 904.592 149.76 904.336 149.472C904.112 149.184 904 148.848 904 148.464C904 148.048 904.112 147.696 904.336 147.408C904.592 147.12 904.96 146.976 905.44 146.976H909.376V145.152H905.008C904.624 145.152 904.288 145.04 904 144.816C903.872 144.848 903.744 144.88 903.616 144.912C903.52 144.912 903.408 144.912 903.28 144.912C902.576 144.912 901.968 144.688 901.456 144.24C900.976 143.792 900.736 143.2 900.736 142.464V141.072C900.736 139.376 901.168 138.208 902.032 137.568C902.928 136.896 904.416 136.56 906.496 136.56H919.168V135.312C919.168 134.544 919.424 133.904 919.936 133.392C920.48 132.88 921.184 132.624 922.048 132.624C922.944 132.624 923.648 132.88 924.16 133.392C924.704 133.904 924.976 134.544 924.976 135.312V136.56H937.504C939.584 136.56 941.056 136.896 941.92 137.568C942.816 138.208 943.264 139.376 943.264 141.072V142.464C943.264 143.2 943.008 143.792 942.496 144.24C942.016 144.688 941.424 144.912 940.72 144.912C940.624 144.912 940.528 144.912 940.432 144.912C940.336 144.912 940.224 144.896 940.096 144.864C939.872 145.088 939.552 145.2 939.136 145.2H933.616V146.832H941.632C942.08 146.832 942.416 146.976 942.64 147.264C942.896 147.552 943.024 147.904 943.024 148.32C943.024 148.704 942.896 149.04 942.64 149.328C942.416 149.616 942.08 149.76 941.632 149.76H940.096C940.48 150.144 940.672 150.592 940.672 151.104C940.672 152.544 940.384 153.568 939.808 154.176C939.232 154.784 938.064 155.088 936.304 155.088H926.992C925.232 155.088 924.048 154.8 923.44 154.224C922.864 153.616 922.576 152.592 922.576 151.152C922.576 150.576 922.784 150.112 923.2 149.76H921.904C921.424 149.76 921.056 149.616 920.8 149.328C920.576 149.04 920.464 148.704 920.464 148.32C920.464 147.904 920.576 147.552 920.8 147.264C921.056 146.976 921.424 146.832 921.904 146.832H922.096C921.84 146.576 921.68 146.256 921.616 145.872C921.584 145.488 921.696 145.136 921.952 144.816C922.4 144.272 922.944 143.568 923.584 142.704C924.224 141.84 924.704 141.104 925.024 140.496C925.088 140.4 925.216 140.256 925.408 140.064H908.032C907.072 140.064 906.448 140.176 906.16 140.4C905.904 140.592 905.776 141.008 905.776 141.648V141.888H918.592C919.136 141.888 919.536 142.048 919.792 142.368C920.048 142.688 920.176 143.072 920.176 143.52C920.176 143.936 920.048 144.32 919.792 144.672C919.536 144.992 919.136 145.152 918.592 145.152H914.08V146.976H918.064C918.544 146.976 918.896 147.12 919.12 147.408C919.376 147.696 919.504 148.048 919.504 148.464C919.504 148.848 919.376 149.184 919.12 149.472C918.896 149.76 918.544 149.904 918.064 149.904H914.08V151.632C915.008 151.568 915.888 151.504 916.72 151.44C917.584 151.344 918.336 151.28 918.976 151.248C919.424 151.184 919.792 151.296 920.08 151.584C920.4 151.872 920.576 152.24 920.608 152.688C920.672 153.104 920.576 153.504 920.32 153.888C920.096 154.24 919.76 154.448 919.312 154.512C918.032 154.64 916.464 154.8 914.608 154.992C912.752 155.184 910.88 155.36 908.992 155.52C907.136 155.68 905.488 155.824 904.048 155.952ZM905.872 178.704C905.072 178.832 904.416 178.736 903.904 178.416C903.392 178.128 903.056 177.664 902.896 177.024C902.768 176.416 902.848 175.856 903.136 175.344C903.456 174.864 903.984 174.56 904.72 174.432C906.128 174.208 907.744 173.888 909.568 173.472C911.392 173.056 913.04 172.608 914.512 172.128H914.272C912.448 172.128 911.008 171.952 909.952 171.6C908.896 171.216 908.144 170.576 907.696 169.68C907.28 168.752 907.072 167.456 907.072 165.792V162.576C907.072 160.912 907.28 159.632 907.696 158.736C908.144 157.808 908.896 157.168 909.952 156.816C911.008 156.432 912.448 156.24 914.272 156.24H930.016C931.84 156.24 933.28 156.432 934.336 156.816C935.392 157.168 936.128 157.808 936.544 158.736C936.992 159.632 937.216 160.912 937.216 162.576V165.792C937.216 167.456 936.992 168.752 936.544 169.68C936.128 170.576 935.392 171.216 934.336 171.6C933.28 171.952 931.84 172.128 930.016 172.128H929.728C931.2 172.608 932.848 173.056 934.672 173.472C936.496 173.888 938.112 174.208 939.52 174.432C940.256 174.56 940.768 174.864 941.056 175.344C941.344 175.856 941.424 176.416 941.296 177.024C941.168 177.664 940.848 178.128 940.336 178.416C939.824 178.736 939.152 178.832 938.32 178.704C937.168 178.48 935.872 178.176 934.432 177.792C933.024 177.44 931.632 177.04 930.256 176.592C928.88 176.176 927.664 175.744 926.608 175.296C926.096 175.072 925.744 174.704 925.552 174.192C925.36 173.68 925.36 173.184 925.552 172.704C925.648 172.48 925.776 172.288 925.936 172.128H918.256C918.416 172.224 918.544 172.416 918.64 172.704C918.832 173.184 918.832 173.68 918.64 174.192C918.448 174.704 918.096 175.072 917.584 175.296C916.56 175.744 915.344 176.192 913.936 176.64C912.56 177.088 911.152 177.488 909.712 177.84C908.304 178.192 907.024 178.48 905.872 178.704ZM915.184 169.056H929.104C930.16 169.056 930.896 168.976 931.312 168.816C931.728 168.624 931.984 168.176 932.08 167.472H912.208C912.272 168.176 912.512 168.624 912.928 168.816C913.376 168.976 914.128 169.056 915.184 169.056ZM912.16 164.88H932.128V163.392H912.16V164.88ZM912.208 160.8H932.08C931.984 160.128 931.712 159.712 931.264 159.552C930.848 159.36 930.128 159.264 929.104 159.264H915.184C914.16 159.264 913.424 159.36 912.976 159.552C912.56 159.712 912.304 160.128 912.208 160.8ZM927.952 142.272H938.224V141.648C938.224 141.008 938.08 140.592 937.792 140.4C937.536 140.176 936.928 140.064 935.968 140.064H927.712C928 140.32 928.176 140.656 928.24 141.072C928.304 141.456 928.224 141.824 928 142.176L927.952 142.272ZM927.952 152.208H929.68V149.76H925.888C926.272 150.144 926.464 150.592 926.464 151.104C926.464 151.488 926.56 151.776 926.752 151.968C926.944 152.128 927.344 152.208 927.952 152.208ZM933.616 152.208H935.296C935.872 152.208 936.256 152.128 936.448 151.968C936.672 151.776 936.784 151.472 936.784 151.056C936.784 150.544 936.96 150.112 937.312 149.76H933.616V152.208ZM924.688 146.832H929.68V145.2H925.984C925.792 145.456 925.6 145.712 925.408 145.968C925.248 146.192 925.088 146.4 924.928 146.592C924.864 146.688 924.784 146.768 924.688 146.832ZM973.504 178.608C972.768 178.608 972.128 178.352 971.584 177.84C971.072 177.36 970.816 176.72 970.816 175.92V173.136H958.336C957.632 173.136 957.072 172.912 956.656 172.464C956.272 172.016 956.08 171.488 956.08 170.88C956.08 170.24 956.272 169.712 956.656 169.296C957.072 168.848 957.632 168.624 958.336 168.624H970.816V166.848H969.184C966.688 166.848 964.752 166.624 963.376 166.176C962.032 165.696 961.104 164.896 960.592 163.776C960.08 162.624 959.824 161.024 959.824 158.976C959.824 156.928 960.08 155.344 960.592 154.224C961.104 153.072 962.032 152.272 963.376 151.824C964.752 151.344 966.688 151.104 969.184 151.104H970.816V149.472H959.824C959.152 149.472 958.624 149.264 958.24 148.848C957.856 148.432 957.664 147.92 957.664 147.312C957.664 146.704 957.856 146.192 958.24 145.776C958.624 145.328 959.152 145.104 959.824 145.104H970.816V142.656H961.6C959.68 142.656 958.336 142.992 957.568 143.664C956.832 144.336 956.464 145.584 956.464 147.408V150.816C956.464 154.656 956.336 158.048 956.08 160.992C955.856 163.904 955.456 166.56 954.88 168.96C954.336 171.328 953.584 173.632 952.624 175.872C952.304 176.576 951.776 177.056 951.04 177.312C950.336 177.568 949.616 177.552 948.88 177.264C948.176 176.976 947.712 176.496 947.488 175.824C947.264 175.184 947.296 174.528 947.584 173.856C948.48 171.808 949.184 169.696 949.696 167.52C950.24 165.344 950.624 162.912 950.848 160.224C951.104 157.504 951.232 154.336 951.232 150.72V147.36C951.232 145.024 951.568 143.184 952.24 141.84C952.912 140.464 953.984 139.488 955.456 138.912C956.96 138.304 958.944 138 961.408 138H968.08V135.648C968.08 134.784 968.368 134.112 968.944 133.632C969.552 133.12 970.256 132.864 971.056 132.864C971.856 132.864 972.544 133.12 973.12 133.632C973.728 134.112 974.032 134.784 974.032 135.648V138H989.584C990.288 138 990.848 138.224 991.264 138.672C991.68 139.12 991.888 139.664 991.888 140.304C991.888 140.944 991.68 141.504 991.264 141.984C990.848 142.432 990.288 142.656 989.584 142.656H976.192V145.104H988.576C989.28 145.104 989.824 145.328 990.208 145.776C990.592 146.192 990.784 146.704 990.784 147.312C990.784 147.92 990.592 148.432 990.208 148.848C989.824 149.264 989.28 149.472 988.576 149.472H976.192V151.104H977.968C980.496 151.104 982.416 151.344 983.728 151.824C985.072 152.272 986 153.072 986.512 154.224C987.024 155.344 987.28 156.928 987.28 158.976C987.28 161.024 987.024 162.624 986.512 163.776C986 164.896 985.072 165.696 983.728 166.176C982.416 166.624 980.496 166.848 977.968 166.848H976.192V168.624H989.488C990.192 168.624 990.736 168.848 991.12 169.296C991.536 169.712 991.744 170.24 991.744 170.88C991.744 171.488 991.536 172.016 991.12 172.464C990.736 172.912 990.192 173.136 989.488 173.136H976.192V175.92C976.192 176.72 975.92 177.36 975.376 177.84C974.864 178.352 974.24 178.608 973.504 178.608ZM976.192 162.912H977.872C979.216 162.912 980.16 162.8 980.704 162.576C981.28 162.32 981.632 161.744 981.76 160.848H976.192V162.912ZM976.192 157.104H981.76C981.632 156.208 981.28 155.648 980.704 155.424C980.128 155.2 979.184 155.088 977.872 155.088H976.192V157.104ZM969.232 162.912H970.816V160.848H965.392C965.552 161.744 965.904 162.32 966.448 162.576C966.992 162.8 967.92 162.912 969.232 162.912ZM965.392 157.104H970.816V155.088H969.232C967.92 155.088 966.992 155.2 966.448 155.424C965.904 155.648 965.552 156.208 965.392 157.104ZM999.952 178.416C999.216 178.416 998.592 178.176 998.08 177.696C997.568 177.248 997.312 176.624 997.312 175.824V141.168C997.312 139.312 997.552 137.872 998.032 136.848C998.512 135.824 999.312 135.104 1000.43 134.688C1001.55 134.272 1003.04 134.064 1004.9 134.064H1008.69C1010.58 134.064 1012.06 134.256 1013.15 134.64C1014.24 135.024 1015.02 135.744 1015.5 136.8C1015.98 137.856 1016.22 139.376 1016.22 141.36C1016.22 143.792 1015.87 145.488 1015.17 146.448C1014.46 147.376 1013.23 147.936 1011.47 148.128C1011.76 148.416 1011.92 148.768 1011.95 149.184C1012.02 149.6 1011.92 149.984 1011.66 150.336C1011.41 150.656 1011.06 151.088 1010.61 151.632C1010.19 152.176 1009.81 152.672 1009.46 153.12L1010.46 153.792C1011.01 153.152 1011.52 152.544 1012 151.968C1012.51 151.392 1012.93 150.912 1013.25 150.528C1013.6 150.08 1014.03 149.856 1014.54 149.856C1015.09 149.824 1015.55 149.968 1015.94 150.288C1016.35 150.608 1016.58 151.04 1016.61 151.584C1016.67 152.096 1016.53 152.544 1016.18 152.928C1015.79 153.344 1015.28 153.888 1014.64 154.56C1014 155.2 1013.33 155.888 1012.62 156.624C1011.92 157.36 1011.25 158.048 1010.61 158.688C1011.12 158.656 1011.6 158.624 1012.05 158.592C1012.53 158.528 1012.98 158.48 1013.39 158.448L1013.3 158.256C1013.04 157.744 1013.01 157.28 1013.2 156.864C1013.42 156.416 1013.74 156.096 1014.16 155.904C1014.67 155.648 1015.15 155.6 1015.6 155.76C1016.08 155.888 1016.45 156.224 1016.7 156.768C1016.96 157.216 1017.28 157.856 1017.66 158.688C1018.05 159.52 1018.34 160.16 1018.53 160.608C1018.69 159.68 1019.28 159.184 1020.3 159.12L1020.35 159.072C1020.61 158.784 1020.9 158.464 1021.22 158.112C1021.54 157.728 1021.87 157.328 1022.22 156.912C1021.87 156.656 1021.42 156.352 1020.88 156C1020.34 155.648 1019.81 155.312 1019.3 154.992C1018.82 154.64 1018.45 154.384 1018.19 154.224C1017.78 153.968 1017.52 153.6 1017.42 153.12C1017.33 152.608 1017.42 152.144 1017.71 151.728C1018 151.28 1018.38 150.992 1018.86 150.864C1019.38 150.736 1019.86 150.816 1020.3 151.104C1020.37 151.136 1020.43 151.168 1020.5 151.2C1020.56 151.232 1020.62 151.28 1020.69 151.344C1021.01 150.928 1021.34 150.464 1021.7 149.952C1022.08 149.44 1022.38 149.024 1022.61 148.704C1022.86 148.352 1023.15 148.112 1023.47 147.984C1022.06 147.728 1021.06 147.12 1020.45 146.16C1019.87 145.2 1019.58 143.6 1019.58 141.36C1019.58 139.376 1019.82 137.856 1020.3 136.8C1020.78 135.744 1021.57 135.024 1022.66 134.64C1023.78 134.256 1025.26 134.064 1027.12 134.064H1031.1C1032.99 134.064 1034.48 134.272 1035.57 134.688C1036.69 135.104 1037.49 135.824 1037.97 136.848C1038.45 137.872 1038.69 139.312 1038.69 141.168V171.6C1038.69 173.968 1038.13 175.648 1037.01 176.64C1035.92 177.664 1034.24 178.176 1031.97 178.176C1031.1 178.176 1030.42 177.92 1029.9 177.408C1029.42 176.896 1029.15 176.288 1029.09 175.584C1029.02 174.912 1029.18 174.288 1029.57 173.712C1029.98 173.104 1030.59 172.752 1031.39 172.656C1032.29 172.56 1032.85 172.384 1033.07 172.128C1033.33 171.84 1033.46 171.296 1033.46 170.496V148.272H1027.12C1026.8 148.272 1026.5 148.272 1026.21 148.272C1025.92 148.24 1025.63 148.224 1025.34 148.224C1025.73 148.48 1025.97 148.832 1026.06 149.28C1026.16 149.728 1026.06 150.144 1025.78 150.528C1025.49 150.944 1025.15 151.408 1024.77 151.92C1024.38 152.4 1024.02 152.848 1023.66 153.264C1023.86 153.392 1024.03 153.52 1024.19 153.648C1024.38 153.744 1024.54 153.84 1024.67 153.936C1025.73 152.624 1026.58 151.552 1027.22 150.72C1027.6 150.24 1028.05 149.984 1028.56 149.952C1029.07 149.92 1029.54 150.064 1029.95 150.384C1030.4 150.704 1030.64 151.136 1030.67 151.68C1030.74 152.192 1030.59 152.64 1030.24 153.024C1029.66 153.664 1028.86 154.544 1027.84 155.664C1026.85 156.752 1025.9 157.792 1025.01 158.784C1025.52 158.72 1026.02 158.672 1026.5 158.64C1026.98 158.608 1027.44 158.576 1027.89 158.544C1027.86 158.48 1027.82 158.416 1027.79 158.352C1027.76 158.256 1027.73 158.192 1027.7 158.16C1027.47 157.712 1027.44 157.264 1027.6 156.816C1027.79 156.336 1028.11 156 1028.56 155.808C1029.04 155.584 1029.52 155.552 1030 155.712C1030.48 155.872 1030.83 156.176 1031.06 156.624C1031.22 156.912 1031.42 157.328 1031.68 157.872C1031.97 158.384 1032.24 158.912 1032.5 159.456C1032.75 160 1032.94 160.416 1033.07 160.704C1033.33 161.28 1033.34 161.792 1033.12 162.24C1032.9 162.656 1032.51 162.96 1031.97 163.152C1031.46 163.376 1030.98 163.408 1030.53 163.248C1030.08 163.056 1029.74 162.688 1029.52 162.144C1029.46 162.016 1029.41 161.904 1029.38 161.808C1028.54 161.936 1027.6 162.08 1026.54 162.24C1025.52 162.368 1024.51 162.496 1023.52 162.624C1022.53 162.72 1021.66 162.816 1020.93 162.912C1019.78 163.072 1019.02 162.72 1018.67 161.856C1018.51 162.464 1018.13 162.896 1017.52 163.152C1017.01 163.344 1016.53 163.36 1016.08 163.2C1015.63 163.04 1015.28 162.672 1015.02 162.096L1014.88 161.712C1014.05 161.84 1013.06 161.984 1011.9 162.144C1010.78 162.304 1009.66 162.464 1008.54 162.624C1007.46 162.784 1006.51 162.912 1005.71 163.008C1005.04 163.072 1004.48 162.944 1004.03 162.624C1003.62 162.304 1003.38 161.84 1003.31 161.232C1003.25 160.688 1003.39 160.224 1003.74 159.84C1004.1 159.424 1004.58 159.2 1005.18 159.168L1005.76 159.12C1006.02 158.8 1006.34 158.432 1006.72 158.016C1007.1 157.6 1007.5 157.168 1007.92 156.72C1007.34 156.304 1006.67 155.84 1005.9 155.328C1005.14 154.784 1004.58 154.4 1004.22 154.176C1003.81 153.888 1003.55 153.504 1003.46 153.024C1003.36 152.512 1003.46 152.048 1003.74 151.632C1004.03 151.216 1004.43 150.944 1004.94 150.816C1005.49 150.688 1005.98 150.768 1006.43 151.056L1006.58 151.152C1006.9 150.704 1007.25 150.208 1007.63 149.664C1008.05 149.12 1008.4 148.672 1008.69 148.32C1008.69 148.288 1008.7 148.272 1008.74 148.272H1002.54V175.824C1002.54 176.624 1002.29 177.248 1001.78 177.696C1001.3 178.176 1000.69 178.416 999.952 178.416ZM1007.68 177.312C1006.98 177.44 1006.34 177.376 1005.76 177.12C1005.22 176.896 1004.86 176.432 1004.7 175.728C1004.58 175.184 1004.66 174.672 1004.94 174.192C1005.23 173.712 1005.73 173.408 1006.43 173.28C1007.9 172.992 1009.07 172.624 1009.94 172.176C1010.8 171.728 1011.44 171.104 1011.86 170.304H1009.89C1008.1 170.304 1006.85 170 1006.14 169.392C1005.47 168.784 1005.14 167.632 1005.14 165.936V165.264C1005.14 164.624 1005.34 164.144 1005.76 163.824C1006.18 163.504 1006.66 163.344 1007.2 163.344C1007.74 163.344 1008.21 163.504 1008.59 163.824C1009.01 164.144 1009.22 164.624 1009.22 165.264V165.6C1009.22 166.048 1009.3 166.352 1009.46 166.512C1009.65 166.672 1010.03 166.752 1010.61 166.752H1012.62V165.072C1012.62 164.4 1012.83 163.888 1013.25 163.536C1013.66 163.184 1014.16 163.008 1014.74 163.008C1015.34 163.008 1015.86 163.184 1016.27 163.536C1016.69 163.888 1016.9 164.4 1016.9 165.072V166.272C1016.9 168.256 1016.62 169.984 1016.08 171.456C1015.54 172.928 1014.59 174.144 1013.25 175.104C1011.94 176.064 1010.08 176.8 1007.68 177.312ZM1021.36 177.744C1020.75 177.744 1020.22 177.536 1019.78 177.12C1019.36 176.736 1019.15 176.192 1019.15 175.488V165.36C1019.15 164.624 1019.36 164.064 1019.78 163.68C1020.22 163.296 1020.75 163.104 1021.36 163.104C1022 163.104 1022.53 163.296 1022.94 163.68C1023.39 164.064 1023.62 164.624 1023.62 165.36V166.752H1025.73C1026.3 166.752 1026.67 166.672 1026.83 166.512C1027.02 166.352 1027.12 166.048 1027.12 165.6V165.264C1027.12 164.624 1027.33 164.144 1027.74 163.824C1028.16 163.504 1028.62 163.344 1029.14 163.344C1029.68 163.344 1030.14 163.504 1030.53 163.824C1030.94 164.144 1031.15 164.624 1031.15 165.264V165.936C1031.15 167.632 1030.82 168.784 1030.14 169.392C1029.47 170 1028.22 170.304 1026.4 170.304H1023.62V175.488C1023.62 176.192 1023.39 176.736 1022.94 177.12C1022.53 177.536 1022 177.744 1021.36 177.744ZM1027.84 144.576H1033.46V142.704H1024.86C1024.99 143.568 1025.26 144.096 1025.68 144.288C1026.1 144.48 1026.82 144.576 1027.84 144.576ZM1002.54 144.576H1007.97C1008.99 144.576 1009.71 144.48 1010.13 144.288C1010.54 144.096 1010.82 143.568 1010.94 142.704H1002.54V144.576ZM1024.91 139.536H1033.36C1033.23 138.768 1032.96 138.288 1032.54 138.096C1032.13 137.872 1031.41 137.76 1030.38 137.76H1027.84C1026.85 137.76 1026.13 137.872 1025.68 138.096C1025.26 138.288 1025.01 138.768 1024.91 139.536ZM1002.64 139.536H1010.9C1010.77 138.768 1010.5 138.288 1010.08 138.096C1009.66 137.872 1008.96 137.76 1007.97 137.76H1005.57C1004.58 137.76 1003.87 137.872 1003.46 138.096C1003.04 138.288 1002.77 138.768 1002.64 139.536ZM1069.55 176.592C1066.74 176.592 1064.53 176.336 1062.93 175.824C1061.33 175.312 1060.19 174.416 1059.52 173.136C1058.85 171.824 1058.51 170 1058.51 167.664V149.328C1058.51 148.4 1058.8 147.68 1059.38 147.168C1059.95 146.656 1060.64 146.4 1061.44 146.4C1062.27 146.4 1062.96 146.656 1063.5 147.168C1064.08 147.68 1064.37 148.4 1064.37 149.328V167.04C1064.37 168.128 1064.51 168.96 1064.8 169.536C1065.12 170.08 1065.68 170.464 1066.48 170.688C1067.28 170.88 1068.42 170.976 1069.89 170.976C1071.26 170.976 1072.32 170.896 1073.06 170.736C1073.79 170.544 1074.35 170.176 1074.74 169.632C1075.15 169.056 1075.52 168.208 1075.84 167.088C1076.1 166.32 1076.58 165.776 1077.28 165.456C1078.02 165.136 1078.8 165.104 1079.63 165.36C1080.46 165.616 1081.04 166.064 1081.36 166.704C1081.71 167.344 1081.78 168.08 1081.55 168.912C1081.1 170.832 1080.43 172.352 1079.54 173.472C1078.64 174.592 1077.39 175.392 1075.79 175.872C1074.22 176.352 1072.14 176.592 1069.55 176.592ZM1044.74 167.28C1044 166.896 1043.55 166.32 1043.39 165.552C1043.23 164.752 1043.36 164.016 1043.78 163.344C1044.48 162.256 1045.17 161.072 1045.84 159.792C1046.54 158.48 1047.2 157.168 1047.81 155.856C1048.42 154.512 1048.91 153.264 1049.3 152.112C1049.58 151.28 1050.11 150.752 1050.88 150.528C1051.68 150.272 1052.45 150.304 1053.18 150.624C1053.98 150.944 1054.51 151.456 1054.77 152.16C1055.02 152.832 1055.01 153.552 1054.72 154.32C1054.27 155.504 1053.74 156.816 1053.14 158.256C1052.53 159.664 1051.87 161.056 1051.17 162.432C1050.46 163.808 1049.74 165.056 1049.01 166.176C1048.53 166.88 1047.87 167.344 1047.04 167.568C1046.24 167.792 1045.47 167.696 1044.74 167.28ZM1087.46 163.872C1086.75 164.416 1085.97 164.624 1085.1 164.496C1084.27 164.336 1083.63 163.904 1083.18 163.2C1082.58 162.208 1081.81 161.12 1080.88 159.936C1079.98 158.752 1079.04 157.6 1078.05 156.48C1077.09 155.36 1076.18 154.384 1075.31 153.552C1074.8 153.04 1074.56 152.416 1074.59 151.68C1074.66 150.912 1074.96 150.272 1075.5 149.76C1076.05 149.248 1076.7 148.992 1077.47 148.992C1078.24 148.96 1078.93 149.216 1079.54 149.76C1080.53 150.688 1081.55 151.744 1082.61 152.928C1083.66 154.08 1084.67 155.248 1085.63 156.432C1086.59 157.584 1087.39 158.64 1088.03 159.6C1088.54 160.336 1088.75 161.104 1088.66 161.904C1088.56 162.672 1088.16 163.328 1087.46 163.872ZM1069.7 145.008C1068.93 144.464 1068.02 143.84 1066.96 143.136C1065.9 142.432 1064.83 141.744 1063.74 141.072C1062.69 140.4 1061.73 139.856 1060.86 139.44C1060.16 139.088 1059.74 138.544 1059.62 137.808C1059.49 137.04 1059.58 136.368 1059.9 135.792C1060.29 135.12 1060.83 134.688 1061.54 134.496C1062.24 134.272 1062.94 134.336 1063.65 134.688C1064.54 135.104 1065.54 135.632 1066.62 136.272C1067.74 136.88 1068.86 137.536 1069.98 138.24C1071.1 138.912 1072.1 139.552 1072.96 140.16C1073.63 140.608 1074.05 141.2 1074.21 141.936C1074.37 142.672 1074.22 143.408 1073.78 144.144C1073.36 144.816 1072.74 145.248 1071.9 145.44C1071.07 145.6 1070.34 145.456 1069.7 145.008ZM1111.7 133.248L1116.98 134.592C1116.11 137.12 1114.96 139.552 1113.52 141.888C1112.08 144.192 1110.56 146.128 1108.96 147.696C1108.67 147.344 1108.26 146.944 1107.71 146.496C1107.2 146.016 1106.67 145.552 1106.13 145.104C1105.62 144.656 1105.15 144.304 1104.74 144.048C1106.27 142.768 1107.65 141.168 1108.86 139.248C1110.08 137.328 1111.02 135.328 1111.7 133.248ZM1111.36 145.584L1116.64 146.928C1115.9 148.816 1114.96 150.672 1113.81 152.496C1112.66 154.32 1111.49 155.84 1110.3 157.056C1109.98 156.768 1109.54 156.448 1108.96 156.096C1108.42 155.712 1107.86 155.344 1107.28 154.992C1106.7 154.608 1106.21 154.304 1105.79 154.08C1106.94 153.024 1108 151.728 1108.96 150.192C1109.95 148.656 1110.75 147.12 1111.36 145.584ZM1112.75 137.328H1131.9V142.176H1110.83L1112.75 137.328ZM1118.27 140.976H1123.74V155.952C1123.74 157.2 1123.6 158.192 1123.31 158.928C1123.06 159.664 1122.5 160.24 1121.63 160.656C1120.8 161.04 1119.82 161.28 1118.7 161.376C1117.62 161.472 1116.34 161.52 1114.86 161.52C1114.77 160.752 1114.54 159.888 1114.19 158.928C1113.84 157.968 1113.47 157.152 1113.09 156.48C1113.98 156.512 1114.86 156.528 1115.73 156.528C1116.59 156.528 1117.17 156.528 1117.46 156.528C1117.78 156.496 1117.98 156.448 1118.08 156.384C1118.21 156.288 1118.27 156.112 1118.27 155.856V140.976ZM1124.85 147.216L1129.55 145.2C1130.29 146.224 1131.01 147.344 1131.71 148.56C1132.42 149.776 1133.06 150.976 1133.63 152.16C1134.21 153.312 1134.67 154.368 1135.02 155.328L1130.03 157.68C1129.74 156.72 1129.31 155.648 1128.74 154.464C1128.19 153.248 1127.58 152 1126.91 150.72C1126.24 149.44 1125.55 148.272 1124.85 147.216ZM1130.42 137.328H1131.23L1132.14 137.184L1136.18 138.048C1135.66 139.648 1135.07 141.296 1134.4 142.992C1133.76 144.688 1133.17 146.112 1132.62 147.264L1127.73 146.256C1128.18 145.232 1128.66 143.936 1129.17 142.368C1129.68 140.8 1130.1 139.344 1130.42 138V137.328ZM1103.82 163.296H1109.54V170.736C1109.54 171.408 1109.68 171.84 1109.97 172.032C1110.29 172.224 1111.01 172.32 1112.13 172.32C1112.38 172.32 1112.8 172.32 1113.38 172.32C1113.95 172.32 1114.58 172.32 1115.25 172.32C1115.95 172.32 1116.61 172.32 1117.22 172.32C1117.86 172.32 1118.34 172.32 1118.66 172.32C1119.3 172.32 1119.76 172.208 1120.05 171.984C1120.37 171.76 1120.61 171.312 1120.77 170.64C1120.93 169.968 1121.04 168.944 1121.1 167.568C1121.46 167.824 1121.94 168.096 1122.54 168.384C1123.15 168.672 1123.78 168.928 1124.42 169.152C1125.09 169.344 1125.68 169.504 1126.19 169.632C1125.97 171.68 1125.62 173.264 1125.14 174.384C1124.66 175.536 1123.94 176.32 1122.98 176.736C1122.05 177.184 1120.78 177.408 1119.18 177.408C1118.9 177.408 1118.5 177.408 1117.98 177.408C1117.47 177.408 1116.9 177.408 1116.26 177.408C1115.62 177.408 1114.98 177.408 1114.34 177.408C1113.7 177.408 1113.12 177.408 1112.61 177.408C1112.1 177.408 1111.71 177.408 1111.46 177.408C1109.41 177.408 1107.82 177.2 1106.7 176.784C1105.62 176.4 1104.86 175.712 1104.45 174.72C1104.03 173.76 1103.82 172.448 1103.82 170.784V163.296ZM1107.86 162L1111.74 158.688C1112.7 159.232 1113.71 159.856 1114.77 160.56C1115.82 161.232 1116.8 161.936 1117.7 162.672C1118.62 163.408 1119.38 164.112 1119.95 164.784L1115.82 168.432C1115.28 167.76 1114.58 167.04 1113.71 166.272C1112.85 165.472 1111.9 164.704 1110.88 163.968C1109.86 163.232 1108.85 162.576 1107.86 162ZM1123.41 165.12L1128.16 162.528C1129.31 163.584 1130.43 164.752 1131.52 166.032C1132.64 167.312 1133.65 168.592 1134.54 169.872C1135.44 171.152 1136.13 172.368 1136.61 173.52L1131.42 176.4C1131.04 175.28 1130.43 174.064 1129.6 172.752C1128.77 171.44 1127.81 170.128 1126.72 168.816C1125.66 167.472 1124.56 166.24 1123.41 165.12ZM1097.87 163.44L1103.06 165.216C1102.38 167.424 1101.52 169.568 1100.46 171.648C1099.44 173.728 1098.02 175.456 1096.19 176.832L1091.44 173.568C1093.04 172.384 1094.37 170.912 1095.42 169.152C1096.51 167.36 1097.33 165.456 1097.87 163.44ZM1102.24 133.2L1107.33 134.976C1106.3 136.96 1105.09 138.944 1103.68 140.928C1102.27 142.912 1100.77 144.768 1099.17 146.496C1097.6 148.192 1096.02 149.68 1094.42 150.96C1094.19 150.576 1093.87 150.096 1093.46 149.52C1093.07 148.912 1092.64 148.32 1092.16 147.744C1091.71 147.168 1091.31 146.688 1090.96 146.304C1093.14 144.736 1095.23 142.8 1097.25 140.496C1099.3 138.16 1100.96 135.728 1102.24 133.2ZM1098.06 143.232L1103.49 137.856L1103.58 137.904V161.424H1098.06V143.232Z" fill="black"/>
</g>
<defs>
<clipPath id="clip0_22_65">
<rect width="1940" height="483" fill="white"/>
</clipPath>
</defs>
</svg>
