<svg width="198" height="142" viewBox="0 0 198 142" fill="none" xmlns="http://www.w3.org/2000/svg">
<path d="M29.3789 20.4391C27.119 10.7196 30.8332 4.10892 41.8085 1C40.5999 12.3668 37.8254 16.6634 29.3789 20.4391Z" fill="#FFD900" stroke="#FFD900"/>
<path d="M30.0116 73.5228C27.7517 63.8033 31.4659 57.1927 42.4412 54.0837C41.2326 65.4506 38.4581 69.7472 30.0116 73.5228Z" fill="#FFD900" stroke="#FFD900"/>
<path d="M86.0309 116.113C76.3568 113.409 72.3007 106.999 74.8281 95.9526C84.2908 102.467 86.7539 106.947 86.0309 116.113Z" fill="#FFD900" stroke="#FFD900"/>
<path d="M67.4844 112.321C59.2388 106.618 57.5249 99.2429 63.5627 89.6297C70.3495 98.8639 71.1961 103.898 67.4844 112.321Z" fill="#FFD900" stroke="#FFD900"/>
<path d="M50.8375 102.419C44.4004 94.7582 44.708 87.1953 53.0875 79.5041C57.1788 90.1884 56.6572 95.2654 50.8375 102.419Z" fill="#FFD900" stroke="#FFD900"/>
<path d="M38.315 90.2661C33.9744 81.2694 36.1471 74.0141 46.1754 68.6051C47.4928 79.96 45.7288 84.7536 38.315 90.2661Z" fill="#FFD900" stroke="#FFD900"/>
<path d="M23.938 54.3656C25.5599 44.5213 31.5223 39.802 42.8657 41.0555C37.4049 51.1188 33.1961 54.0504 23.938 54.3656Z" fill="#FFD900" stroke="#FFD900"/>
<path d="M25.3838 36.1603C28.9846 26.8475 35.7876 23.4271 46.6388 26.9389C39.2343 35.6931 34.5137 37.7162 25.3838 36.1603Z" fill="#FFD900" stroke="#FFD900"/>
<path d="M167.335 21.1868C169.594 11.4672 165.88 4.8566 154.905 1.74768C156.114 13.1145 158.888 17.4111 167.335 21.1868Z" fill="#FFD900" stroke="#FFD900"/>
<path d="M166.702 74.2705C168.962 64.551 165.248 57.9403 154.272 54.8314C155.481 66.1983 158.255 70.4949 166.702 74.2705Z" fill="#FFD900" stroke="#FFD900"/>
<path d="M110.683 116.861C120.357 114.157 124.413 107.747 121.886 96.7003C112.423 103.215 109.96 107.694 110.683 116.861Z" fill="#FFD900" stroke="#FFD900"/>
<path d="M129.229 113.069C137.475 107.366 139.189 99.9906 133.151 90.3774C126.364 99.6116 125.517 104.645 129.229 113.069Z" fill="#FFD900" stroke="#FFD900"/>
<path d="M145.876 103.166C152.313 95.5058 152.006 87.943 143.626 80.2517C139.535 90.9361 140.056 96.013 145.876 103.166Z" fill="#FFD900" stroke="#FFD900"/>
<path d="M158.399 91.0138C162.739 82.017 160.566 74.7617 150.538 69.3527C149.221 80.7077 150.985 85.5013 158.399 91.0138Z" fill="#FFD900" stroke="#FFD900"/>
<path d="M172.776 55.1132C171.154 45.269 165.191 40.5497 153.848 41.8032C159.309 51.8665 163.517 54.7981 172.776 55.1132Z" fill="#FFD900" stroke="#FFD900"/>
<path d="M171.33 36.908C167.729 27.5952 160.926 24.1748 150.075 27.6866C157.479 36.4408 162.2 38.4639 171.33 36.908Z" fill="#FFD900" stroke="#FFD900"/>
<path d="M22.0917 35.5394C11.4865 30.2639 8.30692 21.8757 13.8999 9.49487C23.3442 19.1851 25.1339 24.9666 22.0917 35.5394Z" fill="#FFD900" stroke="#FFD900"/>
<path d="M85.8238 120.922C83.3769 132.443 76.0103 137.626 62.5244 135.402C69.5684 123.874 74.7478 120.688 85.8238 120.922Z" fill="#FFD900" stroke="#FFD900"/>
<path d="M41.8848 122.419C51.5445 129.253 60.5016 128.117 68.9092 117.418C55.8615 113.668 49.8759 114.803 41.8848 122.419Z" fill="#FFD900" stroke="#FFD900"/>
<path d="M49.7956 107.177C40.4044 114.371 31.4103 113.573 22.5992 103.199C35.494 98.9597 41.5187 99.8685 49.7956 107.177Z" fill="#FFD900" stroke="#FFD900"/>
<path d="M35.8444 94.0827C24.9253 98.6846 16.4269 95.6553 10.5462 83.4065C24.1021 82.5422 29.6993 84.9339 35.8444 94.0827Z" fill="#FFD900" stroke="#FFD900"/>
<path d="M25.6081 75.2793C13.8845 77.077 6.39664 72.0679 3.72891 58.7604C17.0831 61.2287 21.9165 64.9122 25.6081 75.2793Z" fill="#FFD900" stroke="#FFD900"/>
<path d="M21.704 57.6898C9.97988 55.8955 4.36222 48.8787 5.86132 35.3923C17.8442 41.742 21.3337 46.7005 21.704 57.6898Z" fill="#FFD900" stroke="#FFD900"/>
<path d="M175.908 35.2688C186.513 29.9934 189.693 21.6051 184.1 9.22436C174.656 18.9146 172.866 24.6961 175.908 35.2688Z" fill="#FFD900" stroke="#FFD900"/>
<path d="M112.176 120.652C114.623 132.172 121.99 137.355 135.476 135.132C128.432 123.604 123.252 120.417 112.176 120.652Z" fill="#FFD900" stroke="#FFD900"/>
<path d="M156.115 122.148C146.455 128.982 137.498 127.846 129.091 117.147C142.138 113.397 148.124 114.533 156.115 122.148Z" fill="#FFD900" stroke="#FFD900"/>
<path d="M148.204 106.907C157.596 114.1 166.59 113.303 175.401 102.928C162.506 98.6891 156.481 99.5979 148.204 106.907Z" fill="#FFD900" stroke="#FFD900"/>
<path d="M162.156 93.8121C173.075 98.4139 181.573 95.3846 187.454 83.1359C173.898 82.2715 168.301 84.6633 162.156 93.8121Z" fill="#FFD900" stroke="#FFD900"/>
<path d="M172.392 75.0086C184.116 76.8063 191.603 71.7972 194.271 58.4898C180.917 60.9581 176.083 64.6416 172.392 75.0086Z" fill="#FFD900" stroke="#FFD900"/>
<path d="M176.296 57.4193C188.02 55.625 193.638 48.6082 192.139 35.1218C180.156 41.4715 176.666 46.43 176.296 57.4193Z" fill="#FFD900" stroke="#FFD900"/>
</svg>
