<svg width="26" height="22" viewBox="0 0 26 22" fill="none" xmlns="http://www.w3.org/2000/svg">
<g clip-path="url(#clip0_880_1176)">
<rect width="26" height="22" transform="matrix(-1 0 0 1 26 0)" fill="white"/>
<rect width="16" height="10" rx="1" transform="matrix(-1 0 0 1 21 11)" fill="#B4B4B4"/>
<ellipse cx="1.5" cy="1" rx="1.5" ry="1" transform="matrix(-1 0 0 1 3.94 8.5)" fill="#B4B4B4"/>
<ellipse cx="1.6" cy="1" rx="1.6" ry="1" transform="matrix(-1 0 0 1 22.1 8.5)" fill="#B4B4B4"/>
<ellipse cx="1.5" cy="1" rx="1.5" ry="1" transform="matrix(-1 0 0 1 12.9 8.5)" fill="#B4B4B4"/>
<ellipse cx="1.5" cy="1" rx="1.5" ry="1" transform="matrix(-1 0 0 1 9.9 8.5)" fill="#B4B4B4"/>
<ellipse cx="1.5" cy="1" rx="1.5" ry="1" transform="matrix(-1 0 0 1 6.9 8.5)" fill="#B4B4B4"/>
<ellipse cx="1.5" cy="1" rx="1.5" ry="1" transform="matrix(-1 0 0 1 15.9 8.5)" fill="#B4B4B4"/>
<ellipse cx="1.5" cy="1" rx="1.5" ry="1" transform="matrix(-1 0 0 1 18.9 8.5)" fill="#B4B4B4"/>
<ellipse cx="1.5" cy="1" rx="1.5" ry="1" transform="matrix(-1 0 0 1 25.1 8.5)" fill="#B4B4B4"/>
<path d="M12.9142 -10.6567C12.953 -10.7215 13.047 -10.7215 13.0858 -10.6567L25.0337 9.29863C25.0736 9.36528 25.0256 9.45 24.9479 9.45H1.05207C0.974385 9.45 0.926367 9.36529 0.966275 9.29863L12.9142 -10.6567Z" fill="#B4B4B4"/>
<rect x="7" y="11" width="12" height="10" fill="white"/>
<path d="M10 21V14C10 13.4477 10.4477 13 11 13H15C15.5523 13 16 13.4477 16 14V21" stroke="#B4B4B4" stroke-width="1.25"/>
</g>
<defs>
<clipPath id="clip0_880_1176">
<rect width="26" height="22" fill="white" transform="matrix(-1 0 0 1 26 0)"/>
</clipPath>
</defs>
</svg>
