<svg width="46" height="12" viewBox="0 0 46 12" fill="none" xmlns="http://www.w3.org/2000/svg">
<path d="M8.71086 2.66L8.68686 2.72C8.79486 2.648 8.81886 2.648 8.90286 2.72C9.01086 2.816 9.02286 2.9 8.93886 3.068C8.90286 3.152 8.86686 3.236 8.86686 3.248C8.86686 3.26 8.84286 3.308 8.83086 3.344C8.80686 3.392 8.74686 3.524 8.68686 3.656C8.62686 3.776 8.53086 3.956 8.47086 4.052C8.32686 4.292 8.32686 4.292 8.60286 4.316C8.73486 4.328 8.86686 4.352 8.90286 4.376C8.97486 4.412 8.97486 4.412 9.20286 4.016C9.29886 3.86 9.39486 3.716 9.40686 3.692C9.43086 3.668 9.45486 3.62 9.46686 3.584C9.49086 3.488 9.63486 3.344 9.69486 3.356C9.71886 3.356 9.76686 3.392 9.79086 3.428C9.86286 3.524 9.80286 3.824 9.65886 4.076C9.61086 4.16 9.56286 4.244 9.56286 4.256C9.56286 4.292 9.31086 4.736 9.23886 4.844C9.15486 4.964 8.51886 6.02 8.53086 6.02C8.54286 6.02 8.57886 5.996 8.62686 5.96C8.66286 5.936 8.72286 5.9 8.75886 5.9C8.79486 5.888 8.87886 5.864 8.95086 5.828C9.10686 5.768 9.16686 5.756 9.38286 5.744C9.55086 5.744 9.55086 5.744 9.57486 5.648C9.61086 5.504 9.73086 5.48 9.91086 5.576C10.4989 5.852 10.7869 6.188 10.5709 6.356C10.4989 6.404 10.4869 6.404 10.2829 6.344C10.1749 6.308 10.0669 6.272 10.0309 6.248C9.99486 6.224 9.95886 6.236 9.64686 6.452L9.71886 6.56C9.83886 6.716 9.92286 7.316 9.92286 8.036C9.92286 8.252 9.93486 8.288 9.99486 8.336C10.0669 8.396 10.1269 8.504 10.1269 8.552C10.1269 8.588 9.97086 8.732 9.89886 8.768C9.73086 8.84 9.59886 8.888 9.47886 8.9C9.40686 8.912 9.33486 8.924 9.32286 8.936C9.27486 8.96 9.01086 8.972 8.96286 8.936C8.85486 8.876 8.83086 8.936 8.81886 9.38C8.80686 9.692 8.78286 9.86 8.73486 10.004C8.69886 10.112 8.67486 10.244 8.67486 10.292C8.67486 10.34 8.66286 10.388 8.65086 10.4C8.63886 10.412 8.62686 10.448 8.62686 10.472C8.62686 10.496 8.59086 10.556 8.54286 10.592C8.41086 10.688 8.31486 10.664 8.14686 10.376L8.15886 9.752C8.15886 9.404 8.17086 9.02 8.19486 8.9C8.21886 8.732 8.21886 8.672 8.19486 8.624C8.17086 8.576 8.17086 8.552 8.21886 8.48C8.27886 8.384 8.33886 8.036 8.37486 7.508C8.39886 7.076 8.43486 6.752 8.47086 6.62C8.49486 6.548 8.49486 6.548 8.36286 6.524C8.08686 6.488 7.96686 6.452 7.95486 6.392C7.94286 6.368 7.91886 6.344 7.90686 6.344C7.84686 6.344 7.89486 6.176 7.99086 6.056C8.01486 6.032 8.07486 5.936 8.11086 5.852C8.15886 5.768 8.31486 5.492 8.45886 5.252C8.60286 5.012 8.71086 4.808 8.69886 4.808C8.68686 4.796 8.59086 4.796 8.47086 4.796C8.30286 4.796 7.87086 4.724 7.84686 4.676L7.77486 4.58C7.66686 4.424 7.72686 4.256 8.06286 3.704C8.17086 3.512 8.30286 3.272 8.35086 3.152C8.41086 3.044 8.48286 2.936 8.50686 2.912C8.53086 2.888 8.56686 2.84 8.57886 2.792C8.60286 2.744 8.66286 2.684 8.71086 2.66ZM3.53886 2.744L3.52686 2.732C4.16286 2.66 4.21086 2.66 4.24686 2.78C4.25886 2.816 4.29486 2.84 4.33086 2.84C4.36686 2.84 4.39086 2.852 4.39086 2.876C4.39086 2.9 4.41486 2.96 4.43886 3.008C4.49886 3.128 4.48686 3.212 4.40286 3.308C4.36686 3.344 4.33086 3.38 4.33086 3.392C4.30686 3.464 4.01886 3.62 3.88686 3.632C3.81486 3.644 3.81486 3.692 3.85086 3.968C3.87486 4.124 3.88686 4.364 3.88686 4.52C3.88686 4.772 3.88686 4.784 3.97086 4.892C4.06686 5.024 4.06686 5.036 3.89886 5.168L3.91086 6.308C3.92286 7.064 3.94686 7.616 3.98286 7.964C4.05486 8.72 4.04286 10.844 3.95886 10.904C3.93486 10.928 3.91086 10.952 3.91086 10.964C3.91086 11.036 3.45486 11.432 3.39486 11.42C3.37086 11.42 3.26286 11.396 3.15486 11.384C2.96286 11.348 2.90286 11.3 2.90286 11.204H3.03486C3.19086 11.204 3.22686 11.18 3.31086 10.964C3.37086 10.796 3.37086 10.772 3.37086 9.656C3.37086 9.032 3.37086 8.444 3.33486 8.18L3.15486 8.276C3.04686 8.336 2.85486 8.456 2.73486 8.54C2.42286 8.744 2.14686 8.9 2.07486 8.924C2.03886 8.924 1.97886 8.948 1.93086 8.96C1.88286 8.984 1.79886 8.984 1.72686 8.972C1.66686 8.96 1.60686 8.96 1.59486 8.972C1.53486 9.02 1.33086 9.068 1.29486 9.044C1.23486 9.008 1.34286 8.732 1.45086 8.636C1.47486 8.612 1.52286 8.54 1.55886 8.48C1.70286 8.18 2.39886 7.628 2.77086 7.532C2.83086 7.52 2.95086 7.484 3.03486 7.46C3.11886 7.436 3.20286 7.412 3.22686 7.412C3.26286 7.412 3.26286 7.388 3.25086 7.328C3.23886 7.28 3.22686 7.04 3.19086 6.32H3.10686C2.98686 6.32 2.83086 6.332 2.77086 6.344H2.66286C2.61486 6.344 2.61486 6.38 2.61486 7.088L2.51886 7.172C2.39886 7.268 2.31486 7.268 2.13486 7.088L2.15886 5.9C2.17086 4.904 2.20686 4.088 2.23086 3.86C2.24286 3.812 2.21886 3.8 2.12286 3.8C1.91886 3.788 1.69086 3.752 1.64286 3.728C1.61886 3.716 1.57086 3.704 1.53486 3.704C1.47486 3.704 1.45086 3.68 1.34286 3.548C1.18686 3.356 1.40286 3.14 1.81086 3.08C1.85886 3.068 2.00286 3.032 2.13486 3.008C2.50686 2.912 3.08286 2.804 3.53886 2.744ZM6.10686 2.696L6.07086 2.6C6.25086 2.528 6.39486 2.684 6.34686 2.9C6.33486 2.96 6.33486 3.02 6.33486 3.044C6.34686 3.056 6.34686 3.08 6.32286 3.092C6.31086 3.104 6.27486 3.188 6.25086 3.284C6.22686 3.368 6.17886 3.488 6.14286 3.536C5.96286 3.896 5.91486 3.992 5.85486 4.172C5.81886 4.28 5.75886 4.436 5.67486 4.664L5.79486 4.652C5.87886 4.64 5.93886 4.64 5.96286 4.664C5.98686 4.688 6.01086 4.7 6.02286 4.7C6.02286 4.688 6.07086 4.616 6.13086 4.52C6.19086 4.436 6.29886 4.28 6.38286 4.196C6.45486 4.1 6.52686 3.992 6.53886 3.956C6.56286 3.872 6.68286 3.848 6.74286 3.92C6.82686 4.016 6.79086 4.196 6.64686 4.412C6.53886 4.592 6.50286 4.652 6.33486 5.024C6.28686 5.12 6.20286 5.264 6.14286 5.348C6.08286 5.432 5.98686 5.564 5.92686 5.648C5.86686 5.732 5.80686 5.816 5.78286 5.84C5.71086 5.924 5.59086 6.08 5.39886 6.356L5.48286 6.296C5.59086 6.224 5.89086 6.116 6.13086 6.068C6.35886 6.02 6.44286 5.948 6.44286 5.768C6.44286 5.636 6.49086 5.516 6.56286 5.492C6.62286 5.468 6.93486 5.78 7.01886 5.924C7.24686 6.38 6.93486 6.464 6.63486 6.02C6.61086 5.984 6.58686 5.96 6.57486 5.96C6.55086 5.96 6.50286 6.068 6.51486 6.104C6.52686 6.164 6.19086 6.452 6.07086 6.488C5.99886 6.512 5.93886 6.524 5.93886 6.536C5.92686 6.536 5.86686 6.548 5.80686 6.56C5.59086 6.596 5.57886 6.62 5.61486 6.968C5.63886 7.244 5.63886 7.268 5.57886 7.412C5.50686 7.592 5.50686 7.592 5.74686 7.544C5.91486 7.508 5.95086 7.496 5.95086 7.448C5.95086 7.364 5.99886 6.992 6.02286 6.872C6.07086 6.632 6.20286 6.464 6.32286 6.5C6.51486 6.56 6.64686 7.22 6.58686 7.844C6.50286 8.828 6.32286 9.428 6.01086 9.848C5.99886 9.86 5.93886 9.932 5.87886 10.016C5.73486 10.22 5.67486 10.28 5.63886 10.28C5.61486 10.28 5.59086 10.292 5.57886 10.304C5.55486 10.352 5.26686 10.52 5.19486 10.532C5.11086 10.544 5.01486 10.472 5.01486 10.4C5.01486 10.376 5.06286 10.28 5.12286 10.196C5.18286 10.112 5.26686 9.956 5.30286 9.848C5.33886 9.752 5.39886 9.632 5.43486 9.584C5.48286 9.524 5.53086 9.38 5.63886 8.948C5.65086 8.9 5.69886 8.696 5.74686 8.492C5.79486 8.288 5.84286 8.108 5.85486 8.084C5.86686 8.036 5.84286 8.036 5.73486 8.084C5.55486 8.156 5.14686 8.06 5.06286 7.928C4.99086 7.82 5.00286 7.748 5.13486 7.448C5.20686 7.292 5.23086 7.172 5.25486 7.016C5.26686 6.896 5.27886 6.776 5.27886 6.752C5.29086 6.716 5.27886 6.704 5.20686 6.692C5.01486 6.656 5.03886 6.32 5.25486 6.008C5.43486 5.744 5.78286 5.168 5.77086 5.156C5.75886 5.144 5.29086 5.372 5.21886 5.432C5.15886 5.48 4.96686 5.42 4.94286 5.348C4.93086 5.312 4.90686 5.276 4.89486 5.276C4.83486 5.24 4.85886 5.084 4.95486 4.904C5.14686 4.532 5.18286 4.472 5.20686 4.412C5.30286 4.148 5.32686 4.1 5.42286 3.92C5.55486 3.668 5.77086 3.26 5.79486 3.236C5.80686 3.224 5.83086 3.164 5.84286 3.104C5.90286 2.912 6.02286 2.732 6.10686 2.696ZM3.17886 3.632L3.19086 3.596H3.05886C3.02286 3.584 2.97486 3.584 2.93886 3.596C2.90286 3.608 2.78286 3.62 2.47086 3.608L2.48286 3.716C2.49486 3.8 2.54286 4.448 2.55486 4.652C2.55486 4.712 2.81886 4.724 3.19086 4.64L3.20286 4.268C3.21486 4.064 3.22686 3.836 3.23886 3.764C3.26286 3.632 3.26286 3.632 3.17886 3.632ZM2.97486 5.192L2.96286 5.168C2.90286 5.168 2.79486 5.168 2.57886 5.156L2.59086 5.444C2.59086 5.6 2.60286 5.732 2.61486 5.744C2.62686 5.756 2.69886 5.744 2.78286 5.72C2.86686 5.696 2.98686 5.672 3.19086 5.672V5.432C3.17886 5.228 3.16686 5.192 3.13086 5.192H2.97486ZM9.33486 6.38L9.32286 6.404C9.33486 6.356 9.19086 6.332 9.15486 6.38C9.15486 6.38 9.08286 6.392 8.99886 6.392C8.75886 6.404 8.68686 6.44 8.71086 6.536C8.77086 6.788 8.84286 7.82 8.81886 8.012C8.80686 8.144 8.83086 8.156 9.02286 8.096C9.08286 8.072 9.14286 8.06 9.15486 8.06C9.16686 8.06 9.17886 7.964 9.17886 7.844C9.17886 7.328 9.25086 6.704 9.33486 6.38ZM14.2259 2.672H14.2499C14.3219 2.636 14.4899 2.66 14.4779 2.708C14.4779 2.732 14.5019 2.756 14.5379 2.768C14.6939 2.804 14.7539 3.152 14.6459 3.368C14.4779 3.692 14.3459 3.932 14.3219 3.944C14.2739 3.98 14.0939 4.256 14.0699 4.316C14.0579 4.376 14.0699 4.388 14.1779 4.424C14.2499 4.448 14.3579 4.508 14.5499 4.652L14.6099 4.52C14.8259 3.944 15.1019 3.536 15.2699 3.536C15.3779 3.536 15.5459 3.848 15.4739 3.908C15.4259 3.944 15.3299 4.16 15.1499 4.628C14.9579 5.108 14.7779 5.444 14.3339 6.152C14.1299 6.464 14.1299 6.464 14.2379 6.428C14.2739 6.416 14.4659 6.404 14.6699 6.404C15.0299 6.392 15.0299 6.392 14.9819 6.344C14.9579 6.308 14.9219 6.272 14.9099 6.248C14.8979 6.224 14.8739 6.188 14.8619 6.164C14.7299 6.008 14.8499 5.684 15.0419 5.684C15.1259 5.684 15.2579 5.828 15.2339 5.9C15.2219 5.948 15.2339 5.972 15.2939 5.996C15.4139 6.056 15.5699 6.224 15.6659 6.392C15.7739 6.572 15.7859 6.656 15.7019 6.776C15.6179 6.908 15.6059 6.908 15.5099 6.788C15.3419 6.608 15.2099 6.5 15.2339 6.56C15.2579 6.62 15.1739 6.704 15.0659 6.728C14.9819 6.74 14.8259 6.812 14.8259 6.836C14.8259 6.848 14.8379 6.896 14.8619 6.944C14.9219 7.064 14.9939 7.436 15.0299 7.94L15.1259 7.988C15.1739 8.012 15.2579 8.036 15.3179 8.036C15.4259 8.036 15.5459 8.132 15.6419 8.288C15.6779 8.348 15.6779 8.36 15.5939 8.432C15.5219 8.492 15.4979 8.492 14.9939 8.468L14.9699 8.78C14.9219 9.584 14.6819 10.52 14.4419 10.868C14.2979 11.072 13.9739 11.3 13.9379 11.228C13.9259 11.216 13.8899 11.204 13.8419 11.204C13.7579 11.204 13.6379 11.144 13.6379 11.108C13.6379 11.096 13.6139 11.06 13.5899 11.036C13.5059 10.94 13.6379 10.568 13.7579 10.568C13.8179 10.568 13.9859 10.052 14.1059 9.56C14.3099 8.66 14.3099 8.516 14.1299 8.828C13.9979 9.056 13.7579 9.284 13.5659 9.344C13.4819 9.38 13.2899 9.332 13.2899 9.284C13.2899 9.26 13.2659 9.224 13.2419 9.2C13.1459 9.128 13.2779 8.804 13.4459 8.72C13.4939 8.696 13.5899 8.6 13.6499 8.516C13.7579 8.36 13.8299 8.264 13.9499 8.132C13.9859 8.096 14.0219 8.036 14.0219 8.012C14.0339 7.988 14.0579 7.952 14.0819 7.94C14.1059 7.928 14.1299 7.904 14.1299 7.88C14.1299 7.76 14.2259 7.568 14.3099 7.532C14.3819 7.496 14.3819 7.484 14.3699 7.364C14.3579 7.292 14.3459 7.172 14.3459 7.088C14.3459 6.92 14.3099 6.884 14.2019 6.932C13.9739 7.052 13.5179 7.028 13.5179 6.896C13.5179 6.872 13.4939 6.836 13.4699 6.812C13.3739 6.728 13.4459 6.416 13.6139 6.224C13.6979 6.128 14.2139 5.276 14.2139 5.24C14.2139 5.204 14.0219 5.144 13.8659 5.132C13.8059 5.132 13.7339 5.12 13.7099 5.108C13.6859 5.096 13.6139 5.084 13.5419 5.072C13.2059 5.036 13.1819 5.024 13.1579 4.964C13.1459 4.928 13.1099 4.868 13.0859 4.832C13.0139 4.748 13.0139 4.688 13.0859 4.46C13.1219 4.364 13.1459 4.256 13.1459 4.22C13.1459 4.184 13.1699 4.136 13.1819 4.1C13.2059 4.076 13.2299 4.028 13.2299 3.992C13.2299 3.932 13.4339 3.632 13.7819 3.176C13.9139 3.008 14.0219 2.852 14.0219 2.828C14.0339 2.78 14.1179 2.684 14.1419 2.696C14.1539 2.696 14.1899 2.684 14.2259 2.672ZM18.1139 2.708L18.0659 2.744C18.1739 2.696 18.2699 2.756 18.3419 2.912C18.3779 3.008 18.3779 3.536 18.3419 3.608C18.3179 3.668 18.3179 3.668 18.7499 3.632L18.9059 3.776C19.2659 4.1 19.2659 4.34 18.8939 4.988C18.8219 5.108 18.7499 5.228 18.7259 5.252C18.6659 5.312 18.4139 5.768 18.4259 5.78C18.4379 5.792 18.6299 5.84 18.8459 5.888C19.6979 6.104 20.2139 6.332 20.4659 6.596C20.4899 6.62 20.5739 6.668 20.6459 6.692C20.7419 6.728 20.8019 6.764 20.8259 6.812C20.8379 6.848 20.8739 6.884 20.9099 6.896C20.9459 6.908 20.9699 6.944 20.9699 6.992C20.9819 7.04 21.0059 7.076 21.0179 7.076C21.0659 7.076 21.0419 7.22 20.9819 7.28C20.9459 7.316 20.9219 7.352 20.9219 7.364C20.9219 7.4 20.7779 7.484 20.6819 7.496C20.6339 7.508 20.5859 7.52 20.5739 7.532C20.5139 7.568 20.1419 7.496 20.0459 7.424C19.5899 7.1 19.1939 6.896 18.6059 6.692C17.9939 6.476 17.9219 6.452 17.8979 6.5C17.8739 6.584 17.1899 7.448 17.1419 7.472C17.1299 7.484 17.0819 7.508 17.0459 7.532C16.9019 7.628 16.6979 7.604 16.6019 7.484C16.5419 7.4 16.5299 7.304 16.5779 7.268C16.5899 7.256 16.6019 7.232 16.6019 7.208C16.6019 7.184 16.6379 7.112 16.6979 7.04C16.7459 6.968 16.8539 6.812 16.9379 6.692C17.0219 6.572 17.1179 6.452 17.1539 6.416C17.1779 6.38 17.2379 6.308 17.3699 6.14L17.2259 6.044C17.1419 5.996 17.0099 5.924 16.9379 5.888C16.3979 5.624 16.3139 5.54 16.3619 5.372C16.4099 5.216 16.5179 5.168 16.7339 5.228C16.8899 5.264 16.9019 5.264 16.8659 5.216C16.8419 5.192 16.8179 5.156 16.8179 5.144C16.8179 5.132 16.7939 5.096 16.7699 5.072C16.6619 4.988 16.7459 4.724 16.9619 4.496C17.0699 4.388 17.1179 4.328 17.2619 4.112C17.2859 4.076 17.3699 3.98 17.4419 3.896C17.6819 3.62 17.8859 3.308 17.9219 3.152C17.9459 3.068 17.9819 2.936 18.0059 2.864C18.0299 2.768 18.0659 2.72 18.1139 2.708ZM18.6059 4.256L18.6539 4.28C18.6419 4.256 18.5339 4.232 18.3779 4.22C18.0899 4.196 18.1019 4.184 17.9699 4.412C17.9219 4.484 17.8619 4.568 17.8379 4.592C17.8139 4.628 17.7659 4.7 17.7299 4.748C17.6099 4.976 17.4059 5.252 17.3459 5.252C17.3339 5.252 17.2859 5.276 17.1539 5.384L17.3099 5.42C17.3939 5.444 17.5259 5.492 17.7659 5.624L17.8139 5.564C17.8379 5.528 17.8859 5.468 17.9099 5.42C17.9339 5.372 18.0179 5.24 18.0899 5.132C18.5339 4.484 18.6419 4.304 18.6059 4.256ZM18.9659 8.252L18.9419 8.324C19.3259 8.288 19.5659 8.324 19.6859 8.432C19.8779 8.624 19.9019 8.72 19.8299 9.104C19.8179 9.176 19.7939 9.332 19.7819 9.452C19.7579 9.668 19.6619 9.908 19.5179 10.136C19.4459 10.244 19.4219 10.256 19.3499 10.232C19.3139 10.22 19.2419 10.244 19.1339 10.304C18.9779 10.4 18.8939 10.436 18.7259 10.472C18.6059 10.496 18.5939 10.496 18.2819 10.424C18.0899 10.388 17.9819 10.376 17.9459 10.388C17.9099 10.4 17.8739 10.4 17.8499 10.376C17.8259 10.364 17.7779 10.352 17.7419 10.352C17.6339 10.352 17.5139 10.112 17.5499 9.98C17.5979 9.824 17.6339 9.38 17.6339 8.96C17.6339 8.492 17.7419 8.288 17.9219 8.372C17.9939 8.408 18.4019 8.372 18.6419 8.3C18.7019 8.288 18.8459 8.264 18.9659 8.252ZM18.5219 8.972L18.5339 8.936C18.4499 8.936 18.3539 8.936 18.3179 8.924C18.1979 8.9 18.1979 8.912 18.2099 9.248C18.2219 9.416 18.2339 9.62 18.2339 9.812L18.3779 9.848C18.5219 9.884 18.6899 9.872 18.9299 9.8C19.1459 9.74 19.1459 9.74 19.1219 9.56C19.1099 9.416 19.1459 9.212 19.2419 8.972C19.2539 8.936 19.2179 8.936 18.9659 8.948C18.8099 8.96 18.6059 8.972 18.5219 8.972ZM30.2119 1.448L30.2359 1.412C30.2959 1.316 30.7159 1.448 30.8719 1.616L31.0039 1.748C31.0279 1.772 31.0999 1.856 31.1599 1.94C31.2199 2.024 31.3039 2.12 31.3399 2.156C31.5079 2.3 31.5559 2.36 31.5799 2.468C31.5919 2.528 31.6279 2.6 31.6399 2.624C31.6879 2.684 31.6519 2.852 31.5799 2.888C31.5439 2.9 31.5079 2.948 31.4959 2.996C31.4839 3.044 31.4479 3.08 31.4119 3.08C31.3879 3.08 31.3279 3.116 31.2919 3.164C31.2079 3.248 31.0279 3.284 30.9319 3.236C30.8959 3.224 30.8239 3.212 30.7639 3.212C30.5599 3.188 30.3319 3.032 30.2479 2.852C30.2239 2.804 30.1759 2.732 30.1519 2.684C30.1159 2.648 30.0319 2.504 29.9719 2.372C29.8399 2.108 29.8279 1.904 29.9239 1.772C29.9479 1.748 29.9719 1.7 29.9719 1.664C29.9719 1.592 30.0799 1.484 30.1519 1.484C30.1759 1.484 30.2119 1.472 30.2119 1.448ZM27.9559 1.736L27.7999 1.724C27.8239 1.7 27.8599 1.688 27.8839 1.7C27.9079 1.712 27.9439 1.724 27.9679 1.724C27.9919 1.724 28.0159 1.748 28.0159 1.772C28.0159 1.796 28.0399 1.832 28.0639 1.856C28.0879 1.88 28.1359 1.952 28.1599 2.012C28.1839 2.072 28.2319 2.18 28.2559 2.252C28.2919 2.324 28.3279 2.444 28.3519 2.504C28.3639 2.576 28.3879 2.66 28.3999 2.684C28.4119 2.708 28.4479 2.84 28.4719 2.972C28.5199 3.236 28.7719 4.472 28.7839 4.484C28.7839 4.484 28.8079 4.472 28.8319 4.448C28.8559 4.424 28.8799 4.412 28.8799 4.424C28.8799 4.436 28.9039 4.436 28.9399 4.424C29.0839 4.34 29.3719 4.364 29.3959 4.448C29.4079 4.472 29.4319 4.496 29.4439 4.496C29.5039 4.496 29.5999 4.712 29.5759 4.772C29.5639 4.796 29.5399 4.82 29.5279 4.82C29.5159 4.82 29.5039 4.844 29.5039 4.868C29.5039 4.904 29.4919 4.928 29.4679 4.928C29.4559 4.928 29.4079 4.952 29.3719 4.988C29.3239 5.024 29.2639 5.036 29.1679 5.036C28.9639 5.036 28.9519 5.06 29.0719 5.3C29.1439 5.432 29.4079 6.116 29.4079 6.152C29.4079 6.224 29.4559 6.248 29.4679 6.188C29.4799 6.164 29.5279 6.092 29.5759 6.032C29.6239 5.972 29.7439 5.816 29.8279 5.684C29.9119 5.54 30.0319 5.348 30.1039 5.252C30.1639 5.156 30.2359 5.048 30.2599 5.012C30.3439 4.868 30.6679 4.82 30.7759 4.94C30.8839 5.06 30.9079 5.24 30.8119 5.24C30.7879 5.24 30.7639 5.264 30.7639 5.288C30.6799 5.564 30.5719 5.84 30.4879 6.008C30.4279 6.128 30.3679 6.272 30.3439 6.332C30.3079 6.428 30.1399 6.8 29.8999 7.292C29.8639 7.364 29.8039 7.46 29.7799 7.496C29.6959 7.616 29.8039 7.916 30.0919 8.324C30.1639 8.432 30.3439 8.756 30.4999 9.044C30.8119 9.644 30.8959 9.8 30.9199 9.8C30.9319 9.8 30.9559 9.716 30.9799 9.62C31.0039 9.524 31.0399 9.38 31.0759 9.308C31.1119 9.236 31.1599 9.104 31.1839 9.008C31.2079 8.912 31.2559 8.792 31.2799 8.732C31.3039 8.684 31.3279 8.612 31.3399 8.576C31.3519 8.54 31.3999 8.372 31.4479 8.204C31.4839 8.036 31.5439 7.868 31.5679 7.832C31.5919 7.796 31.6399 7.688 31.6759 7.592C31.7599 7.376 31.7959 7.328 31.8559 7.376C31.8799 7.4 31.8919 7.436 31.8919 7.46C31.8559 7.58 31.8439 7.676 31.8079 8.468C31.7839 9.092 31.7359 10.052 31.7239 10.172C31.7119 10.352 31.5799 10.784 31.5319 10.832C31.4959 10.868 31.4479 10.928 31.4239 10.976C31.3999 11.012 31.3639 11.048 31.3519 11.048C31.3279 11.048 31.2679 11.084 31.2199 11.132C31.1359 11.204 31.0999 11.216 31.0399 11.204C30.9919 11.192 30.9079 11.18 30.8479 11.168C30.6919 11.144 30.6199 11.072 30.2719 10.532C29.8399 9.884 29.7919 9.812 29.5399 9.284C29.4679 9.152 29.3359 8.9 29.2399 8.732C29.1439 8.564 29.0599 8.408 29.0599 8.384C29.0599 8.348 29.0119 8.36 28.8919 8.432C28.8079 8.492 28.7119 8.552 28.6879 8.564C28.6519 8.576 28.6039 8.6 28.5679 8.612C28.5319 8.624 28.4959 8.624 28.4839 8.612C28.4719 8.6 28.4119 8.588 28.3519 8.588C28.3039 8.588 28.2559 8.576 28.2439 8.564C28.2319 8.552 28.1839 8.54 28.1359 8.54C28.0519 8.54 28.0279 8.528 28.0039 8.456C27.9919 8.408 27.9679 8.36 27.9559 8.348C27.9079 8.336 27.8719 8.144 27.9079 8.096C27.9199 8.084 27.9439 8.036 27.9439 8C27.9559 7.94 27.9799 7.916 28.0279 7.904C28.0759 7.892 28.1479 7.832 28.2079 7.748C28.2559 7.676 28.3519 7.58 28.4119 7.532C28.4839 7.472 28.5919 7.376 28.7479 7.232L28.6519 6.68C28.5799 6.224 28.5439 6.056 28.2799 5.312L28.1359 5.336C27.9679 5.348 27.9079 5.36 27.7039 5.42C27.6199 5.444 27.4999 5.468 27.4279 5.48C27.3679 5.492 27.2959 5.504 27.2719 5.516C27.2479 5.528 27.1639 5.54 27.0919 5.552C27.0199 5.564 26.9239 5.576 26.8879 5.588C26.8519 5.6 26.7559 5.612 26.6719 5.624C26.5999 5.636 26.5159 5.648 26.4799 5.66C26.2879 5.696 25.6999 5.756 25.6399 5.744C25.5799 5.732 25.5679 5.744 25.5799 5.804C25.6039 5.924 25.6519 6.32 25.6879 6.716C25.7359 7.16 25.7359 7.16 25.8319 7.112C25.8799 7.088 25.9639 7.052 26.0239 7.028C26.0719 7.004 26.1319 6.98 26.1559 6.968C26.3239 6.884 26.6479 7.064 26.7199 7.28C26.7559 7.388 26.5399 7.58 26.1799 7.772C26.0839 7.82 25.9519 7.892 25.7719 8L25.7839 8.192C25.8559 9.08 25.7839 10.076 25.6399 10.184C25.6039 10.208 25.5799 10.244 25.5799 10.268C25.5799 10.292 25.5679 10.304 25.5559 10.304C25.5439 10.304 25.4959 10.34 25.4479 10.376C25.3879 10.424 25.3519 10.436 25.3279 10.424C25.3159 10.412 25.2679 10.4 25.2199 10.4C25.1719 10.4 25.1119 10.376 25.0999 10.352C25.0759 10.328 25.0399 10.304 25.0159 10.304C24.9919 10.304 24.9799 10.292 24.9799 10.28C24.9799 10.268 24.9439 10.244 24.9079 10.232C24.8719 10.22 24.8359 10.196 24.8239 10.184C24.8119 10.16 24.7399 10.112 24.6679 10.076C24.5959 10.04 24.5119 9.956 24.4879 9.896C24.4039 9.752 24.2719 9.584 24.1759 9.5C23.9719 9.308 24.2839 9.356 24.5599 9.548C24.6679 9.62 24.9319 9.704 24.9679 9.668C25.0039 9.632 25.0399 9.224 25.0399 8.84C25.0399 8.456 25.0399 8.444 24.9799 8.468C24.9439 8.48 24.9199 8.492 24.9199 8.492C24.9199 8.48 24.8239 8.528 24.7039 8.6C24.5839 8.672 24.4399 8.744 24.3919 8.768C24.3439 8.792 24.2239 8.84 24.1159 8.876C23.7919 9.02 23.4799 8.972 23.5279 8.78C23.5519 8.684 24.0679 8.192 24.1519 8.192C24.1639 8.192 24.1759 8.18 24.1759 8.168C24.1759 8.156 24.2839 8.084 24.4039 8C24.5359 7.916 24.7159 7.796 24.8119 7.736C25.1359 7.52 25.1119 7.616 25.0999 6.836C25.0879 6.464 25.0759 6.08 25.0399 5.828H24.8719C24.7759 5.828 24.6559 5.84 24.6079 5.852C24.4159 5.888 24.3559 5.9 24.2119 5.912C24.0319 5.924 23.6959 5.924 23.6119 5.912C23.5759 5.9 23.5399 5.888 23.5159 5.888C23.5039 5.888 23.4799 5.852 23.4679 5.804C23.4319 5.684 23.4679 5.636 23.6119 5.636C23.7079 5.636 24.0319 5.552 24.1759 5.492C24.2119 5.48 24.2719 5.456 24.3079 5.456C24.3439 5.444 24.4639 5.408 24.5719 5.372C24.6919 5.336 24.8479 5.3 25.0519 5.264V5.096C25.0519 5 25.0639 4.796 25.0759 4.64C25.0879 4.484 25.1119 4.232 25.1359 3.824L24.9079 4.04C24.7879 4.16 24.6679 4.256 24.6439 4.256C24.6199 4.256 24.5959 4.268 24.5839 4.28C24.5719 4.304 24.2839 4.496 24.2239 4.52C24.1999 4.532 24.1759 4.52 24.1639 4.508C24.1519 4.496 24.1039 4.484 24.0679 4.484C24.0079 4.484 23.9839 4.472 23.9719 4.424C23.9599 4.388 23.9239 4.34 23.8999 4.328C23.8519 4.292 23.8399 4.22 23.8759 4.148C23.8879 4.124 23.9239 4.04 23.9599 3.968C24.0679 3.728 24.2359 3.548 24.9439 2.84C25.7719 2.024 25.9039 1.94 26.0959 2.12C26.2039 2.228 26.2399 2.312 26.2039 2.408C26.1799 2.48 26.0239 2.744 25.9519 2.816C25.9399 2.84 25.9279 2.864 25.9279 2.876C25.9279 2.888 25.7719 3.092 25.7359 3.14C25.7239 3.152 25.6759 3.212 25.6279 3.284C25.5799 3.356 25.4959 3.464 25.3639 3.632L25.4359 3.824C25.5079 4.016 25.5319 4.172 25.5799 4.94C25.5919 5.204 25.6039 5.252 25.6399 5.24C25.6639 5.228 25.7599 5.216 25.8559 5.204C25.9519 5.192 26.0599 5.18 26.0959 5.168C26.1319 5.156 26.2879 5.132 26.4439 5.12C27.0439 5.024 28.1239 4.82 28.1479 4.784C28.1599 4.772 28.1239 4.46 28.0639 4.088C27.9919 3.548 27.9679 3.272 27.9559 2.828C27.9439 2.516 27.9319 2.144 27.9319 2.012C27.9199 1.82 27.9199 1.772 27.9559 1.736ZM37.9292 2.108L37.9412 2C38.0492 1.952 38.0612 1.952 38.1212 2.012C38.2052 2.096 38.2172 2.204 38.1572 2.3C38.1212 2.348 38.0732 2.432 38.0492 2.492C38.0252 2.552 37.9892 2.636 37.9652 2.684C37.9412 2.732 37.9172 2.792 37.9052 2.816C37.8092 3.008 37.7612 3.116 37.7612 3.14C37.7612 3.152 37.6532 3.332 37.5332 3.536C37.4132 3.74 37.2572 4.028 37.0652 4.412L37.1012 4.556C37.1252 4.64 37.1612 4.736 37.1852 4.772C37.2452 4.904 37.2572 5.432 37.2092 5.852C37.1612 6.284 37.1132 6.776 37.0292 7.592C36.9932 7.892 36.9572 8.408 36.9452 8.744C36.9332 9.08 36.9092 9.416 36.8972 9.488C36.8852 9.56 36.8732 9.68 36.8732 9.764C36.8732 9.86 36.8492 9.932 36.8012 9.992C36.7412 10.088 36.5612 10.22 36.5372 10.196C36.5252 10.184 36.4772 10.172 36.4292 10.172C36.2132 10.136 36.1412 9.848 36.2132 9.272C36.2372 9.104 36.2492 8.864 36.2492 8.744C36.2492 8.408 36.5252 6.524 36.6692 5.852C36.8492 5 36.8492 4.832 36.6812 5.132C36.3572 5.72 36.0332 6.224 35.8892 6.356C35.7692 6.464 35.3972 6.848 35.2532 7.004C35.0612 7.22 34.7972 7.4 34.7492 7.352C34.7372 7.34 34.6892 7.328 34.6412 7.328C34.5812 7.328 34.5572 7.304 34.5452 7.256C34.5332 7.22 34.4972 7.172 34.4732 7.16C34.4252 7.124 34.4132 7.004 34.4612 6.98C34.4732 6.968 34.4852 6.944 34.4852 6.92C34.4852 6.872 34.5692 6.728 34.7732 6.428C34.8212 6.356 34.8692 6.272 34.8812 6.236C34.8932 6.2 34.9412 6.152 34.9892 6.128C35.0852 6.092 35.3732 5.804 35.5052 5.612C35.6612 5.384 35.9972 4.868 36.2252 4.484C36.4772 4.076 36.7412 3.668 36.9332 3.404C36.9932 3.32 37.0892 3.176 37.1372 3.092C37.1852 3.008 37.2452 2.924 37.2572 2.912C37.2812 2.9 37.3652 2.78 37.4492 2.648C37.6052 2.396 37.7972 2.18 37.9292 2.108ZM42.6932 3.236L42.6572 3.2C42.7052 3.188 42.8492 3.188 42.9692 3.188C43.0892 3.2 43.3412 3.212 43.5332 3.224C43.9292 3.248 44.0012 3.272 44.2172 3.476C44.4332 3.668 44.4452 3.704 44.4932 4.292C44.5532 5.132 44.5892 6.656 44.5532 7.16C44.5172 7.664 44.5412 8.444 44.6012 8.84C44.6252 8.996 44.6372 9.332 44.6372 9.62C44.6372 10.208 44.6012 10.34 44.3492 10.64C44.1572 10.856 44.1452 10.868 44.1212 10.868C44.1092 10.868 44.0612 10.904 44.0132 10.94C43.9652 10.976 43.9172 11.012 43.9052 11.012C43.8932 11.012 43.8692 11.036 43.8452 11.06C43.8212 11.084 43.7972 11.084 43.7612 11.072C43.7372 11.06 43.6892 11.048 43.6532 11.048C43.6052 11.048 43.5692 11.012 43.5212 10.928C43.4012 10.748 43.4612 10.352 43.6052 10.352C43.6292 10.352 43.6412 10.328 43.6412 10.304C43.6412 10.28 43.6652 10.208 43.7012 10.148C43.7612 10.04 43.7612 10.016 43.7492 9.452C43.7132 8.612 43.7252 7.784 43.7732 7.28C43.8332 6.752 43.8332 6.536 43.7852 6.524H43.5812C43.4252 6.524 43.1372 6.476 42.9812 6.416C42.9452 6.404 42.8612 6.38 42.8012 6.368C42.4892 6.308 42.2252 6.2 42.2252 6.128C42.2252 6.104 42.2132 6.092 42.2012 6.092C42.1652 6.092 42.1652 5.936 42.2012 5.828C42.2252 5.744 42.2252 5.732 42.1772 5.672C42.1052 5.588 42.0932 5.372 42.1532 5.12C42.1892 4.988 42.1892 4.928 42.1652 4.892C42.1292 4.832 42.1532 4.724 42.2012 4.724C42.2132 4.724 42.2252 4.688 42.2252 4.64C42.2252 4.592 42.2372 4.496 42.2492 4.424C42.2612 4.352 42.2852 4.088 42.3092 3.836C42.3332 3.356 42.3452 3.308 42.4772 3.308C42.5132 3.308 42.5612 3.296 42.5732 3.284C42.5852 3.272 42.6452 3.248 42.6932 3.236ZM42.8852 3.548L42.8732 3.5C42.7172 3.452 42.5852 3.416 42.5732 3.428C42.4892 3.44 42.4892 3.476 42.5732 3.656C42.6332 3.8 42.6572 3.932 42.6812 4.148C42.6932 4.316 42.7172 4.472 42.7292 4.496C42.7532 4.568 42.9812 4.58 43.3052 4.532H43.8812L43.9052 4.208C43.9292 3.764 43.9052 3.728 43.6052 3.716C43.4132 3.704 43.2452 3.668 42.8852 3.548ZM38.4452 4.184L38.4932 4.148C38.6492 4.112 38.6972 4.112 38.8532 4.136C39.0332 4.172 39.3932 4.316 39.4772 4.4C39.5132 4.436 39.5852 4.472 39.6212 4.484C39.7172 4.52 39.9212 4.7 39.9692 4.784C40.0412 4.916 40.0412 5.336 39.9692 5.492C39.8492 5.792 39.5492 6.236 39.4652 6.236C39.4532 6.236 39.3692 6.32 39.2732 6.428C39.0572 6.644 38.9012 6.68 38.6612 6.596C38.6252 6.584 38.6132 6.62 38.6012 6.8C38.5772 7.124 38.5892 7.976 38.6252 8.12C38.7212 8.564 38.6612 8.804 38.4092 9.008C38.3492 9.056 38.3132 9.068 38.2772 9.056C38.2532 9.044 38.2052 9.032 38.1692 9.032C38.0972 9.032 37.9652 8.828 37.9172 8.636C37.8572 8.42 37.8332 8.3 37.8572 8.324C37.8692 8.336 37.8812 8.168 37.8812 7.928C37.8692 7.376 37.9772 6.296 38.0972 5.672C38.1332 5.516 38.1812 4.976 38.1932 4.736C38.1932 4.64 38.2052 4.556 38.2052 4.532C38.2052 4.52 38.2052 4.484 38.1932 4.448C38.1812 4.352 38.3252 4.208 38.4452 4.184ZM38.7332 4.544L38.7212 4.568C38.4932 4.46 38.4092 4.436 38.4092 4.484C38.4092 4.508 38.4212 4.532 38.4452 4.532C38.4812 4.532 38.5292 4.688 38.5292 4.784C38.5292 4.82 38.5412 4.892 38.5892 5.036L38.8412 5.012C39.0812 5 39.1052 5 39.2612 5.072C39.4412 5.156 39.5132 5.156 39.5252 5.06C39.5372 4.988 39.3452 4.844 39.0692 4.7C38.9852 4.664 38.8292 4.592 38.7332 4.544ZM43.1372 5.108L43.1852 5.12C43.1252 5.108 43.0172 5.084 42.8252 5.036L42.8012 5.108C42.7892 5.156 42.7772 5.264 42.7772 5.348C42.7772 5.456 42.7652 5.504 42.7172 5.54C42.6812 5.576 42.6692 5.612 42.6812 5.624C42.6932 5.636 42.6812 5.672 42.6452 5.696C42.5972 5.732 42.5972 5.732 42.6932 5.72C42.7532 5.708 43.0412 5.696 43.8692 5.696V5.48V5.216C43.8692 5.168 43.8332 5.156 43.5572 5.144C43.3892 5.132 43.1972 5.12 43.1372 5.108ZM38.9372 5.6L38.9612 5.624C38.9012 5.612 38.8172 5.6 38.6852 5.6V5.888V6.2C38.6852 6.248 38.9372 6.176 38.9372 6.116C38.9372 6.092 38.9492 6.056 38.9612 6.032C38.9972 5.996 39.0452 5.792 39.0452 5.696C39.0452 5.624 39.0332 5.612 38.9372 5.6ZM39.3452 5.672V5.684C39.3452 5.684 39.3092 5.672 39.2732 5.672C39.2012 5.66 39.2012 5.66 39.2252 5.708C39.2492 5.756 39.2612 5.756 39.2972 5.72L39.3452 5.672Z" fill="#F5D7E3"/>
</svg>
