<svg width="42" height="42" viewBox="0 0 42 42" fill="none" xmlns="http://www.w3.org/2000/svg">
<rect width="42" height="42" fill="white"/>
<rect x="6" y="7" width="30" height="30" rx="1" fill="#417AB1"/>
<path d="M26 7C26 6.34339 25.8707 5.69321 25.6194 5.08658C25.3681 4.47995 24.9998 3.92876 24.5355 3.46447C24.0712 3.00017 23.52 2.63188 22.9134 2.3806C22.3068 2.12933 21.6566 2 21 2C20.3434 2 19.6932 2.12933 19.0866 2.3806C18.48 2.63188 17.9288 3.00017 17.4645 3.46447C17.0002 3.92876 16.6319 4.47996 16.3806 5.08658C16.1293 5.69321 16 6.34339 16 7L21 7H26Z" fill="#417AB1"/>
<path d="M36 17C35.3434 17 34.6932 17.1293 34.0866 17.3806C33.48 17.6319 32.9288 18.0002 32.4645 18.4645C32.0002 18.9288 31.6319 19.48 31.3806 20.0866C31.1293 20.6932 31 21.3434 31 22C31 22.6566 31.1293 23.3068 31.3806 23.9134C31.6319 24.52 32.0002 25.0712 32.4645 25.5355C32.9288 25.9998 33.48 26.3681 34.0866 26.6194C34.6932 26.8707 35.3434 27 36 27L36 22V17Z" fill="white"/>
<path d="M14.22 26.12C13.524 26.12 12.884 26.016 12.3 25.808C11.724 25.6 11.224 25.312 10.8 24.944C10.384 24.568 10.06 24.136 9.828 23.648C9.596 23.152 9.48 22.62 9.48 22.052C9.48 21.444 9.596 20.884 9.828 20.372C10.06 19.852 10.388 19.4 10.812 19.016C11.236 18.632 11.732 18.336 12.3 18.128C12.876 17.912 13.5 17.804 14.172 17.804C14.628 17.804 14.984 17.84 15.24 17.912C15.504 17.976 15.724 18.048 15.9 18.128C16.044 18.192 16.18 18.252 16.308 18.308C16.444 18.356 16.6 18.38 16.776 18.38C16.864 18.38 16.94 18.376 17.004 18.368C17.076 18.352 17.152 18.336 17.232 18.32L17.28 18.356C17.192 18.7 17.172 19.06 17.22 19.436C17.276 19.812 17.344 20.196 17.424 20.588H17.1C16.908 20.124 16.672 19.716 16.392 19.364C16.12 19.004 15.796 18.724 15.42 18.524C15.052 18.324 14.62 18.224 14.124 18.224C13.604 18.224 13.132 18.38 12.708 18.692C12.284 19.004 11.944 19.448 11.688 20.024C11.44 20.592 11.316 21.268 11.316 22.052C11.316 22.772 11.432 23.408 11.664 23.96C11.904 24.512 12.236 24.944 12.66 25.256C13.092 25.56 13.596 25.712 14.172 25.712C14.548 25.712 14.892 25.652 15.204 25.532C15.516 25.404 15.796 25.232 16.044 25.016C16.3 24.792 16.524 24.536 16.716 24.248C16.908 23.96 17.068 23.648 17.196 23.312H17.568C17.456 23.696 17.368 24.088 17.304 24.488C17.24 24.888 17.204 25.276 17.196 25.652H17.112C16.896 25.652 16.688 25.676 16.488 25.724C16.296 25.764 16.108 25.808 15.924 25.856C15.7 25.92 15.456 25.98 15.192 26.036C14.936 26.092 14.612 26.12 14.22 26.12ZM22.6351 26.132C22.0111 26.132 21.4391 26.028 20.9191 25.82C20.3991 25.604 19.9471 25.312 19.5631 24.944C19.1791 24.568 18.8791 24.132 18.6631 23.636C18.4551 23.14 18.3511 22.612 18.3511 22.052C18.3511 21.444 18.4551 20.884 18.6631 20.372C18.8791 19.852 19.1791 19.4 19.5631 19.016C19.9471 18.632 20.3991 18.336 20.9191 18.128C21.4391 17.912 22.0111 17.804 22.6351 17.804C23.2591 17.804 23.8351 17.912 24.3631 18.128C24.8911 18.336 25.3471 18.628 25.7311 19.004C26.1151 19.38 26.4111 19.816 26.6191 20.312C26.8351 20.8 26.9431 21.328 26.9431 21.896C26.9431 22.504 26.8351 23.064 26.6191 23.576C26.4111 24.088 26.1151 24.536 25.7311 24.92C25.3471 25.304 24.8911 25.604 24.3631 25.82C23.8351 26.028 23.2591 26.132 22.6351 26.132ZM22.6351 25.712C23.1391 25.712 23.5751 25.556 23.9431 25.244C24.3111 24.932 24.5951 24.492 24.7951 23.924C25.0031 23.348 25.1071 22.676 25.1071 21.908C25.1071 21.18 25.0031 20.54 24.7951 19.988C24.5951 19.436 24.3111 19.004 23.9431 18.692C23.5751 18.38 23.1391 18.224 22.6351 18.224C22.1471 18.224 21.7191 18.38 21.3511 18.692C20.9831 19.004 20.6951 19.448 20.4871 20.024C20.2871 20.592 20.1871 21.268 20.1871 22.052C20.1871 22.588 20.2431 23.08 20.3551 23.528C20.4751 23.976 20.6431 24.364 20.8591 24.692C21.0751 25.02 21.3311 25.272 21.6271 25.448C21.9311 25.624 22.2671 25.712 22.6351 25.712ZM28.7626 26.132C28.4906 26.132 28.2546 26.036 28.0546 25.844C27.8626 25.644 27.7666 25.408 27.7666 25.136C27.7666 24.856 27.8626 24.62 28.0546 24.428C28.2546 24.228 28.4906 24.128 28.7626 24.128C29.0426 24.128 29.2786 24.228 29.4706 24.428C29.6626 24.62 29.7586 24.856 29.7586 25.136C29.7586 25.408 29.6626 25.644 29.4706 25.844C29.2786 26.036 29.0426 26.132 28.7626 26.132Z" fill="white"/>
</svg>
