<svg width="23" height="23" viewBox="0 0 23 23" fill="none" xmlns="http://www.w3.org/2000/svg">
<circle cx="11.5" cy="11.5" r="11.5" fill="url(#paint0_linear_6_63)" fill-opacity="0.8"/>
<path d="M9.55957 9.37793C9.73535 9.54785 9.92285 9.68848 10.1221 9.7998C10.3213 9.91113 10.5322 10.0078 10.7549 10.0898V9.91406C10.7549 9.58008 10.7695 9.24902 10.7988 8.9209C10.834 8.58691 10.8516 8.24414 10.8516 7.89258V7.33887C10.8457 7.31543 10.8369 7.24512 10.8252 7.12793C10.8193 7.01074 10.8105 6.88477 10.7988 6.75C10.7871 6.60938 10.7754 6.47754 10.7637 6.35449C10.7578 6.22559 10.7549 6.1377 10.7549 6.09082H10.6846C10.3389 6.09082 10.0488 6.16113 9.81445 6.30176C9.58594 6.43652 9.37793 6.63574 9.19043 6.89941C9.11426 7.00488 9.04688 7.09277 8.98828 7.16309C8.93555 7.22754 8.88867 7.29199 8.84766 7.35645C8.8125 7.41504 8.7832 7.48535 8.75977 7.56738C8.74219 7.64355 8.7334 7.74609 8.7334 7.875C8.7334 7.9043 8.7334 7.93652 8.7334 7.97168C8.73926 8.00098 8.74512 8.03027 8.75098 8.05957C8.75684 8.09473 8.7627 8.12988 8.76855 8.16504C8.76855 8.19434 8.78613 8.24707 8.82129 8.32324C8.85645 8.39941 8.89746 8.48145 8.94434 8.56934C8.99121 8.65137 9.03516 8.7334 9.07617 8.81543C9.12305 8.8916 9.16113 8.94727 9.19043 8.98242C9.19629 8.99414 9.21387 9.01758 9.24316 9.05273C9.27832 9.08789 9.31348 9.12891 9.34863 9.17578C9.38965 9.2168 9.43066 9.25781 9.47168 9.29883C9.5127 9.33398 9.54199 9.36035 9.55957 9.37793ZM11.915 12.7529C11.9033 12.7529 11.8682 12.7441 11.8096 12.7266C11.751 12.709 11.6953 12.6885 11.6426 12.665V12.7969C11.6367 12.8086 11.6279 12.8291 11.6162 12.8584C11.6104 12.8818 11.6016 12.9082 11.5898 12.9375C11.584 12.9668 11.5781 12.9932 11.5723 13.0166C11.5664 13.04 11.5635 13.0547 11.5635 13.0605V13.21C11.5635 13.2803 11.5664 13.3359 11.5723 13.377C11.5781 13.4121 11.6016 13.4678 11.6426 13.5439V14.4141C11.6426 14.543 11.6367 14.6748 11.625 14.8096C11.6133 14.9385 11.5928 15.0703 11.5635 15.2051V17.3496H11.6426C11.6484 17.3496 11.6807 17.3555 11.7393 17.3672C11.8037 17.373 11.8418 17.376 11.8535 17.376H11.959C12.0352 17.376 12.1084 17.3613 12.1787 17.332C12.249 17.2969 12.3223 17.2705 12.3984 17.2529C12.4805 17.2295 12.5596 17.2148 12.6357 17.209C12.7178 17.1973 12.791 17.168 12.8555 17.1211C12.9609 17.0508 13.0605 16.9863 13.1543 16.9277C13.248 16.8633 13.3359 16.7959 13.418 16.7256C13.5 16.6553 13.5732 16.5762 13.6377 16.4883C13.708 16.3945 13.7666 16.2861 13.8135 16.1631C13.8135 16.1572 13.8164 16.1338 13.8223 16.0928C13.8281 16.0518 13.8311 16.0107 13.8311 15.9697C13.8369 15.9229 13.8428 15.8818 13.8486 15.8467C13.8545 15.8057 13.8574 15.7793 13.8574 15.7676C13.8633 15.7559 13.8779 15.7295 13.9014 15.6885C13.9248 15.6475 13.9482 15.6064 13.9717 15.5654C14.001 15.5186 14.0244 15.4775 14.042 15.4424C14.0654 15.4014 14.0771 15.3779 14.0771 15.3721C14.0771 15.3604 14.0771 15.3135 14.0771 15.2314C14.083 15.1494 14.0859 15.085 14.0859 15.0381C14.0859 14.833 14.0537 14.6367 13.9893 14.4492C13.9307 14.2617 13.8457 14.0889 13.7344 13.9307C13.623 13.7666 13.4912 13.6201 13.3389 13.4912C13.1924 13.3564 13.0312 13.2422 12.8555 13.1484C12.8496 13.1426 12.832 13.1367 12.8027 13.1309C12.7793 13.125 12.7529 13.1221 12.7236 13.1221C12.6943 13.1162 12.665 13.1104 12.6357 13.1045C12.6123 13.0986 12.6006 13.0928 12.6006 13.0869C12.583 13.0811 12.5391 13.0635 12.4688 13.0342C12.4043 12.999 12.334 12.9639 12.2578 12.9287C12.1816 12.8877 12.1084 12.8525 12.0381 12.8232C11.9736 12.7881 11.9326 12.7646 11.915 12.7529ZM10.7549 13.0166C10.7666 12.9873 10.7812 12.9492 10.7988 12.9023C10.8223 12.8496 10.8398 12.8145 10.8516 12.7969V12.7354C10.8398 12.7295 10.8193 12.7119 10.79 12.6826C10.7666 12.6475 10.7549 12.627 10.7549 12.6211V12.4014C10.5967 12.3604 10.4326 12.3135 10.2627 12.2607C10.0928 12.2021 9.92285 12.1406 9.75293 12.0762C9.58887 12.0059 9.42773 11.9326 9.26953 11.8564C9.11133 11.7744 8.96777 11.6924 8.83887 11.6104C8.82715 11.6045 8.80664 11.5869 8.77734 11.5576C8.75391 11.5283 8.72754 11.499 8.69824 11.4697C8.66895 11.4346 8.63965 11.4023 8.61035 11.373C8.58691 11.3438 8.57227 11.3291 8.56641 11.3291C8.56055 11.3291 8.53711 11.3203 8.49609 11.3027C8.45508 11.2852 8.43457 11.2734 8.43457 11.2676C8.41699 11.2676 8.40234 11.2588 8.39062 11.2412C8.38477 11.2178 8.37305 11.2061 8.35547 11.2061C8.34961 11.1943 8.33203 11.165 8.30273 11.1182C8.2793 11.0713 8.25293 11.0215 8.22363 10.9688C8.19434 10.916 8.16504 10.8662 8.13574 10.8193C8.1123 10.7725 8.10059 10.7432 8.10059 10.7314C8.00684 10.5791 7.9043 10.4268 7.79297 10.2744C7.6875 10.1221 7.61133 9.96094 7.56445 9.79102C7.51758 9.60352 7.47949 9.40723 7.4502 9.20215C7.42676 8.99707 7.41504 8.80371 7.41504 8.62207C7.41504 8.4873 7.41797 8.34375 7.42383 8.19141C7.42969 8.03906 7.44727 7.90137 7.47656 7.77832C7.48242 7.7666 7.50879 7.73438 7.55566 7.68164C7.60254 7.62305 7.62598 7.58496 7.62598 7.56738C7.6377 7.5498 7.65234 7.52637 7.66992 7.49707C7.6875 7.46191 7.70508 7.42676 7.72266 7.3916C7.74609 7.35645 7.7666 7.32715 7.78418 7.30371C7.80176 7.27441 7.81641 7.25684 7.82812 7.25098C8.05078 6.84668 8.3291 6.49512 8.66309 6.19629C9.00293 5.89746 9.39844 5.68066 9.84961 5.5459C9.85547 5.5459 9.88477 5.54004 9.9375 5.52832C9.99609 5.51074 10.0312 5.50195 10.043 5.50195C10.0664 5.49023 10.1133 5.47559 10.1836 5.45801C10.2539 5.43457 10.292 5.42285 10.2979 5.42285C10.3096 5.42285 10.3623 5.42285 10.4561 5.42285C10.5557 5.41699 10.6553 5.4082 10.7549 5.39648V4.89551C10.7549 4.86035 10.752 4.80176 10.7461 4.71973C10.7402 4.63184 10.7344 4.54102 10.7285 4.44727C10.7285 4.34766 10.7256 4.25391 10.7197 4.16602C10.7139 4.07812 10.7109 4.0166 10.7109 3.98145C10.7051 3.96973 10.6963 3.94629 10.6846 3.91113C10.6787 3.87598 10.6729 3.84082 10.667 3.80566C10.6611 3.76465 10.6553 3.72949 10.6494 3.7002C10.6436 3.66504 10.6406 3.6416 10.6406 3.62988V3.6123C10.6406 3.4248 10.6934 3.2666 10.7988 3.1377C10.9102 3.00879 11.0596 2.94434 11.2471 2.94434C11.4521 2.94434 11.5898 3.00586 11.6602 3.12891C11.7305 3.24609 11.7656 3.39844 11.7656 3.58594C11.7656 3.73828 11.751 3.88477 11.7217 4.02539C11.6982 4.16016 11.6455 4.29199 11.5635 4.4209V5.39648V5.45801C11.6045 5.46973 11.6484 5.48145 11.6953 5.49316C11.7422 5.49902 11.7686 5.50195 11.7744 5.50195C11.874 5.50781 11.959 5.51367 12.0293 5.51953C12.1055 5.51953 12.1816 5.52832 12.2578 5.5459C12.334 5.55762 12.4189 5.58105 12.5127 5.61621C12.6064 5.64551 12.7207 5.69238 12.8555 5.75684C13.002 5.82715 13.1367 5.89453 13.2598 5.95898C13.3887 6.02344 13.4766 6.06738 13.5234 6.09082C13.541 6.10254 13.5791 6.12891 13.6377 6.16992C13.6963 6.20508 13.7256 6.23145 13.7256 6.24902H13.8486C13.9131 6.24902 13.9658 6.23437 14.0068 6.20508C14.0537 6.17578 14.0947 6.14063 14.1299 6.09961C14.1709 6.05859 14.209 6.01465 14.2441 5.96777C14.2793 5.91504 14.3174 5.87109 14.3584 5.83594C14.3701 5.81836 14.3965 5.78613 14.4375 5.73926C14.4785 5.69238 14.5225 5.64258 14.5693 5.58984C14.6221 5.53711 14.6689 5.49023 14.71 5.44922C14.7568 5.40234 14.7891 5.37012 14.8066 5.35254H14.877C14.9473 5.35254 14.9941 5.38184 15.0176 5.44043C15.0469 5.49902 15.0674 5.56055 15.0791 5.625C15.0791 5.63086 15.082 5.66309 15.0879 5.72168C15.0938 5.77441 15.0996 5.83594 15.1055 5.90625C15.1113 5.97656 15.1172 6.0498 15.123 6.12598C15.1289 6.19629 15.1348 6.25195 15.1406 6.29297V6.37207C15.123 6.49512 15.1055 6.66797 15.0879 6.89062C15.0703 7.11328 15.0498 7.33594 15.0264 7.55859C15.0088 7.78125 14.9912 7.98047 14.9736 8.15625C14.9561 8.32617 14.9443 8.42578 14.9385 8.45508C14.9268 8.60742 14.8857 8.74805 14.8154 8.87695C14.751 9 14.6309 9.06152 14.4551 9.06152C14.4141 9.06152 14.3555 9.05859 14.2793 9.05273C14.209 9.04688 14.1592 9.02344 14.1299 8.98242C14.0596 8.89453 14.001 8.80078 13.9541 8.70117C13.9131 8.60156 13.8721 8.50488 13.8311 8.41113C13.79 8.31152 13.7461 8.21191 13.6992 8.1123C13.6523 8.0127 13.5938 7.91895 13.5234 7.83105C13.4414 7.73145 13.3564 7.62598 13.2686 7.51465C13.1865 7.40332 13.0986 7.29492 13.0049 7.18945C12.9111 7.07812 12.8145 6.97266 12.7148 6.87305C12.6152 6.77344 12.5098 6.68555 12.3984 6.60938C12.3926 6.60938 12.375 6.60645 12.3457 6.60059C12.3223 6.58887 12.2959 6.57715 12.2666 6.56543C12.2373 6.55371 12.208 6.54199 12.1787 6.53027C12.1494 6.51855 12.1318 6.50977 12.126 6.50391C12.1201 6.49805 12.0996 6.4834 12.0645 6.45996C12.0352 6.43066 12 6.40137 11.959 6.37207C11.9238 6.33691 11.8887 6.30762 11.8535 6.28418C11.8184 6.26074 11.792 6.24902 11.7744 6.24902C11.7744 6.2373 11.7539 6.22852 11.7129 6.22266C11.6777 6.2168 11.6338 6.21094 11.5811 6.20508C11.5928 6.4043 11.6045 6.60352 11.6162 6.80273C11.6338 6.99609 11.6426 7.19531 11.6426 7.40039C11.6426 7.58789 11.6279 7.76367 11.5986 7.92773C11.5752 8.0918 11.5635 8.26758 11.5635 8.45508C11.5635 8.57227 11.5664 8.66602 11.5723 8.73633C11.5781 8.80664 11.6016 8.90039 11.6426 9.01758V10.3711C11.8535 10.4297 12.0674 10.4883 12.2842 10.5469C12.501 10.5996 12.7119 10.6611 12.917 10.7314C12.9639 10.8076 13.0283 10.8516 13.1104 10.8633C13.1982 10.8691 13.2803 10.8926 13.3564 10.9336C13.4092 10.9688 13.4707 11.0068 13.541 11.0479C13.6172 11.0889 13.6963 11.1328 13.7783 11.1797C13.8604 11.2266 13.9395 11.2764 14.0156 11.3291C14.0918 11.376 14.1562 11.4258 14.209 11.4785C14.2266 11.4902 14.25 11.5107 14.2793 11.54C14.3086 11.5693 14.3408 11.6016 14.376 11.6367C14.4111 11.666 14.4434 11.6953 14.4727 11.7246C14.502 11.7539 14.5254 11.7773 14.543 11.7949C14.543 11.8125 14.5635 11.8477 14.6045 11.9004C14.6455 11.9531 14.6719 11.9854 14.6836 11.9971C14.8125 12.1494 14.9473 12.2988 15.0879 12.4453C15.2344 12.5859 15.3486 12.7559 15.4307 12.9551C15.4424 13.002 15.457 13.0576 15.4746 13.1221C15.498 13.1865 15.5215 13.251 15.5449 13.3154C15.5684 13.3857 15.5947 13.4619 15.624 13.5439C15.6475 13.667 15.6621 13.7871 15.668 13.9043C15.6797 14.0156 15.6855 14.1299 15.6855 14.2471C15.6855 14.3994 15.6768 14.5518 15.6592 14.7041C15.6475 14.8506 15.6357 15 15.624 15.1523C15.5713 15.2812 15.5215 15.4014 15.4746 15.5127C15.4277 15.624 15.3809 15.7324 15.334 15.8379C15.2871 15.9434 15.2373 16.0518 15.1846 16.1631C15.1377 16.2686 15.082 16.3799 15.0176 16.4971C15 16.5029 14.9766 16.5176 14.9473 16.541C14.918 16.5586 14.8945 16.5732 14.877 16.585C14.7891 16.667 14.71 16.7432 14.6396 16.8135C14.5693 16.8838 14.499 16.9541 14.4287 17.0244C14.3584 17.0947 14.2822 17.165 14.2002 17.2354C14.124 17.3057 14.0303 17.3789 13.9189 17.4551C13.7314 17.584 13.5234 17.6924 13.2949 17.7803C13.0664 17.8623 12.835 17.9355 12.6006 18C12.542 18.0117 12.4893 18.0176 12.4424 18.0176C12.4014 18.0234 12.3604 18.0293 12.3193 18.0352C12.2842 18.041 12.2461 18.0469 12.2051 18.0527C12.1641 18.0645 12.1172 18.082 12.0645 18.1055C12.0176 18.1055 11.9414 18.1055 11.8359 18.1055C11.7363 18.1055 11.6455 18.1113 11.5635 18.123V19.2744C11.6162 19.3271 11.6484 19.3916 11.6602 19.4678C11.6777 19.5498 11.6865 19.6377 11.6865 19.7314V19.9336C11.6865 20.0391 11.6426 20.1299 11.5547 20.2061C11.4668 20.2881 11.3672 20.3291 11.2559 20.3291C11.209 20.3291 11.1592 20.3262 11.1064 20.3203C11.0537 20.3145 11.0098 20.291 10.9746 20.25C10.957 20.2441 10.9365 20.2324 10.9131 20.2148C10.8896 20.1973 10.8662 20.1768 10.8428 20.1533C10.8193 20.1299 10.7988 20.1094 10.7812 20.0918C10.7637 20.0742 10.7549 20.0625 10.7549 20.0566V18.1055C10.585 18.1055 10.418 18.0967 10.2539 18.0791C10.0898 18.0674 9.92871 18.041 9.77051 18C9.65332 17.959 9.5332 17.9238 9.41016 17.8945C9.28711 17.8594 9.1582 17.8184 9.02344 17.7715C9.00586 17.7656 8.98828 17.7568 8.9707 17.7451C8.93555 17.7334 8.91211 17.7217 8.90039 17.71C8.89453 17.71 8.84766 17.7041 8.75977 17.6924C8.67188 17.6748 8.60742 17.666 8.56641 17.666H8.47852C8.45508 17.6777 8.4082 17.7012 8.33789 17.7363C8.26758 17.7715 8.18848 17.8125 8.10059 17.8594C8.01855 17.9004 7.93652 17.9385 7.85449 17.9736C7.77832 18.0088 7.72266 18.0322 7.6875 18.0439C7.66406 18.0615 7.62305 18.0762 7.56445 18.0879C7.51172 18.0996 7.48242 18.1055 7.47656 18.1055C7.45312 18.1055 7.43262 18.0732 7.41504 18.0088C7.39746 17.9443 7.38281 17.8711 7.37109 17.7891C7.36523 17.7012 7.35938 17.6162 7.35352 17.5342C7.35352 17.4521 7.35352 17.3936 7.35352 17.3584V17.165C7.35352 17.1592 7.35938 17.1357 7.37109 17.0947C7.38281 17.0537 7.39746 17.0127 7.41504 16.9717C7.43262 16.9248 7.44727 16.8838 7.45898 16.8486C7.4707 16.8076 7.47656 16.7812 7.47656 16.7695C7.47656 16.7461 7.48242 16.6904 7.49414 16.6025C7.50586 16.5088 7.51465 16.4092 7.52051 16.3037C7.53223 16.1982 7.54102 16.0957 7.54688 15.9961C7.55859 15.8906 7.56445 15.8145 7.56445 15.7676V14.1504C7.57031 14.1152 7.57617 14.0684 7.58203 14.0098C7.59375 13.9512 7.6084 13.8955 7.62598 13.8428C7.64355 13.7842 7.66699 13.7344 7.69629 13.6934C7.73145 13.6465 7.77539 13.623 7.82812 13.623C7.92773 13.623 8.00684 13.6494 8.06543 13.7021C8.12402 13.7549 8.16797 13.8193 8.19727 13.8955C8.22656 13.9658 8.24707 14.0449 8.25879 14.1328C8.27051 14.2207 8.28223 14.2998 8.29395 14.3701C8.3877 14.8096 8.54883 15.2227 8.77734 15.6094C9.00586 15.9961 9.2959 16.3477 9.64746 16.6641C9.67676 16.6875 9.71484 16.7197 9.76172 16.7607C9.81445 16.8018 9.86426 16.8428 9.91113 16.8838C9.96973 16.9365 10.0283 16.9893 10.0869 17.042C10.1104 17.0537 10.1484 17.0713 10.2012 17.0947C10.2539 17.1123 10.3096 17.1328 10.3682 17.1562C10.4326 17.1738 10.4971 17.1973 10.5615 17.2266C10.6318 17.25 10.6963 17.2705 10.7549 17.2881V13.0166Z" fill="white"/>
<defs>
<linearGradient id="paint0_linear_6_63" x1="4.5" y1="21.5" x2="22" y2="7.5" gradientUnits="userSpaceOnUse">
<stop stop-color="#004B97" stop-opacity="0.7"/>
<stop offset="1" stop-color="#24B685" stop-opacity="0.8"/>
</linearGradient>
</defs>
</svg>
