<svg width="100" height="100" viewBox="0 0 100 100" fill="none" xmlns="http://www.w3.org/2000/svg">
<circle cx="50" cy="50" r="50" fill="#FBFBFB"/>
<rect x="16" y="73" width="68" height="9" rx="2" fill="#004B97" fill-opacity="0.7"/>
<line x1="16" y1="76.5" x2="84" y2="76.5" stroke="#BC794D"/>
<rect x="18" y="19" width="4" height="54" rx="1" fill="#004B97" fill-opacity="0.7"/>
<rect x="77" y="18" width="4" height="55" rx="1" fill="#004B97" fill-opacity="0.7"/>
<line x1="22" y1="28.5" x2="77" y2="28.5" stroke="#BC794D"/>
<rect x="26" y="20" width="14" height="3" rx="1.5" fill="#F5F5F5"/>
<rect x="60" y="20" width="14" height="3" rx="1.5" fill="#F5F5F5"/>
<rect x="43" y="20" width="13" height="3" rx="1.5" fill="#F5F5F5"/>
<path d="M62 24C62 23.4477 62.4477 23 63 23H71C71.5523 23 72 23.4477 72 24V66.0405C72 66.3423 71.8644 66.629 71.6266 66.8148C67.9168 69.7127 65.7455 69.7447 62.3362 66.8128C62.1205 66.6272 62 66.355 62 66.0705V24Z" fill="#F5F5F5"/>
<path d="M45 24C45 23.4477 45.4477 23 46 23H53C53.5523 23 54 23.4477 54 24V66.0721C54 66.3557 53.8802 66.6269 53.6661 66.8129C50.3243 69.7141 48.3696 69.7454 45.298 66.8084C45.1056 66.6244 45 66.368 45 66.1017V24Z" fill="#F5F5F5"/>
<path d="M47.501 44.5C48.0746 44.4983 48.6934 44.7688 49.5957 45.4736C50.2686 46.0934 50.9253 46.5097 51.7256 46.5205C52.2896 46.528 52.8638 46.3302 53.5 45.9785V66.1738C51.7682 67.7987 50.5274 68.4977 49.3984 68.5C48.2785 68.5023 47.1024 67.8171 45.5 66.1855V45.3447C46.3607 44.7462 46.9608 44.5017 47.501 44.5Z" fill="url(#paint0_linear_570_936)" stroke="url(#paint1_linear_570_936)" stroke-linecap="round" stroke-linejoin="round"/>
<path d="M28 24C28 23.4477 28.4477 23 29 23H37C37.5523 23 38 23.4477 38 24V66.0405C38 66.3423 37.8644 66.629 37.6266 66.8148C33.9168 69.7127 31.7455 69.7447 28.3362 66.8128C28.1205 66.6272 28 66.355 28 66.0705V24Z" fill="#F5F5F5"/>
<rect x="25" y="26" width="50" height="5" rx="2" fill="#BC794D"/>
<path d="M28.5 47.7217C30.6193 48.4518 32.8251 48.5258 37.5 48.8145V66.0469C35.5337 67.7105 34.1104 68.4815 32.8125 68.5C31.5344 68.518 30.2303 67.8037 28.5 66.0713V47.7217Z" fill="url(#paint2_linear_570_936)" fill-opacity="0.74" stroke="url(#paint3_linear_570_936)" stroke-linecap="round" stroke-linejoin="round"/>
<path d="M68.1602 51.7979C66.736 51.6383 64.987 51.413 62.5 51.5352V66.9736C64.4705 68.689 65.8932 69.4811 67.1875 69.5C68.4613 69.5185 69.7652 68.7855 71.5 66.998V51.7588C70.4429 52.0345 69.3921 51.9359 68.1602 51.7979Z" fill="url(#paint4_linear_570_936)" fill-opacity="0.74" stroke="url(#paint5_linear_570_936)" stroke-linecap="round" stroke-linejoin="round"/>
<defs>
<linearGradient id="paint0_linear_570_936" x1="49.5" y1="44" x2="49.5" y2="69" gradientUnits="userSpaceOnUse">
<stop stop-color="#D0F7E0"/>
<stop offset="1" stop-color="#DFFF94" stop-opacity="0.6"/>
</linearGradient>
<linearGradient id="paint1_linear_570_936" x1="49.5" y1="44" x2="49.5" y2="69" gradientUnits="userSpaceOnUse">
<stop stop-color="#D2F8DD"/>
<stop offset="1" stop-color="#E6FBBB"/>
</linearGradient>
<linearGradient id="paint2_linear_570_936" x1="33" y1="47" x2="33" y2="69" gradientUnits="userSpaceOnUse">
<stop stop-color="#CEF0FF"/>
<stop offset="1" stop-color="#82AEFF"/>
</linearGradient>
<linearGradient id="paint3_linear_570_936" x1="33" y1="47" x2="33" y2="69" gradientUnits="userSpaceOnUse">
<stop stop-color="#D2ECFC"/>
<stop offset="1" stop-color="#A4C4FC"/>
</linearGradient>
<linearGradient id="paint4_linear_570_936" x1="67" y1="47.3735" x2="67" y2="70" gradientUnits="userSpaceOnUse">
<stop stop-color="#E61066"/>
<stop offset="1" stop-color="#FFFF72"/>
</linearGradient>
<linearGradient id="paint5_linear_570_936" x1="67" y1="47.3735" x2="67" y2="70" gradientUnits="userSpaceOnUse">
<stop stop-color="#E54D6E"/>
<stop offset="1" stop-color="#FBF393"/>
</linearGradient>
</defs>
</svg>
