<svg width="71" height="24" viewBox="0 0 71 24" fill="none" xmlns="http://www.w3.org/2000/svg">
<path d="M6.82 18L9.84 3.72H17.08L16.74 5.3H11.28L10.34 9.76H15.44L15.14 11.32H10.02L8.92 16.42H14.4L14.06 18H6.82ZM15.2334 18L21.0534 10.44L18.5134 3.72H20.3134L22.2534 9.18L26.4934 3.72H28.4534L23.0534 10.52L25.7534 18H23.8734L21.8334 11.82L17.1934 18H15.2334ZM27.6403 18L30.6603 3.72H33.8803C34.907 3.72 35.7336 3.88 36.3603 4.2C36.987 4.50667 37.4403 4.94 37.7203 5.5C38.0136 6.04667 38.1603 6.69333 38.1603 7.44C38.1603 8.24 38.027 8.95333 37.7603 9.58C37.4936 10.1933 37.0936 10.7133 36.5603 11.14C36.027 11.5667 35.367 11.8867 34.5803 12.1C33.807 12.3133 32.907 12.42 31.8803 12.42H30.6003L29.4203 18H27.6403ZM32.1603 10.92C33.0136 10.92 33.7536 10.8 34.3803 10.56C35.007 10.32 35.487 9.94667 35.8203 9.44C36.167 8.93333 36.3403 8.28667 36.3403 7.5C36.3403 6.71333 36.1136 6.14667 35.6603 5.8C35.2203 5.44 34.547 5.26 33.6403 5.26H32.1203L30.9203 10.92H32.1603ZM45.638 13.71V8.16H40.118V6.39H45.638V0.839999H47.438V6.39H52.988V8.16H47.438V13.71H45.638Z" fill="#FFC857"/>
<line x1="3.5" y1="20.5" x2="38.5" y2="20.5" stroke="url(#paint0_linear_289_444)" stroke-linecap="round"/>
<line x1="0.5" y1="23.5" x2="35.5" y2="23.5" stroke="url(#paint1_linear_289_444)" stroke-opacity="0.7" stroke-linecap="round"/>
<defs>
<linearGradient id="paint0_linear_289_444" x1="3" y1="21.5" x2="39" y2="21.5" gradientUnits="userSpaceOnUse">
<stop stop-color="#004B97" stop-opacity="0.7"/>
<stop offset="1" stop-color="#24B685" stop-opacity="0.8"/>
</linearGradient>
<linearGradient id="paint1_linear_289_444" x1="0" y1="24.5" x2="36" y2="24.5" gradientUnits="userSpaceOnUse">
<stop stop-color="#004B97"/>
<stop offset="1" stop-color="#24B685" stop-opacity="0.8"/>
</linearGradient>
</defs>
</svg>
