<svg width="108" height="108" viewBox="0 0 108 108" fill="none" xmlns="http://www.w3.org/2000/svg">
<g filter="url(#filter0_d_552_860)">
<rect x="4" width="100" height="100" rx="50" fill="white"/>
</g>
<path d="M42 47L59.3205 74.75H24.6795L42 47Z" fill="url(#paint0_linear_552_860)" fill-opacity="0.8"/>
<line x1="64.5" y1="40" x2="64.5" y2="18" stroke="#B47E59"/>
<path d="M41 18H64V34H41L47 26L41 18Z" fill="url(#paint1_linear_552_860)"/>
<path d="M64.5 39L79.6554 75H49.3446L64.5 39Z" fill="url(#paint2_linear_552_860)"/>
<line x1="22" y1="74" x2="86" y2="74" stroke="#B47E59" stroke-width="2"/>
<path d="M64.5 38.5L59 52L62 57L64.5 54L67.5 57L70 52L64.5 38.5Z" fill="url(#paint3_linear_552_860)"/>
<defs>
<filter id="filter0_d_552_860" x="0" y="0" width="108" height="108" filterUnits="userSpaceOnUse" color-interpolation-filters="sRGB">
<feFlood flood-opacity="0" result="BackgroundImageFix"/>
<feColorMatrix in="SourceAlpha" type="matrix" values="0 0 0 0 0 0 0 0 0 0 0 0 0 0 0 0 0 0 127 0" result="hardAlpha"/>
<feOffset dy="4"/>
<feGaussianBlur stdDeviation="2"/>
<feComposite in2="hardAlpha" operator="out"/>
<feColorMatrix type="matrix" values="0 0 0 0 0 0 0 0 0 0 0 0 0 0 0 0 0 0 0.25 0"/>
<feBlend mode="normal" in2="BackgroundImageFix" result="effect1_dropShadow_552_860"/>
<feBlend mode="normal" in="SourceGraphic" in2="effect1_dropShadow_552_860" result="shape"/>
</filter>
<linearGradient id="paint0_linear_552_860" x1="42" y1="47" x2="42" y2="84" gradientUnits="userSpaceOnUse">
<stop stop-color="#30E96E"/>
<stop offset="1" stop-color="#32B4CB"/>
</linearGradient>
<linearGradient id="paint1_linear_552_860" x1="64" y1="26" x2="41" y2="26" gradientUnits="userSpaceOnUse">
<stop stop-color="#FFD900"/>
<stop offset="1" stop-color="#FFF4BE"/>
</linearGradient>
<linearGradient id="paint2_linear_552_860" x1="64.5" y1="39" x2="64.5" y2="87" gradientUnits="userSpaceOnUse">
<stop offset="0.269231" stop-color="#B3FF00"/>
<stop offset="1" stop-color="#199F46"/>
</linearGradient>
<linearGradient id="paint3_linear_552_860" x1="64.5" y1="38.5" x2="64.5" y2="57" gradientUnits="userSpaceOnUse">
<stop stop-color="#D7FFBE"/>
<stop offset="1" stop-color="#EAFFCC"/>
</linearGradient>
</defs>
</svg>
