<svg width="100" height="100" viewBox="0 0 100 100" fill="none" xmlns="http://www.w3.org/2000/svg">
<rect width="100" height="100" rx="50" fill="white"/>
<path d="M38 47L55.3205 74.75H20.6795L38 47Z" fill="url(#paint0_linear_572_1084)" fill-opacity="0.8"/>
<line x1="60.5" y1="40" x2="60.5" y2="18" stroke="#B47E59"/>
<path d="M37 18H60V34H37L43 26L37 18Z" fill="url(#paint1_linear_572_1084)"/>
<path d="M60.5 39L75.6554 75H45.3446L60.5 39Z" fill="url(#paint2_linear_572_1084)"/>
<line x1="18" y1="74" x2="82" y2="74" stroke="#B47E59" stroke-width="2"/>
<path d="M60.5 38.5L55 52L58 57L60.5 54L63.5 57L66 52L60.5 38.5Z" fill="url(#paint3_linear_572_1084)"/>
<defs>
<linearGradient id="paint0_linear_572_1084" x1="38" y1="47" x2="38" y2="84" gradientUnits="userSpaceOnUse">
<stop stop-color="#30E96E"/>
<stop offset="1" stop-color="#32B4CB"/>
</linearGradient>
<linearGradient id="paint1_linear_572_1084" x1="60" y1="26" x2="37" y2="26" gradientUnits="userSpaceOnUse">
<stop stop-color="#FFD900"/>
<stop offset="1" stop-color="#FFF4BE"/>
</linearGradient>
<linearGradient id="paint2_linear_572_1084" x1="60.5" y1="39" x2="60.5" y2="87" gradientUnits="userSpaceOnUse">
<stop offset="0.269231" stop-color="#B3FF00"/>
<stop offset="1" stop-color="#199F46"/>
</linearGradient>
<linearGradient id="paint3_linear_572_1084" x1="60.5" y1="38.5" x2="60.5" y2="57" gradientUnits="userSpaceOnUse">
<stop stop-color="#D7FFBE"/>
<stop offset="1" stop-color="#EAFFCC"/>
</linearGradient>
</defs>
</svg>
