<svg width="100" height="100" viewBox="0 0 100 100" fill="none" xmlns="http://www.w3.org/2000/svg">
<g clip-path="url(#clip0_10_286)">
<rect width="100" height="100" fill="white"/>
<circle cx="50" cy="50" r="50" fill="#FBFBFB"/>
<rect x="18" y="31" width="26" height="52" rx="1" fill="url(#paint0_linear_10_286)" fill-opacity="0.8"/>
<path d="M31 31V15H25" stroke="#24B685" stroke-opacity="0.6"/>
<path d="M19 80.5H42" stroke="white"/>
<rect x="50.2075" y="33.1918" width="4" height="20" transform="rotate(-4.58246 50.2075 33.1918)" fill="url(#paint1_linear_10_286)"/>
<rect x="54" y="41" width="4" height="12" fill="url(#paint2_linear_10_286)"/>
<rect x="46.9971" y="41.4338" width="4" height="12" transform="rotate(-9.91094 46.9971 41.4338)" fill="url(#paint3_linear_10_286)"/>
<rect x="63" y="41" width="4" height="12" fill="url(#paint4_linear_10_286)"/>
<rect x="70.5769" y="28.8419" width="4" height="24" transform="rotate(7.46914 70.5769 28.8419)" fill="url(#paint5_linear_10_286)"/>
<rect x="72.9416" y="40.7646" width="4" height="12" transform="rotate(8.80146 72.9416 40.7646)" fill="url(#paint6_linear_10_286)"/>
<rect x="66" y="39" width="4" height="14" fill="url(#paint7_linear_10_286)"/>
<rect x="60" y="40" width="4" height="13" fill="url(#paint8_linear_10_286)"/>
<rect x="57.7568" y="34.8647" width="4" height="18" transform="rotate(4.77926 57.7568 34.8647)" fill="url(#paint9_linear_10_286)"/>
<rect x="48" y="52" width="28" height="30" fill="url(#paint10_linear_10_286)"/>
</g>
<defs>
<linearGradient id="paint0_linear_10_286" x1="31" y1="31" x2="31" y2="83" gradientUnits="userSpaceOnUse">
<stop stop-color="#24B685" stop-opacity="0.6"/>
<stop offset="1" stop-color="#004B97" stop-opacity="0.4"/>
</linearGradient>
<linearGradient id="paint1_linear_10_286" x1="52.2075" y1="33.1918" x2="52.2075" y2="53.1918" gradientUnits="userSpaceOnUse">
<stop stop-color="#E4DE49"/>
<stop offset="0.927885" stop-color="#ABC17E"/>
<stop offset="1" stop-color="#689EBE"/>
</linearGradient>
<linearGradient id="paint2_linear_10_286" x1="56" y1="41" x2="56" y2="53" gradientUnits="userSpaceOnUse">
<stop stop-color="#E4DE49"/>
<stop offset="0.927885" stop-color="#ABC17E"/>
<stop offset="1" stop-color="#689EBE"/>
</linearGradient>
<linearGradient id="paint3_linear_10_286" x1="48.9971" y1="41.4338" x2="48.9971" y2="53.4338" gradientUnits="userSpaceOnUse">
<stop stop-color="#E4DE49"/>
<stop offset="0.927885" stop-color="#ABC17E"/>
<stop offset="1" stop-color="#689EBE"/>
</linearGradient>
<linearGradient id="paint4_linear_10_286" x1="65" y1="41" x2="65" y2="53" gradientUnits="userSpaceOnUse">
<stop stop-color="#E4DE49"/>
<stop offset="0.927885" stop-color="#ABC17E"/>
<stop offset="1" stop-color="#689EBE"/>
</linearGradient>
<linearGradient id="paint5_linear_10_286" x1="72.5769" y1="28.8419" x2="72.5769" y2="52.8419" gradientUnits="userSpaceOnUse">
<stop stop-color="#E4DE49"/>
<stop offset="0.927885" stop-color="#ABC17E"/>
<stop offset="1" stop-color="#689EBE"/>
</linearGradient>
<linearGradient id="paint6_linear_10_286" x1="74.9416" y1="40.7646" x2="74.9416" y2="52.7646" gradientUnits="userSpaceOnUse">
<stop stop-color="#E4DE49"/>
<stop offset="0.927885" stop-color="#ABC17E"/>
<stop offset="1" stop-color="#689EBE"/>
</linearGradient>
<linearGradient id="paint7_linear_10_286" x1="68" y1="39" x2="68" y2="53" gradientUnits="userSpaceOnUse">
<stop stop-color="#E4DE49"/>
<stop offset="0.927885" stop-color="#ABC17E"/>
<stop offset="1" stop-color="#689EBE"/>
</linearGradient>
<linearGradient id="paint8_linear_10_286" x1="62" y1="40" x2="62" y2="53" gradientUnits="userSpaceOnUse">
<stop stop-color="#E4DE49"/>
<stop offset="0.927885" stop-color="#ABC17E"/>
<stop offset="1" stop-color="#689EBE"/>
</linearGradient>
<linearGradient id="paint9_linear_10_286" x1="59.7568" y1="34.8647" x2="59.7568" y2="52.8647" gradientUnits="userSpaceOnUse">
<stop stop-color="#E4DE49"/>
<stop offset="0.927885" stop-color="#ABC17E"/>
<stop offset="1" stop-color="#689EBE"/>
</linearGradient>
<linearGradient id="paint10_linear_10_286" x1="62" y1="52" x2="62" y2="82" gradientUnits="userSpaceOnUse">
<stop stop-color="#E4DE49"/>
<stop offset="1" stop-color="#BC794D"/>
</linearGradient>
<clipPath id="clip0_10_286">
<rect width="100" height="100" fill="white"/>
</clipPath>
</defs>
</svg>
