<svg xmlns="http://www.w3.org/2000/svg" xmlns:xlink="http://www.w3.org/1999/xlink" preserveAspectRatio="xMidYMid meet" version="1.0" viewBox="-0.3 -0.3 500.7 500.7" zoomAndPan="magnify" style="fill: rgb(0, 0, 0);" original_string_length="19520" width="2474.9999344348907px" height="2474.9999344348907px"><g><g><g><path d="m181.77,386.17c-.51.94-1.83,1.33-1.78,2.8-.93-.47-1.84-.78-2.87-.71-1.16.07-2.06-.58-2.54-1.56-.55-1.13-1.41-1.81-2.48-2.33.06-.06.12-.12.18-.19,1.2-.45,1.86.31,2.48,1.12,1.99,2.58,2.83,2.74,5.66,1.02.35-.21.69-.45,1.14-.32.07.06.13.11.2.17Z" style="fill: rgb(252, 252, 252);"/></g><g><path d="m299.53,431.68c.08.08.19.15.23.25.28.73.04,1.41-.63,1.58-.53.13-1.27-.24-1.47-.83-.13-.39-.24-.6-.6-.71-.05-.02-.13-.09-.13-.1.43-.72.74-1.6,1.36-2.1.44-.36.63.45.83.84.05.1.04.23.06.35-.06.2-.09.41-.07.6,0,.1.06.18.16.21.08-.04.17-.07.26-.08Z" style="fill: rgb(252, 252, 252);"/></g><g><path d="m171.75,384.03c-.68,0-1.27-.15-1.41-.96-.13-.76-1.09-1.06-1.07-1.91.08-.03.16-.06.23-.09,1.27.49,1.96,1.49,2.36,2.73-.04.08-.07.15-.11.23Z" style="fill: rgb(252, 252, 252);"/></g><g><path d="m186.04,381.55c-.56,1.5-1.63,2.59-2.86,3.54-.05-.06-.11-.13-.16-.19.41-1.59,1.48-2.64,2.81-3.48.07.04.14.08.21.13Z" style="fill: rgb(252, 252, 252);"/></g><g><path d="m183.18,385.09c-.13.8-.8.9-1.41,1.08,0,0-.07-.07-.07-.07.04-.88.45-1.31,1.37-1.11l.11.11Z" style="fill: rgb(252, 252, 252);"/></g><g><path d="m299.53,431.68c-.01.13-.03.27-.04.4-.25.14-.48.18-.69-.07.12-.35-.55-.98.37-1.06.28.16.34.43.36.72Z" style="fill: rgb(234, 233, 229);"/></g><g><path d="m169.27,381.16c-.27-.15-.34-.41-.37-.69,0,0,.09-.09.09-.09.44.06.51.32.38.69l-.11.09Z" style="fill: rgb(252, 252, 252);"/></g><g><path d="m251.67,425.14s.07.1.07.14c0,.04-.06.08-.09.12-.11-.1-.1-.19.02-.27Z" style="fill: rgb(252, 252, 252);"/></g><g><path d="m294.81,430.27s-.07.08-.1.12c-.03-.05-.07-.1-.07-.14,0-.04.06-.08.1-.12.03.05.05.1.08.14Z" style="fill: rgb(252, 252, 252);"/></g><g><path d="m296.81,430.71c-.01-.05-.03-.1-.04-.15.04-.01.12-.05.13-.03.1.14.07.2-.08.19Z" style="fill: rgb(252, 252, 252);"/></g><g><path d="m295.08,432.62s.08.1.07.14c0,.04-.06.08-.1.12-.11-.1-.1-.19.02-.27Z" style="fill: rgb(252, 252, 252);"/></g><g><path d="m280.75,411.62c-.05.02-.1.03-.15.05-.01-.04-.05-.12-.03-.13.14-.1.2-.07.19.08Z" style="fill: rgb(252, 252, 252);"/></g><g><path d="m172.1,384.36c-.12-.11-.23-.22-.35-.34,0,0,.04-.05.04-.05.27-.07.38.06.4.31l-.09.08Z" style="fill: rgb(252, 252, 252);"/></g><g><path d="m298.8,432.02c.23.02.46.04.69.07-.08.23-.21.49-.45.47-.31-.02-.23-.32-.24-.54Z" style="fill: rgb(182, 178, 172);"/></g><g><path d="m177.35,383.78s.09-.06.13-.05c.14.04.16.11.04.18-.03.02-.1,0-.14-.03-.02-.02-.02-.07-.03-.11Z" style="fill: rgb(134, 118, 82);"/></g><g><path d="M177.98 386.04L177.94 385.93 178.04 385.94 177.98 386.04z" style="fill: rgb(173, 160, 130);"/></g><g><path d="m500.34,250c0,71.92-30.33,136.76-78.89,182.42-11.51,10.82-24.04,20.56-37.44,29.07-25.66,16.3-54.5,28.05-85.37,34.13-15.73,3.09-31.99,4.72-48.64,4.72s-32.9-1.63-48.64-4.72c-30.87-6.08-59.71-17.83-85.37-34.13-13.4-8.51-25.93-18.25-37.44-29.07C29.98,386.76-.34,321.92-.34,250-.34,111.74,111.74-.34,250-.34s250.34,112.08,250.34,250.34Z" style="fill: rgb(227, 235, 224);"/></g><g><path d="m386.05,314.28h-225.78c-2.44-15.19-17.9-39.92-17.9-39.92-6.93,10.9-7.53,31.2-7.45,39.92h-22.89s-7.98-15.33-5.43-41.52c2.55-26.19,18.2-33.85,17.88-46.95s-21.08-24.27-19.16-41.2c1.92-16.93,40.88-35.77,44.71-43.75,3.83-7.98-5.75-13.73-4.15-23.95,1.6-10.22,5.43-12.14,23.31-26.51,17.88-14.37,64.83-19.16,86.55-19.16,43.75,0,78.88,22.04,88.78,41.2,9.9,19.16,2.24,33.53,10.22,45.03,7.98,11.5,26.51,15.01,28.74,36.09,2.24,21.08-16.93,34.17-15.01,43.43,1.92,9.26,19.48,31.62,21.4,42.48,1.92,10.86-3.83,34.81-3.83,34.81Z" style="fill: rgb(125, 36, 22);"/></g><g><ellipse cx="257.03" cy="54.64" rx="40.24" ry="29.38" style="fill: rgb(125, 36, 22);"/></g><g><path d="m289.83,78.6l-1.1-1.95s5-2.85,8.71-7.89c4.88-6.61,5.45-13.78,1.69-21.29-8.85-17.71-25.89-25.67-50.65-23.66-11.04.9-21.38,4.62-29.12,10.48-7.46,5.66-12.07,12.93-12.98,20.48-.74,6.19,1.6,11.51,6.96,15.8,4.1,3.28,8.51,4.71,8.55,4.72l-.67,2.13c-.19-.06-4.8-1.54-9.22-5.06-5.96-4.75-8.67-10.92-7.84-17.85.98-8.16,5.9-15.97,13.85-22,8.07-6.11,18.82-9.99,30.29-10.92,12.34-1,23,.45,31.68,4.32,9.27,4.13,16.39,11.05,21.14,20.56,5.2,10.41,1.82,18.62-1.94,23.68-4.01,5.4-9.15,8.33-9.37,8.45Z" style="fill: rgb(125, 36, 22);"/></g><g><path d="m98.3,211.61c-.55,0-1.03-.4-1.11-.96-.13-.92-3.2-22.61-2.24-33.47.98-11.08,2.85-12.81,10.74-20.09l.47-.44c4.19-3.87,11.21-7.22,17.4-10.18,5.73-2.74,11.65-5.56,12.32-7.56.8-2.4-.97-4.86-2.69-7.24-1.19-1.66-2.32-3.22-2.47-4.75-.39-3.91,1.47-12.24,18.36-24.02,16.91-11.8,39.13-17.05,39.35-17.1.6-.14,1.2.23,1.34.84.14.6-.23,1.2-.84,1.34-.22.05-22.03,5.2-38.58,16.75-16.54,11.55-17.69,19.21-17.41,21.97.09.93,1.05,2.26,2.06,3.66,1.85,2.57,4.16,5.77,3,9.26-.92,2.76-5.72,5.17-13.48,8.87-6.05,2.89-12.91,6.16-16.85,9.8l-.47.44c-7.91,7.3-9.13,8.42-10.03,18.64-.94,10.61,2.2,32.74,2.23,32.96.09.61-.34,1.18-.95,1.26-.05,0-.11.01-.16.01Z" style="fill: rgb(125, 36, 22);"/></g><g><path d="m384.77,169.45c-.54,0-1.02-.4-1.1-.95-.87-5.76-8.46-12.58-14.56-18.06-4.9-4.4-8.77-7.87-9.37-10.61-.53-2.38.34-5.34,1.44-9.09,1.82-6.21,4.08-13.93,1.15-22.73-3.76-11.27-44.44-20.34-59.8-22.88-.61-.1-1.02-.68-.92-1.29.1-.61.68-1.02,1.29-.92.14.02,14.2,2.37,28.66,6.45,19.72,5.56,30.78,11.6,32.89,17.93,3.16,9.46.68,17.91-1.12,24.07-.97,3.31-1.81,6.16-1.4,7.98.45,2.04,4.45,5.63,8.69,9.43,6.7,6.01,14.29,12.83,15.28,19.39.09.61-.33,1.18-.94,1.27-.06,0-.11.01-.17.01Z" style="fill: rgb(125, 36, 22);"/></g><g><path d="m298.64,495.62c-15.73,3.09-31.99,4.72-48.64,4.72s-32.9-1.63-48.64-4.72c-30.87-6.08-59.71-17.83-85.37-34.13-13.4-8.51-25.93-18.25-37.44-29.07,6.47-18.21,15.58-40.62,23.9-49.47,1.24-1.31,2.56-2.48,3.97-3.52.11-.08.23-.17.34-.25.12-.09.25-.18.37-.26.09-.07.19-.13.29-.2.13-.09.26-.18.39-.26.96-.63,1.96-1.21,2.98-1.74.14-.07.28-.15.42-.22.14-.07.28-.14.43-.21.08-.04.16-.08.25-.12.1-.05.21-.1.31-.15.26-.12.51-.24.77-.35.13-.06.26-.11.4-.17.07-.03.14-.06.22-.09.16-.07.31-.13.47-.19.37-.15.75-.3,1.13-.44.3-.11.59-.22.9-.32.13-.04.25-.09.39-.13.19-.06.38-.13.57-.19.25-.08.5-.16.76-.24.22-.07.44-.13.66-.2.34-.1.68-.2,1.01-.29.47-.13.94-.25,1.41-.37.33-.08.66-.16.99-.24.06-.01.13-.03.19-.04.25-.05.49-.11.74-.16,1.05-.23,2.11-.44,3.2-.62.3-.05.6-.1.91-.16h.07c.7-.13,1.4-.23,2.11-.34.02,0,.03,0,.04,0,1.09-.16,2.19-.3,3.3-.44.4-.05.8-.09,1.21-.14.4-.04.8-.09,1.2-.13.42-.04.83-.09,1.25-.13.4-.04.79-.08,1.19-.12,2.14-.21,4.31-.4,6.51-.6.79-.07,1.59-.14,2.4-.21,2.86-.26,5.77-.54,8.69-.88.42-.05.83-.1,1.25-.15.27-.03.53-.06.8-.1.33-.04.66-.08.99-.13.72-.09,1.44-.2,2.17-.3.25-.04.49-.07.74-.11.35-.05.7-.11,1.05-.17.36-.06.71-.11,1.07-.18.29-.05.58-.1.88-.15.32-.05.63-.11.95-.17.13-.02.26-.05.4-.07.32-.06.64-.12.96-.19.78-.15,1.56-.31,2.34-.49.33-.07.66-.15.99-.22.98-.22,1.96-.47,2.93-.72.27-.07.54-.15.81-.22.23-.06.46-.13.69-.19.33-.09.66-.18.98-.28.41-.11.8-.23,1.2-.35.8-.24,1.58-.48,2.35-.73.38-.12.76-.24,1.13-.37.38-.12.75-.25,1.13-.38s.74-.26,1.1-.39c.35-.13.71-.26,1.06-.39,0,0,.01,0,.02,0,.35-.13.7-.26,1.05-.4.27-.1.54-.21.81-.31.07-.03.15-.06.22-.09.28-.11.56-.22.83-.33.12-.05.24-.09.35-.15.27-.11.54-.22.81-.34.06-.02.12-.05.18-.07.27-.11.53-.23.79-.34.32-.14.63-.28.95-.42.31-.14.62-.28.93-.43.64-.3,1.26-.6,1.88-.91s1.21-.61,1.79-.92c.22-.11.43-.23.64-.34.55-.3,1.08-.6,1.61-.91.54-.32,1.07-.64,1.59-.96.17-.1.33-.21.5-.31,2.64-1.68,4.92-3.4,6.87-5.14.08-.08.17-.16.26-.23.21-.19.42-.38.62-.57h0c4.16-3.91,6.69-7.83,8.06-11.32,1.54-3.92,2.1-13.28,2.24-22.57.18-11.93-.32-23.73-.32-23.73l24.69-9.83,9.8-3.9,14.2,5.65,20.29,8.08s-.57,13.31-.28,25.95c.2,8.53.78,16.75,2.2,20.36,1.37,3.49,3.91,7.41,8.06,11.32h0c.2.19.41.38.62.57.08.08.17.16.26.23,1.95,1.73,4.22,3.46,6.87,5.14.17.1.33.21.5.31.52.32,1.05.64,1.59.96.52.31,1.06.61,1.61.91.21.11.43.23.64.34.58.31,1.18.62,1.79.92s1.24.61,1.88.91c.31.15.61.29.93.43.31.14.63.28.95.42.26.11.53.23.79.34.06.03.11.05.18.07.27.11.54.23.81.34.12.05.24.1.35.15.27.11.55.23.83.33.07.03.15.06.22.09.27.11.54.21.81.31.35.14.7.27,1.05.4,0,0,.01,0,.02,0,.35.13.7.26,1.06.39.36.13.73.26,1.1.39s.75.26,1.13.38c.38.13.75.25,1.13.37.77.25,1.55.49,2.35.73.4.12.8.24,1.2.35.32.09.65.19.98.28.23.06.46.13.69.19.27.07.54.15.81.22.97.26,1.95.5,2.93.72.33.08.66.15.99.22.78.17,1.56.33,2.34.49.32.06.64.13.96.19.13.02.26.05.4.07.32.06.63.11.95.17.29.05.58.1.88.15.36.06.71.12,1.07.18.35.06.7.11,1.05.17.25.04.49.07.74.11.72.1,1.44.21,2.17.3.33.04.66.09.99.13.27.04.54.07.8.1.42.05.83.1,1.25.15,2.92.34,5.82.61,8.69.88.8.07,1.6.14,2.4.21,2.2.2,4.38.39,6.51.6.4.04.79.08,1.19.12.42.04.83.09,1.25.13.4.04.8.09,1.2.13.41.05.81.09,1.21.14,1.11.14,2.22.28,3.3.44.01,0,.03,0,.04,0,.71.1,1.41.21,2.11.33h.07c.3.06.6.11.91.17,1.08.19,2.15.4,3.2.62.25.05.5.11.74.16.06.02.13.03.19.04.33.08.66.16.99.24.47.12.95.24,1.41.37.34.09.68.19,1.01.29.22.06.44.13.66.2.26.08.51.16.76.24.19.06.38.12.57.19.13.04.26.09.39.13.3.1.6.21.9.32.38.14.75.28,1.13.44.16.06.31.13.47.19.07.03.15.06.22.09.14.05.27.11.4.17.26.11.52.23.77.35.1.05.21.09.31.15.08.04.17.08.25.12.15.07.29.14.43.21.14.07.28.14.42.22,1.03.53,2.02,1.11,2.98,1.74.13.09.26.18.39.26.09.06.19.13.29.2.13.08.25.17.37.26.12.08.23.17.34.25,1.41,1.04,2.73,2.21,3.97,3.52,8.32,8.85,17.44,31.26,23.9,49.47-11.51,10.82-24.04,20.56-37.44,29.07-25.66,16.3-54.5,28.05-85.37,34.13Z" style="fill: rgb(219, 156, 123);"/></g><g><path d="m284.21,317.56c-8.22,6.47-21.63,14.14-38.04,13.01-16.66-1.15-25.73-9.07-30.34-15.23.18-11.93-.32-23.74-.32-23.74l24.69-9.83c8.16.6,16.61,1.22,24,1.75l20.29,8.08s-.57,13.31-.28,25.95Z" style="fill: rgb(196, 115, 71);"/></g><g><path d="m326.01,208.57c0,56.8-28.1,102.84-76.01,102.84s-76.01-46.04-76.01-102.84,11.5-106.67,76.01-106.67,76.01,49.87,76.01,106.67Z" style="fill: rgb(219, 156, 123);"/></g><g><path d="m175.59,191.96s-7.35-10.22-19.8-5.75c-12.46,4.47-11.18,30.02,0,39.6,11.18,9.58,22.36.64,22.36.64l-2.55-34.49Z" style="fill: rgb(219, 156, 123);"/></g><g><path d="m170.68,223.2c-1.71,0-3.93-.48-6.73-1.95-4.53-2.37-7.83-7.32-8.01-12.02-.14-3.76,1.64-7,5.02-9.11,2.57-1.6,5.12-2.07,7.6-1.39,4.47,1.22,6.88,5.81,6.98,6.01.43.83.1,1.85-.73,2.28-.83.43-1.84.11-2.27-.72-.02-.04-1.86-3.49-4.89-4.31-1.55-.42-3.15-.09-4.9,1-2.34,1.46-3.53,3.58-3.43,6.12.13,3.49,2.74,7.34,6.2,9.16,5.21,2.73,7.2,1.03,7.22,1.01.62-.7,1.69-.76,2.38-.14.7.62.76,1.69.14,2.39-.22.25-1.63,1.69-4.58,1.69Z" style="fill: rgb(195, 114, 69);"/></g><g><path d="m324.41,191.96s7.35-10.22,19.8-5.75c12.46,4.47,11.18,30.02,0,39.6-11.18,9.58-22.36.64-22.36.64l2.55-34.49Z" style="fill: rgb(219, 156, 123);"/></g><g><path d="m329.32,223.2c-2.95,0-4.35-1.44-4.58-1.69l2.52-2.24s-.01-.02-.05-.05c.02.02,1.99,1.8,7.26-.96,3.46-1.81,6.06-5.66,6.2-9.16.1-2.54-1.09-4.66-3.43-6.12-1.76-1.1-3.36-1.42-4.92-1-3.01.82-4.86,4.26-4.87,4.3-.43.83-1.45,1.15-2.28.72-.83-.43-1.15-1.45-.73-2.28.1-.19,2.52-4.78,6.98-6.01,2.48-.68,5.03-.21,7.6,1.39,3.38,2.11,5.16,5.35,5.02,9.11-.18,4.7-3.47,9.64-8.01,12.02-2.81,1.47-5.03,1.95-6.73,1.95Z" style="fill: rgb(195, 114, 69);"/></g><g><path d="m234.03,249.45h31.94s-1.6,14.37-15.97,14.37-15.97-14.37-15.97-14.37Z" style="fill: rgb(255, 255, 255);"/></g><g><ellipse cx="220.14" cy="202.82" rx="4.47" ry="7.98" style="fill: rgb(69, 21, 12);"/></g><g><ellipse cx="279.86" cy="202.82" rx="4.47" ry="7.98" style="fill: rgb(69, 21, 12);"/></g><g><path d="m225.73,187.17c-.58,0-1.14-.32-1.42-.87-.09-.17-1.97-3.66-6.96-3.92-5.16-.27-7.56,2.84-7.58,2.88-.53.71-1.53.85-2.24.32-.71-.53-.85-1.53-.32-2.24.14-.18,3.46-4.51,10.3-4.15,6.92.36,9.54,5.45,9.65,5.67.39.79.07,1.75-.71,2.14-.23.11-.47.17-.71.17Z" style="fill: rgb(69, 21, 12);"/></g><g><path d="m274.27,187.17c-.24,0-.49-.06-.72-.17-.78-.4-1.1-1.35-.71-2.13.11-.22,2.73-5.31,9.65-5.67,6.84-.36,10.17,3.97,10.3,4.15.53.71.39,1.71-.32,2.24-.71.53-1.71.39-2.24-.32-.09-.12-2.5-3.15-7.58-2.88-5.01.26-6.89,3.77-6.96,3.92-.29.55-.85.86-1.42.86Z" style="fill: rgb(69, 21, 12);"/></g><g><path d="m251.28,234.85s-.07,0-.1,0c-.27-.02-6.54-.44-8.5-5.55-.32-.83-1.17-3.05,1.71-17.97,1.39-7.18,2.99-13.94,3.01-14,.22-.91,1.13-1.47,2.03-1.25.91.22,1.47,1.13,1.25,2.03-3.08,12.94-5.74,27.69-4.86,29.98,1.18,3.07,5.51,3.39,5.56,3.39.93.06,1.64.86,1.58,1.79-.06.89-.8,1.58-1.68,1.58Z" style="fill: rgb(195, 114, 69);"/></g><g opacity=".22" style="fill: rgb(255, 68, 64);"><circle cx="200.02" cy="231.89" r="14.05" transform="rotate(-45 200.018 231.88)" style="fill: inherit;"/><circle cx="299.98" cy="231.89" r="14.05" transform="rotate(-76.47 299.992 231.883)" style="fill: inherit;"/></g><g><path d="m259.26,134.16c0,.96-3.51,22.68-19.16,29.38-15.65,6.71-28.74-1.28-28.74-1.28,0,0-9.58,21.72-29.7,16.93,0,0,.74,8.36-7.61,11.05,0,0-8.03-13.92-7.71-25.42.32-11.5,17.88-47.59,45.67-58.76,27.79-11.18,66.11-8.3,79.52,0,13.41,8.3,22.68,16.61,29.06,34.17,6.39,17.57,5.12,50.4,5.12,50.4,0,0-24.28-11.12-24.6-29,0,0-7.66,5.11-22.68-2.55s-19.16-24.91-19.16-24.91Z" style="fill: rgb(125, 36, 22);"/></g><g><path d="m397.55,382.95c8.32,8.85,17.44,31.26,23.9,49.47-11.51,10.82-24.04,20.56-37.44,29.07-25.66,16.3-54.5,28.05-85.37,34.13-15.73,3.09-31.99,4.72-48.64,4.72s-32.9-1.63-48.64-4.72c-30.87-6.08-59.71-17.83-85.37-34.13-13.4-8.51-25.93-18.25-37.44-29.07,6.47-18.21,15.58-40.62,23.9-49.47,1.24-1.31,2.56-2.48,3.97-3.52.11-.08.23-.17.34-.25.12-.09.25-.18.37-.26.09-.07.19-.13.29-.2.13-.09.26-.18.39-.26.96-.63,1.96-1.21,2.98-1.74.14-.07.28-.15.42-.22.14-.07.28-.14.43-.21.08-.04.16-.08.25-.12.1-.05.21-.1.31-.15.26-.12.51-.24.77-.35.13-.06.26-.11.4-.17.07-.03.14-.06.22-.09.16-.07.31-.13.47-.19.37-.15.75-.3,1.13-.44.3-.11.59-.22.9-.32.13-.04.25-.09.39-.13.19-.06.38-.13.57-.19.25-.08.5-.16.76-.24.22-.07.44-.13.66-.2.33-.1.67-.2,1.01-.29.47-.13.94-.25,1.41-.37.33-.08.66-.16.99-.24.06-.01.13-.03.19-.04.25-.05.49-.11.74-.16,1.05-.23,2.11-.44,3.2-.62.3-.05.6-.1.91-.16h.07c.7-.13,1.4-.23,2.11-.34.02,0,.03,0,.04,0,.7-.1,1.4-.19,2.1-.28.4-.05.8-.1,1.2-.15.4-.05.8-.09,1.21-.14.4-.04.8-.09,1.2-.13.42-.04.83-.09,1.25-.13.4-.04.79-.08,1.19-.12,2.14-.21,4.31-.4,6.51-.6.8-.07,1.59-.14,2.4-.21,2.86-.26,5.77-.54,8.69-.88.42-.05.83-.1,1.25-.15.27-.03.54-.06.8-.1.33-.04.66-.08.99-.13.72-.09,1.44-.2,2.17-.3.25-.03.49-.07.74-.11.35-.05.7-.11,1.05-.17.36-.05.71-.11,1.07-.18.29-.05.58-.1.88-.15.32-.05.63-.11.95-.17.13-.02.26-.05.4-.07.32-.06.64-.12.96-.19.78-.15,1.56-.31,2.34-.49.33-.07.66-.15.99-.22.98-.22,1.96-.47,2.93-.72.27-.07.54-.15.81-.22.23-.06.46-.13.69-.19.33-.09.66-.18.98-.28.41-.11.8-.23,1.2-.35.8-.24,1.58-.48,2.35-.73.38-.12.76-.24,1.13-.37.38-.12.75-.25,1.13-.38s.74-.26,1.1-.39c.35-.13.71-.26,1.06-.39,0,0,.01,0,.02,0,.35-.13.7-.26,1.05-.4.27-.1.54-.21.81-.31.07-.03.15-.06.22-.09.28-.11.56-.22.83-.33.12-.05.24-.09.35-.15.27-.11.54-.22.81-.34.06-.02.12-.05.18-.07.27-.11.53-.23.79-.34.32-.14.63-.28.95-.42.31-.14.62-.28.93-.43.64-.3,1.26-.6,1.88-.91s1.21-.61,1.79-.92c.22-.11.43-.23.64-.34.55-.3,1.08-.6,1.61-.91.54-.32,1.07-.64,1.59-.96.17-.1.33-.21.5-.31,2.64-1.68,4.92-3.4,6.87-5.14.09-.08.17-.16.26-.23.21-.19.42-.38.62-.57h0s22.75,12.63,44.47,12.63,44.47-12.63,44.47-12.63h0c.2.19.41.38.62.57.08.08.17.16.26.23,1.95,1.73,4.22,3.46,6.87,5.14.17.1.33.21.5.31.52.32,1.05.64,1.59.96.52.3,1.06.6,1.61.91.21.11.43.23.64.34.58.31,1.18.62,1.79.92s1.24.61,1.88.91c.3.14.61.28.93.43.31.14.63.28.95.42.26.11.53.23.79.34.06.03.11.05.18.07.27.11.54.23.81.34.12.05.24.1.35.15.27.11.55.23.83.33.07.03.15.06.22.09.27.11.54.21.81.31.35.14.7.27,1.05.4,0,0,.01,0,.02,0,.35.13.7.26,1.06.39.36.13.73.26,1.1.39s.75.26,1.13.38c.38.13.75.25,1.13.37.77.25,1.55.49,2.35.73.4.12.8.24,1.2.35.32.09.65.19.98.28.23.06.46.13.69.19.27.07.54.15.81.22.97.26,1.95.5,2.93.72.33.08.66.15.99.22.78.17,1.56.33,2.34.49.32.06.64.13.96.19.13.02.26.05.4.07.32.06.63.11.95.17.29.05.58.1.88.15.36.06.71.12,1.07.18.35.06.7.11,1.05.17.25.04.49.07.74.11.72.1,1.44.21,2.17.3.33.04.66.09.99.13.27.04.54.07.8.1.42.05.83.1,1.25.15,2.92.34,5.82.61,8.69.88.8.07,1.6.14,2.4.21,2.2.2,4.38.39,6.51.6.4.04.79.08,1.19.12.42.04.83.09,1.25.13.4.04.8.09,1.2.13.41.05.81.09,1.21.14.4.05.8.1,1.2.15.71.09,1.41.19,2.1.28.01,0,.03,0,.04,0,.71.1,1.41.21,2.11.33h.07c.3.06.6.11.91.17,1.08.19,2.15.4,3.2.62.25.05.5.11.74.16.06.02.13.03.19.04.33.08.66.16.99.24.47.12.95.24,1.41.37.34.09.68.19,1.01.29.22.06.44.13.66.2.26.08.51.16.76.24.19.06.38.12.57.19.13.04.26.09.39.13.3.1.6.21.9.32.38.14.75.28,1.13.44.16.06.31.13.47.19.07.03.15.06.22.09.14.05.27.11.4.17.26.11.52.23.77.35.1.05.21.09.31.15.08.04.17.08.25.12.15.07.29.14.43.21.14.07.28.14.42.22,1.03.53,2.02,1.11,2.98,1.74.13.09.26.18.39.26.09.06.19.13.29.2.13.08.25.17.37.26.12.08.23.17.34.25,1.41,1.04,2.73,2.21,3.97,3.52Z" style="fill: rgb(251, 253, 239);"/></g><g><path d="m201.36,495.62c-30.87-6.08-59.71-17.83-85.37-34.13,6.54-26.85,12.69-58.57,15.24-90.29.4-.05.8-.1,1.2-.15.4-.05.8-.09,1.21-.14.4-.04.8-.09,1.2-.13.42-.04.83-.09,1.25-.13.4-.04.79-.08,1.19-.12,2.14-.21,4.31-.4,6.51-.6.8-.07,1.59-.14,2.4-.21,2.86-.26,5.77-.54,8.69-.88.42-.05.83-.1,1.25-.15.27-.03.54-.06.8-.1.33-.04.66-.08.99-.13.72-.09,1.44-.2,2.17-.3.25-.03.49-.07.74-.11.35-.05.7-.11,1.05-.17.36-.05.71-.11,1.07-.18.29-.05.58-.1.88-.15.32-.05.63-.11.95-.17.13-.02.26-.05.4-.07.32-.06.64-.12.96-.19.78-.15,1.56-.31,2.34-.49.33-.07.66-.15.99-.22.98-.22,1.96-.47,2.93-.72.27-.07.54-.15.81-.22.23-.06.46-.13.69-.19.33-.09.66-.18.98-.28.41-.11.8-.23,1.2-.35.8-.24,1.58-.48,2.35-.73.38-.12.76-.24,1.13-.37.38-.12.75-.25,1.13-.38s.74-.26,1.1-.39c.35-.13.71-.26,1.06-.39,0,0,.01,0,.02,0,.35-.13.7-.26,1.05-.4.27-.1.54-.21.81-.31.07-.03.15-.06.22-.09.28-.11.56-.22.83-.33.12-.05.24-.09.35-.15.27-.11.54-.22.81-.34.06-.02.12-.05.18-.07.27-.11.53-.23.79-.34.32-.14.63-.28.95-.42.31-.14.62-.28.93-.43.06,28.25,1.58,85.37,11.58,136.09Z" style="fill: rgb(249, 185, 111);"/></g><g><path d="m384.01,461.49c-25.66,16.3-54.5,28.05-85.37,34.13,10.01-50.72,11.53-107.85,11.58-136.09.3.14.61.28.93.43.31.14.63.28.95.42.26.11.53.23.79.34.06.03.11.05.18.07.27.11.54.23.81.34.12.05.24.1.35.15.27.11.55.23.83.33.07.03.15.06.22.09.27.11.54.21.81.31.35.14.7.27,1.05.4,0,0,.01,0,.02,0,.35.13.7.26,1.06.39.36.13.73.26,1.1.39s.75.26,1.13.38c.38.13.75.25,1.13.37.77.25,1.55.49,2.35.73.4.12.8.24,1.2.35.32.09.65.19.98.28.23.06.46.13.69.19.27.07.54.15.81.22.97.26,1.95.5,2.93.72.33.08.66.15.99.22.78.17,1.56.33,2.34.49.32.06.64.13.96.19.13.02.26.05.4.07.32.06.63.11.95.17.29.05.58.1.88.15.36.06.71.12,1.07.18.35.06.7.11,1.05.17.25.04.49.07.74.11.72.1,1.44.21,2.17.3.33.04.66.09.99.13.27.04.54.07.8.1.42.05.83.1,1.25.15,2.92.34,5.82.61,8.69.88.8.07,1.6.14,2.4.21,2.2.2,4.38.39,6.51.6.4.04.79.08,1.19.12.42.04.83.09,1.25.13.4.04.8.09,1.2.13.41.05.81.09,1.21.14.4.05.8.1,1.2.15,2.55,31.72,8.7,63.44,15.24,90.29Z" style="fill: rgb(249, 185, 111);"/></g><g><path d="m165.88,276.35c-5.54,0-8.45-10.79-8.45-21.45s2.9-21.45,8.45-21.45,8.45,10.79,8.45,21.45-2.9,21.45-8.45,21.45Zm0-39.53c-1.72,0-5.07,6.38-5.07,18.07s3.35,18.07,5.07,18.07,5.07-6.38,5.07-18.07-3.35-18.07-5.07-18.07Z" style="fill: rgb(250, 133, 109);"/></g><g><circle cx="166.21" cy="230.07" r="5.07" style="fill: rgb(255, 255, 255);"/></g><g><path d="m325.34,254.9c0-10.66,2.9-21.45,8.45-21.45s8.45,10.79,8.45,21.45-2.9,21.45-8.45,21.45-8.45-10.79-8.45-21.45Zm3.38,0c0,11.69,3.35,18.07,5.07,18.07s5.07-6.38,5.07-18.07-3.35-18.07-5.07-18.07-5.07,6.38-5.07,18.07Z" style="fill: rgb(250, 133, 109);"/></g><g><circle cx="333.45" cy="230.07" r="5.07" style="fill: rgb(255, 255, 255);"/></g></g></g></svg>