<svg width="210" height="210" viewBox="0 0 210 210" fill="none" xmlns="http://www.w3.org/2000/svg">
<circle cx="105" cy="105" r="102.5" fill="white" stroke="url(#paint0_linear_937_1899)" stroke-width="5"/>
<path d="M69 149V176" stroke="url(#paint1_linear_937_1899)" stroke-width="3" stroke-linecap="round"/>
<path d="M61.4118 175L66.6888 149.886C66.811 149.304 66.3711 148.778 65.8656 148.466C65.0209 147.943 64.4141 146.726 63.6577 144.096C63.5753 143.81 63.6301 143.501 63.7935 143.252C65.5188 140.622 65.8742 138.36 65.6879 134.143C65.6671 133.671 65.3132 133.281 64.8465 133.209L63.5294 133.006M36 175L41.8817 143.895C41.913 143.729 41.9871 143.572 42.0938 143.442C45.4849 139.3 46.8636 136.597 46.3471 131.688C46.2761 131.014 46.8511 130.432 47.5215 130.535L51.2471 131.11M51.2471 131.11C44.9393 115.063 40.151 105.008 46.0632 99.0684C46.1292 99.0022 46.2085 98.9443 46.2908 98.9C56.2689 93.533 60.3296 91.801 61.4118 93.8132M51.2471 131.11L62.5434 132.854M61.4118 93.8132C65.5082 96.6362 60.7019 99.5727 51.2471 104.982C58.6354 100.885 61.3322 98.5156 65.6471 100.686M61.4118 93.8132C64.78 93.2778 66.9349 93.9628 68.6118 96.3066M65.6471 100.686C63.8071 106.145 60.0974 107.914 53.7882 111.425C62.6351 106.118 65.6471 104.982 68.6118 108.418M65.6471 100.686C68.0285 104.326 69.2128 106.441 68.6118 108.418M65.6471 100.686C68.5031 103.561 69.104 102.451 68.6118 96.3066M68.6118 108.418C65.1248 111.775 62.0428 113.82 56.7529 117.439C63.1523 114.026 67.082 111.472 69.7667 115.54C69.8433 115.656 69.8934 115.796 69.9113 115.934C70.5506 120.86 68.393 120.631 66.064 121.917C65.7963 122.065 65.6289 122.344 65.597 122.648C64.9668 128.654 64.4588 130.431 63.5294 133.006M68.6118 108.418C70.7731 107.327 71.4433 106.578 71.9081 105.258C71.9712 105.078 71.9741 104.884 71.9248 104.7C70.8815 100.819 69.8843 98.0853 68.6118 96.3066M63.5294 133.006L62.5434 132.854M62.5434 132.854C64.716 127.483 64.79 124.779 62.8156 120.957C62.6516 120.639 62.6559 120.255 62.8513 119.956C64.0887 118.062 64.7113 118.12 65.6471 119.157" stroke="url(#paint2_linear_937_1899)" stroke-width="3" stroke-linecap="round"/>
<path d="M100.325 93.8601V101.601C96.9762 102.658 95.208 103.588 92.25 105.902M92.25 105.902C107.39 119.508 116.935 119.73 135.6 107.622C133.068 104.12 131.48 102.781 128.375 101.601L127.1 93M92.25 105.902C82.9792 107.823 78.3246 109.691 71 114.503M136.45 107.192C163.176 109.558 167.91 131.059 173 176M154.725 147.617V158.368" stroke="url(#paint3_linear_937_1899)" stroke-width="3" stroke-linecap="round"/>
<path d="M167 177.571L160.033 165.087C159.9 164.849 159.674 164.677 159.412 164.601C155.42 163.438 153.57 160.96 151.02 155.838C150.758 155.313 150.105 155.117 149.601 155.418L134.076 164.714M134.076 164.714C135.293 168.628 136.134 170.247 137.704 172.216C137.815 172.356 137.889 172.522 137.916 172.698L138.719 178M134.076 164.714C133.924 162.99 133.627 161.887 132.006 159.739C131.737 159.383 131.26 159.265 130.84 159.415C128.213 160.355 126.779 159.958 124.436 159.166C124.391 159.151 124.346 159.132 124.304 159.11C111.826 152.792 101.775 148.387 103.21 145.939C103.242 145.885 103.275 145.827 103.305 145.772C104.447 143.601 109.99 145.228 118.88 147.571C107.56 144.049 101.72 142.029 104.307 138.431C104.443 138.241 104.654 138.117 104.885 138.083C108.441 137.564 112.56 139.346 118.88 141.571C108.054 137.194 102.489 134.703 104.235 131.337C104.395 131.028 104.741 130.87 105.088 130.896C110.353 131.286 113.468 132.309 118.88 133.857C105.679 129.316 98.5908 126.724 99.0183 121.652C99.0305 121.506 99.0794 121.361 99.1703 121.247C101.328 118.532 110.17 122.116 131.697 132.674C132.382 133.01 133.184 132.49 133.146 131.728C132.713 123.009 132.636 117.856 136.343 115.183C136.512 115.061 136.723 115.002 136.931 115.021C140.99 115.393 142.206 119.741 142.516 133.757C142.517 133.822 142.525 133.889 142.539 133.953L147.161 154.857" stroke="url(#paint4_linear_937_1899)" stroke-width="3" stroke-linecap="round"/>
<path d="M90 59.6404C90.4531 87.217 97.108 93.5619 112.213 99.8505C112.443 99.946 112.708 99.9521 112.941 99.8671C127.463 94.5798 133.93 88.5737 136 62.1894M105.759 57.941C103.082 56.6701 101.524 56.7056 98.5185 57.941M118.963 57.941C122.293 56.6602 123.953 56.7127 126.63 57.941M112.922 90.109C115.378 89.2399 116.777 88.1604 118.29 85.2517C118.625 84.6073 118.14 83.8561 117.414 83.8561H108.159C107.433 83.8561 106.948 84.6063 107.281 85.2518C108.74 88.0843 110.034 89.1556 112.234 90.0882C112.452 90.1808 112.699 90.1882 112.922 90.109Z" stroke="url(#paint5_linear_937_1899)" stroke-width="2.5" stroke-linecap="round"/>
<path d="M76 96.793C80.748 91.9245 81.4807 88.0252 81.5234 80.3042C74.6043 73.0989 77.4888 66.4952 81.5234 55.1372C83.7387 34.1018 89.6118 26.4208 111.69 23.0275C134.693 22.4916 142.035 29.6771 145.68 55.1372C146.423 62.9085 146.376 65.9952 145.68 69.4564C151.775 77.9257 148.064 81.4891 145.68 88.5486C145.602 93.4973 146.448 95.8843 148.655 99.8304C146.508 100.95 145.1 101.348 140.582 99.8304C138.068 96.0078 137.188 92.1896 137.183 84.6434C136.939 91.3539 137.238 95.1354 140.582 102L133.784 99.8304H127.411L126.986 92.8883C129.759 89.8536 131.289 87.7685 133.784 80.3042C146.594 72.254 143.131 60.7786 137.183 61.212C133.141 61.5065 125.372 51.7848 120.807 45.5224L125.711 52.5337C115.236 52.9542 110.447 49.8668 103.192 40.3841C98.825 50.9684 95.1616 55.049 87.8967 61.212C87.8967 61.212 80.3404 70.7105 92.5703 80.3042C95.3772 87.6404 96.9657 90.4751 99.7933 92.8878V99.8304C96.8625 101.344 95.2666 101.058 92.5703 96.793V99.8304C90.7051 101.172 89.4162 100.894 87.8967 99.3748V99.8304C83.1765 101.047 80.5759 100.158 76 96.793Z" fill="url(#paint6_linear_937_1899)"/>
<path d="M133.784 99.8304L140.582 102C137.238 95.1354 136.939 91.3539 137.183 84.6434C137.188 92.1896 138.068 96.0078 140.582 99.8304C145.1 101.348 146.508 100.95 148.655 99.8304C146.448 95.8843 145.602 93.4973 145.68 88.5486C148.064 81.4891 151.775 77.9257 145.68 69.4564C146.376 65.9952 146.423 62.9085 145.68 55.1372C142.035 29.6771 134.693 22.4916 111.69 23.0275C89.6118 26.4208 83.7387 34.1018 81.5234 55.1372C77.4888 66.4952 74.6043 73.0989 81.5234 80.3042C81.4807 88.0252 80.748 91.9245 76 96.793C80.5759 100.158 83.1765 101.047 87.8967 99.8304V84.6434L85.7723 96.793C88.4246 100.366 89.9124 101.742 92.5703 99.8304V92.8878V96.793C95.2666 101.058 96.8625 101.344 99.7933 99.8304V92.8878C96.9657 90.4751 95.3772 87.6404 92.5703 80.3042C80.3404 70.7105 87.8967 61.212 87.8967 61.212C95.1616 55.049 98.825 50.9684 103.192 40.3841C110.447 49.8668 115.236 52.9542 125.711 52.5337L117.213 40.3841C117.213 40.3841 131.234 61.6454 137.183 61.212C143.131 60.7786 146.594 72.254 133.784 80.3042C131.289 87.7685 129.759 89.8536 126.986 92.8883L127.411 99.8304H133.784ZM133.784 99.8304C133.784 99.8304 132.084 95.4918 133.784 92.8878" stroke="url(#paint7_linear_937_1899)" stroke-width="3"/>
<path d="M107 107V119.72C107 120.5 107.454 121.209 108.162 121.536L130.162 131.69C131.487 132.302 133 131.334 133 129.874V107C133 105.895 132.105 105 131 105H109C107.895 105 107 105.895 107 107Z" fill="#FFD900" stroke="url(#paint8_linear_937_1899)" stroke-width="3"/>
<path d="M100 64C99.1549 63.5262 98.8033 63.1189 98.5 62" stroke="#789BCD" stroke-linecap="round"/>
<path d="M125 64C125.845 63.5262 126.197 63.1189 126.5 62" stroke="#789BCD" stroke-linecap="round"/>
<circle cx="102" cy="66" r="3" fill="#90B9D1"/>
<circle cx="123" cy="66" r="3" fill="#90B9D1"/>
<path d="M36.4951 58.4915C36.395 57.4544 37.153 56.542 38.1784 56.358C42.6238 55.5602 45.3239 54.2591 47.3956 51.4515C48.4746 49.9892 51.0308 50.0185 52.0987 51.489C54.1243 54.2785 56.8892 55.6361 61.4149 56.1904C62.4981 56.3231 63.3353 57.2501 63.2335 58.3367C62.4333 66.8801 59.3365 71.6286 51.4685 79.5309C50.6887 80.3141 49.4166 80.3042 48.6281 79.5298C42.3801 73.3939 37.586 69.7941 36.4951 58.4915Z" fill="white" stroke="#FFC857" stroke-width="2"/>
<path d="M45.5139 64.4635L47.5633 67.4469C48.3696 68.6208 50.1096 68.5997 50.8873 67.4068L56.2619 59.1621" stroke="#FFC857" stroke-width="2" stroke-linecap="round"/>
<ellipse cx="111.5" cy="75" rx="1.5" ry="2" transform="rotate(-15.9508 111.5 75)" fill="#8BB2D0"/>
<defs>
<linearGradient id="paint0_linear_937_1899" x1="63.525" y1="7.35" x2="148.05" y2="210" gradientUnits="userSpaceOnUse">
<stop stop-color="#ABDAD5"/>
<stop offset="1" stop-color="#719AC5"/>
</linearGradient>
<linearGradient id="paint1_linear_937_1899" x1="69.5" y1="149" x2="69.5" y2="176" gradientUnits="userSpaceOnUse">
<stop stop-color="#789BCD"/>
<stop offset="1" stop-color="#ABDAD5"/>
</linearGradient>
<linearGradient id="paint2_linear_937_1899" x1="54" y1="93" x2="54" y2="175" gradientUnits="userSpaceOnUse">
<stop stop-color="#789BCD"/>
<stop offset="1" stop-color="#ABDAD5"/>
</linearGradient>
<linearGradient id="paint3_linear_937_1899" x1="122" y1="93" x2="122" y2="176" gradientUnits="userSpaceOnUse">
<stop stop-color="#789BCD"/>
<stop offset="1" stop-color="#ABDAD5"/>
</linearGradient>
<linearGradient id="paint4_linear_937_1899" x1="133" y1="115" x2="133" y2="178" gradientUnits="userSpaceOnUse">
<stop stop-color="#789BCD"/>
<stop offset="1" stop-color="#ABDAD5"/>
</linearGradient>
<linearGradient id="paint5_linear_937_1899" x1="113" y1="57" x2="113" y2="100" gradientUnits="userSpaceOnUse">
<stop stop-color="#789BCD"/>
<stop offset="1" stop-color="#ABDAD5"/>
</linearGradient>
<linearGradient id="paint6_linear_937_1899" x1="112.5" y1="23" x2="112.5" y2="102" gradientUnits="userSpaceOnUse">
<stop stop-color="#789BCD"/>
<stop offset="1" stop-color="#ABD9D5"/>
</linearGradient>
<linearGradient id="paint7_linear_937_1899" x1="112.5" y1="23" x2="112.5" y2="102" gradientUnits="userSpaceOnUse">
<stop stop-color="#789BCD"/>
<stop offset="1" stop-color="#ABDAD5"/>
</linearGradient>
<linearGradient id="paint8_linear_937_1899" x1="120" y1="105" x2="120" y2="133" gradientUnits="userSpaceOnUse">
<stop stop-color="#789BCD"/>
<stop offset="1" stop-color="#ABDAD5"/>
</linearGradient>
</defs>
</svg>
