<svg width="25" height="23" viewBox="0 0 25 23" fill="none" xmlns="http://www.w3.org/2000/svg">
<path d="M3.56625 20.1836C3.41906 20.1836 3.29959 20.0644 3.29959 19.9169V10.5789C3.29959 10.4317 3.41906 10.3123 3.56625 10.3123C3.71345 10.3123 3.83292 10.4317 3.83292 10.5789V19.9169C3.83292 20.0644 3.71372 20.1836 3.56625 20.1836Z" fill="url(#paint0_linear_420_462)"/>
<path d="M22.3058 20.1835C22.1583 20.1835 22.0391 20.0643 22.0391 19.9169V10.5783C22.0391 10.4311 22.1583 10.3116 22.3058 10.3116C22.4532 10.3116 22.5724 10.4311 22.5724 10.5783V19.9169C22.5724 20.0643 22.453 20.1835 22.3058 20.1835Z" fill="url(#paint1_linear_420_462)"/>
<path d="M24.6692 22.7406H7.68645C7.53925 22.7406 7.41979 22.6214 7.41979 22.474C7.41979 22.3265 7.53925 22.2073 7.68645 22.2073H24.4025V20.9001C24.4025 20.5052 24.0812 20.1836 23.686 20.1836H2.18598C1.79078 20.1836 1.46945 20.5052 1.46945 20.9001V22.2073H4.04089C4.18809 22.2073 4.30756 22.3265 4.30756 22.474C4.30756 22.6214 4.18809 22.7406 4.04089 22.7406H1.20279C1.05559 22.7406 0.936127 22.6214 0.936127 22.474V20.9001C0.936127 20.2111 1.49692 19.6503 2.18598 19.6503H23.6863C24.3753 19.6503 24.9361 20.2111 24.9361 20.9001V22.474C24.9359 22.6214 24.8167 22.7406 24.6692 22.7406Z" fill="url(#paint2_linear_420_462)"/>
<path d="M15.8693 10.9015C14.1048 10.9015 12.6693 9.46609 12.6693 7.70158V4.06989C12.6693 3.92269 12.7888 3.80322 12.936 3.80322H16.5656C16.6581 3.80322 16.744 3.85122 16.7928 3.93015L19.0298 7.56185C19.0554 7.60371 19.0693 7.65225 19.0693 7.70158C19.0693 9.46609 17.6338 10.9015 15.8693 10.9015ZM13.2027 4.33655V7.70158C13.2027 9.17196 14.3989 10.3682 15.8693 10.3682C17.3152 10.3682 18.4957 9.21196 18.5349 7.77545L16.4168 4.33655H13.2027V4.33655Z" fill="url(#paint3_linear_420_462)"/>
<path d="M21.7359 10.9015C19.997 10.9015 18.5778 9.50767 18.537 7.77862L16.3386 4.20986C16.2882 4.12746 16.2858 4.02426 16.333 3.94C16.3802 3.85573 16.4693 3.80347 16.5658 3.80347H20.5746C20.6396 3.80347 20.7026 3.82747 20.7514 3.87067L24.846 7.50236C24.9033 7.55249 24.9359 7.62529 24.9359 7.70156C24.9359 9.46607 23.5004 10.9015 21.7359 10.9015ZM17.0429 4.33653L19.0295 7.56156C19.0554 7.60369 19.0693 7.65222 19.0693 7.70156C19.0693 9.17194 20.2655 10.3682 21.7359 10.3682C23.1668 10.3682 24.3383 9.23514 24.3999 7.81916L20.473 4.33653H17.0429V4.33653Z" fill="url(#paint4_linear_420_462)"/>
<path d="M10.0027 10.9015C8.23819 10.9015 6.80273 9.46609 6.80273 7.70158C6.80273 7.65225 6.81633 7.60371 6.8422 7.56185L9.07924 3.93015C9.12778 3.85149 9.21364 3.80322 9.30644 3.80322H12.936C13.0832 3.80322 13.2027 3.92269 13.2027 4.06989V7.70158C13.2027 9.46609 11.7672 10.9015 10.0027 10.9015ZM7.33713 7.77545C7.37633 9.2117 8.55711 10.3682 10.0027 10.3682C11.4731 10.3682 12.6693 9.17196 12.6693 7.70158V4.33655H9.4555L7.33713 7.77545Z" fill="url(#paint5_linear_420_462)"/>
<path d="M4.13609 10.9015C2.37158 10.9015 0.936127 9.46609 0.936127 7.70158C0.936127 7.62531 0.968926 7.55251 1.02573 7.50212L5.12061 3.87042C5.16941 3.82696 5.23235 3.80322 5.29768 3.80322H9.30643C9.40297 3.80322 9.49203 3.85549 9.53923 3.93975C9.58643 4.02402 9.58403 4.12749 9.53363 4.20962L7.33526 7.77838C7.29419 9.50769 5.87501 10.9015 4.13609 10.9015ZM1.47212 7.81918C1.53372 9.23516 2.70517 10.3682 4.13609 10.3682C5.60647 10.3682 6.80273 9.17196 6.80273 7.70158C6.80273 7.65225 6.81633 7.60371 6.84219 7.56185L8.82884 4.33682H5.39874L1.47212 7.81918Z" fill="url(#paint6_linear_420_462)"/>
<path d="M24.6692 7.96826H1.20279C1.05559 7.96826 0.936127 7.8488 0.936127 7.7016C0.936127 7.5544 1.05559 7.43494 1.20279 7.43494H24.6692C24.8167 7.43494 24.9359 7.5544 24.9359 7.7016C24.9359 7.8488 24.8167 7.96826 24.6692 7.96826Z" fill="url(#paint7_linear_420_462)"/>
<path d="M20.6175 4.33653H5.2977C5.1505 4.33653 5.03104 4.21707 5.03104 4.06987V2.21442C5.03104 1.52856 5.5889 0.970703 6.27476 0.970703H19.6405C20.3261 0.970703 20.8842 1.52856 20.8842 2.21442V4.06987C20.8842 4.21707 20.7647 4.33653 20.6175 4.33653ZM5.56436 3.8032H20.3509V2.21442C20.3509 1.82269 20.0322 1.50403 19.6405 1.50403H6.27476C5.88303 1.50403 5.56436 1.82269 5.56436 2.21442V3.8032V3.8032Z" fill="url(#paint8_linear_420_462)"/>
<path d="M18.1855 20.1835C18.0381 20.1835 17.9189 20.0643 17.9189 19.9169V13.666C17.9189 13.2151 17.552 12.8481 17.101 12.8481H13.2027V14.6193C13.2027 14.7668 13.0832 14.886 12.936 14.886C12.7888 14.886 12.6693 14.7668 12.6693 14.6193V12.5815C12.6693 12.434 12.7888 12.3148 12.936 12.3148H17.1008C17.8458 12.3148 18.4519 12.9209 18.4519 13.666V19.9169C18.4522 20.0643 18.3327 20.1835 18.1855 20.1835Z" fill="url(#paint9_linear_420_462)"/>
<path d="M12.936 20.1836C12.7888 20.1836 12.6693 20.0644 12.6693 19.9169V16.8386C12.6693 16.6911 12.7888 16.5719 12.936 16.5719C13.0832 16.5719 13.2027 16.6911 13.2027 16.8386V19.9169C13.2027 20.0644 13.0832 20.1836 12.936 20.1836Z" fill="url(#paint10_linear_420_462)"/>
<path d="M14.3725 17.7003C14.225 17.7003 14.1058 17.5811 14.1058 17.4336V16.8528C14.1058 16.7054 14.225 16.5862 14.3725 16.5862C14.52 16.5862 14.6392 16.7054 14.6392 16.8528V17.4336C14.6392 17.5811 14.5197 17.7003 14.3725 17.7003Z" fill="url(#paint11_linear_420_462)"/>
<path d="M7.68646 20.1835C7.53927 20.1835 7.4198 20.0643 7.4198 19.9169V13.666C7.4198 12.9209 8.02593 12.3148 8.77099 12.3148H12.936C13.0832 12.3148 13.2027 12.434 13.2027 12.5815V14.6193C13.2027 14.7668 13.0832 14.886 12.936 14.886C12.7888 14.886 12.6693 14.7668 12.6693 14.6193V12.8481H8.77099C8.32006 12.8481 7.95313 13.2151 7.95313 13.666V19.9169C7.95313 20.0643 7.83366 20.1835 7.68646 20.1835Z" fill="url(#paint12_linear_420_462)"/>
<path d="M12.936 20.1836C12.7888 20.1836 12.6693 20.0644 12.6693 19.9169V16.8386C12.6693 16.6911 12.7888 16.5719 12.936 16.5719C13.0832 16.5719 13.2027 16.6911 13.2027 16.8386V19.9169C13.2027 20.0644 13.0832 20.1836 12.936 20.1836Z" fill="url(#paint13_linear_420_462)"/>
<path d="M11.4998 17.7003C11.3526 17.7003 11.2331 17.5811 11.2331 17.4336V16.8528C11.2331 16.7054 11.3526 16.5862 11.4998 16.5862C11.647 16.5862 11.7664 16.7054 11.7664 16.8528V17.4336C11.7664 17.5811 11.647 17.7003 11.4998 17.7003Z" fill="url(#paint14_linear_420_462)"/>
<defs>
<linearGradient id="paint0_linear_420_462" x1="3.56625" y1="10.3123" x2="3.56625" y2="20.1836" gradientUnits="userSpaceOnUse">
<stop stop-color="#92D5C4"/>
<stop offset="1" stop-color="#004B97" stop-opacity="0.7"/>
</linearGradient>
<linearGradient id="paint1_linear_420_462" x1="22.3058" y1="10.3116" x2="22.3058" y2="20.1835" gradientUnits="userSpaceOnUse">
<stop stop-color="#92D5C4"/>
<stop offset="1" stop-color="#004B97" stop-opacity="0.7"/>
</linearGradient>
<linearGradient id="paint2_linear_420_462" x1="12.9361" y1="19.6503" x2="12.9361" y2="22.7406" gradientUnits="userSpaceOnUse">
<stop stop-color="#92D5C4"/>
<stop offset="1" stop-color="#004B97" stop-opacity="0.7"/>
</linearGradient>
<linearGradient id="paint3_linear_420_462" x1="15.8693" y1="3.80322" x2="15.8693" y2="10.9015" gradientUnits="userSpaceOnUse">
<stop stop-color="#92D5C4"/>
<stop offset="1" stop-color="#004B97" stop-opacity="0.7"/>
</linearGradient>
<linearGradient id="paint4_linear_420_462" x1="20.6175" y1="3.80347" x2="20.6175" y2="10.9015" gradientUnits="userSpaceOnUse">
<stop stop-color="#92D5C4"/>
<stop offset="1" stop-color="#004B97" stop-opacity="0.7"/>
</linearGradient>
<linearGradient id="paint5_linear_420_462" x1="10.0027" y1="3.80322" x2="10.0027" y2="10.9015" gradientUnits="userSpaceOnUse">
<stop stop-color="#92D5C4"/>
<stop offset="1" stop-color="#004B97" stop-opacity="0.7"/>
</linearGradient>
<linearGradient id="paint6_linear_420_462" x1="5.25461" y1="3.80322" x2="5.25461" y2="10.9015" gradientUnits="userSpaceOnUse">
<stop stop-color="#92D5C4"/>
<stop offset="1" stop-color="#004B97" stop-opacity="0.7"/>
</linearGradient>
<linearGradient id="paint7_linear_420_462" x1="12.936" y1="7.43494" x2="12.936" y2="7.96826" gradientUnits="userSpaceOnUse">
<stop stop-color="#92D5C4"/>
<stop offset="1" stop-color="#004B97" stop-opacity="0.7"/>
</linearGradient>
<linearGradient id="paint8_linear_420_462" x1="12.9576" y1="0.970703" x2="12.9576" y2="4.33653" gradientUnits="userSpaceOnUse">
<stop stop-color="#92D5C4"/>
<stop offset="1" stop-color="#004B97" stop-opacity="0.7"/>
</linearGradient>
<linearGradient id="paint9_linear_420_462" x1="15.5606" y1="12.3148" x2="15.5606" y2="20.1835" gradientUnits="userSpaceOnUse">
<stop stop-color="#92D5C4"/>
<stop offset="1" stop-color="#004B97" stop-opacity="0.7"/>
</linearGradient>
<linearGradient id="paint10_linear_420_462" x1="12.936" y1="16.5719" x2="12.936" y2="20.1836" gradientUnits="userSpaceOnUse">
<stop stop-color="#92D5C4"/>
<stop offset="1" stop-color="#004B97" stop-opacity="0.7"/>
</linearGradient>
<linearGradient id="paint11_linear_420_462" x1="14.3725" y1="16.5862" x2="14.3725" y2="17.7003" gradientUnits="userSpaceOnUse">
<stop stop-color="#92D5C4"/>
<stop offset="1" stop-color="#004B97" stop-opacity="0.7"/>
</linearGradient>
<linearGradient id="paint12_linear_420_462" x1="10.3112" y1="12.3148" x2="10.3112" y2="20.1835" gradientUnits="userSpaceOnUse">
<stop stop-color="#92D5C4"/>
<stop offset="1" stop-color="#004B97" stop-opacity="0.7"/>
</linearGradient>
<linearGradient id="paint13_linear_420_462" x1="12.936" y1="16.5719" x2="12.936" y2="20.1836" gradientUnits="userSpaceOnUse">
<stop stop-color="#92D5C4"/>
<stop offset="1" stop-color="#004B97" stop-opacity="0.7"/>
</linearGradient>
<linearGradient id="paint14_linear_420_462" x1="11.4998" y1="16.5862" x2="11.4998" y2="17.7003" gradientUnits="userSpaceOnUse">
<stop stop-color="#92D5C4"/>
<stop offset="1" stop-color="#004B97" stop-opacity="0.7"/>
</linearGradient>
</defs>
</svg>
