<svg width="300" height="240" viewBox="0 0 300 240" fill="none" xmlns="http://www.w3.org/2000/svg">
<g clip-path="url(#clip0_879_1127)">
<path d="M148.884 7.48106C149.246 7.19838 149.754 7.19838 150.116 7.48106L284.477 112.462C285.226 113.048 284.812 114.25 283.861 114.25H15.139C14.188 114.25 13.7739 113.048 14.5233 112.462L148.884 7.48106Z" fill="url(#paint0_linear_879_1127)"/>
<rect x="50" y="113" width="200" height="120" rx="1" fill="url(#paint1_linear_879_1127)"/>
<rect x="75" y="94" width="150" height="50" rx="25" fill="white"/>
<path d="M93.5227 135V105.909H97.0455V118.864H112.557V105.909H116.08V135H112.557V121.989H97.0455V135H93.5227ZM147.678 120.455C147.678 123.523 147.124 126.174 146.016 128.409C144.908 130.644 143.388 132.367 141.456 133.58C139.524 134.792 137.318 135.398 134.837 135.398C132.356 135.398 130.149 134.792 128.217 133.58C126.286 132.367 124.766 130.644 123.658 128.409C122.55 126.174 121.996 123.523 121.996 120.455C121.996 117.386 122.55 114.735 123.658 112.5C124.766 110.265 126.286 108.542 128.217 107.33C130.149 106.117 132.356 105.511 134.837 105.511C137.318 105.511 139.524 106.117 141.456 107.33C143.388 108.542 144.908 110.265 146.016 112.5C147.124 114.735 147.678 117.386 147.678 120.455ZM144.268 120.455C144.268 117.936 143.847 115.81 143.004 114.077C142.171 112.344 141.039 111.032 139.609 110.142C138.189 109.252 136.598 108.807 134.837 108.807C133.075 108.807 131.48 109.252 130.05 110.142C128.629 111.032 127.498 112.344 126.655 114.077C125.821 115.81 125.405 117.936 125.405 120.455C125.405 122.973 125.821 125.099 126.655 126.832C127.498 128.565 128.629 129.877 130.05 130.767C131.48 131.657 133.075 132.102 134.837 132.102C136.598 132.102 138.189 131.657 139.609 130.767C141.039 129.877 142.171 128.565 143.004 126.832C143.847 125.099 144.268 122.973 144.268 120.455ZM153.601 105.909H157.805L167.692 130.057H168.033L177.919 105.909H182.124V135H178.828V112.898H178.544L169.453 135H166.271L157.18 112.898H156.896V135H153.601V105.909ZM189.187 135V105.909H206.744V109.034H192.71V118.864H205.835V121.989H192.71V131.875H206.971V135H189.187Z" fill="#383838"/>
</g>
<defs>
<linearGradient id="paint0_linear_879_1127" x1="149.5" y1="7" x2="149.5" y2="150" gradientUnits="userSpaceOnUse">
<stop stop-color="#737373"/>
<stop offset="1" stop-color="#D9D9D9"/>
</linearGradient>
<linearGradient id="paint1_linear_879_1127" x1="150" y1="113" x2="150" y2="233" gradientUnits="userSpaceOnUse">
<stop stop-color="#D9D9D9"/>
<stop offset="1" stop-color="#737373"/>
</linearGradient>
<clipPath id="clip0_879_1127">
<rect width="300" height="240" fill="white"/>
</clipPath>
</defs>
</svg>
