<svg width="94" height="44" viewBox="0 0 94 44" fill="none" xmlns="http://www.w3.org/2000/svg">
<rect width="94" height="42" rx="20" fill="url(#paint0_linear_138_248)" fill-opacity="0.7"/>
<path d="M32.2656 28.6562C32.2865 28.6562 32.3125 28.6146 32.3438 28.5312C32.3854 28.4375 32.4167 28.3333 32.4375 28.2188C32.4583 28.1042 32.474 28 32.4844 27.9062C32.5052 27.8125 32.5156 27.7552 32.5156 27.7344C32.5365 27.5052 32.6042 27.4115 32.7188 27.4531C32.8333 27.4844 32.8906 27.6198 32.8906 27.8594C32.8906 27.8802 32.8854 27.9583 32.875 28.0938C32.8646 28.2188 32.8542 28.3698 32.8438 28.5469C32.8333 28.724 32.8281 28.9115 32.8281 29.1094C32.8281 29.3073 32.8438 29.4792 32.875 29.625C32.8958 29.7083 32.8906 29.8229 32.8594 29.9688C32.8281 30.1146 32.7656 30.1875 32.6719 30.1875C32.1406 30.1875 31.7344 29.9427 31.4531 29.4531C31.1719 28.9531 30.9583 28.3385 30.8125 27.6094C30.6771 26.8802 30.599 26.1042 30.5781 25.2812C30.5573 24.4583 30.5469 23.724 30.5469 23.0781H29.6406C29.6406 23.1094 29.6302 23.2656 29.6094 23.5469C29.599 23.8281 29.5781 24.1458 29.5469 24.5C29.5156 24.8438 29.4792 25.1771 29.4375 25.5C29.4062 25.8229 29.3698 26.0417 29.3281 26.1562C29.7656 26.4688 30.0938 26.7969 30.3125 27.1406C30.5417 27.474 30.5365 27.8281 30.2969 28.2031C30.1823 28.4115 30.0677 28.5052 29.9531 28.4844C29.8385 28.4531 29.724 28.3698 29.6094 28.2344C29.5052 28.099 29.401 27.9427 29.2969 27.7656C29.2031 27.5885 29.0938 27.4479 28.9688 27.3438C28.75 27.8958 28.474 28.4062 28.1406 28.875C27.8177 29.3438 27.4844 29.6875 27.1406 29.9062C27.0677 29.9583 26.9844 29.9948 26.8906 30.0156C26.7969 30.026 26.724 30.0156 26.6719 29.9844C26.6094 29.9635 26.5781 29.9271 26.5781 29.875C26.5781 29.8125 26.6198 29.7344 26.7031 29.6406C26.8177 29.474 26.9479 29.276 27.0938 29.0469C27.25 28.8073 27.3854 28.5521 27.5 28.2812C27.6562 28.0104 27.7812 27.7292 27.875 27.4375C27.9792 27.1458 28.0625 26.8594 28.125 26.5781C28.0625 26.5156 27.9792 26.4375 27.875 26.3438C27.7708 26.2396 27.6562 26.1406 27.5312 26.0469C27.4271 25.9531 27.3229 25.875 27.2188 25.8125C27.1146 25.7396 27.0521 25.6927 27.0312 25.6719C26.8854 25.6094 26.8229 25.526 26.8438 25.4219C26.875 25.3073 26.9948 25.2604 27.2031 25.2812C27.276 25.2917 27.3698 25.3125 27.4844 25.3438C27.599 25.375 27.7188 25.4062 27.8438 25.4375C27.9479 25.4792 28.0417 25.5208 28.125 25.5625C28.2083 25.5938 28.2552 25.6094 28.2656 25.6094C28.2865 25.526 28.3073 25.3542 28.3281 25.0938C28.349 24.8229 28.3646 24.5417 28.375 24.25C28.3958 23.9688 28.4115 23.7135 28.4219 23.4844C28.4323 23.2448 28.4375 23.1094 28.4375 23.0781H27.875C27.8333 23.0781 27.776 23.0833 27.7031 23.0938C27.6406 23.1042 27.5781 23.1094 27.5156 23.1094C27.4531 23.1198 27.3958 23.1302 27.3438 23.1406C27.3021 23.1406 27.2812 23.1406 27.2812 23.1406L27.0156 22.4062L27.875 22.4531H28.4375V20.0469C28.4375 20.0469 28.4792 20.0573 28.5625 20.0781C28.6458 20.0885 28.7396 20.1042 28.8438 20.125C28.9688 20.1562 29.0833 20.1875 29.1875 20.2188C29.2917 20.2396 29.3854 20.2656 29.4688 20.2969C29.6875 20.3594 29.8177 20.4323 29.8594 20.5156C29.9115 20.5885 29.9219 20.6562 29.8906 20.7188C29.8698 20.7917 29.8333 20.8646 29.7812 20.9375C29.7292 21.0104 29.7031 21.0677 29.7031 21.1094L29.6875 22.4531H30.5312L30.6875 21.9375C30.7083 21.8542 30.7448 21.8073 30.7969 21.7969C30.8594 21.776 30.9323 21.7812 31.0156 21.8125C31.0885 21.8438 31.1719 21.8958 31.2656 21.9688C31.3698 22.0417 31.4792 22.125 31.5938 22.2188C31.8438 22.4167 31.9896 22.5781 32.0312 22.7031C32.0833 22.8177 32.0938 22.9219 32.0625 23.0156C32.0312 23.099 31.9792 23.1667 31.9062 23.2188C31.8333 23.2708 31.7969 23.3281 31.7969 23.3906C31.776 24.0677 31.7708 24.724 31.7812 25.3594C31.8021 25.9844 31.8385 26.5417 31.8906 27.0312C31.9427 27.5208 32 27.9167 32.0625 28.2188C32.125 28.5104 32.1927 28.6562 32.2656 28.6562ZM22.2812 30.9531C22.3438 31.0781 22.4167 31.3125 22.5 31.6562C22.5833 31.9896 22.5781 32.3854 22.4844 32.8438C22.349 33.4167 22.1146 33.8125 21.7812 34.0312C21.4583 34.2604 21.1354 34.2135 20.8125 33.8906C20.6354 33.7031 20.5938 33.4896 20.6875 33.25C20.7917 33.0208 20.9479 32.8125 21.1562 32.625C21.4271 32.3958 21.6198 32.1562 21.7344 31.9062C21.8594 31.6562 21.9427 31.4479 21.9844 31.2812C22.0365 31.1042 22.0729 30.9792 22.0938 30.9062C22.125 30.8229 22.1875 30.8385 22.2812 30.9531ZM31.0625 30.8438C31.1458 30.8333 31.3281 30.8854 31.6094 31C31.901 31.1146 32.1979 31.3594 32.5 31.7344C32.8229 32.1406 32.9688 32.5573 32.9375 32.9844C32.9167 33.4115 32.7031 33.7083 32.2969 33.875C32.1823 33.9375 32.0833 33.9427 32 33.8906C31.9167 33.8385 31.849 33.7552 31.7969 33.6406C31.7552 33.5052 31.7135 33.3594 31.6719 33.2031C31.6302 33.0469 31.5938 32.8802 31.5625 32.7031C31.5 32.3385 31.4062 32.0417 31.2812 31.8125C31.1667 31.5729 31.0625 31.3802 30.9688 31.2344C30.8854 31.099 30.8385 31 30.8281 30.9375C30.8177 30.875 30.8958 30.8438 31.0625 30.8438ZM27.8125 30.8438C27.9062 30.875 28.0781 30.974 28.3281 31.1406C28.5781 31.2969 28.8073 31.5677 29.0156 31.9531C29.1406 32.1927 29.224 32.4323 29.2656 32.6719C29.3177 32.901 29.3177 33.1094 29.2656 33.2969C29.2135 33.4844 29.1198 33.6406 28.9844 33.7656C28.8594 33.8906 28.6927 33.9531 28.4844 33.9531C28.2448 33.9531 28.0938 33.8177 28.0312 33.5469C27.9792 33.276 27.9635 32.9792 27.9844 32.6562C27.9948 32.3125 27.9635 32.026 27.8906 31.7969C27.8281 31.5573 27.7604 31.3698 27.6875 31.2344C27.625 31.0885 27.5885 30.9844 27.5781 30.9219C27.5781 30.8594 27.6562 30.8333 27.8125 30.8438ZM24.8594 30.7969C24.9427 30.849 25.0781 30.9792 25.2656 31.1875C25.4635 31.3958 25.6562 31.7031 25.8438 32.1094C25.9375 32.3802 25.9896 32.6406 26 32.8906C26.0104 33.1302 25.9844 33.3385 25.9219 33.5156C25.849 33.7135 25.7396 33.8594 25.5938 33.9531C25.4583 34.0469 25.2865 34.0781 25.0781 34.0469C24.8385 34.0052 24.7031 33.849 24.6719 33.5781C24.6406 33.3073 24.6458 33.0156 24.6875 32.7031C24.7188 32.3698 24.724 32.0729 24.7031 31.8125C24.6927 31.5521 24.6719 31.3438 24.6406 31.1875C24.6198 31.0312 24.6146 30.9167 24.625 30.8438C24.6458 30.7708 24.724 30.7552 24.8594 30.7969ZM26.6094 26.5156C26.474 26.6406 26.3542 26.6615 26.25 26.5781C26.1458 26.4844 26.0365 26.3438 25.9219 26.1562C25.8177 25.9792 25.6823 25.7812 25.5156 25.5625C25.349 25.3438 25.1354 25.1615 24.875 25.0156C24.6354 24.8802 24.5365 24.7812 24.5781 24.7188C24.6198 24.6562 24.7344 24.625 24.9219 24.625C25.1094 24.625 25.3229 24.651 25.5625 24.7031C25.8125 24.7448 26.0052 24.8125 26.1406 24.9062C26.5156 25.1354 26.7604 25.3906 26.875 25.6719C27 25.9427 26.9115 26.224 26.6094 26.5156ZM26.2969 27.5C26.526 27.7292 26.6354 27.8958 26.625 28C26.6146 28.0938 26.4844 28.1406 26.2344 28.1406H24.5156V29.1719C24.599 29.1615 24.724 29.151 24.8906 29.1406C25.0677 29.1302 25.2396 29.1198 25.4062 29.1094C25.5938 29.099 25.7552 29.0885 25.8906 29.0781C26.0365 29.0677 26.1302 29.0625 26.1719 29.0625C26.4427 29.0312 26.5833 29.0833 26.5938 29.2188C26.6042 29.3542 26.5 29.4479 26.2812 29.5C26.1979 29.5312 25.9531 29.599 25.5469 29.7031C25.151 29.7969 24.724 29.8906 24.2656 29.9844C23.8073 30.0885 23.3854 30.1875 23 30.2812C22.625 30.3646 22.4167 30.4115 22.375 30.4219C22.3125 30.4427 22.2396 30.4896 22.1562 30.5625C22.0833 30.625 22.0052 30.6771 21.9219 30.7188C21.849 30.7604 21.7708 30.7656 21.6875 30.7344C21.6146 30.6927 21.5521 30.5781 21.5 30.3906L21.2031 29.3594L23.2344 29.2656V28.1406H22.1875C22.1354 28.1406 22.0729 28.1458 22 28.1562C21.9271 28.1667 21.849 28.1771 21.7656 28.1875C21.6927 28.2083 21.625 28.224 21.5625 28.2344C21.5 28.2344 21.4688 28.2344 21.4688 28.2344L21.1406 27.4219C21.1406 27.4219 21.1771 27.4271 21.25 27.4375C21.3333 27.4479 21.4271 27.4583 21.5312 27.4688C21.6146 27.4896 21.7083 27.5052 21.8125 27.5156C21.9271 27.5156 22.0208 27.5156 22.0938 27.5156H23.2344V25.7031C23.2552 25.7031 23.3073 25.7135 23.3906 25.7344C23.474 25.7448 23.5729 25.7604 23.6875 25.7812C23.8021 25.8021 23.9062 25.8229 24 25.8438C24.1042 25.8646 24.1875 25.8802 24.25 25.8906C24.5 25.974 24.651 26.0521 24.7031 26.125C24.7552 26.1979 24.7708 26.2708 24.75 26.3438C24.7188 26.4167 24.6719 26.4844 24.6094 26.5469C24.5469 26.6094 24.5156 26.6667 24.5156 26.7188V27.5156H24.9219L25.1875 27.0938C25.2396 27 25.3125 26.9583 25.4062 26.9688C25.5104 26.9688 25.6302 27 25.7656 27.0625C25.8698 27.125 25.9688 27.2031 26.0625 27.2969C26.1667 27.3802 26.2448 27.4479 26.2969 27.5ZM24.5156 21.9688H25.0938L25.3125 21.4688C25.3438 21.4062 25.401 21.3854 25.4844 21.4062C25.5781 21.4167 25.6823 21.4479 25.7969 21.5C25.9115 21.5729 26.0208 21.651 26.125 21.7344C26.2396 21.8073 26.3385 21.8698 26.4219 21.9219C26.7031 22.1615 26.8177 22.3333 26.7656 22.4375C26.724 22.5312 26.5677 22.5781 26.2969 22.5781H24.5156V23.9531H25.2188L25.4219 23.4688C25.474 23.3542 25.5625 23.3073 25.6875 23.3281C25.8125 23.3385 25.9427 23.3802 26.0781 23.4531C26.224 23.526 26.3542 23.6146 26.4688 23.7188C26.5938 23.8229 26.6823 23.8958 26.7344 23.9375C26.9531 24.1458 27.0625 24.3021 27.0625 24.4062C27.0729 24.5104 26.9375 24.5625 26.6562 24.5625H22.9688C23.1146 24.6146 23.2448 24.6667 23.3594 24.7188C23.4844 24.7708 23.5833 24.8229 23.6562 24.875C23.7292 24.9479 23.7552 25.0208 23.7344 25.0938C23.724 25.1562 23.6406 25.224 23.4844 25.2969C23.2969 25.5469 23.0833 25.7552 22.8438 25.9219C22.6146 26.0885 22.3854 26.2344 22.1562 26.3594C21.9271 26.474 21.7188 26.5625 21.5312 26.625C21.3542 26.6875 21.224 26.724 21.1406 26.7344C20.8385 26.776 20.6771 26.7448 20.6562 26.6406C20.6354 26.526 20.7135 26.4271 20.8906 26.3438C20.974 26.3021 21.0833 26.2292 21.2188 26.125C21.3646 26.0104 21.5208 25.875 21.6875 25.7188C21.8438 25.5625 21.9948 25.3854 22.1406 25.1875C22.2969 24.9896 22.4115 24.7812 22.4844 24.5625H21.75C21.7083 24.5625 21.651 24.5729 21.5781 24.5938C21.5156 24.6042 21.4531 24.6146 21.3906 24.625C21.3385 24.6354 21.2865 24.6458 21.2344 24.6562C21.1927 24.6667 21.1719 24.6719 21.1719 24.6719L20.8594 23.875C20.8594 23.875 20.901 23.8802 20.9844 23.8906C21.0677 23.901 21.151 23.9115 21.2344 23.9219C21.3177 23.9323 21.4062 23.9427 21.5 23.9531C21.6042 23.9531 21.6875 23.9531 21.75 23.9531H23.2344V22.5781H22.3594L21.6406 22.6406L21.3438 21.9062C21.3438 21.9062 21.3802 21.9115 21.4531 21.9219C21.5365 21.9323 21.6302 21.9375 21.7344 21.9375C21.849 21.9479 21.9531 21.9583 22.0469 21.9688C22.151 21.9688 22.2344 21.9688 22.2969 21.9688H23.2344V20.0469C23.2552 20.0469 23.3021 20.0573 23.375 20.0781C23.4583 20.0885 23.5521 20.1042 23.6562 20.125C23.7812 20.1562 23.8958 20.1875 24 20.2188C24.1146 20.2396 24.2083 20.2656 24.2812 20.2969C24.5 20.3594 24.6302 20.4323 24.6719 20.5156C24.724 20.5885 24.7396 20.6562 24.7188 20.7188C24.6875 20.7917 24.6458 20.8646 24.5938 20.9375C24.5417 21.0104 24.5156 21.0677 24.5156 21.1094V21.9688ZM40.0625 26.4531C40.0625 26.599 39.9948 26.7135 39.8594 26.7969C39.724 26.8802 39.5625 26.9323 39.375 26.9531C39.2292 26.9635 39.0885 26.9323 38.9531 26.8594C38.8177 26.7865 38.7552 26.6719 38.7656 26.5156H36.25V33.5781C36.25 33.8385 36.1771 34.0365 36.0312 34.1719C35.8958 34.3177 35.7448 34.401 35.5781 34.4219C35.4115 34.4531 35.2604 34.4271 35.125 34.3438C34.9896 34.2708 34.9219 34.151 34.9219 33.9844V20.5312C35.0885 20.5312 35.25 20.5625 35.4062 20.625C35.5625 20.6875 35.6927 20.7552 35.7969 20.8281C35.9219 20.9115 36.026 20.9896 36.1094 21.0625C36.1927 21.125 36.2344 21.1562 36.2344 21.1562H38.75L38.9844 20.6562C39.0469 20.5104 39.1406 20.4635 39.2656 20.5156C39.3906 20.5573 39.5885 20.6823 39.8594 20.8906C40.1406 21.099 40.3073 21.2656 40.3594 21.3906C40.4115 21.5156 40.4167 21.6198 40.375 21.7031C40.3333 21.7865 40.2708 21.8594 40.1875 21.9219C40.1042 21.9844 40.0625 22.0469 40.0625 22.1094V26.4531ZM44.9219 23.5312V21.7812H42.3906V23.5312H44.9219ZM38.7656 23.5312V21.7812H36.25V23.5312H38.7656ZM44.9219 25.8906V24.1406H42.3906V25.8906H44.9219ZM38.7656 25.8906V24.1406H36.25V25.8906H38.7656ZM46.2344 33.125C46.2344 33.5104 46.1302 33.8281 45.9219 34.0781C45.7135 34.3281 45.4844 34.4531 45.2344 34.4531C45.1615 34.4531 45.0938 34.4323 45.0312 34.3906C44.9688 34.349 44.9271 34.3125 44.9062 34.2812C44.6354 34.0312 44.3698 33.8802 44.1094 33.8281C43.8594 33.7865 43.7292 33.7656 43.7188 33.7656C43.4792 33.7031 43.349 33.6146 43.3281 33.5C43.3177 33.3854 43.4479 33.3281 43.7188 33.3281H44.9219V26.5156H42.3906C42.3906 26.6302 42.3177 26.7292 42.1719 26.8125C42.026 26.8854 41.8802 26.9375 41.7344 26.9688C41.5781 26.9896 41.4271 26.974 41.2812 26.9219C41.1458 26.8594 41.0781 26.75 41.0781 26.5938V20.625C41.2135 20.625 41.3542 20.651 41.5 20.7031C41.6562 20.7552 41.7865 20.8125 41.8906 20.875C42.0365 20.9479 42.151 21.0156 42.2344 21.0781C42.3177 21.1302 42.3646 21.1562 42.375 21.1562H44.875L45.1094 20.5938C45.1615 20.4583 45.25 20.4167 45.375 20.4688C45.5 20.5208 45.7083 20.651 46 20.8594C46.2917 21.0781 46.4635 21.2552 46.5156 21.3906C46.5677 21.5156 46.5781 21.6198 46.5469 21.7031C46.4948 21.7865 46.4271 21.8594 46.3438 21.9219C46.2708 21.974 46.2344 22.0312 46.2344 22.0938V33.125ZM60.2969 32.7969C60.5573 33.0885 60.6406 33.2656 60.5469 33.3281C60.4531 33.401 60.3177 33.4375 60.1406 33.4375H55.2656C55.2656 33.6354 55.1927 33.8125 55.0469 33.9688C54.9115 34.125 54.7656 34.2396 54.6094 34.3125C54.4323 34.375 54.276 34.3854 54.1406 34.3438C54.0156 34.3021 53.9531 34.1719 53.9531 33.9531V25.1562C53.8698 25.2917 53.7604 25.4479 53.625 25.625C53.4688 25.8125 53.3021 25.9688 53.125 26.0938C52.9062 26.2708 52.7604 26.2865 52.6875 26.1406C52.6146 25.9844 52.6615 25.7917 52.8281 25.5625C52.9948 25.3333 53.1875 25.0052 53.4062 24.5781C53.6354 24.1406 53.8542 23.6615 54.0625 23.1406C54.2604 22.6302 54.4323 22.1042 54.5781 21.5625C54.7344 21.0104 54.8385 20.5 54.8906 20.0312L55.9375 20.4062C56.1458 20.4896 56.2656 20.5729 56.2969 20.6562C56.3385 20.7396 56.3438 20.8229 56.3125 20.9062C56.2812 20.9896 56.2344 21.0625 56.1719 21.125C56.1094 21.1875 56.0729 21.2344 56.0625 21.2656C56.0104 21.3906 55.9375 21.5573 55.8438 21.7656C55.75 21.9635 55.6562 22.1667 55.5625 22.375C55.4688 22.5729 55.3802 22.75 55.2969 22.9062C55.224 23.0521 55.1875 23.1302 55.1875 23.1406H56.5938L57.3281 20.2344L58.3125 20.5781C58.4792 20.6406 58.5833 20.7083 58.625 20.7812C58.6771 20.8438 58.6927 20.9167 58.6719 21C58.651 21.0729 58.599 21.1406 58.5156 21.2031C58.4427 21.2552 58.3802 21.3021 58.3281 21.3438C58.2656 21.4062 58.1823 21.5365 58.0781 21.7344C57.974 21.9219 57.8594 22.1198 57.7344 22.3281C57.6302 22.526 57.5365 22.7083 57.4531 22.875C57.3698 23.0417 57.3229 23.1302 57.3125 23.1406H58.2812L58.5781 22.5C58.6615 22.2917 58.8385 22.2656 59.1094 22.4219C59.3802 22.5781 59.6823 22.8021 60.0156 23.0938C60.276 23.3333 60.3646 23.5052 60.2812 23.6094C60.1979 23.7031 60.0521 23.75 59.8438 23.75H57.8281V26.3438H58.3906L58.6719 25.7656C58.724 25.6406 58.8073 25.5885 58.9219 25.6094C59.0365 25.6198 59.1615 25.6562 59.2969 25.7188C59.4427 25.7917 59.5833 25.8854 59.7188 26C59.8542 26.1042 59.9688 26.2031 60.0625 26.2969C60.1979 26.4427 60.2812 26.5625 60.3125 26.6562C60.3542 26.7396 60.3594 26.8021 60.3281 26.8438C60.3073 26.8854 60.2552 26.9167 60.1719 26.9375C60.0885 26.9479 60.0156 26.9531 59.9531 26.9531H57.8281V29.5625H58.3906L58.6719 28.9844C58.724 28.8802 58.8021 28.8281 58.9062 28.8281C59.0104 28.8281 59.125 28.8594 59.25 28.9219C59.375 28.9948 59.5052 29.0833 59.6406 29.1875C59.7865 29.2917 59.9115 29.4062 60.0156 29.5312C60.276 29.8125 60.3646 29.9896 60.2812 30.0625C60.1979 30.1354 60.0677 30.1719 59.8906 30.1719H57.8281V32.7656H58.5312L58.7969 32.1094C58.8802 31.9115 59.0781 31.901 59.3906 32.0781C59.7031 32.2448 60.0052 32.4844 60.2969 32.7969ZM56.5469 26.3438V23.75H55.25V26.3438H56.5469ZM56.5469 29.5625V26.9531H55.25V29.5625H56.5469ZM56.5469 32.7656V30.1719H55.25V32.7656H56.5469ZM50.1406 24.2344H49.2969C49.2344 24.2344 49.1615 24.2448 49.0781 24.2656C49.0052 24.276 48.9271 24.2812 48.8438 24.2812C48.7812 24.2917 48.7188 24.3021 48.6562 24.3125C48.6042 24.3125 48.5781 24.3125 48.5781 24.3125L48.3125 23.5C48.3125 23.5 48.349 23.5104 48.4219 23.5312C48.5052 23.5417 48.5833 23.5521 48.6562 23.5625C48.7396 23.5729 48.8281 23.5885 48.9219 23.6094C49.026 23.6198 49.1198 23.625 49.2031 23.625H50.1406V20.0156C50.151 20.0156 50.2604 20.0312 50.4688 20.0625C50.6771 20.0938 50.9427 20.151 51.2656 20.2344C51.5573 20.3385 51.7292 20.4427 51.7812 20.5469C51.8333 20.6406 51.8333 20.7344 51.7812 20.8281C51.7188 20.9323 51.6406 21.0365 51.5469 21.1406C51.4635 21.2344 51.4219 21.3229 51.4219 21.4062V23.625H51.8125L52.0625 23.0938C52.125 22.9271 52.2604 22.8906 52.4688 22.9844C52.6875 23.0781 52.9323 23.25 53.2031 23.5C53.4323 23.75 53.5573 23.9375 53.5781 24.0625C53.599 24.1771 53.474 24.2344 53.2031 24.2344H51.4219V27.4844L52.8906 26.9219C53.1094 26.8385 53.2552 26.8698 53.3281 27.0156C53.401 27.151 53.3021 27.3125 53.0312 27.5L51.4219 28.4531V33.0469C51.4219 33.4844 51.2969 33.8281 51.0469 34.0781C50.7969 34.3281 50.5625 34.4531 50.3438 34.4531C50.2812 34.4531 50.224 34.4323 50.1719 34.3906C50.1302 34.3594 50.099 34.3229 50.0781 34.2812C49.8073 33.9896 49.5312 33.7969 49.25 33.7031C48.9792 33.6198 48.8333 33.5781 48.8125 33.5781C48.5833 33.5052 48.4583 33.4219 48.4375 33.3281C48.4271 33.2344 48.5573 33.1875 48.8281 33.1875H50.1406V29.125L49.1719 29.75C49.0365 29.9479 48.9062 30.0104 48.7812 29.9375C48.6562 29.8542 48.5521 29.724 48.4688 29.5469C48.3646 29.3802 48.2812 29.2083 48.2188 29.0312C48.1667 28.8438 48.1406 28.7344 48.1406 28.7031L50.1406 27.9531V24.2344ZM68.9844 24.8906H67.2656V25.8125H68.9844V24.8906ZM65.9688 24.8906H64.1875V25.8125H65.9688V24.8906ZM64.1875 26.4062L64.1719 27.625H65.9688V26.4062H64.1875ZM71.9844 27.625V26.4062H70.2812V27.625H71.9844ZM68.9844 27.625V26.4062H67.2656V27.625H68.9844ZM74.0312 21.5156C74.3542 21.776 74.4844 21.974 74.4219 22.1094C74.3698 22.2344 74.2031 22.2969 73.9219 22.2969H70.5625V23C70.5625 23.1875 70.4948 23.3333 70.3594 23.4375C70.2344 23.5312 70.0781 23.5885 69.8906 23.6094C69.724 23.6302 69.5729 23.6042 69.4375 23.5312C69.3021 23.4583 69.2344 23.349 69.2344 23.2031V22.2969H66.75V23.0469C66.75 23.224 66.6771 23.3646 66.5312 23.4688C66.3958 23.5729 66.2448 23.6302 66.0781 23.6406C65.9115 23.6615 65.7552 23.6354 65.6094 23.5625C65.474 23.4896 65.4062 23.375 65.4062 23.2188V22.2969H63.0156L62.1719 22.375L61.8438 21.5625C61.8646 21.5625 61.9219 21.5729 62.0156 21.5938C62.1198 21.6146 62.2292 21.6302 62.3438 21.6406C62.4583 21.651 62.5781 21.6615 62.7031 21.6719C62.8281 21.6823 62.9271 21.6823 63 21.6719H65.4062V20.0156C65.4167 20.0156 65.5312 20.026 65.75 20.0469C65.9688 20.0573 66.2292 20.1042 66.5312 20.1875C66.8229 20.2917 67 20.3854 67.0625 20.4688C67.125 20.5521 67.1302 20.6354 67.0781 20.7188C67.026 20.7917 66.9583 20.8698 66.875 20.9531C66.7917 21.026 66.75 21.099 66.75 21.1719V21.6719H69.2344V20C69.2448 20 69.349 20.0104 69.5469 20.0312C69.7448 20.0521 70.0104 20.1042 70.3438 20.1875C70.6146 20.2812 70.776 20.3698 70.8281 20.4531C70.8906 20.526 70.901 20.6042 70.8594 20.6875C70.8073 20.7604 70.7448 20.8385 70.6719 20.9219C70.599 20.9948 70.5625 21.0625 70.5625 21.125V21.6719H72.2344L72.4688 21.0781C72.5521 20.8802 72.7031 20.8021 72.9219 20.8438C73.1406 20.875 73.5104 21.099 74.0312 21.5156ZM65.2031 31.7812C65.2031 31.8021 65.2031 31.8594 65.2031 31.9531C65.2135 32.0469 65.2135 32.1667 65.2031 32.3125C65.1927 32.4583 65.1667 32.625 65.125 32.8125C65.0833 32.9896 65.0156 33.1615 64.9219 33.3281C64.8385 33.4635 64.7344 33.599 64.6094 33.7344C64.4844 33.8802 64.349 33.9896 64.2031 34.0625C64.0469 34.1458 63.8854 34.1823 63.7188 34.1719C63.5521 34.1615 63.401 34.0781 63.2656 33.9219C63.151 33.8073 63.099 33.6979 63.1094 33.5938C63.1198 33.4896 63.1667 33.3906 63.25 33.2969C63.3333 33.2135 63.4323 33.125 63.5469 33.0312C63.6719 32.9479 63.7917 32.8594 63.9062 32.7656C64.1146 32.6302 64.2917 32.474 64.4375 32.2969C64.5833 32.1094 64.6979 31.9479 64.7812 31.8125C64.875 31.6875 64.9583 31.6042 65.0312 31.5625C65.1042 31.5208 65.1615 31.5938 65.2031 31.7812ZM67.3281 33.8281C67.099 34.1302 66.8542 34.2448 66.5938 34.1719C66.3333 34.099 66.2135 33.8698 66.2344 33.4844C66.2448 33.1406 66.224 32.8438 66.1719 32.5938C66.1302 32.3333 66.0833 32.1302 66.0312 31.9844C65.9896 31.901 65.9635 31.8125 65.9531 31.7188C65.9427 31.625 65.9635 31.5573 66.0156 31.5156C66.0469 31.474 66.1198 31.4635 66.2344 31.4844C66.349 31.5052 66.4896 31.5885 66.6562 31.7344C66.8333 31.8698 66.9844 32.0365 67.1094 32.2344C67.2344 32.4219 67.3281 32.6146 67.3906 32.8125C67.4635 33.0208 67.4948 33.2135 67.4844 33.3906C67.474 33.5781 67.4219 33.724 67.3281 33.8281ZM69.7969 33.4688C69.599 33.8021 69.3594 33.9115 69.0781 33.7969C68.8073 33.6823 68.6406 33.4479 68.5781 33.0938C68.526 32.8438 68.4219 32.599 68.2656 32.3594C68.1198 32.1094 68.0052 31.9271 67.9219 31.8125C67.7552 31.6875 67.6823 31.5625 67.7031 31.4375C67.7344 31.3125 67.9688 31.3125 68.4062 31.4375C68.6771 31.5312 68.9167 31.6615 69.125 31.8281C69.3438 31.9948 69.5208 32.1771 69.6562 32.375C69.7708 32.5625 69.8438 32.7552 69.875 32.9531C69.9062 33.151 69.8802 33.3229 69.7969 33.4688ZM66.625 28.2031L66.4688 29.0781H72L72.2344 28.4844V28.4688C72.151 28.4583 72.0885 28.4323 72.0469 28.3906C72.0052 28.349 71.9844 28.2865 71.9844 28.2031H66.625ZM71.4688 33.5L72.0938 33.5156C72.1562 33.5156 72.2083 33.4427 72.25 33.2969C72.2917 33.151 72.3281 32.9635 72.3594 32.7344C72.3802 32.5052 72.3958 32.25 72.4062 31.9688C72.4271 31.6771 72.4375 31.3958 72.4375 31.125H66.2031C66.2031 31.2083 66.1302 31.2865 65.9844 31.3594C65.849 31.4219 65.7083 31.4635 65.5625 31.4844C65.4062 31.5052 65.2604 31.4948 65.125 31.4531C65 31.401 64.9375 31.2969 64.9375 31.1406L65.3594 28.2031H64.1406C64.1406 28.3594 64.1302 28.5417 64.1094 28.75C64.099 28.9479 64.0833 29.151 64.0625 29.3594C64.0521 29.5677 64.0365 29.7656 64.0156 29.9531C63.9948 30.1302 63.9792 30.276 63.9688 30.3906C63.8333 31.2969 63.5938 32.0729 63.25 32.7188C62.9167 33.3542 62.5469 33.8333 62.1406 34.1562C61.849 34.3958 61.651 34.4583 61.5469 34.3438C61.4531 34.2292 61.4948 34.0521 61.6719 33.8125C61.9531 33.3958 62.224 32.8073 62.4844 32.0469C62.7448 31.276 62.875 30.375 62.875 29.3438V23.7969C63.0208 23.7969 63.1719 23.8229 63.3281 23.875C63.4948 23.9271 63.6354 23.9792 63.75 24.0312C63.875 24.0938 63.974 24.1562 64.0469 24.2188C64.1302 24.2708 64.1719 24.2969 64.1719 24.2969H67.5625V22.7656C67.5833 22.7656 67.6354 22.776 67.7188 22.7969C67.8021 22.8073 67.8958 22.8177 68 22.8281C68.125 22.849 68.2448 22.8698 68.3594 22.8906C68.4844 22.9115 68.5885 22.9323 68.6719 22.9531C68.8698 23.0052 68.9948 23.0677 69.0469 23.1406C69.099 23.2135 69.1094 23.2865 69.0781 23.3594C69.0573 23.4427 69.0208 23.526 68.9688 23.6094C68.9271 23.6823 68.9062 23.7396 68.9062 23.7812V24.2969H72.0625L72.3906 23.7344C72.474 23.599 72.6354 23.5781 72.875 23.6719C73.1146 23.7656 73.4531 23.9688 73.8906 24.2812C74.1094 24.4375 74.2135 24.5781 74.2031 24.7031C74.1927 24.8281 74.0781 24.8906 73.8594 24.8906H70.2812V25.8125H71.9531L72.1719 25.3281C72.224 25.2135 72.3177 25.1927 72.4531 25.2656C72.599 25.3281 72.7917 25.4323 73.0312 25.5781C73.2812 25.7552 73.4323 25.8958 73.4844 26C73.5469 26.1042 73.5625 26.1979 73.5312 26.2812C73.4896 26.3542 73.4323 26.4167 73.3594 26.4688C73.2969 26.5208 73.2656 26.5677 73.2656 26.6094V28.0938C73.2656 28.1667 73.2188 28.2344 73.125 28.2969C73.0417 28.3594 72.9375 28.4062 72.8125 28.4375C72.9688 28.5104 73.125 28.6042 73.2812 28.7188C73.4375 28.8229 73.599 28.9375 73.7656 29.0625C74.0052 29.25 74.0938 29.3958 74.0312 29.5C73.9792 29.5938 73.875 29.6406 73.7188 29.6406H66.4062L66.2656 30.5H72.4219L72.5781 30.1562C72.6094 30.0833 72.6875 30.0625 72.8125 30.0938C72.9479 30.1146 73.1771 30.2292 73.5 30.4375C73.7292 30.5729 73.8698 30.6927 73.9219 30.7969C73.974 30.901 73.9844 30.9948 73.9531 31.0781C73.9219 31.1615 73.875 31.2344 73.8125 31.2969C73.7604 31.3594 73.7344 31.4115 73.7344 31.4531C73.7344 31.8073 73.7135 32.1667 73.6719 32.5312C73.6302 32.8854 73.5469 33.1979 73.4219 33.4688C73.3281 33.7604 73.2031 33.9948 73.0469 34.1719C72.8906 34.349 72.7083 34.4375 72.5 34.4375C72.4271 34.4375 72.3594 34.4219 72.2969 34.3906C72.2448 34.3594 72.2083 34.3125 72.1875 34.25C72.0625 34.1771 71.9271 34.1146 71.7812 34.0625C71.6354 34.0104 71.4896 33.974 71.3438 33.9531C71.2292 33.9323 71.125 33.9167 71.0312 33.9062C70.9375 33.8958 70.8854 33.8906 70.875 33.8906C70.6354 33.8906 70.5156 33.8229 70.5156 33.6875C70.526 33.5625 70.651 33.5 70.8906 33.5H71.0625C70.9792 33.4688 70.901 33.4062 70.8281 33.3125C70.7656 33.2292 70.7188 33.1094 70.6875 32.9531C70.6562 32.7865 70.5677 32.5729 70.4219 32.3125C70.2865 32.0417 70.1406 31.8385 69.9844 31.7031C69.901 31.6406 69.8385 31.5781 69.7969 31.5156C69.7656 31.4427 69.7656 31.3854 69.7969 31.3438C69.8385 31.3125 69.9271 31.3021 70.0625 31.3125C70.1979 31.3125 70.3802 31.349 70.6094 31.4219C70.8802 31.5156 71.1146 31.6458 71.3125 31.8125C71.5208 31.9688 71.6771 32.1406 71.7812 32.3281C71.8958 32.5052 71.9531 32.6823 71.9531 32.8594C71.9531 33.0365 71.8958 33.1823 71.7812 33.2969C71.75 33.349 71.7083 33.3906 71.6562 33.4219C71.6042 33.4635 71.5417 33.4896 71.4688 33.5Z" fill="black"/>
<path d="M33.208 7.12H41.72V9.728H41.304L40.84 8.048C40.808 7.92 40.7707 7.82933 40.728 7.776C40.696 7.712 40.6267 7.67467 40.52 7.664C40.4133 7.64267 40.232 7.632 39.976 7.632H38.168V16.704C38.168 17.0773 38.184 17.296 38.216 17.36C38.248 17.424 38.3493 17.4667 38.52 17.488L39.4 17.584V18H35.544V17.584L36.424 17.488C36.5947 17.4667 36.696 17.424 36.728 17.36C36.76 17.296 36.776 17.0773 36.776 16.704V7.632H34.952C34.7067 7.632 34.5253 7.64267 34.408 7.664C34.3013 7.67467 34.2267 7.712 34.184 7.776C34.152 7.82933 34.12 7.92 34.088 8.048L33.624 9.728H33.208V7.12ZM51.4095 11.952V13.152C51.4095 14.7093 51.0522 15.936 50.3375 16.832C49.6228 17.7173 48.5988 18.16 47.2655 18.16C45.9215 18.16 44.8922 17.7173 44.1775 16.832C43.4735 15.936 43.1215 14.7093 43.1215 13.152V11.952C43.1215 10.4053 43.4735 9.18933 44.1775 8.304C44.8922 7.408 45.9215 6.96 47.2655 6.96C48.5988 6.96 49.6228 7.408 50.3375 8.304C51.0522 9.18933 51.4095 10.4053 51.4095 11.952ZM49.8895 11.152C49.8895 9.81867 49.6655 8.87467 49.2175 8.32C48.7802 7.75467 48.1295 7.472 47.2655 7.472C46.4015 7.472 45.7455 7.75467 45.2975 8.32C44.8602 8.87467 44.6415 9.81867 44.6415 11.152V13.952C44.6415 15.2853 44.8602 16.2347 45.2975 16.8C45.7455 17.3653 46.4015 17.648 47.2655 17.648C48.1295 17.648 48.7802 17.3653 49.2175 16.8C49.6655 16.2347 49.8895 15.2853 49.8895 13.952V11.152ZM53.3618 7.552V7.12H57.9058C58.9618 7.12 59.7671 7.38667 60.3218 7.92C60.8764 8.44267 61.1538 9.14133 61.1538 10.016V10.48C61.1538 11.3547 60.8764 12.0587 60.3218 12.592C59.7671 13.1253 58.9618 13.392 57.9058 13.392H55.9858V16.704C55.9858 17.0773 56.0018 17.3013 56.0338 17.376C56.0658 17.44 56.1671 17.4773 56.3378 17.488L57.5378 17.584V18H53.3618V17.584L54.2418 17.488C54.4124 17.4667 54.5138 17.424 54.5458 17.36C54.5778 17.296 54.5938 17.0773 54.5938 16.704V8.416C54.5938 8.04267 54.5778 7.824 54.5458 7.76C54.5138 7.696 54.4124 7.65333 54.2418 7.632L53.3618 7.552ZM57.9058 7.632H55.9858V12.88H57.9058C59.0898 12.88 59.6818 12.1547 59.6818 10.704V9.792C59.6818 8.352 59.0898 7.632 57.9058 7.632Z" fill="black"/>
<defs>
<linearGradient id="paint0_linear_138_248" x1="47" y1="0" x2="47" y2="42" gradientUnits="userSpaceOnUse">
<stop stop-color="#95DBC5"/>
<stop offset="1" stop-color="#75A3C4"/>
</linearGradient>
</defs>
</svg>
