<svg width="100" height="100" viewBox="0 0 100 100" fill="none" xmlns="http://www.w3.org/2000/svg">
<circle cx="50" cy="50" r="50" fill="#FBFBFB"/>
<circle cx="50" cy="51" r="40" fill="#F6F7F0"/>
<path d="M30.0283 28.7549V32.7412H34.0781C34.1458 32.7412 34.2051 32.7666 34.2559 32.8174C34.3066 32.8682 34.332 32.9274 34.332 32.9951C34.332 33.0628 34.3066 33.1221 34.2559 33.1729C34.2051 33.2236 34.1458 33.249 34.0781 33.249H30.0283V38.0605H36.2109C36.2786 38.0605 36.3379 38.0859 36.3887 38.1367C36.4395 38.1875 36.4648 38.2467 36.4648 38.3145C36.4648 38.3822 36.4395 38.4414 36.3887 38.4922C36.3379 38.543 36.2786 38.5684 36.2109 38.5684H29.8887C29.821 38.5684 29.7575 38.5514 29.6982 38.5176C29.639 38.4837 29.5924 38.4372 29.5586 38.3779C29.5247 38.3187 29.5078 38.2552 29.5078 38.1875V28.6279C29.5078 28.5179 29.5417 28.429 29.6094 28.3613C29.6855 28.2852 29.7786 28.2471 29.8887 28.2471H35.7285C35.7962 28.2471 35.8555 28.2725 35.9062 28.3232C35.957 28.374 35.9824 28.4333 35.9824 28.501C35.9824 28.5687 35.957 28.6279 35.9062 28.6787C35.8555 28.7295 35.7962 28.7549 35.7285 28.7549H30.0283ZM37.9883 33.7314V38.416C37.9883 38.4837 37.9629 38.543 37.9121 38.5938C37.8613 38.6445 37.8021 38.6699 37.7344 38.6699C37.6667 38.6699 37.6074 38.6445 37.5566 38.5938C37.5059 38.543 37.4805 38.4837 37.4805 38.416V31.5732C37.4805 31.5055 37.5059 31.4463 37.5566 31.3955C37.6074 31.3447 37.6667 31.3193 37.7344 31.3193C37.8021 31.3193 37.8613 31.3447 37.9121 31.3955C37.9629 31.4463 37.9883 31.5055 37.9883 31.5732V32.6016C38.0221 32.5508 38.056 32.5 38.0898 32.4492C38.6484 31.6621 39.3509 31.2686 40.1973 31.2686C41.0436 31.2686 41.7461 31.6663 42.3047 32.4619C42.8633 33.249 43.1426 34.1673 43.1426 35.2168V38.416C43.1426 38.4837 43.1172 38.543 43.0664 38.5938C43.0156 38.6445 42.9564 38.6699 42.8887 38.6699C42.821 38.6699 42.7617 38.6445 42.7109 38.5938C42.6602 38.543 42.6348 38.4837 42.6348 38.416V35.2168C42.6348 34.2689 42.3978 33.4606 41.9238 32.792C41.4499 32.1149 40.8743 31.7764 40.1973 31.7764C39.5202 31.7764 38.9447 32.1107 38.4707 32.7793C38.2676 33.0755 38.1068 33.3929 37.9883 33.7314ZM47.7002 31.7891C47.0824 31.7891 46.5618 31.9668 46.1387 32.3223C45.7155 32.6693 45.5039 33.0798 45.5039 33.5537C45.5039 34.0361 45.7155 34.4551 46.1387 34.8105C46.5618 35.1576 47.0824 35.3311 47.7002 35.3311C48.318 35.3311 48.8385 35.1576 49.2617 34.8105C49.6849 34.4551 49.8965 34.0361 49.8965 33.5537C49.8965 33.0798 49.6849 32.6693 49.2617 32.3223C48.8385 31.9668 48.318 31.7891 47.7002 31.7891ZM44.666 38.0098C44.666 38.2552 44.9242 38.526 45.4404 38.8223C45.9652 39.11 46.5534 39.2666 47.2051 39.292C47.2897 39.3005 47.3701 39.3047 47.4463 39.3047H47.5225C48.1572 39.3047 48.7539 39.1693 49.3125 38.8984C49.8372 38.6445 50.1081 38.4456 50.125 38.3018C50.1335 38.2679 50.1377 38.234 50.1377 38.2002C50.1377 37.8447 49.6976 37.557 48.8174 37.3369C47.8695 37.0407 47.0146 36.8333 46.2529 36.7148C45.2288 37.1634 44.6999 37.5951 44.666 38.0098ZM46.2275 35.4707C45.7282 35.6061 45.4785 35.7331 45.4785 35.8516C45.4785 35.9362 45.9144 36.0843 46.7861 36.2959C47.641 36.4482 48.4111 36.6429 49.0967 36.8799C49.7907 37.1507 50.2054 37.3581 50.3408 37.502C50.4847 37.6458 50.582 37.8405 50.6328 38.0859V38.2002C50.6243 38.5895 50.3112 38.9408 49.6934 39.2539C49.1517 39.5586 48.5296 39.7406 47.8271 39.7998L47.459 39.8125C46.748 39.804 46.0837 39.6559 45.4658 39.3682C44.8141 39.0973 44.391 38.7461 44.1963 38.3145C44.1794 38.2552 44.1667 38.1536 44.1582 38.0098C44.2428 37.375 44.7464 36.8672 45.6689 36.4863C45.2035 36.3086 44.9707 36.1139 44.9707 35.9023C44.9707 35.5892 45.2373 35.3395 45.7705 35.1533C45.2542 34.7217 44.9961 34.1885 44.9961 33.5537C44.9961 32.9189 45.2627 32.3815 45.7959 31.9414C46.3291 31.5013 46.9639 31.2812 47.7002 31.2812C48.335 31.2812 48.8936 31.4463 49.376 31.7764L50.1631 31.2812C50.2054 31.2559 50.2477 31.2432 50.29 31.2432C50.307 31.2432 50.3281 31.2474 50.3535 31.2559C50.4212 31.2728 50.472 31.3109 50.5059 31.3701C50.5312 31.4124 50.5439 31.459 50.5439 31.5098V31.5605C50.5186 31.6283 50.4762 31.679 50.417 31.7129L49.7949 32.1191C50.2012 32.5254 50.4043 33.0036 50.4043 33.5537C50.4043 34.1969 50.1377 34.7386 49.6045 35.1787C49.0713 35.6188 48.4365 35.8389 47.7002 35.8389C47.1501 35.8389 46.6592 35.7161 46.2275 35.4707ZM53.3496 28.3359C53.4512 28.3359 53.54 28.374 53.6162 28.4502C53.6924 28.5264 53.7305 28.6152 53.7305 28.7168V38.5176C53.7305 38.5853 53.7051 38.6445 53.6543 38.6953C53.6035 38.7461 53.5443 38.7715 53.4766 38.7715C53.4089 38.7715 53.3496 38.7461 53.2988 38.6953C53.248 38.6445 53.2227 38.5853 53.2227 38.5176V28.8438H51.9023C51.8346 28.8438 51.7754 28.8184 51.7246 28.7676C51.6738 28.7168 51.6484 28.6576 51.6484 28.5898C51.6484 28.5221 51.6738 28.4629 51.7246 28.4121C51.7754 28.3613 51.8346 28.3359 51.9023 28.3359H53.3496ZM56.4473 38.5176C56.4473 38.5853 56.4219 38.6445 56.3711 38.6953C56.3203 38.7461 56.2611 38.7715 56.1934 38.7715C56.1257 38.7715 56.0664 38.7461 56.0156 38.6953C55.9648 38.6445 55.9395 38.5853 55.9395 38.5176V31.5352C55.9395 31.4674 55.9648 31.4082 56.0156 31.3574C56.0664 31.3066 56.1257 31.2812 56.1934 31.2812C56.2611 31.2812 56.3203 31.3066 56.3711 31.3574C56.4219 31.4082 56.4473 31.4674 56.4473 31.5352V38.5176ZM56.1934 28.3232C56.3118 28.3232 56.4219 28.3529 56.5234 28.4121C56.6335 28.4714 56.7181 28.556 56.7773 28.666C56.8451 28.776 56.8789 28.8903 56.8789 29.0088C56.8789 29.1273 56.8493 29.2415 56.79 29.3516C56.7308 29.4616 56.6462 29.5462 56.5361 29.6055C56.4261 29.6647 56.3118 29.6943 56.1934 29.6943C56.0749 29.6943 55.9606 29.6647 55.8506 29.6055C55.7406 29.5462 55.6559 29.4616 55.5967 29.3516C55.5374 29.2415 55.5078 29.1273 55.5078 29.0088C55.5078 28.8903 55.5374 28.776 55.5967 28.666C55.6644 28.556 55.749 28.4714 55.8506 28.4121C55.9606 28.3529 56.0749 28.3232 56.1934 28.3232ZM60.9668 35.1406C60.3405 35.1406 59.7988 34.9544 59.3418 34.582C58.8848 34.2096 58.6562 33.7526 58.6562 33.2109C58.6562 32.6608 58.8848 32.2038 59.3418 31.8398C59.7988 31.4674 60.3405 31.2812 60.9668 31.2812C61.5931 31.2812 62.1348 31.4632 62.5918 31.8271C63.0234 32.1826 63.2477 32.4873 63.2646 32.7412V32.7793C63.2646 33.0332 63.1842 33.1602 63.0234 33.1602C62.8542 33.1602 62.7695 33.0798 62.7695 32.9189C62.7695 32.7243 62.596 32.4873 62.249 32.208C61.902 31.9287 61.4746 31.7891 60.9668 31.7891C60.459 31.7891 60.0316 31.9287 59.6846 32.208C59.3376 32.4873 59.1641 32.8216 59.1641 33.2109C59.1641 33.5918 59.3376 33.9261 59.6846 34.2139C60.0316 34.4932 60.459 34.6328 60.9668 34.6328H61.2461C61.9655 34.6328 62.5876 34.8232 63.1123 35.2041C63.637 35.585 63.8994 36.0589 63.8994 36.626C63.8994 37.193 63.637 37.6712 63.1123 38.0605C62.5876 38.4414 61.9655 38.6318 61.2461 38.6318C60.5352 38.6318 59.9173 38.4372 59.3926 38.0479C59.0625 37.8109 58.8678 37.612 58.8086 37.4512C58.7917 37.4089 58.7832 37.3708 58.7832 37.3369C58.7832 37.2438 58.8424 37.1719 58.9609 37.1211C59.0117 37.1042 59.0583 37.0957 59.1006 37.0957C59.1768 37.0957 59.2318 37.1338 59.2656 37.21C59.3079 37.3285 59.4645 37.4808 59.7354 37.667C60.1416 37.9717 60.6452 38.124 61.2461 38.124C61.8555 38.124 62.3633 37.9759 62.7695 37.6797C63.1842 37.375 63.3916 37.0238 63.3916 36.626C63.3916 36.2282 63.1842 35.8812 62.7695 35.585C62.3633 35.2887 61.8555 35.1406 61.2461 35.1406H60.9668ZM70.4121 38.7715C70.3698 38.7715 70.3275 38.763 70.2852 38.7461C70.2428 38.7207 70.2132 38.6868 70.1963 38.6445C70.1794 38.6022 70.1709 38.5599 70.1709 38.5176V34.1123C70.1709 33.4606 69.9466 32.9105 69.498 32.4619C69.041 32.0049 68.4782 31.7764 67.8096 31.7764C67.1494 31.7764 66.5866 32.0049 66.1211 32.4619C65.6556 32.9189 65.4229 33.4818 65.4229 34.1504V38.5176C65.4229 38.5853 65.3975 38.6445 65.3467 38.6953C65.2959 38.7461 65.2367 38.7715 65.1689 38.7715C65.1012 38.7715 65.042 38.7461 64.9912 38.6953C64.9404 38.6445 64.915 38.5853 64.915 38.5176V28.3486C64.915 28.2809 64.9404 28.2217 64.9912 28.1709C65.042 28.1201 65.1012 28.0947 65.1689 28.0947C65.2367 28.0947 65.2959 28.1201 65.3467 28.1709C65.3975 28.2217 65.4229 28.2809 65.4229 28.3486V32.5127C65.5244 32.3604 65.6429 32.2207 65.7783 32.0938C66.3369 31.5352 67.014 31.2559 67.8096 31.2559C68.6136 31.2559 69.2907 31.5352 69.8408 32.0938C70.3994 32.6439 70.6787 33.3252 70.6787 34.1377V38.5176C70.6787 38.5853 70.6533 38.6445 70.6025 38.6953C70.5518 38.7461 70.4925 38.7715 70.4248 38.7715H70.4121Z" fill="black"/>
<path d="M32.9326 46.5801C32.9326 46.1908 33.1019 45.8903 33.4404 45.6787C33.6097 45.5856 33.7874 45.5391 33.9736 45.5391H39.0771C39.4749 45.5391 39.7712 45.7168 39.9658 46.0723C40.0589 46.2161 40.1055 46.3812 40.1055 46.5674V46.5801L39.9912 53.6133C39.9912 54.0026 39.8262 54.2988 39.4961 54.502L39.4707 54.5146C39.3099 54.6077 39.1364 54.6543 38.9502 54.6543H33.9736C33.5843 54.6543 33.2881 54.485 33.085 54.1465C32.9834 53.9772 32.9326 53.8037 32.9326 53.626V46.5801ZM33.4531 50.0967V53.6133C33.4531 53.8587 33.5674 54.0195 33.7959 54.0957L33.9736 54.1338H38.9629C39.1999 54.1338 39.3564 54.0195 39.4326 53.791L39.4707 53.6133L39.5342 50.0967H33.4531ZM39.5469 49.5889L39.585 46.5801C39.585 46.3346 39.4707 46.1738 39.2422 46.0977L39.0645 46.0596H33.9736C33.7367 46.0596 33.5758 46.1738 33.4912 46.4023L33.4531 46.5801V49.5889H39.5469ZM50.6807 47.8496C51.7471 50.2363 53.1943 51.9544 55.0225 53.0039L55.0352 53.0166C55.179 53.0928 55.2171 53.1943 55.1494 53.3213L55.1367 53.334C55.0605 53.4779 54.9632 53.5286 54.8447 53.4863L54.8066 53.4736C52.8516 52.3734 51.3027 50.5452 50.1602 47.9893L50.1475 47.8496H49.7539V52.915H52.2168C52.3438 52.915 52.4199 52.9785 52.4453 53.1055V53.1436C52.4453 53.3044 52.3861 53.3975 52.2676 53.4229L52.2549 53.4355H49.7539V56.165C49.7539 56.2751 49.6947 56.347 49.5762 56.3809L49.5254 56.3936C49.3646 56.3936 49.2715 56.3301 49.2461 56.2031V53.4355H46.7705C46.6436 53.4355 46.5674 53.3678 46.542 53.2324V53.1943C46.542 53.042 46.6012 52.9531 46.7197 52.9277L46.7324 52.915H49.2461V47.8496H48.916C48.1035 50.6257 46.432 52.6738 43.9014 53.9941C43.766 54.0618 43.6602 54.0238 43.584 53.8799C43.5586 53.8206 43.5459 53.7656 43.5459 53.7148C43.5459 53.6387 43.584 53.5752 43.6602 53.5244C46.013 52.2972 47.583 50.4056 48.3701 47.8496H43.7109C43.584 47.8496 43.5078 47.7861 43.4824 47.6592V47.6211C43.4824 47.4603 43.5417 47.3672 43.6602 47.3418L43.7109 47.3291H49.2461V44.5996C49.2461 44.4727 49.3096 44.3965 49.4365 44.3711H49.4746C49.627 44.3711 49.7158 44.4303 49.7412 44.5488L49.7539 44.5615V47.3291H55.251C55.3779 47.3291 55.4541 47.3968 55.4795 47.5322V47.5703C55.4795 47.7227 55.4202 47.8115 55.3018 47.8369L55.2891 47.8496H50.6807ZM62.2588 52.5088C62.2588 52.1025 62.4323 51.7979 62.7793 51.5947C62.9316 51.5101 63.1009 51.4678 63.2871 51.4678H66.0293C66.4186 51.4678 66.7148 51.637 66.918 51.9756C67.0111 52.1364 67.0576 52.3099 67.0576 52.4961V52.5088L67.0449 54.7178C67.0449 55.1071 66.8757 55.4076 66.5371 55.6191C66.3763 55.7122 66.1986 55.7588 66.0039 55.7588H63.3379C62.9232 55.7588 62.6185 55.5853 62.4238 55.2383C62.3307 55.0859 62.2842 54.9167 62.2842 54.7305V54.7178L62.2588 52.5088ZM66.5371 52.5088C66.5371 52.2633 66.4271 52.1025 66.207 52.0264L66.0293 51.9883H63.2871C63.0501 51.9883 62.8936 52.1025 62.8174 52.3311L62.7793 52.5088L62.8047 54.7178C62.8047 54.9632 62.9147 55.124 63.1348 55.2002L63.3252 55.2383H66.0039C66.2493 55.2383 66.4102 55.124 66.4863 54.8955L66.5244 54.7178L66.5371 52.5088ZM66.0674 49.5254V47.8623C66.0674 47.6253 65.9531 47.4645 65.7246 47.3799L65.5469 47.3418H64.0234C63.9049 48.0527 63.7865 48.7806 63.668 49.5254H66.0674ZM66.5879 49.5254H68.2764C68.4033 49.5254 68.4795 49.5931 68.5049 49.7285V49.7666C68.5049 49.9189 68.4456 50.0078 68.3271 50.0332L68.3145 50.0459H61.0527C60.9258 50.0459 60.8496 49.9824 60.8242 49.8555V49.8174C60.8242 49.665 60.8835 49.5719 61.002 49.5381L61.0146 49.5254H63.1348C63.2702 48.7806 63.3887 48.0527 63.4902 47.3418H62.043C61.9329 47.3418 61.861 47.2868 61.8271 47.1768L61.8145 47.1641V47.1133C61.8145 46.9694 61.8737 46.8763 61.9922 46.834C62.0091 46.8255 62.026 46.8213 62.043 46.8213H63.5664L63.7568 45.5264H61.7764C61.641 45.5264 61.5605 45.4629 61.5352 45.3359V45.2979C61.5352 45.137 61.5986 45.0439 61.7256 45.0186L61.7383 45.0059H67.5781C67.7135 45.0059 67.7939 45.0693 67.8193 45.1963V45.2344C67.8193 45.3952 67.7559 45.4883 67.6289 45.5137L67.6162 45.5264H64.29L64.0996 46.8213H65.5469C65.9362 46.8213 66.2324 46.9906 66.4355 47.3291C66.5371 47.4984 66.5879 47.6719 66.5879 47.8496V49.5254ZM57.4854 45.5264C57.3499 45.5264 57.2695 45.4629 57.2441 45.3359V45.2979C57.2441 45.137 57.3076 45.0439 57.4346 45.0186L57.4854 45.0059H60.5449C60.6803 45.0059 60.7607 45.0693 60.7861 45.1963V45.2344C60.7861 45.3952 60.7227 45.4883 60.5957 45.5137L60.583 45.5264H57.4854ZM56.9648 47.4688C56.8294 47.4688 56.749 47.401 56.7236 47.2656V47.2275C56.7236 47.0752 56.7871 46.9863 56.9141 46.9609L56.9648 46.9482H61.1035C61.2389 46.9482 61.3193 47.0117 61.3447 47.1387V47.1768C61.3447 47.346 61.2812 47.4434 61.1543 47.4688H56.9648ZM57.5869 49.3477C57.46 49.3477 57.3796 49.2842 57.3457 49.1572V49.1191C57.3457 48.9583 57.4092 48.8652 57.5361 48.8398L57.5869 48.8271H60.5195C60.6549 48.8271 60.7354 48.8906 60.7607 49.0176V49.0684C60.7607 49.2207 60.6973 49.3096 60.5703 49.335L60.5576 49.3477H57.5869ZM57.5488 51.1885C57.4134 51.1885 57.333 51.125 57.3076 50.998V50.96C57.3076 50.7992 57.3753 50.7061 57.5107 50.6807H60.583C60.7184 50.6807 60.7988 50.7441 60.8242 50.8711V50.9092C60.8242 51.0615 60.765 51.1504 60.6465 51.1758L60.6338 51.1885H57.5488ZM58.3613 53.0039C58.1243 53.0039 57.9593 53.1139 57.8662 53.334L57.8408 53.5244V54.7178C57.8408 54.9632 57.9551 55.124 58.1836 55.2002V55.2129L58.3613 55.2383H59.5547C59.7917 55.2383 59.9482 55.124 60.0244 54.8955L60.0752 54.7178V53.5244C60.0752 53.279 59.9609 53.1182 59.7324 53.042L59.5547 53.0039H58.3613ZM58.3613 55.7588C57.9551 55.7588 57.6546 55.5811 57.46 55.2256C57.3669 55.0817 57.3203 54.9167 57.3203 54.7305V53.5244C57.3203 53.1182 57.4938 52.8135 57.8408 52.6104C58.0016 52.5257 58.1751 52.4834 58.3613 52.4834H59.5547C59.944 52.4834 60.2402 52.6527 60.4434 52.9912C60.5365 53.152 60.583 53.3255 60.583 53.5117V54.7178C60.583 55.1071 60.418 55.4076 60.0879 55.6191C59.9186 55.7122 59.7409 55.7588 59.5547 55.7588H58.3613Z" fill="black"/>
<path d="M39.944 62.353H40.633V71.05H39.944V62.353ZM40.386 66.318H42.453V66.916H40.386V66.318ZM31.767 63.874H38.631V64.459H31.767V63.874ZM35.199 65.239C35.745 65.239 36.2217 65.3257 36.629 65.499C37.0363 65.6723 37.3527 65.9193 37.578 66.24C37.8033 66.552 37.916 66.9247 37.916 67.358C37.916 67.7827 37.8033 68.151 37.578 68.463C37.3527 68.775 37.0363 69.022 36.629 69.204C36.2217 69.3773 35.745 69.464 35.199 69.464C34.653 69.464 34.172 69.3773 33.756 69.204C33.3487 69.022 33.028 68.775 32.794 68.463C32.5687 68.151 32.456 67.7827 32.456 67.358C32.456 66.9247 32.5687 66.552 32.794 66.24C33.028 65.9193 33.3487 65.6723 33.756 65.499C34.172 65.3257 34.653 65.239 35.199 65.239ZM35.199 65.798C34.575 65.798 34.0723 65.9453 33.691 66.24C33.3097 66.526 33.119 66.8987 33.119 67.358C33.119 67.8087 33.3097 68.177 33.691 68.463C34.0723 68.749 34.575 68.892 35.199 68.892C35.8143 68.892 36.3083 68.749 36.681 68.463C37.0623 68.177 37.253 67.8087 37.253 67.358C37.253 66.8987 37.0623 66.526 36.681 66.24C36.3083 65.9453 35.8143 65.798 35.199 65.798ZM34.848 62.353H35.55V64.199H34.848V62.353ZM33.574 73.039H41.218V73.637H33.574V73.039ZM33.574 70.335H34.263V73.286H33.574V70.335ZM45.052 62.912H52.579V63.51H45.052V62.912ZM43.674 67.15H54.191V67.735H43.674V67.15ZM48.575 67.527H49.264V70.439H48.575V67.527ZM52.072 62.912H52.748V63.718C52.748 64.186 52.7307 64.7233 52.696 65.33C52.6613 65.928 52.5487 66.6343 52.358 67.449L51.682 67.358C51.8813 66.5607 51.994 65.8717 52.02 65.291C52.0547 64.7017 52.072 64.1773 52.072 63.718V62.912ZM44.792 70.14H52.852V73.923H52.163V70.738H44.792V70.14ZM58.675 63.276C59.2383 63.276 59.728 63.4407 60.144 63.77C60.5686 64.0993 60.898 64.563 61.132 65.161C61.3746 65.7503 61.496 66.4523 61.496 67.267C61.496 68.073 61.3746 68.775 61.132 69.373C60.898 69.971 60.5686 70.4347 60.144 70.764C59.728 71.0847 59.2383 71.245 58.675 71.245C58.129 71.245 57.6393 71.0847 57.206 70.764C56.7813 70.4347 56.452 69.971 56.218 69.373C55.984 68.775 55.867 68.073 55.867 67.267C55.867 66.4523 55.984 65.7503 56.218 65.161C56.452 64.563 56.7813 64.0993 57.206 63.77C57.6393 63.4407 58.129 63.276 58.675 63.276ZM58.675 63.887C58.2503 63.887 57.8776 64.0343 57.557 64.329C57.2363 64.615 56.9806 65.0093 56.79 65.512C56.608 66.0147 56.517 66.5997 56.517 67.267C56.517 67.9257 56.608 68.5107 56.79 69.022C56.9806 69.5333 57.2363 69.932 57.557 70.218C57.8776 70.504 58.2503 70.647 58.675 70.647C59.0996 70.647 59.4766 70.504 59.806 70.218C60.1353 69.932 60.391 69.5333 60.573 69.022C60.755 68.5107 60.846 67.9257 60.846 67.267C60.846 66.5997 60.755 66.0147 60.573 65.512C60.391 65.0093 60.1353 64.615 59.806 64.329C59.4766 64.0343 59.0996 63.887 58.675 63.887ZM64.382 62.327H65.071V73.936H64.382V62.327ZM61.236 66.903H64.707V67.475H61.236V66.903Z" fill="black"/>
</svg>
