<svg width="32" height="30" viewBox="0 0 32 30" fill="none" xmlns="http://www.w3.org/2000/svg">
<path d="M16.4611 11.0039C4.78278 11.4372 2.62533 8.68274 1 2.30508" stroke="url(#paint0_linear_131_143)" stroke-linecap="round"/>
<path d="M1 2.30507C12.6783 1.87169 14.8358 4.62619 16.4611 11.0039" stroke="url(#paint1_linear_131_143)" stroke-linecap="round"/>
<path d="M16.4611 11.0038C11.4305 9.15977 8.33876 7.59008 1.76348 2.69453" stroke="url(#paint2_linear_131_143)" stroke-linecap="round"/>
<path d="M30.6092 2.71295C22.0899 1.10417 20.1094 3.86526 18 10.5875" stroke="url(#paint3_linear_131_143)" stroke-linecap="round"/>
<path d="M18 10.5875C26.5193 12.1962 28.4998 9.43516 30.6092 2.71295" stroke="url(#paint4_linear_131_143)" stroke-linecap="round"/>
<path d="M30.6092 2.71296C26.648 4.211 24.1509 5.60246 18.6169 10.2419" stroke="url(#paint5_linear_131_143)" stroke-linecap="round"/>
<path d="M17.5 11C15.5103 21.6605 15.7992 25.0742 17.5 29" stroke="url(#paint6_linear_131_143)" stroke-linecap="round"/>
<defs>
<linearGradient id="paint0_linear_131_143" x1="9.78449" y1="11.6564" x2="8.79607" y2="1.54313" gradientUnits="userSpaceOnUse">
<stop stop-color="#75C9B6"/>
<stop offset="1" stop-color="#5590B5"/>
</linearGradient>
<linearGradient id="paint1_linear_131_143" x1="7.67663" y1="1.65253" x2="8.66505" y2="11.7658" gradientUnits="userSpaceOnUse">
<stop stop-color="#75C9B6"/>
<stop offset="1" stop-color="#5590B5"/>
</linearGradient>
<linearGradient id="paint2_linear_131_143" x1="8.10628" y1="2.07462" x2="9.04977" y2="11.7282" gradientUnits="userSpaceOnUse">
<stop stop-color="#75C9B6"/>
<stop offset="1" stop-color="#5590B5"/>
</linearGradient>
<linearGradient id="paint3_linear_131_143" x1="25.7967" y1="1.35648" x2="22.8125" y2="11.9439" gradientUnits="userSpaceOnUse">
<stop stop-color="#75C9B6"/>
<stop offset="1" stop-color="#5590B5"/>
</linearGradient>
<linearGradient id="paint4_linear_131_143" x1="22.8125" y1="11.9439" x2="25.7967" y2="1.35648" gradientUnits="userSpaceOnUse">
<stop stop-color="#75C9B6"/>
<stop offset="1" stop-color="#5590B5"/>
</linearGradient>
<linearGradient id="paint5_linear_131_143" x1="23.1888" y1="11.5305" x2="26.0374" y2="1.42431" gradientUnits="userSpaceOnUse">
<stop stop-color="#75C9B6"/>
<stop offset="1" stop-color="#5590B5"/>
</linearGradient>
<linearGradient id="paint6_linear_131_143" x1="16.807" y1="11" x2="16.807" y2="29" gradientUnits="userSpaceOnUse">
<stop stop-color="#75C9B6"/>
<stop offset="1" stop-color="#5590B5"/>
</linearGradient>
</defs>
</svg>
