<svg width="25" height="31" viewBox="0 0 25 31" fill="none" xmlns="http://www.w3.org/2000/svg">
<ellipse cx="12.5" cy="12" rx="12.5" ry="12" fill="#4D81B7" fill-opacity="0.8"/>
<circle cx="12.5" cy="12.5" r="1.5" fill="white"/>
<rect x="12" y="23" width="2" height="7" fill="#719AC5"/>
<ellipse cx="12.5" cy="30" rx="8.5" ry="1" fill="#719AC5"/>
<path d="M14.1476 13.3702C14.0731 13.3315 13.9877 13.399 14.0047 13.4811C15.0415 18.4883 16.7468 19.4655 21.769 17.5198C21.849 17.4888 21.8576 17.3772 21.7815 17.3377L14.1476 13.3702Z" fill="white" stroke="white"/>
<path d="M10.6145 12.8751C10.6842 12.8284 10.6662 12.7211 10.586 12.6965C5.69805 11.1951 4.0207 12.2194 3.30875 17.5582C3.29742 17.6431 3.3911 17.7044 3.46235 17.6568L10.6145 12.8751Z" fill="white" stroke="white"/>
<path d="M12.625 10.9459C12.6317 11.0295 12.7342 11.0661 12.7948 11.0081C16.4884 7.47207 16.4117 5.50818 12.0972 2.2841C12.0286 2.2328 11.9294 2.28471 11.9363 2.37014L12.625 10.9459Z" fill="white" stroke="white"/>
</svg>
