<svg width="25" height="33" viewBox="0 0 25 33" fill="none" xmlns="http://www.w3.org/2000/svg">
<circle cx="12.5" cy="12.5" r="12" stroke="#719AC5"/>
<rect x="11.5" y="23" width="2" height="7" fill="#719AC5"/>
<path d="M9.46938 12.4386C9.42917 12.3977 9.35739 12.3996 9.31261 12.4405C9.08359 12.6498 8.89547 12.7237 8.51221 12.6973C8.49795 12.6963 8.48374 12.6924 8.47145 12.6861C5.42746 11.1451 4.05095 10.7549 2.79895 11.7036C2.78166 11.7167 2.7691 11.7341 2.76337 11.7536C1.84259 14.8895 4.36614 20.8903 9.40555 18.8226C9.41358 18.8193 9.42166 18.8148 9.42864 18.8099C10.7045 17.9009 11.2384 17.0462 11.8214 14.8928C11.8295 14.8627 11.8215 14.8308 11.7995 14.8085L9.46938 12.4386Z" fill="#719AC5" stroke="#719AC5"/>
<path d="M13.6438 9.82937C13.7038 9.82429 13.7427 9.77179 13.7311 9.71553C13.6722 9.4286 13.7139 9.25006 13.9615 8.98914C13.9704 8.9797 13.982 8.97201 13.9945 8.96694C17.1805 7.67129 18.3401 6.90688 18.1984 5.45355C18.1963 5.43284 18.1874 5.41303 18.1723 5.39703C15.8283 2.90932 8.85164 1.23582 7.81743 6.0683C7.81576 6.07613 7.8151 6.08467 7.81562 6.09276C7.90776 7.54044 8.38179 8.4224 10.0192 10.0951C10.0424 10.1188 10.0763 10.1317 10.1092 10.1289L13.6438 9.82937Z" fill="#719AC5" stroke="#719AC5"/>
<path d="M14.0287 15.3805C14.0139 15.4421 14.0614 15.5016 14.1186 15.5289C14.4198 15.6728 14.533 16.3136 14.7355 16.6122C14.7443 16.6253 14.7505 16.6402 14.753 16.6558C15.2447 19.7108 15.7334 20.8945 17.3098 21.14C17.3276 21.1427 17.3458 21.1407 17.3625 21.1337C20.6317 19.7657 24.3215 14.2166 19.5042 12.1027C19.4973 12.0997 19.4895 12.0973 19.4821 12.0959C17.928 11.8061 16.8674 11.9876 14.6495 12.9653C14.621 12.9778 14.5994 13.0033 14.5921 13.0336L14.0287 15.3805Z" fill="#719AC5" stroke="#719AC5"/>
<path d="M5.76916 30.8193C5.9351 30.6147 6.17502 30.4839 6.43683 30.4552L10.5915 30H15.4085L19.3469 30.4569C19.5864 30.4847 19.8078 30.5981 19.9703 30.7761L20.4721 31.3259C21.0579 31.9678 20.6025 33 19.7334 33H6.09896C5.25727 33 4.7921 32.0236 5.32238 31.37L5.76916 30.8193Z" fill="#719AC5"/>
<path d="M10.1914 28.9376C10.2243 28.4106 10.6614 28 11.1895 28H13.8105C14.3386 28 14.7757 28.4106 14.8086 28.9376L14.9336 30.9376C14.9696 31.5133 14.5124 32 13.9355 32H11.0645C10.4876 32 10.0304 31.5133 10.0664 30.9376L10.1914 28.9376Z" fill="#719AC5"/>
<circle cx="12.5" cy="12.5" r="3" fill="white" stroke="#B4B4B4"/>
</svg>
