<svg width="100" height="100" viewBox="0 0 100 100" fill="none" xmlns="http://www.w3.org/2000/svg">
<g clip-path="url(#clip0_10_288)">
<rect width="100" height="100" fill="white"/>
<circle cx="50" cy="50" r="50" fill="#FBFBFB"/>
<circle cx="32" cy="35" r="19" fill="url(#paint0_linear_10_288)" fill-opacity="0.8"/>
<circle cx="32" cy="35" r="2" fill="white"/>
<path d="M30.5 35.5C21.4727 33.442 19.3042 35.8713 18.5 44" stroke="white"/>
<path d="M33.5 36C33.4487 43.9968 36.2583 45.4263 44.5 44.5" stroke="white"/>
<path d="M26 20.5C29.4458 25.3012 30.7377 28.129 31.5 33.5" stroke="white"/>
<path d="M18.5 44C22.2634 39.5527 24.8307 37.7151 30.5 36" stroke="white"/>
<path d="M33.5 36C36.9489 40.3344 39.2748 42.037 44 44" stroke="white"/>
<path d="M32 33.5C35.3253 26.0588 33.9421 23.1959 25.5 20.5" stroke="white"/>
<rect x="32" y="55" width="2" height="22" fill="#689EBE"/>
<ellipse cx="32.5" cy="80" rx="13.5" ry="2" fill="#689EBE"/>
<line x1="56.5" y1="61" x2="56.5" y2="82" stroke="#0D779D"/>
<line x1="62.5" y1="58" x2="62.5" y2="79" stroke="#24B685" stroke-opacity="0.6"/>
<line x1="78.5" y1="58" x2="78.5" y2="79" stroke="#24B685" stroke-opacity="0.6"/>
<line x1="72.5" y1="61" x2="72.5" y2="82" stroke="#0D779D"/>
<ellipse cx="67.5" cy="60.5" rx="16.5" ry="4.5" fill="url(#paint1_linear_10_288)"/>
<line x1="66.5" y1="56" x2="66.5" y2="45" stroke="#689EBE"/>
<line x1="76.5" y1="57" x2="76.5" y2="45" stroke="#689EBE"/>
<rect x="59" y="35" width="24" height="12" rx="4" fill="#19958B" fill-opacity="0.569231"/>
</g>
<defs>
<linearGradient id="paint0_linear_10_288" x1="32" y1="16" x2="32" y2="54" gradientUnits="userSpaceOnUse">
<stop stop-color="#009497" stop-opacity="0.4"/>
<stop offset="1" stop-color="#004B97" stop-opacity="0.7"/>
</linearGradient>
<linearGradient id="paint1_linear_10_288" x1="51" y1="60.5" x2="84" y2="60.5" gradientUnits="userSpaceOnUse">
<stop stop-color="#24B685" stop-opacity="0.31"/>
<stop offset="1" stop-color="#6092BD"/>
</linearGradient>
<clipPath id="clip0_10_288">
<rect width="100" height="100" fill="white"/>
</clipPath>
</defs>
</svg>
