<svg width="83" height="109" viewBox="0 0 83 109" fill="none" xmlns="http://www.w3.org/2000/svg">
<rect x="37.5" y="79.5" width="8" height="16" fill="#719AC5" stroke="#4D81B7"/>
<circle cx="41.5" cy="41.5" r="40" stroke="#4D81B7" stroke-width="3"/>
<path d="M31.4071 41.7986C31.3658 41.754 31.2945 41.7564 31.2556 41.8031C30.4079 42.8219 29.7887 43.1905 28.3572 43.1365C28.3425 43.1359 28.3274 43.1319 28.3143 43.125C17.8618 37.6558 11.7239 36.0981 8.72212 40.5764C8.71547 40.5863 8.71057 40.5973 8.70785 40.6089C5.87117 52.7495 15.3194 75.2283 32.0578 66.439C32.0648 66.4353 32.0718 66.4306 32.0777 66.4253C36.3015 62.7115 38.0022 59.3397 39.7489 50.8816C39.7554 50.85 39.7464 50.8164 39.7245 50.7927L31.4071 41.7986Z" fill="url(#paint0_linear_897_1343)"/>
<path d="M46.866 35.0947C46.9265 35.1003 46.9779 35.0508 46.9756 34.99C46.9242 33.6657 47.1378 32.9775 48.2379 32.06C48.2493 32.0505 48.2632 32.0434 48.2775 32.0397C59.7054 29.1124 65.3097 26.1641 64.5449 20.8273C64.5432 20.8155 64.5395 20.804 64.5337 20.7936C58.5203 9.87206 36.4597 -0.515258 29.8984 17.2154C29.8956 17.2228 29.8936 17.231 29.8927 17.2388C29.2377 22.8249 30.2293 26.4688 34.5894 33.924C34.6057 33.9519 34.6349 33.9709 34.667 33.9738L46.866 35.0947Z" fill="url(#paint1_linear_897_1343)"/>
<path d="M45.3206 50.6524C45.3002 50.7096 45.3353 50.7717 45.3948 50.7845C46.6903 51.0639 47.3039 51.4418 47.9192 52.7354C47.9255 52.7488 47.929 52.764 47.929 52.7788C47.9245 64.5757 49.3876 70.7368 54.747 71.3223C54.7589 71.3236 54.7709 71.3228 54.7825 71.3199C66.8558 68.2092 82.3995 49.4221 66.8557 38.6603C66.8492 38.6558 66.8417 38.6518 66.8344 38.6489C61.5863 36.6263 57.8103 36.6813 49.5054 39.0518C49.4744 39.0607 49.4487 39.0842 49.4379 39.1146L45.3206 50.6524Z" fill="url(#paint2_linear_897_1343)"/>
<circle cx="41" cy="42" r="9.5" fill="white" stroke="#4D81B7" stroke-width="3"/>
<path d="M49.5361 98.5L64.4502 100.284C64.5716 100.299 64.6835 100.358 64.7646 100.449L71.1543 107.669C71.4394 107.992 71.2101 108.5 70.7793 108.5H11.0586C10.6415 108.5 10.4081 108.018 10.666 107.69L16.3457 100.471C16.4283 100.366 16.5498 100.298 16.6826 100.283L32.4668 98.5H49.5361Z" fill="#4D81B7" stroke="#4D81B7"/>
<path d="M34.7051 93.5H47.2949C47.5518 93.5 47.7674 93.6946 47.793 93.9502L48.3926 99.9502C48.422 100.245 48.1903 100.5 47.8945 100.5H34.1055C33.8096 100.5 33.578 100.245 33.6074 99.9502L34.207 93.9502C34.2326 93.6946 34.4482 93.5 34.7051 93.5Z" fill="#719AC5" stroke="#4D81B7"/>
<defs>
<linearGradient id="paint0_linear_897_1343" x1="36.7794" y1="60.5738" x2="6.86845" y2="44.4079" gradientUnits="userSpaceOnUse">
<stop stop-color="#24B685" stop-opacity="0.2"/>
<stop offset="1" stop-color="#719AC5"/>
</linearGradient>
<linearGradient id="paint1_linear_897_1343" x1="30.3126" y1="24.7335" x2="63.3595" y2="16.7393" gradientUnits="userSpaceOnUse">
<stop stop-color="#24B685" stop-opacity="0.2"/>
<stop offset="1" stop-color="#719AC5"/>
</linearGradient>
<linearGradient id="paint2_linear_897_1343" x1="59.4705" y1="37.1932" x2="59.0013" y2="71.1899" gradientUnits="userSpaceOnUse">
<stop stop-color="#24B685" stop-opacity="0.2"/>
<stop offset="1" stop-color="#719AC5"/>
</linearGradient>
</defs>
</svg>
