<svg width="100" height="100" viewBox="0 0 100 100" fill="none" xmlns="http://www.w3.org/2000/svg">
<circle cx="50" cy="50" r="50" fill="#FBFBFB"/>
<g filter="url(#filter0_i_570_915)">
<path d="M31.4956 21.1068C31.4956 21.0358 31.5031 20.9645 31.5187 20.8953C31.8148 19.5847 32.214 18.9474 33.2399 18.1841C33.4042 18.0618 33.6054 18 33.8103 18H38.2686C38.418 18 38.5665 18.0325 38.6992 18.1013C39.8017 18.6733 40.2329 19.3156 40.4842 20.9255C40.4919 20.9746 40.4956 21.0249 40.4956 21.0746V30.5C40.4956 31.0523 40.0479 31.5 39.4956 31.5H32.4956C31.9433 31.5 31.4956 31.0523 31.4956 30.5V21.1068Z" fill="#FFF6C2" fill-opacity="0.8"/>
</g>
<path d="M49.4956 42.6731C49.4956 42.5585 49.5153 42.4442 49.5545 42.3366C50.3382 40.1831 51.0801 39.043 53.2545 37.6517C53.4112 37.5514 53.5941 37.5 53.78 37.5H61.6757C61.8838 37.5 62.0878 37.5652 62.2562 37.6873C65.434 39.9916 66.146 41.2889 65.9956 43.5C66.6125 59.2758 66.5493 68.1672 66.4988 83.4988C66.497 84.0499 66.0498 84.5 65.4988 84.5H50.4956C49.9433 84.5 49.4956 84.0523 49.4956 83.5V42.6731Z" fill="#C8F5F0"/>
<path d="M23.4856 45.7825C23.4921 45.6004 23.5478 45.4186 23.6503 45.2678C25.036 43.2279 26.3168 42.4664 29.2214 42.0388C29.4005 42.0124 29.5709 41.9405 29.7113 41.8262C30.3624 41.296 30.7948 40.8828 31.1685 40.2017C31.3878 39.8019 31.812 39.5422 32.2648 39.5954C34.8122 39.8948 36.7183 39.9323 40.0771 39.5969C40.5955 39.5451 41.0565 39.8997 41.224 40.393C41.6893 41.7632 42.4793 41.9815 43.8951 41.9991C43.9615 41.9999 44.0297 42.007 44.0947 42.0209C46.9549 42.6313 47.8702 43.4964 48.8719 45.2765C48.954 45.4223 48.9956 45.5876 48.9956 45.7549V81.5C48.9956 82.0523 48.5479 82.5 47.9956 82.5H27.6878C27.5609 82.5 27.4293 82.5283 27.3089 82.5685C22.5009 84.1752 22.574 71.6002 23.4856 45.7825Z" fill="#FFF6C2"/>
<path d="M38.5276 64.5331C38.5106 63.9686 38.9633 63.5 39.5281 63.5H51.4555C52.0232 63.5 52.477 63.9723 52.4547 64.5395C52.0657 74.4112 51.8149 80.3585 51.1783 83.2804C51.0842 83.7124 50.6926 84 50.2504 84H41.1619C40.7584 84 40.3917 83.7596 40.2555 83.3797C38.7932 79.3027 38.7916 73.3021 38.5276 64.5331Z" fill="url(#paint0_linear_570_915)"/>
<path d="M38.9956 61.5183C38.9956 60.9589 39.4554 60.5085 40.0147 60.5177C43.6248 60.577 46.2768 60.5825 50.9795 60.5152C51.5378 60.5072 51.9956 60.9573 51.9956 61.5156V62.0357C51.9956 62.5738 51.5696 63.0157 51.0317 63.0337C46.6264 63.1812 43.9233 63.1751 39.9581 63.0355C39.421 63.0166 38.9956 62.575 38.9956 62.0376V61.5183Z" fill="#4D81B7"/>
<path d="M52.4956 31.3488C52.4956 31.1484 52.5732 30.9559 52.7121 30.8115V30.8115C52.8521 30.666 53.0438 30.5808 53.2456 30.5745C56.7099 30.4657 58.6416 30.4849 61.7454 30.5753C61.9476 30.5812 62.1394 30.6662 62.2796 30.812V30.812C62.4182 30.9561 62.4956 31.1482 62.4956 31.3481V36.4096C62.4956 36.9435 62.0753 37.3837 61.5419 37.4061C58.4962 37.534 56.4613 37.5289 53.4508 37.405C52.9168 37.3831 52.4956 36.9426 52.4956 36.4081V31.3488Z" fill="#4D81B7"/>
<g filter="url(#filter1_i_570_915)">
<path d="M71.4956 37.3976C71.4956 37.318 71.5048 37.2383 71.5251 37.1613C71.7143 36.4472 71.9718 36.0772 72.5895 35.6554C72.7434 35.5503 72.9277 35.5 73.1141 35.5H75.9584C76.0929 35.5 76.2271 35.5258 76.3485 35.5838C77.0366 35.9124 77.3166 36.2911 77.4811 37.1951C77.4911 37.2499 77.4956 37.3058 77.4956 37.3615V42.5C77.4956 43.0523 77.0479 43.5 76.4956 43.5H72.4956C71.9433 43.5 71.4956 43.0523 71.4956 42.5V37.3976Z" fill="#F3EEFF" fill-opacity="0.8"/>
</g>
<path d="M53.9956 29.9605C53.9956 29.7003 54.1957 29.4833 54.4552 29.4634C56.7902 29.2849 58.2652 29.2881 60.5365 29.4632C60.7958 29.4832 60.9956 29.7001 60.9956 29.9602V30C60.9956 30.2761 60.7717 30.5 60.4956 30.5H54.4956C54.2195 30.5 53.9956 30.2761 53.9956 30V29.9605Z" fill="#004B97"/>
<path d="M55.4956 25.4997H59.9956C60.4537 25.7544 60.5606 26.6189 60.4956 29.4997H54.4956C54.6079 26.3358 54.804 25.3221 55.4956 25.4997Z" fill="#C8F5F0"/>
<rect x="54.9956" y="21.5" width="5" height="4" rx="1" fill="#C8F5F0"/>
<path d="M48.4958 20.5C53.6681 19.6914 56.4144 19.7705 61.4958 20.5C61.9318 20.8905 62.0825 21.1095 61.4958 21.5C61.3786 21.777 61.1311 21.8803 60.4958 22C57.1586 21.5575 55.1476 21.3743 49.4958 22C49.0574 21.9346 48.8391 21.8279 48.4958 21.5C47.9184 21.2189 47.9386 20.9994 48.4958 20.5Z" fill="#C8F5F0"/>
<path d="M30.4956 32.8617C30.4956 32.6302 30.5876 32.4082 30.7513 32.2445V32.2445C30.9082 32.0875 31.1198 31.9961 31.3417 31.9894C35.3421 31.8683 37.5654 31.8897 41.1493 31.9903C41.3716 31.9965 41.5832 32.0877 41.7405 32.245V32.245C41.9038 32.4083 41.9956 32.6299 41.9956 32.861V38.5446C41.9956 39.0792 41.5741 39.5197 41.0399 39.5416C37.4108 39.691 35.0397 39.685 31.4528 39.5406C30.918 39.519 30.4956 39.0784 30.4956 38.5432V32.8617Z" fill="#4D81B7"/>
<rect x="33.4956" y="23.5" width="5" height="8" rx="2" fill="#004B97" fill-opacity="0.7"/>
<rect x="72.4956" y="38.5" width="4" height="6" rx="2" fill="#004B97" fill-opacity="0.7"/>
<rect x="31.4956" y="30.5" width="9" height="2" rx="0.5" fill="#004B97"/>
<path d="M68.4701 44.1621C68.4854 43.7623 68.736 43.4029 69.1218 43.297C71.9122 42.531 76.7909 42.7868 80.7009 43.3739C81.1657 43.4437 81.5125 43.837 81.5351 44.3064C82.0315 54.6368 82.052 60.8777 81.5421 71.548C81.5166 72.0804 81.0771 72.5 80.544 72.5H69.4622C68.9232 72.5 68.4811 72.0716 68.4632 71.5329C68.108 60.8359 68.074 54.551 68.4701 44.1621Z" fill="#F3EEFF"/>
<path d="M82.9956 71.5C85.4956 79.5001 81.4956 82.5 71.9956 82.5C66.1966 82.5 61.4956 77.0228 61.4956 71.5C60.9022 65.9277 65.5552 61.445 71.9956 61.5C78.4422 60.539 81.1207 65.5 82.9956 71.5Z" fill="url(#paint1_radial_570_915)"/>
<path d="M54.4956 74.3815C54.4956 73.8776 54.872 73.4518 55.3723 73.392C62.0814 72.5895 66.451 72.5994 69.7477 73.3195C70.191 73.4164 70.4956 73.8159 70.4956 74.2697V75.6057C70.4956 76.1148 70.1127 76.5434 69.6063 76.5958C65.6921 77.0006 62.5062 77.0841 56.2936 77.0037C56.1008 77.0012 55.9103 76.9429 55.7498 76.8359L54.9409 76.2967C54.6627 76.1112 54.4956 75.799 54.4956 75.4646V74.3815Z" fill="#4D81B7"/>
<path d="M54.4956 78.618C54.4956 78.2393 54.7096 77.893 55.0484 77.7236L56.2509 77.1223C56.4111 77.0423 56.5915 77.0068 56.7702 77.0192C61.7098 77.3605 64.54 77.3551 69.2199 77.02C69.3994 77.0071 69.5806 77.0425 69.7416 77.123L70.9428 77.7236C71.2816 77.893 71.4956 78.2393 71.4956 78.618V83.803C71.4956 84.2218 71.2339 84.598 70.8384 84.7359C66.0094 86.4198 62.3264 86.5727 55.3556 85.6206C54.8628 85.5533 54.4956 85.1307 54.4956 84.6334V78.618Z" fill="url(#paint2_linear_570_915)"/>
<path d="M71.686 73.1249C71.6502 73.1494 71.6192 73.1424 71.5928 73.1039C71.5645 73.0627 71.5682 73.0298 71.6039 73.0053C71.7579 72.8997 71.8458 72.807 71.8679 72.7272C71.8899 72.6474 71.8736 72.5676 71.8189 72.4879L70.1668 70.0802C70.1272 70.0225 70.0786 70.0134 70.0209 70.053L69.7735 70.2228C69.669 70.2944 69.5967 70.3805 69.5564 70.4809C69.5143 70.5785 69.4939 70.6814 69.4954 70.7896C69.4949 70.895 69.5041 70.9938 69.5229 71.086C69.5417 71.1782 69.5598 71.2547 69.5773 71.3155C69.5831 71.3357 69.5815 71.351 69.5724 71.3613C69.5633 71.3716 69.5481 71.382 69.527 71.3924C69.5243 71.3943 69.5215 71.3962 69.5188 71.3981C69.5004 71.4066 69.487 71.4078 69.4786 71.4014C69.4683 71.3923 69.4594 71.3822 69.4518 71.3712C69.4443 71.3602 69.4212 71.3236 69.3824 71.2612C69.3437 71.1989 69.2993 71.1283 69.2492 71.0494C69.2019 70.9687 69.157 70.8944 69.1145 70.8265C69.072 70.7587 69.0422 70.7124 69.0253 70.6877C68.9819 70.6245 68.9959 70.5683 69.0674 70.5193C69.0811 70.5099 69.1412 70.4707 69.2475 70.4018C69.3538 70.3329 69.4959 70.2394 69.6737 70.1215C69.8523 69.9989 70.0571 69.8584 70.288 69.7C70.5188 69.5415 70.7222 69.402 70.8981 69.2813C71.0749 69.156 71.2159 69.0551 71.3212 68.9788C71.4266 68.9025 71.4861 68.8597 71.4998 68.8502C71.5658 68.805 71.6228 68.8144 71.6708 68.8785C71.684 68.8977 71.7146 68.9394 71.7626 69.0034C71.8115 69.0629 71.8646 69.1315 71.9221 69.2093C71.9776 69.2844 72.0285 69.3526 72.0746 69.4139C72.1188 69.4725 72.1447 69.5073 72.1523 69.5183C72.1636 69.5348 72.1707 69.5481 72.1736 69.5582C72.1746 69.5656 72.1651 69.5782 72.145 69.5961C72.1422 69.598 72.1391 69.6022 72.1354 69.6087C72.1245 69.6162 72.1148 69.6228 72.1066 69.6285C72.0965 69.6314 72.0783 69.6256 72.0523 69.6112C71.9982 69.5795 71.9302 69.5393 71.8482 69.4905C71.7689 69.4398 71.68 69.3956 71.5815 69.3581C71.4857 69.3187 71.3852 69.2988 71.2798 69.2984C71.1743 69.2979 71.0694 69.3335 70.965 69.4052L70.6929 69.5919C70.6681 69.6089 70.6499 69.6295 70.6382 69.6537C70.6274 69.6732 70.6352 69.7023 70.6616 69.7407L72.3137 72.1484C72.3457 72.1952 72.3818 72.2331 72.422 72.2621C72.4649 72.2893 72.52 72.2959 72.5873 72.2821C72.6573 72.2664 72.7487 72.2198 72.8614 72.1425C72.9026 72.1142 72.9374 72.1207 72.9657 72.1619C72.9921 72.2004 72.9847 72.2338 72.9434 72.2621C72.9159 72.2809 72.8463 72.3267 72.7345 72.3994C72.6235 72.4674 72.4828 72.5599 72.3124 72.6769C72.142 72.7938 72.0023 72.8937 71.8934 72.9765C71.7854 73.0547 71.7162 73.1041 71.686 73.1249ZM75.221 70.7721C75.0945 70.8588 74.9637 70.9244 74.8283 70.9687C74.6949 71.0158 74.5747 71.0498 74.4677 71.0706C74.3635 71.0896 74.2902 71.1035 74.2478 71.1124C74.2109 71.1175 74.1782 71.1318 74.1499 71.1553C74.1215 71.1788 74.1049 71.2105 74.0998 71.2503C74.099 71.2549 74.0985 71.2572 74.0985 71.2572C74.0958 71.2591 74.0927 71.2693 74.0892 71.2879C74.0867 71.3018 74.0767 71.3491 74.0592 71.4297C74.0506 71.4761 74.0302 71.5022 73.9979 71.5082C73.9637 71.5114 73.9363 71.4979 73.9155 71.4677L73.3639 70.6638C73.3413 70.6308 73.3459 70.5993 73.3779 70.5693C73.4126 70.5374 73.4425 70.531 73.4678 70.55C73.6256 70.6681 73.7996 70.7509 73.9898 70.7982C74.18 70.8456 74.3728 70.8528 74.5684 70.8196C74.7648 70.7819 74.9496 70.7036 75.1228 70.5848C75.2657 70.4867 75.3613 70.3786 75.4097 70.2606C75.4608 70.1406 75.4781 70.0216 75.4618 69.9034C75.4435 69.7826 75.4042 69.6781 75.3439 69.5902C75.2628 69.472 75.1647 69.3998 75.0497 69.3736C74.9328 69.3447 74.8057 69.345 74.6683 69.3746C74.5291 69.4014 74.3822 69.4436 74.2276 69.5011C74.0758 69.5568 73.9221 69.6097 73.7665 69.6598C73.6109 69.71 73.4588 69.7416 73.3101 69.7547C73.1596 69.765 73.0164 69.742 72.8807 69.6855C72.743 69.6264 72.6195 69.5171 72.5101 69.3577C72.38 69.168 72.3169 68.9788 72.3209 68.7902C72.3257 68.5969 72.3824 68.4144 72.4911 68.2429C72.5997 68.0713 72.7434 67.9242 72.922 67.8016C73.0127 67.7394 73.1123 67.6872 73.2209 67.6451C73.3275 67.6002 73.4311 67.5655 73.5315 67.5411C73.6301 67.5138 73.7085 67.4985 73.7667 67.4949C73.8572 67.4854 73.908 67.4505 73.9192 67.3902C73.9279 67.3439 73.9362 67.3119 73.9443 67.2942C73.9532 67.2719 73.9577 67.2608 73.9577 67.2608C73.9646 67.2237 73.9852 67.2035 74.0193 67.2003C74.0516 67.1943 74.08 67.2092 74.1045 67.2449L74.5883 67.9499C74.6128 67.9856 74.61 68.0199 74.5799 68.0527C74.5526 68.0835 74.5198 68.0858 74.4815 68.0595C74.3287 67.9663 74.1659 67.8941 73.9932 67.8428C73.8233 67.7896 73.6534 67.7687 73.4834 67.7802C73.3162 67.7899 73.1611 67.8437 73.0182 67.9418C72.9 68.0229 72.8135 68.1207 72.7586 68.2351C72.7019 68.3468 72.6757 68.4618 72.68 68.5801C72.6844 68.6984 72.7214 68.8084 72.7912 68.9101C72.8704 69.0255 72.9666 69.095 73.0797 69.1184C73.1956 69.14 73.3226 69.1337 73.4608 69.0995C73.5991 69.0653 73.7445 69.018 73.8972 68.9577C74.0526 68.8955 74.2095 68.8384 74.3678 68.7864C74.5243 68.7316 74.6792 68.6981 74.8325 68.6859C74.9858 68.6736 75.1322 68.6985 75.2717 68.7604C75.4121 68.8177 75.5408 68.9316 75.6577 69.102C75.7916 69.2971 75.8599 69.4968 75.8626 69.7011C75.8654 69.9054 75.8111 70.1003 75.6999 70.2858C75.5867 70.4685 75.4271 70.6306 75.221 70.7721ZM76.5747 69.7704C76.5389 69.795 76.506 69.7852 76.4758 69.7413C76.4513 69.7055 76.4569 69.6754 76.4926 69.6509C76.6108 69.5698 76.6796 69.4963 76.6991 69.4304C76.7167 69.3617 76.6934 69.2807 76.6293 69.1872L75.079 66.9279C75.0243 66.8482 74.965 66.8 74.901 66.7833C74.8351 66.7639 74.743 66.7947 74.6248 66.8758C74.5864 66.9022 74.5539 66.8961 74.5275 66.8577C74.5068 66.8274 74.4996 66.8081 74.5059 66.7997C74.5132 66.7867 74.5264 66.7735 74.5456 66.7603C74.5566 66.7528 74.5837 66.7362 74.6268 66.7107C74.6708 66.6805 74.7202 66.6466 74.7752 66.6089C74.8329 66.5693 74.8888 66.5329 74.9429 66.4998C74.9979 66.4621 75.0419 66.4319 75.0749 66.4093C75.1079 66.3867 75.1518 66.3565 75.2068 66.3188C75.2626 66.2764 75.3194 66.2355 75.3771 66.1958C75.4376 66.1544 75.4898 66.1185 75.5338 66.0883C75.5786 66.0535 75.6066 66.0324 75.6175 66.0248C75.656 65.9984 75.6866 66.0017 75.7092 66.0347C75.7394 66.0787 75.7352 66.1139 75.6968 66.1403C75.5786 66.2214 75.5167 66.2961 75.5111 66.3646C75.5037 66.4304 75.5273 66.5031 75.582 66.5828L76.2949 67.6218C76.3043 67.6355 76.3179 67.6464 76.3356 67.6545C76.356 67.6607 76.3731 67.6591 76.3868 67.6497L77.4711 66.9057C77.4848 66.8962 77.4925 66.8809 77.4941 66.8596C77.4984 66.8364 77.4958 66.818 77.4864 66.8042L76.7735 65.7653C76.7188 65.6856 76.6581 65.6383 76.5913 65.6235C76.5254 65.604 76.4334 65.6348 76.3152 65.7159C76.2794 65.7404 76.2465 65.7307 76.2163 65.6867C76.1937 65.6538 76.2002 65.625 76.236 65.6005C76.247 65.5929 76.274 65.5764 76.3171 65.5509C76.3611 65.5207 76.412 65.4858 76.4697 65.4462C76.5274 65.4066 76.5833 65.3702 76.6374 65.3372C76.6924 65.2994 76.7364 65.2693 76.7693 65.2466C76.8023 65.224 76.8463 65.1938 76.9013 65.1561C76.9571 65.1138 77.0139 65.0728 77.0716 65.0332C77.1321 64.9917 77.1843 64.9558 77.2283 64.9257C77.2731 64.8909 77.301 64.8697 77.312 64.8621C77.3477 64.8376 77.3788 64.8446 77.4052 64.8831C77.4316 64.9216 77.427 64.9531 77.3912 64.9776C77.273 65.0587 77.2098 65.1344 77.2015 65.2048C77.1913 65.2724 77.2135 65.3461 77.2682 65.4258L78.8185 67.6851C78.8807 67.7758 78.947 67.8253 79.0174 67.8336C79.0878 67.8419 79.1821 67.8055 79.3002 67.7244C79.3195 67.7112 79.337 67.7073 79.3528 67.7126C79.3686 67.7179 79.3812 67.7275 79.3906 67.7412C79.4208 67.7852 79.418 67.8195 79.3823 67.844C79.3685 67.8534 79.3369 67.8751 79.2875 67.909C79.2388 67.9383 79.1843 67.9737 79.1238 68.0152C79.0615 68.054 79.0015 68.0932 78.9437 68.1328C78.8869 68.1677 78.842 68.1965 78.809 68.2192C78.776 68.2418 78.733 68.2733 78.6799 68.3138C78.6277 68.3496 78.5722 68.3897 78.5137 68.4339C78.4559 68.4735 78.4047 68.5107 78.3598 68.5455C78.3131 68.5776 78.2829 68.5983 78.2691 68.6078C78.2307 68.6342 78.1963 68.6254 78.1661 68.5814C78.1416 68.5457 78.1486 68.5146 78.1871 68.4882C78.308 68.4052 78.3759 68.3304 78.3907 68.2636C78.4083 68.1949 78.386 68.1153 78.3237 68.0246L77.6646 67.0639C77.6552 67.0502 77.6412 67.0416 77.6227 67.0382C77.6041 67.0347 77.5866 67.0386 77.5701 67.05L76.4858 67.794C76.4721 67.8034 76.4635 67.8174 76.46 67.8359C76.4593 67.8526 76.4637 67.8678 76.4731 67.8815L77.1323 68.8421C77.1926 68.9301 77.2562 68.9814 77.3229 68.9963C77.3906 69.0065 77.4862 68.9691 77.6099 68.8843C77.6264 68.8729 77.6439 68.869 77.6624 68.8725C77.681 68.8759 77.695 68.8845 77.7044 68.8982C77.7346 68.9422 77.7304 68.9774 77.6919 69.0038C77.6782 69.0132 77.648 69.034 77.6012 69.0661C77.5526 69.0954 77.4967 69.1317 77.4335 69.1751C77.3711 69.2138 77.3111 69.253 77.2534 69.2926C77.1938 69.3295 77.1475 69.3592 77.1145 69.3818C77.0815 69.4045 77.0385 69.436 76.9854 69.4765C76.9304 69.5142 76.8737 69.5552 76.8151 69.5994C76.7574 69.639 76.7061 69.6762 76.6612 69.711C76.6173 69.7412 76.5884 69.761 76.5747 69.7704Z" fill="#4D81B7"/>
<defs>
<filter id="filter0_i_570_915" x="31.4956" y="18" width="9" height="17.5" filterUnits="userSpaceOnUse" color-interpolation-filters="sRGB">
<feFlood flood-opacity="0" result="BackgroundImageFix"/>
<feBlend mode="normal" in="SourceGraphic" in2="BackgroundImageFix" result="shape"/>
<feColorMatrix in="SourceAlpha" type="matrix" values="0 0 0 0 0 0 0 0 0 0 0 0 0 0 0 0 0 0 127 0" result="hardAlpha"/>
<feOffset dy="4"/>
<feGaussianBlur stdDeviation="2"/>
<feComposite in2="hardAlpha" operator="arithmetic" k2="-1" k3="1"/>
<feColorMatrix type="matrix" values="0 0 0 0 0.75 0 0 0 0 0.75 0 0 0 0 0.75 0 0 0 0.25 0"/>
<feBlend mode="normal" in2="shape" result="effect1_innerShadow_570_915"/>
</filter>
<filter id="filter1_i_570_915" x="71.4956" y="35.5" width="6" height="12" filterUnits="userSpaceOnUse" color-interpolation-filters="sRGB">
<feFlood flood-opacity="0" result="BackgroundImageFix"/>
<feBlend mode="normal" in="SourceGraphic" in2="BackgroundImageFix" result="shape"/>
<feColorMatrix in="SourceAlpha" type="matrix" values="0 0 0 0 0 0 0 0 0 0 0 0 0 0 0 0 0 0 127 0" result="hardAlpha"/>
<feOffset dy="4"/>
<feGaussianBlur stdDeviation="2"/>
<feComposite in2="hardAlpha" operator="arithmetic" k2="-1" k3="1"/>
<feColorMatrix type="matrix" values="0 0 0 0 0.745192 0 0 0 0 0.745192 0 0 0 0 0.745192 0 0 0 0.25 0"/>
<feBlend mode="normal" in2="shape" result="effect1_innerShadow_570_915"/>
</filter>
<linearGradient id="paint0_linear_570_915" x1="45.4956" y1="63.5" x2="45.4956" y2="84" gradientUnits="userSpaceOnUse">
<stop stop-color="#FFD8EB"/>
<stop offset="1" stop-color="#FD9F9F"/>
</linearGradient>
<radialGradient id="paint1_radial_570_915" cx="0" cy="0" r="1" gradientUnits="userSpaceOnUse" gradientTransform="translate(72.5843 71.9401) rotate(90) scale(10.5599 11.1397)">
<stop stop-color="#FFD5E7"/>
<stop offset="1" stop-color="#FFEDF4"/>
</radialGradient>
<linearGradient id="paint2_linear_570_915" x1="71.4956" y1="81.6027" x2="54.4956" y2="81.6027" gradientUnits="userSpaceOnUse">
<stop stop-color="#FFD3E4"/>
<stop offset="0.567308" stop-color="#FDA7AA"/>
<stop offset="1" stop-color="#FFD3E5"/>
</linearGradient>
</defs>
</svg>
