<svg width="100" height="100" viewBox="0 0 100 100" fill="none" xmlns="http://www.w3.org/2000/svg">
<circle cx="50" cy="50" r="50" fill="#FBFBFB"/>
<rect x="24" y="21" width="52" height="62" rx="1" fill="#4D81B7" fill-opacity="0.8"/>
<rect x="26" y="29" width="48" height="16" rx="8" fill="white"/>
<path d="M34.4897 31.878C35.507 31.878 36.305 32.088 36.8837 32.508C37.4717 32.9187 37.7657 33.5627 37.7657 34.44C37.7657 34.972 37.6444 35.434 37.4017 35.826C37.159 36.218 36.8184 36.526 36.3797 36.75C35.9504 36.974 35.4417 37.1 34.8537 37.128L34.6577 36.428C35.339 36.4467 35.9504 36.568 36.4917 36.792C37.033 37.016 37.4624 37.3287 37.7797 37.73C38.097 38.1313 38.2557 38.6073 38.2557 39.158C38.2557 39.662 38.1624 40.096 37.9757 40.46C37.789 40.8147 37.537 41.1087 37.2197 41.342C36.9024 41.566 36.543 41.734 36.1417 41.846C35.7404 41.9487 35.325 42 34.8957 42H31.8857V31.878H34.4897ZM34.7697 36.316C35.3297 36.316 35.7357 36.162 35.9877 35.854C36.2397 35.5367 36.3657 35.154 36.3657 34.706C36.3657 34.174 36.2024 33.7867 35.8757 33.544C35.549 33.3013 35.1104 33.18 34.5597 33.18H33.2437V36.316H34.7697ZM34.8257 40.74C35.199 40.74 35.5397 40.684 35.8477 40.572C36.165 40.46 36.4124 40.2873 36.5897 40.054C36.7764 39.8207 36.8697 39.5267 36.8697 39.172C36.8697 38.78 36.7624 38.472 36.5477 38.248C36.3424 38.024 36.0764 37.8653 35.7497 37.772C35.423 37.6693 35.087 37.618 34.7417 37.618H33.2437V40.74H34.8257ZM39.91 36.946C39.91 36.246 40.0407 35.588 40.302 34.972C40.5727 34.3467 40.946 33.796 41.422 33.32C41.898 32.8347 42.444 32.4567 43.06 32.186C43.6853 31.906 44.3573 31.766 45.076 31.766C45.7853 31.766 46.448 31.906 47.064 32.186C47.6893 32.4567 48.24 32.8347 48.716 33.32C49.2013 33.796 49.5793 34.3467 49.85 34.972C50.1207 35.588 50.256 36.246 50.256 36.946C50.256 37.6647 50.1207 38.3367 49.85 38.962C49.5793 39.5873 49.2013 40.138 48.716 40.614C48.24 41.0807 47.6893 41.4493 47.064 41.72C46.448 41.9813 45.7853 42.112 45.076 42.112C44.3573 42.112 43.6853 41.9813 43.06 41.72C42.444 41.4587 41.898 41.0947 41.422 40.628C40.946 40.1613 40.5727 39.6153 40.302 38.99C40.0407 38.3647 39.91 37.6833 39.91 36.946ZM41.31 36.96C41.31 37.492 41.408 37.9913 41.604 38.458C41.8 38.9153 42.0707 39.3213 42.416 39.676C42.7613 40.0307 43.1627 40.3107 43.62 40.516C44.0773 40.712 44.572 40.81 45.104 40.81C45.6267 40.81 46.1167 40.712 46.574 40.516C47.0313 40.3107 47.428 40.0307 47.764 39.676C48.1 39.3213 48.366 38.9153 48.562 38.458C48.758 37.9913 48.856 37.4873 48.856 36.946C48.856 36.414 48.758 35.9147 48.562 35.448C48.366 34.972 48.0953 34.5567 47.75 34.202C47.4047 33.8473 47.0033 33.572 46.546 33.376C46.0887 33.1707 45.5987 33.068 45.076 33.068C44.544 33.068 44.0493 33.1707 43.592 33.376C43.1347 33.5813 42.7333 33.8613 42.388 34.216C42.0427 34.5707 41.7767 34.986 41.59 35.462C41.4033 35.9287 41.31 36.428 41.31 36.96ZM51.9139 36.946C51.9139 36.246 52.0446 35.588 52.3059 34.972C52.5766 34.3467 52.9499 33.796 53.4259 33.32C53.9019 32.8347 54.4479 32.4567 55.0639 32.186C55.6892 31.906 56.3612 31.766 57.0799 31.766C57.7892 31.766 58.4519 31.906 59.0679 32.186C59.6932 32.4567 60.2439 32.8347 60.7199 33.32C61.2052 33.796 61.5832 34.3467 61.8539 34.972C62.1246 35.588 62.2599 36.246 62.2599 36.946C62.2599 37.6647 62.1246 38.3367 61.8539 38.962C61.5832 39.5873 61.2052 40.138 60.7199 40.614C60.2439 41.0807 59.6932 41.4493 59.0679 41.72C58.4519 41.9813 57.7892 42.112 57.0799 42.112C56.3612 42.112 55.6892 41.9813 55.0639 41.72C54.4479 41.4587 53.9019 41.0947 53.4259 40.628C52.9499 40.1613 52.5766 39.6153 52.3059 38.99C52.0446 38.3647 51.9139 37.6833 51.9139 36.946ZM53.3139 36.96C53.3139 37.492 53.4119 37.9913 53.6079 38.458C53.8039 38.9153 54.0746 39.3213 54.4199 39.676C54.7652 40.0307 55.1666 40.3107 55.6239 40.516C56.0812 40.712 56.5759 40.81 57.1079 40.81C57.6306 40.81 58.1206 40.712 58.5779 40.516C59.0352 40.3107 59.4319 40.0307 59.7679 39.676C60.1039 39.3213 60.3699 38.9153 60.5659 38.458C60.7619 37.9913 60.8599 37.4873 60.8599 36.946C60.8599 36.414 60.7619 35.9147 60.5659 35.448C60.3699 34.972 60.0992 34.5567 59.7539 34.202C59.4086 33.8473 59.0072 33.572 58.5499 33.376C58.0926 33.1707 57.6026 33.068 57.0799 33.068C56.5479 33.068 56.0532 33.1707 55.5959 33.376C55.1386 33.5813 54.7372 33.8613 54.3919 34.216C54.0466 34.5707 53.7806 34.986 53.5939 35.462C53.4072 35.9287 53.3139 36.428 53.3139 36.96ZM65.9198 35.952L65.8778 36.456L66.0598 36.204L70.2038 31.878H71.9538L67.7678 36.218L72.1918 42H70.4698L66.7738 37.086L65.9198 37.912V42H64.5478V31.878H65.9198V35.952Z" fill="#747474"/>
</svg>
