<svg width="308" height="48" viewBox="0 0 308 48" fill="none" xmlns="http://www.w3.org/2000/svg">
<g filter="url(#filter0_d_189_1657)">
<rect x="4" width="300" height="40" rx="20" fill="url(#paint0_linear_189_1657)" fill-opacity="0.7"/>
<path d="M72.92 28.12C72.8453 27.6613 72.7493 27.2987 72.632 27.032C72.5253 26.7653 72.3653 26.568 72.152 26.44C71.9387 26.312 71.624 26.232 71.208 26.2C71.176 26.1467 71.16 26.0987 71.16 26.056C71.16 25.992 71.1867 25.9333 71.24 25.88H73.032C73.3093 25.88 73.448 25.752 73.448 25.496V22.552C73.0213 22.7227 72.6267 22.8827 72.264 23.032C71.9013 23.1813 71.608 23.3093 71.384 23.416C71.2453 23.4693 71.176 23.544 71.176 23.64C71.176 23.6933 71.1813 23.736 71.192 23.768V23.832C71.192 23.9173 71.144 23.9867 71.048 24.04C71.0267 24.0507 71 24.056 70.968 24.056C70.8827 24.056 70.824 24.0187 70.792 23.944C70.7493 23.848 70.6853 23.704 70.6 23.512C70.5147 23.32 70.424 23.112 70.328 22.888C70.232 22.6533 70.1467 22.44 70.072 22.248C69.9973 22.056 69.944 21.9173 69.912 21.832C69.9013 21.8 69.9013 21.768 69.912 21.736C69.9227 21.7253 69.9493 21.7093 69.992 21.688L70.472 21.624C70.8453 21.56 71.2933 21.4907 71.816 21.416C72.3493 21.3307 72.8933 21.2507 73.448 21.176V18.728C73.2133 18.728 72.9893 18.728 72.776 18.728C72.5733 18.728 72.392 18.728 72.232 18.728C71.976 18.728 71.7733 18.728 71.624 18.728C71.4747 18.728 71.3893 18.728 71.368 18.728C71.368 18.728 71.2293 18.7333 70.952 18.744C70.6853 18.744 70.3813 18.7547 70.04 18.776L69.848 18.152C70.2747 18.1947 70.632 18.2213 70.92 18.232C71.208 18.232 71.352 18.232 71.352 18.232H73.448V16.136C72.8613 16.1787 72.2907 16.216 71.736 16.248C71.1813 16.2693 70.696 16.2853 70.28 16.296C70.216 16.2427 70.184 16.184 70.184 16.12C70.184 16.0667 70.2053 16.0187 70.248 15.976C70.7067 15.8907 71.2133 15.768 71.768 15.608C72.3333 15.448 72.888 15.2613 73.432 15.048C73.9867 14.824 74.4613 14.584 74.856 14.328C74.9947 14.232 75.1333 14.1253 75.272 14.008C75.3147 13.9867 75.3467 13.976 75.368 13.976C75.4107 13.976 75.4427 13.9867 75.464 14.008C75.592 14.0933 75.7787 14.232 76.024 14.424C76.2693 14.6053 76.5093 14.792 76.744 14.984C76.9787 15.1653 77.1493 15.304 77.256 15.4C77.352 15.4747 77.368 15.5653 77.304 15.672C77.24 15.7787 77.1547 15.8107 77.048 15.768C76.9627 15.7253 76.856 15.704 76.728 15.704C76.6853 15.704 76.6373 15.7093 76.584 15.72C76.5413 15.72 76.4933 15.7253 76.44 15.736C76.2587 15.7787 76.0613 15.8213 75.848 15.864C75.6453 15.896 75.432 15.928 75.208 15.96V18.232H77.736C77.7147 17.816 77.6933 17.3787 77.672 16.92C77.6613 16.4613 77.656 15.9813 77.656 15.48C77.656 15.0853 77.6453 14.7493 77.624 14.472C77.6027 14.1947 77.5707 14.0133 77.528 13.928C77.496 13.864 77.4907 13.8053 77.512 13.752C77.544 13.6987 77.6027 13.672 77.688 13.672C77.8267 13.672 78.04 13.6933 78.328 13.736C78.6267 13.768 78.9253 13.8107 79.224 13.864C79.5227 13.9067 79.736 13.944 79.864 13.976C79.9813 14.008 80.04 14.0827 80.04 14.2C80.04 14.36 79.9653 14.4507 79.816 14.472C79.6027 14.4827 79.4907 14.584 79.48 14.776C79.416 15.544 79.384 16.2693 79.384 16.952C79.384 17.176 79.384 17.3947 79.384 17.608C79.3947 17.8213 79.4053 18.0293 79.416 18.232H81.464C81.6347 18.232 81.752 18.1787 81.816 18.072C81.88 17.9867 81.976 17.848 82.104 17.656C82.2427 17.464 82.3387 17.3307 82.392 17.256C82.456 17.1707 82.52 17.128 82.584 17.128C82.616 17.128 82.6427 17.1333 82.664 17.144C82.696 17.1547 82.728 17.1707 82.76 17.192C82.888 17.256 83.0427 17.3627 83.224 17.512C83.4053 17.6613 83.5813 17.816 83.752 17.976C83.9227 18.1253 84.0453 18.248 84.12 18.344C84.1627 18.3867 84.184 18.4453 84.184 18.52C84.184 18.6587 84.1253 18.728 84.008 18.728H79.448C79.5013 19.4853 79.5973 20.1733 79.736 20.792C79.8747 21.4 80.0293 21.9493 80.2 22.44C80.3813 22.1093 80.552 21.768 80.712 21.416C80.872 21.0533 81.016 20.6747 81.144 20.28C81.176 20.1733 81.1973 20.0827 81.208 20.008C81.2187 19.9333 81.224 19.8693 81.224 19.816C81.2347 19.784 81.24 19.752 81.24 19.72C81.2507 19.688 81.2667 19.6667 81.288 19.656C81.3307 19.6347 81.3573 19.624 81.368 19.624C81.4107 19.624 81.5173 19.656 81.688 19.72C81.8587 19.784 82.056 19.864 82.28 19.96C82.504 20.0453 82.7173 20.1307 82.92 20.216C83.1227 20.3013 83.272 20.3653 83.368 20.408C83.4427 20.4507 83.48 20.5147 83.48 20.6C83.48 20.6533 83.4587 20.7067 83.416 20.76C83.384 20.8027 83.336 20.824 83.272 20.824C83.1547 20.824 83.0693 20.8347 83.016 20.856C82.9627 20.8667 82.9253 20.9147 82.904 21C82.6373 21.5867 82.344 22.1307 82.024 22.632C81.704 23.1227 81.3573 23.5813 80.984 24.008C81.1867 24.3173 81.3947 24.584 81.608 24.808C81.8213 25.0213 82.0293 25.1867 82.232 25.304C82.3493 25.368 82.456 25.4 82.552 25.4C82.712 25.4 82.8293 25.3147 82.904 25.144C82.9787 24.9627 83.0747 24.728 83.192 24.44C83.3093 24.152 83.4213 23.8693 83.528 23.592C83.6453 23.3147 83.7307 23.112 83.784 22.984C83.8267 22.9627 83.864 22.952 83.896 22.952C84.0027 22.952 84.072 22.9947 84.104 23.08C84.0827 23.176 84.0507 23.3307 84.008 23.544C83.9653 23.7573 83.9173 23.992 83.864 24.248C83.8213 24.504 83.7787 24.7493 83.736 24.984C83.6933 25.208 83.6613 25.384 83.64 25.512C83.6293 25.5653 83.6187 25.6133 83.608 25.656C83.608 25.6987 83.608 25.7467 83.608 25.8C83.608 25.992 83.656 26.136 83.752 26.232C84.072 26.5733 84.232 26.9093 84.232 27.24C84.232 27.4 84.1787 27.5707 84.072 27.752C83.9333 27.9653 83.6773 28.072 83.304 28.072C82.92 28.072 82.504 27.9333 82.056 27.656C81.6187 27.3787 81.192 27.0587 80.776 26.696C80.36 26.3333 79.9707 25.8853 79.608 25.352C78.9467 25.9067 78.248 26.3707 77.512 26.744C76.7867 27.1173 76.0613 27.416 75.336 27.64C75.1973 27.5867 75.1547 27.4853 75.208 27.336C75.9227 26.9733 76.6 26.5413 77.24 26.04C77.88 25.528 78.4667 24.9307 79 24.248C78.712 23.608 78.4613 22.84 78.248 21.944C78.0347 21.0373 77.88 19.9653 77.784 18.728H75.208V20.936L77.656 20.584C77.7413 20.616 77.784 20.6747 77.784 20.76C77.784 20.7813 77.7787 20.8027 77.768 20.824C77.768 20.8453 77.7627 20.8667 77.752 20.888C77.528 20.9627 77.1867 21.0907 76.728 21.272C76.2693 21.4427 75.7627 21.6347 75.208 21.848C75.208 22.2427 75.208 22.6587 75.208 23.096C75.2187 23.5227 75.224 23.9333 75.224 24.328C75.2347 24.7227 75.24 25.0747 75.24 25.384C75.2507 25.6827 75.256 25.9013 75.256 26.04C75.256 26.52 75.0693 26.9413 74.696 27.304C74.3227 27.6773 73.7307 27.9493 72.92 28.12ZM81.832 17.32C81.7147 17.32 81.6027 17.288 81.496 17.224C81.3893 17.16 81.3093 17.0533 81.256 16.904C81.1173 16.488 80.904 16.0987 80.616 15.736C80.3387 15.3627 80.04 15.08 79.72 14.888C79.7093 14.8667 79.704 14.84 79.704 14.808C79.704 14.6907 79.7627 14.6107 79.88 14.568C80.264 14.6 80.6373 14.6587 81 14.744C81.3733 14.8293 81.704 14.952 81.992 15.112C82.28 15.2613 82.488 15.464 82.616 15.72C82.7227 15.9333 82.776 16.136 82.776 16.328C82.776 16.6267 82.6747 16.8667 82.472 17.048C82.2693 17.2293 82.056 17.32 81.832 17.32ZM85.8175 28.136C85.7642 28.0827 85.7375 28.0293 85.7375 27.976C85.7375 27.9333 85.7588 27.88 85.8015 27.816C86.7828 27.7093 87.7002 27.5707 88.5535 27.4C89.4175 27.24 90.2122 27.0107 90.9375 26.712C91.6735 26.4027 92.3348 25.9813 92.9215 25.448C92.5375 25.3307 92.1428 25.224 91.7375 25.128C91.3322 25.032 90.9108 24.952 90.4735 24.888C90.2815 25.208 90.1482 25.4427 90.0735 25.592C89.9135 25.8693 89.6255 26.008 89.2095 26.008C88.9108 26.008 88.5695 25.9173 88.1855 25.736C88.0042 25.6507 87.9135 25.5227 87.9135 25.352C87.9135 25.256 87.9455 25.1707 88.0095 25.096C88.1695 24.8933 88.3935 24.5733 88.6815 24.136C88.9695 23.6987 89.2575 23.24 89.5455 22.76H87.6735C87.6735 22.76 87.5882 22.76 87.4175 22.76C87.2468 22.76 87.0282 22.7653 86.7615 22.776C86.4948 22.7867 86.2228 22.808 85.9455 22.84L85.7535 22.152C86.2762 22.216 86.7242 22.2533 87.0975 22.264C87.4708 22.2747 87.6575 22.28 87.6575 22.28H89.8175C89.9775 21.992 90.1215 21.7253 90.2495 21.48C90.3882 21.224 90.4895 21.0107 90.5535 20.84C90.6068 20.7227 90.6442 20.616 90.6655 20.52C90.6868 20.424 90.7028 20.344 90.7135 20.28H88.9215V20.616C88.9215 20.7973 88.7615 20.9467 88.4415 21.064C88.1215 21.1707 87.7748 21.224 87.4015 21.224C87.1028 21.224 86.9535 21.0853 86.9535 20.808C86.9535 20.712 86.9588 20.5253 86.9695 20.248C86.9908 19.9707 87.0068 19.6347 87.0175 19.24C87.0282 18.8453 87.0335 18.4347 87.0335 18.008C87.0335 17.6027 87.0228 17.2453 87.0015 16.936C86.9908 16.616 86.9642 16.3973 86.9215 16.28C86.8895 16.216 86.8948 16.1627 86.9375 16.12C86.9802 16.0773 87.0388 16.072 87.1135 16.104C87.2522 16.1467 87.4442 16.216 87.6895 16.312C87.9455 16.3973 88.2015 16.4933 88.4575 16.6C88.7242 16.696 88.9375 16.7813 89.0975 16.856H90.3935V15.304C90.1268 15.304 89.8708 15.304 89.6255 15.304C89.3908 15.304 89.1775 15.304 88.9855 15.304C88.6975 15.304 88.4628 15.304 88.2815 15.304C88.1108 15.304 88.0095 15.304 87.9775 15.304C87.9775 15.304 87.8868 15.304 87.7055 15.304C87.5348 15.304 87.3162 15.3093 87.0495 15.32C86.7935 15.3307 86.5268 15.352 86.2495 15.384L86.0575 14.68C86.5802 14.744 87.0282 14.7813 87.4015 14.792C87.7855 14.8027 87.9775 14.808 87.9775 14.808H96.9695C97.0655 14.808 97.1402 14.8027 97.1935 14.792C97.2468 14.7707 97.3002 14.728 97.3535 14.664C97.4068 14.6 97.4708 14.5147 97.5455 14.408C97.6308 14.2907 97.7162 14.1733 97.8015 14.056C97.8868 13.9387 97.9455 13.8587 97.9775 13.816C98.0415 13.7307 98.1162 13.688 98.2015 13.688C98.2548 13.688 98.3135 13.704 98.3775 13.736C98.5162 13.8 98.6815 13.9067 98.8735 14.056C99.0762 14.1947 99.2682 14.3387 99.4495 14.488C99.6415 14.6373 99.7802 14.7707 99.8655 14.888C99.9188 14.9627 99.9455 15.032 99.9455 15.096C99.9455 15.2347 99.8868 15.304 99.7695 15.304H95.4015V16.856H96.6815C96.7668 16.856 96.8362 16.8187 96.8895 16.744C96.9322 16.68 96.9855 16.6 97.0495 16.504C97.1242 16.3973 97.1828 16.3067 97.2255 16.232C97.2682 16.1573 97.3268 16.12 97.4015 16.12C97.4655 16.12 97.6095 16.1627 97.8335 16.248C98.0575 16.3333 98.3028 16.4347 98.5695 16.552C98.8468 16.6587 99.0708 16.76 99.2415 16.856C99.3695 16.9307 99.4335 17.032 99.4335 17.16C99.4335 17.224 99.4122 17.288 99.3695 17.352C99.3375 17.416 99.2788 17.4587 99.1935 17.48C99.1722 17.4907 99.1455 17.5013 99.1135 17.512C99.0922 17.5227 99.0708 17.5387 99.0495 17.56C98.9215 17.656 98.8575 17.8107 98.8575 18.024C98.8575 18.28 98.8628 18.5787 98.8735 18.92C98.8948 19.2613 98.9108 19.576 98.9215 19.864C98.9322 20.1413 98.9375 20.3333 98.9375 20.44C98.9375 20.5573 98.8575 20.664 98.6975 20.76C98.5482 20.8453 98.3508 20.9147 98.1055 20.968C97.8708 21.0107 97.6255 21.032 97.3695 21.032C97.0815 21.032 96.9375 20.8987 96.9375 20.632V20.28H91.9775C92.2015 20.344 92.4148 20.408 92.6175 20.472C92.8308 20.536 92.9908 20.5947 93.0975 20.648C93.1722 20.6693 93.2095 20.744 93.2095 20.872C93.2095 20.936 93.1882 20.9947 93.1455 21.048C93.1028 21.1013 93.0495 21.128 92.9855 21.128C92.8468 21.128 92.7455 21.144 92.6815 21.176C92.6282 21.1973 92.5695 21.2613 92.5055 21.368C92.4522 21.4533 92.3775 21.576 92.2815 21.736C92.1855 21.896 92.0788 22.0773 91.9615 22.28H97.1135C97.2095 22.28 97.2842 22.2747 97.3375 22.264C97.3908 22.2427 97.4442 22.1947 97.4975 22.12C97.5402 22.056 97.6042 21.9653 97.6895 21.848C97.7855 21.7307 97.8762 21.6133 97.9615 21.496C98.0575 21.368 98.1268 21.2773 98.1695 21.224C98.2335 21.1493 98.3028 21.112 98.3775 21.112C98.4202 21.112 98.4735 21.128 98.5375 21.16C98.6868 21.2133 98.8628 21.3147 99.0655 21.464C99.2788 21.6133 99.4815 21.7733 99.6735 21.944C99.8655 22.104 100.004 22.2427 100.09 22.36C100.143 22.4347 100.17 22.4987 100.17 22.552C100.17 22.6907 100.106 22.76 99.9775 22.76H97.0335C96.8628 23.1867 96.6655 23.5867 96.4415 23.96C96.2175 24.3227 95.9828 24.6587 95.7375 24.968C96.3028 25.1067 96.8202 25.2667 97.2895 25.448C97.7695 25.6293 98.1695 25.8373 98.4895 26.072C98.7348 26.2533 98.9055 26.44 99.0015 26.632C99.1082 26.824 99.1615 27.0107 99.1615 27.192C99.1615 27.5013 99.0548 27.752 98.8415 27.944C98.6388 28.1253 98.4148 28.216 98.1695 28.216C97.9882 28.216 97.8068 28.152 97.6255 28.024C97.1028 27.6293 96.5908 27.2773 96.0895 26.968C95.5882 26.648 95.0815 26.3653 94.5695 26.12C93.8228 26.696 92.9855 27.128 92.0575 27.416C91.1295 27.704 90.1375 27.896 89.0815 27.992C88.0362 28.088 86.9482 28.136 85.8175 28.136ZM93.6895 24.6C94.0948 24.0773 94.4468 23.464 94.7455 22.76H91.6895C91.5295 23.0267 91.3642 23.304 91.1935 23.592C91.0335 23.88 90.8842 24.1573 90.7455 24.424C91.2148 24.424 91.7002 24.44 92.2015 24.472C92.7028 24.504 93.1988 24.5467 93.6895 24.6ZM96.9375 17.352H95.4015V19.784H96.9375V17.352ZM90.3935 17.352H88.9215V19.784H90.3935V17.352ZM93.5935 17.352H92.1855V19.784H93.5935V17.352ZM93.5935 15.304H92.1855V16.856H93.5935V15.304ZM110.267 27.576C109.99 27.576 109.851 27.4427 109.851 27.176C109.851 27.08 109.862 26.696 109.883 26.024C109.904 25.352 109.92 24.4667 109.931 23.368C109.952 22.2693 109.963 21.032 109.963 19.656C109.963 19.1547 109.958 18.632 109.947 18.088C109.936 17.5333 109.92 17.032 109.899 16.584C109.878 16.1253 109.846 15.8 109.803 15.608C109.792 15.5227 109.798 15.4693 109.819 15.448C109.84 15.4053 109.894 15.3947 109.979 15.416C110.128 15.448 110.326 15.5067 110.571 15.592C110.816 15.6667 111.062 15.752 111.307 15.848C111.563 15.944 111.782 16.04 111.963 16.136H113.339C113.467 16.136 113.552 16.088 113.595 15.992C113.627 15.9387 113.67 15.864 113.723 15.768C113.787 15.6613 113.84 15.576 113.883 15.512C113.936 15.4267 113.995 15.384 114.059 15.384C114.091 15.384 114.139 15.3947 114.203 15.416C114.342 15.4587 114.512 15.528 114.715 15.624C114.918 15.7093 115.115 15.8 115.307 15.896C115.51 15.992 115.67 16.0773 115.787 16.152C115.904 16.216 115.963 16.312 115.963 16.44C115.963 16.568 115.894 16.664 115.755 16.728C115.702 16.7387 115.654 16.76 115.611 16.792C115.44 16.888 115.355 17.0853 115.355 17.384V19.224C115.355 20.0987 115.36 20.9467 115.371 21.768C115.382 22.5787 115.398 23.3093 115.419 23.96C115.44 24.6107 115.456 25.1387 115.467 25.544C115.478 25.9493 115.483 26.1787 115.483 26.232C115.483 26.4133 115.323 26.5573 115.003 26.664C114.694 26.7707 114.358 26.824 113.995 26.824C113.718 26.824 113.579 26.696 113.579 26.44V25.512H111.755V27C111.755 27.1173 111.68 27.2187 111.531 27.304C111.382 27.3893 111.19 27.4533 110.955 27.496C110.731 27.5493 110.502 27.576 110.267 27.576ZM101.531 28.104C101.467 28.104 101.408 28.0827 101.355 28.04C101.312 27.9973 101.296 27.944 101.307 27.88C101.68 27.4 102.011 26.8613 102.299 26.264C102.598 25.656 102.843 24.9467 103.035 24.136C103.238 23.3147 103.387 22.3493 103.483 21.24C103.59 20.12 103.643 18.8133 103.643 17.32H103.371C103.371 17.32 103.286 17.32 103.115 17.32C102.944 17.32 102.736 17.3253 102.491 17.336C102.246 17.3467 102.006 17.368 101.771 17.4L101.579 16.712C102.038 16.776 102.448 16.8133 102.811 16.824C103.174 16.8347 103.355 16.84 103.355 16.84H103.643C103.643 16.1467 103.632 15.6027 103.611 15.208C103.59 14.8133 103.558 14.5147 103.515 14.312C103.483 14.1093 103.446 13.9653 103.403 13.88C103.382 13.816 103.387 13.7627 103.419 13.72C103.462 13.6773 103.515 13.656 103.579 13.656C103.728 13.656 103.958 13.6827 104.267 13.736C104.576 13.7787 104.886 13.8267 105.195 13.88C105.504 13.9333 105.739 13.9813 105.899 14.024C106.006 14.0667 106.059 14.1467 106.059 14.264C106.059 14.4347 105.99 14.536 105.851 14.568C105.723 14.5787 105.622 14.6107 105.547 14.664C105.483 14.7173 105.451 14.8187 105.451 14.968V16.84H106.779C106.864 16.84 106.928 16.8027 106.971 16.728C107.003 16.6747 107.046 16.6053 107.099 16.52C107.163 16.4347 107.216 16.3547 107.259 16.28C107.323 16.1733 107.414 16.1413 107.531 16.184C107.67 16.216 107.84 16.2747 108.043 16.36C108.256 16.4453 108.464 16.5413 108.667 16.648C108.88 16.744 109.051 16.84 109.179 16.936C109.254 16.9787 109.291 17.048 109.291 17.144C109.291 17.2507 109.243 17.3307 109.147 17.384C109.115 17.3947 109.083 17.4107 109.051 17.432C109.03 17.4427 109.008 17.4587 108.987 17.48C108.88 17.5547 108.806 17.64 108.763 17.736C108.731 17.832 108.715 17.9653 108.715 18.136C108.715 19.7147 108.683 21.0533 108.619 22.152C108.566 23.2507 108.459 24.1573 108.299 24.872C108.15 25.5867 107.942 26.1467 107.675 26.552C107.419 26.9573 107.088 27.2507 106.683 27.432C106.278 27.624 105.787 27.7467 105.211 27.8C105.211 27.352 105.158 27.0053 105.051 26.76C104.955 26.504 104.79 26.312 104.555 26.184C104.331 26.0453 104.032 25.9387 103.659 25.864C103.638 25.8 103.627 25.7573 103.627 25.736C103.627 25.64 103.664 25.5707 103.739 25.528C103.92 25.5493 104.171 25.5867 104.491 25.64C104.811 25.6827 105.094 25.704 105.339 25.704C105.627 25.704 105.872 25.5867 106.075 25.352C106.278 25.1067 106.443 24.68 106.571 24.072C106.699 23.4533 106.79 22.6 106.843 21.512C106.907 20.4133 106.939 19.016 106.939 17.32H105.451C105.451 18.8453 105.344 20.184 105.131 21.336C104.918 22.4773 104.63 23.4747 104.267 24.328C103.904 25.1707 103.488 25.9013 103.019 26.52C102.55 27.128 102.054 27.656 101.531 28.104ZM113.579 16.616H111.755V25.032H113.579V16.616ZM117.597 28.168C117.458 28.0827 117.426 27.976 117.501 27.848C118.621 27.3893 119.597 26.6907 120.429 25.752C121.261 24.8027 121.927 23.656 122.429 22.312C122.941 20.9573 123.261 19.4427 123.389 17.768C123.399 17.7147 123.405 17.6667 123.405 17.624C123.405 17.5813 123.405 17.5387 123.405 17.496C123.405 17.4107 123.399 17.3413 123.389 17.288C123.389 17.2347 123.383 17.1867 123.373 17.144C123.373 17.0693 123.378 17.0213 123.389 17C123.431 16.9573 123.485 16.952 123.549 16.984C123.602 16.9947 123.709 17.0373 123.869 17.112C124.039 17.176 124.205 17.2453 124.365 17.32C124.354 16.9787 124.338 16.6267 124.317 16.264C124.306 15.9013 124.306 15.5387 124.317 15.176H122.701C122.701 15.176 122.61 15.176 122.429 15.176C122.258 15.176 122.039 15.1813 121.773 15.192C121.506 15.2027 121.234 15.224 120.957 15.256L120.765 14.568C121.287 14.632 121.741 14.6693 122.125 14.68C122.509 14.6907 122.701 14.696 122.701 14.696H123.421C123.57 14.696 123.682 14.6427 123.757 14.536C123.799 14.4827 123.863 14.3973 123.949 14.28C124.034 14.152 124.125 14.024 124.221 13.896C124.317 13.768 124.391 13.672 124.445 13.608C124.509 13.5333 124.583 13.496 124.669 13.496C124.733 13.496 124.85 13.5493 125.021 13.656C125.191 13.752 125.378 13.88 125.581 14.04C125.794 14.1893 125.991 14.3387 126.173 14.488C126.365 14.6373 126.509 14.76 126.605 14.856C126.647 14.8987 126.669 14.9627 126.669 15.048C126.669 15.1547 126.621 15.2347 126.525 15.288C126.439 15.3307 126.311 15.3893 126.141 15.464C125.981 15.528 125.821 15.592 125.661 15.656C125.501 15.7093 125.378 15.752 125.293 15.784C125.165 15.8267 125.095 15.9333 125.085 16.104C125.085 16.2 125.079 16.3013 125.069 16.408C125.069 16.504 125.069 16.5947 125.069 16.68C125.069 18.0987 125.25 19.32 125.613 20.344C125.986 21.3573 126.503 22.2213 127.165 22.936C127.837 23.64 128.61 24.2373 129.485 24.728C130.37 25.208 131.325 25.6347 132.349 26.008C131.826 26.2 131.367 26.4933 130.973 26.888C130.578 27.2827 130.274 27.6613 130.061 28.024C127.49 26.68 125.783 24.3547 124.941 21.048C124.642 22.1147 124.231 23.0533 123.709 23.864C123.186 24.664 122.589 25.352 121.917 25.928C121.255 26.504 120.551 26.9733 119.805 27.336C119.069 27.6987 118.333 27.976 117.597 28.168ZM135.182 28.152C135.129 27.6507 135.054 27.2667 134.958 27C134.873 26.744 134.734 26.5627 134.542 26.456C134.35 26.3493 134.067 26.2747 133.694 26.232C133.662 26.1787 133.646 26.1253 133.646 26.072C133.646 26.008 133.673 25.9493 133.726 25.896H135.23C135.401 25.896 135.513 25.8693 135.566 25.816C135.63 25.752 135.662 25.656 135.662 25.528V22.28C135.523 22.3867 135.395 22.488 135.278 22.584C135.161 22.6693 135.059 22.744 134.974 22.808C134.899 22.872 134.857 22.9307 134.846 22.984C134.846 23.0267 134.851 23.0853 134.862 23.16C134.862 23.1707 134.862 23.1813 134.862 23.192C134.873 23.192 134.878 23.1973 134.878 23.208C134.878 23.272 134.835 23.3253 134.75 23.368C134.718 23.3787 134.681 23.3893 134.638 23.4C134.595 23.4 134.563 23.3787 134.542 23.336C134.457 23.208 134.339 23.0213 134.19 22.776C134.041 22.52 133.897 22.264 133.758 22.008C133.619 21.7413 133.518 21.5387 133.454 21.4C133.443 21.368 133.443 21.336 133.454 21.304C133.454 21.2827 133.481 21.2613 133.534 21.24C133.587 21.2187 133.651 21.1973 133.726 21.176C133.811 21.144 133.891 21.112 133.966 21.08C134.201 21.0053 134.462 20.92 134.75 20.824C135.038 20.728 135.342 20.6267 135.662 20.52V17.736C135.587 17.736 135.518 17.736 135.454 17.736C135.39 17.736 135.326 17.736 135.262 17.736C135.07 17.7253 134.963 17.7253 134.942 17.736C134.942 17.736 134.809 17.7413 134.542 17.752C134.286 17.752 133.987 17.7627 133.646 17.784L133.454 17.144C133.891 17.1867 134.243 17.2133 134.51 17.224C134.787 17.2347 134.926 17.24 134.926 17.24H135.662V15.08C135.662 14.4827 135.614 14.104 135.518 13.944C135.486 13.88 135.481 13.816 135.502 13.752C135.534 13.6987 135.593 13.672 135.678 13.672C135.827 13.672 136.035 13.688 136.302 13.72C136.579 13.752 136.851 13.7893 137.118 13.832C137.395 13.8747 137.609 13.912 137.758 13.944C137.865 13.976 137.918 14.0453 137.918 14.152C137.918 14.312 137.843 14.4027 137.694 14.424C137.481 14.456 137.374 14.5733 137.374 14.776V17.24H137.454C137.582 17.24 137.683 17.1973 137.758 17.112C137.811 17.0267 137.881 16.904 137.966 16.744C138.062 16.5733 138.147 16.44 138.222 16.344C138.275 16.2587 138.334 16.216 138.398 16.216C138.451 16.216 138.515 16.2427 138.59 16.296C138.697 16.36 138.825 16.456 138.974 16.584C139.123 16.712 139.273 16.8453 139.422 16.984C139.571 17.1227 139.689 17.24 139.774 17.336C139.827 17.3893 139.854 17.4533 139.854 17.528C139.854 17.6667 139.79 17.736 139.662 17.736H137.374V19.992C137.673 19.896 137.945 19.816 138.19 19.752C138.435 19.6773 138.627 19.6187 138.766 19.576C138.873 19.5973 138.926 19.656 138.926 19.752C139.278 19.24 139.598 18.6747 139.886 18.056C140.174 17.4373 140.419 16.8027 140.622 16.152C140.825 15.4907 140.969 14.8507 141.054 14.232C141.075 14.1467 141.086 14.0667 141.086 13.992C141.097 13.9173 141.107 13.8427 141.118 13.768C141.118 13.7147 141.145 13.6773 141.198 13.656C141.23 13.6453 141.267 13.6453 141.31 13.656C141.47 13.6773 141.699 13.72 141.998 13.784C142.307 13.848 142.611 13.9173 142.91 13.992C143.209 14.0667 143.422 14.1307 143.55 14.184C143.614 14.1947 143.646 14.248 143.646 14.344C143.646 14.3867 143.63 14.4347 143.598 14.488C143.577 14.5307 143.539 14.5573 143.486 14.568C143.753 15.208 144.147 15.8053 144.67 16.36C145.193 16.9147 145.779 17.4053 146.43 17.832C147.091 18.248 147.747 18.5787 148.398 18.824C148.153 18.8987 147.907 19.0427 147.662 19.256C147.417 19.4693 147.198 19.704 147.006 19.96C146.814 20.2053 146.67 20.4293 146.574 20.632C145.998 20.2373 145.475 19.7147 145.006 19.064C144.537 18.4133 144.142 17.7093 143.822 16.952C143.502 16.1947 143.267 15.464 143.118 14.76V14.776C142.531 16.1947 141.822 17.4267 140.99 18.472C140.158 19.5173 139.241 20.4027 138.238 21.128C138.067 21.1067 137.993 21.0267 138.014 20.888C138.153 20.7493 138.286 20.6 138.414 20.44C138.553 20.28 138.681 20.1147 138.798 19.944C138.638 20.0507 138.43 20.1947 138.174 20.376C137.929 20.5573 137.662 20.7547 137.374 20.968V21.784C137.374 22.1253 137.379 22.536 137.39 23.016C137.401 23.4853 137.406 23.9547 137.406 24.424C137.417 24.8827 137.427 25.2773 137.438 25.608C137.449 25.9387 137.454 26.1307 137.454 26.184C137.454 26.7387 137.278 27.1707 136.926 27.48C136.585 27.7893 136.003 28.0133 135.182 28.152ZM139.438 28.008C139.161 28.008 139.022 27.88 139.022 27.624C139.022 27.5493 139.027 27.3307 139.038 26.968C139.059 26.6053 139.075 26.1467 139.086 25.592C139.097 25.0267 139.102 24.4293 139.102 23.8C139.102 23.1067 139.091 22.6053 139.07 22.296C139.059 21.9867 139.033 21.7787 138.99 21.672C138.979 21.6293 138.985 21.5867 139.006 21.544C139.027 21.5227 139.059 21.512 139.102 21.512C139.145 21.512 139.251 21.544 139.422 21.608C139.593 21.6613 139.785 21.7307 139.998 21.816C140.222 21.9013 140.43 21.9867 140.622 22.072C140.825 22.1467 140.979 22.2107 141.086 22.264H144.094C144.233 22.264 144.329 22.216 144.382 22.12C144.414 22.0667 144.462 21.9813 144.526 21.864C144.59 21.7467 144.643 21.656 144.686 21.592C144.729 21.5067 144.787 21.464 144.862 21.464C144.883 21.464 144.905 21.4693 144.926 21.48C144.958 21.48 144.99 21.4853 145.022 21.496C145.171 21.5387 145.353 21.608 145.566 21.704C145.79 21.8 146.009 21.9013 146.222 22.008C146.435 22.104 146.606 22.1947 146.734 22.28C146.851 22.344 146.91 22.4453 146.91 22.584C146.91 22.7227 146.835 22.824 146.686 22.888C146.633 22.92 146.579 22.9467 146.526 22.968C146.366 23.0853 146.286 23.2933 146.286 23.592C146.286 23.912 146.291 24.2747 146.302 24.68C146.313 25.0747 146.323 25.464 146.334 25.848C146.355 26.2213 146.371 26.5413 146.382 26.808C146.393 27.064 146.398 27.2133 146.398 27.256C146.398 27.3733 146.313 27.4747 146.142 27.56C145.982 27.6453 145.779 27.7093 145.534 27.752C145.299 27.8053 145.059 27.832 144.814 27.832C144.526 27.832 144.382 27.704 144.382 27.448V26.824H140.974V27.448C140.974 27.5653 140.894 27.6667 140.734 27.752C140.574 27.8373 140.377 27.9013 140.142 27.944C139.907 27.9867 139.673 28.008 139.438 28.008ZM144.382 22.744H140.974V26.344H144.382V22.744ZM140.254 20.376L140.078 19.752C140.494 19.7947 140.851 19.8213 141.15 19.832C141.449 19.832 141.598 19.832 141.598 19.832H143.022C143.171 19.832 143.278 19.784 143.342 19.688C143.395 19.6027 143.475 19.4747 143.582 19.304C143.689 19.1333 143.769 19.0107 143.822 18.936C143.865 18.8613 143.923 18.824 143.998 18.824C144.051 18.824 144.105 18.8453 144.158 18.888C144.275 18.9627 144.409 19.0693 144.558 19.208C144.707 19.336 144.851 19.4693 144.99 19.608C145.139 19.7467 145.251 19.864 145.326 19.96C145.369 20.0133 145.39 20.072 145.39 20.136C145.39 20.264 145.337 20.328 145.23 20.328H141.598C141.598 20.328 141.459 20.3333 141.182 20.344C140.905 20.344 140.595 20.3547 140.254 20.376ZM152.192 25.912C151.904 25.912 151.76 25.7787 151.76 25.512C151.76 25.4267 151.77 25.1867 151.792 24.792C151.813 24.3973 151.834 23.9227 151.856 23.368C151.888 22.8133 151.904 22.2533 151.904 21.688C151.904 20.9093 151.893 20.36 151.872 20.04C151.85 19.72 151.813 19.4907 151.76 19.352C151.728 19.2773 151.738 19.224 151.792 19.192C151.824 19.16 151.877 19.1547 151.952 19.176L152 19.192C151.989 19.1707 151.984 19.144 151.984 19.112C151.984 19.08 151.984 19.0533 151.984 19.032C151.984 18.968 152 18.776 152.032 18.456C152.064 18.1253 152.085 17.6827 152.096 17.128C151.701 17.448 151.29 17.7467 150.864 18.024C150.448 18.2907 150.021 18.536 149.584 18.76C149.434 18.728 149.376 18.6373 149.408 18.488C149.834 18.168 150.24 17.768 150.624 17.288C151.018 16.7973 151.37 16.2747 151.68 15.72C151.989 15.1653 152.229 14.632 152.4 14.12L152.544 13.592C152.544 13.5493 152.56 13.5227 152.592 13.512C152.602 13.5013 152.618 13.496 152.64 13.496C152.682 13.496 152.8 13.528 152.992 13.592C153.184 13.656 153.402 13.7307 153.648 13.816C153.904 13.9013 154.144 13.9867 154.368 14.072C154.602 14.1573 154.773 14.2213 154.88 14.264C154.965 14.3067 155.008 14.3707 155.008 14.456C155.008 14.552 154.986 14.616 154.944 14.648C154.901 14.6693 154.848 14.6853 154.784 14.696C154.645 14.7067 154.528 14.744 154.432 14.808C154.346 14.8613 154.256 14.952 154.16 15.08L153.824 15.464V18.856C153.824 18.9947 153.706 19.112 153.472 19.208C153.237 19.304 152.97 19.3627 152.672 19.384C152.896 19.4587 153.12 19.5387 153.344 19.624C153.578 19.6987 153.765 19.7627 153.904 19.816H159.344C159.408 19.816 159.456 19.8107 159.488 19.8C159.52 19.7893 159.552 19.752 159.584 19.688L159.84 19.272C159.904 19.1653 160.005 19.1333 160.144 19.176C160.272 19.2187 160.442 19.2827 160.656 19.368C160.869 19.4533 161.082 19.544 161.296 19.64C161.52 19.7253 161.701 19.8053 161.84 19.88C161.957 19.944 162.016 20.04 162.016 20.168C162.016 20.328 161.93 20.44 161.76 20.504C161.738 20.504 161.717 20.5093 161.696 20.52C161.685 20.5307 161.669 20.5413 161.648 20.552C161.562 20.5947 161.504 20.6587 161.472 20.744C161.45 20.8293 161.44 20.9413 161.44 21.08C161.44 21.2293 161.445 21.4533 161.456 21.752C161.466 22.04 161.477 22.36 161.488 22.712C161.509 23.0533 161.525 23.3893 161.536 23.72C161.557 24.0507 161.573 24.328 161.584 24.552C161.594 24.776 161.6 24.9093 161.6 24.952C161.6 25.0693 161.52 25.176 161.36 25.272C161.2 25.368 160.997 25.4427 160.752 25.496C160.506 25.5387 160.256 25.56 160 25.56C159.744 25.56 159.6 25.448 159.568 25.224H153.744V25.304C153.744 25.432 153.664 25.544 153.504 25.64C153.354 25.7253 153.157 25.7947 152.911 25.848C152.677 25.8907 152.437 25.912 152.192 25.912ZM157.424 19C157.061 18.9467 156.794 18.8507 156.624 18.712C156.453 18.5733 156.368 18.344 156.368 18.024V14.856C156.368 14.4613 156.325 14.152 156.24 13.928C156.208 13.864 156.202 13.8 156.224 13.736C156.245 13.6827 156.298 13.6613 156.384 13.672C156.512 13.672 156.72 13.6933 157.008 13.736C157.296 13.7787 157.584 13.8267 157.872 13.88C158.16 13.9227 158.368 13.96 158.496 13.992C158.602 14.0347 158.656 14.12 158.656 14.248C158.645 14.3653 158.576 14.4347 158.448 14.456C158.245 14.488 158.144 14.6 158.144 14.792V15.88C158.517 15.7093 158.88 15.4853 159.232 15.208C159.584 14.9307 159.872 14.6373 160.096 14.328C160.128 14.2853 160.154 14.2427 160.176 14.2C160.208 14.1467 160.24 14.0987 160.272 14.056C160.293 14.0027 160.325 13.9707 160.368 13.96C160.421 13.9387 160.474 13.944 160.528 13.976C160.666 14.0507 160.842 14.152 161.056 14.28C161.28 14.408 161.498 14.5413 161.712 14.68C161.936 14.8187 162.112 14.9413 162.24 15.048C162.314 15.1013 162.336 15.1813 162.304 15.288C162.261 15.3947 162.181 15.432 162.064 15.4C162.021 15.3893 161.962 15.384 161.888 15.384C161.738 15.384 161.557 15.4267 161.344 15.512C160.832 15.6933 160.288 15.8533 159.712 15.992C159.136 16.1307 158.613 16.2373 158.144 16.312V17.112C158.144 17.2933 158.197 17.4053 158.304 17.448C158.41 17.4907 158.613 17.512 158.912 17.512C159.146 17.512 159.44 17.5067 159.792 17.496C160.154 17.4747 160.496 17.4533 160.816 17.432C161.146 17.4107 161.376 17.384 161.504 17.352C161.717 17.2987 161.856 17.24 161.92 17.176C161.984 17.112 162.037 17.0053 162.08 16.856C162.165 16.6107 162.245 16.344 162.32 16.056C162.394 15.768 162.453 15.5493 162.496 15.4C162.549 15.368 162.597 15.352 162.64 15.352C162.725 15.352 162.784 15.384 162.816 15.448V16.792C162.816 16.8987 162.832 16.984 162.864 17.048C162.896 17.1013 162.965 17.1493 163.072 17.192C163.221 17.2347 163.349 17.3307 163.456 17.48C163.573 17.6187 163.632 17.7787 163.632 17.96C163.632 18.408 163.301 18.7067 162.64 18.856C162.426 18.8987 162.122 18.936 161.728 18.968C161.344 19 160.917 19.0267 160.448 19.048C159.978 19.0693 159.525 19.08 159.088 19.08C158.384 19.08 157.829 19.0533 157.424 19ZM162.176 28.184C161.525 27.7573 160.773 27.352 159.92 26.968C159.077 26.584 158.234 26.28 157.392 26.056C157.36 26.0027 157.344 25.96 157.344 25.928C157.344 25.8427 157.381 25.7733 157.456 25.72C157.904 25.688 158.416 25.672 158.992 25.672C159.621 25.672 160.266 25.7093 160.928 25.784C161.589 25.8587 162.154 26.0027 162.624 26.216C162.922 26.3547 163.136 26.5307 163.264 26.744C163.392 26.9573 163.456 27.1707 163.456 27.384C163.456 27.5973 163.402 27.7787 163.296 27.928C163.104 28.184 162.874 28.312 162.608 28.312C162.448 28.312 162.304 28.2693 162.176 28.184ZM149.472 28.376C149.397 28.3333 149.36 28.2693 149.36 28.184C149.36 28.1307 149.376 28.088 149.408 28.056C149.92 27.9067 150.458 27.7093 151.024 27.464C151.6 27.2293 152.144 26.9573 152.656 26.648C153.178 26.328 153.605 25.9973 153.936 25.656C153.989 25.6027 154.032 25.5547 154.064 25.512C154.106 25.4693 154.144 25.4267 154.176 25.384C154.197 25.352 154.229 25.3253 154.272 25.304C154.325 25.2827 154.373 25.2827 154.416 25.304C154.522 25.3467 154.677 25.416 154.88 25.512C155.082 25.5973 155.296 25.6933 155.52 25.8C155.754 25.896 155.968 25.992 156.16 26.088C156.362 26.1733 156.512 26.2427 156.608 26.296C156.714 26.3493 156.736 26.4347 156.672 26.552C156.64 26.6373 156.576 26.68 156.48 26.68C156.437 26.6693 156.378 26.664 156.304 26.664C156.165 26.664 156.01 26.7067 155.84 26.792C154.805 27.2613 153.754 27.608 152.688 27.832C151.621 28.0667 150.549 28.248 149.472 28.376ZM159.568 23.528H153.744V24.744H159.568V23.528ZM159.568 21.912H153.744V23.048H159.568V21.912ZM159.568 20.296H153.744V21.432H159.568V20.296ZM165.553 28.376C165.478 28.3227 165.441 28.2587 165.441 28.184C165.441 28.1307 165.457 28.088 165.489 28.056C165.926 27.9173 166.412 27.7253 166.945 27.48C167.478 27.2453 167.996 26.9787 168.497 26.68C168.998 26.3813 169.398 26.088 169.697 25.8C169.729 25.768 169.761 25.736 169.793 25.704C169.825 25.672 169.852 25.64 169.873 25.608H169.601V25.72C169.601 25.8267 169.521 25.9173 169.361 25.992C169.201 26.0667 169.009 26.1253 168.785 26.168C168.561 26.2107 168.342 26.232 168.129 26.232C167.873 26.232 167.745 26.12 167.745 25.896C167.745 25.8427 167.756 25.544 167.777 25C167.809 24.456 167.825 23.6987 167.825 22.728C167.825 22.184 167.814 21.7787 167.793 21.512C167.782 21.2453 167.766 21.048 167.745 20.92L167.633 20.952C167.484 21.0053 167.425 21.096 167.457 21.224V21.272C167.457 21.3573 167.414 21.416 167.329 21.448C167.308 21.4587 167.281 21.464 167.249 21.464C167.174 21.464 167.11 21.432 167.057 21.368C167.004 21.272 166.929 21.128 166.833 20.936C166.737 20.744 166.636 20.5467 166.529 20.344C166.433 20.1413 166.358 19.9813 166.305 19.864C166.294 19.8533 166.289 19.832 166.289 19.8C166.289 19.7467 166.321 19.7147 166.385 19.704L166.785 19.672C167.009 19.6507 167.276 19.6293 167.585 19.608C167.894 19.5867 168.214 19.5707 168.545 19.56V18.456H168.097C168.097 18.456 167.98 18.4613 167.745 18.472C167.521 18.472 167.308 18.488 167.105 18.52L166.977 17.96C167.126 17.9813 167.286 17.9973 167.457 18.008C167.628 18.0187 167.772 18.024 167.889 18.024C168.017 18.024 168.081 18.024 168.081 18.024H168.545V16.904H168.161C167.99 16.904 167.836 16.9093 167.697 16.92C167.558 16.92 167.446 16.9253 167.361 16.936C167.148 17.3093 166.817 17.5333 166.369 17.608C166.326 17.6187 166.284 17.624 166.241 17.624C166.209 17.624 166.172 17.624 166.129 17.624C165.83 17.624 165.601 17.528 165.441 17.336C165.281 17.1333 165.201 16.9147 165.201 16.68C165.201 16.4987 165.249 16.3227 165.345 16.152C165.452 15.9813 165.606 15.8587 165.809 15.784C166.214 15.624 166.497 15.432 166.657 15.208C166.828 14.9733 166.918 14.6373 166.929 14.2C166.993 14.136 167.057 14.104 167.121 14.104C167.174 14.104 167.222 14.12 167.265 14.152C167.318 14.3227 167.366 14.4933 167.409 14.664C167.452 14.824 167.489 14.984 167.521 15.144H171.601V14.552C171.601 14.3707 171.585 14.2107 171.553 14.072C171.532 13.9333 171.5 13.8267 171.457 13.752C171.425 13.6667 171.425 13.608 171.457 13.576C171.478 13.5227 171.532 13.496 171.617 13.496C171.713 13.496 171.862 13.5067 172.065 13.528C172.268 13.5493 172.486 13.576 172.721 13.608C172.966 13.6293 173.19 13.656 173.393 13.688C173.596 13.72 173.745 13.7467 173.841 13.768C173.916 13.7787 173.964 13.8107 173.985 13.864C174.006 13.9173 174.017 13.9707 174.017 14.024C174.006 14.1627 173.926 14.2427 173.777 14.264C173.564 14.2853 173.457 14.3867 173.457 14.568V15.144H177.489C177.596 15.144 177.686 15.1013 177.761 15.016C177.804 14.9627 177.873 14.8773 177.969 14.76C178.065 14.6427 178.145 14.5467 178.209 14.472C178.273 14.3973 178.337 14.36 178.401 14.36C178.454 14.36 178.518 14.3867 178.593 14.44C178.71 14.5147 178.854 14.6213 179.025 14.76C179.206 14.8987 179.388 15.0427 179.569 15.192C179.75 15.3413 179.894 15.4693 180.001 15.576C180.076 15.6507 180.113 15.7467 180.113 15.864C180.113 15.9173 180.108 15.96 180.097 15.992C180.076 16.056 180.033 16.1147 179.969 16.168C179.916 16.2107 179.841 16.2267 179.745 16.216C179.532 16.216 179.318 16.232 179.105 16.264C178.593 16.328 178.15 16.5147 177.777 16.824C177.798 16.8667 177.809 16.8987 177.809 16.92C177.809 17.0373 177.756 17.096 177.649 17.096H175.921V18.024H177.313C177.409 18.024 177.484 17.992 177.537 17.928C177.601 17.8427 177.686 17.7307 177.793 17.592C177.9 17.4427 177.99 17.3253 178.065 17.24C178.118 17.176 178.172 17.144 178.225 17.144C178.278 17.144 178.332 17.1653 178.385 17.208C178.449 17.2613 178.545 17.3467 178.673 17.464C178.801 17.5813 178.929 17.6987 179.057 17.816C179.185 17.9333 179.276 18.024 179.329 18.088C179.382 18.1413 179.409 18.2053 179.409 18.28C179.409 18.3973 179.356 18.456 179.249 18.456H175.921V20.056H176.689V19.736C176.689 19.5013 176.673 19.3253 176.641 19.208C176.62 19.08 176.593 18.9787 176.561 18.904C176.529 18.8187 176.534 18.76 176.577 18.728C176.598 18.696 176.636 18.68 176.689 18.68C176.806 18.68 176.998 18.696 177.265 18.728C177.532 18.76 177.793 18.792 178.049 18.824C178.316 18.856 178.502 18.888 178.609 18.92C178.705 18.952 178.753 19.0267 178.753 19.144C178.742 19.272 178.678 19.336 178.561 19.336C178.476 19.3467 178.406 19.3733 178.353 19.416C178.31 19.448 178.289 19.5173 178.289 19.624C178.289 19.7947 178.294 19.9813 178.305 20.184C178.316 20.376 178.321 20.4987 178.321 20.552C178.321 20.648 178.252 20.7333 178.113 20.808C177.974 20.872 177.804 20.9253 177.601 20.968C177.398 21 177.201 21.016 177.009 21.016C176.796 21.016 176.689 20.9093 176.689 20.696V20.488H173.537V20.648C173.537 20.744 173.468 20.8293 173.329 20.904C173.19 20.968 173.02 21.0213 172.817 21.064C172.625 21.096 172.433 21.112 172.241 21.112C172.017 21.112 171.905 21.0053 171.905 20.792C171.905 20.7387 171.91 20.6 171.921 20.376C171.932 20.152 171.937 19.9387 171.937 19.736C171.937 19.5013 171.921 19.3253 171.889 19.208C171.868 19.08 171.841 18.9787 171.809 18.904C171.777 18.8187 171.782 18.7547 171.825 18.712C171.868 18.6907 171.905 18.68 171.937 18.68C172.054 18.68 172.241 18.696 172.497 18.728C172.764 18.76 173.03 18.792 173.297 18.824C173.564 18.856 173.75 18.888 173.857 18.92C173.964 18.9413 174.017 19.016 174.017 19.144C174.006 19.272 173.937 19.336 173.809 19.336C173.724 19.3467 173.654 19.3733 173.601 19.416C173.558 19.448 173.537 19.5173 173.537 19.624V20.056H174.337V18.456H170.097V19.464C170.46 19.4427 170.785 19.4267 171.073 19.416C171.372 19.3947 171.59 19.3787 171.729 19.368C171.793 19.4 171.825 19.464 171.825 19.56C171.825 19.6027 171.809 19.6507 171.777 19.704C171.617 19.7467 171.393 19.8107 171.105 19.896C170.817 19.9813 170.497 20.0773 170.145 20.184C169.804 20.28 169.462 20.3813 169.121 20.488C168.78 20.5947 168.476 20.6907 168.209 20.776C168.444 20.8507 168.716 20.952 169.025 21.08C169.345 21.1973 169.574 21.2827 169.713 21.336H175.217C175.345 21.336 175.43 21.2933 175.473 21.208C175.494 21.1547 175.532 21.08 175.585 20.984C175.649 20.888 175.697 20.8187 175.729 20.776C175.782 20.6907 175.841 20.648 175.905 20.648C175.926 20.648 175.969 20.6587 176.033 20.68C176.161 20.7227 176.326 20.7867 176.529 20.872C176.732 20.9467 176.934 21.0267 177.137 21.112C177.34 21.1973 177.5 21.2773 177.617 21.352C177.713 21.416 177.761 21.5013 177.761 21.608C177.761 21.736 177.697 21.8267 177.569 21.88C177.537 21.8907 177.505 21.9067 177.473 21.928C177.441 21.9387 177.414 21.9547 177.393 21.976C177.265 22.072 177.201 22.2427 177.201 22.488C177.201 22.8827 177.212 23.2987 177.233 23.736C177.254 24.1627 177.27 24.5413 177.281 24.872C177.302 25.192 177.313 25.3947 177.313 25.48C177.313 25.6187 177.174 25.736 176.897 25.832C176.63 25.9173 176.348 25.9707 176.049 25.992C176.582 26.024 177.084 26.0933 177.553 26.2C178.022 26.296 178.406 26.4507 178.705 26.664C178.908 26.8027 179.046 26.952 179.121 27.112C179.206 27.272 179.249 27.4267 179.249 27.576C179.249 27.7893 179.196 27.9547 179.089 28.072C178.95 28.2853 178.764 28.392 178.529 28.392C178.39 28.392 178.246 28.344 178.097 28.248C177.745 28.0027 177.34 27.752 176.881 27.496C176.433 27.2507 175.958 27.0267 175.457 26.824C174.966 26.6107 174.481 26.4453 174.001 26.328C173.969 26.2747 173.953 26.232 173.953 26.2C173.953 26.1147 173.99 26.0453 174.065 25.992C174.31 25.9813 174.566 25.976 174.833 25.976C175.1 25.9653 175.366 25.9653 175.633 25.976C175.494 25.9333 175.425 25.8267 175.425 25.656V25.608H170.321C170.46 25.6827 170.63 25.784 170.833 25.912C171.036 26.04 171.233 26.1627 171.425 26.28C171.617 26.3973 171.761 26.488 171.857 26.552C171.985 26.6267 172.017 26.728 171.953 26.856C171.889 26.984 171.793 27.0213 171.665 26.968C171.622 26.9467 171.585 26.936 171.553 26.936C171.521 26.936 171.489 26.936 171.457 26.936C171.34 26.936 171.228 26.9627 171.121 27.016C170.598 27.2507 170.012 27.4587 169.361 27.64C168.71 27.8213 168.054 27.9707 167.393 28.088C166.742 28.2053 166.129 28.3013 165.553 28.376ZM171.857 16.904H170.097V18.024H170.177C170.252 18.024 170.31 18.0027 170.353 17.96C170.396 17.896 170.465 17.7947 170.561 17.656C170.668 17.5067 170.742 17.4 170.785 17.336C170.838 17.2827 170.892 17.256 170.945 17.256C170.998 17.256 171.046 17.2773 171.089 17.32C171.185 17.3947 171.313 17.512 171.473 17.672C171.633 17.8213 171.761 17.9387 171.857 18.024H174.337V17.096H173.521C173.052 17.4587 172.646 17.752 172.305 17.976H172.273C172.124 17.976 172.049 17.9067 172.049 17.768C172.166 17.576 172.284 17.2773 172.401 16.872C172.529 16.4667 172.625 16.0933 172.689 15.752L172.721 15.624H167.585C167.606 15.9227 167.59 16.1947 167.537 16.44C167.633 16.4507 167.734 16.456 167.841 16.456C167.948 16.456 168.054 16.456 168.161 16.456H170.241C170.316 16.456 170.374 16.4293 170.417 16.376C170.481 16.2907 170.556 16.1947 170.641 16.088C170.726 15.9707 170.796 15.88 170.849 15.816C170.892 15.7627 170.94 15.736 170.993 15.736C171.046 15.736 171.1 15.7573 171.153 15.8C171.249 15.8747 171.382 15.992 171.553 16.152C171.724 16.312 171.857 16.4347 171.953 16.52C172.017 16.584 172.049 16.6533 172.049 16.728C172.049 16.8453 171.985 16.904 171.857 16.904ZM175.425 23.032H169.601V23.896H175.425V23.032ZM175.425 24.328H169.601V25.176H175.425V24.328ZM175.425 21.784H169.601V22.6H175.425V21.784ZM174.033 16.664H175.969C176.054 16.664 176.118 16.6373 176.161 16.584C176.214 16.4987 176.294 16.392 176.401 16.264C176.508 16.136 176.582 16.04 176.625 15.976C176.678 15.9227 176.732 15.896 176.785 15.896C176.849 15.896 176.902 15.9173 176.945 15.96L177.377 16.392C177.409 16.264 177.441 16.1307 177.473 15.992C177.516 15.8533 177.553 15.7307 177.585 15.624H173.889C174.049 15.6667 174.204 15.7147 174.353 15.768C174.502 15.8107 174.614 15.848 174.689 15.88C174.774 15.9227 174.817 15.9867 174.817 16.072C174.817 16.2107 174.758 16.28 174.641 16.28C174.556 16.28 174.492 16.2907 174.449 16.312C174.417 16.3227 174.358 16.3707 174.273 16.456C174.241 16.488 174.204 16.52 174.161 16.552C174.129 16.584 174.086 16.6213 174.033 16.664ZM188.979 28.2C188.701 28.2 188.562 28.0667 188.562 27.8C188.562 27.7253 188.568 27.496 188.579 27.112C188.589 26.7387 188.6 26.3227 188.611 25.864H185.379C185.379 25.864 185.288 25.864 185.107 25.864C184.936 25.864 184.717 25.8693 184.451 25.88C184.184 25.8907 183.912 25.912 183.635 25.944L183.443 25.256C183.965 25.32 184.413 25.3573 184.786 25.368C185.171 25.3787 185.363 25.384 185.363 25.384H188.611C188.621 25.2347 188.627 25.0853 188.627 24.936C188.627 24.7867 188.627 24.6427 188.627 24.504V23.912H186.915V24.12C186.915 24.2267 186.835 24.3227 186.675 24.408C186.525 24.4933 186.333 24.5627 186.099 24.616C185.864 24.6587 185.629 24.68 185.395 24.68C185.128 24.68 184.995 24.552 184.995 24.296C184.995 24.2 185 24.0027 185.011 23.704C185.032 23.4053 185.048 23.0427 185.059 22.616C185.08 22.1893 185.091 21.7467 185.091 21.288C185.091 20.5947 185.08 20.0827 185.059 19.752C185.037 19.4107 185.011 19.192 184.979 19.096C184.968 19.032 184.979 18.984 185.011 18.952C185.043 18.92 185.091 18.9093 185.155 18.92C185.261 18.952 185.437 19.016 185.683 19.112C185.939 19.208 186.2 19.3147 186.467 19.432C186.733 19.5387 186.936 19.6293 187.075 19.704H188.627V18.36H186.435C186.435 18.36 186.344 18.36 186.163 18.36C185.992 18.36 185.768 18.3653 185.491 18.376C185.224 18.3867 184.952 18.408 184.674 18.44L184.483 17.752C185.016 17.816 185.469 17.8533 185.843 17.864C186.227 17.8747 186.419 17.88 186.419 17.88H188.627V17.736C188.627 17.4373 188.611 17.1973 188.579 17.016C188.557 16.8347 188.525 16.7067 188.483 16.632C188.44 16.536 188.435 16.4667 188.467 16.424C188.499 16.3707 188.557 16.344 188.642 16.344C188.792 16.344 189.011 16.36 189.299 16.392C189.597 16.424 189.891 16.4613 190.179 16.504C190.477 16.5467 190.696 16.584 190.835 16.616C190.952 16.6587 191.011 16.7387 191.011 16.856C191.011 17.0267 190.931 17.1227 190.771 17.144C190.653 17.1547 190.573 17.1867 190.531 17.24C190.499 17.2933 190.483 17.3733 190.483 17.48V17.88H192.307C192.488 17.88 192.611 17.8267 192.675 17.72L193.267 16.952C193.331 16.8773 193.395 16.84 193.459 16.84C193.512 16.84 193.56 16.856 193.603 16.888C193.731 16.9413 193.885 17.0427 194.067 17.192C194.259 17.3307 194.44 17.48 194.611 17.64C194.781 17.7893 194.904 17.912 194.979 18.008C195.021 18.0613 195.043 18.12 195.043 18.184C195.043 18.3013 194.989 18.36 194.883 18.36H190.483V19.704H191.971C192.088 19.704 192.179 19.656 192.243 19.56C192.275 19.5067 192.323 19.4267 192.387 19.32C192.451 19.2027 192.499 19.112 192.531 19.048C192.584 18.9627 192.648 18.92 192.723 18.92C192.744 18.92 192.765 18.9253 192.787 18.936C192.808 18.936 192.835 18.9413 192.867 18.952C193.016 18.9947 193.192 19.064 193.395 19.16C193.608 19.2453 193.816 19.3413 194.019 19.448C194.232 19.544 194.403 19.6293 194.531 19.704C194.648 19.768 194.707 19.8693 194.707 20.008C194.707 20.136 194.637 20.2373 194.499 20.312L194.371 20.36C194.189 20.4667 194.099 20.6747 194.099 20.984C194.099 21.2293 194.104 21.512 194.115 21.832C194.125 22.152 194.136 22.4613 194.147 22.76C194.168 23.0587 194.184 23.3147 194.195 23.528C194.205 23.7413 194.211 23.864 194.211 23.896C194.211 24.0133 194.131 24.1147 193.971 24.2C193.811 24.2853 193.613 24.3493 193.379 24.392C193.144 24.4347 192.909 24.456 192.675 24.456C192.397 24.456 192.259 24.328 192.259 24.072V23.912H190.483V25.384H192.947C193.128 25.384 193.256 25.3307 193.331 25.224C193.373 25.1707 193.437 25.0853 193.523 24.968C193.608 24.8507 193.693 24.7333 193.779 24.616C193.875 24.4987 193.939 24.4187 193.971 24.376C194.024 24.312 194.077 24.28 194.131 24.28C194.173 24.28 194.227 24.296 194.291 24.328C194.419 24.392 194.579 24.504 194.771 24.664C194.973 24.8133 195.165 24.968 195.347 25.128C195.528 25.288 195.656 25.416 195.731 25.512C195.773 25.5653 195.795 25.624 195.795 25.688C195.795 25.8053 195.741 25.864 195.635 25.864H190.499L190.531 27.624C190.531 27.7413 190.451 27.8427 190.291 27.928C190.131 28.0133 189.928 28.0773 189.683 28.12C189.448 28.1733 189.213 28.2 188.979 28.2ZM181.347 27.976H181.315C181.187 27.976 181.112 27.9067 181.09 27.768C181.336 27.416 181.544 27.0267 181.715 26.6C181.885 26.1627 182.029 25.6347 182.147 25.016C182.264 24.3867 182.349 23.624 182.403 22.728C182.456 21.832 182.483 20.744 182.483 19.464C182.483 18.2267 182.451 17.208 182.387 16.408C182.323 15.5973 182.264 15.1227 182.211 14.984C182.179 14.9093 182.189 14.856 182.243 14.824C182.285 14.7813 182.344 14.7707 182.419 14.792C182.568 14.8347 182.765 14.9093 183.011 15.016C183.267 15.1227 183.533 15.24 183.811 15.368C184.088 15.496 184.323 15.608 184.515 15.704H187.987V14.856C187.987 14.5787 187.976 14.3707 187.955 14.232C187.933 14.0933 187.901 13.992 187.859 13.928C187.827 13.864 187.821 13.8053 187.843 13.752C187.885 13.688 187.939 13.6613 188.003 13.672C188.109 13.672 188.275 13.6827 188.499 13.704C188.723 13.7253 188.963 13.752 189.219 13.784C189.475 13.816 189.715 13.8533 189.939 13.896C190.163 13.928 190.323 13.9547 190.419 13.976C190.525 14.008 190.579 14.0773 190.579 14.184C190.579 14.3547 190.509 14.4453 190.371 14.456C190.179 14.488 190.083 14.5893 190.083 14.76V15.704H192.627C192.744 15.704 192.829 15.6987 192.883 15.688C192.936 15.6667 192.995 15.6187 193.059 15.544C193.144 15.448 193.251 15.304 193.379 15.112C193.517 14.92 193.619 14.7867 193.683 14.712C193.757 14.6267 193.837 14.584 193.923 14.584C193.955 14.584 193.987 14.584 194.019 14.584C194.051 14.584 194.083 14.5947 194.115 14.616C194.275 14.68 194.461 14.7867 194.675 14.936C194.888 15.0747 195.091 15.2187 195.283 15.368C195.475 15.5173 195.619 15.64 195.715 15.736C195.779 15.8 195.811 15.8693 195.811 15.944C195.811 16.104 195.741 16.184 195.603 16.184H184.339V19.624C184.339 20.776 184.259 21.7893 184.099 22.664C183.939 23.528 183.72 24.2853 183.443 24.936C183.165 25.5867 182.845 26.1573 182.483 26.648C182.131 27.1387 181.752 27.5813 181.347 27.976ZM192.259 22.024H190.483V23.432H192.259V22.024ZM192.259 20.184H190.483V21.544H192.259V20.184ZM188.627 22.024H186.915V23.432H188.627V22.024ZM188.627 20.184H186.915V21.544H188.627V20.184ZM200.212 28.408C199.956 28.408 199.828 28.2853 199.828 28.04C199.828 27.9867 199.844 27.6987 199.876 27.176C199.908 26.6533 199.924 25.9067 199.924 24.936C199.924 23.976 199.892 23.4 199.828 23.208C199.817 23.176 199.817 23.144 199.828 23.112C199.721 23.1333 199.615 23.1493 199.508 23.16C199.412 23.1707 199.311 23.176 199.204 23.176C198.959 23.176 198.836 23.0587 198.836 22.824C198.836 22.792 198.841 22.6373 198.852 22.36C198.863 22.072 198.868 21.7307 198.868 21.336C198.879 20.9413 198.884 20.552 198.884 20.168C198.884 19.7733 198.879 19.4693 198.868 19.256C198.857 19.0427 198.841 18.8827 198.82 18.776C198.169 19.0853 197.54 19.336 196.932 19.528C196.793 19.4533 196.751 19.352 196.804 19.224C197.305 18.968 197.823 18.648 198.356 18.264C198.889 17.88 199.407 17.4533 199.908 16.984C200.409 16.5147 200.868 16.0293 201.284 15.528C201.711 15.016 202.057 14.5147 202.324 14.024C202.377 13.9173 202.42 13.816 202.452 13.72C202.495 13.624 202.537 13.528 202.58 13.432C202.623 13.3573 202.665 13.32 202.708 13.32C202.772 13.32 202.921 13.3573 203.156 13.432C203.391 13.496 203.657 13.576 203.956 13.672C204.255 13.7573 204.532 13.848 204.788 13.944C205.055 14.0293 205.252 14.0987 205.38 14.152C205.487 14.1947 205.513 14.2853 205.46 14.424C205.417 14.5307 205.348 14.5733 205.252 14.552H205.204C205.716 15.0533 206.367 15.4907 207.156 15.864C207.945 16.2267 208.793 16.5253 209.7 16.76C210.607 16.984 211.492 17.144 212.356 17.24C212.121 17.3467 211.892 17.528 211.668 17.784C211.455 18.0293 211.268 18.2907 211.108 18.568C210.948 18.8453 210.836 19.08 210.772 19.272C210.143 19.048 209.455 18.7227 208.708 18.296C207.961 17.8587 207.241 17.336 206.548 16.728C205.855 16.1093 205.268 15.4213 204.788 14.664L204.772 14.68C204.057 15.3733 203.209 16.0773 202.228 16.792C201.247 17.496 200.228 18.104 199.172 18.616C199.321 18.6587 199.503 18.7227 199.716 18.808C199.929 18.8933 200.137 18.9787 200.34 19.064C200.543 19.1387 200.697 19.208 200.804 19.272H207.876C207.993 19.272 208.079 19.224 208.132 19.128C208.153 19.0747 208.191 19 208.244 18.904C208.308 18.808 208.356 18.7333 208.388 18.68C208.431 18.6053 208.484 18.568 208.548 18.568C208.58 18.568 208.628 18.5787 208.692 18.6C208.82 18.6427 208.985 18.7067 209.188 18.792C209.391 18.8667 209.593 18.9467 209.796 19.032C209.999 19.1173 210.159 19.1973 210.276 19.272C210.383 19.3467 210.436 19.4373 210.436 19.544C210.436 19.6827 210.367 19.7733 210.228 19.816C210.196 19.8267 210.164 19.8427 210.132 19.864C210.1 19.8747 210.073 19.8907 210.052 19.912C209.924 19.9973 209.86 20.168 209.86 20.424C209.86 20.552 209.86 20.7227 209.86 20.936C209.871 21.1493 209.881 21.3733 209.892 21.608C209.903 21.8427 209.908 22.0453 209.908 22.216C209.919 22.3867 209.924 22.4987 209.924 22.552C209.924 22.6587 209.849 22.7493 209.7 22.824C209.551 22.8987 209.369 22.9573 209.156 23C208.943 23.0427 208.729 23.064 208.516 23.064C208.26 23.064 208.132 22.9467 208.132 22.712V22.632H200.628V22.664C200.628 22.7387 200.575 22.8133 200.468 22.888C200.361 22.952 200.233 23.0107 200.084 23.064C200.201 23.096 200.377 23.1547 200.612 23.24C200.847 23.3253 201.081 23.416 201.316 23.512C201.561 23.608 201.748 23.688 201.876 23.752H206.628C206.745 23.752 206.831 23.704 206.884 23.608C206.916 23.5547 206.959 23.48 207.012 23.384C207.076 23.288 207.124 23.208 207.156 23.144C207.199 23.0693 207.252 23.032 207.316 23.032C207.348 23.032 207.396 23.0427 207.46 23.064C207.599 23.1067 207.769 23.1707 207.972 23.256C208.175 23.3307 208.377 23.416 208.58 23.512C208.783 23.608 208.943 23.6933 209.06 23.768C209.167 23.832 209.22 23.9227 209.22 24.04C209.22 24.1787 209.151 24.2693 209.012 24.312C208.937 24.344 208.879 24.3813 208.836 24.424C208.761 24.4987 208.708 24.5893 208.676 24.696C208.655 24.792 208.644 24.904 208.644 25.032C208.644 25.4587 208.649 25.8693 208.66 26.264C208.681 26.6587 208.697 26.9893 208.708 27.256C208.719 27.5227 208.724 27.6827 208.724 27.736C208.724 27.8427 208.644 27.9333 208.484 28.008C208.324 28.0933 208.127 28.1573 207.892 28.2C207.668 28.2427 207.449 28.264 207.236 28.264C206.969 28.264 206.836 28.1467 206.836 27.912V27.576H201.7V27.88C201.7 27.9867 201.62 28.0773 201.46 28.152C201.3 28.2373 201.103 28.3013 200.868 28.344C200.644 28.3867 200.425 28.408 200.212 28.408ZM206.836 25.896H201.7V27.096H206.836V25.896ZM206.836 24.232H201.7V25.416H206.836V24.232ZM208.132 19.752H205.188V22.152H205.428C205.513 21.9813 205.604 21.72 205.7 21.368C205.807 21.016 205.892 20.6907 205.956 20.392C205.977 20.3173 205.993 20.248 206.004 20.184C206.015 20.1093 206.025 20.0453 206.036 19.992C206.057 19.8747 206.121 19.832 206.228 19.864C206.356 19.896 206.521 19.944 206.724 20.008C206.927 20.072 207.129 20.1413 207.332 20.216C207.545 20.28 207.721 20.3387 207.86 20.392C207.913 20.4133 207.94 20.456 207.94 20.52C207.94 20.68 207.871 20.76 207.732 20.76H207.652C207.556 20.76 207.455 20.8133 207.348 20.92C207.167 21.0907 206.937 21.2933 206.66 21.528C206.383 21.7627 206.111 21.9707 205.844 22.152H208.132V19.752ZM203.476 19.752H200.628V22.152H202.1C201.951 22.0773 201.86 21.9547 201.828 21.784C201.689 21.1867 201.375 20.632 200.884 20.12V20.088C200.884 19.9493 200.953 19.88 201.092 19.88C201.647 19.9867 202.111 20.1573 202.484 20.392C202.868 20.616 203.06 20.9467 203.06 21.384C203.06 21.5867 203.012 21.752 202.916 21.88C202.831 22.008 202.724 22.0987 202.596 22.152H203.476V19.752ZM201.524 18.2L201.348 17.592C201.764 17.6347 202.116 17.6613 202.404 17.672C202.703 17.672 202.852 17.672 202.852 17.672H205.076C205.225 17.672 205.337 17.6187 205.412 17.512L205.876 16.856C205.929 16.792 205.988 16.76 206.052 16.76C206.105 16.76 206.148 16.7707 206.18 16.792C206.276 16.856 206.399 16.952 206.548 17.08C206.708 17.208 206.857 17.3413 206.996 17.48C207.135 17.6187 207.236 17.736 207.3 17.832C207.343 17.8747 207.364 17.928 207.364 17.992C207.364 18.0987 207.316 18.152 207.22 18.152H202.852C202.852 18.152 202.713 18.1573 202.436 18.168C202.169 18.168 201.865 18.1787 201.524 18.2ZM215.174 25.688C214.886 25.688 214.742 25.5547 214.742 25.288C214.742 25.2027 214.752 24.9307 214.774 24.472C214.795 24.0133 214.816 23.432 214.838 22.728C214.87 22.024 214.886 21.2667 214.886 20.456C214.886 19.7733 214.875 19.2613 214.854 18.92C214.832 18.568 214.795 18.3227 214.742 18.184C214.731 18.12 214.747 18.0667 214.789 18.024C214.843 17.992 214.896 17.9813 214.95 17.992C215.238 18.056 215.59 18.152 216.006 18.28C216.432 18.408 216.784 18.5307 217.062 18.648H223.558C223.654 18.648 223.728 18.6053 223.782 18.52C223.814 18.4667 223.862 18.3867 223.926 18.28C223.99 18.1627 224.043 18.0667 224.086 17.992C224.16 17.8853 224.256 17.8587 224.374 17.912C224.523 17.9547 224.726 18.0293 224.982 18.136C225.238 18.232 225.488 18.3333 225.734 18.44C225.99 18.5467 226.192 18.648 226.342 18.744C226.406 18.7867 226.438 18.856 226.438 18.952C226.438 19.0693 226.395 19.1547 226.31 19.208C226.278 19.2293 226.246 19.2507 226.214 19.272C226.182 19.2827 226.155 19.2987 226.134 19.32C225.942 19.4587 225.846 19.6507 225.846 19.896V20.552C225.856 21.1813 225.872 21.7893 225.894 22.376C225.915 22.9627 225.936 23.4587 225.958 23.864C225.979 24.2587 225.99 24.4987 225.99 24.584C225.99 24.7013 225.894 24.808 225.702 24.904C225.52 25 225.296 25.0747 225.03 25.128C224.763 25.1707 224.507 25.192 224.262 25.192C223.974 25.192 223.83 25.0587 223.83 24.792V24.712H216.886V25.112C216.886 25.2293 216.795 25.3307 216.614 25.416C216.432 25.5013 216.208 25.5707 215.942 25.624C215.675 25.6667 215.419 25.688 215.174 25.688ZM215.734 18.024C215.456 18.024 215.318 17.896 215.318 17.64C215.318 17.576 215.323 17.4213 215.334 17.176C215.355 16.9307 215.371 16.648 215.382 16.328C215.392 15.9973 215.398 15.6987 215.398 15.432C215.398 15.0267 215.387 14.712 215.366 14.488C215.355 14.2533 215.334 14.072 215.302 13.944C215.28 13.8693 215.296 13.816 215.35 13.784C215.392 13.7413 215.446 13.7307 215.51 13.752C215.659 13.784 215.867 13.8427 216.134 13.928C216.411 14.0133 216.683 14.104 216.95 14.2C217.227 14.296 217.446 14.3867 217.606 14.472H223.046C223.142 14.472 223.211 14.4293 223.254 14.344C223.286 14.2907 223.334 14.216 223.398 14.12C223.462 14.0133 223.515 13.9227 223.558 13.848C223.622 13.7413 223.718 13.7093 223.846 13.752C223.995 13.7947 224.192 13.8693 224.438 13.976C224.683 14.072 224.928 14.1733 225.174 14.28C225.419 14.3867 225.611 14.4827 225.75 14.568C225.824 14.6107 225.862 14.68 225.862 14.776C225.862 14.8827 225.814 14.9627 225.718 15.016C225.686 15.0267 225.654 15.0427 225.622 15.064C225.6 15.0747 225.579 15.0907 225.558 15.112C225.366 15.2507 225.27 15.4427 225.27 15.688C225.27 15.816 225.275 15.9973 225.286 16.232C225.307 16.456 225.323 16.6693 225.334 16.872C225.355 17.0747 225.366 17.2027 225.366 17.256C225.366 17.3733 225.275 17.4747 225.094 17.56C224.912 17.6453 224.688 17.7147 224.422 17.768C224.166 17.8107 223.915 17.832 223.67 17.832C223.382 17.832 223.238 17.6987 223.238 17.432V17.304H217.398V17.448C217.398 17.5653 217.307 17.6667 217.126 17.752C216.944 17.8373 216.726 17.9067 216.47 17.96C216.214 18.0027 215.968 18.024 215.734 18.024ZM223.238 14.952H217.398V16.824H223.238V14.952ZM223.83 22.808H216.886V24.232H223.83V22.808ZM223.83 20.968H216.886V22.328H223.83V20.968ZM223.83 19.128H216.886V20.488H223.83V19.128ZM225.654 27.96C225.227 27.5973 224.72 27.2507 224.134 26.92C223.558 26.5893 222.966 26.2907 222.358 26.024C221.76 25.7573 221.211 25.5493 220.71 25.4C220.688 25.368 220.678 25.3253 220.678 25.272C220.678 25.1867 220.715 25.1227 220.79 25.08C221.28 25.08 221.819 25.0907 222.406 25.112C222.992 25.1333 223.574 25.1813 224.15 25.256C224.726 25.3307 225.243 25.448 225.702 25.608C226.171 25.7573 226.528 25.9707 226.774 26.248C226.902 26.3867 226.992 26.5307 227.046 26.68C227.099 26.8187 227.126 26.9627 227.126 27.112C227.126 27.464 227.008 27.7467 226.774 27.96C226.592 28.12 226.411 28.2 226.23 28.2C226.038 28.2 225.846 28.12 225.654 27.96ZM213.286 28.184C213.222 28.1413 213.184 28.088 213.174 28.024C213.163 27.96 213.174 27.9067 213.206 27.864C213.654 27.704 214.134 27.4747 214.646 27.176C215.168 26.888 215.664 26.568 216.134 26.216C216.614 25.8533 217.003 25.5013 217.302 25.16C217.355 25.096 217.403 25.0373 217.446 24.984C217.488 24.92 217.531 24.8613 217.574 24.808C217.606 24.7547 217.648 24.728 217.702 24.728L217.83 24.76C217.968 24.8133 218.182 24.9093 218.47 25.048C218.768 25.1867 219.062 25.3307 219.35 25.48C219.648 25.6293 219.867 25.7467 220.006 25.832C220.08 25.8747 220.118 25.9387 220.118 26.024C220.118 26.0773 220.096 26.1307 220.054 26.184C220.022 26.2267 219.979 26.248 219.926 26.248C219.904 26.248 219.878 26.248 219.846 26.248C219.739 26.248 219.638 26.2533 219.542 26.264C219.456 26.2747 219.355 26.3067 219.238 26.36C218.64 26.648 217.99 26.9093 217.286 27.144C216.592 27.3787 215.899 27.5813 215.206 27.752C214.523 27.9333 213.883 28.0773 213.286 28.184Z" fill="white"/>
<path d="M238 34.5V19L250.5 27L245 28L248 33.5L245 35.5L242 30L238 34.5Z" stroke="white" stroke-width="2"/>
</g>
<defs>
<filter id="filter0_d_189_1657" x="0" y="0" width="308" height="48" filterUnits="userSpaceOnUse" color-interpolation-filters="sRGB">
<feFlood flood-opacity="0" result="BackgroundImageFix"/>
<feColorMatrix in="SourceAlpha" type="matrix" values="0 0 0 0 0 0 0 0 0 0 0 0 0 0 0 0 0 0 127 0" result="hardAlpha"/>
<feOffset dy="4"/>
<feGaussianBlur stdDeviation="2"/>
<feComposite in2="hardAlpha" operator="out"/>
<feColorMatrix type="matrix" values="0 0 0 0 0 0 0 0 0 0 0 0 0 0 0 0 0 0 0.25 0"/>
<feBlend mode="normal" in2="BackgroundImageFix" result="effect1_dropShadow_189_1657"/>
<feBlend mode="normal" in="SourceGraphic" in2="effect1_dropShadow_189_1657" result="shape"/>
</filter>
<linearGradient id="paint0_linear_189_1657" x1="4" y1="20" x2="304" y2="20" gradientUnits="userSpaceOnUse">
<stop stop-color="#004B97"/>
<stop offset="0.735577" stop-color="#24B685"/>
</linearGradient>
</defs>
</svg>
