<svg width="100" height="100" viewBox="0 0 100 100" fill="none" xmlns="http://www.w3.org/2000/svg">
<circle cx="50" cy="50" r="50" fill="#FBFBFB"/>
<ellipse cx="50" cy="41.2581" rx="28" ry="28.2581" fill="#4D81B7" fill-opacity="0.8"/>
<rect x="48.88" y="67.1613" width="4.48" height="16.4839" fill="#719AC5"/>
<ellipse cx="50" cy="83.6452" rx="19.04" ry="2.35484" fill="#719AC5"/>
<path d="M53.463 44.3603C53.3891 44.32 53.3015 44.39 53.3175 44.4734C55.6529 56.5942 59.4853 58.9092 71.027 54.1479C71.1051 54.1156 71.1164 54.0054 71.0432 53.9654L53.463 44.3603Z" fill="white" stroke="white"/>
<path d="M46.0006 43.1611C46.0676 43.1141 46.0467 43.007 45.9678 42.9812C34.7379 39.2985 30.9619 41.7134 29.3757 54.6346C29.365 54.7213 29.4608 54.7862 29.531 54.7368L46.0006 43.1611Z" fill="white" stroke="white"/>
<path d="M50.3012 39.0524C50.3077 39.1381 50.4084 39.1746 50.4678 39.1154C59.0007 30.6022 58.8346 25.9589 48.8734 18.2032C48.8063 18.1509 48.7084 18.2036 48.7151 18.2912L50.3012 39.0524Z" fill="white" stroke="white"/>
<circle cx="50.5" cy="42.5" r="4.5" fill="white"/>
</svg>
