<svg width="102" height="103" viewBox="0 0 102 103" fill="none" xmlns="http://www.w3.org/2000/svg">
<rect width="102" height="103" fill="white"/>
<rect x="16" y="13" width="69" height="69" rx="5" fill="white"/>
<circle cx="52" cy="52" r="50" fill="#FBFBFB"/>
<rect x="61" y="22" width="23" height="40" rx="1" fill="url(#paint0_linear_10_300)" fill-opacity="0.8"/>
<rect x="61" y="64" width="23" height="18" rx="2" fill="url(#paint1_linear_10_300)" fill-opacity="0.702167"/>
<rect x="63" y="24" width="19" height="36" fill="white"/>
<rect x="68" y="25" width="8" height="2" rx="1" fill="#6092BD" fill-opacity="0.5"/>
<circle cx="74.5" cy="26" r="0.5" fill="white"/>
<line x1="61" y1="69.5" x2="84" y2="69.5" stroke="white"/>
<rect x="21" y="22" width="38" height="60" rx="1" fill="url(#paint2_linear_10_300)" fill-opacity="0.8"/>
<rect x="23" y="24.5" width="34" height="50" fill="white"/>
<circle cx="40" cy="78" r="2.5" fill="#6092BD" fill-opacity="0.5"/>
<path d="M42 78C42 79.1046 41.1046 80 40 80C38.8954 80 38 79.1046 38 78C38 76.8954 38.8954 76 40 76C41.1046 76 42 76.8954 42 78Z" fill="white"/>
<rect x="16" y="30" width="2" height="49" rx="1" fill="#24B685" fill-opacity="0.31"/>
<path d="M17 28L18.0392 31H15.9608L17 28Z" fill="#24B685" fill-opacity="0.6"/>
<rect x="16.9" y="28" width="0.2" height="0.4" rx="0.1" fill="white"/>
<defs>
<linearGradient id="paint0_linear_10_300" x1="72.5" y1="62" x2="72.5" y2="22" gradientUnits="userSpaceOnUse">
<stop stop-color="#24B685" stop-opacity="0.6"/>
<stop offset="0.177885" stop-color="#1EA388" stop-opacity="0.582212"/>
<stop offset="0.307692" stop-color="#19958B" stop-opacity="0.569231"/>
<stop offset="0.408654" stop-color="#158A8C" stop-opacity="0.559135"/>
<stop offset="0.514423" stop-color="#117F8E" stop-opacity="0.548558"/>
<stop offset="0.581731" stop-color="#0C6F91" stop-opacity="0.533654"/>
<stop offset="0.663462" stop-color="#0C6F91" stop-opacity="0.533654"/>
<stop offset="1" stop-color="#004B97" stop-opacity="0.5"/>
</linearGradient>
<linearGradient id="paint1_linear_10_300" x1="72.5" y1="64" x2="72.5" y2="82" gradientUnits="userSpaceOnUse">
<stop stop-color="#127F8E" stop-opacity="0.4"/>
<stop offset="1" stop-color="#004B97" stop-opacity="0.7"/>
</linearGradient>
<linearGradient id="paint2_linear_10_300" x1="40" y1="22" x2="40" y2="82" gradientUnits="userSpaceOnUse">
<stop stop-color="#24B685" stop-opacity="0.6"/>
<stop offset="1" stop-color="#009497" stop-opacity="0.4"/>
</linearGradient>
</defs>
</svg>
