<svg width="100" height="100" viewBox="0 0 100 100" fill="none" xmlns="http://www.w3.org/2000/svg">
<circle cx="50" cy="50" r="50" fill="#FBFBFB"/>
<path d="M31.1562 47.9062V49.3438C31.1562 51.0521 30.9427 52.5833 30.5156 53.9375C30.0885 55.2917 29.474 56.4427 28.6719 57.3906C27.8698 58.3385 26.9062 59.0625 25.7812 59.5625C24.6667 60.0625 23.4167 60.3125 22.0312 60.3125C20.6875 60.3125 19.4531 60.0625 18.3281 59.5625C17.2135 59.0625 16.2448 58.3385 15.4219 57.3906C14.6094 56.4427 13.9792 55.2917 13.5312 53.9375C13.0833 52.5833 12.8594 51.0521 12.8594 49.3438V47.9062C12.8594 46.1979 13.0781 44.6719 13.5156 43.3281C13.9635 41.974 14.5938 40.8229 15.4062 39.875C16.2188 38.9167 17.1823 38.1875 18.2969 37.6875C19.4219 37.1875 20.6562 36.9375 22 36.9375C23.3854 36.9375 24.6354 37.1875 25.75 37.6875C26.875 38.1875 27.8385 38.9167 28.6406 39.875C29.4531 40.8229 30.0729 41.974 30.5 43.3281C30.9375 44.6719 31.1562 46.1979 31.1562 47.9062ZM28.1719 49.3438V47.875C28.1719 46.5208 28.0312 45.3229 27.75 44.2812C27.4792 43.2396 27.0781 42.3646 26.5469 41.6562C26.0156 40.9479 25.3646 40.4115 24.5938 40.0469C23.8333 39.6823 22.9688 39.5 22 39.5C21.0625 39.5 20.2135 39.6823 19.4531 40.0469C18.7031 40.4115 18.0573 40.9479 17.5156 41.6562C16.9844 42.3646 16.5729 43.2396 16.2812 44.2812C15.9896 45.3229 15.8438 46.5208 15.8438 47.875V49.3438C15.8438 50.7083 15.9896 51.9167 16.2812 52.9688C16.5729 54.0104 16.9896 54.8906 17.5312 55.6094C18.0833 56.3177 18.7344 56.8542 19.4844 57.2188C20.2448 57.5833 21.0938 57.7656 22.0312 57.7656C23.0104 57.7656 23.8802 57.5833 24.6406 57.2188C25.401 56.8542 26.0417 56.3177 26.5625 55.6094C27.0938 54.8906 27.4948 54.0104 27.7656 52.9688C28.0365 51.9167 28.1719 50.7083 28.1719 49.3438ZM42.3125 43.0938V45.3125H33.1719V43.0938H42.3125ZM36.2656 38.9844H39.1562V55.8125C39.1562 56.3854 39.2448 56.8177 39.4219 57.1094C39.599 57.401 39.8281 57.5938 40.1094 57.6875C40.3906 57.7812 40.6927 57.8281 41.0156 57.8281C41.2552 57.8281 41.5052 57.8073 41.7656 57.7656C42.0365 57.7135 42.2396 57.6719 42.375 57.6406L42.3906 60C42.1615 60.0729 41.8594 60.1406 41.4844 60.2031C41.1198 60.276 40.6771 60.3125 40.1562 60.3125C39.4479 60.3125 38.7969 60.1719 38.2031 59.8906C37.6094 59.6094 37.1354 59.1406 36.7812 58.4844C36.4375 57.8177 36.2656 56.9219 36.2656 55.7969V38.9844ZM48.5938 36V60H45.7031V36H48.5938ZM47.9062 50.9062L46.7031 50.8594C46.7135 49.7031 46.8854 48.6354 47.2188 47.6562C47.5521 46.6667 48.0208 45.8073 48.625 45.0781C49.2292 44.349 49.9479 43.7865 50.7812 43.3906C51.625 42.9844 52.5573 42.7812 53.5781 42.7812C54.4115 42.7812 55.1615 42.8958 55.8281 43.125C56.4948 43.3438 57.0625 43.6979 57.5312 44.1875C58.0104 44.6771 58.375 45.3125 58.625 46.0938C58.875 46.8646 59 47.8073 59 48.9219V60H56.0938V48.8906C56.0938 48.0052 55.9635 47.2969 55.7031 46.7656C55.4427 46.224 55.0625 45.8333 54.5625 45.5938C54.0625 45.3438 53.4479 45.2188 52.7188 45.2188C52 45.2188 51.3438 45.3698 50.75 45.6719C50.1667 45.974 49.6615 46.3906 49.2344 46.9219C48.8177 47.4531 48.4896 48.0625 48.25 48.75C48.0208 49.4271 47.9062 50.1458 47.9062 50.9062ZM70.3438 60.3125C69.1667 60.3125 68.099 60.1146 67.1406 59.7188C66.1927 59.3125 65.375 58.7448 64.6875 58.0156C64.0104 57.2865 63.4896 56.4219 63.125 55.4219C62.7604 54.4219 62.5781 53.3281 62.5781 52.1406V51.4844C62.5781 50.1094 62.7812 48.8854 63.1875 47.8125C63.5938 46.7292 64.1458 45.8125 64.8438 45.0625C65.5417 44.3125 66.3333 43.7448 67.2188 43.3594C68.1042 42.974 69.0208 42.7812 69.9688 42.7812C71.1771 42.7812 72.2188 42.9896 73.0938 43.4062C73.9792 43.8229 74.7031 44.4062 75.2656 45.1562C75.8281 45.8958 76.2448 46.7708 76.5156 47.7812C76.7865 48.7812 76.9219 49.875 76.9219 51.0625V52.3594H64.2969V50H74.0312V49.7812C73.9896 49.0312 73.8333 48.3021 73.5625 47.5938C73.3021 46.8854 72.8854 46.3021 72.3125 45.8438C71.7396 45.3854 70.9583 45.1562 69.9688 45.1562C69.3125 45.1562 68.7083 45.2969 68.1562 45.5781C67.6042 45.849 67.1302 46.2552 66.7344 46.7969C66.3385 47.3385 66.0312 48 65.8125 48.7812C65.5938 49.5625 65.4844 50.4635 65.4844 51.4844V52.1406C65.4844 52.9427 65.5938 53.6979 65.8125 54.4062C66.0417 55.1042 66.3698 55.7188 66.7969 56.25C67.2344 56.7812 67.7604 57.1979 68.375 57.5C69 57.8021 69.7083 57.9531 70.5 57.9531C71.5208 57.9531 72.3854 57.7448 73.0938 57.3281C73.8021 56.9115 74.4219 56.3542 74.9531 55.6562L76.7031 57.0469C76.3385 57.599 75.875 58.125 75.3125 58.625C74.75 59.125 74.0573 59.5312 73.2344 59.8438C72.4219 60.1562 71.4583 60.3125 70.3438 60.3125ZM83.1875 45.75V60H80.2969V43.0938H83.1094L83.1875 45.75ZM88.4688 43L88.4531 45.6875C88.2135 45.6354 87.9844 45.6042 87.7656 45.5938C87.5573 45.5729 87.3177 45.5625 87.0469 45.5625C86.3802 45.5625 85.7917 45.6667 85.2812 45.875C84.7708 46.0833 84.3385 46.375 83.9844 46.75C83.6302 47.125 83.349 47.5729 83.1406 48.0938C82.9427 48.6042 82.8125 49.1667 82.75 49.7812L81.9375 50.25C81.9375 49.2292 82.0365 48.2708 82.2344 47.375C82.4427 46.4792 82.7604 45.6875 83.1875 45C83.6146 44.3021 84.1562 43.7604 84.8125 43.375C85.4792 42.9792 86.2708 42.7812 87.1875 42.7812C87.3958 42.7812 87.6354 42.8073 87.9062 42.8594C88.1771 42.901 88.3646 42.9479 88.4688 43Z" fill="#719AC5"/>
</svg>
