<svg width="100" height="100" viewBox="0 0 100 100" fill="none" xmlns="http://www.w3.org/2000/svg">
<circle cx="50" cy="50" r="50" fill="#FBFBFB"/>
<rect width="71.5662" height="17.0357" transform="matrix(0.558721 0.829356 -0.814388 0.580321 34.4119 16.82)" fill="#719AC5"/>
<rect width="8.52168" height="2.23553" transform="matrix(0.80463 -0.593777 0.571166 0.820835 31.182 27.8018)" fill="white"/>
<rect width="8.52168" height="2.23553" transform="matrix(0.80463 -0.593777 0.571166 0.820835 62.052 73.7171)" fill="white"/>
<rect width="8.52168" height="2.23553" transform="matrix(0.80463 -0.593777 0.571166 0.820835 56.907 66.0646)" fill="white"/>
<rect width="8.52168" height="2.23553" transform="matrix(0.80463 -0.593777 0.571166 0.820835 51.762 58.412)" fill="white"/>
<rect width="8.52168" height="2.23553" transform="matrix(0.80463 -0.593777 0.571166 0.820835 46.6169 50.7594)" fill="white"/>
<rect width="8.52168" height="2.23553" transform="matrix(0.80463 -0.593777 0.571166 0.820835 41.4719 43.1069)" fill="white"/>
<rect width="8.52168" height="2.23553" transform="matrix(0.80463 -0.593777 0.571166 0.820835 36.327 35.4543)" fill="white"/>
</svg>
