<svg width="100" height="100" viewBox="0 0 100 100" fill="none" xmlns="http://www.w3.org/2000/svg">
<circle cx="50" cy="50" r="50" fill="#FBFBFB"/>
<path d="M51.627 77.38C55.461 77.38 58.539 76.408 60.861 74.464C63.183 72.52 64.344 69.739 64.344 66.121C64.344 63.097 63.426 60.586 61.59 58.588C59.808 56.59 56.676 54.997 52.194 53.809L47.901 52.675C43.473 51.487 40.152 49.597 37.938 47.005C35.778 44.359 34.698 41.2 34.698 37.528C34.698 35.044 35.265 32.722 36.399 30.562C37.587 28.348 39.396 26.566 41.826 25.216C44.256 23.812 47.388 23.11 51.222 23.11C55.488 23.11 58.917 23.92 61.509 25.54C64.101 27.106 65.883 29.158 66.855 31.696C67.881 34.234 68.124 36.961 67.584 39.877L62.481 41.173C63.075 36.151 62.481 32.29 60.699 29.59C58.917 26.836 55.785 25.459 51.303 25.459C47.685 25.459 44.823 26.404 42.717 28.294C40.611 30.13 39.558 32.803 39.558 36.313C39.558 39.067 40.341 41.389 41.907 43.279C43.473 45.115 46.389 46.6 50.655 47.734L54.948 48.868C59.646 50.11 63.183 52.108 65.559 54.862C67.989 57.562 69.204 60.91 69.204 64.906C69.204 67.66 68.556 70.171 67.26 72.439C66.018 74.653 64.101 76.435 61.509 77.785C58.917 79.135 55.623 79.81 51.627 79.81C48.927 79.81 46.335 79.405 43.851 78.595C41.367 77.731 39.207 76.219 37.371 74.059C35.589 71.899 34.374 68.875 33.726 64.987L38.181 63.529C38.505 67.147 39.315 69.982 40.611 72.034C41.961 74.032 43.608 75.436 45.552 76.246C47.496 77.002 49.521 77.38 51.627 77.38Z" fill="#719AC5"/>
<rect x="61" y="34" width="9" height="17" rx="4.5" fill="#D9D9D9"/>
<rect x="33" y="55" width="9" height="17" rx="4.5" fill="#D9D9D9"/>
</svg>
