<svg width="100" height="60" viewBox="0 0 100 60" fill="none" xmlns="http://www.w3.org/2000/svg">
<rect x="3.77358" y="10.638" width="94" height="42" rx="20" fill="url(#paint0_linear_135_217)" fill-opacity="0.7"/>
<path d="M43.2251 18.552V18.12H46.2811V18.552L45.4011 18.632C45.2304 18.6533 45.1291 18.7013 45.0971 18.776C45.0651 18.84 45.0491 19.0533 45.0491 19.416V29H44.2651L38.4411 19.176V27.704C38.4411 28.0667 38.4571 28.2853 38.4891 28.36C38.5211 28.424 38.6224 28.4667 38.7931 28.488L39.6731 28.584V29H36.6171V28.584L37.4971 28.488C37.6677 28.4667 37.7691 28.424 37.8011 28.36C37.8331 28.2853 37.8491 28.0667 37.8491 27.704V19.416C37.8491 19.0533 37.8331 18.84 37.8011 18.776C37.7691 18.7013 37.6677 18.6533 37.4971 18.632L36.6171 18.552V18.12H39.3851L44.4571 26.696V19.416C44.4571 19.0533 44.4411 18.84 44.4091 18.776C44.3771 18.7013 44.2757 18.6533 44.1051 18.632L43.2251 18.552ZM54.0063 27.176C53.8143 27.9013 53.4516 28.4133 52.9183 28.712C52.3956 29.0107 51.8143 29.16 51.1743 29.16C49.9903 29.16 49.105 28.8027 48.5183 28.088C47.9316 27.3627 47.6383 26.3973 47.6383 25.192V24.872C47.6383 23.6773 47.921 22.7227 48.4863 22.008C49.0516 21.2827 49.873 20.92 50.9503 20.92C51.5263 20.92 52.049 21.0373 52.5183 21.272C52.9983 21.5067 53.377 21.8533 53.6543 22.312C53.9423 22.7707 54.0863 23.3413 54.0863 24.024C54.0863 24.344 54.0543 24.68 53.9903 25.032H49.0783V25.512C49.0783 26.632 49.249 27.4373 49.5903 27.928C49.9423 28.408 50.5076 28.648 51.2863 28.648C51.777 28.648 52.1823 28.52 52.5023 28.264C52.833 28.008 53.0516 27.5653 53.1583 26.936L54.0063 27.176ZM50.9503 21.432C50.321 21.432 49.8516 21.672 49.5423 22.152C49.233 22.632 49.0783 23.4213 49.0783 24.52H52.6783V24.472C52.6996 24.3333 52.7156 24.2 52.7263 24.072C52.737 23.9333 52.7423 23.8107 52.7423 23.704C52.7423 22.904 52.577 22.328 52.2463 21.976C51.9156 21.6133 51.4836 21.432 50.9503 21.432ZM65.9996 22.28L64.2076 29H63.1676L61.0716 22.392L58.9756 29H57.9836L56.2076 22.28C56.1329 21.9707 56.0689 21.784 56.0156 21.72C55.9729 21.656 55.8662 21.6133 55.6956 21.592L54.8796 21.512V21.08H58.5116V21.512L57.6796 21.592C57.5089 21.6133 57.4129 21.656 57.3916 21.72C57.3809 21.784 57.4182 21.9707 57.5036 22.28L58.8796 27.56L60.9116 21.08H61.9516L64.0156 27.656L65.4076 22.28C65.4929 21.9707 65.5249 21.784 65.5036 21.72C65.4929 21.656 65.4022 21.6133 65.2316 21.592L64.3996 21.512V21.08H67.3276V21.512L66.5116 21.592C66.3516 21.6133 66.2449 21.656 66.1916 21.72C66.1489 21.784 66.0849 21.9707 65.9996 22.28Z" fill="black"/>
<path d="M77.5196 3.19255L76.3294 9.65748L80.0276 13.7311L75.0603 12.7741L71.537 17.8846L72.7272 11.4196L69.029 7.34602L73.9963 8.303L77.5196 3.19255Z" fill="#FFD900"/>
<path d="M6.90986 16.0001L10.273 21.938L16.2279 21.4495L11.2947 25.4618L11.7263 32.6116L8.36314 26.6737L2.40822 27.1622L7.34142 23.1499L6.90986 16.0001Z" fill="#FFD900"/>
<path d="M92.7902 38.2959L90.3375 45.5498L94.9456 52.7126L88.1931 48.6416L82.6815 52.8708L85.1342 45.6169L80.5261 38.4542L87.2786 42.5251L92.7902 38.2959Z" fill="#FFD900"/>
<path d="M30.2627 44.8594C30.6481 44.6406 31.0283 44.3281 31.4033 43.9219C31.7887 43.5052 32.1116 43.0781 32.3721 42.6406C32.2783 42.474 32.1793 42.2656 32.0752 42.0156C31.971 41.7552 31.8668 41.474 31.7627 41.1719C31.6585 40.8802 31.5596 40.5781 31.4658 40.2656C31.3825 39.9427 31.3252 39.6406 31.2939 39.3594L30.5596 39.4375L30.2939 38.6562L31.1689 38.7344H34.1846L34.3877 38.2344C34.4189 38.1823 34.4606 38.1562 34.5127 38.1562C34.5752 38.1458 34.6429 38.1562 34.7158 38.1875C34.7679 38.2292 34.8356 38.2917 34.9189 38.375C35.0127 38.4479 35.1325 38.5417 35.2783 38.6562C35.4866 38.8438 35.6221 39 35.6846 39.125C35.7471 39.25 35.7679 39.3542 35.7471 39.4375C35.7158 39.5104 35.6585 39.5781 35.5752 39.6406C35.4918 39.7031 35.4085 39.7656 35.3252 39.8281C35.221 40.026 35.1064 40.25 34.9814 40.5C34.8564 40.7396 34.721 40.9792 34.5752 41.2188C34.4293 41.4792 34.2835 41.7292 34.1377 41.9688C34.0023 42.1979 33.8721 42.3906 33.7471 42.5469C33.9346 42.776 34.1429 42.9896 34.3721 43.1875C34.6012 43.375 34.8252 43.5417 35.0439 43.6875C35.2627 43.8333 35.4606 43.9531 35.6377 44.0469C35.8148 44.1406 35.9554 44.1875 36.0596 44.1875C36.1637 44.2083 36.2418 44.224 36.2939 44.2344C36.346 44.2448 36.3616 44.2708 36.3408 44.3125C36.32 44.3646 36.2575 44.4375 36.1533 44.5312C36.0596 44.625 35.9241 44.75 35.7471 44.9062C35.6221 45.0312 35.5231 45.1302 35.4502 45.2031C35.3773 45.2865 35.3096 45.3438 35.2471 45.375C35.1741 45.4062 35.1064 45.4167 35.0439 45.4062C34.9814 45.4062 34.9085 45.3854 34.8252 45.3438C34.7627 45.3229 34.6637 45.2552 34.5283 45.1406C34.3929 45.0365 34.2366 44.901 34.0596 44.7344C33.8825 44.5677 33.7002 44.375 33.5127 44.1562C33.3356 43.9375 33.1533 43.7031 32.9658 43.4531C32.6221 43.8906 32.195 44.2917 31.6846 44.6562C31.1741 45.0208 30.7106 45.2708 30.2939 45.4062C30.1898 45.4375 30.1064 45.3854 30.0439 45.25C29.9918 45.1146 30.0648 44.9844 30.2627 44.8594ZM34.0127 39.3594H32.1064C32.1898 39.8177 32.3148 40.2708 32.4814 40.7188C32.6585 41.1667 32.8356 41.4948 33.0127 41.7031C33.2418 41.3281 33.4398 40.9219 33.6064 40.4844C33.7835 40.0469 33.9189 39.6719 34.0127 39.3594ZM28.9033 42.9688V41.7188H26.8721V43.2812L28.9033 42.9688ZM28.9033 41.1094V39.7188H26.8721V41.1094H28.9033ZM25.6377 37.7344C25.5648 37.7344 25.471 37.7396 25.3564 37.75C25.2418 37.7604 25.1325 37.7656 25.0283 37.7656C24.9241 37.776 24.8304 37.7865 24.7471 37.7969C24.6637 37.7969 24.6168 37.7969 24.6064 37.7969L24.2471 36.9844C24.2679 36.9844 24.3252 36.9948 24.4189 37.0156C24.5127 37.026 24.6221 37.0365 24.7471 37.0469C24.8616 37.0677 24.9866 37.0833 25.1221 37.0938C25.2679 37.1042 25.3981 37.1094 25.5127 37.1094H34.2471L34.6064 36.5C34.6898 36.3646 34.8356 36.3177 35.0439 36.3594C35.2627 36.401 35.6325 36.625 36.1533 37.0312C36.4241 37.2604 36.5491 37.4375 36.5283 37.5625C36.5075 37.6771 36.346 37.7344 36.0439 37.7344H30.1846V44.5625C30.1846 44.8021 30.1168 44.9896 29.9814 45.125C29.846 45.2708 29.7002 45.3646 29.5439 45.4062C29.3773 45.4479 29.2262 45.4271 29.0908 45.3438C28.9658 45.2708 28.9033 45.1302 28.9033 44.9219V43.5781C28.6325 43.6719 28.3408 43.776 28.0283 43.8906C27.7158 43.9948 27.4085 44.099 27.1064 44.2031C26.8043 44.3177 26.5127 44.4271 26.2314 44.5312C25.9502 44.6458 25.721 44.7448 25.5439 44.8281C25.3877 45.0469 25.2418 45.1042 25.1064 45C24.9814 44.9062 24.8773 44.7604 24.7939 44.5625C24.721 44.3646 24.6637 44.1667 24.6221 43.9688C24.5804 43.7604 24.5596 43.6406 24.5596 43.6094L25.6377 43.4531V37.7344ZM28.9033 37.7344H26.8721V39.1094H28.9033V37.7344ZM34.3564 35.9688C34.3564 36.1354 34.2887 36.2708 34.1533 36.375C34.0179 36.4792 33.8668 36.5417 33.7002 36.5625C33.5335 36.5938 33.3825 36.5677 33.2471 36.4844C33.1116 36.401 33.0439 36.2604 33.0439 36.0625H27.8252C27.8252 36.2604 27.7575 36.4167 27.6221 36.5312C27.4866 36.6458 27.3356 36.7135 27.1689 36.7344C27.0023 36.7552 26.846 36.7292 26.7002 36.6562C26.5648 36.5833 26.4971 36.4583 26.4971 36.2812V31.3594C26.6325 31.3594 26.7731 31.3906 26.9189 31.4531C27.0752 31.5052 27.2158 31.5625 27.3408 31.625C27.4866 31.6875 27.6012 31.75 27.6846 31.8125C27.7679 31.8646 27.8148 31.8906 27.8252 31.8906H33.0127L33.2471 31.3906C33.2783 31.3281 33.3096 31.2865 33.3408 31.2656C33.3825 31.2344 33.4293 31.2292 33.4814 31.25C33.5543 31.2917 33.6377 31.349 33.7314 31.4219C33.8356 31.4844 33.9606 31.5625 34.1064 31.6562C34.3981 31.875 34.5752 32.0469 34.6377 32.1719C34.7002 32.2865 34.7106 32.3802 34.6689 32.4531C34.6273 32.5365 34.5648 32.6094 34.4814 32.6719C34.3981 32.7344 34.3564 32.8021 34.3564 32.875V35.9688ZM33.0439 33.6719V32.5156H27.8252V33.6719H33.0439ZM33.0439 35.4375V34.2969H27.8252V35.4375H33.0439ZM48.9971 37.8125V44.6875C48.9971 44.875 48.9293 45.0312 48.7939 45.1562C48.6585 45.2917 48.5075 45.3802 48.3408 45.4219C48.1637 45.4531 48.0127 45.4323 47.8877 45.3594C47.7627 45.2865 47.7002 45.1458 47.7002 44.9375V37.8125H46.1846C46.1741 38.4167 46.1377 39.0885 46.0752 39.8281C46.0231 40.5573 45.9189 41.276 45.7627 41.9844C45.6168 42.6823 45.4085 43.3333 45.1377 43.9375C44.8773 44.5312 44.5439 44.9948 44.1377 45.3281C43.8877 45.526 43.7418 45.5312 43.7002 45.3438C43.6689 45.1667 43.721 44.9792 43.8564 44.7812C44.1273 44.3646 44.3408 43.7969 44.4971 43.0781C44.6637 42.3594 44.7731 41.4115 44.8252 40.2344C44.8356 40.0052 44.846 39.724 44.8564 39.3906C44.8668 39.0573 44.8721 38.6927 44.8721 38.2969C44.8825 37.901 44.8877 37.4896 44.8877 37.0625C44.8877 36.625 44.8877 36.1927 44.8877 35.7656V32.4219C45.0127 32.4219 45.1429 32.4531 45.2783 32.5156C45.4241 32.5781 45.57 32.6458 45.7158 32.7188C45.8304 32.7917 45.9293 32.8594 46.0127 32.9219C46.1064 32.9844 46.1585 33.0156 46.1689 33.0156C46.1898 33.0052 46.3043 32.9531 46.5127 32.8594C46.721 32.7552 46.9658 32.6094 47.2471 32.4219C47.5387 32.2552 47.8304 32.0521 48.1221 31.8125C48.4241 31.5625 48.6585 31.2917 48.8252 31H48.8564C48.8564 31.0104 48.8877 31.0469 48.9502 31.1094C49.0231 31.1615 49.1064 31.2344 49.2002 31.3281C49.2939 31.4219 49.3929 31.5208 49.4971 31.625C49.6116 31.7188 49.721 31.8125 49.8252 31.9062C49.971 32.0729 50.0439 32.2031 50.0439 32.2969C50.0439 32.3906 50.0127 32.4635 49.9502 32.5156C49.8773 32.5885 49.7835 32.6354 49.6689 32.6562C49.5648 32.6771 49.471 32.6875 49.3877 32.6875C48.9398 32.875 48.445 33.0625 47.9033 33.25C47.3616 33.4375 46.7887 33.5729 46.1846 33.6562V37.1875H48.5752L48.8721 36.5625C48.945 36.4062 49.1012 36.3698 49.3408 36.4531C49.5908 36.5365 49.9346 36.7708 50.3721 37.1562C50.6012 37.375 50.7106 37.5417 50.7002 37.6562C50.7002 37.7604 50.57 37.8125 50.3096 37.8125H48.9971ZM43.7939 42C43.9398 42.2396 44.0335 42.5 44.0752 42.7812C44.1273 43.0521 44.0648 43.2865 43.8877 43.4844C43.7523 43.6302 43.6221 43.7083 43.4971 43.7188C43.3721 43.7292 43.2679 43.6927 43.1846 43.6094C43.0908 43.526 43.0075 43.4062 42.9346 43.25C42.8616 43.0938 42.7991 42.9219 42.7471 42.7344C42.6533 42.4219 42.5179 42.1198 42.3408 41.8281C42.1741 41.526 42.0648 41.3542 42.0127 41.3125V44.6562C42.0127 44.875 41.945 45.0469 41.8096 45.1719C41.6846 45.3073 41.5387 45.3854 41.3721 45.4062C41.2054 45.4375 41.0543 45.4062 40.9189 45.3125C40.7835 45.2292 40.7158 45.0885 40.7158 44.8906V42.3594C40.4971 42.7552 40.195 43.1198 39.8096 43.4531C39.4033 43.8073 38.9762 44.0781 38.5283 44.2656C38.3616 44.349 38.2262 44.3281 38.1221 44.2031C38.0283 44.0885 38.1012 43.9375 38.3408 43.75C38.4762 43.6458 38.6481 43.4896 38.8564 43.2812C39.0752 43.0625 39.2835 42.8021 39.4814 42.5C39.7106 42.2083 39.9189 41.875 40.1064 41.5C40.3043 41.1146 40.4554 40.6979 40.5596 40.25H39.2627C39.1898 40.25 39.1116 40.2552 39.0283 40.2656C38.945 40.276 38.8668 40.2812 38.7939 40.2812C38.721 40.2917 38.6585 40.3021 38.6064 40.3125C38.5543 40.3125 38.5283 40.3125 38.5283 40.3125L38.2158 39.5156C38.2158 39.5156 38.2523 39.526 38.3252 39.5469C38.4085 39.5573 38.5023 39.5677 38.6064 39.5781C38.6898 39.599 38.7887 39.6146 38.9033 39.625C39.0283 39.6354 39.1429 39.6406 39.2471 39.6406H40.7158V37.8125C40.7366 37.8125 40.8721 37.8385 41.1221 37.8906C41.3721 37.9427 41.6168 38.0052 41.8564 38.0781C42.0648 38.1406 42.1898 38.2135 42.2314 38.2969C42.2731 38.3802 42.2731 38.4635 42.2314 38.5469C42.2002 38.6406 42.1533 38.7344 42.0908 38.8281C42.0387 38.9115 42.0127 38.9844 42.0127 39.0469V39.6406H42.6377L42.8721 39.0781C42.9346 38.9531 43.07 38.9219 43.2783 38.9844C43.4866 39.0469 43.846 39.2656 44.3564 39.6406C44.596 39.8177 44.6793 39.9635 44.6064 40.0781C44.5335 40.1927 44.4241 40.25 44.2783 40.25H42.0127V40.4688C42.2002 40.5833 42.4658 40.7656 42.8096 41.0156C43.1637 41.2656 43.4918 41.5938 43.7939 42ZM39.3564 33.9688C39.2939 33.9688 39.221 33.9792 39.1377 34C39.0543 34.0104 38.9762 34.0208 38.9033 34.0312C38.8304 34.0521 38.7627 34.0677 38.7002 34.0781C38.6377 34.0885 38.6064 34.0938 38.6064 34.0938L38.2783 33.25C38.2783 33.25 38.3148 33.2604 38.3877 33.2812C38.471 33.2917 38.5543 33.3021 38.6377 33.3125C38.7314 33.3333 38.8304 33.349 38.9346 33.3594C39.0387 33.3594 39.1168 33.3594 39.1689 33.3594H40.6533V31.0312C40.6741 31.0312 40.8043 31.0573 41.0439 31.1094C41.2835 31.151 41.5075 31.2083 41.7158 31.2812C41.9554 31.3646 42.1064 31.4479 42.1689 31.5312C42.2418 31.6146 42.2523 31.6979 42.2002 31.7812C42.1689 31.875 42.1168 31.9635 42.0439 32.0469C41.9814 32.1302 41.9502 32.1979 41.9502 32.25V33.3594H42.8096L43.0439 32.8438C43.1064 32.6458 43.2679 32.6302 43.5283 32.7969C43.7887 32.9531 44.0387 33.1458 44.2783 33.375C44.4762 33.5938 44.5491 33.75 44.4971 33.8438C44.4554 33.9271 44.3408 33.9688 44.1533 33.9688H39.3564ZM39.8564 37.1094C39.8252 37.0677 39.7991 37.0156 39.7783 36.9531C39.7575 36.8906 39.7471 36.8177 39.7471 36.7344C39.7262 36.651 39.7106 36.5521 39.7002 36.4375C39.7002 36.3229 39.695 36.1979 39.6846 36.0625C39.6533 35.7292 39.596 35.4271 39.5127 35.1562C39.4293 34.875 39.3616 34.6458 39.3096 34.4688C39.2575 34.3021 39.2471 34.1927 39.2783 34.1406C39.3096 34.0885 39.4346 34.125 39.6533 34.25C39.6846 34.2708 39.7471 34.3281 39.8408 34.4219C39.945 34.5156 40.0596 34.6302 40.1846 34.7656C40.3096 34.901 40.4293 35.0521 40.5439 35.2188C40.6689 35.3854 40.7575 35.5469 40.8096 35.7031C40.8616 35.901 40.8877 36.151 40.8877 36.4531C40.8877 36.7552 40.7835 36.974 40.5752 37.1094H41.7627L42.3721 34.0469H42.4033C42.4033 34.0573 42.4398 34.0781 42.5127 34.1094C42.5856 34.1302 42.6741 34.1615 42.7783 34.2031C42.8929 34.2344 43.0075 34.276 43.1221 34.3281C43.2366 34.3698 43.3304 34.4062 43.4033 34.4375C43.5908 34.5208 43.695 34.6042 43.7158 34.6875C43.7471 34.7604 43.7366 34.8281 43.6846 34.8906C43.6429 34.9635 43.5752 35.0312 43.4814 35.0938C43.3981 35.1562 43.346 35.224 43.3252 35.2969L42.4814 37.1094H42.8877L43.1377 36.5781C43.221 36.3906 43.3668 36.3698 43.5752 36.5156C43.7939 36.651 44.0491 36.8438 44.3408 37.0938C44.5804 37.3333 44.6741 37.5 44.6221 37.5938C44.57 37.6875 44.4554 37.7344 44.2783 37.7344H39.1221C39.0596 37.7344 38.9814 37.7396 38.8877 37.75C38.8043 37.7604 38.721 37.7708 38.6377 37.7812C38.5648 37.7917 38.4971 37.8021 38.4346 37.8125C38.3721 37.8125 38.3408 37.8125 38.3408 37.8125L38.0439 37.0156C38.0439 37.0156 38.0856 37.0208 38.1689 37.0312C38.2627 37.0417 38.3564 37.0521 38.4502 37.0625C38.5335 37.0833 38.6221 37.099 38.7158 37.1094C38.82 37.1094 38.9033 37.1094 38.9658 37.1094H39.8564ZM58.4814 43.6719H61.5283L61.8408 42.9844C61.8721 42.901 61.9241 42.8385 61.9971 42.7969C62.0804 42.7448 62.1898 42.7344 62.3252 42.7656C62.4502 42.7969 62.6168 42.8802 62.8252 43.0156C63.0439 43.1406 63.3148 43.3385 63.6377 43.6094C63.9293 43.8698 64.0543 44.0521 64.0127 44.1562C63.971 44.2708 63.8148 44.3281 63.5439 44.3281H53.0283C52.9241 44.3281 52.8148 44.3333 52.7002 44.3438C52.596 44.3542 52.5023 44.3646 52.4189 44.375C52.3356 44.3958 52.2575 44.4062 52.1846 44.4062C52.1221 44.4167 52.0908 44.4219 52.0908 44.4219L51.7158 43.5625C51.7366 43.5625 51.7939 43.5729 51.8877 43.5938C51.9814 43.6042 52.0856 43.6146 52.2002 43.625C52.3252 43.6354 52.4554 43.6458 52.5908 43.6562C52.7366 43.6667 52.8616 43.6719 52.9658 43.6719H57.1221V31.0156C57.1429 31.0156 57.2523 31.0417 57.4502 31.0938C57.6585 31.1354 57.9137 31.2083 58.2158 31.3125C58.5387 31.4062 58.7314 31.5052 58.7939 31.6094C58.8668 31.7135 58.8773 31.8177 58.8252 31.9219C58.7731 32.0365 58.7002 32.1406 58.6064 32.2344C58.5231 32.3281 58.4814 32.4115 58.4814 32.4844V37.1094H60.8252L61.1064 36.4219C61.1898 36.2135 61.3616 36.1406 61.6221 36.2031C61.8825 36.2552 62.3148 36.5365 62.9189 37.0469C63.1898 37.2865 63.3096 37.4688 63.2783 37.5938C63.2575 37.7083 63.1116 37.7656 62.8408 37.7656H58.4814V43.6719ZM77.3408 39.9219C77.6221 40.151 77.7523 40.349 77.7314 40.5156C77.7106 40.6719 77.5335 40.75 77.2002 40.75H72.3877C72.7002 41.1979 73.07 41.6042 73.4971 41.9688C73.9241 42.3229 74.3668 42.6302 74.8252 42.8906C75.2939 43.1615 75.7575 43.3802 76.2158 43.5469C76.6846 43.7031 77.1168 43.8125 77.5127 43.875C77.6793 43.8958 77.7835 43.9219 77.8252 43.9531C77.8668 43.974 77.8616 44.0052 77.8096 44.0469C77.7679 44.0885 77.6846 44.1406 77.5596 44.2031C77.445 44.276 77.32 44.375 77.1846 44.5C77.0596 44.6042 76.9658 44.6875 76.9033 44.75C76.8408 44.8125 76.7835 44.8594 76.7314 44.8906C76.6689 44.9219 76.6168 44.9375 76.5752 44.9375C76.5335 44.9479 76.4814 44.9375 76.4189 44.9062C76.346 44.8958 76.1533 44.8177 75.8408 44.6719C75.5283 44.5365 75.1637 44.3333 74.7471 44.0625C74.32 43.7812 73.8773 43.4271 73.4189 43C72.9606 42.5938 72.5596 42.1198 72.2158 41.5781V44.5625C72.2158 44.8125 72.1481 45.0104 72.0127 45.1562C71.8773 45.3125 71.7158 45.4062 71.5283 45.4375C71.3616 45.4792 71.2054 45.4479 71.0596 45.3438C70.9137 45.25 70.8408 45.0781 70.8408 44.8281V42.1562C70.57 42.5208 70.2366 42.8594 69.8408 43.1719C69.445 43.474 69.0283 43.75 68.5908 44C68.1637 44.2396 67.721 44.4427 67.2627 44.6094C66.8148 44.776 66.3825 44.8906 65.9658 44.9531C65.8304 44.9844 65.7002 44.9844 65.5752 44.9531C65.4502 44.9323 65.3721 44.8958 65.3408 44.8438C65.2991 44.8021 65.3043 44.7448 65.3564 44.6719C65.4085 44.599 65.5387 44.5312 65.7471 44.4688C65.9554 44.4062 66.2575 44.2812 66.6533 44.0938C67.0491 43.9062 67.4762 43.6615 67.9346 43.3594C68.3721 43.0365 68.8148 42.6615 69.2627 42.2344C69.721 41.7969 70.1168 41.3021 70.4502 40.75H66.9033C66.8304 40.75 66.7471 40.7552 66.6533 40.7656C66.5596 40.776 66.471 40.7812 66.3877 40.7812C66.2939 40.7917 66.2106 40.8021 66.1377 40.8125C66.0752 40.8125 66.0439 40.8125 66.0439 40.8125L65.7002 39.9688C65.721 39.9688 65.7731 39.9792 65.8564 40C65.9502 40.0104 66.0596 40.026 66.1846 40.0469C66.3304 40.0677 66.471 40.0833 66.6064 40.0938C66.7523 40.1042 66.8825 40.1094 66.9971 40.1094H70.8408V38.1875C70.8616 38.1875 70.9189 38.1979 71.0127 38.2188C71.1064 38.2292 71.2158 38.2448 71.3408 38.2656C71.4554 38.2865 71.5804 38.3125 71.7158 38.3438C71.8512 38.3646 71.9606 38.3802 72.0439 38.3906C72.2939 38.4635 72.4346 38.5417 72.4658 38.625C72.5075 38.7083 72.5127 38.7917 72.4814 38.875C72.4398 38.9688 72.3825 39.0625 72.3096 39.1562C72.2471 39.25 72.2158 39.3438 72.2158 39.4375V40.1094H75.3877L75.7314 39.4688C75.7627 39.3854 75.8096 39.3177 75.8721 39.2656C75.945 39.2135 76.0387 39.1979 76.1533 39.2188C76.2783 39.2604 76.4293 39.3333 76.6064 39.4375C76.7939 39.5417 77.0387 39.7031 77.3408 39.9219ZM69.7314 38.1875C69.6793 38.1875 69.6377 38.1875 69.6064 38.1875C69.5856 38.1771 69.5648 38.1719 69.5439 38.1719C69.5127 38.1615 69.4866 38.151 69.4658 38.1406C69.4554 38.1302 69.445 38.1198 69.4346 38.1094C69.3304 38.026 69.2106 37.9531 69.0752 37.8906C68.9398 37.8281 68.8096 37.7812 68.6846 37.75C68.57 37.7188 68.4658 37.6979 68.3721 37.6875C68.2887 37.6667 68.2418 37.6562 68.2314 37.6562C68.0023 37.6042 67.8877 37.5312 67.8877 37.4375C67.8877 37.3333 68.0023 37.2812 68.2314 37.2812H69.2939C69.3981 37.2812 69.4918 37.1458 69.5752 36.875C69.6585 36.5938 69.7262 36.2552 69.7783 35.8594C69.8304 35.474 69.8668 35.0573 69.8877 34.6094C69.9189 34.151 69.9346 33.75 69.9346 33.4062H68.5908C68.5596 33.9375 68.4866 34.4583 68.3721 34.9688C68.2679 35.4792 68.1116 35.9427 67.9033 36.3594C67.695 36.7865 67.4502 37.1615 67.1689 37.4844C66.8877 37.8073 66.57 38.0365 66.2158 38.1719C65.9241 38.2969 65.7054 38.3125 65.5596 38.2188C65.4241 38.1146 65.4866 37.9635 65.7471 37.7656C65.9554 37.6094 66.1481 37.3854 66.3252 37.0938C66.5127 36.7917 66.6741 36.4427 66.8096 36.0469C66.9241 35.6615 67.0179 35.2448 67.0908 34.7969C67.1741 34.3385 67.2262 33.875 67.2471 33.4062H66.3408C66.2991 33.4062 66.2471 33.4115 66.1846 33.4219C66.1221 33.4323 66.0648 33.4427 66.0127 33.4531C65.9606 33.4635 65.9085 33.474 65.8564 33.4844C65.8043 33.4844 65.7783 33.4844 65.7783 33.4844L65.4971 32.7344L66.3408 32.7812H67.2783V31L68.3721 31.1562C68.5804 31.2083 68.7106 31.276 68.7627 31.3594C68.8252 31.4323 68.846 31.5052 68.8252 31.5781C68.8043 31.651 68.7679 31.7188 68.7158 31.7812C68.6741 31.8333 68.6533 31.875 68.6533 31.9062L68.6221 32.7812H69.9346L70.1064 32.2188C70.1689 32.0521 70.2731 32 70.4189 32.0625C70.5648 32.1146 70.7887 32.2344 71.0908 32.4219C71.3304 32.599 71.4658 32.7448 71.4971 32.8594C71.5387 32.9635 71.5439 33.0573 71.5127 33.1406C71.471 33.2344 71.4137 33.3177 71.3408 33.3906C71.2679 33.4531 71.2314 33.5208 71.2314 33.5938C71.2314 34.0729 71.2106 34.5833 71.1689 35.125C71.1377 35.6562 71.0596 36.1562 70.9346 36.625C70.8304 37.0833 70.6793 37.4583 70.4814 37.75C70.2939 38.0417 70.0439 38.1875 69.7314 38.1875ZM72.0439 32.1719C72.2002 32.1719 72.3616 32.2031 72.5283 32.2656C72.695 32.3281 72.8408 32.3958 72.9658 32.4688C73.0908 32.5417 73.195 32.6146 73.2783 32.6875C73.3616 32.7604 73.4033 32.7969 73.4033 32.7969H75.6689L75.9189 32.2188C75.9814 32.0417 76.0804 31.9792 76.2158 32.0312C76.3616 32.0833 76.5908 32.2344 76.9033 32.4844C77.1533 32.6823 77.2991 32.8438 77.3408 32.9688C77.3825 33.0833 77.3773 33.1875 77.3252 33.2812C77.2835 33.3646 77.221 33.4427 77.1377 33.5156C77.0648 33.5885 77.0283 33.6667 77.0283 33.75V37.1875C77.0283 37.4479 76.9554 37.6562 76.8096 37.8125C76.6741 37.9688 76.5283 38.0625 76.3721 38.0938C76.195 38.1146 76.0387 38.0729 75.9033 37.9688C75.7783 37.8542 75.7158 37.6615 75.7158 37.3906H73.3877C73.3877 37.599 73.3148 37.776 73.1689 37.9219C73.0231 38.0677 72.8721 38.1615 72.7158 38.2031C72.5491 38.2448 72.3929 38.2292 72.2471 38.1562C72.1116 38.0729 72.0439 37.9062 72.0439 37.6562V32.1719ZM73.3877 33.4219V36.7656H75.7158V33.4219H73.3877Z" fill="black"/>
<defs>
<linearGradient id="paint0_linear_135_217" x1="50.7736" y1="10.638" x2="50.7736" y2="52.638" gradientUnits="userSpaceOnUse">
<stop stop-color="#92D5C4"/>
<stop offset="1" stop-color="#79AAC5"/>
</linearGradient>
</defs>
</svg>
