<svg width="100" height="100" viewBox="0 0 100 100" fill="none" xmlns="http://www.w3.org/2000/svg">
<g clip-path="url(#clip0_10_302)">
<circle cx="50" cy="50" r="50" fill="#FBFBFB"/>
<rect x="18" y="21" width="5" height="60" fill="#24B685" fill-opacity="0.31"/>
<rect x="21" y="21" width="5" height="60" fill="#1EA388" fill-opacity="0.582212"/>
<rect x="29" y="21" width="5" height="60" fill="#689EBE"/>
<rect x="37" y="21" width="43" height="60" rx="1" fill="url(#paint0_linear_10_302)" fill-opacity="0.8"/>
<rect x="40" y="28" width="36" height="14" rx="5" fill="white"/>
<path d="M45.19 31.047C45.9893 31.047 46.6163 31.212 47.071 31.542C47.533 31.8647 47.764 32.3707 47.764 33.06C47.764 33.478 47.6687 33.841 47.478 34.149C47.2873 34.457 47.0197 34.699 46.675 34.875C46.3377 35.051 45.938 35.15 45.476 35.172L45.322 34.622C45.8573 34.6367 46.3377 34.732 46.763 34.908C47.1883 35.084 47.5257 35.3297 47.775 35.645C48.0243 35.9603 48.149 36.3343 48.149 36.767C48.149 37.163 48.0757 37.504 47.929 37.79C47.7823 38.0687 47.5843 38.2997 47.335 38.483C47.0857 38.659 46.8033 38.791 46.488 38.879C46.1727 38.9597 45.8463 39 45.509 39H43.144V31.047H45.19ZM45.41 34.534C45.85 34.534 46.169 34.413 46.367 34.171C46.565 33.9217 46.664 33.621 46.664 33.269C46.664 32.851 46.5357 32.5467 46.279 32.356C46.0223 32.1653 45.6777 32.07 45.245 32.07H44.211V34.534H45.41ZM45.454 38.01C45.7473 38.01 46.015 37.966 46.257 37.878C46.5063 37.79 46.7007 37.6543 46.84 37.471C46.9867 37.2877 47.06 37.0567 47.06 36.778C47.06 36.47 46.9757 36.228 46.807 36.052C46.6457 35.876 46.4367 35.7513 46.18 35.678C45.9233 35.5973 45.6593 35.557 45.388 35.557H44.211V38.01H45.454ZM49.4488 35.029C49.4488 34.479 49.5515 33.962 49.7568 33.478C49.9695 32.9867 50.2628 32.554 50.6368 32.18C51.0108 31.7987 51.4398 31.5017 51.9238 31.289C52.4151 31.069 52.9431 30.959 53.5078 30.959C54.0651 30.959 54.5858 31.069 55.0698 31.289C55.5611 31.5017 55.9938 31.7987 56.3678 32.18C56.7491 32.554 57.0461 32.9867 57.2588 33.478C57.4715 33.962 57.5778 34.479 57.5778 35.029C57.5778 35.5937 57.4715 36.1217 57.2588 36.613C57.0461 37.1043 56.7491 37.537 56.3678 37.911C55.9938 38.2777 55.5611 38.5673 55.0698 38.78C54.5858 38.9853 54.0651 39.088 53.5078 39.088C52.9431 39.088 52.4151 38.9853 51.9238 38.78C51.4398 38.5747 51.0108 38.2887 50.6368 37.922C50.2628 37.5553 49.9695 37.1263 49.7568 36.635C49.5515 36.1437 49.4488 35.6083 49.4488 35.029ZM50.5488 35.04C50.5488 35.458 50.6258 35.8503 50.7798 36.217C50.9338 36.5763 51.1465 36.8953 51.4178 37.174C51.6891 37.4527 52.0045 37.6727 52.3638 37.834C52.7231 37.988 53.1118 38.065 53.5298 38.065C53.9405 38.065 54.3255 37.988 54.6848 37.834C55.0441 37.6727 55.3558 37.4527 55.6198 37.174C55.8838 36.8953 56.0928 36.5763 56.2468 36.217C56.4008 35.8503 56.4778 35.4543 56.4778 35.029C56.4778 34.611 56.4008 34.2187 56.2468 33.852C56.0928 33.478 55.8801 33.1517 55.6088 32.873C55.3375 32.5943 55.0221 32.378 54.6628 32.224C54.3035 32.0627 53.9185 31.982 53.5078 31.982C53.0898 31.982 52.7011 32.0627 52.3418 32.224C51.9825 32.3853 51.6671 32.6053 51.3958 32.884C51.1245 33.1627 50.9155 33.489 50.7688 33.863C50.6221 34.2297 50.5488 34.622 50.5488 35.04ZM58.8804 35.029C58.8804 34.479 58.9831 33.962 59.1884 33.478C59.4011 32.9867 59.6944 32.554 60.0684 32.18C60.4424 31.7987 60.8714 31.5017 61.3554 31.289C61.8468 31.069 62.3748 30.959 62.9394 30.959C63.4968 30.959 64.0174 31.069 64.5014 31.289C64.9928 31.5017 65.4254 31.7987 65.7994 32.18C66.1808 32.554 66.4778 32.9867 66.6904 33.478C66.9031 33.962 67.0094 34.479 67.0094 35.029C67.0094 35.5937 66.9031 36.1217 66.6904 36.613C66.4778 37.1043 66.1808 37.537 65.7994 37.911C65.4254 38.2777 64.9928 38.5673 64.5014 38.78C64.0174 38.9853 63.4968 39.088 62.9394 39.088C62.3748 39.088 61.8468 38.9853 61.3554 38.78C60.8714 38.5747 60.4424 38.2887 60.0684 37.922C59.6944 37.5553 59.4011 37.1263 59.1884 36.635C58.9831 36.1437 58.8804 35.6083 58.8804 35.029ZM59.9804 35.04C59.9804 35.458 60.0574 35.8503 60.2114 36.217C60.3654 36.5763 60.5781 36.8953 60.8494 37.174C61.1208 37.4527 61.4361 37.6727 61.7954 37.834C62.1548 37.988 62.5434 38.065 62.9614 38.065C63.3721 38.065 63.7571 37.988 64.1164 37.834C64.4758 37.6727 64.7874 37.4527 65.0514 37.174C65.3154 36.8953 65.5244 36.5763 65.6784 36.217C65.8324 35.8503 65.9094 35.4543 65.9094 35.029C65.9094 34.611 65.8324 34.2187 65.6784 33.852C65.5244 33.478 65.3118 33.1517 65.0404 32.873C64.7691 32.5943 64.4538 32.378 64.0944 32.224C63.7351 32.0627 63.3501 31.982 62.9394 31.982C62.5214 31.982 62.1328 32.0627 61.7734 32.224C61.4141 32.3853 61.0988 32.6053 60.8274 32.884C60.5561 33.1627 60.3471 33.489 60.2004 33.863C60.0538 34.2297 59.9804 34.622 59.9804 35.04ZM69.8851 34.248L69.8521 34.644L69.9951 34.446L73.2511 31.047H74.6261L71.3371 34.457L74.8131 39H73.4601L70.5561 35.139L69.8851 35.788V39H68.8071V31.047H69.8851V34.248Z" fill="#747474"/>
</g>
<defs>
<linearGradient id="paint0_linear_10_302" x1="37" y1="51" x2="80" y2="51" gradientUnits="userSpaceOnUse">
<stop stop-color="#6092BD"/>
<stop offset="1" stop-color="#24B685" stop-opacity="0.31"/>
</linearGradient>
<clipPath id="clip0_10_302">
<rect width="100" height="100" fill="white"/>
</clipPath>
</defs>
</svg>
