<svg width="100" height="100" viewBox="0 0 100 100" fill="none" xmlns="http://www.w3.org/2000/svg">
<circle cx="50" cy="50" r="50" fill="#FBFBFB"/>
<rect x="25" y="21" width="50" height="60" fill="#F6F7F0"/>
<path d="M34.0156 35.3135V44.543C34.0156 44.6107 33.9902 44.6699 33.9395 44.7207C33.8887 44.7715 33.8294 44.7969 33.7617 44.7969C33.694 44.7969 33.6348 44.7715 33.584 44.7207C33.5332 44.6699 33.5078 44.6107 33.5078 44.543V34.3613C33.5078 34.2936 33.5332 34.2344 33.584 34.1836C33.6348 34.1328 33.694 34.1074 33.7617 34.1074C33.8294 34.1074 33.8887 34.1328 33.9395 34.1836C33.9733 34.2174 34.0114 34.2767 34.0537 34.3613L39.373 43.5908V34.3613C39.373 34.2936 39.3984 34.2344 39.4492 34.1836C39.5 34.1328 39.5592 34.1074 39.627 34.1074C39.6947 34.1074 39.7539 34.1328 39.8047 34.1836C39.8555 34.2344 39.8809 34.2936 39.8809 34.3613V44.543C39.8809 44.6107 39.8555 44.6699 39.8047 44.7207C39.7539 44.7715 39.6947 44.7969 39.627 44.7969C39.5592 44.7969 39.5 44.7715 39.4492 44.7207C39.4154 44.6868 39.3773 44.6276 39.335 44.543L34.0156 35.3135ZM45.0732 34.5518C44.0407 34.5518 43.1689 35.0299 42.458 35.9863C41.7555 36.9342 41.4043 38.0726 41.4043 39.4014C41.4043 40.7217 41.7555 41.86 42.458 42.8164C43.1689 43.7728 44.0407 44.251 45.0732 44.251C46.0973 44.251 46.9648 43.7728 47.6758 42.8164C48.3867 41.86 48.7422 40.7217 48.7422 39.4014C48.7422 38.0726 48.3867 36.9342 47.6758 35.9863C46.9733 35.0299 46.1058 34.5518 45.0732 34.5518ZM45.0732 34.0439C46.2751 34.0439 47.2695 34.5771 48.0566 35.6436C48.8522 36.7015 49.25 37.9541 49.25 39.4014C49.25 40.8402 48.8522 42.0928 48.0566 43.1592C47.2611 44.2256 46.2666 44.7588 45.0732 44.7588C43.8714 44.7588 42.8727 44.2256 42.0771 43.1592C41.29 42.0928 40.8965 40.8402 40.8965 39.4014C40.8965 37.9541 41.29 36.7015 42.0771 35.6436C42.8727 34.5771 43.8714 34.0439 45.0732 34.0439ZM55.3438 34.7422V44.5176C55.3438 44.5853 55.3184 44.6445 55.2676 44.6953C55.2168 44.7461 55.1576 44.7715 55.0898 44.7715C55.0221 44.7715 54.9629 44.7461 54.9121 44.6953C54.8613 44.6445 54.8359 44.5853 54.8359 44.5176V34.7422H50.5195C50.4518 34.7422 50.3926 34.7168 50.3418 34.666C50.291 34.6152 50.2656 34.556 50.2656 34.4883C50.2656 34.4206 50.291 34.3613 50.3418 34.3105C50.3926 34.2598 50.4518 34.2344 50.5195 34.2344H59.6348C59.7025 34.2344 59.7617 34.2598 59.8125 34.3105C59.8633 34.3613 59.8887 34.4206 59.8887 34.4883C59.8887 34.556 59.8633 34.6152 59.8125 34.666C59.7617 34.7168 59.7025 34.7422 59.6348 34.7422H55.3438ZM61.4248 34.7549V38.7412H65.4746C65.5423 38.7412 65.6016 38.7666 65.6523 38.8174C65.7031 38.8682 65.7285 38.9274 65.7285 38.9951C65.7285 39.0628 65.7031 39.1221 65.6523 39.1729C65.6016 39.2236 65.5423 39.249 65.4746 39.249H61.4248V44.0605H67.6074C67.6751 44.0605 67.7344 44.0859 67.7852 44.1367C67.8359 44.1875 67.8613 44.2467 67.8613 44.3145C67.8613 44.3822 67.8359 44.4414 67.7852 44.4922C67.7344 44.543 67.6751 44.5684 67.6074 44.5684H61.2852C61.2174 44.5684 61.154 44.5514 61.0947 44.5176C61.0355 44.4837 60.9889 44.4372 60.9551 44.3779C60.9212 44.3187 60.9043 44.2552 60.9043 44.1875V34.6279C60.9043 34.5179 60.9382 34.429 61.0059 34.3613C61.082 34.2852 61.1751 34.2471 61.2852 34.2471H67.125C67.1927 34.2471 67.252 34.2725 67.3027 34.3232C67.3535 34.374 67.3789 34.4333 67.3789 34.501C67.3789 34.5687 67.3535 34.6279 67.3027 34.6787C67.252 34.7295 67.1927 34.7549 67.125 34.7549H61.4248Z" fill="black"/>
</svg>
