<svg width="27" height="12" viewBox="0 0 27 12" fill="none" xmlns="http://www.w3.org/2000/svg">
<path d="M8.18848 5.08691V5.6709C8.18848 6.36491 8.10173 6.98698 7.92822 7.53711C7.75472 8.08724 7.50505 8.55485 7.1792 8.93994C6.85335 9.32503 6.46191 9.61914 6.00488 9.82227C5.55208 10.0254 5.04427 10.127 4.48145 10.127C3.93555 10.127 3.43408 10.0254 2.97705 9.82227C2.52425 9.61914 2.1307 9.32503 1.79639 8.93994C1.46631 8.55485 1.21029 8.08724 1.02832 7.53711C0.846354 6.98698 0.755371 6.36491 0.755371 5.6709V5.08691C0.755371 4.3929 0.844238 3.77295 1.02197 3.22705C1.20394 2.67692 1.45996 2.20931 1.79004 1.82422C2.12012 1.4349 2.51156 1.13867 2.96436 0.935547C3.42139 0.732422 3.92285 0.630859 4.46875 0.630859C5.03158 0.630859 5.53939 0.732422 5.99219 0.935547C6.44922 1.13867 6.84066 1.4349 7.1665 1.82422C7.49658 2.20931 7.74837 2.67692 7.92188 3.22705C8.09961 3.77295 8.18848 4.3929 8.18848 5.08691ZM6.97607 5.6709V5.07422C6.97607 4.52409 6.91895 4.03743 6.80469 3.61426C6.69466 3.19108 6.53174 2.83561 6.31592 2.54785C6.1001 2.26009 5.83561 2.04215 5.52246 1.89404C5.21354 1.74593 4.8623 1.67188 4.46875 1.67188C4.08789 1.67188 3.743 1.74593 3.43408 1.89404C3.12939 2.04215 2.86702 2.26009 2.64697 2.54785C2.43115 2.83561 2.264 3.19108 2.14551 3.61426C2.02702 4.03743 1.96777 4.52409 1.96777 5.07422V5.6709C1.96777 6.22526 2.02702 6.71615 2.14551 7.14355C2.264 7.56673 2.43327 7.92432 2.65332 8.21631C2.8776 8.50407 3.14209 8.72201 3.44678 8.87012C3.7557 9.01823 4.10059 9.09229 4.48145 9.09229C4.87923 9.09229 5.23258 9.01823 5.5415 8.87012C5.85042 8.72201 6.11068 8.50407 6.32227 8.21631C6.53809 7.92432 6.70101 7.56673 6.81104 7.14355C6.92106 6.71615 6.97607 6.22526 6.97607 5.6709ZM11.8506 4.7168V5.41016H8.99414V4.7168H11.8506ZM9.96094 3.43262H10.8643V8.69141C10.8643 8.87044 10.8919 9.00553 10.9473 9.09668C11.0026 9.18783 11.0742 9.24805 11.1621 9.27734C11.25 9.30664 11.3444 9.32129 11.4453 9.32129C11.5202 9.32129 11.5983 9.31478 11.6797 9.30176C11.7643 9.28548 11.8278 9.27246 11.8701 9.2627L11.875 10C11.8034 10.0228 11.709 10.0439 11.5918 10.0635C11.4779 10.0863 11.3395 10.0977 11.1768 10.0977C10.9554 10.0977 10.752 10.0537 10.5664 9.96582C10.3809 9.87793 10.2327 9.73145 10.1221 9.52637C10.0146 9.31803 9.96094 9.03809 9.96094 8.68652V3.43262ZM13.8135 2.5V10H12.9102V2.5H13.8135ZM13.5986 7.1582L13.2227 7.14355C13.2259 6.78223 13.2796 6.44857 13.3838 6.14258C13.488 5.83333 13.6344 5.56478 13.8232 5.33691C14.012 5.10905 14.2367 4.93327 14.4971 4.80957C14.7607 4.68262 15.0521 4.61914 15.3711 4.61914C15.6315 4.61914 15.8659 4.65495 16.0742 4.72656C16.2826 4.79492 16.46 4.9056 16.6064 5.05859C16.7562 5.21159 16.8701 5.41016 16.9482 5.6543C17.0264 5.89518 17.0654 6.18978 17.0654 6.53809V10H16.1572V6.52832C16.1572 6.25163 16.1165 6.03027 16.0352 5.86426C15.9538 5.69499 15.835 5.57292 15.6787 5.49805C15.5225 5.41992 15.3304 5.38086 15.1025 5.38086C14.8779 5.38086 14.6729 5.42806 14.4873 5.52246C14.305 5.61686 14.1471 5.74707 14.0137 5.91309C13.8835 6.0791 13.7809 6.26953 13.7061 6.48438C13.6344 6.69596 13.5986 6.92057 13.5986 7.1582ZM20.6104 10.0977C20.2425 10.0977 19.9089 10.0358 19.6094 9.91211C19.3132 9.78516 19.0576 9.60775 18.8428 9.37988C18.6312 9.15202 18.4684 8.88184 18.3545 8.56934C18.2406 8.25684 18.1836 7.91504 18.1836 7.54395V7.33887C18.1836 6.90918 18.2471 6.52669 18.374 6.19141C18.501 5.85286 18.6735 5.56641 18.8916 5.33203C19.1097 5.09766 19.3571 4.92025 19.6338 4.7998C19.9105 4.67936 20.1969 4.61914 20.4932 4.61914C20.8708 4.61914 21.1963 4.68424 21.4697 4.81445C21.7464 4.94466 21.9727 5.12695 22.1484 5.36133C22.3242 5.59245 22.4544 5.86589 22.5391 6.18164C22.6237 6.49414 22.666 6.83594 22.666 7.20703V7.6123H18.7207V6.875H21.7627V6.80664C21.7497 6.57227 21.7008 6.3444 21.6162 6.12305C21.5348 5.90169 21.4046 5.7194 21.2256 5.57617C21.0465 5.43294 20.8024 5.36133 20.4932 5.36133C20.2881 5.36133 20.0993 5.40527 19.9268 5.49316C19.7542 5.5778 19.6061 5.70475 19.4824 5.87402C19.3587 6.04329 19.2627 6.25 19.1943 6.49414C19.126 6.73828 19.0918 7.01986 19.0918 7.33887V7.54395C19.0918 7.7946 19.126 8.0306 19.1943 8.25195C19.266 8.47005 19.3685 8.66211 19.502 8.82812C19.6387 8.99414 19.8031 9.12435 19.9951 9.21875C20.1904 9.31315 20.4118 9.36035 20.6592 9.36035C20.9782 9.36035 21.2484 9.29525 21.4697 9.16504C21.6911 9.03483 21.8848 8.86068 22.0508 8.64258L22.5977 9.07715C22.4837 9.24967 22.3389 9.41406 22.1631 9.57031C21.9873 9.72656 21.7708 9.85352 21.5137 9.95117C21.2598 10.0488 20.9587 10.0977 20.6104 10.0977ZM24.624 5.54688V10H23.7207V4.7168H24.5996L24.624 5.54688ZM26.2744 4.6875L26.2695 5.52734C26.1947 5.51107 26.123 5.5013 26.0547 5.49805C25.9896 5.49154 25.9147 5.48828 25.8301 5.48828C25.6217 5.48828 25.4378 5.52083 25.2783 5.58594C25.1188 5.65104 24.9837 5.74219 24.873 5.85938C24.7624 5.97656 24.6745 6.11654 24.6094 6.2793C24.5475 6.4388 24.5068 6.61458 24.4873 6.80664L24.2334 6.95312C24.2334 6.63411 24.2643 6.33464 24.3262 6.05469C24.3913 5.77474 24.4906 5.52734 24.624 5.3125C24.7575 5.0944 24.9268 4.92513 25.1318 4.80469C25.3402 4.68099 25.5876 4.61914 25.874 4.61914C25.9391 4.61914 26.014 4.62728 26.0986 4.64355C26.1833 4.65658 26.2419 4.67122 26.2744 4.6875Z" fill="#719AC5"/>
</svg>
