<svg width="100" height="100" viewBox="0 0 100 100" fill="none" xmlns="http://www.w3.org/2000/svg">
<rect width="100" height="100" rx="50" fill="white"/>
<path d="M12 49.9381L20.367 36.3299L52.4404 20L83.1193 36.3299V65.5876L52.4404 86L20.367 68.9897V54.0206L12 49.9381Z" fill="#D9D9D9"/>
<path d="M20.367 36.3299L12 49.9381L20.367 54.0206M20.367 36.3299L52.4404 53.3402M20.367 36.3299L52.4404 20L83.1193 36.3299M52.4404 53.3402L44.0734 66.9485L20.367 54.0206M52.4404 53.3402L83.1193 36.3299M52.4404 53.3402V86M83.1193 36.3299V65.5876L52.4404 86M83.1193 36.3299L88 45.8557M52.4404 86L20.367 68.9897V54.0206" stroke="#EEEEEE" stroke-width="4" stroke-linecap="round" stroke-linejoin="round"/>
<path d="M53 41.5L61 46L53 51L45 46L53 41.5Z" fill="#B4B4B4"/>
</svg>
