<svg width="25" height="25" viewBox="0 0 25 25" fill="none" xmlns="http://www.w3.org/2000/svg">
<circle cx="12.5" cy="12.5" r="12.5" fill="white"/>
<path d="M7.96523 16C8.86769 16 10.3564 14.0933 8.86755 11.5555C6.16016 9.77777 3.45277 9.77777 1.64785 8C1.32842 9.44303 1.47308 10.6662 2.61483 11.2272C3.15769 10.0225 6.86981 11.5556 4.35538 11.5556C3.61513 11.5556 3.04441 11.4383 2.61483 11.2272C2.5731 11.3198 2.55009 11.4286 2.55009 11.5555C2.55009 13.3218 4.20885 14.2484 5.23769 14.2229C5.2507 14.2222 5.25784 14.2222 5.25784 14.2222C5.25115 14.2225 5.24444 14.2227 5.23769 14.2229C5.10442 14.2293 4.35505 14.3012 4.35538 15.1111C4.35574 16 6.1603 15.1111 6.1603 15.1111L7.96523 16Z" fill="url(#paint0_linear_821_1105)"/>
<path d="M7.96523 14.2222C8.28003 12.7522 7.06277 12.4445 6.1603 13.3333C5.25784 14.2222 6.54038 15.2133 7.96523 16M7.96523 16C8.86769 16 10.3564 14.0933 8.86755 11.5555C6.16016 9.77777 3.45277 9.77777 1.64785 8C1.32842 9.44303 1.47308 10.6662 2.61483 11.2272M7.96523 16L6.1603 15.1111C6.1603 15.1111 4.35574 16 4.35538 15.1111C4.35505 14.3012 5.10442 14.2293 5.23769 14.2229M2.61483 11.2272C3.15769 10.0225 6.86981 11.5556 4.35538 11.5556C3.61513 11.5556 3.04441 11.4383 2.61483 11.2272ZM2.61483 11.2272C2.5731 11.3198 2.55009 11.4286 2.55009 11.5555C2.55009 13.3218 4.20885 14.2484 5.23769 14.2229M5.23769 14.2229C5.2507 14.2222 5.25784 14.2222 5.25784 14.2222C5.25115 14.2225 5.24444 14.2227 5.23769 14.2229Z" stroke="url(#paint1_linear_821_1105)" stroke-width="0.2"/>
<path d="M17.0348 16C16.1323 16 14.6436 14.0933 16.1325 11.5555C18.8398 9.77777 21.5472 9.77777 23.3522 8C23.6716 9.44303 23.5269 10.6662 22.3852 11.2272C21.8423 10.0225 18.1302 11.5556 20.6446 11.5556C21.3849 11.5556 21.9556 11.4383 22.3852 11.2272C22.4269 11.3198 22.4499 11.4286 22.4499 11.5555C22.4499 13.3218 20.7912 14.2484 19.7623 14.2229C19.7493 14.2222 19.7422 14.2222 19.7422 14.2222C19.7488 14.2225 19.7556 14.2227 19.7623 14.2229C19.8956 14.2293 20.6449 14.3012 20.6446 15.1111C20.6443 16 18.8397 15.1111 18.8397 15.1111L17.0348 16Z" fill="url(#paint2_linear_821_1105)"/>
<path d="M17.0348 14.2222C16.72 12.7522 17.9372 12.4445 18.8397 13.3333C19.7422 14.2222 18.4596 15.2133 17.0348 16M17.0348 16C16.1323 16 14.6436 14.0933 16.1325 11.5555C18.8398 9.77777 21.5472 9.77777 23.3522 8C23.6716 9.44303 23.5269 10.6662 22.3852 11.2272M17.0348 16L18.8397 15.1111C18.8397 15.1111 20.6443 16 20.6446 15.1111C20.6449 14.3012 19.8956 14.2293 19.7623 14.2229M22.3852 11.2272C21.8423 10.0225 18.1302 11.5556 20.6446 11.5556C21.3849 11.5556 21.9556 11.4383 22.3852 11.2272ZM22.3852 11.2272C22.4269 11.3198 22.4499 11.4286 22.4499 11.5555C22.4499 13.3218 20.7912 14.2484 19.7623 14.2229M19.7623 14.2229C19.7493 14.2222 19.7422 14.2222 19.7422 14.2222C19.7488 14.2225 19.7556 14.2227 19.7623 14.2229Z" stroke="url(#paint3_linear_821_1105)" stroke-width="0.2"/>
<path d="M8.5 11H16.5V18.3333L15.9286 19H9.07143L8.5 18.3333V11Z" fill="#FFEE8F"/>
<path d="M8.5 11L9.07143 13.6667M9.07143 13.6667H15.9286M9.07143 13.6667V19M15.9286 13.6667L16.5 11M15.9286 13.6667V19" stroke="#FFD900" stroke-width="0.2"/>
<defs>
<linearGradient id="paint0_linear_821_1105" x1="1.5" y1="8" x2="9.40588" y2="14.7765" gradientUnits="userSpaceOnUse">
<stop stop-color="#004B97"/>
<stop offset="1" stop-color="#93DDC4"/>
</linearGradient>
<linearGradient id="paint1_linear_821_1105" x1="5.5" y1="8" x2="5.5" y2="16" gradientUnits="userSpaceOnUse">
<stop stop-color="#004B97" stop-opacity="0.7"/>
<stop offset="1" stop-color="#24B685" stop-opacity="0.6"/>
</linearGradient>
<linearGradient id="paint2_linear_821_1105" x1="23.5" y1="8" x2="15.5941" y2="14.7765" gradientUnits="userSpaceOnUse">
<stop stop-color="#004B97"/>
<stop offset="1" stop-color="#93DDC4"/>
</linearGradient>
<linearGradient id="paint3_linear_821_1105" x1="19.5" y1="8" x2="19.5" y2="16" gradientUnits="userSpaceOnUse">
<stop stop-color="#004B97" stop-opacity="0.7"/>
<stop offset="1" stop-color="#24B685" stop-opacity="0.6"/>
</linearGradient>
</defs>
</svg>
