<svg width="143" height="147" viewBox="0 0 143 147" fill="none" xmlns="http://www.w3.org/2000/svg">
<path d="M21.0277 53.5019C20.9577 52.4624 21.7163 51.5246 22.7469 51.3718C48.0486 47.6205 59.4675 40.8206 68.8798 20.3042C69.6376 18.6523 72.0858 18.6822 72.809 20.3496C81.5917 40.6003 93.4416 48.3579 119.5 50.4778C120.588 50.5662 121.425 51.5134 121.358 52.6027C119.082 89.2629 107.119 107.223 73.303 140.648C72.517 141.425 71.2281 141.42 70.4493 140.636C44.4091 114.418 24.2889 101.971 21.0277 53.5019Z" fill="white" stroke="#FFC857" stroke-width="10"/>
<path d="M55 80.7297L67.232 98.5368C68.0384 99.7106 69.7783 99.6896 70.556 98.4966L95 61" stroke="#FFC857" stroke-width="10" stroke-linecap="round"/>
</svg>
