<svg width="18" height="24" viewBox="0 0 18 24" fill="none" xmlns="http://www.w3.org/2000/svg">
<path d="M8.811 22.34C10.373 22.34 11.627 21.944 12.573 21.152C13.519 20.36 13.992 19.227 13.992 17.753C13.992 16.521 13.618 15.498 12.87 14.684C12.144 13.87 10.868 13.221 9.042 12.737L7.293 12.275C5.489 11.791 4.136 11.021 3.234 9.965C2.354 8.887 1.914 7.6 1.914 6.104C1.914 5.092 2.145 4.146 2.607 3.266C3.091 2.364 3.828 1.638 4.818 1.088C5.808 0.515998 7.084 0.229998 8.646 0.229998C10.384 0.229998 11.781 0.559998 12.837 1.22C13.893 1.858 14.619 2.694 15.015 3.728C15.433 4.762 15.532 5.873 15.312 7.061L13.233 7.589C13.475 5.543 13.233 3.97 12.507 2.87C11.781 1.748 10.505 1.187 8.679 1.187C7.205 1.187 6.039 1.572 5.181 2.342C4.323 3.09 3.894 4.179 3.894 5.609C3.894 6.731 4.213 7.677 4.851 8.447C5.489 9.195 6.677 9.8 8.415 10.262L10.164 10.724C12.078 11.23 13.519 12.044 14.487 13.166C15.477 14.266 15.972 15.63 15.972 17.258C15.972 18.38 15.708 19.403 15.18 20.327C14.674 21.229 13.893 21.955 12.837 22.505C11.781 23.055 10.439 23.33 8.811 23.33C7.711 23.33 6.655 23.165 5.643 22.835C4.631 22.483 3.751 21.867 3.003 20.987C2.277 20.107 1.782 18.875 1.518 17.291L3.333 16.697C3.465 18.171 3.795 19.326 4.323 20.162C4.873 20.976 5.544 21.548 6.336 21.878C7.128 22.186 7.953 22.34 8.811 22.34Z" fill="#719AC5"/>
<rect x="13" y="5" width="3" height="5" rx="1.5" fill="#D9D9D9"/>
<rect x="1" y="14" width="3" height="5" rx="1.5" fill="#D9D9D9"/>
</svg>
