<svg width="28" height="21" viewBox="0 0 28 21" fill="none" xmlns="http://www.w3.org/2000/svg">
<path d="M20 10C20 15.5228 15.5228 20 10 20C4.47715 20 0 15.5228 0 10C0 4.47715 4.47715 0 10 0C15.5228 0 20 4.47715 20 10Z" fill="white"/>
<path d="M10 1.5C14.6944 1.5 18.5 5.30558 18.5 10C18.5 14.6944 14.6944 18.5 10 18.5C5.30558 18.5 1.5 14.6944 1.5 10C1.5 5.30558 5.30558 1.5 10 1.5Z" stroke="url(#paint0_linear_83_152)" stroke-opacity="0.8" stroke-width="3"/>
<path d="M25.1252 20.5166C25.8409 20.9339 26.7593 20.6919 27.1765 19.9762C27.5937 19.2605 27.3518 18.3421 26.6361 17.9249L25.1252 20.5166ZM18.3639 16.5751L25.1252 20.5166L26.6361 17.9249L19.8748 13.9834L18.3639 16.5751Z" fill="url(#paint1_linear_83_152)" fill-opacity="0.6"/>
<defs>
<linearGradient id="paint0_linear_83_152" x1="3" y1="44" x2="3" y2="64" gradientUnits="userSpaceOnUse">
<stop stop-color="#24B685" stop-opacity="0.6"/>
<stop offset="1" stop-color="#004B97" stop-opacity="0.7"/>
</linearGradient>
<linearGradient id="paint1_linear_83_152" x1="22.6763" y1="14.5057" x2="22.4519" y2="17.9985" gradientUnits="userSpaceOnUse">
<stop stop-color="#24B685"/>
<stop offset="1" stop-color="#004B97" stop-opacity="0.7"/>
</linearGradient>
</defs>
</svg>
