<svg width="26" height="26" viewBox="0 0 26 26" fill="none" xmlns="http://www.w3.org/2000/svg">
<circle cx="13" cy="13" r="13" fill="white"/>
<path d="M13.6318 3C14.0675 3 14.2858 3.00028 14.4629 3.07031C14.6878 3.15934 14.8726 3.32699 14.9834 3.54199C15.0707 3.71127 15.0925 3.92789 15.1357 4.36133C15.2177 5.18213 15.2589 5.59316 15.4307 5.81836C15.6486 6.10394 16.0033 6.251 16.3594 6.20312C16.64 6.16528 16.9591 5.90323 17.5977 5.38086C17.9353 5.10467 18.1045 4.96713 18.2861 4.90918C18.5165 4.8357 18.7655 4.84826 18.9873 4.94434C19.1622 5.0201 19.3167 5.17412 19.625 5.48242L20.5176 6.375C20.8258 6.68323 20.9799 6.83787 21.0557 7.0127C21.1517 7.23455 21.1643 7.48357 21.0908 7.71387C21.0328 7.89534 20.8942 8.0641 20.6182 8.40137C20.0958 9.03946 19.8349 9.35905 19.7969 9.63965C19.7489 9.99576 19.896 10.3504 20.1816 10.5684C20.4068 10.7401 20.8176 10.7811 21.6387 10.8633C22.0724 10.9067 22.2897 10.9292 22.459 11.0166C22.6737 11.1275 22.8408 11.3124 22.9297 11.5371C22.9998 11.7143 23 11.9323 23 12.3682V13.6318C23 14.0675 22.9997 14.2858 22.9297 14.4629C22.8407 14.6878 22.673 14.8726 22.458 14.9834C22.2887 15.0706 22.0721 15.0925 21.6387 15.1357C20.8181 15.2177 20.4078 15.259 20.1826 15.4307C19.8967 15.6486 19.7498 16.0031 19.7979 16.3594C19.8357 16.6399 20.0969 16.9594 20.6191 17.5977C20.8947 17.9345 21.0328 18.103 21.0908 18.2842C21.1645 18.5146 21.1518 18.7643 21.0557 18.9863C20.9799 19.1611 20.8257 19.316 20.5176 19.624L19.625 20.5166C19.3167 20.8249 19.1622 20.9789 18.9873 21.0547C18.7654 21.1508 18.5165 21.1633 18.2861 21.0898C18.1045 21.0319 17.9352 20.8943 17.5977 20.6182C16.9588 20.0956 16.6392 19.8336 16.3584 19.7959C16.0026 19.7483 15.6484 19.8953 15.4307 20.1807C15.2588 20.4059 15.2177 20.8166 15.1357 21.6377C15.0924 22.0714 15.0707 22.2886 14.9834 22.458C14.8725 22.6729 14.6877 22.8407 14.4629 22.9297C14.2856 22.9998 14.067 23 13.6309 23H12.3682C11.9323 23 11.7143 22.9998 11.5371 22.9297C11.3124 22.8408 11.1275 22.6737 11.0166 22.459C10.9292 22.2897 10.9067 22.0724 10.8633 21.6387C10.7811 20.8176 10.7401 20.4068 10.5684 20.1816C10.3504 19.896 9.99576 19.7489 9.63965 19.7969C9.35905 19.8349 9.03946 20.0958 8.40137 20.6182C8.0641 20.8942 7.89534 21.0328 7.71387 21.0908C7.48357 21.1643 7.23455 21.1517 7.0127 21.0557C6.83787 20.9799 6.68323 20.8258 6.375 20.5176L5.48242 19.625C5.17412 19.3167 5.0201 19.1622 4.94434 18.9873C4.84826 18.7655 4.8357 18.5165 4.90918 18.2861C4.96713 18.1045 5.10467 17.9353 5.38086 17.5977C5.90323 16.9591 6.16528 16.64 6.20312 16.3594C6.251 16.0033 6.10394 15.6486 5.81836 15.4307C5.59316 15.2589 5.18213 15.2177 4.36133 15.1357C3.92789 15.0925 3.71127 15.0707 3.54199 14.9834C3.32699 14.8726 3.15934 14.6878 3.07031 14.4629C3.00028 14.2858 3 14.0675 3 13.6318V12.3682C3 11.9323 3.00023 11.7143 3.07031 11.5371C3.15921 11.3124 3.32634 11.1275 3.54102 11.0166C3.71035 10.9292 3.9276 10.9067 4.36133 10.8633C5.18237 10.7811 5.59316 10.7402 5.81836 10.5684C6.10372 10.3505 6.25086 9.99645 6.20312 9.64062C6.16537 9.35987 5.90335 9.03991 5.38086 8.40137C5.10503 8.06427 4.96714 7.89531 4.90918 7.71387C4.83569 7.48354 4.84827 7.23456 4.94434 7.0127C5.02008 6.83785 5.17418 6.68324 5.48242 6.375L6.375 5.48242C6.68326 5.17417 6.83783 5.02009 7.0127 4.94434C7.23457 4.84823 7.48352 4.8357 7.71387 4.90918C7.89541 4.96713 8.06487 5.10482 8.40234 5.38086C9.04077 5.90307 9.35992 6.16444 9.64062 6.20215C9.99654 6.24992 10.3505 6.10287 10.5684 5.81738C10.7401 5.59218 10.7811 5.18199 10.8633 4.36133C10.9067 3.92763 10.9292 3.71034 11.0166 3.54102C11.1275 3.32633 11.3124 3.15921 11.5371 3.07031C11.7143 3.00025 11.9323 3 12.3682 3H13.6318ZM13 9C10.7909 9 9 10.7909 9 13C9 15.2091 10.7909 17 13 17C15.2091 17 17 15.2091 17 13C17 10.7909 15.2091 9 13 9Z" fill="#004B97" fill-opacity="0.7"/>
</svg>
