<svg width="100" height="100" viewBox="0 0 100 100" fill="none" xmlns="http://www.w3.org/2000/svg">
<g clip-path="url(#clip0_10_306)">
<rect width="100" height="100" fill="white"/>
<circle cx="50" cy="50" r="50" fill="#FBFBFB"/>
<ellipse cx="25" cy="30" rx="11" ry="13" fill="url(#paint0_linear_10_306)" fill-opacity="0.8"/>
<line x1="18.5" y1="21" x2="18.5" y2="39" stroke="white"/>
<line x1="24.5" y1="18" x2="24.5" y2="42" stroke="white"/>
<line x1="29.5" y1="21" x2="29.5" y2="39" stroke="white"/>
<line x1="17" y1="23.5" x2="33" y2="23.5" stroke="white"/>
<line x1="15" y1="30.5" x2="35" y2="30.5" stroke="white"/>
<line x1="17" y1="35.5" x2="33" y2="35.5" stroke="white"/>
<line x1="25.5" y1="75" x2="25.5" y2="43" stroke="#4E7FAE"/>
<rect x="24" y="69" width="3" height="11" rx="1" fill="#0D779D"/>
<ellipse cx="56.3787" cy="21.6269" rx="11" ry="12.5" transform="rotate(-38.2788 56.3787 21.6269)" fill="url(#paint1_linear_10_306)" fill-opacity="0.6"/>
<rect x="62.1006" y="30.6051" width="4" height="13" rx="1" transform="rotate(-46.3412 62.1006 30.6051)" fill="#0D779D"/>
<path d="M67.2406 27.7353C67.1444 28.4906 66.9004 28.9533 67.2054 29.7118C67.3241 30.0069 67.5719 30.5913 67.1333 30.0468C67.0251 29.9125 66.9681 29.7336 66.8373 29.6196C66.5957 29.4089 66.3209 29.3647 66.1437 29.0883" stroke="#4E7FAE" stroke-linecap="round"/>
<path d="M66.985 28.3744C66.9381 28.6094 66.7002 28.6551 66.559 28.8219" stroke="#4E7FAE" stroke-linecap="round"/>
<path d="M61.8516 32.8707C61.6259 32.9674 62.3227 32.6989 62.5682 32.7007C62.8037 32.7024 63.0421 32.6917 63.2789 32.7C63.6647 32.7134 64.0903 32.8797 64.4188 33.0939" stroke="#4E7FAE" stroke-linecap="round"/>
<path d="M63.2468 32.0076C63.323 32.0871 63.4157 32.0075 63.5025 31.9862" stroke="#4E7FAE" stroke-linecap="round"/>
<circle cx="56.392" cy="16.2571" r="2" transform="rotate(-23.2098 56.392 16.2571)" fill="url(#paint2_linear_10_306)"/>
<circle cx="48" cy="55" r="15" fill="url(#paint3_linear_10_306)" fill-opacity="0.5"/>
<path d="M41 67.5C44.6951 55.2258 48.7292 50.7318 61.5 49.5" stroke="white"/>
<path d="M34 54C43.7279 53.86 47.1659 51.353 48 40.5" stroke="white"/>
<path d="M38.5 44C45.7681 54.4234 50.0629 59.0538 58 65.5" stroke="white"/>
<path d="M67.5564 72.328L81.6799 33.7177C82.1296 32.4885 83.5194 31.8894 84.7218 32.4064C85.9242 32.9234 86.4454 34.3443 85.8626 35.5162L67.5564 72.328Z" fill="url(#paint4_linear_10_306)" fill-opacity="0.8"/>
<path d="M67.4763 69.6945C68.1173 69.1305 69.1247 69.5775 69.1367 70.4312L69.1746 73.1316C69.1849 73.861 68.4359 74.3556 67.7691 74.0597L65.7035 73.1432C65.0367 72.8473 64.9008 71.9601 65.4485 71.4783L67.4763 69.6945Z" fill="url(#paint5_linear_10_306)" fill-opacity="0.5"/>
<circle cx="58" cy="77" r="4" fill="url(#paint6_linear_10_306)"/>
</g>
<defs>
<linearGradient id="paint0_linear_10_306" x1="25" y1="17" x2="25" y2="43" gradientUnits="userSpaceOnUse">
<stop stop-color="#24B685" stop-opacity="0.8"/>
<stop offset="1" stop-color="#004B97" stop-opacity="0.8"/>
</linearGradient>
<linearGradient id="paint1_linear_10_306" x1="56.3787" y1="9.12695" x2="56.3787" y2="34.1269" gradientUnits="userSpaceOnUse">
<stop stop-color="#24B685" stop-opacity="0.8"/>
<stop offset="1" stop-color="#0D779D"/>
</linearGradient>
<linearGradient id="paint2_linear_10_306" x1="56.392" y1="14.2571" x2="56.392" y2="18.2571" gradientUnits="userSpaceOnUse">
<stop stop-color="white"/>
<stop offset="0.447115" stop-color="#D1D1D1"/>
<stop offset="0.975962" stop-color="#999999" stop-opacity="0.5"/>
</linearGradient>
<linearGradient id="paint3_linear_10_306" x1="33" y1="55" x2="63" y2="55" gradientUnits="userSpaceOnUse">
<stop stop-color="#BC794D"/>
<stop offset="1" stop-color="#563723"/>
</linearGradient>
<linearGradient id="paint4_linear_10_306" x1="90.4436" y1="19.0992" x2="67.5564" y2="72.328" gradientUnits="userSpaceOnUse">
<stop stop-color="#24B685" stop-opacity="0.6"/>
<stop offset="1" stop-color="#6092BD" stop-opacity="0.5"/>
</linearGradient>
<linearGradient id="paint5_linear_10_306" x1="69.1062" y1="68.2606" x2="65.9463" y2="75.3818" gradientUnits="userSpaceOnUse">
<stop stop-color="#24B685" stop-opacity="0.6"/>
<stop offset="1" stop-color="#4E7FAE"/>
</linearGradient>
<linearGradient id="paint6_linear_10_306" x1="58" y1="73" x2="58" y2="81" gradientUnits="userSpaceOnUse">
<stop stop-color="white"/>
<stop offset="1" stop-color="#CFCFCF"/>
</linearGradient>
<clipPath id="clip0_10_306">
<rect width="100" height="100" fill="white"/>
</clipPath>
</defs>
</svg>
