<svg width="45" height="40" viewBox="0 0 45 40" fill="none" xmlns="http://www.w3.org/2000/svg">
<circle cx="19.5" cy="12.5" r="12.5" fill="#FFC857"/>
<circle cx="10" cy="22" r="10" fill="#FFC857"/>
<circle cx="35" cy="22" r="10" fill="#FFC857"/>
<circle cx="22" cy="31" r="9" fill="white"/>
<circle cx="22" cy="31" r="8.5" stroke="url(#paint0_linear_283_424)" stroke-opacity="0.8"/>
<path d="M21.824 37.128V35.912C21.3973 35.8907 20.96 35.864 20.512 35.832C20.0747 35.8 19.696 35.7573 19.376 35.704V34.616C19.5147 34.6267 19.6747 34.6427 19.856 34.664C20.048 34.6853 20.2613 34.7013 20.496 34.712C20.7307 34.7227 20.9867 34.7387 21.264 34.76C21.5413 34.7707 21.84 34.776 22.16 34.776C22.7573 34.776 23.2 34.7387 23.488 34.664C23.776 34.5893 23.9627 34.456 24.048 34.264C24.144 34.0613 24.192 33.784 24.192 33.432C24.192 33.048 24.16 32.776 24.096 32.616C24.0427 32.4453 23.9413 32.3333 23.792 32.28C23.6427 32.2267 23.4347 32.1893 23.168 32.168L20.928 31.912C20.4373 31.8373 20.0587 31.7147 19.792 31.544C19.536 31.3627 19.3547 31.112 19.248 30.792C19.152 30.4613 19.104 30.0613 19.104 29.592C19.104 28.952 19.2107 28.4613 19.424 28.12C19.6373 27.7787 19.9413 27.5387 20.336 27.4C20.7413 27.2507 21.2373 27.16 21.824 27.128V25.864H22.848V27.112C23.264 27.1227 23.648 27.144 24 27.176C24.352 27.208 24.6933 27.2613 25.024 27.336V28.424C24.7573 28.3813 24.4693 28.3493 24.16 28.328C23.8507 28.296 23.5467 28.2747 23.248 28.264C22.9493 28.2533 22.6667 28.248 22.4 28.248C22.08 28.248 21.7973 28.2587 21.552 28.28C21.3067 28.2907 21.0987 28.3387 20.928 28.424C20.7573 28.4987 20.624 28.6267 20.528 28.808C20.4427 28.9787 20.4 29.2187 20.4 29.528C20.4 29.8693 20.4213 30.1253 20.464 30.296C20.5173 30.456 20.6187 30.568 20.768 30.632C20.9173 30.6853 21.1307 30.728 21.408 30.76L23.808 31.016C24.224 31.0587 24.5547 31.1493 24.8 31.288C25.0453 31.4267 25.2213 31.6613 25.328 31.992C25.4347 32.3227 25.488 32.792 25.488 33.4C25.488 34.0293 25.4027 34.52 25.232 34.872C25.0613 35.2133 24.784 35.464 24.4 35.624C24.016 35.7733 23.4987 35.864 22.848 35.896V37.128H21.824Z" fill="#FFC857"/>
<defs>
<linearGradient id="paint0_linear_283_424" x1="22" y1="22" x2="22" y2="40" gradientUnits="userSpaceOnUse">
<stop stop-color="#004B97" stop-opacity="0.7"/>
<stop offset="1" stop-color="#24B685" stop-opacity="0.8"/>
</linearGradient>
</defs>
</svg>
