<svg width="64" height="66" viewBox="0 0 64 66" fill="none" xmlns="http://www.w3.org/2000/svg">
<g filter="url(#filter0_d_10_49)">
<path d="M58 29.5C58 39.165 46.8071 47 33 47C19.1929 47 8 39.165 8 29.5C8 19.835 19.1929 12 33 12C46.8071 12 58 19.835 58 29.5Z" fill="url(#paint0_linear_10_49)" fill-opacity="0.8"/>
<ellipse cx="18.3448" cy="29.4999" rx="3.44828" ry="3.18182" fill="white"/>
<ellipse cx="45.931" cy="29.4999" rx="3.44828" ry="3.18182" fill="white"/>
<ellipse cx="32.1379" cy="29.4999" rx="3.44828" ry="3.18182" fill="white"/>
<path d="M12 39C10.9427 41.5701 9.00001 44.5 8.50001 45C8.00001 45.5 12 43.5 12 43.5M12 39C12 39 12 42.6429 12 43.5M12 39L15 41.5714M12 43.5C12 43.5 14 42.4286 15.5 42C17 41.5714 15 41.5714 15 41.5714M15 41.5714L11 43" stroke="#6195BD" stroke-width="2" stroke-linejoin="round"/>
</g>
<defs>
<filter id="filter0_d_10_49" x="0" y="0" width="64" height="66" filterUnits="userSpaceOnUse" color-interpolation-filters="sRGB">
<feFlood flood-opacity="0" result="BackgroundImageFix"/>
<feColorMatrix in="SourceAlpha" type="matrix" values="0 0 0 0 0 0 0 0 0 0 0 0 0 0 0 0 0 0 127 0" result="hardAlpha"/>
<feOffset dy="2"/>
<feComposite in2="hardAlpha" operator="out"/>
<feColorMatrix type="matrix" values="0 0 0 0 0 0 0 0 0 0 0 0 0 0 0 0 0 0 0.25 0"/>
<feBlend mode="normal" in2="BackgroundImageFix" result="effect1_dropShadow_10_49"/>
<feBlend mode="normal" in="SourceGraphic" in2="effect1_dropShadow_10_49" result="shape"/>
</filter>
<linearGradient id="paint0_linear_10_49" x1="33" y1="12" x2="33" y2="47" gradientUnits="userSpaceOnUse">
<stop stop-color="#24B685" stop-opacity="0.6"/>
<stop offset="0.368901" stop-color="#127F8E" stop-opacity="0.702167"/>
<stop offset="1" stop-color="#004B97" stop-opacity="0.8"/>
</linearGradient>
</defs>
</svg>
