<svg xmlns="http://www.w3.org/2000/svg" xmlns:xlink="http://www.w3.org/1999/xlink" preserveAspectRatio="xMidYMid meet" version="1.0" viewBox="1.4 2.8 497.2 497.2" zoomAndPan="magnify" style="fill: rgb(0, 0, 0);" original_string_length="7178" width="674.9999821186066px" height="674.9999821186066px"><g><path d="m498.62,251.38c0,69.28-28.34,131.95-74.06,177.03-44.89,44.27-106.53,71.59-174.56,71.59s-130.59-27.73-175.56-72.58C29.31,382.41,1.38,320.16,1.38,251.38,1.38,114.07,112.69,2.76,250,2.76s248.62,111.31,248.62,248.62Z" style="fill: rgb(227, 235, 224);"/></g><g><path d="m266.21,65.68l-3.34,5.39-22.62,36.48-55.83,40.25-8.11,37.98-13.31,28.56c-2.05.58-4.8.72-8,.65-12.98-.28-33.32-4.11-44.26,2.92-10.88,6.99-10.8,17.7-10.33,21.75.11.96.25,1.54.26,1.62-.34-.45-.68-.93-1.03-1.42-.21-.3-.41-.6-.62-.91-8.34-12.41-16.99-35.5-9.38-62.58,8.11-28.89,31.81-31.16,52.58-44.14,20.77-12.98,13.96-26.94,23.37-51.61,9.41-24.67,28.56-51.61,65.24-46.74,36.68,4.87,35.38,31.81,35.38,31.81Z" style="fill: rgb(178, 129, 80);"/></g><g><path d="m220.77,68.28s-1.62-15.58-15.9-17.2c-14.28-1.62-21.79,12.76-21.79,12.76,0,0-.93-6.59,10.75-16.33s30.19-12.66,39.92-9.41c9.74,3.25,22.07,15.58,23.37,21.42,1.3,5.84-12.33,7.47-12.33,7.47l-24.02,1.3Z" style="fill: rgb(249, 185, 111);"/></g><g><path d="m266.21,65.68l-3.34,5.39c-5.54-1.14-9.96-2.15-9.96-2.15l.97-4.87s-12.33-28.89-42.84-22.07c-30.51,6.82-40.25,48.36-41.55,64.59-1.3,16.23-10.71,35.05-28.89,42.84-18.18,7.79-41.22,12.98-45.44,38.95-4.22,25.97,5.25,51.28,5.25,51.28,0,0-.28.07-.77.2-8.51-12.17-17.8-35.73-10-63.49,8.11-28.89,31.81-31.16,52.58-44.14,20.77-12.98,13.96-26.94,23.37-51.61,9.41-24.67,28.56-51.61,65.24-46.74,36.68,4.87,35.38,31.81,35.38,31.81Z" style="fill: rgb(249, 185, 111);"/></g><g><path d="m222.71,87.43c0-2.6-5.84-5.84-4.87-16.23.43-4.57,9.09-12.66,25.32-11.68,16.23.97,28.24,3.25,28.56,12.98.32,9.74-3.89,16.23-3.89,16.23l-45.12-1.3Z" style="fill: rgb(250, 133, 109);"/></g><g><path d="m424.56,428.41c-44.89,44.27-106.53,71.59-174.56,71.59s-130.59-27.73-175.56-72.58c6.6-18.8,16.19-42.8,24.93-52.1,15.25-16.23,44.14-10.39,71.08-17.53,4.93-1.31,9.33-2.77,13.26-4.36,3.41-1.38,6.46-2.83,9.19-4.35,5.39-2.99,9.51-6.2,12.61-9.38,3.42-3.52,5.58-7.01,6.82-10.15,1.56-3.98,2.13-13.5,2.27-22.94.18-12.12-.33-24.12-.33-24.12l25.09-9.99,9.96-3.97,14.43,5.74,20.62,8.21s-.58,13.53-.29,26.38c.2,8.67.8,17.02,2.23,20.69,2.41,6.14,8.38,13.61,20.31,20.01,5.73,3.08,12.82,5.91,21.57,8.22,26.94,7.14,55.83,1.3,71.08,17.53,8.89,9.46,18.67,34.14,25.28,53.08Z" style="fill: rgb(251, 205, 189);"/></g><g><path d="m424.56,428.41c-44.89,44.27-106.53,71.59-174.56,71.59s-130.59-27.73-175.56-72.58c6.6-18.8,16.19-42.8,24.93-52.1,15.25-16.23,44.14-10.39,71.08-17.53,4.93-1.31,9.33-2.77,13.26-4.36,3.41-1.38,6.46-2.83,9.19-4.35,23.32,27.32,57.72,69.08,57.72,69.08,0,0,33.49-41.28,56.01-68.59,5.73,3.08,12.82,5.91,21.57,8.22,26.94,7.14,55.83,1.3,71.08,17.53,8.89,9.46,18.67,34.14,25.28,53.08Z" style="fill: rgb(250, 133, 109);"/></g><g><path d="M226.28 430.83L272.37 430.83 255.82 389.61 241.21 389.61 226.28 430.83z" style="fill: rgb(242, 240, 218);"/></g><g><path d="m284.1,308.87c-8.36,6.58-21.98,14.37-38.66,13.22-16.93-1.17-26.15-9.21-30.83-15.48.19-12.12-.33-24.12-.33-24.12l25.09-9.99c8.3.61,16.88,1.24,24.4,1.78l20.62,8.21s-.58,13.53-.29,26.38Z" style="fill: rgb(251, 165, 140);"/></g><g><path d="m326.58,198.11c0,57.72-28.56,104.51-77.25,104.51s-77.25-46.79-77.25-104.51,11.68-108.41,77.25-108.41,77.25,50.69,77.25,108.41Z" style="fill: rgb(251, 205, 189);"/></g><g><path d="m173.7,181.23s-7.47-10.39-20.12-5.84c-12.66,4.54-11.36,30.51,0,40.25,11.36,9.74,22.72.65,22.72.65l-2.6-35.05Z" style="fill: rgb(251, 205, 189);"/></g><g><path d="m168.71,212.93c-1.73,0-3.98-.49-6.83-1.98-4.6-2.41-7.93-7.42-8.11-12.18-.15-3.81,1.66-7.09,5.08-9.23,2.6-1.62,5.18-2.1,7.69-1.41,4.52,1.24,6.97,5.89,7.07,6.09.43.82.1,1.84-.72,2.26-.82.42-1.83.1-2.26-.72h0s-1.9-3.56-5-4.4c-1.58-.43-3.22-.09-5.01,1.02-2.39,1.5-3.61,3.66-3.51,6.25.14,3.62,2.74,7.46,6.32,9.34,5.39,2.82,7.4.99,7.42.97-.03.03-.04.05-.04.05l2.51,2.23c-.22.25-1.64,1.7-4.62,1.7Z" style="fill: rgb(251, 165, 140);"/></g><g><path d="m324.96,181.23s7.47-10.39,20.12-5.84c12.66,4.54,11.36,30.51,0,40.25-11.36,9.74-22.72.65-22.72.65l2.6-35.05Z" style="fill: rgb(251, 205, 189);"/></g><g><path d="m329.94,212.93c-2.98,0-4.4-1.45-4.62-1.7l2.51-2.23s-.01-.02-.04-.05c.02.02,2.04,1.85,7.42-.97,3.58-1.88,6.18-5.72,6.32-9.34.1-2.6-1.11-4.76-3.51-6.25-1.79-1.12-3.43-1.45-5.01-1.02-3.1.84-4.98,4.36-5,4.4-.43.82-1.44,1.14-2.26.71-.82-.43-1.14-1.43-.72-2.26.1-.2,2.55-4.84,7.07-6.09,2.51-.69,5.1-.21,7.69,1.41,3.42,2.14,5.23,5.42,5.08,9.23-.18,4.76-3.52,9.77-8.11,12.18-2.85,1.49-5.1,1.98-6.83,1.98Z" style="fill: rgb(251, 165, 140);"/></g><g><path d="m233.1,239.65h32.46s-1.62,14.61-16.23,14.61-16.23-14.61-16.23-14.61Z" style="fill: rgb(255, 255, 255);"/></g><g><ellipse cx="218.98" cy="192.26" rx="4.54" ry="8.11" style="fill: rgb(69, 21, 12);"/></g><g><ellipse cx="279.68" cy="192.26" rx="4.54" ry="8.11" style="fill: rgb(69, 21, 12);"/></g><g><path d="m224.66,176.36c-.59,0-1.16-.32-1.45-.89-.09-.17-2-3.72-7.08-3.98-5.24-.28-7.68,2.89-7.7,2.92-.54.72-1.56.86-2.27.32-.72-.54-.86-1.56-.32-2.27.14-.19,3.52-4.58,10.47-4.22,7.03.37,9.7,5.54,9.81,5.76.4.8.08,1.78-.73,2.18-.23.12-.48.17-.72.17Z" style="fill: rgb(69, 21, 12);"/></g><g><path d="m273.99,176.35c-.25,0-.5-.06-.73-.18-.79-.41-1.12-1.37-.72-2.17.11-.22,2.78-5.39,9.81-5.76,6.95-.36,10.33,4.03,10.47,4.22.54.72.39,1.73-.32,2.27-.72.54-1.73.39-2.27-.32-.09-.12-2.54-3.2-7.7-2.92-5.09.27-7,3.83-7.08,3.99-.29.56-.86.88-1.45.88Z" style="fill: rgb(69, 21, 12);"/></g><g><path d="m250.63,224.78s-.07,0-.1,0c-.27-.02-6.62-.45-8.61-5.62-.32-.84-1.19-3.09,1.74-18.25,1.41-7.29,3.04-14.16,3.06-14.23.21-.9,1.12-1.46,2.02-1.24.9.21,1.46,1.12,1.24,2.02-3.13,13.15-5.83,28.16-4.93,30.49,1.21,3.14,5.63,3.47,5.68,3.47.92.06,1.62.86,1.57,1.78-.06.89-.79,1.57-1.67,1.57Z" style="fill: rgb(251, 165, 140);"/></g><g><circle cx="198.53" cy="221.8" r="14.28" style="fill: rgb(255, 189, 182);"/></g><g><circle cx="300.13" cy="221.8" r="14.28" style="fill: rgb(255, 189, 182);"/></g><g><path d="m351.46,279.51l-32-30.4,14.8-34,17.2,64.41Zm-27.99-31.22l21.68,20.6-11.65-43.63-10.03,23.03Z" style="fill: rgb(219, 156, 123);"/></g><g><path d="m162.77,229.57c-4.26,0-7.72-3.46-7.72-7.72s3.46-7.72,7.72-7.72,7.72,3.46,7.72,7.72-3.46,7.72-7.72,7.72Zm0-12.08c-2.4,0-4.36,1.96-4.36,4.36s1.96,4.36,4.36,4.36,4.36-1.96,4.36-4.36-1.96-4.36-4.36-4.36Z" style="fill: rgb(255, 255, 255);"/></g><g><path d="m324.96,202.84c-1.62-27.51,13.31-48.8,2.92-74.02-10.39-25.22-27.59-39.3-58.1-47.82-30.51-8.52-43.49,5.57-43.49,5.57-6.49-4.91-33.76-3.28-51.61,25.55-16,25.83-5.04,59.25-2.6,65.9v1.24s.65,8.84,1.3,27.18c.65,18.34-5.19,45.85-5.19,45.85,7.79-9.5,11.68-39.96,11.04-51.42-.65-11.46,5.19-24.56,11.87-35.47,0,0,0,0,0,0,21.78-19.68,32.6-42.81,32.6-42.81,7.79,10.48,25.64,22.6,40.57,28.49,19.09,7.54,40.25,14.74,47.39,24.56,7.14,9.83,8.11,36.68,11.04,49.13,2.92,12.45,13.96,29.48,13.96,29.48,0,0-10.06-23.91-11.68-51.42Z" style="fill: rgb(249, 185, 111);"/></g><g><path d="m249.33,390.25l-23.04,40.57s-30.48-54.25-42.56-77.39c6.74-8.31,14.51-12.19,21.79-13.73l43.82,50.55Z" style="fill: rgb(255, 255, 255);"/></g><g><path d="m249.33,390.25l23.04,40.57s30.48-54.25,42.56-77.39c-6.74-8.31-14.51-12.19-21.79-13.73l-43.82,50.55Z" style="fill: rgb(255, 255, 255);"/></g></svg>