<svg width="361" height="44" viewBox="0 0 361 44" fill="none" xmlns="http://www.w3.org/2000/svg">
<rect x="133" width="94" height="42" rx="20" fill="url(#paint0_linear_138_254)" fill-opacity="0.7"/>
<path d="M165.266 28.6562C165.286 28.6562 165.312 28.6146 165.344 28.5312C165.385 28.4375 165.417 28.3333 165.438 28.2188C165.458 28.1042 165.474 28 165.484 27.9062C165.505 27.8125 165.516 27.7552 165.516 27.7344C165.536 27.5052 165.604 27.4115 165.719 27.4531C165.833 27.4844 165.891 27.6198 165.891 27.8594C165.891 27.8802 165.885 27.9583 165.875 28.0938C165.865 28.2188 165.854 28.3698 165.844 28.5469C165.833 28.724 165.828 28.9115 165.828 29.1094C165.828 29.3073 165.844 29.4792 165.875 29.625C165.896 29.7083 165.891 29.8229 165.859 29.9688C165.828 30.1146 165.766 30.1875 165.672 30.1875C165.141 30.1875 164.734 29.9427 164.453 29.4531C164.172 28.9531 163.958 28.3385 163.812 27.6094C163.677 26.8802 163.599 26.1042 163.578 25.2812C163.557 24.4583 163.547 23.724 163.547 23.0781H162.641C162.641 23.1094 162.63 23.2656 162.609 23.5469C162.599 23.8281 162.578 24.1458 162.547 24.5C162.516 24.8438 162.479 25.1771 162.438 25.5C162.406 25.8229 162.37 26.0417 162.328 26.1562C162.766 26.4688 163.094 26.7969 163.312 27.1406C163.542 27.474 163.536 27.8281 163.297 28.2031C163.182 28.4115 163.068 28.5052 162.953 28.4844C162.839 28.4531 162.724 28.3698 162.609 28.2344C162.505 28.099 162.401 27.9427 162.297 27.7656C162.203 27.5885 162.094 27.4479 161.969 27.3438C161.75 27.8958 161.474 28.4062 161.141 28.875C160.818 29.3438 160.484 29.6875 160.141 29.9062C160.068 29.9583 159.984 29.9948 159.891 30.0156C159.797 30.026 159.724 30.0156 159.672 29.9844C159.609 29.9635 159.578 29.9271 159.578 29.875C159.578 29.8125 159.62 29.7344 159.703 29.6406C159.818 29.474 159.948 29.276 160.094 29.0469C160.25 28.8073 160.385 28.5521 160.5 28.2812C160.656 28.0104 160.781 27.7292 160.875 27.4375C160.979 27.1458 161.062 26.8594 161.125 26.5781C161.062 26.5156 160.979 26.4375 160.875 26.3438C160.771 26.2396 160.656 26.1406 160.531 26.0469C160.427 25.9531 160.323 25.875 160.219 25.8125C160.115 25.7396 160.052 25.6927 160.031 25.6719C159.885 25.6094 159.823 25.526 159.844 25.4219C159.875 25.3073 159.995 25.2604 160.203 25.2812C160.276 25.2917 160.37 25.3125 160.484 25.3438C160.599 25.375 160.719 25.4062 160.844 25.4375C160.948 25.4792 161.042 25.5208 161.125 25.5625C161.208 25.5938 161.255 25.6094 161.266 25.6094C161.286 25.526 161.307 25.3542 161.328 25.0938C161.349 24.8229 161.365 24.5417 161.375 24.25C161.396 23.9688 161.411 23.7135 161.422 23.4844C161.432 23.2448 161.438 23.1094 161.438 23.0781H160.875C160.833 23.0781 160.776 23.0833 160.703 23.0938C160.641 23.1042 160.578 23.1094 160.516 23.1094C160.453 23.1198 160.396 23.1302 160.344 23.1406C160.302 23.1406 160.281 23.1406 160.281 23.1406L160.016 22.4062L160.875 22.4531H161.438V20.0469C161.438 20.0469 161.479 20.0573 161.562 20.0781C161.646 20.0885 161.74 20.1042 161.844 20.125C161.969 20.1562 162.083 20.1875 162.188 20.2188C162.292 20.2396 162.385 20.2656 162.469 20.2969C162.688 20.3594 162.818 20.4323 162.859 20.5156C162.911 20.5885 162.922 20.6562 162.891 20.7188C162.87 20.7917 162.833 20.8646 162.781 20.9375C162.729 21.0104 162.703 21.0677 162.703 21.1094L162.688 22.4531H163.531L163.688 21.9375C163.708 21.8542 163.745 21.8073 163.797 21.7969C163.859 21.776 163.932 21.7812 164.016 21.8125C164.089 21.8438 164.172 21.8958 164.266 21.9688C164.37 22.0417 164.479 22.125 164.594 22.2188C164.844 22.4167 164.99 22.5781 165.031 22.7031C165.083 22.8177 165.094 22.9219 165.062 23.0156C165.031 23.099 164.979 23.1667 164.906 23.2188C164.833 23.2708 164.797 23.3281 164.797 23.3906C164.776 24.0677 164.771 24.724 164.781 25.3594C164.802 25.9844 164.839 26.5417 164.891 27.0312C164.943 27.5208 165 27.9167 165.062 28.2188C165.125 28.5104 165.193 28.6562 165.266 28.6562ZM155.281 30.9531C155.344 31.0781 155.417 31.3125 155.5 31.6562C155.583 31.9896 155.578 32.3854 155.484 32.8438C155.349 33.4167 155.115 33.8125 154.781 34.0312C154.458 34.2604 154.135 34.2135 153.812 33.8906C153.635 33.7031 153.594 33.4896 153.688 33.25C153.792 33.0208 153.948 32.8125 154.156 32.625C154.427 32.3958 154.62 32.1562 154.734 31.9062C154.859 31.6562 154.943 31.4479 154.984 31.2812C155.036 31.1042 155.073 30.9792 155.094 30.9062C155.125 30.8229 155.188 30.8385 155.281 30.9531ZM164.062 30.8438C164.146 30.8333 164.328 30.8854 164.609 31C164.901 31.1146 165.198 31.3594 165.5 31.7344C165.823 32.1406 165.969 32.5573 165.938 32.9844C165.917 33.4115 165.703 33.7083 165.297 33.875C165.182 33.9375 165.083 33.9427 165 33.8906C164.917 33.8385 164.849 33.7552 164.797 33.6406C164.755 33.5052 164.714 33.3594 164.672 33.2031C164.63 33.0469 164.594 32.8802 164.562 32.7031C164.5 32.3385 164.406 32.0417 164.281 31.8125C164.167 31.5729 164.062 31.3802 163.969 31.2344C163.885 31.099 163.839 31 163.828 30.9375C163.818 30.875 163.896 30.8438 164.062 30.8438ZM160.812 30.8438C160.906 30.875 161.078 30.974 161.328 31.1406C161.578 31.2969 161.807 31.5677 162.016 31.9531C162.141 32.1927 162.224 32.4323 162.266 32.6719C162.318 32.901 162.318 33.1094 162.266 33.2969C162.214 33.4844 162.12 33.6406 161.984 33.7656C161.859 33.8906 161.693 33.9531 161.484 33.9531C161.245 33.9531 161.094 33.8177 161.031 33.5469C160.979 33.276 160.964 32.9792 160.984 32.6562C160.995 32.3125 160.964 32.026 160.891 31.7969C160.828 31.5573 160.76 31.3698 160.688 31.2344C160.625 31.0885 160.589 30.9844 160.578 30.9219C160.578 30.8594 160.656 30.8333 160.812 30.8438ZM157.859 30.7969C157.943 30.849 158.078 30.9792 158.266 31.1875C158.464 31.3958 158.656 31.7031 158.844 32.1094C158.938 32.3802 158.99 32.6406 159 32.8906C159.01 33.1302 158.984 33.3385 158.922 33.5156C158.849 33.7135 158.74 33.8594 158.594 33.9531C158.458 34.0469 158.286 34.0781 158.078 34.0469C157.839 34.0052 157.703 33.849 157.672 33.5781C157.641 33.3073 157.646 33.0156 157.688 32.7031C157.719 32.3698 157.724 32.0729 157.703 31.8125C157.693 31.5521 157.672 31.3438 157.641 31.1875C157.62 31.0312 157.615 30.9167 157.625 30.8438C157.646 30.7708 157.724 30.7552 157.859 30.7969ZM159.609 26.5156C159.474 26.6406 159.354 26.6615 159.25 26.5781C159.146 26.4844 159.036 26.3438 158.922 26.1562C158.818 25.9792 158.682 25.7812 158.516 25.5625C158.349 25.3438 158.135 25.1615 157.875 25.0156C157.635 24.8802 157.536 24.7812 157.578 24.7188C157.62 24.6562 157.734 24.625 157.922 24.625C158.109 24.625 158.323 24.651 158.562 24.7031C158.812 24.7448 159.005 24.8125 159.141 24.9062C159.516 25.1354 159.76 25.3906 159.875 25.6719C160 25.9427 159.911 26.224 159.609 26.5156ZM159.297 27.5C159.526 27.7292 159.635 27.8958 159.625 28C159.615 28.0938 159.484 28.1406 159.234 28.1406H157.516V29.1719C157.599 29.1615 157.724 29.151 157.891 29.1406C158.068 29.1302 158.24 29.1198 158.406 29.1094C158.594 29.099 158.755 29.0885 158.891 29.0781C159.036 29.0677 159.13 29.0625 159.172 29.0625C159.443 29.0312 159.583 29.0833 159.594 29.2188C159.604 29.3542 159.5 29.4479 159.281 29.5C159.198 29.5312 158.953 29.599 158.547 29.7031C158.151 29.7969 157.724 29.8906 157.266 29.9844C156.807 30.0885 156.385 30.1875 156 30.2812C155.625 30.3646 155.417 30.4115 155.375 30.4219C155.312 30.4427 155.24 30.4896 155.156 30.5625C155.083 30.625 155.005 30.6771 154.922 30.7188C154.849 30.7604 154.771 30.7656 154.688 30.7344C154.615 30.6927 154.552 30.5781 154.5 30.3906L154.203 29.3594L156.234 29.2656V28.1406H155.188C155.135 28.1406 155.073 28.1458 155 28.1562C154.927 28.1667 154.849 28.1771 154.766 28.1875C154.693 28.2083 154.625 28.224 154.562 28.2344C154.5 28.2344 154.469 28.2344 154.469 28.2344L154.141 27.4219C154.141 27.4219 154.177 27.4271 154.25 27.4375C154.333 27.4479 154.427 27.4583 154.531 27.4688C154.615 27.4896 154.708 27.5052 154.812 27.5156C154.927 27.5156 155.021 27.5156 155.094 27.5156H156.234V25.7031C156.255 25.7031 156.307 25.7135 156.391 25.7344C156.474 25.7448 156.573 25.7604 156.688 25.7812C156.802 25.8021 156.906 25.8229 157 25.8438C157.104 25.8646 157.188 25.8802 157.25 25.8906C157.5 25.974 157.651 26.0521 157.703 26.125C157.755 26.1979 157.771 26.2708 157.75 26.3438C157.719 26.4167 157.672 26.4844 157.609 26.5469C157.547 26.6094 157.516 26.6667 157.516 26.7188V27.5156H157.922L158.188 27.0938C158.24 27 158.312 26.9583 158.406 26.9688C158.51 26.9688 158.63 27 158.766 27.0625C158.87 27.125 158.969 27.2031 159.062 27.2969C159.167 27.3802 159.245 27.4479 159.297 27.5ZM157.516 21.9688H158.094L158.312 21.4688C158.344 21.4062 158.401 21.3854 158.484 21.4062C158.578 21.4167 158.682 21.4479 158.797 21.5C158.911 21.5729 159.021 21.651 159.125 21.7344C159.24 21.8073 159.339 21.8698 159.422 21.9219C159.703 22.1615 159.818 22.3333 159.766 22.4375C159.724 22.5312 159.568 22.5781 159.297 22.5781H157.516V23.9531H158.219L158.422 23.4688C158.474 23.3542 158.562 23.3073 158.688 23.3281C158.812 23.3385 158.943 23.3802 159.078 23.4531C159.224 23.526 159.354 23.6146 159.469 23.7188C159.594 23.8229 159.682 23.8958 159.734 23.9375C159.953 24.1458 160.062 24.3021 160.062 24.4062C160.073 24.5104 159.938 24.5625 159.656 24.5625H155.969C156.115 24.6146 156.245 24.6667 156.359 24.7188C156.484 24.7708 156.583 24.8229 156.656 24.875C156.729 24.9479 156.755 25.0208 156.734 25.0938C156.724 25.1562 156.641 25.224 156.484 25.2969C156.297 25.5469 156.083 25.7552 155.844 25.9219C155.615 26.0885 155.385 26.2344 155.156 26.3594C154.927 26.474 154.719 26.5625 154.531 26.625C154.354 26.6875 154.224 26.724 154.141 26.7344C153.839 26.776 153.677 26.7448 153.656 26.6406C153.635 26.526 153.714 26.4271 153.891 26.3438C153.974 26.3021 154.083 26.2292 154.219 26.125C154.365 26.0104 154.521 25.875 154.688 25.7188C154.844 25.5625 154.995 25.3854 155.141 25.1875C155.297 24.9896 155.411 24.7812 155.484 24.5625H154.75C154.708 24.5625 154.651 24.5729 154.578 24.5938C154.516 24.6042 154.453 24.6146 154.391 24.625C154.339 24.6354 154.286 24.6458 154.234 24.6562C154.193 24.6667 154.172 24.6719 154.172 24.6719L153.859 23.875C153.859 23.875 153.901 23.8802 153.984 23.8906C154.068 23.901 154.151 23.9115 154.234 23.9219C154.318 23.9323 154.406 23.9427 154.5 23.9531C154.604 23.9531 154.688 23.9531 154.75 23.9531H156.234V22.5781H155.359L154.641 22.6406L154.344 21.9062C154.344 21.9062 154.38 21.9115 154.453 21.9219C154.536 21.9323 154.63 21.9375 154.734 21.9375C154.849 21.9479 154.953 21.9583 155.047 21.9688C155.151 21.9688 155.234 21.9688 155.297 21.9688H156.234V20.0469C156.255 20.0469 156.302 20.0573 156.375 20.0781C156.458 20.0885 156.552 20.1042 156.656 20.125C156.781 20.1562 156.896 20.1875 157 20.2188C157.115 20.2396 157.208 20.2656 157.281 20.2969C157.5 20.3594 157.63 20.4323 157.672 20.5156C157.724 20.5885 157.74 20.6562 157.719 20.7188C157.688 20.7917 157.646 20.8646 157.594 20.9375C157.542 21.0104 157.516 21.0677 157.516 21.1094V21.9688ZM173.062 26.4531C173.062 26.599 172.995 26.7135 172.859 26.7969C172.724 26.8802 172.562 26.9323 172.375 26.9531C172.229 26.9635 172.089 26.9323 171.953 26.8594C171.818 26.7865 171.755 26.6719 171.766 26.5156H169.25V33.5781C169.25 33.8385 169.177 34.0365 169.031 34.1719C168.896 34.3177 168.745 34.401 168.578 34.4219C168.411 34.4531 168.26 34.4271 168.125 34.3438C167.99 34.2708 167.922 34.151 167.922 33.9844V20.5312C168.089 20.5312 168.25 20.5625 168.406 20.625C168.562 20.6875 168.693 20.7552 168.797 20.8281C168.922 20.9115 169.026 20.9896 169.109 21.0625C169.193 21.125 169.234 21.1562 169.234 21.1562H171.75L171.984 20.6562C172.047 20.5104 172.141 20.4635 172.266 20.5156C172.391 20.5573 172.589 20.6823 172.859 20.8906C173.141 21.099 173.307 21.2656 173.359 21.3906C173.411 21.5156 173.417 21.6198 173.375 21.7031C173.333 21.7865 173.271 21.8594 173.188 21.9219C173.104 21.9844 173.062 22.0469 173.062 22.1094V26.4531ZM177.922 23.5312V21.7812H175.391V23.5312H177.922ZM171.766 23.5312V21.7812H169.25V23.5312H171.766ZM177.922 25.8906V24.1406H175.391V25.8906H177.922ZM171.766 25.8906V24.1406H169.25V25.8906H171.766ZM179.234 33.125C179.234 33.5104 179.13 33.8281 178.922 34.0781C178.714 34.3281 178.484 34.4531 178.234 34.4531C178.161 34.4531 178.094 34.4323 178.031 34.3906C177.969 34.349 177.927 34.3125 177.906 34.2812C177.635 34.0312 177.37 33.8802 177.109 33.8281C176.859 33.7865 176.729 33.7656 176.719 33.7656C176.479 33.7031 176.349 33.6146 176.328 33.5C176.318 33.3854 176.448 33.3281 176.719 33.3281H177.922V26.5156H175.391C175.391 26.6302 175.318 26.7292 175.172 26.8125C175.026 26.8854 174.88 26.9375 174.734 26.9688C174.578 26.9896 174.427 26.974 174.281 26.9219C174.146 26.8594 174.078 26.75 174.078 26.5938V20.625C174.214 20.625 174.354 20.651 174.5 20.7031C174.656 20.7552 174.786 20.8125 174.891 20.875C175.036 20.9479 175.151 21.0156 175.234 21.0781C175.318 21.1302 175.365 21.1562 175.375 21.1562H177.875L178.109 20.5938C178.161 20.4583 178.25 20.4167 178.375 20.4688C178.5 20.5208 178.708 20.651 179 20.8594C179.292 21.0781 179.464 21.2552 179.516 21.3906C179.568 21.5156 179.578 21.6198 179.547 21.7031C179.495 21.7865 179.427 21.8594 179.344 21.9219C179.271 21.974 179.234 22.0312 179.234 22.0938V33.125ZM193.297 32.7969C193.557 33.0885 193.641 33.2656 193.547 33.3281C193.453 33.401 193.318 33.4375 193.141 33.4375H188.266C188.266 33.6354 188.193 33.8125 188.047 33.9688C187.911 34.125 187.766 34.2396 187.609 34.3125C187.432 34.375 187.276 34.3854 187.141 34.3438C187.016 34.3021 186.953 34.1719 186.953 33.9531V25.1562C186.87 25.2917 186.76 25.4479 186.625 25.625C186.469 25.8125 186.302 25.9688 186.125 26.0938C185.906 26.2708 185.76 26.2865 185.688 26.1406C185.615 25.9844 185.661 25.7917 185.828 25.5625C185.995 25.3333 186.188 25.0052 186.406 24.5781C186.635 24.1406 186.854 23.6615 187.062 23.1406C187.26 22.6302 187.432 22.1042 187.578 21.5625C187.734 21.0104 187.839 20.5 187.891 20.0312L188.938 20.4062C189.146 20.4896 189.266 20.5729 189.297 20.6562C189.339 20.7396 189.344 20.8229 189.312 20.9062C189.281 20.9896 189.234 21.0625 189.172 21.125C189.109 21.1875 189.073 21.2344 189.062 21.2656C189.01 21.3906 188.938 21.5573 188.844 21.7656C188.75 21.9635 188.656 22.1667 188.562 22.375C188.469 22.5729 188.38 22.75 188.297 22.9062C188.224 23.0521 188.188 23.1302 188.188 23.1406H189.594L190.328 20.2344L191.312 20.5781C191.479 20.6406 191.583 20.7083 191.625 20.7812C191.677 20.8438 191.693 20.9167 191.672 21C191.651 21.0729 191.599 21.1406 191.516 21.2031C191.443 21.2552 191.38 21.3021 191.328 21.3438C191.266 21.4062 191.182 21.5365 191.078 21.7344C190.974 21.9219 190.859 22.1198 190.734 22.3281C190.63 22.526 190.536 22.7083 190.453 22.875C190.37 23.0417 190.323 23.1302 190.312 23.1406H191.281L191.578 22.5C191.661 22.2917 191.839 22.2656 192.109 22.4219C192.38 22.5781 192.682 22.8021 193.016 23.0938C193.276 23.3333 193.365 23.5052 193.281 23.6094C193.198 23.7031 193.052 23.75 192.844 23.75H190.828V26.3438H191.391L191.672 25.7656C191.724 25.6406 191.807 25.5885 191.922 25.6094C192.036 25.6198 192.161 25.6562 192.297 25.7188C192.443 25.7917 192.583 25.8854 192.719 26C192.854 26.1042 192.969 26.2031 193.062 26.2969C193.198 26.4427 193.281 26.5625 193.312 26.6562C193.354 26.7396 193.359 26.8021 193.328 26.8438C193.307 26.8854 193.255 26.9167 193.172 26.9375C193.089 26.9479 193.016 26.9531 192.953 26.9531H190.828V29.5625H191.391L191.672 28.9844C191.724 28.8802 191.802 28.8281 191.906 28.8281C192.01 28.8281 192.125 28.8594 192.25 28.9219C192.375 28.9948 192.505 29.0833 192.641 29.1875C192.786 29.2917 192.911 29.4062 193.016 29.5312C193.276 29.8125 193.365 29.9896 193.281 30.0625C193.198 30.1354 193.068 30.1719 192.891 30.1719H190.828V32.7656H191.531L191.797 32.1094C191.88 31.9115 192.078 31.901 192.391 32.0781C192.703 32.2448 193.005 32.4844 193.297 32.7969ZM189.547 26.3438V23.75H188.25V26.3438H189.547ZM189.547 29.5625V26.9531H188.25V29.5625H189.547ZM189.547 32.7656V30.1719H188.25V32.7656H189.547ZM183.141 24.2344H182.297C182.234 24.2344 182.161 24.2448 182.078 24.2656C182.005 24.276 181.927 24.2812 181.844 24.2812C181.781 24.2917 181.719 24.3021 181.656 24.3125C181.604 24.3125 181.578 24.3125 181.578 24.3125L181.312 23.5C181.312 23.5 181.349 23.5104 181.422 23.5312C181.505 23.5417 181.583 23.5521 181.656 23.5625C181.74 23.5729 181.828 23.5885 181.922 23.6094C182.026 23.6198 182.12 23.625 182.203 23.625H183.141V20.0156C183.151 20.0156 183.26 20.0312 183.469 20.0625C183.677 20.0938 183.943 20.151 184.266 20.2344C184.557 20.3385 184.729 20.4427 184.781 20.5469C184.833 20.6406 184.833 20.7344 184.781 20.8281C184.719 20.9323 184.641 21.0365 184.547 21.1406C184.464 21.2344 184.422 21.3229 184.422 21.4062V23.625H184.812L185.062 23.0938C185.125 22.9271 185.26 22.8906 185.469 22.9844C185.688 23.0781 185.932 23.25 186.203 23.5C186.432 23.75 186.557 23.9375 186.578 24.0625C186.599 24.1771 186.474 24.2344 186.203 24.2344H184.422V27.4844L185.891 26.9219C186.109 26.8385 186.255 26.8698 186.328 27.0156C186.401 27.151 186.302 27.3125 186.031 27.5L184.422 28.4531V33.0469C184.422 33.4844 184.297 33.8281 184.047 34.0781C183.797 34.3281 183.562 34.4531 183.344 34.4531C183.281 34.4531 183.224 34.4323 183.172 34.3906C183.13 34.3594 183.099 34.3229 183.078 34.2812C182.807 33.9896 182.531 33.7969 182.25 33.7031C181.979 33.6198 181.833 33.5781 181.812 33.5781C181.583 33.5052 181.458 33.4219 181.438 33.3281C181.427 33.2344 181.557 33.1875 181.828 33.1875H183.141V29.125L182.172 29.75C182.036 29.9479 181.906 30.0104 181.781 29.9375C181.656 29.8542 181.552 29.724 181.469 29.5469C181.365 29.3802 181.281 29.2083 181.219 29.0312C181.167 28.8438 181.141 28.7344 181.141 28.7031L183.141 27.9531V24.2344ZM201.984 24.8906H200.266V25.8125H201.984V24.8906ZM198.969 24.8906H197.188V25.8125H198.969V24.8906ZM197.188 26.4062L197.172 27.625H198.969V26.4062H197.188ZM204.984 27.625V26.4062H203.281V27.625H204.984ZM201.984 27.625V26.4062H200.266V27.625H201.984ZM207.031 21.5156C207.354 21.776 207.484 21.974 207.422 22.1094C207.37 22.2344 207.203 22.2969 206.922 22.2969H203.562V23C203.562 23.1875 203.495 23.3333 203.359 23.4375C203.234 23.5312 203.078 23.5885 202.891 23.6094C202.724 23.6302 202.573 23.6042 202.438 23.5312C202.302 23.4583 202.234 23.349 202.234 23.2031V22.2969H199.75V23.0469C199.75 23.224 199.677 23.3646 199.531 23.4688C199.396 23.5729 199.245 23.6302 199.078 23.6406C198.911 23.6615 198.755 23.6354 198.609 23.5625C198.474 23.4896 198.406 23.375 198.406 23.2188V22.2969H196.016L195.172 22.375L194.844 21.5625C194.865 21.5625 194.922 21.5729 195.016 21.5938C195.12 21.6146 195.229 21.6302 195.344 21.6406C195.458 21.651 195.578 21.6615 195.703 21.6719C195.828 21.6823 195.927 21.6823 196 21.6719H198.406V20.0156C198.417 20.0156 198.531 20.026 198.75 20.0469C198.969 20.0573 199.229 20.1042 199.531 20.1875C199.823 20.2917 200 20.3854 200.062 20.4688C200.125 20.5521 200.13 20.6354 200.078 20.7188C200.026 20.7917 199.958 20.8698 199.875 20.9531C199.792 21.026 199.75 21.099 199.75 21.1719V21.6719H202.234V20C202.245 20 202.349 20.0104 202.547 20.0312C202.745 20.0521 203.01 20.1042 203.344 20.1875C203.615 20.2812 203.776 20.3698 203.828 20.4531C203.891 20.526 203.901 20.6042 203.859 20.6875C203.807 20.7604 203.745 20.8385 203.672 20.9219C203.599 20.9948 203.562 21.0625 203.562 21.125V21.6719H205.234L205.469 21.0781C205.552 20.8802 205.703 20.8021 205.922 20.8438C206.141 20.875 206.51 21.099 207.031 21.5156ZM198.203 31.7812C198.203 31.8021 198.203 31.8594 198.203 31.9531C198.214 32.0469 198.214 32.1667 198.203 32.3125C198.193 32.4583 198.167 32.625 198.125 32.8125C198.083 32.9896 198.016 33.1615 197.922 33.3281C197.839 33.4635 197.734 33.599 197.609 33.7344C197.484 33.8802 197.349 33.9896 197.203 34.0625C197.047 34.1458 196.885 34.1823 196.719 34.1719C196.552 34.1615 196.401 34.0781 196.266 33.9219C196.151 33.8073 196.099 33.6979 196.109 33.5938C196.12 33.4896 196.167 33.3906 196.25 33.2969C196.333 33.2135 196.432 33.125 196.547 33.0312C196.672 32.9479 196.792 32.8594 196.906 32.7656C197.115 32.6302 197.292 32.474 197.438 32.2969C197.583 32.1094 197.698 31.9479 197.781 31.8125C197.875 31.6875 197.958 31.6042 198.031 31.5625C198.104 31.5208 198.161 31.5938 198.203 31.7812ZM200.328 33.8281C200.099 34.1302 199.854 34.2448 199.594 34.1719C199.333 34.099 199.214 33.8698 199.234 33.4844C199.245 33.1406 199.224 32.8438 199.172 32.5938C199.13 32.3333 199.083 32.1302 199.031 31.9844C198.99 31.901 198.964 31.8125 198.953 31.7188C198.943 31.625 198.964 31.5573 199.016 31.5156C199.047 31.474 199.12 31.4635 199.234 31.4844C199.349 31.5052 199.49 31.5885 199.656 31.7344C199.833 31.8698 199.984 32.0365 200.109 32.2344C200.234 32.4219 200.328 32.6146 200.391 32.8125C200.464 33.0208 200.495 33.2135 200.484 33.3906C200.474 33.5781 200.422 33.724 200.328 33.8281ZM202.797 33.4688C202.599 33.8021 202.359 33.9115 202.078 33.7969C201.807 33.6823 201.641 33.4479 201.578 33.0938C201.526 32.8438 201.422 32.599 201.266 32.3594C201.12 32.1094 201.005 31.9271 200.922 31.8125C200.755 31.6875 200.682 31.5625 200.703 31.4375C200.734 31.3125 200.969 31.3125 201.406 31.4375C201.677 31.5312 201.917 31.6615 202.125 31.8281C202.344 31.9948 202.521 32.1771 202.656 32.375C202.771 32.5625 202.844 32.7552 202.875 32.9531C202.906 33.151 202.88 33.3229 202.797 33.4688ZM199.625 28.2031L199.469 29.0781H205L205.234 28.4844V28.4688C205.151 28.4583 205.089 28.4323 205.047 28.3906C205.005 28.349 204.984 28.2865 204.984 28.2031H199.625ZM204.469 33.5L205.094 33.5156C205.156 33.5156 205.208 33.4427 205.25 33.2969C205.292 33.151 205.328 32.9635 205.359 32.7344C205.38 32.5052 205.396 32.25 205.406 31.9688C205.427 31.6771 205.438 31.3958 205.438 31.125H199.203C199.203 31.2083 199.13 31.2865 198.984 31.3594C198.849 31.4219 198.708 31.4635 198.562 31.4844C198.406 31.5052 198.26 31.4948 198.125 31.4531C198 31.401 197.938 31.2969 197.938 31.1406L198.359 28.2031H197.141C197.141 28.3594 197.13 28.5417 197.109 28.75C197.099 28.9479 197.083 29.151 197.062 29.3594C197.052 29.5677 197.036 29.7656 197.016 29.9531C196.995 30.1302 196.979 30.276 196.969 30.3906C196.833 31.2969 196.594 32.0729 196.25 32.7188C195.917 33.3542 195.547 33.8333 195.141 34.1562C194.849 34.3958 194.651 34.4583 194.547 34.3438C194.453 34.2292 194.495 34.0521 194.672 33.8125C194.953 33.3958 195.224 32.8073 195.484 32.0469C195.745 31.276 195.875 30.375 195.875 29.3438V23.7969C196.021 23.7969 196.172 23.8229 196.328 23.875C196.495 23.9271 196.635 23.9792 196.75 24.0312C196.875 24.0938 196.974 24.1562 197.047 24.2188C197.13 24.2708 197.172 24.2969 197.172 24.2969H200.562V22.7656C200.583 22.7656 200.635 22.776 200.719 22.7969C200.802 22.8073 200.896 22.8177 201 22.8281C201.125 22.849 201.245 22.8698 201.359 22.8906C201.484 22.9115 201.589 22.9323 201.672 22.9531C201.87 23.0052 201.995 23.0677 202.047 23.1406C202.099 23.2135 202.109 23.2865 202.078 23.3594C202.057 23.4427 202.021 23.526 201.969 23.6094C201.927 23.6823 201.906 23.7396 201.906 23.7812V24.2969H205.062L205.391 23.7344C205.474 23.599 205.635 23.5781 205.875 23.6719C206.115 23.7656 206.453 23.9688 206.891 24.2812C207.109 24.4375 207.214 24.5781 207.203 24.7031C207.193 24.8281 207.078 24.8906 206.859 24.8906H203.281V25.8125H204.953L205.172 25.3281C205.224 25.2135 205.318 25.1927 205.453 25.2656C205.599 25.3281 205.792 25.4323 206.031 25.5781C206.281 25.7552 206.432 25.8958 206.484 26C206.547 26.1042 206.562 26.1979 206.531 26.2812C206.49 26.3542 206.432 26.4167 206.359 26.4688C206.297 26.5208 206.266 26.5677 206.266 26.6094V28.0938C206.266 28.1667 206.219 28.2344 206.125 28.2969C206.042 28.3594 205.938 28.4062 205.812 28.4375C205.969 28.5104 206.125 28.6042 206.281 28.7188C206.438 28.8229 206.599 28.9375 206.766 29.0625C207.005 29.25 207.094 29.3958 207.031 29.5C206.979 29.5938 206.875 29.6406 206.719 29.6406H199.406L199.266 30.5H205.422L205.578 30.1562C205.609 30.0833 205.688 30.0625 205.812 30.0938C205.948 30.1146 206.177 30.2292 206.5 30.4375C206.729 30.5729 206.87 30.6927 206.922 30.7969C206.974 30.901 206.984 30.9948 206.953 31.0781C206.922 31.1615 206.875 31.2344 206.812 31.2969C206.76 31.3594 206.734 31.4115 206.734 31.4531C206.734 31.8073 206.714 32.1667 206.672 32.5312C206.63 32.8854 206.547 33.1979 206.422 33.4688C206.328 33.7604 206.203 33.9948 206.047 34.1719C205.891 34.349 205.708 34.4375 205.5 34.4375C205.427 34.4375 205.359 34.4219 205.297 34.3906C205.245 34.3594 205.208 34.3125 205.188 34.25C205.062 34.1771 204.927 34.1146 204.781 34.0625C204.635 34.0104 204.49 33.974 204.344 33.9531C204.229 33.9323 204.125 33.9167 204.031 33.9062C203.938 33.8958 203.885 33.8906 203.875 33.8906C203.635 33.8906 203.516 33.8229 203.516 33.6875C203.526 33.5625 203.651 33.5 203.891 33.5H204.062C203.979 33.4688 203.901 33.4062 203.828 33.3125C203.766 33.2292 203.719 33.1094 203.688 32.9531C203.656 32.7865 203.568 32.5729 203.422 32.3125C203.286 32.0417 203.141 31.8385 202.984 31.7031C202.901 31.6406 202.839 31.5781 202.797 31.5156C202.766 31.4427 202.766 31.3854 202.797 31.3438C202.839 31.3125 202.927 31.3021 203.062 31.3125C203.198 31.3125 203.38 31.349 203.609 31.4219C203.88 31.5156 204.115 31.6458 204.312 31.8125C204.521 31.9688 204.677 32.1406 204.781 32.3281C204.896 32.5052 204.953 32.6823 204.953 32.8594C204.953 33.0365 204.896 33.1823 204.781 33.2969C204.75 33.349 204.708 33.3906 204.656 33.4219C204.604 33.4635 204.542 33.4896 204.469 33.5Z" fill="black"/>
<path d="M166.208 7.12H174.72V9.728H174.304L173.84 8.048C173.808 7.92 173.771 7.82933 173.728 7.776C173.696 7.712 173.627 7.67467 173.52 7.664C173.413 7.64267 173.232 7.632 172.976 7.632H171.168V16.704C171.168 17.0773 171.184 17.296 171.216 17.36C171.248 17.424 171.349 17.4667 171.52 17.488L172.4 17.584V18H168.544V17.584L169.424 17.488C169.595 17.4667 169.696 17.424 169.728 17.36C169.76 17.296 169.776 17.0773 169.776 16.704V7.632H167.952C167.707 7.632 167.525 7.64267 167.408 7.664C167.301 7.67467 167.227 7.712 167.184 7.776C167.152 7.82933 167.12 7.92 167.088 8.048L166.624 9.728H166.208V7.12ZM184.41 11.952V13.152C184.41 14.7093 184.052 15.936 183.338 16.832C182.623 17.7173 181.599 18.16 180.266 18.16C178.922 18.16 177.892 17.7173 177.178 16.832C176.474 15.936 176.122 14.7093 176.122 13.152V11.952C176.122 10.4053 176.474 9.18933 177.178 8.304C177.892 7.408 178.922 6.96 180.266 6.96C181.599 6.96 182.623 7.408 183.338 8.304C184.052 9.18933 184.41 10.4053 184.41 11.952ZM182.89 11.152C182.89 9.81867 182.666 8.87467 182.218 8.32C181.78 7.75467 181.13 7.472 180.266 7.472C179.402 7.472 178.746 7.75467 178.298 8.32C177.86 8.87467 177.642 9.81867 177.642 11.152V13.952C177.642 15.2853 177.86 16.2347 178.298 16.8C178.746 17.3653 179.402 17.648 180.266 17.648C181.13 17.648 181.78 17.3653 182.218 16.8C182.666 16.2347 182.89 15.2853 182.89 13.952V11.152ZM186.362 7.552V7.12H190.906C191.962 7.12 192.767 7.38667 193.322 7.92C193.876 8.44267 194.154 9.14133 194.154 10.016V10.48C194.154 11.3547 193.876 12.0587 193.322 12.592C192.767 13.1253 191.962 13.392 190.906 13.392H188.986V16.704C188.986 17.0773 189.002 17.3013 189.034 17.376C189.066 17.44 189.167 17.4773 189.338 17.488L190.538 17.584V18H186.362V17.584L187.242 17.488C187.412 17.4667 187.514 17.424 187.546 17.36C187.578 17.296 187.594 17.0773 187.594 16.704V8.416C187.594 8.04267 187.578 7.824 187.546 7.76C187.514 7.696 187.412 7.65333 187.242 7.632L186.362 7.552ZM190.906 7.632H188.986V12.88H190.906C192.09 12.88 192.682 12.1547 192.682 10.704V9.792C192.682 8.352 192.09 7.632 190.906 7.632Z" fill="black"/>
<path d="M123 22H1" stroke="#383838" stroke-linecap="round"/>
<path d="M360 22H238" stroke="#383838" stroke-linecap="round"/>
<defs>
<linearGradient id="paint0_linear_138_254" x1="180" y1="0" x2="180" y2="42" gradientUnits="userSpaceOnUse">
<stop stop-color="#95DBC5"/>
<stop offset="1" stop-color="#75A3C4"/>
</linearGradient>
</defs>
</svg>
