<svg width="57" height="32" viewBox="0 0 57 32" fill="none" xmlns="http://www.w3.org/2000/svg">
<path d="M5.98945 9.38V9.36C6.18945 9.2 6.24945 9.2 6.46945 9.44C6.68945 9.66 6.88945 10.06 6.96945 10.42C6.98945 10.56 7.02945 10.76 7.04945 10.86C7.18945 11.42 7.20945 11.7 7.04945 12.1L7.28945 12.06C7.42945 12.04 7.58945 12.02 7.64945 12C7.74945 11.98 8.42945 12.06 8.54945 12.1C8.58945 12.12 8.60945 12.16 8.60945 12.18C8.60945 12.22 8.62945 12.24 8.66945 12.24C8.70945 12.24 8.76945 12.3 8.80945 12.38C8.86945 12.52 8.84945 12.66 8.76945 12.66C8.74945 12.66 8.72945 12.7 8.72945 12.74C8.72945 12.78 8.70945 12.82 8.66945 12.82C8.62945 12.82 8.56945 12.84 8.52945 12.88C8.50945 12.92 8.36945 12.96 8.24945 12.96C8.10945 12.98 7.76945 13.04 7.48945 13.1C7.18945 13.16 6.86945 13.22 6.76945 13.22C6.66945 13.24 6.40945 13.28 6.18945 13.32C5.96945 13.36 5.70945 13.4 5.62945 13.42C5.54945 13.42 5.42945 13.44 5.36945 13.46C5.22945 13.5 4.88945 13.56 4.52945 13.6C4.44945 13.62 4.28945 13.64 4.16945 13.66C3.94945 13.7 2.82945 13.7 2.66945 13.66C2.38945 13.6 2.20945 13.38 2.24945 13.18C2.26945 13.06 2.64945 12.72 2.76945 12.72C2.78945 12.72 2.86945 12.68 2.94945 12.64C3.02945 12.6 3.24945 12.54 3.46945 12.52C3.66945 12.5 3.96945 12.46 4.10945 12.42C4.44945 12.36 4.54945 12.34 5.52945 12.24C6.08945 12.18 6.10945 12.16 6.02945 12C5.80945 11.58 5.74945 11.22 5.74945 10.48C5.74945 10 5.76945 9.72 5.80945 9.68C5.82945 9.66 5.84945 9.6 5.84945 9.56C5.84945 9.52 5.90945 9.44 5.98945 9.38ZM13.1095 10.08L13.0895 10.14C13.3295 10.04 13.5295 10.06 13.5295 10.18C13.5295 10.22 13.5695 10.24 13.6095 10.24C13.6495 10.24 13.7095 10.32 13.7495 10.4C13.8295 10.58 13.7695 10.82 13.2695 12.18L13.7095 12C13.9495 11.9 14.3095 11.78 14.4895 11.74C14.7695 11.66 14.8295 11.62 14.8695 11.52C14.9695 11.3 15.4295 11.18 15.4295 11.36C15.4295 11.4 15.4495 11.42 15.4895 11.42C15.5295 11.42 15.5695 11.44 15.5895 11.48C15.6095 11.54 15.7095 11.56 16.2695 11.62C16.5895 11.66 16.8695 11.88 16.8695 12.1C16.8695 12.28 16.2295 12.56 16.0495 12.44C16.0295 12.42 15.9695 12.42 15.8095 12.48V15.54L16.0295 15.56C16.5895 15.6 17.2895 15.56 17.5495 15.5C17.6895 15.46 17.8895 15.44 17.9695 15.46C18.0695 15.48 18.1495 15.46 18.1695 15.44C18.2495 15.32 18.5095 15.46 18.5895 15.68C18.6495 15.84 18.3495 16.16 18.0695 16.22C18.0295 16.22 17.8695 16.26 17.7095 16.3C17.4095 16.38 17.3095 16.4 17.1095 16.44C17.0295 16.46 16.9295 16.48 16.8895 16.5C16.8495 16.52 16.7295 16.54 16.6295 16.54C16.5295 16.54 16.3095 16.58 15.8295 16.72L15.7895 17.08C15.7295 17.64 15.8095 23.64 15.8695 23.72C16.0095 23.9 15.7895 24.72 15.6095 24.72C15.5895 24.72 15.5295 24.76 15.4895 24.8C15.4495 24.84 15.3895 24.86 15.3495 24.84C15.3095 24.82 15.2295 24.8 15.1695 24.8C14.9895 24.76 14.8295 24.46 14.8295 24.14C14.8295 24.02 14.8095 23.92 14.7695 23.88C14.7095 23.82 14.7095 23.44 14.7695 17.12L14.6095 17.16C14.5295 17.18 14.4095 17.2 14.3495 17.22C14.2895 17.22 14.1895 17.24 14.1095 17.28C14.0295 17.3 13.9695 17.32 13.9695 17.3C13.9695 17.28 13.9495 17.28 13.9095 17.3C13.8695 17.32 13.8295 17.34 13.8095 17.34C13.5895 17.38 13.5095 17.4 13.4695 17.42C13.4495 17.44 13.3695 17.46 13.2895 17.46C13.0095 17.52 12.9295 17.54 12.8895 17.56C12.8695 17.58 12.7895 17.6 12.7095 17.62C12.5095 17.64 12.3495 17.68 12.2295 17.72C12.0495 17.78 11.9095 17.8 11.5895 17.82C11.4095 17.82 11.2495 17.84 11.2295 17.86C11.1495 17.9 10.5095 17.8 10.3495 17.7C10.1295 17.58 10.0295 17.42 10.1095 17.28C10.1295 17.22 10.1695 17.18 10.1895 17.18C10.2095 17.18 10.3095 17.1 10.3895 17.02C10.5695 16.86 11.0095 16.64 11.2495 16.6C11.3295 16.58 11.4495 16.54 11.5295 16.52C11.6095 16.5 11.7095 16.48 11.7495 16.46C11.9295 16.42 12.7495 16.2 12.8695 16.16C12.9295 16.14 13.0295 16.12 13.0895 16.1C13.1495 16.08 13.2895 16.04 13.4095 16C13.5095 15.96 13.5895 15.94 13.5895 15.94C13.5895 15.96 13.6295 15.94 13.6895 15.92C13.7495 15.9 13.8695 15.86 13.9495 15.84C14.0495 15.84 14.2295 15.82 14.3295 15.8C14.4495 15.78 14.5695 15.76 14.6095 15.76C14.6495 15.76 14.6695 15.42 14.6695 12.62L14.5495 12.68C14.4895 12.7 14.4095 12.72 14.3695 12.72C14.3295 12.7 14.2895 12.72 14.2695 12.74C14.2495 12.76 14.2095 12.78 14.1695 12.78C14.1295 12.78 14.0695 12.8 14.0295 12.82C13.9895 12.84 13.8895 12.86 13.8095 12.86C13.7295 12.86 13.6295 12.88 13.6095 12.9C13.5495 12.94 13.1695 13 13.0895 13C13.0495 13 13.0095 13.1 12.9895 13.26C12.8495 13.92 12.5495 14.62 12.4095 14.62C12.3695 14.62 12.3095 14.66 12.2695 14.7C12.2095 14.76 12.1695 14.78 12.1095 14.74C12.0695 14.72 11.9695 14.7 11.8895 14.7C11.8095 14.7 11.7495 14.66 11.7095 14.58C11.6895 14.52 11.6295 14.44 11.5895 14.4C11.4895 14.3 11.5095 13.9 11.6495 13.16C11.7695 12.54 11.8095 12.4 12.0495 11.88C12.1295 11.72 12.1895 11.58 12.1895 11.56C12.1895 11.5 12.8495 10.2 12.9095 10.18L13.1095 10.08ZM6.46945 14.08L6.40945 14.14C6.84945 14.06 7.38945 14.28 7.38945 14.56C7.38945 14.6 7.40945 14.64 7.42945 14.64C7.58945 14.74 7.28945 15.08 6.82945 15.34C6.50945 15.52 6.42945 15.54 6.10945 15.58C6.00945 15.6 5.90945 15.62 5.88945 15.64C5.60945 15.82 4.92945 15.72 4.72945 15.46C4.60945 15.3 4.56945 15.12 4.66945 15.06C4.68945 15.04 4.70945 14.98 4.70945 14.92C4.70945 14.66 5.52945 14.28 6.46945 14.08ZM7.92945 16.06L7.96945 16.12C7.98945 16.1 8.46945 16.2 8.54945 16.24C8.68945 16.32 8.90945 16.58 8.90945 16.66C8.90945 16.76 8.50945 17.04 8.32945 17.08C7.80945 17.18 7.40945 17.28 7.16945 17.38C7.12945 17.4 7.08945 17.42 7.06945 17.42C6.94945 17.46 6.66945 17.56 6.62945 17.58C6.60945 17.6 6.52945 17.62 6.46945 17.62C6.24945 17.66 5.32945 18.04 5.02945 18.22C4.76945 18.36 4.20945 18.6 3.82945 18.72C3.46945 18.82 3.08945 18.68 3.08945 18.44C3.08945 18.18 3.54945 17.64 3.90945 17.46C4.02945 17.4 4.34945 17.22 4.60945 17.06C5.12945 16.74 5.18945 16.72 5.70945 16.56C5.90945 16.5 6.12945 16.42 6.20945 16.38C6.28945 16.34 6.42945 16.3 6.50945 16.3C6.58945 16.28 6.74945 16.24 6.84945 16.22C7.10945 16.14 7.12945 16.14 7.54945 16.1C7.74945 16.08 7.92945 16.06 7.92945 16.06ZM6.22945 18.48H6.24945C6.36945 18.4 6.72945 18.38 6.76945 18.44C6.78945 18.46 6.76945 18.5 6.72945 18.52C6.66945 18.54 6.66945 18.56 6.70945 18.62C6.72945 18.66 6.74945 18.76 6.74945 18.82C6.74945 18.94 6.74945 18.94 6.98945 18.9C7.12945 18.88 7.34945 18.82 7.46945 18.76C7.62945 18.7 7.74945 18.68 7.86945 18.7C8.16945 18.74 8.34945 18.8 8.34945 18.86C8.34945 18.9 8.38945 18.94 8.42945 18.94C8.70945 19.02 8.80945 19.94 8.66945 21.22C8.60945 21.74 8.56945 21.96 8.46945 22.14C8.34945 22.38 8.08945 22.58 7.92945 22.54C7.86945 22.52 7.70945 22.58 7.50945 22.7C7.22945 22.86 7.16945 22.88 6.88945 22.88C6.64945 22.88 6.56945 22.9 6.46945 22.98C6.14945 23.2 5.92945 22.96 5.84945 22.32C5.76945 21.62 5.82945 19.7 5.94945 19.28C6.00945 19.08 6.06945 18.84 6.08945 18.74C6.10945 18.64 6.16945 18.52 6.22945 18.48ZM7.38945 19.92C7.34945 19.92 7.18945 19.9 6.76945 19.84V21.94H6.90945C7.42945 21.94 7.60945 21.76 7.60945 21.26C7.60945 21.14 7.64945 20.92 7.68945 20.76C7.72945 20.62 7.76945 20.36 7.76945 19.84L7.60945 19.88C7.52945 19.9 7.42945 19.92 7.38945 19.92ZM28.7205 8.46L28.5805 8.52C28.6005 8.5 28.7205 8.5 28.8405 8.5H29.2205C29.3205 8.5 29.3805 8.54 29.4005 8.62C29.4205 8.7 29.4805 8.74 29.5405 8.74C29.6005 8.74 29.6405 8.76 29.6405 8.8C29.6405 8.84 29.6805 8.92 29.7205 8.98C29.7805 9.12 29.7405 9.34 29.6405 9.34C29.6205 9.34 29.6005 9.38 29.6005 9.44C29.5805 9.5 29.5405 9.54 29.5005 9.54C29.4605 9.54 29.3805 9.58 29.3405 9.64C29.2805 9.7 29.1805 9.72 29.0205 9.72C28.9005 9.72 28.6805 9.74 28.5405 9.76C28.4005 9.78 28.1805 9.8 28.0405 9.82C27.9005 9.82 27.6205 9.84 27.4205 9.84C27.2205 9.86 26.7005 9.88 26.2405 9.88C25.5205 9.88 25.4205 9.88 25.4605 9.94C25.5805 10.18 25.6605 11.02 25.6605 11.94C25.6605 13.4 25.5005 14.52 25.1205 15.84C24.9605 16.38 24.8005 16.98 24.7605 17.16C24.7205 17.36 24.6605 17.64 24.6205 17.78C24.5805 17.94 24.5205 18.22 24.4805 18.42C24.2805 19.28 24.2405 19.46 23.9605 20.38C23.8605 20.72 23.7405 21.02 23.6405 21.16C23.4605 21.44 23.0805 21.72 23.0005 21.64C22.9805 21.62 22.9005 21.6 22.8205 21.6C22.7205 21.6 22.6805 21.56 22.6605 21.5C22.6405 21.44 22.5805 21.36 22.5405 21.32C22.4205 21.22 22.4605 20.84 22.6805 20.08C22.7805 19.7 22.9005 19.24 22.9605 19.06C23.0005 18.88 23.1005 18.54 23.1805 18.3C23.3205 17.8 23.3605 17.64 23.5005 17.14C23.5405 16.96 23.6605 16.6 23.7605 16.36C23.9605 15.86 24.3405 14.82 24.4005 14.62C24.4205 14.54 24.5205 14.04 24.6205 13.5C24.7205 12.96 24.8205 12.5 24.8205 12.48C24.8405 12.44 25.0205 11.08 25.0205 10.86V9.76L24.8405 9.72C24.6205 9.68 24.5005 9.52 24.5605 9.32C24.6205 9.12 24.6605 9.1 25.8605 8.86C26.0605 8.82 26.3005 8.78 26.4205 8.78C26.5405 8.76 26.6405 8.74 26.6605 8.72C26.7005 8.7 27.0805 8.66 27.5005 8.62C27.6605 8.6 27.9005 8.56 28.0405 8.54C28.1805 8.52 28.3805 8.5 28.5005 8.48C28.6005 8.48 28.7005 8.46 28.7205 8.46ZM34.4005 10.94L34.5005 10.98C35.1005 10.84 35.8005 10.9 35.8005 11.08C35.8005 11.14 35.8405 11.18 35.9005 11.18C36.0005 11.18 36.0805 11.26 36.0805 11.36C36.0805 11.4 36.1205 11.46 36.1605 11.5C36.2405 11.58 36.1805 11.8 36.0605 11.84C36.0205 11.86 35.9805 11.92 35.9805 11.98C35.9805 12.02 35.9605 12.06 35.9205 12.06C35.8805 12.06 35.8005 12.1 35.7205 12.14C35.6405 12.2 35.5205 12.24 35.4005 12.24C35.3005 12.24 35.1805 12.26 35.1405 12.28C35.0205 12.32 34.8605 12.36 34.7205 12.4C34.6605 12.4 34.5405 12.44 34.4405 12.48C34.3405 12.52 34.2405 12.54 34.2205 12.52C34.2005 12.5 34.1805 12.62 34.1805 12.76C34.1805 13.08 33.9205 13.58 33.4005 14.1L33.5405 14.06C33.6205 14.04 33.8205 13.98 33.9805 13.92C34.2405 13.82 34.3605 13.8 35.4805 13.8L35.6605 13.98C36.0805 14.36 36.2205 14.96 36.2205 16.38C36.2205 17.06 36.2205 17.1 36.1205 17.24C35.9805 17.42 35.6005 17.7 35.5205 17.68C35.5005 17.68 35.4205 17.66 35.3605 17.64C35.2805 17.62 35.2205 17.58 35.2205 17.54C35.2205 17.5 35.1805 17.46 35.1405 17.44C35.1005 17.42 35.0805 17.3 35.0405 16.68L34.7805 16.86C34.6005 17 34.4405 17.06 33.8805 17.18L33.8405 17.5C33.8005 17.74 33.7405 17.88 33.6405 18C33.4805 18.22 33.5805 18.24 33.8605 18.04C34.1405 17.86 34.3405 17.8 35.1205 17.74L35.2605 17.88C35.3205 17.96 35.3805 18.06 35.3805 18.1C35.3805 18.22 34.8805 18.68 34.7205 18.72C34.6805 18.72 34.6205 18.74 34.5805 18.76C34.4805 18.8 34.1405 18.9 34.1005 18.9C34.0805 18.9 34.0405 18.92 34.0005 18.94C33.9205 18.98 33.3405 18.88 33.1805 18.8C33.1005 18.76 33.0205 18.72 32.9805 18.72C32.8605 18.72 32.8605 18.36 32.9805 18.36C33.0205 18.36 33.0205 18.34 33.0005 18.32C32.7805 18.16 32.7405 17.72 32.8005 16.46C32.8805 14.8 32.8805 14.56 32.7605 14.52C32.6405 14.48 32.6205 14.42 32.6405 14.18C32.6605 13.98 32.7405 13.82 33.2605 13C33.6405 12.42 33.6805 12.48 32.8005 12.24C32.5805 12.18 32.3805 12.1 32.3405 12.06C32.3205 12.02 32.2605 11.96 32.2405 11.92C32.0405 11.7 32.4405 11.34 32.9405 11.28C33.0405 11.26 33.1405 11.24 33.1605 11.22C33.1805 11.2 33.3205 11.18 33.4605 11.16C33.7405 11.14 33.8205 11.12 33.9405 11.08C33.9805 11.06 34.1805 11 34.4005 10.94ZM28.0605 11.36L28.0005 11.34C28.1805 11.26 28.2605 11.28 28.4205 11.42C28.5405 11.54 28.5605 11.56 28.5005 11.6C28.4205 11.66 28.2805 11.88 28.2805 11.94C28.2805 12.02 28.0205 12.34 27.7205 12.66C27.5005 12.88 27.4605 12.96 27.4805 13.06C27.5005 13.12 27.5205 13.22 27.5405 13.28C27.5605 13.38 27.5805 13.4 27.6405 13.38C27.7405 13.34 28.1005 13.24 28.5805 13.12C29.2005 12.96 29.4405 13.04 29.7405 13.5C29.9205 13.76 29.8805 14.42 29.6605 14.86C29.6205 14.96 29.5405 15.16 29.5005 15.3C29.4205 15.54 29.2605 15.8 29.1805 15.8C29.1605 15.8 29.1205 15.84 29.1005 15.88C29.0605 15.92 29.0005 15.94 28.9605 15.92C28.8605 15.88 28.8605 15.92 28.9805 16.02C29.1005 16.14 29.1005 16.2 28.9205 16.4C28.7205 16.62 28.5205 16.76 28.3805 16.78C28.1405 16.82 28.1205 16.86 28.2005 17.02C28.2405 17.1 28.2805 17.32 28.2805 17.52C28.3005 17.88 28.3605 17.98 28.5405 17.98C28.6005 17.98 28.7005 18.02 28.7605 18.06C28.9405 18.14 29.8405 18.3 30.1805 18.3C30.4605 18.3 30.5205 18.32 30.5205 18.46C30.5205 18.52 30.5605 18.56 30.6205 18.56C30.7205 18.56 30.9005 18.9 30.8405 19.02C30.7605 19.26 30.3205 19.56 30.1205 19.54C29.7805 19.48 28.8005 19.18 28.7005 19.08C28.6405 19.04 28.5805 19 28.5605 19C28.5405 19 28.5405 19.28 28.5405 19.64C28.5605 20.68 28.4605 21.18 28.1405 21.66C27.8605 22.1 27.5005 22.54 27.3605 22.64C27.1805 22.76 26.8005 22.7 26.8005 22.56C26.8005 22.52 26.7605 22.46 26.7005 22.4C26.6005 22.32 26.5805 22.2 26.6405 22.08C27.0405 21.28 27.1605 21 27.1605 20.9C27.1605 20.84 27.2205 20.58 27.2805 20.34C27.3605 20.02 27.4005 19.76 27.4005 19.06L27.2005 19.44C26.9205 20 26.4205 20.4 26.1205 20.3C25.8605 20.22 25.6605 19.88 25.8205 19.78C25.8405 19.76 25.8605 19.7 25.8605 19.64C25.8605 19.6 25.9605 19.48 26.0805 19.38C26.2005 19.28 26.3405 19.12 26.3805 19.02C26.6005 18.64 26.9805 18.06 27.0205 18C27.1405 17.88 27.3605 17.52 27.4005 17.38C27.4405 17.22 27.4005 17.22 27.0805 17.34C27.0205 17.36 26.9605 17.36 26.9405 17.34C26.9205 17.32 26.8005 17.3 26.6805 17.28C26.3005 17.22 26.0805 16.88 26.3405 16.74C26.4605 16.68 26.4805 16.64 26.4005 16.6C26.3405 16.56 26.3605 16.32 26.4605 15.86C26.5205 15.64 26.6005 15.22 26.6605 14.94C26.7805 14.22 26.9205 13.52 26.9805 13.38C27.0205 13.26 27.0205 13.26 26.9005 13.28C26.2805 13.32 26.2805 12.74 26.9005 12.26C27.0605 12.14 27.2005 12.04 27.2205 12.04C27.2405 12.04 27.3205 11.98 27.4205 11.9C27.5005 11.82 27.6605 11.7 27.7805 11.62C27.8805 11.54 27.9605 11.46 27.9605 11.44C27.9605 11.42 28.0005 11.38 28.0605 11.36ZM28.9605 13.78L28.9205 13.76C28.8805 13.76 28.8205 13.76 28.7805 13.74C28.7405 13.74 28.6205 13.76 28.5205 13.78C28.4205 13.8 28.2005 13.82 28.0205 13.84C27.8405 13.86 27.6805 13.88 27.6605 13.88H27.5605C27.5005 13.88 27.4805 13.94 27.4805 14.34V14.8C27.4805 14.8 27.6605 14.72 27.8805 14.62C28.2805 14.46 28.5005 14.44 28.7405 14.56C28.8405 14.62 28.9605 14.36 29.0005 14.02C29.0205 13.82 29.0205 13.78 28.9605 13.78ZM35.0405 14.76C35.0205 14.66 35.0005 14.66 34.5405 14.66H34.0405H33.7405C33.5005 14.66 33.4605 14.68 33.4805 14.76C33.5005 14.8 33.5205 14.92 33.5405 15C33.5805 15.2 33.5405 15.2 34.1605 15.04C34.4205 14.98 34.7405 14.92 34.8405 14.9C35.0205 14.88 35.0405 14.86 35.0405 14.76ZM28.4005 15.44L28.4205 15.46C28.4205 15.36 28.2205 15.34 28.0805 15.42C28.0405 15.44 27.9605 15.46 27.9205 15.48C27.8805 15.48 27.8205 15.5 27.7805 15.52C27.7405 15.54 27.6605 15.54 27.5805 15.52C27.4205 15.48 27.3805 15.56 27.3805 15.92C27.3805 16.04 27.3605 16.18 27.3405 16.24C27.2805 16.34 27.2805 16.34 27.6005 16.14C27.8405 15.98 28.0005 15.92 28.3205 15.88C28.6205 15.84 28.6405 15.82 28.5005 15.64C28.4405 15.58 28.4005 15.48 28.4005 15.44ZM34.9405 16.2L34.9205 16.28C34.9405 16.26 34.9405 16.12 34.9405 15.96C34.9405 15.8 34.9205 15.68 34.8805 15.7C34.8605 15.72 34.8005 15.74 34.7405 15.74H34.6605C34.6205 15.78 34.2605 15.84 33.6605 15.9L33.6805 16.2C33.7205 16.56 33.7205 16.56 33.8405 16.48C33.8805 16.44 33.9405 16.42 33.9805 16.42C34.0205 16.42 34.2005 16.34 34.3805 16.24C34.7405 16.06 34.8005 16.06 34.8805 16.16C34.9005 16.2 34.9405 16.22 34.9405 16.2ZM34.2805 19.06H34.3005C34.3205 19.04 34.3605 19.04 34.3805 19.06C34.4205 19.1 34.4005 19.14 34.3205 19.22C34.2205 19.3 34.1805 19.38 34.1605 19.56C34.1405 19.74 34.1405 19.78 34.1805 19.7C34.2805 19.5 34.5805 19.44 34.9805 19.52C35.1405 19.56 35.3605 19.6 35.4805 19.62C36.2205 19.72 36.9605 19.94 36.9605 20.06C36.9605 20.08 37.0005 20.12 37.0605 20.14C37.3005 20.26 37.4005 20.78 37.1805 20.86C37.1405 20.88 37.1005 20.92 37.1005 20.96C37.1005 21 37.0805 21.04 37.0405 21.04C37.0005 21.04 36.9205 21.1 36.8605 21.16C36.7805 21.22 36.7005 21.26 36.6805 21.24C36.6605 21.24 36.5605 21.22 36.4605 21.2C35.8205 21.12 34.8205 20.8 34.6205 20.6C34.4005 20.38 34.2005 20.1 34.1205 19.8L34.0605 20C34.0205 20.1 33.8805 20.42 33.7405 20.72C33.6005 21.02 33.4805 21.28 33.4805 21.3C33.4805 21.34 33.3005 21.5 33.1005 21.64C32.9405 21.74 32.9005 21.74 32.7805 21.7C32.6205 21.64 32.4205 21.44 32.4205 21.32C32.4205 21.22 32.5805 20.78 32.6805 20.64C32.8005 20.44 33.2205 19.86 33.2805 19.8C33.3205 19.76 33.3805 19.68 33.4205 19.6C33.4805 19.46 33.6005 19.3 33.7605 19.12C33.8205 19.06 33.9005 19.04 34.0405 19.06H34.2805ZM41.8873 11.18L41.8473 11.22C42.0273 11.12 42.1273 11.14 42.3073 11.32C42.3673 11.38 42.7873 11.76 43.2273 12.12C43.2873 12.18 43.4073 12.28 43.5073 12.36C43.6073 12.44 43.8673 12.66 44.0873 12.86C44.2873 13.06 44.5473 13.3 44.6473 13.38C44.9473 13.64 44.9673 13.66 45.0073 13.8C45.0273 13.86 45.0673 13.94 45.1073 13.98C45.1873 14.06 45.1473 14.22 45.0273 14.3C44.9873 14.34 44.9473 14.4 44.9473 14.44C44.9473 14.48 44.9073 14.52 44.8673 14.54C44.8273 14.56 44.7273 14.62 44.6473 14.68C44.5673 14.74 44.4873 14.78 44.4473 14.76C44.4073 14.74 44.3073 14.78 44.2073 14.84C43.9073 15.02 43.5873 14.86 43.6673 14.56C43.6873 14.46 43.6473 14.4 43.4273 14.2C43.2873 14.06 43.0673 13.84 42.9473 13.7C42.8273 13.56 42.6673 13.38 42.6073 13.32C41.7473 12.38 41.4273 11.44 41.8873 11.18ZM49.7873 13L49.7273 13.04C49.7673 13.02 49.8273 13 49.8673 13.02C49.9473 13.04 50.1273 13.38 50.0873 13.44C50.0673 13.48 50.0673 13.68 50.0873 14.26L50.2673 14.22C50.4273 14.18 50.5673 14.16 50.7673 14.14C50.8273 14.14 50.9473 14.12 51.0273 14.1C51.1073 14.08 51.2273 14.06 51.2873 14.06C51.3473 14.06 51.4673 14.04 51.5473 14.04C51.6273 14.02 51.7673 14 51.8473 14C51.9273 14 52.0673 13.98 52.1473 13.98C52.4073 13.94 52.6473 13.96 52.7873 14.06C53.1673 14.3 53.4473 14.7 53.4473 15.02C53.4473 15.44 52.8673 16.18 52.1473 16.66C52.0873 16.7 51.9873 16.76 51.9273 16.8C51.8673 16.84 51.8073 16.86 51.7873 16.84C51.7673 16.82 51.6673 16.82 51.5673 16.86C51.3273 16.92 51.1273 16.88 51.1073 16.8C51.0873 16.76 51.0473 16.72 51.0273 16.7C50.9473 16.64 51.0473 16.36 51.2073 16.2C51.4273 15.98 51.8473 15.46 51.8473 15.42C51.8473 15.38 51.7473 15.38 51.5073 15.44C51.2673 15.48 50.9673 15.52 50.6273 15.56C50.5473 15.56 50.4473 15.58 50.3873 15.6C50.3273 15.62 50.2673 15.64 50.2473 15.64C50.0873 15.66 50.0673 15.74 50.0473 16.38C50.0073 17.2 49.9073 17.64 49.7273 17.82C49.4873 18.06 49.2273 17.92 49.1073 17.5C49.0473 17.3 49.1073 16.66 49.1873 16.56C49.2073 16.54 49.2273 16.4 49.2473 16.26C49.2673 16.12 49.2873 15.98 49.3073 15.94C49.3273 15.86 49.2273 15.86 48.9473 15.94C48.8673 15.96 48.7673 15.98 48.7273 15.98C48.6673 15.98 48.5873 16 48.2673 16.06C48.0873 16.1 47.9273 16.14 47.7673 16.16C47.6873 16.18 47.6273 16.2 47.6273 16.2C47.5873 16.24 47.6873 17.24 47.7473 17.44C47.9473 18.18 48.6673 19.14 49.0873 19.24C49.1473 19.26 49.2273 19.28 49.2473 19.3C49.2673 19.32 49.4273 19.38 49.6073 19.42C49.7673 19.48 50.0073 19.58 50.1273 19.64C50.6873 19.98 51.7873 20.28 52.4673 20.28C52.7073 20.28 52.8873 20.32 53.2473 20.44C53.8873 20.66 53.9273 20.66 54.0873 20.54C54.2673 20.4 54.3673 20.46 54.5473 20.84C54.7273 21.2 54.7473 21.52 54.6073 21.62C54.5473 21.66 54.5073 21.72 54.5073 21.74C54.5073 21.78 54.4473 21.84 54.3673 21.86C54.2873 21.9 54.2073 21.96 54.1673 21.98C54.0473 22.1 53.9473 22.12 53.7073 22.12C53.4473 22.1 52.9473 21.98 52.7473 21.88C52.6673 21.84 52.4673 21.8 52.3073 21.78C52.0073 21.76 51.7073 21.72 51.5873 21.68C51.5473 21.66 51.4473 21.64 51.3673 21.62C50.8073 21.52 50.5473 21.44 50.1273 21.26C49.9073 21.16 49.6873 21.04 49.6473 21C49.6073 20.96 49.3873 20.84 49.1673 20.72C48.9473 20.62 48.7273 20.52 48.6873 20.5C48.6473 20.48 48.5273 20.42 48.4073 20.38C48.3073 20.32 48.1873 20.22 48.1273 20.14C48.0673 20.06 47.9473 19.96 47.8473 19.92C47.7473 19.86 47.6473 19.76 47.6273 19.7C47.5873 19.64 47.5073 19.52 47.4273 19.44C47.3473 19.36 47.2873 19.26 47.2873 19.22C47.2873 19.18 47.2273 19.1 47.1673 19.04C47.1073 18.98 47.0473 18.9 47.0473 18.86C47.0473 18.82 46.9873 18.66 46.9073 18.5C46.7673 18.2 46.7073 18.04 46.5873 17.78C46.5073 17.58 46.4673 17.22 46.4673 16.7C46.4673 16.2 46.4673 16.2 46.3673 16.22C46.3073 16.24 46.2073 16.26 46.1473 16.28C46.0873 16.3 46.0073 16.3 45.9673 16.28C45.9273 16.26 45.8873 16.26 45.8673 16.28C45.7473 16.38 45.4073 16.28 45.3073 16.1C45.1273 15.78 45.4873 15.46 46.2273 15.26C46.3873 15.22 46.4473 15.18 46.4273 15.14C46.4273 15.1 46.4073 14.88 46.3873 14.66C46.3673 14.34 46.3473 14.24 46.2873 14.16C46.2073 14.06 46.2073 14.04 46.2673 13.92C46.3473 13.78 46.4273 13.6 46.4673 13.48C46.5273 13.3 47.0073 13.2 47.0073 13.36C47.0073 13.4 47.0273 13.42 47.0673 13.42C47.1473 13.42 47.2873 13.7 47.2873 13.84C47.2873 13.9 47.3273 14.02 47.3873 14.1C47.4273 14.2 47.4873 14.4 47.5073 14.56C47.5273 14.7 47.5473 14.84 47.5673 14.84C47.6073 14.88 47.8473 14.82 48.8473 14.54C49.0473 14.48 49.3073 14.42 49.6473 14.34V13.94C49.6473 13.42 49.7073 13.06 49.7873 13ZM43.2073 15.7L43.1673 15.68C43.5073 15.48 44.1073 15.82 43.8673 16.08C43.8273 16.12 43.7873 16.2 43.7673 16.24C43.7473 16.34 43.7073 16.36 43.5673 16.34C43.5273 16.34 43.4273 16.38 43.3473 16.46C43.2673 16.52 42.9873 16.66 42.7273 16.76C42.4673 16.86 42.1873 16.98 42.1073 17.02C42.0273 17.08 41.9473 17.12 41.9473 17.12C41.9273 17.1 41.8673 17.1 41.8073 17.14C41.5473 17.24 41.2873 17.06 41.3473 16.82C41.3673 16.72 41.4673 16.64 41.7273 16.48C41.9273 16.36 42.1273 16.24 42.1673 16.2C42.2073 16.16 42.4073 16.06 42.6273 15.96C42.8473 15.88 43.1073 15.76 43.2073 15.7ZM44.1873 19.12C44.3273 19.04 44.4073 19.06 44.6073 19.34L44.4073 19.66C44.3073 19.84 44.0673 20.14 43.8873 20.32C43.5073 20.7 43.1073 21.2 42.8873 21.54C42.6073 21.96 42.1873 22.06 42.1873 21.7C42.1873 21.54 42.6073 20.76 42.8273 20.5C42.8673 20.46 42.9673 20.34 43.0473 20.24C43.2073 20.04 43.1873 20.06 43.6873 19.56C43.9073 19.34 44.1273 19.14 44.1873 19.12Z" fill="#004B97"/>
</svg>
