<svg width="57" height="32" viewBox="0 0 57 32" fill="none" xmlns="http://www.w3.org/2000/svg">
<path d="M17.8532 1.97L17.7832 2C17.9632 1.93 18.0932 1.94 18.1232 2.02C18.1332 2.05 18.1532 2.07 18.1632 2.06C18.1932 2.04 18.2532 2.11 18.2532 2.16C18.2532 2.18 18.2632 2.2 18.2732 2.2C18.2832 2.2 18.2932 2.22 18.2932 2.24C18.2932 2.26 18.3032 2.28 18.3232 2.28C18.3332 2.28 18.3532 2.29 18.3732 2.31C18.3932 2.33 18.4632 2.38 18.5332 2.43C18.6032 2.47 18.7132 2.55 18.7832 2.6C18.8532 2.65 18.9132 2.7 18.9232 2.7C18.9332 2.7 18.9732 2.73 19.0132 2.77C19.0532 2.8 19.1232 2.86 19.1632 2.9C19.3232 3.03 19.5532 3.25 19.6632 3.37C19.7232 3.44 19.7832 3.51 19.7932 3.53C19.8432 3.58 19.9032 3.75 19.9032 3.82C19.9032 3.94 19.8532 3.96 19.7432 3.88C19.6932 3.84 19.6332 3.81 19.6132 3.81C19.5932 3.81 19.5432 3.78 19.5032 3.75C19.3932 3.66 19.3932 3.66 19.2932 3.6C19.2432 3.57 19.1932 3.54 19.1932 3.53C19.1932 3.52 19.1432 3.49 19.0932 3.46C19.0432 3.43 18.9732 3.39 18.9432 3.37C18.9132 3.34 18.8532 3.29 18.8032 3.26C18.7632 3.23 18.6732 3.15 18.6132 3.08C18.5432 3.02 18.4632 2.94 18.4332 2.91C18.3932 2.88 18.3232 2.81 18.2732 2.76C18.1332 2.6 18.1232 2.6 18.0932 2.69L17.9632 2.95C17.9032 3.05 17.8532 3.14 17.8532 3.16C17.8532 3.19 17.7232 3.4 17.5832 3.6C17.5232 3.68 17.4432 3.79 17.4032 3.85C17.3632 3.91 17.3232 3.96 17.3132 3.96C17.2932 3.98 17.2232 4.12 17.2332 4.12C17.2432 4.12 17.2732 4.11 17.3032 4.09C17.3332 4.08 17.5032 4.05 17.6732 4.03C17.8432 4.01 18.0132 3.99 18.0432 3.99C18.0832 3.98 18.2832 3.97 18.8632 3.95L18.9232 4.02C18.9532 4.06 18.9832 4.1 18.9832 4.11C18.9832 4.16 18.8332 4.28 18.7732 4.28C18.7632 4.28 18.6832 4.31 18.5932 4.35C18.5032 4.39 18.4132 4.42 18.4032 4.42C18.3832 4.42 18.3432 4.43 18.3132 4.44C18.0432 4.55 17.1332 4.51 17.1332 4.39C17.1332 4.31 17.0832 4.34 16.9632 4.49C16.8932 4.58 16.8232 4.65 16.8032 4.65C16.7832 4.65 16.7332 4.68 16.6932 4.72C16.6132 4.78 16.6032 4.78 16.5332 4.75C16.4932 4.73 16.4532 4.72 16.4532 4.72C16.4332 4.74 16.3232 4.68 16.3232 4.65C16.3232 4.63 16.2932 4.58 16.2532 4.54C16.1732 4.45 16.1732 4.28 16.2632 4.11C16.2832 4.06 16.3032 4 16.3032 3.98C16.3032 3.96 16.3232 3.91 16.3532 3.88C16.3832 3.84 16.4232 3.76 16.4532 3.7C16.4832 3.64 16.5332 3.55 16.5732 3.5C16.6132 3.45 16.6632 3.38 16.6932 3.34C16.8132 3.18 17.1232 2.77 17.1632 2.73C17.1832 2.7 17.2432 2.61 17.2932 2.53C17.4232 2.32 17.7132 2.03 17.8532 1.97ZM14.7232 2.03V1.98C14.8032 1.95 14.8232 1.96 14.9132 2.04C14.9832 2.11 14.9932 2.13 14.9632 2.17C14.9432 2.21 14.9532 2.26 15.0032 2.39C15.0432 2.52 15.0632 2.63 15.0732 2.86C15.0832 3.03 15.0932 3.24 15.1132 3.5H15.4632C15.8232 3.5 15.8832 3.52 15.8832 3.61C15.8832 3.63 15.9132 3.65 15.9532 3.66C16.0032 3.68 16.0232 3.71 16.0332 3.77C16.0432 3.82 16.0632 3.87 16.0832 3.88C16.1332 3.91 16.0932 4.03 16.0332 4.06C16.0032 4.07 15.9832 4.1 15.9832 4.13C15.9832 4.17 15.9732 4.19 15.9432 4.19C15.9232 4.19 15.8732 4.22 15.8332 4.25C15.7632 4.31 15.7532 4.31 15.4932 4.31C15.3432 4.31 15.2132 4.31 15.2032 4.32C15.1932 4.32 15.1832 4.62 15.1832 5.64L15.2432 5.66C15.2732 5.67 15.2932 5.69 15.2932 5.71C15.2932 5.73 15.3132 5.75 15.3332 5.76C15.3632 5.77 15.3832 5.79 15.3832 5.82C15.3832 5.85 15.3932 5.87 15.4032 5.87C15.4132 5.87 15.4232 5.88 15.4232 5.89C15.4232 5.93 15.3232 6.05 15.2932 6.05C15.2732 6.05 15.2532 6.06 15.2432 6.08C15.2432 6.09 15.2232 6.1 15.2032 6.11C15.1632 6.12 15.0632 6.63 15.0132 7.1C14.9932 7.27 14.9532 7.5 14.9332 7.62C14.9132 7.73 14.8932 7.85 14.8932 7.89C14.8932 8.03 14.7632 8.26 14.6532 8.32C14.5332 8.39 14.4432 8.35 14.3632 8.2C14.3032 8.08 14.3532 7.97 14.4432 8.05C14.4832 8.09 14.4832 8.07 14.4632 7.92C14.4432 7.77 14.5232 6.82 14.5832 6.48C14.6232 6.27 14.6232 6.22 14.6032 6.24C14.5832 6.25 14.5232 6.26 14.3732 6.29C14.3332 6.3 14.2132 6.32 14.1132 6.34C14.0032 6.36 13.8932 6.37 13.8732 6.36C13.8532 6.35 13.8332 6.35 13.8332 6.36C13.8432 6.43 13.7932 6.47 13.7232 6.45C13.6532 6.42 13.5632 6.26 13.5732 6.2C13.6032 6.08 14.0032 5.9 14.6132 5.77L14.6032 5.15C14.6032 4.81 14.5932 4.47 14.5832 4.27H14.4032C14.3032 4.27 14.1532 4.26 14.0732 4.25C13.9932 4.24 13.8832 4.22 13.8332 4.21C13.7732 4.21 13.7132 4.2 13.6932 4.19C13.6732 4.18 13.6232 4.17 13.5832 4.16C13.5432 4.15 13.4832 4.13 13.4432 4.12C13.4032 4.1 13.3632 4.09 13.3432 4.09C13.3332 4.09 13.3232 4.08 13.3232 4.07C13.3232 4.06 13.3032 4.03 13.2832 4.01C13.2132 3.94 13.2732 3.8 13.3932 3.75C13.5932 3.67 13.6532 3.65 13.8432 3.64C13.9532 3.63 14.0832 3.61 14.1332 3.6C14.1732 3.59 14.2932 3.58 14.5932 3.58L14.6032 3.37C14.6132 3.25 14.6232 2.93 14.6332 2.67C14.6432 2.13 14.6532 2.06 14.7232 2.03ZM18.3332 5.59L18.2732 5.63C18.9332 5.49 19.3532 5.7 19.4432 6.22C19.5232 6.68 19.4832 7.18 19.3632 7.31C19.3432 7.33 19.3332 7.36 19.3432 7.37C19.4132 7.49 19.1232 7.77 18.7932 7.9C18.7032 7.94 18.6032 7.98 18.5732 8C18.4332 8.09 18.0632 8.11 17.8232 8.04C17.7532 8.02 17.6032 7.98 17.4932 7.96C17.3632 7.93 17.2732 7.9 17.2632 7.87C17.2532 7.85 17.2232 7.8 17.1932 7.76C17.1432 7.69 17.1332 7.62 17.1732 7.55C17.1832 7.53 17.2032 7.48 17.2232 7.44C17.2432 7.4 17.2832 7.36 17.3132 7.35C17.4132 7.33 17.4232 7.3 17.4032 7.13C17.3732 6.86 17.3032 6.49 17.2532 6.35C17.2032 6.22 17.2032 5.89 17.2432 5.86C17.2532 5.85 17.2632 5.82 17.2632 5.79C17.2632 5.7 17.7332 5.6 17.8032 5.68C17.8432 5.72 17.8532 5.72 18.0132 5.67C18.1032 5.64 18.2432 5.6 18.3332 5.59ZM18.8632 6.09H18.8532C18.8432 6.08 18.5832 6.07 18.5732 6.08C18.5632 6.09 18.4732 6.11 18.3432 6.12C18.2832 6.13 18.1932 6.14 18.1432 6.15C18.0432 6.16 17.8032 6.22 17.7932 6.24C17.7832 6.25 17.8132 6.32 17.8432 6.4C17.9032 6.54 17.9032 6.55 17.9032 7.32H18.0232C18.1332 7.32 18.4832 7.21 18.5532 7.15C18.5632 7.14 18.6032 7.13 18.6432 7.13C18.7432 7.13 18.7832 7.01 18.8032 6.63C18.8132 6.49 18.8332 6.31 18.8532 6.23C18.8632 6.15 18.8732 6.09 18.8632 6.09ZM23.7656 1.36V1.34C23.8456 1.3 23.8856 1.3 24.0056 1.37C24.1356 1.44 24.1556 1.47 24.0856 1.49C24.0456 1.5 24.0356 1.53 24.0256 1.68C24.0156 1.8 23.9756 1.95 23.9156 2.12C23.8256 2.37 23.8256 2.38 23.8556 2.46C24.0156 2.8 23.8856 4.24 23.6756 4.45C23.5956 4.53 23.4856 4.53 23.4656 4.45C23.4556 4.43 23.4456 4.41 23.4356 4.41C23.4256 4.41 23.4056 4.36 23.3856 4.29C23.3556 4.16 23.4256 3.47 23.5156 3.09C23.5356 3.01 23.5556 2.93 23.5556 2.91C23.5556 2.86 23.3156 3.29 23.0156 3.87C22.9356 4.03 22.7856 4.23 22.7456 4.23C22.7256 4.23 22.6856 4.26 22.6456 4.3C22.5456 4.39 22.4756 4.41 22.4056 4.37C22.3756 4.35 22.3156 4.34 22.2656 4.34C22.1756 4.34 22.1256 4.31 22.1256 4.25C22.1256 4.23 22.0956 4.18 22.0556 4.14C21.9756 4.04 21.9656 3.94 22.0356 3.81C22.0656 3.76 22.0856 3.71 22.0856 3.69C22.0856 3.61 22.2456 3.35 22.3956 3.19C22.4856 3.09 22.5856 2.98 22.6056 2.94C22.6456 2.88 22.7956 2.7 22.9756 2.51C23.0256 2.46 23.0956 2.37 23.1356 2.32C23.1756 2.26 23.2356 2.19 23.2656 2.15C23.2956 2.12 23.3656 2.01 23.4056 1.92C23.4556 1.82 23.5456 1.67 23.6056 1.58C23.6656 1.49 23.7156 1.41 23.7156 1.4C23.7156 1.39 23.7356 1.37 23.7656 1.36ZM25.9456 1.7L25.9356 1.74C26.0456 1.65 26.1356 1.74 26.1656 1.98C26.1956 2.17 26.1856 2.16 26.3256 2.09C26.4056 2.05 26.9156 1.9 26.9756 1.9C27.0556 1.9 27.1056 1.92 27.1056 1.95C27.1056 1.97 27.1156 1.98 27.1356 1.98C27.1656 1.98 27.2456 2.1 27.2456 2.14C27.2456 2.16 27.0556 2.33 27.0356 2.33C27.0256 2.33 26.9856 2.35 26.9456 2.38C26.9156 2.4 26.7956 2.45 26.6756 2.48C26.5656 2.51 26.4556 2.55 26.4256 2.56C26.4056 2.57 26.3756 2.58 26.3656 2.58C26.3556 2.58 26.2956 2.6 26.2356 2.62C26.1256 2.67 26.1256 2.66 26.0456 3.17H26.1456C26.1956 3.17 26.2956 3.15 26.3656 3.13C26.4256 3.1 26.5056 3.07 26.5356 3.07C26.5656 3.06 26.6356 3.04 26.6856 3.02C26.8556 2.98 26.9756 3.04 27.0556 3.2C27.0856 3.26 27.0156 3.41 26.9556 3.41C26.9356 3.41 26.9056 3.43 26.8856 3.45C26.8656 3.47 26.7956 3.5 26.7356 3.52C26.6756 3.54 26.5656 3.58 26.4956 3.62C26.3856 3.67 26.3456 3.68 26.1856 3.67C25.6956 3.66 25.6656 3.65 25.4656 3.41L25.5356 3.14C25.5756 2.99 25.6156 2.84 25.6256 2.81C25.6456 2.74 25.6256 2.73 25.3956 2.68C25.3056 2.66 25.2556 2.58 25.2856 2.49C25.3056 2.43 25.3656 2.4 25.6956 2.29C25.7356 2.28 25.7756 2.25 25.7856 2.23C25.8056 2.16 25.8656 1.89 25.8756 1.81C25.8856 1.77 25.9156 1.72 25.9456 1.7ZM25.8656 4.37L25.8556 4.4C26.0856 4.34 26.1756 4.35 26.2456 4.43C26.2756 4.46 26.3056 4.48 26.3156 4.48C26.3356 4.48 26.4256 4.67 26.5056 4.9C26.6056 5.16 26.6156 5.65 26.5356 5.96C26.5056 6.09 26.4756 6.25 26.4656 6.32C26.4456 6.52 26.4056 6.64 26.3456 6.69C26.3156 6.72 26.2956 6.76 26.2956 6.77C26.2956 6.79 26.2756 6.81 26.2556 6.82C26.2256 6.83 26.2256 6.84 26.2456 6.86C26.2856 6.9 26.2856 6.92 26.2056 7C26.1356 7.07 25.8156 7.23 25.7456 7.23C25.7256 7.23 25.6856 7.25 25.6656 7.27C25.6156 7.31 25.3856 7.4 25.3256 7.41C25.2356 7.42 25.0256 7.5 25.0056 7.53C24.9856 7.55 24.9656 7.55 24.9356 7.54C24.9156 7.53 24.8656 7.52 24.8356 7.52C24.7956 7.52 24.7656 7.5 24.7456 7.46C24.7256 7.42 24.6856 7.37 24.6556 7.34C24.5956 7.27 24.6056 7.14 24.7056 6.87C24.7556 6.73 24.8056 6.57 24.8156 6.5C24.8256 6.44 24.8456 6.35 24.8656 6.31C24.8856 6.27 24.9356 6.07 24.9756 5.87C25.0156 5.67 25.0556 5.49 25.0656 5.46C25.0856 5.42 25.2156 4.96 25.2756 4.72C25.2856 4.67 25.3156 4.58 25.3956 4.4L25.5256 4.41C25.6156 4.42 25.7256 4.41 25.8656 4.37ZM25.5256 4.53H25.5356C25.5356 4.52 25.5256 4.51 25.5056 4.51C25.4956 4.51 25.4856 4.52 25.4856 4.53C25.4856 4.54 25.4956 4.55 25.5056 4.55C25.5156 4.55 25.5256 4.54 25.5256 4.53ZM25.8156 4.87L25.7956 4.86C25.6956 4.83 25.6156 4.82 25.5956 4.84C25.5656 4.87 25.5656 5.17 25.6056 5.16C25.8156 5.1 25.8756 5.08 25.8756 5.05C25.8756 4.97 25.8456 4.88 25.8156 4.87ZM25.8356 5.63L25.8456 5.64C25.8456 5.58 25.7656 5.56 25.6956 5.61C25.6756 5.62 25.6456 5.62 25.6256 5.61C25.5656 5.59 25.5456 5.63 25.5056 5.97L25.6056 5.94C25.7656 5.9 25.8356 5.81 25.8356 5.63ZM25.6556 6.51H25.6756C25.6756 6.39 25.6656 6.31 25.6456 6.31C25.4956 6.33 25.4956 6.33 25.4756 6.43C25.4656 6.48 25.4456 6.59 25.4356 6.67C25.4056 6.84 25.4056 6.84 25.5056 6.77C25.5556 6.74 25.5956 6.71 25.6056 6.71H25.6356C25.6456 6.71 25.6556 6.62 25.6556 6.51ZM25.5756 7.49L25.6256 7.52C25.7756 7.46 25.8756 7.52 25.7256 7.58C25.6556 7.61 25.6456 7.62 25.6356 7.71C25.6056 8.14 25.1456 8.9 24.8856 8.94C24.8556 8.94 24.8256 8.95 24.8056 8.95C24.7656 8.98 24.6056 8.91 24.5556 8.84C24.4956 8.77 24.4756 8.67 24.5156 8.67C24.5256 8.67 24.5356 8.65 24.5356 8.63C24.5356 8.57 24.6256 8.5 24.7256 8.46C24.7756 8.44 24.8456 8.38 24.9156 8.3C25.0756 8.11 25.2256 7.92 25.2256 7.89C25.2256 7.85 25.4156 7.55 25.4456 7.54C25.4656 7.53 25.5256 7.51 25.5756 7.49ZM26.3556 7.77L26.3856 7.75C26.5556 7.68 26.9356 7.72 27.0256 7.81C27.0456 7.83 27.0956 7.86 27.1356 7.87C27.1756 7.88 27.2156 7.91 27.2256 7.93C27.2356 7.96 27.2656 7.99 27.2856 8C27.4056 8.03 27.5156 8.43 27.4056 8.43C27.3956 8.43 27.3756 8.46 27.3656 8.5C27.3556 8.53 27.3356 8.56 27.3156 8.57C27.2956 8.57 27.2556 8.59 27.1556 8.67L26.9856 8.63C26.8256 8.59 26.6756 8.5 26.6556 8.44C26.6456 8.41 26.4056 8.22 26.3756 8.22C26.3456 8.22 26.0356 8.01 26.0356 7.99C26.0356 7.95 26.2356 7.81 26.3556 7.77ZM32.2672 0.74L32.2372 0.77C32.3772 0.63 32.5072 0.97 32.5072 1.77H32.5672C32.5972 1.77 32.7272 1.75 32.8472 1.73C33.1372 1.68 35.1272 1.63 35.2272 1.67C35.2472 1.68 35.2772 1.72 35.2972 1.76C35.3172 1.8 35.3472 1.83 35.3672 1.83C35.4072 1.83 35.4572 1.9 35.4772 1.99C35.4872 2.02 35.5072 2.05 35.5272 2.06C35.6072 2.11 35.5172 2.53 35.3972 2.63C35.3672 2.65 35.3472 2.68 35.3472 2.69C35.3472 2.72 35.1372 2.91 35.0772 2.93C35.0472 2.94 35.0072 2.96 34.9872 2.98C34.9672 3 34.9272 3.02 34.9072 3.03C34.8772 3.04 34.8172 3.06 34.7772 3.08C34.7272 3.1 34.6772 3.11 34.6672 3.11C34.6572 3.11 34.6372 3.12 34.6372 3.13C34.6272 3.14 34.6372 3.15 34.6672 3.15C34.7672 3.15 34.8972 3.36 34.8272 3.41C34.8072 3.43 34.7872 3.45 34.7872 3.46C34.7872 3.47 34.7772 3.48 34.7572 3.48C34.7472 3.48 34.7072 3.5 34.6772 3.52C34.6172 3.56 34.2672 3.66 34.1772 3.66C34.1372 3.66 34.1372 3.67 34.1572 3.74C34.1672 3.79 34.1772 3.85 34.1772 3.87C34.1772 3.9 34.1972 3.91 34.2872 3.91C34.4672 3.9 34.6672 4.02 34.6272 4.11C34.6172 4.13 34.6072 4.15 34.6072 4.16C34.6072 4.19 34.4372 4.34 34.3272 4.41C34.2472 4.46 34.1972 4.51 34.0772 4.74L34.1772 4.72C34.2272 4.71 34.2772 4.69 34.2772 4.68C34.3472 4.49 34.4572 4.42 34.5472 4.51C34.6472 4.62 34.6872 4.74 34.6572 4.86C34.6472 4.92 34.6372 5 34.6372 5.04C34.6372 5.13 34.5572 5.19 34.4772 5.16C34.4372 5.14 34.3872 5.15 34.2872 5.2C34.2172 5.23 34.1372 5.26 34.1172 5.27C34.0872 5.28 34.0372 5.29 34.0072 5.29C33.9772 5.3 33.9172 5.31 33.8672 5.32C33.8272 5.33 33.7972 5.33 33.7972 5.32C33.7972 5.31 33.7872 5.31 33.7672 5.32C33.7372 5.34 33.6672 5.36 33.5372 5.38C33.5072 5.39 33.4672 5.4 33.4472 5.4C33.4372 5.4 33.3972 5.42 33.3572 5.44C33.2572 5.49 32.9572 5.45 32.9372 5.39C32.9272 5.37 32.9072 5.35 32.8972 5.35C32.8672 5.35 32.8672 5.06 32.8972 5C32.9072 4.97 32.9372 4.88 32.9572 4.8C32.9972 4.63 33.0972 4.55 33.1572 4.63C33.1772 4.65 33.1972 4.67 33.2072 4.67C33.2372 4.67 33.2872 4.78 33.2872 4.85C33.2872 4.96 33.3072 4.97 33.4172 4.93C33.4672 4.91 33.5772 4.87 33.6672 4.84C33.8272 4.79 33.8272 4.79 33.8172 4.71C33.8172 4.52 33.8272 4.53 33.4672 4.53C33.0972 4.53 32.9772 4.5 32.9072 4.4C32.8072 4.26 32.9472 4.08 33.1472 4.08C33.1872 4.08 33.2972 4.05 33.3972 4.02C33.4972 3.99 33.5972 3.96 33.6272 3.96C33.6472 3.96 33.6672 3.95 33.6772 3.94C33.6872 3.93 33.7172 3.69 33.7072 3.69C33.6672 3.69 33.1872 3.62 33.1572 3.61C33.1272 3.6 33.0972 3.63 33.0472 3.7C32.8672 3.96 32.5572 4.19 32.4272 4.16C32.3372 4.14 32.2972 4.05 32.3272 3.95C32.3672 3.81 32.5472 3.47 32.6272 3.38C32.6672 3.33 32.7172 3.26 32.7472 3.22C32.7772 3.18 32.8672 3.07 32.9472 2.98C33.0272 2.89 33.1072 2.79 33.1172 2.76C33.1472 2.71 33.3172 2.61 33.3672 2.61C33.4172 2.61 33.5072 2.72 33.5172 2.8C33.5272 2.86 33.5072 2.91 33.4372 3.03C33.3472 3.18 33.3472 3.19 33.3872 3.18C33.4172 3.17 33.5172 3.16 33.6172 3.15C33.8072 3.13 33.8772 3.12 34.1072 3.08C34.3672 3.04 34.3872 3.03 34.3772 2.99C34.3672 2.97 34.3772 2.93 34.3972 2.9C34.4172 2.87 34.4372 2.83 34.4372 2.81C34.4372 2.77 34.5072 2.64 34.5672 2.55C34.6772 2.4 34.6172 2.38 33.9772 2.38C33.5472 2.38 33.3972 2.39 33.1372 2.43C33.0972 2.44 32.9572 2.45 32.8372 2.45C32.7172 2.46 32.5472 2.47 32.4572 2.47C32.3672 2.48 32.2672 2.49 32.2372 2.5C32.1972 2.51 32.1372 2.52 32.0972 2.53C32.0572 2.54 31.9772 2.55 31.9172 2.55C31.8572 2.56 31.7872 2.57 31.7572 2.57C31.6272 2.57 31.3272 2.55 31.2272 2.54C31.1672 2.53 31.0572 2.52 30.9872 2.52C30.9172 2.51 30.7772 2.49 30.6772 2.47C30.5772 2.46 30.4772 2.45 30.4472 2.45C30.4072 2.44 30.4072 2.45 30.4172 2.63C30.4172 2.74 30.4072 2.9 30.3872 2.98C30.3672 3.06 30.3572 3.13 30.3672 3.14C30.3772 3.15 30.3772 3.18 30.3672 3.21C30.3572 3.24 30.3372 3.29 30.3172 3.39L30.4472 3.34C30.6772 3.26 30.9572 3.21 31.4772 3.17C31.8272 3.14 31.8672 3.14 31.8872 3.2C31.8972 3.23 31.9172 3.25 31.9372 3.25C31.9572 3.25 31.9872 3.29 32.0172 3.34C32.0772 3.48 32.0172 3.58 31.7872 3.73C31.6672 3.81 31.5072 3.82 31.2672 3.77C31.2272 3.76 31.2172 3.77 31.2272 3.8C31.2372 3.82 31.2472 3.88 31.2472 3.93C31.2572 4.01 31.2672 4.02 31.3172 4.02C31.3472 4.02 31.4172 4.03 31.4672 4.04C31.5172 4.05 31.5772 4.06 31.6072 4.06C31.6472 4.06 31.6772 4.09 31.7272 4.18C31.7972 4.3 31.7972 4.3 31.7472 4.36C31.6772 4.45 31.4472 4.58 31.3772 4.57C31.2972 4.56 31.2772 4.58 31.2572 4.72C31.2272 4.98 31.2172 4.96 31.3672 5.01C31.4972 5.06 31.6172 5.16 31.6172 5.22C31.6172 5.25 31.4772 5.37 31.4472 5.37C31.4372 5.37 31.3772 5.4 31.3172 5.44C31.0972 5.55 30.8772 5.6 30.7172 5.57C30.6672 5.56 30.5772 5.55 30.5172 5.55C30.4072 5.54 30.2072 5.39 30.2072 5.32C30.2072 5.27 30.2972 5.2 30.3672 5.2C30.4072 5.2 30.4472 5.19 30.4472 5.18C30.4572 5.17 30.5172 5.16 30.5872 5.15C30.7572 5.13 30.7572 5.13 30.7972 4.85C30.8372 4.6 30.8372 4.54 30.7772 4.56C30.7572 4.57 30.7272 4.57 30.7072 4.56C30.6872 4.55 30.6272 4.53 30.5772 4.53C30.1772 4.47 30.0772 4.27 30.4072 4.17C30.5872 4.12 30.6672 4.1 30.7972 4.08C30.8872 4.07 30.8772 4.09 30.8872 3.82C30.8872 3.77 30.8472 3.75 30.6672 3.72C30.5572 3.7 30.3772 3.63 30.3372 3.59C30.3172 3.57 30.2972 3.56 30.2972 3.56C30.2972 3.56 30.2572 3.71 30.2172 3.88C30.1572 4.11 30.1272 4.2 30.0972 4.21C30.0772 4.22 30.0572 4.25 30.0472 4.28C30.0372 4.3 30.0172 4.33 29.9972 4.34C29.9772 4.35 29.9272 4.38 29.8872 4.41C29.8272 4.46 29.8172 4.46 29.7472 4.43C29.7072 4.41 29.6672 4.4 29.6572 4.41C29.6272 4.44 29.5172 4.38 29.5172 4.34C29.5172 4.32 29.4872 4.28 29.4572 4.26C29.3572 4.17 29.3972 3.98 29.6372 3.45C29.6672 3.38 29.6972 3.31 29.6972 3.3C29.6972 3.29 29.7272 3.21 29.7672 3.12C29.8072 3.03 29.8572 2.91 29.8772 2.86C29.8972 2.81 29.9472 2.7 30.0572 2.47L29.9772 2.41C29.9372 2.38 29.8972 2.34 29.8972 2.33C29.8972 2.25 30.1772 2.08 30.3172 2.08C30.3472 2.08 30.3772 2.07 30.3872 2.06C30.3972 2.05 30.4472 2.04 30.4972 2.04C30.5472 2.04 30.6372 2.03 30.6872 2.02C30.7372 2.01 30.8672 1.99 30.9672 1.99C31.0672 1.98 31.1972 1.97 31.2472 1.96C31.2972 1.95 31.4272 1.94 31.5372 1.94C31.7072 1.93 31.9572 1.88 31.9872 1.85C32.0072 1.83 32.0772 1.49 32.1172 1.23C32.1672 0.949999 32.2172 0.78 32.2672 0.74ZM32.3472 5.66V5.67C32.4372 5.61 32.5572 5.65 32.4772 5.71C32.4472 5.73 32.4472 5.75 32.5172 5.95L32.5772 5.92C32.7472 5.83 33.2672 5.87 33.2672 5.97C33.2672 5.98 33.2872 6 33.3072 6C33.3372 6.01 33.3572 6.03 33.3572 6.06C33.3572 6.09 33.3672 6.11 33.3772 6.11C33.3872 6.11 33.3972 6.14 33.3972 6.18C33.3972 6.22 33.4072 6.27 33.4272 6.3C33.5872 6.62 33.5972 7.83 33.4372 8.03C33.3872 8.1 33.2372 8.2 33.1972 8.2C33.1772 8.2 33.1072 8.22 33.0372 8.25C32.7972 8.33 31.9872 8.21 31.9872 8.09C31.9872 8.07 31.9772 8.05 31.9672 8.05C31.9372 8.05 31.9372 7.97 31.9672 7.9C31.9872 7.85 31.9872 7.83 31.9572 7.8C31.9172 7.75 31.9072 7.7 31.9372 7.64C31.9472 7.62 31.9772 7.43 31.9972 7.23C32.0172 7.03 32.0372 6.85 32.0472 6.83C32.0672 6.78 32.1672 6.24 32.1872 6.03C32.2172 5.83 32.2672 5.71 32.3472 5.66ZM32.9472 6.33V6.32C32.9272 6.3 32.6172 6.28 32.5772 6.3C32.5572 6.31 32.5472 6.36 32.5472 6.54L32.6472 6.53C32.8772 6.49 33.0172 6.4 32.9472 6.33ZM32.9072 6.96C32.9272 6.83 32.9172 6.77 32.8872 6.8C32.8772 6.81 32.7972 6.83 32.5572 6.87L32.5472 7.01C32.5372 7.16 32.5672 7.19 32.6472 7.11C32.6572 7.1 32.7172 7.09 32.8872 7.09L32.9072 6.96ZM32.9072 7.58L32.8972 7.57C32.8772 7.48 32.8572 7.47 32.6772 7.51C32.5072 7.55 32.5272 7.54 32.4872 7.73L32.5772 7.71C32.6272 7.7 32.6772 7.69 32.6872 7.68H32.7772C32.8872 7.68 32.9172 7.66 32.9072 7.58ZM32.7672 8.37L32.7472 8.36C32.9172 8.33 33.0172 8.39 32.8072 8.46L32.8172 8.64C32.8172 8.77 32.8072 8.84 32.7772 8.89C32.7572 8.93 32.6972 9.05 32.6372 9.16C32.5772 9.27 32.5272 9.36 32.5172 9.36C32.5072 9.36 32.4772 9.4 32.4472 9.44C32.4172 9.48 32.3872 9.52 32.3772 9.52C32.3672 9.52 32.3272 9.54 32.2872 9.56C32.1772 9.64 31.8872 9.63 31.8872 9.55C31.8872 9.53 31.8672 9.51 31.8472 9.5C31.7772 9.47 31.8372 9.22 31.9372 9.13C31.9672 9.1 32.0372 9.02 32.0872 8.95C32.1372 8.88 32.2372 8.76 32.3072 8.69C32.3772 8.62 32.4372 8.55 32.4472 8.54C32.4672 8.5 32.6672 8.39 32.7672 8.37ZM33.7572 8.5H33.7372C33.9172 8.46 34.2172 8.49 34.3472 8.56C34.4772 8.64 34.6772 8.84 34.6772 8.89C34.6772 8.91 34.6972 8.95 34.7172 8.97C34.7672 9.02 34.7472 9.16 34.6872 9.2C34.6672 9.22 34.6472 9.25 34.6472 9.28C34.6472 9.3 34.6372 9.32 34.6172 9.32C34.5972 9.32 34.5472 9.35 34.5072 9.38C34.4672 9.41 34.4172 9.43 34.3972 9.43C34.3572 9.42 34.2772 9.4 34.2172 9.39C34.2072 9.39 34.1572 9.38 34.1172 9.37C33.9672 9.33 33.7672 9.17 33.5872 8.94C33.5572 8.9 33.5172 8.85 33.4972 8.83C33.4672 8.79 33.4672 8.71 33.4972 8.69C33.5072 8.68 33.5172 8.65 33.5172 8.62C33.5172 8.57 33.5972 8.53 33.7572 8.5ZM40.7008 1.11L40.8608 1.09C40.9008 1.07 40.9408 1.05 40.9508 1.05C41.0408 1.04 41.5208 1.48 41.5508 1.6C41.5608 1.63 41.5808 1.65 41.5908 1.65C41.6008 1.65 41.6108 1.67 41.6008 1.69C41.6008 1.71 41.6008 1.78 41.6108 1.98L41.8008 1.96C41.9108 1.95 42.1808 1.93 42.4108 1.92C42.6408 1.91 42.8708 1.89 42.9108 1.89C43.0208 1.87 43.1108 1.89 43.1108 1.93C43.1108 1.95 43.1208 1.97 43.1408 1.97C43.1608 1.97 43.1808 1.99 43.1808 2.01C43.1908 2.03 43.2008 2.06 43.2008 2.08C43.2108 2.1 43.0908 2.24 43.0508 2.25C43.0408 2.25 42.9808 2.26 42.9208 2.28C42.9108 2.28 42.8808 2.29 42.8608 2.3C42.8408 2.31 42.7208 2.32 42.5908 2.32C42.2808 2.33 42.2808 2.33 42.2908 2.45C42.2908 2.51 42.3008 2.69 42.3308 3.16L42.5108 3.14C42.6108 3.13 42.7708 3.12 43.0208 3.1L43.1008 3.18C43.1408 3.23 43.1808 3.28 43.1808 3.3C43.1808 3.34 43.0308 3.46 42.9608 3.47C42.9308 3.47 42.8908 3.48 42.8708 3.48C42.8108 3.5 42.5408 3.54 42.3308 3.54V4.03L42.7308 4.01C42.9508 4 43.1608 3.99 43.2008 3.98C43.4908 3.97 43.6808 4.76 43.4708 5.14C43.4008 5.27 43.2008 5.49 43.1508 5.49C43.0708 5.48 43.0608 5.49 43.0908 5.54C43.1308 5.59 43.1308 5.59 43.0508 5.66C43.0008 5.7 42.9408 5.73 42.9208 5.73C42.9008 5.73 42.8608 5.74 42.8408 5.75C42.8108 5.76 42.7208 5.77 42.6408 5.78C42.4908 5.79 42.4908 5.79 42.4908 5.85C42.5208 6.22 42.5408 6.42 42.5508 6.43C42.5608 6.44 42.6208 6.44 42.6908 6.43C42.7508 6.42 42.8308 6.42 42.8608 6.43C42.9208 6.45 43.2308 6.41 43.4708 6.35C43.6408 6.31 43.6508 6.31 43.7408 6.41C43.7908 6.47 43.7908 6.47 43.6708 6.58C43.5508 6.69 43.3908 6.77 43.2708 6.78C43.2308 6.78 43.1808 6.79 43.1708 6.8C43.1408 6.82 42.7708 6.86 42.7508 6.84C42.7408 6.83 42.7308 6.84 42.7208 6.86C42.7108 6.87 42.6908 6.88 42.6708 6.88C42.5608 6.87 42.5508 6.9 42.5508 7.15C42.5508 7.3 42.5608 7.42 42.5808 7.49C42.6408 7.67 42.6208 8.66 42.5508 8.74C42.4708 8.85 42.3408 8.93 42.2908 8.9C42.2708 8.89 42.2308 8.88 42.2108 8.88C42.1908 8.88 42.1408 8.84 42.1108 8.8C42.0508 8.72 42.0508 8.71 42.0308 8.14C42.0108 7.57 41.9908 7.09 41.9808 7.09C41.9808 7.09 41.8708 7.12 41.7408 7.15C41.6108 7.19 41.4908 7.22 41.4708 7.22C41.4508 7.22 41.4008 7.23 41.3608 7.23C41.3208 7.24 41.2408 7.25 41.1808 7.26C41.1208 7.27 41.0208 7.29 40.9608 7.3C40.8908 7.32 40.8008 7.32 40.7108 7.31C40.6308 7.3 40.5208 7.29 40.4608 7.29C40.1508 7.31 39.9808 7.06 40.2408 6.96C40.2908 6.94 40.3708 6.9 40.4308 6.88C40.4808 6.86 40.5708 6.83 40.6208 6.82C40.6708 6.81 40.8008 6.78 40.9008 6.76C41.0008 6.74 41.2208 6.7 41.3808 6.68C41.5408 6.65 41.7008 6.62 41.7308 6.62C41.7608 6.61 41.8108 6.6 41.8308 6.6C41.9708 6.57 41.9708 6.57 41.9908 6.39C42.0008 6.24 41.9908 6.17 41.9308 5.94C41.9208 5.89 41.9108 5.89 41.7708 5.9C41.6908 5.91 41.6008 5.92 41.5608 5.93C41.5308 5.93 41.4708 5.94 41.4308 5.94C41.3908 5.95 41.2808 5.96 41.1908 5.97C40.9908 5.98 40.9608 5.99 40.9708 6.05C41.0008 6.17 40.7508 6.32 40.6808 6.23C40.6708 6.22 40.6408 6.21 40.6108 6.2C40.5808 6.19 40.5608 6.17 40.5608 6.16C40.5608 6.14 40.5408 6.12 40.5208 6.11C40.4508 6.07 40.4508 5.5 40.5108 5.1C40.5408 4.93 40.5708 4.72 40.5808 4.64C40.6208 4.25 40.7308 4.08 40.8908 4.29L41.1908 4.23C41.3608 4.2 41.5508 4.17 41.6208 4.16C41.8108 4.14 41.8108 4.15 41.8308 3.56H41.2208C40.3708 3.56 40.1808 3.52 40.2208 3.33C40.2508 3.2 40.4308 3.17 41.8508 3.17L41.8708 2.91C41.8808 2.76 41.8808 2.59 41.8508 2.42H41.6408C41.0608 2.44 40.9108 2.45 40.8608 2.46C40.8308 2.47 40.7708 2.48 40.7308 2.49C40.6908 2.5 40.6108 2.52 40.5508 2.53C40.3908 2.56 39.9808 2.6 39.8108 2.6C39.6208 2.6 39.6108 2.61 39.6808 2.91C39.8108 3.42 39.7608 4.06 39.5008 5.36C39.4408 5.68 39.3908 5.96 39.3908 5.98C39.3908 6 39.3808 6.04 39.3608 6.07C39.3508 6.09 39.2808 6.32 39.2008 6.58C38.9208 7.5 38.5708 8.08 38.1908 8.26C38.0208 8.34 37.7208 8.32 37.6408 8.23C37.6008 8.19 37.6508 8.11 37.7108 8.11C37.8608 8.11 38.2008 7.77 38.2808 7.54C38.3108 7.46 38.3808 7.3 38.4408 7.18C38.5308 7 38.6508 6.68 38.7708 6.32C38.7808 6.28 38.8008 6.22 38.8108 6.2C38.8708 6.06 38.9108 5.91 38.9608 5.64C38.9908 5.47 39.0708 5.06 39.1408 4.72C39.2108 4.39 39.2708 4.05 39.2808 3.97C39.2908 3.89 39.3108 3.74 39.3208 3.65C39.3408 3.5 39.3408 3.34 39.3308 2.61L39.2208 2.6C39.0408 2.59 38.8708 2.54 38.8608 2.5C38.8408 2.44 38.8708 2.38 38.9308 2.37C38.9608 2.36 39.0308 2.34 39.0808 2.32C39.1308 2.31 39.2108 2.3 39.2508 2.3C39.3208 2.3 39.4908 2.27 39.7708 2.2C39.8408 2.18 39.9508 2.16 40.0208 2.15C40.0908 2.14 40.2808 2.11 40.4508 2.08C40.6208 2.05 40.8208 2.02 41.0408 1.99L41.0108 1.93C41.0008 1.9 40.9308 1.81 40.8608 1.74C40.5308 1.4 40.4808 1.2 40.7008 1.11ZM43.0508 4.42L43.0708 4.43C43.0508 4.41 42.8408 4.4 42.4608 4.42V4.65L42.5608 4.63C42.6108 4.62 42.7408 4.61 43.0308 4.62L43.0508 4.53C43.0608 4.48 43.0608 4.43 43.0508 4.42ZM42.0108 4.62H41.9708C41.9608 4.49 41.9608 4.49 41.6608 4.54C41.5508 4.56 41.4108 4.58 41.3508 4.58C41.0808 4.61 41.0808 4.61 41.0908 4.72C41.0908 4.83 41.1208 4.89 41.1608 4.86C41.1908 4.84 41.2308 4.83 41.5408 4.8C42.0108 4.75 42.0108 4.75 42.0108 4.62ZM43.0208 5.2L43.0408 5.18C43.0308 5.02 43.0208 4.99 42.9908 5C42.7708 5.02 42.5308 5.06 42.5008 5.08C42.4908 5.09 42.4808 5.17 42.4808 5.42L42.7008 5.43C42.8208 5.44 42.9408 5.45 42.9508 5.46C43.0108 5.48 43.0308 5.4 43.0208 5.2ZM41.9708 5.32H41.9908C41.9908 5.2 41.9808 5.2 41.7608 5.25C41.6908 5.27 41.6008 5.29 41.5608 5.3C41.5208 5.31 41.4408 5.33 41.3808 5.34C41.3208 5.35 41.2308 5.35 41.0908 5.33V5.46C41.0908 5.58 41.0908 5.59 41.1308 5.58C41.1908 5.56 41.5908 5.48 41.7508 5.46C41.9708 5.44 41.9708 5.44 41.9708 5.32ZM5.98945 14.38V14.36C6.18945 14.2 6.24945 14.2 6.46945 14.44C6.68945 14.66 6.88945 15.06 6.96945 15.42C6.98945 15.56 7.02945 15.76 7.04945 15.86C7.18945 16.42 7.20945 16.7 7.04945 17.1L7.28945 17.06C7.42945 17.04 7.58945 17.02 7.64945 17C7.74945 16.98 8.42945 17.06 8.54945 17.1C8.58945 17.12 8.60945 17.16 8.60945 17.18C8.60945 17.22 8.62945 17.24 8.66945 17.24C8.70945 17.24 8.76945 17.3 8.80945 17.38C8.86945 17.52 8.84945 17.66 8.76945 17.66C8.74945 17.66 8.72945 17.7 8.72945 17.74C8.72945 17.78 8.70945 17.82 8.66945 17.82C8.62945 17.82 8.56945 17.84 8.52945 17.88C8.50945 17.92 8.36945 17.96 8.24945 17.96C8.10945 17.98 7.76945 18.04 7.48945 18.1C7.18945 18.16 6.86945 18.22 6.76945 18.22C6.66945 18.24 6.40945 18.28 6.18945 18.32C5.96945 18.36 5.70945 18.4 5.62945 18.42C5.54945 18.42 5.42945 18.44 5.36945 18.46C5.22945 18.5 4.88945 18.56 4.52945 18.6C4.44945 18.62 4.28945 18.64 4.16945 18.66C3.94945 18.7 2.82945 18.7 2.66945 18.66C2.38945 18.6 2.20945 18.38 2.24945 18.18C2.26945 18.06 2.64945 17.72 2.76945 17.72C2.78945 17.72 2.86945 17.68 2.94945 17.64C3.02945 17.6 3.24945 17.54 3.46945 17.52C3.66945 17.5 3.96945 17.46 4.10945 17.42C4.44945 17.36 4.54945 17.34 5.52945 17.24C6.08945 17.18 6.10945 17.16 6.02945 17C5.80945 16.58 5.74945 16.22 5.74945 15.48C5.74945 15 5.76945 14.72 5.80945 14.68C5.82945 14.66 5.84945 14.6 5.84945 14.56C5.84945 14.52 5.90945 14.44 5.98945 14.38ZM13.1095 15.08L13.0895 15.14C13.3295 15.04 13.5295 15.06 13.5295 15.18C13.5295 15.22 13.5695 15.24 13.6095 15.24C13.6495 15.24 13.7095 15.32 13.7495 15.4C13.8295 15.58 13.7695 15.82 13.2695 17.18L13.7095 17C13.9495 16.9 14.3095 16.78 14.4895 16.74C14.7695 16.66 14.8295 16.62 14.8695 16.52C14.9695 16.3 15.4295 16.18 15.4295 16.36C15.4295 16.4 15.4495 16.42 15.4895 16.42C15.5295 16.42 15.5695 16.44 15.5895 16.48C15.6095 16.54 15.7095 16.56 16.2695 16.62C16.5895 16.66 16.8695 16.88 16.8695 17.1C16.8695 17.28 16.2295 17.56 16.0495 17.44C16.0295 17.42 15.9695 17.42 15.8095 17.48V20.54L16.0295 20.56C16.5895 20.6 17.2895 20.56 17.5495 20.5C17.6895 20.46 17.8895 20.44 17.9695 20.46C18.0695 20.48 18.1495 20.46 18.1695 20.44C18.2495 20.32 18.5095 20.46 18.5895 20.68C18.6495 20.84 18.3495 21.16 18.0695 21.22C18.0295 21.22 17.8695 21.26 17.7095 21.3C17.4095 21.38 17.3095 21.4 17.1095 21.44C17.0295 21.46 16.9295 21.48 16.8895 21.5C16.8495 21.52 16.7295 21.54 16.6295 21.54C16.5295 21.54 16.3095 21.58 15.8295 21.72L15.7895 22.08C15.7295 22.64 15.8095 28.64 15.8695 28.72C16.0095 28.9 15.7895 29.72 15.6095 29.72C15.5895 29.72 15.5295 29.76 15.4895 29.8C15.4495 29.84 15.3895 29.86 15.3495 29.84C15.3095 29.82 15.2295 29.8 15.1695 29.8C14.9895 29.76 14.8295 29.46 14.8295 29.14C14.8295 29.02 14.8095 28.92 14.7695 28.88C14.7095 28.82 14.7095 28.44 14.7695 22.12L14.6095 22.16C14.5295 22.18 14.4095 22.2 14.3495 22.22C14.2895 22.22 14.1895 22.24 14.1095 22.28C14.0295 22.3 13.9695 22.32 13.9695 22.3C13.9695 22.28 13.9495 22.28 13.9095 22.3C13.8695 22.32 13.8295 22.34 13.8095 22.34C13.5895 22.38 13.5095 22.4 13.4695 22.42C13.4495 22.44 13.3695 22.46 13.2895 22.46C13.0095 22.52 12.9295 22.54 12.8895 22.56C12.8695 22.58 12.7895 22.6 12.7095 22.62C12.5095 22.64 12.3495 22.68 12.2295 22.72C12.0495 22.78 11.9095 22.8 11.5895 22.82C11.4095 22.82 11.2495 22.84 11.2295 22.86C11.1495 22.9 10.5095 22.8 10.3495 22.7C10.1295 22.58 10.0295 22.42 10.1095 22.28C10.1295 22.22 10.1695 22.18 10.1895 22.18C10.2095 22.18 10.3095 22.1 10.3895 22.02C10.5695 21.86 11.0095 21.64 11.2495 21.6C11.3295 21.58 11.4495 21.54 11.5295 21.52C11.6095 21.5 11.7095 21.48 11.7495 21.46C11.9295 21.42 12.7495 21.2 12.8695 21.16C12.9295 21.14 13.0295 21.12 13.0895 21.1C13.1495 21.08 13.2895 21.04 13.4095 21C13.5095 20.96 13.5895 20.94 13.5895 20.94C13.5895 20.96 13.6295 20.94 13.6895 20.92C13.7495 20.9 13.8695 20.86 13.9495 20.84C14.0495 20.84 14.2295 20.82 14.3295 20.8C14.4495 20.78 14.5695 20.76 14.6095 20.76C14.6495 20.76 14.6695 20.42 14.6695 17.62L14.5495 17.68C14.4895 17.7 14.4095 17.72 14.3695 17.72C14.3295 17.7 14.2895 17.72 14.2695 17.74C14.2495 17.76 14.2095 17.78 14.1695 17.78C14.1295 17.78 14.0695 17.8 14.0295 17.82C13.9895 17.84 13.8895 17.86 13.8095 17.86C13.7295 17.86 13.6295 17.88 13.6095 17.9C13.5495 17.94 13.1695 18 13.0895 18C13.0495 18 13.0095 18.1 12.9895 18.26C12.8495 18.92 12.5495 19.62 12.4095 19.62C12.3695 19.62 12.3095 19.66 12.2695 19.7C12.2095 19.76 12.1695 19.78 12.1095 19.74C12.0695 19.72 11.9695 19.7 11.8895 19.7C11.8095 19.7 11.7495 19.66 11.7095 19.58C11.6895 19.52 11.6295 19.44 11.5895 19.4C11.4895 19.3 11.5095 18.9 11.6495 18.16C11.7695 17.54 11.8095 17.4 12.0495 16.88C12.1295 16.72 12.1895 16.58 12.1895 16.56C12.1895 16.5 12.8495 15.2 12.9095 15.18L13.1095 15.08ZM6.46945 19.08L6.40945 19.14C6.84945 19.06 7.38945 19.28 7.38945 19.56C7.38945 19.6 7.40945 19.64 7.42945 19.64C7.58945 19.74 7.28945 20.08 6.82945 20.34C6.50945 20.52 6.42945 20.54 6.10945 20.58C6.00945 20.6 5.90945 20.62 5.88945 20.64C5.60945 20.82 4.92945 20.72 4.72945 20.46C4.60945 20.3 4.56945 20.12 4.66945 20.06C4.68945 20.04 4.70945 19.98 4.70945 19.92C4.70945 19.66 5.52945 19.28 6.46945 19.08ZM7.92945 21.06L7.96945 21.12C7.98945 21.1 8.46945 21.2 8.54945 21.24C8.68945 21.32 8.90945 21.58 8.90945 21.66C8.90945 21.76 8.50945 22.04 8.32945 22.08C7.80945 22.18 7.40945 22.28 7.16945 22.38C7.12945 22.4 7.08945 22.42 7.06945 22.42C6.94945 22.46 6.66945 22.56 6.62945 22.58C6.60945 22.6 6.52945 22.62 6.46945 22.62C6.24945 22.66 5.32945 23.04 5.02945 23.22C4.76945 23.36 4.20945 23.6 3.82945 23.72C3.46945 23.82 3.08945 23.68 3.08945 23.44C3.08945 23.18 3.54945 22.64 3.90945 22.46C4.02945 22.4 4.34945 22.22 4.60945 22.06C5.12945 21.74 5.18945 21.72 5.70945 21.56C5.90945 21.5 6.12945 21.42 6.20945 21.38C6.28945 21.34 6.42945 21.3 6.50945 21.3C6.58945 21.28 6.74945 21.24 6.84945 21.22C7.10945 21.14 7.12945 21.14 7.54945 21.1C7.74945 21.08 7.92945 21.06 7.92945 21.06ZM6.22945 23.48H6.24945C6.36945 23.4 6.72945 23.38 6.76945 23.44C6.78945 23.46 6.76945 23.5 6.72945 23.52C6.66945 23.54 6.66945 23.56 6.70945 23.62C6.72945 23.66 6.74945 23.76 6.74945 23.82C6.74945 23.94 6.74945 23.94 6.98945 23.9C7.12945 23.88 7.34945 23.82 7.46945 23.76C7.62945 23.7 7.74945 23.68 7.86945 23.7C8.16945 23.74 8.34945 23.8 8.34945 23.86C8.34945 23.9 8.38945 23.94 8.42945 23.94C8.70945 24.02 8.80945 24.94 8.66945 26.22C8.60945 26.74 8.56945 26.96 8.46945 27.14C8.34945 27.38 8.08945 27.58 7.92945 27.54C7.86945 27.52 7.70945 27.58 7.50945 27.7C7.22945 27.86 7.16945 27.88 6.88945 27.88C6.64945 27.88 6.56945 27.9 6.46945 27.98C6.14945 28.2 5.92945 27.96 5.84945 27.32C5.76945 26.62 5.82945 24.7 5.94945 24.28C6.00945 24.08 6.06945 23.84 6.08945 23.74C6.10945 23.64 6.16945 23.52 6.22945 23.48ZM7.38945 24.92C7.34945 24.92 7.18945 24.9 6.76945 24.84V26.94H6.90945C7.42945 26.94 7.60945 26.76 7.60945 26.26C7.60945 26.14 7.64945 25.92 7.68945 25.76C7.72945 25.62 7.76945 25.36 7.76945 24.84L7.60945 24.88C7.52945 24.9 7.42945 24.92 7.38945 24.92ZM28.7205 13.46L28.5805 13.52C28.6005 13.5 28.7205 13.5 28.8405 13.5H29.2205C29.3205 13.5 29.3805 13.54 29.4005 13.62C29.4205 13.7 29.4805 13.74 29.5405 13.74C29.6005 13.74 29.6405 13.76 29.6405 13.8C29.6405 13.84 29.6805 13.92 29.7205 13.98C29.7805 14.12 29.7405 14.34 29.6405 14.34C29.6205 14.34 29.6005 14.38 29.6005 14.44C29.5805 14.5 29.5405 14.54 29.5005 14.54C29.4605 14.54 29.3805 14.58 29.3405 14.64C29.2805 14.7 29.1805 14.72 29.0205 14.72C28.9005 14.72 28.6805 14.74 28.5405 14.76C28.4005 14.78 28.1805 14.8 28.0405 14.82C27.9005 14.82 27.6205 14.84 27.4205 14.84C27.2205 14.86 26.7005 14.88 26.2405 14.88C25.5205 14.88 25.4205 14.88 25.4605 14.94C25.5805 15.18 25.6605 16.02 25.6605 16.94C25.6605 18.4 25.5005 19.52 25.1205 20.84C24.9605 21.38 24.8005 21.98 24.7605 22.16C24.7205 22.36 24.6605 22.64 24.6205 22.78C24.5805 22.94 24.5205 23.22 24.4805 23.42C24.2805 24.28 24.2405 24.46 23.9605 25.38C23.8605 25.72 23.7405 26.02 23.6405 26.16C23.4605 26.44 23.0805 26.72 23.0005 26.64C22.9805 26.62 22.9005 26.6 22.8205 26.6C22.7205 26.6 22.6805 26.56 22.6605 26.5C22.6405 26.44 22.5805 26.36 22.5405 26.32C22.4205 26.22 22.4605 25.84 22.6805 25.08C22.7805 24.7 22.9005 24.24 22.9605 24.06C23.0005 23.88 23.1005 23.54 23.1805 23.3C23.3205 22.8 23.3605 22.64 23.5005 22.14C23.5405 21.96 23.6605 21.6 23.7605 21.36C23.9605 20.86 24.3405 19.82 24.4005 19.62C24.4205 19.54 24.5205 19.04 24.6205 18.5C24.7205 17.96 24.8205 17.5 24.8205 17.48C24.8405 17.44 25.0205 16.08 25.0205 15.86V14.76L24.8405 14.72C24.6205 14.68 24.5005 14.52 24.5605 14.32C24.6205 14.12 24.6605 14.1 25.8605 13.86C26.0605 13.82 26.3005 13.78 26.4205 13.78C26.5405 13.76 26.6405 13.74 26.6605 13.72C26.7005 13.7 27.0805 13.66 27.5005 13.62C27.6605 13.6 27.9005 13.56 28.0405 13.54C28.1805 13.52 28.3805 13.5 28.5005 13.48C28.6005 13.48 28.7005 13.46 28.7205 13.46ZM34.4005 15.94L34.5005 15.98C35.1005 15.84 35.8005 15.9 35.8005 16.08C35.8005 16.14 35.8405 16.18 35.9005 16.18C36.0005 16.18 36.0805 16.26 36.0805 16.36C36.0805 16.4 36.1205 16.46 36.1605 16.5C36.2405 16.58 36.1805 16.8 36.0605 16.84C36.0205 16.86 35.9805 16.92 35.9805 16.98C35.9805 17.02 35.9605 17.06 35.9205 17.06C35.8805 17.06 35.8005 17.1 35.7205 17.14C35.6405 17.2 35.5205 17.24 35.4005 17.24C35.3005 17.24 35.1805 17.26 35.1405 17.28C35.0205 17.32 34.8605 17.36 34.7205 17.4C34.6605 17.4 34.5405 17.44 34.4405 17.48C34.3405 17.52 34.2405 17.54 34.2205 17.52C34.2005 17.5 34.1805 17.62 34.1805 17.76C34.1805 18.08 33.9205 18.58 33.4005 19.1L33.5405 19.06C33.6205 19.04 33.8205 18.98 33.9805 18.92C34.2405 18.82 34.3605 18.8 35.4805 18.8L35.6605 18.98C36.0805 19.36 36.2205 19.96 36.2205 21.38C36.2205 22.06 36.2205 22.1 36.1205 22.24C35.9805 22.42 35.6005 22.7 35.5205 22.68C35.5005 22.68 35.4205 22.66 35.3605 22.64C35.2805 22.62 35.2205 22.58 35.2205 22.54C35.2205 22.5 35.1805 22.46 35.1405 22.44C35.1005 22.42 35.0805 22.3 35.0405 21.68L34.7805 21.86C34.6005 22 34.4405 22.06 33.8805 22.18L33.8405 22.5C33.8005 22.74 33.7405 22.88 33.6405 23C33.4805 23.22 33.5805 23.24 33.8605 23.04C34.1405 22.86 34.3405 22.8 35.1205 22.74L35.2605 22.88C35.3205 22.96 35.3805 23.06 35.3805 23.1C35.3805 23.22 34.8805 23.68 34.7205 23.72C34.6805 23.72 34.6205 23.74 34.5805 23.76C34.4805 23.8 34.1405 23.9 34.1005 23.9C34.0805 23.9 34.0405 23.92 34.0005 23.94C33.9205 23.98 33.3405 23.88 33.1805 23.8C33.1005 23.76 33.0205 23.72 32.9805 23.72C32.8605 23.72 32.8605 23.36 32.9805 23.36C33.0205 23.36 33.0205 23.34 33.0005 23.32C32.7805 23.16 32.7405 22.72 32.8005 21.46C32.8805 19.8 32.8805 19.56 32.7605 19.52C32.6405 19.48 32.6205 19.42 32.6405 19.18C32.6605 18.98 32.7405 18.82 33.2605 18C33.6405 17.42 33.6805 17.48 32.8005 17.24C32.5805 17.18 32.3805 17.1 32.3405 17.06C32.3205 17.02 32.2605 16.96 32.2405 16.92C32.0405 16.7 32.4405 16.34 32.9405 16.28C33.0405 16.26 33.1405 16.24 33.1605 16.22C33.1805 16.2 33.3205 16.18 33.4605 16.16C33.7405 16.14 33.8205 16.12 33.9405 16.08C33.9805 16.06 34.1805 16 34.4005 15.94ZM28.0605 16.36L28.0005 16.34C28.1805 16.26 28.2605 16.28 28.4205 16.42C28.5405 16.54 28.5605 16.56 28.5005 16.6C28.4205 16.66 28.2805 16.88 28.2805 16.94C28.2805 17.02 28.0205 17.34 27.7205 17.66C27.5005 17.88 27.4605 17.96 27.4805 18.06C27.5005 18.12 27.5205 18.22 27.5405 18.28C27.5605 18.38 27.5805 18.4 27.6405 18.38C27.7405 18.34 28.1005 18.24 28.5805 18.12C29.2005 17.96 29.4405 18.04 29.7405 18.5C29.9205 18.76 29.8805 19.42 29.6605 19.86C29.6205 19.96 29.5405 20.16 29.5005 20.3C29.4205 20.54 29.2605 20.8 29.1805 20.8C29.1605 20.8 29.1205 20.84 29.1005 20.88C29.0605 20.92 29.0005 20.94 28.9605 20.92C28.8605 20.88 28.8605 20.92 28.9805 21.02C29.1005 21.14 29.1005 21.2 28.9205 21.4C28.7205 21.62 28.5205 21.76 28.3805 21.78C28.1405 21.82 28.1205 21.86 28.2005 22.02C28.2405 22.1 28.2805 22.32 28.2805 22.52C28.3005 22.88 28.3605 22.98 28.5405 22.98C28.6005 22.98 28.7005 23.02 28.7605 23.06C28.9405 23.14 29.8405 23.3 30.1805 23.3C30.4605 23.3 30.5205 23.32 30.5205 23.46C30.5205 23.52 30.5605 23.56 30.6205 23.56C30.7205 23.56 30.9005 23.9 30.8405 24.02C30.7605 24.26 30.3205 24.56 30.1205 24.54C29.7805 24.48 28.8005 24.18 28.7005 24.08C28.6405 24.04 28.5805 24 28.5605 24C28.5405 24 28.5405 24.28 28.5405 24.64C28.5605 25.68 28.4605 26.18 28.1405 26.66C27.8605 27.1 27.5005 27.54 27.3605 27.64C27.1805 27.76 26.8005 27.7 26.8005 27.56C26.8005 27.52 26.7605 27.46 26.7005 27.4C26.6005 27.32 26.5805 27.2 26.6405 27.08C27.0405 26.28 27.1605 26 27.1605 25.9C27.1605 25.84 27.2205 25.58 27.2805 25.34C27.3605 25.02 27.4005 24.76 27.4005 24.06L27.2005 24.44C26.9205 25 26.4205 25.4 26.1205 25.3C25.8605 25.22 25.6605 24.88 25.8205 24.78C25.8405 24.76 25.8605 24.7 25.8605 24.64C25.8605 24.6 25.9605 24.48 26.0805 24.38C26.2005 24.28 26.3405 24.12 26.3805 24.02C26.6005 23.64 26.9805 23.06 27.0205 23C27.1405 22.88 27.3605 22.52 27.4005 22.38C27.4405 22.22 27.4005 22.22 27.0805 22.34C27.0205 22.36 26.9605 22.36 26.9405 22.34C26.9205 22.32 26.8005 22.3 26.6805 22.28C26.3005 22.22 26.0805 21.88 26.3405 21.74C26.4605 21.68 26.4805 21.64 26.4005 21.6C26.3405 21.56 26.3605 21.32 26.4605 20.86C26.5205 20.64 26.6005 20.22 26.6605 19.94C26.7805 19.22 26.9205 18.52 26.9805 18.38C27.0205 18.26 27.0205 18.26 26.9005 18.28C26.2805 18.32 26.2805 17.74 26.9005 17.26C27.0605 17.14 27.2005 17.04 27.2205 17.04C27.2405 17.04 27.3205 16.98 27.4205 16.9C27.5005 16.82 27.6605 16.7 27.7805 16.62C27.8805 16.54 27.9605 16.46 27.9605 16.44C27.9605 16.42 28.0005 16.38 28.0605 16.36ZM28.9605 18.78L28.9205 18.76C28.8805 18.76 28.8205 18.76 28.7805 18.74C28.7405 18.74 28.6205 18.76 28.5205 18.78C28.4205 18.8 28.2005 18.82 28.0205 18.84C27.8405 18.86 27.6805 18.88 27.6605 18.88H27.5605C27.5005 18.88 27.4805 18.94 27.4805 19.34V19.8C27.4805 19.8 27.6605 19.72 27.8805 19.62C28.2805 19.46 28.5005 19.44 28.7405 19.56C28.8405 19.62 28.9605 19.36 29.0005 19.02C29.0205 18.82 29.0205 18.78 28.9605 18.78ZM35.0405 19.76C35.0205 19.66 35.0005 19.66 34.5405 19.66H34.0405H33.7405C33.5005 19.66 33.4605 19.68 33.4805 19.76C33.5005 19.8 33.5205 19.92 33.5405 20C33.5805 20.2 33.5405 20.2 34.1605 20.04C34.4205 19.98 34.7405 19.92 34.8405 19.9C35.0205 19.88 35.0405 19.86 35.0405 19.76ZM28.4005 20.44L28.4205 20.46C28.4205 20.36 28.2205 20.34 28.0805 20.42C28.0405 20.44 27.9605 20.46 27.9205 20.48C27.8805 20.48 27.8205 20.5 27.7805 20.52C27.7405 20.54 27.6605 20.54 27.5805 20.52C27.4205 20.48 27.3805 20.56 27.3805 20.92C27.3805 21.04 27.3605 21.18 27.3405 21.24C27.2805 21.34 27.2805 21.34 27.6005 21.14C27.8405 20.98 28.0005 20.92 28.3205 20.88C28.6205 20.84 28.6405 20.82 28.5005 20.64C28.4405 20.58 28.4005 20.48 28.4005 20.44ZM34.9405 21.2L34.9205 21.28C34.9405 21.26 34.9405 21.12 34.9405 20.96C34.9405 20.8 34.9205 20.68 34.8805 20.7C34.8605 20.72 34.8005 20.74 34.7405 20.74H34.6605C34.6205 20.78 34.2605 20.84 33.6605 20.9L33.6805 21.2C33.7205 21.56 33.7205 21.56 33.8405 21.48C33.8805 21.44 33.9405 21.42 33.9805 21.42C34.0205 21.42 34.2005 21.34 34.3805 21.24C34.7405 21.06 34.8005 21.06 34.8805 21.16C34.9005 21.2 34.9405 21.22 34.9405 21.2ZM34.2805 24.06H34.3005C34.3205 24.04 34.3605 24.04 34.3805 24.06C34.4205 24.1 34.4005 24.14 34.3205 24.22C34.2205 24.3 34.1805 24.38 34.1605 24.56C34.1405 24.74 34.1405 24.78 34.1805 24.7C34.2805 24.5 34.5805 24.44 34.9805 24.52C35.1405 24.56 35.3605 24.6 35.4805 24.62C36.2205 24.72 36.9605 24.94 36.9605 25.06C36.9605 25.08 37.0005 25.12 37.0605 25.14C37.3005 25.26 37.4005 25.78 37.1805 25.86C37.1405 25.88 37.1005 25.92 37.1005 25.96C37.1005 26 37.0805 26.04 37.0405 26.04C37.0005 26.04 36.9205 26.1 36.8605 26.16C36.7805 26.22 36.7005 26.26 36.6805 26.24C36.6605 26.24 36.5605 26.22 36.4605 26.2C35.8205 26.12 34.8205 25.8 34.6205 25.6C34.4005 25.38 34.2005 25.1 34.1205 24.8L34.0605 25C34.0205 25.1 33.8805 25.42 33.7405 25.72C33.6005 26.02 33.4805 26.28 33.4805 26.3C33.4805 26.34 33.3005 26.5 33.1005 26.64C32.9405 26.74 32.9005 26.74 32.7805 26.7C32.6205 26.64 32.4205 26.44 32.4205 26.32C32.4205 26.22 32.5805 25.78 32.6805 25.64C32.8005 25.44 33.2205 24.86 33.2805 24.8C33.3205 24.76 33.3805 24.68 33.4205 24.6C33.4805 24.46 33.6005 24.3 33.7605 24.12C33.8205 24.06 33.9005 24.04 34.0405 24.06H34.2805ZM41.8873 16.18L41.8473 16.22C42.0273 16.12 42.1273 16.14 42.3073 16.32C42.3673 16.38 42.7873 16.76 43.2273 17.12C43.2873 17.18 43.4073 17.28 43.5073 17.36C43.6073 17.44 43.8673 17.66 44.0873 17.86C44.2873 18.06 44.5473 18.3 44.6473 18.38C44.9473 18.64 44.9673 18.66 45.0073 18.8C45.0273 18.86 45.0673 18.94 45.1073 18.98C45.1873 19.06 45.1473 19.22 45.0273 19.3C44.9873 19.34 44.9473 19.4 44.9473 19.44C44.9473 19.48 44.9073 19.52 44.8673 19.54C44.8273 19.56 44.7273 19.62 44.6473 19.68C44.5673 19.74 44.4873 19.78 44.4473 19.76C44.4073 19.74 44.3073 19.78 44.2073 19.84C43.9073 20.02 43.5873 19.86 43.6673 19.56C43.6873 19.46 43.6473 19.4 43.4273 19.2C43.2873 19.06 43.0673 18.84 42.9473 18.7C42.8273 18.56 42.6673 18.38 42.6073 18.32C41.7473 17.38 41.4273 16.44 41.8873 16.18ZM49.7873 18L49.7273 18.04C49.7673 18.02 49.8273 18 49.8673 18.02C49.9473 18.04 50.1273 18.38 50.0873 18.44C50.0673 18.48 50.0673 18.68 50.0873 19.26L50.2673 19.22C50.4273 19.18 50.5673 19.16 50.7673 19.14C50.8273 19.14 50.9473 19.12 51.0273 19.1C51.1073 19.08 51.2273 19.06 51.2873 19.06C51.3473 19.06 51.4673 19.04 51.5473 19.04C51.6273 19.02 51.7673 19 51.8473 19C51.9273 19 52.0673 18.98 52.1473 18.98C52.4073 18.94 52.6473 18.96 52.7873 19.06C53.1673 19.3 53.4473 19.7 53.4473 20.02C53.4473 20.44 52.8673 21.18 52.1473 21.66C52.0873 21.7 51.9873 21.76 51.9273 21.8C51.8673 21.84 51.8073 21.86 51.7873 21.84C51.7673 21.82 51.6673 21.82 51.5673 21.86C51.3273 21.92 51.1273 21.88 51.1073 21.8C51.0873 21.76 51.0473 21.72 51.0273 21.7C50.9473 21.64 51.0473 21.36 51.2073 21.2C51.4273 20.98 51.8473 20.46 51.8473 20.42C51.8473 20.38 51.7473 20.38 51.5073 20.44C51.2673 20.48 50.9673 20.52 50.6273 20.56C50.5473 20.56 50.4473 20.58 50.3873 20.6C50.3273 20.62 50.2673 20.64 50.2473 20.64C50.0873 20.66 50.0673 20.74 50.0473 21.38C50.0073 22.2 49.9073 22.64 49.7273 22.82C49.4873 23.06 49.2273 22.92 49.1073 22.5C49.0473 22.3 49.1073 21.66 49.1873 21.56C49.2073 21.54 49.2273 21.4 49.2473 21.26C49.2673 21.12 49.2873 20.98 49.3073 20.94C49.3273 20.86 49.2273 20.86 48.9473 20.94C48.8673 20.96 48.7673 20.98 48.7273 20.98C48.6673 20.98 48.5873 21 48.2673 21.06C48.0873 21.1 47.9273 21.14 47.7673 21.16C47.6873 21.18 47.6273 21.2 47.6273 21.2C47.5873 21.24 47.6873 22.24 47.7473 22.44C47.9473 23.18 48.6673 24.14 49.0873 24.24C49.1473 24.26 49.2273 24.28 49.2473 24.3C49.2673 24.32 49.4273 24.38 49.6073 24.42C49.7673 24.48 50.0073 24.58 50.1273 24.64C50.6873 24.98 51.7873 25.28 52.4673 25.28C52.7073 25.28 52.8873 25.32 53.2473 25.44C53.8873 25.66 53.9273 25.66 54.0873 25.54C54.2673 25.4 54.3673 25.46 54.5473 25.84C54.7273 26.2 54.7473 26.52 54.6073 26.62C54.5473 26.66 54.5073 26.72 54.5073 26.74C54.5073 26.78 54.4473 26.84 54.3673 26.86C54.2873 26.9 54.2073 26.96 54.1673 26.98C54.0473 27.1 53.9473 27.12 53.7073 27.12C53.4473 27.1 52.9473 26.98 52.7473 26.88C52.6673 26.84 52.4673 26.8 52.3073 26.78C52.0073 26.76 51.7073 26.72 51.5873 26.68C51.5473 26.66 51.4473 26.64 51.3673 26.62C50.8073 26.52 50.5473 26.44 50.1273 26.26C49.9073 26.16 49.6873 26.04 49.6473 26C49.6073 25.96 49.3873 25.84 49.1673 25.72C48.9473 25.62 48.7273 25.52 48.6873 25.5C48.6473 25.48 48.5273 25.42 48.4073 25.38C48.3073 25.32 48.1873 25.22 48.1273 25.14C48.0673 25.06 47.9473 24.96 47.8473 24.92C47.7473 24.86 47.6473 24.76 47.6273 24.7C47.5873 24.64 47.5073 24.52 47.4273 24.44C47.3473 24.36 47.2873 24.26 47.2873 24.22C47.2873 24.18 47.2273 24.1 47.1673 24.04C47.1073 23.98 47.0473 23.9 47.0473 23.86C47.0473 23.82 46.9873 23.66 46.9073 23.5C46.7673 23.2 46.7073 23.04 46.5873 22.78C46.5073 22.58 46.4673 22.22 46.4673 21.7C46.4673 21.2 46.4673 21.2 46.3673 21.22C46.3073 21.24 46.2073 21.26 46.1473 21.28C46.0873 21.3 46.0073 21.3 45.9673 21.28C45.9273 21.26 45.8873 21.26 45.8673 21.28C45.7473 21.38 45.4073 21.28 45.3073 21.1C45.1273 20.78 45.4873 20.46 46.2273 20.26C46.3873 20.22 46.4473 20.18 46.4273 20.14C46.4273 20.1 46.4073 19.88 46.3873 19.66C46.3673 19.34 46.3473 19.24 46.2873 19.16C46.2073 19.06 46.2073 19.04 46.2673 18.92C46.3473 18.78 46.4273 18.6 46.4673 18.48C46.5273 18.3 47.0073 18.2 47.0073 18.36C47.0073 18.4 47.0273 18.42 47.0673 18.42C47.1473 18.42 47.2873 18.7 47.2873 18.84C47.2873 18.9 47.3273 19.02 47.3873 19.1C47.4273 19.2 47.4873 19.4 47.5073 19.56C47.5273 19.7 47.5473 19.84 47.5673 19.84C47.6073 19.88 47.8473 19.82 48.8473 19.54C49.0473 19.48 49.3073 19.42 49.6473 19.34V18.94C49.6473 18.42 49.7073 18.06 49.7873 18ZM43.2073 20.7L43.1673 20.68C43.5073 20.48 44.1073 20.82 43.8673 21.08C43.8273 21.12 43.7873 21.2 43.7673 21.24C43.7473 21.34 43.7073 21.36 43.5673 21.34C43.5273 21.34 43.4273 21.38 43.3473 21.46C43.2673 21.52 42.9873 21.66 42.7273 21.76C42.4673 21.86 42.1873 21.98 42.1073 22.02C42.0273 22.08 41.9473 22.12 41.9473 22.12C41.9273 22.1 41.8673 22.1 41.8073 22.14C41.5473 22.24 41.2873 22.06 41.3473 21.82C41.3673 21.72 41.4673 21.64 41.7273 21.48C41.9273 21.36 42.1273 21.24 42.1673 21.2C42.2073 21.16 42.4073 21.06 42.6273 20.96C42.8473 20.88 43.1073 20.76 43.2073 20.7ZM44.1873 24.12C44.3273 24.04 44.4073 24.06 44.6073 24.34L44.4073 24.66C44.3073 24.84 44.0673 25.14 43.8873 25.32C43.5073 25.7 43.1073 26.2 42.8873 26.54C42.6073 26.96 42.1873 27.06 42.1873 26.7C42.1873 26.54 42.6073 25.76 42.8273 25.5C42.8673 25.46 42.9673 25.34 43.0473 25.24C43.2073 25.04 43.1873 25.06 43.6873 24.56C43.9073 24.34 44.1273 24.14 44.1873 24.12Z" fill="#0891B2"/>
</svg>
