<svg width="300" height="143" viewBox="0 0 300 143" fill="none" xmlns="http://www.w3.org/2000/svg">
<path d="M173.869 121.538C104.512 138.88 33.5859 96.8343 2.49541 119.499C1.90895 119.927 1.61571 120.14 1.25576 120.547C0.758259 121.109 0.2778 122.054 0.116618 122.787C0 123.318 0 123.797 0 124.757V135.7C0 137.842 0 138.913 0.32278 139.767C0.830121 141.11 1.88999 142.17 3.23263 142.677C4.08684 143 5.15789 143 7.29999 143H292.7C294.842 143 295.913 143 296.767 142.677C298.11 142.17 299.17 141.11 299.677 139.767C300 138.913 300 137.842 300 135.7V115.42C300 113.738 300 112.896 299.763 112.154C299.399 111.015 298.581 109.987 297.553 109.376C296.883 108.978 296.097 108.797 294.525 108.434C264.386 101.48 241.141 104.718 173.869 121.538Z" fill="url(#paint0_linear_944_1680)"/>
<path d="M3 108C71.8977 95.4223 98.1181 96.8121 154.499 125.743C154.826 125.911 155.192 126.05 155.548 126.142C225.795 144.274 248.828 121.568 292.5 86.5" stroke="url(#paint1_linear_944_1680)"/>
<path d="M275.381 29.0483L247.76 42.2551L219.7 29.9945L247.322 16.7877L275.381 29.0483Z" fill="url(#paint2_linear_944_1680)"/>
<path d="M221.5 30L250.5 42.7191V79L221.5 64.6128V47.3064V30Z" fill="url(#paint3_linear_944_1680)"/>
<path d="M248.5 41.7191L275.5 29V65.2809L248.5 78V41.7191Z" fill="url(#paint4_linear_944_1680)"/>
<path d="M216.5 44.3462L244.286 56.6042L244.381 64.3071L216.596 52.1532L216.5 44.3462Z" fill="#FBFBFB"/>
<path d="M216.5 57L244.5 70.0811V79L216.5 65.3129V57Z" fill="#FBFBFB"/>
<path d="M230.5 26L239.5 29.6V38L230.5 33.2V26Z" fill="#D9D9D9"/>
<path d="M239.5 13L249.5 16.7755V23L239.5 19.0204V13Z" fill="#D9D9D9"/>
<path d="M258.5 21L268.5 26.1765V32L258.5 27.4706V21Z" fill="#D9D9D9"/>
<path d="M268.5 25.8125L275.5 23V28.8L268.5 32V25.8125Z" fill="#D9D9D9"/>
<path d="M248.5 41L255.331 38L260.5 40.2727L253.3 43L248.5 41Z" fill="#D9D9D9"/>
<path d="M268.5 32L272 30L275 28.5L280.5 31.7368L273.108 35L268.5 32Z" fill="#D9D9D9"/>
<path d="M268.5 32L273.5 34.8571V48L268.5 45.1429V32Z" fill="#D9D9D9"/>
<path d="M268.5 54L273.5 56.6503V70L268.5 67.1534V54Z" fill="#D9D9D9"/>
<path d="M256.5 49.5455L268.224 45L275.5 47.5L258.845 55L256.5 49.5455Z" fill="#D9D9D9"/>
<path d="M253 43L260.5 40V76.7278L252.5 80L253 43Z" fill="#FBFBFB"/>
<path d="M220.663 29L249.5 41.4783L245.134 43L216.5 31.029L220.663 29Z" fill="#D9D9D9"/>
<path d="M243.5 56.5L248.5 55V77.8744L243.5 79V56.5Z" fill="#D9D9D9"/>
<path d="M227.804 47L248.5 55.3333L243.63 57L220.5 47H227.804Z" fill="#D9D9D9"/>
<path d="M220.773 56L240.5 64.7383L236.105 67L215.5 56.8224L220.773 56Z" fill="#D9D9D9"/>
<path d="M236.5 60L243.5 62.8182V70L236.5 67.7273V60Z" fill="#FBFBFB"/>
<path d="M220.5 39L227.5 40.3333V47H220.5V39Z" fill="#D9D9D9"/>
<path d="M215.5 30L243.5 41.7647V50L215.5 37.6923V30Z" fill="#FBFBFB"/>
<path d="M252.5 56.8889L280.5 45V55.2222L252.5 67V56.8889Z" fill="#FBFBFB"/>
<path d="M273.5 34.2929L280.5 31V66.81L273.5 70V34.2929Z" fill="#FBFBFB"/>
<path d="M243.5 42.4835L248.5 41V48.5165L243.5 50V42.4835Z" fill="#D9D9D9"/>
<path d="M239.5 29.1071L258.5 20V27.4014L239.5 37V29.1071Z" fill="#D9D9D9"/>
<path d="M230.5 25.8636L249.703 17L258.5 21.1969L239.203 30L230.5 25.8636Z" fill="#FBFBFB"/>
<path d="M247.058 10L275.5 22.7179L268.3 26L239.5 13.3846L247.058 10Z" fill="#FBFBFB"/>
<path d="M32.34 47.885C31.52 47.885 30.88 47.805 30.42 47.645C29.96 47.495 29.64 47.225 29.46 46.835C29.28 46.445 29.19 45.89 29.19 45.17C29.19 44.45 29.28 43.895 29.46 43.505C29.64 43.105 29.96 42.83 30.42 42.68C30.88 42.52 31.52 42.44 32.34 42.44C33.16 42.44 33.795 42.52 34.245 42.68C34.705 42.83 35.025 43.105 35.205 43.505C35.395 43.895 35.49 44.45 35.49 45.17C35.49 45.89 35.395 46.445 35.205 46.835C35.025 47.225 34.705 47.495 34.245 47.645C33.795 47.805 33.16 47.885 32.34 47.885ZM24.51 48.2C24.29 48.2 24.11 48.145 23.97 48.035C23.83 47.925 23.75 47.77 23.73 47.57C23.72 47.39 23.775 47.225 23.895 47.075C24.025 46.925 24.21 46.845 24.45 46.835C24.82 46.815 25.05 46.755 25.14 46.655C25.24 46.555 25.29 46.355 25.29 46.055V43.13C24.98 43.25 24.71 43.355 24.48 43.445C24.25 43.535 24.105 43.59 24.045 43.61C23.855 43.68 23.665 43.68 23.475 43.61C23.295 43.53 23.17 43.385 23.1 43.175C23.04 42.985 23.05 42.815 23.13 42.665C23.21 42.505 23.345 42.39 23.535 42.32C23.625 42.29 23.835 42.22 24.165 42.11C24.505 41.99 24.88 41.865 25.29 41.735V38.69H23.775C23.585 38.69 23.43 38.63 23.31 38.51C23.2 38.38 23.145 38.23 23.145 38.06C23.145 37.88 23.2 37.73 23.31 37.61C23.43 37.48 23.585 37.415 23.775 37.415H25.29V35C25.29 34.81 25.35 34.655 25.47 34.535C25.6 34.415 25.75 34.355 25.92 34.355C26.1 34.355 26.25 34.415 26.37 34.535C26.5 34.655 26.565 34.81 26.565 35V37.415H27.675C27.875 37.415 28.03 37.48 28.14 37.61C28.26 37.73 28.32 37.88 28.32 38.06C28.32 38.23 28.26 38.38 28.14 38.51C28.03 38.63 27.875 38.69 27.675 38.69H26.565V41.285C26.825 41.195 27.05 41.12 27.24 41.06C27.43 40.99 27.555 40.94 27.615 40.91C27.805 40.84 27.97 40.84 28.11 40.91C28.26 40.98 28.365 41.09 28.425 41.24C28.545 41.63 28.42 41.9 28.05 42.05C28 42.07 27.83 42.14 27.54 42.26C27.26 42.37 26.935 42.495 26.565 42.635V46.31C26.565 46.97 26.41 47.45 26.1 47.75C25.8 48.05 25.27 48.2 24.51 48.2ZM27.81 40.385C27.69 40.275 27.63 40.13 27.63 39.95C27.64 39.76 27.705 39.605 27.825 39.485C28.195 39.115 28.58 38.69 28.98 38.21C29.39 37.73 29.775 37.245 30.135 36.755C30.505 36.255 30.815 35.805 31.065 35.405C31.385 34.905 31.77 34.65 32.22 34.64C32.68 34.63 33.09 34.865 33.45 35.345C33.74 35.725 34.085 36.16 34.485 36.65C34.885 37.14 35.3 37.62 35.73 38.09C36.16 38.55 36.555 38.945 36.915 39.275C37.055 39.395 37.13 39.545 37.14 39.725C37.16 39.905 37.11 40.065 36.99 40.205C36.86 40.365 36.695 40.455 36.495 40.475C36.305 40.485 36.135 40.42 35.985 40.28C35.635 39.94 35.25 39.535 34.83 39.065C34.42 38.595 34.02 38.115 33.63 37.625C33.24 37.135 32.905 36.69 32.625 36.29C32.525 36.13 32.41 36.05 32.28 36.05C32.15 36.05 32.03 36.135 31.92 36.305C31.68 36.695 31.38 37.145 31.02 37.655C30.67 38.155 30.3 38.645 29.91 39.125C29.52 39.605 29.14 40.02 28.77 40.37C28.64 40.5 28.48 40.57 28.29 40.58C28.11 40.58 27.95 40.515 27.81 40.385ZM32.34 46.64C32.84 46.64 33.215 46.605 33.465 46.535C33.725 46.465 33.9 46.325 33.99 46.115C34.08 45.905 34.125 45.59 34.125 45.17C34.125 44.74 34.08 44.425 33.99 44.225C33.9 44.015 33.725 43.875 33.465 43.805C33.215 43.735 32.84 43.7 32.34 43.7C31.84 43.7 31.46 43.735 31.2 43.805C30.94 43.865 30.765 44 30.675 44.21C30.585 44.41 30.54 44.725 30.54 45.155C30.54 45.575 30.585 45.895 30.675 46.115C30.765 46.325 30.94 46.465 31.2 46.535C31.46 46.605 31.84 46.64 32.34 46.64ZM30.255 41.015C30.065 41.015 29.91 40.955 29.79 40.835C29.68 40.705 29.625 40.555 29.625 40.385C29.625 40.215 29.68 40.07 29.79 39.95C29.91 39.82 30.065 39.755 30.255 39.755H34.38C34.57 39.755 34.72 39.82 34.83 39.95C34.95 40.07 35.01 40.215 35.01 40.385C35.01 40.555 34.95 40.705 34.83 40.835C34.72 40.955 34.57 41.015 34.38 41.015H30.255ZM39.63 48.17C39.43 48.22 39.25 48.215 39.09 48.155C38.94 48.105 38.835 47.99 38.775 47.81C38.725 47.65 38.735 47.49 38.805 47.33C38.875 47.17 39 47.07 39.18 47.03C39.49 46.96 39.835 46.86 40.215 46.73C40.605 46.59 40.995 46.44 41.385 46.28C41.775 46.11 42.12 45.95 42.42 45.8C41.76 45.72 41.3 45.53 41.04 45.23C40.78 44.92 40.65 44.425 40.65 43.745V41.855C40.65 41.315 40.73 40.895 40.89 40.595C41.05 40.295 41.32 40.085 41.7 39.965C42.09 39.835 42.61 39.77 43.26 39.77H46.755C47.415 39.77 47.935 39.835 48.315 39.965C48.695 40.085 48.965 40.295 49.125 40.595C49.285 40.895 49.365 41.315 49.365 41.855V43.745C49.365 44.425 49.23 44.92 48.96 45.23C48.7 45.53 48.245 45.72 47.595 45.8C47.895 45.95 48.235 46.11 48.615 46.28C49.005 46.44 49.39 46.585 49.77 46.715C50.16 46.845 50.505 46.95 50.805 47.03C50.995 47.07 51.125 47.165 51.195 47.315C51.275 47.475 51.29 47.64 51.24 47.81C51.18 47.98 51.07 48.095 50.91 48.155C50.76 48.215 50.585 48.22 50.385 48.17C50.025 48.06 49.63 47.925 49.2 47.765C48.77 47.605 48.345 47.435 47.925 47.255C47.515 47.075 47.16 46.9 46.86 46.73C46.7 46.64 46.605 46.52 46.575 46.37C46.545 46.22 46.565 46.08 46.635 45.95C46.655 45.93 46.67 45.91 46.68 45.89C46.7 45.87 46.715 45.85 46.725 45.83H43.275C43.325 45.88 43.36 45.92 43.38 45.95C43.46 46.08 43.48 46.22 43.44 46.37C43.41 46.52 43.315 46.64 43.155 46.73C42.855 46.9 42.495 47.075 42.075 47.255C41.665 47.435 41.245 47.605 40.815 47.765C40.385 47.925 39.99 48.06 39.63 48.17ZM47.01 39.2C46.07 39.2 45.415 39.075 45.045 38.825C44.675 38.565 44.49 38.1 44.49 37.43V35.015C44.49 34.825 44.55 34.675 44.67 34.565C44.79 34.455 44.935 34.4 45.105 34.4C45.275 34.4 45.42 34.455 45.54 34.565C45.67 34.675 45.735 34.825 45.735 35.015V36.005C46.155 35.935 46.615 35.85 47.115 35.75C47.615 35.64 48.1 35.52 48.57 35.39C49.05 35.26 49.455 35.14 49.785 35.03C49.965 34.97 50.135 34.97 50.295 35.03C50.455 35.09 50.555 35.195 50.595 35.345C50.645 35.505 50.64 35.655 50.58 35.795C50.52 35.925 50.39 36.02 50.19 36.08C49.8 36.2 49.34 36.325 48.81 36.455C48.29 36.575 47.76 36.685 47.22 36.785C46.68 36.885 46.185 36.965 45.735 37.025V37.19C45.735 37.53 45.81 37.76 45.96 37.88C46.11 38 46.46 38.06 47.01 38.06H48.945C49.435 38.06 49.795 37.99 50.025 37.85C50.265 37.71 50.43 37.47 50.52 37.13C50.58 36.97 50.68 36.855 50.82 36.785C50.97 36.705 51.125 36.69 51.285 36.74C51.455 36.78 51.58 36.875 51.66 37.025C51.74 37.165 51.76 37.32 51.72 37.49C51.59 38.1 51.31 38.54 50.88 38.81C50.46 39.07 49.815 39.2 48.945 39.2H47.01ZM41.535 39.59C41.355 39.59 41.2 39.53 41.07 39.41C40.95 39.29 40.89 39.135 40.89 38.945V37.25C40.59 37.44 40.29 37.62 39.99 37.79C39.69 37.96 39.405 38.115 39.135 38.255C38.945 38.345 38.755 38.37 38.565 38.33C38.375 38.28 38.24 38.17 38.16 38C38.09 37.85 38.08 37.695 38.13 37.535C38.19 37.365 38.305 37.245 38.475 37.175C38.915 36.975 39.375 36.73 39.855 36.44C40.345 36.15 40.81 35.84 41.25 35.51C41.7 35.18 42.08 34.865 42.39 34.565C42.52 34.445 42.67 34.39 42.84 34.4C43.02 34.4 43.17 34.465 43.29 34.595C43.41 34.715 43.465 34.855 43.455 35.015C43.445 35.175 43.375 35.315 43.245 35.435C43.095 35.585 42.93 35.735 42.75 35.885C42.57 36.035 42.38 36.19 42.18 36.35V38.945C42.18 39.135 42.115 39.29 41.985 39.41C41.855 39.53 41.705 39.59 41.535 39.59ZM42 43.145H48.015V42.395H42V43.145ZM43.245 44.795H46.77C47.24 44.795 47.56 44.75 47.73 44.66C47.9 44.57 47.995 44.36 48.015 44.03H42C42.02 44.36 42.115 44.57 42.285 44.66C42.465 44.75 42.785 44.795 43.245 44.795ZM42.015 41.495H48C47.97 41.205 47.87 41.02 47.7 40.94C47.53 40.85 47.22 40.805 46.77 40.805H43.245C42.795 40.805 42.485 40.85 42.315 40.94C42.145 41.02 42.045 41.205 42.015 41.495ZM54.765 48.365C54.575 48.405 54.41 48.385 54.27 48.305C54.14 48.225 54.055 48.105 54.015 47.945C53.985 47.805 54.005 47.67 54.075 47.54C54.145 47.41 54.275 47.33 54.465 47.3C54.815 47.24 55.2 47.165 55.62 47.075C56.04 46.985 56.455 46.88 56.865 46.76C57.275 46.64 57.64 46.52 57.96 46.4H57.72C57.15 46.4 56.705 46.345 56.385 46.235C56.065 46.125 55.835 45.93 55.695 45.65C55.565 45.36 55.5 44.96 55.5 44.45V43.4C55.5 42.89 55.565 42.495 55.695 42.215C55.835 41.935 56.065 41.74 56.385 41.63C56.705 41.51 57.15 41.45 57.72 41.45H62.34C62.91 41.45 63.355 41.51 63.675 41.63C64.005 41.74 64.235 41.935 64.365 42.215C64.495 42.495 64.56 42.89 64.56 43.4V44.45C64.56 44.96 64.495 45.36 64.365 45.65C64.235 45.93 64.005 46.125 63.675 46.235C63.355 46.345 62.91 46.4 62.34 46.4H62.055C62.385 46.52 62.75 46.64 63.15 46.76C63.56 46.88 63.975 46.985 64.395 47.075C64.815 47.165 65.2 47.24 65.55 47.3C65.74 47.33 65.87 47.41 65.94 47.54C66.01 47.67 66.03 47.805 66 47.945C65.92 48.305 65.675 48.445 65.265 48.365C64.875 48.285 64.45 48.185 63.99 48.065C63.53 47.955 63.08 47.83 62.64 47.69C62.2 47.55 61.81 47.405 61.47 47.255C61.34 47.205 61.255 47.115 61.215 46.985C61.175 46.845 61.175 46.72 61.215 46.61C61.235 46.56 61.255 46.52 61.275 46.49C61.305 46.46 61.335 46.43 61.365 46.4H58.65C58.68 46.43 58.71 46.46 58.74 46.49C58.77 46.52 58.79 46.56 58.8 46.61C58.85 46.72 58.85 46.845 58.8 46.985C58.76 47.115 58.675 47.205 58.545 47.255C58.215 47.405 57.83 47.55 57.39 47.69C56.95 47.83 56.5 47.955 56.04 48.065C55.58 48.185 55.155 48.285 54.765 48.365ZM54.39 41.27C54.25 41.28 54.13 41.245 54.03 41.165C53.94 41.075 53.885 40.965 53.865 40.835C53.855 40.715 53.885 40.605 53.955 40.505C54.035 40.405 54.145 40.35 54.285 40.34C54.555 40.32 54.86 40.3 55.2 40.28C55.54 40.25 55.895 40.22 56.265 40.19V39.395H54.885C54.765 39.395 54.67 39.355 54.6 39.275C54.54 39.185 54.51 39.09 54.51 38.99C54.51 38.89 54.54 38.8 54.6 38.72C54.67 38.64 54.765 38.6 54.885 38.6H56.265V37.865H54.705C54.665 37.865 54.625 37.86 54.585 37.85C54.545 37.83 54.51 37.815 54.48 37.805C54.36 37.875 54.24 37.91 54.12 37.91C53.95 37.91 53.805 37.855 53.685 37.745C53.565 37.635 53.505 37.49 53.505 37.31V36.785C53.505 36.255 53.64 35.89 53.91 35.69C54.18 35.49 54.66 35.39 55.35 35.39H59.31V34.805C59.31 34.615 59.375 34.46 59.505 34.34C59.635 34.22 59.8 34.16 60 34.16C60.21 34.16 60.38 34.22 60.51 34.34C60.64 34.46 60.705 34.615 60.705 34.805V35.39H64.65C65.34 35.39 65.82 35.49 66.09 35.69C66.36 35.89 66.495 36.255 66.495 36.785V37.31C66.495 37.49 66.435 37.635 66.315 37.745C66.195 37.855 66.05 37.91 65.88 37.91C65.74 37.91 65.62 37.875 65.52 37.805C65.45 37.875 65.365 37.91 65.265 37.91H63.465V38.555H66C66.11 38.555 66.195 38.595 66.255 38.675C66.325 38.745 66.36 38.835 66.36 38.945C66.36 39.045 66.325 39.135 66.255 39.215C66.195 39.295 66.11 39.335 66 39.335H65.16C65.3 39.335 65.415 39.385 65.505 39.485C65.605 39.575 65.655 39.69 65.655 39.83C65.655 40.26 65.57 40.57 65.4 40.76C65.23 40.95 64.88 41.045 64.35 41.045H61.605C61.085 41.045 60.735 40.95 60.555 40.76C60.375 40.57 60.285 40.26 60.285 39.83C60.285 39.69 60.335 39.575 60.435 39.485C60.535 39.395 60.65 39.35 60.78 39.35C60.92 39.35 61.035 39.395 61.125 39.485C61.215 39.565 61.26 39.675 61.26 39.815C61.26 39.995 61.3 40.115 61.38 40.175C61.46 40.235 61.6 40.265 61.8 40.265H62.475V39.335H60.015C59.895 39.335 59.8 39.295 59.73 39.215C59.67 39.135 59.64 39.045 59.64 38.945C59.64 38.835 59.67 38.745 59.73 38.675C59.8 38.595 59.895 38.555 60.015 38.555H60.075C59.985 38.485 59.93 38.395 59.91 38.285C59.89 38.175 59.92 38.075 60 37.985C60.17 37.795 60.36 37.56 60.57 37.28C60.79 36.99 60.965 36.735 61.095 36.515C61.155 36.405 61.245 36.335 61.365 36.305C61.485 36.275 61.595 36.29 61.695 36.35C61.795 36.41 61.855 36.495 61.875 36.605C61.905 36.705 61.895 36.81 61.845 36.92C61.825 36.95 61.8 36.985 61.77 37.025C61.75 37.055 61.73 37.09 61.71 37.13H65.265V36.905C65.265 36.655 65.21 36.49 65.1 36.41C64.99 36.33 64.735 36.29 64.335 36.29H55.665C55.265 36.29 55.01 36.33 54.9 36.41C54.79 36.49 54.735 36.655 54.735 36.905V37.025H59.04C59.17 37.025 59.27 37.07 59.34 37.16C59.41 37.24 59.445 37.335 59.445 37.445C59.445 37.545 59.41 37.64 59.34 37.73C59.27 37.82 59.17 37.865 59.04 37.865H57.42V38.6H58.83C58.95 38.6 59.04 38.64 59.1 38.72C59.17 38.8 59.205 38.89 59.205 38.99C59.205 39.09 59.17 39.185 59.1 39.275C59.04 39.355 58.95 39.395 58.83 39.395H57.42V40.085C57.74 40.065 58.05 40.04 58.35 40.01C58.65 39.98 58.91 39.955 59.13 39.935C59.24 39.915 59.335 39.945 59.415 40.025C59.495 40.095 59.54 40.185 59.55 40.295C59.56 40.405 59.535 40.51 59.475 40.61C59.415 40.7 59.325 40.755 59.205 40.775C58.795 40.825 58.3 40.885 57.72 40.955C57.15 41.015 56.57 41.075 55.98 41.135C55.39 41.185 54.86 41.23 54.39 41.27ZM56.73 44.18H63.33V43.625H56.73V44.18ZM57.915 45.545H62.145C62.555 45.545 62.84 45.51 63 45.44C63.16 45.37 63.26 45.21 63.3 44.96H56.76C56.79 45.21 56.89 45.37 57.06 45.44C57.23 45.51 57.515 45.545 57.915 45.545ZM56.76 42.845H63.3C63.26 42.615 63.155 42.47 62.985 42.41C62.815 42.34 62.535 42.305 62.145 42.305H57.915C57.525 42.305 57.245 42.34 57.075 42.41C56.915 42.47 56.81 42.615 56.76 42.845ZM65.16 39.335H63.465V40.265H64.14C64.34 40.265 64.475 40.235 64.545 40.175C64.625 40.115 64.665 39.995 64.665 39.815C64.665 39.675 64.715 39.56 64.815 39.47C64.915 39.38 65.03 39.335 65.16 39.335ZM60.615 38.555H62.475V37.91H61.185C61.105 38.01 61.025 38.105 60.945 38.195C60.875 38.285 60.805 38.37 60.735 38.45C60.715 38.48 60.675 38.515 60.615 38.555ZM76.005 48.365C75.815 48.365 75.655 48.305 75.525 48.185C75.405 48.065 75.345 47.905 75.345 47.705V46.475H71.19C71.02 46.475 70.88 46.425 70.77 46.325C70.67 46.215 70.62 46.08 70.62 45.92C70.62 45.76 70.67 45.625 70.77 45.515C70.88 45.405 71.02 45.35 71.19 45.35H75.345V44.645H74.61C73.87 44.645 73.295 44.575 72.885 44.435C72.485 44.295 72.205 44.05 72.045 43.7C71.895 43.35 71.82 42.865 71.82 42.245C71.82 41.615 71.895 41.13 72.045 40.79C72.205 40.44 72.485 40.195 72.885 40.055C73.295 39.915 73.87 39.845 74.61 39.845H75.345V39.17H71.595C71.425 39.17 71.29 39.12 71.19 39.02C71.09 38.91 71.04 38.775 71.04 38.615C71.04 38.465 71.09 38.335 71.19 38.225C71.29 38.115 71.425 38.06 71.595 38.06H75.345V37.025H72.465C71.965 37.025 71.575 37.075 71.295 37.175C71.015 37.265 70.82 37.435 70.71 37.685C70.61 37.925 70.56 38.275 70.56 38.735V39.725C70.56 40.945 70.52 42.02 70.44 42.95C70.37 43.88 70.24 44.72 70.05 45.47C69.86 46.22 69.59 46.94 69.24 47.63C69.16 47.8 69.03 47.915 68.85 47.975C68.68 48.035 68.51 48.03 68.34 47.96C68.17 47.89 68.055 47.775 67.995 47.615C67.945 47.455 67.955 47.295 68.025 47.135C68.345 46.505 68.595 45.84 68.775 45.14C68.965 44.44 69.095 43.65 69.165 42.77C69.245 41.89 69.285 40.87 69.285 39.71V38.72C69.285 37.99 69.38 37.415 69.57 36.995C69.77 36.575 70.095 36.28 70.545 36.11C71.005 35.93 71.63 35.84 72.42 35.84H74.61V34.895C74.61 34.685 74.68 34.52 74.82 34.4C74.97 34.28 75.14 34.22 75.33 34.22C75.52 34.22 75.685 34.28 75.825 34.4C75.965 34.52 76.035 34.685 76.035 34.895V35.84H81.165C81.335 35.84 81.47 35.9 81.57 36.02C81.68 36.14 81.735 36.28 81.735 36.44C81.735 36.6 81.68 36.74 81.57 36.86C81.47 36.97 81.335 37.025 81.165 37.025H76.665V38.06H80.715C80.885 38.06 81.02 38.115 81.12 38.225C81.22 38.335 81.27 38.465 81.27 38.615C81.27 38.775 81.22 38.91 81.12 39.02C81.02 39.12 80.885 39.17 80.715 39.17H76.665V39.845H77.415C78.165 39.845 78.74 39.915 79.14 40.055C79.55 40.195 79.83 40.44 79.98 40.79C80.13 41.13 80.205 41.615 80.205 42.245C80.205 42.865 80.13 43.35 79.98 43.7C79.83 44.05 79.55 44.295 79.14 44.435C78.74 44.575 78.165 44.645 77.415 44.645H76.665V45.35H81.09C81.26 45.35 81.395 45.405 81.495 45.515C81.605 45.625 81.66 45.76 81.66 45.92C81.66 46.08 81.605 46.215 81.495 46.325C81.395 46.425 81.26 46.475 81.09 46.475H76.665V47.705C76.665 47.905 76.6 48.065 76.47 48.185C76.34 48.305 76.185 48.365 76.005 48.365ZM76.665 43.595H77.4C77.93 43.595 78.295 43.55 78.495 43.46C78.705 43.36 78.83 43.125 78.87 42.755H76.665V43.595ZM76.665 41.72H78.87C78.83 41.36 78.705 41.13 78.495 41.03C78.295 40.93 77.93 40.88 77.4 40.88H76.665V41.72ZM74.625 43.595H75.345V42.755H73.155C73.205 43.125 73.33 43.36 73.53 43.46C73.74 43.55 74.105 43.595 74.625 43.595ZM73.155 41.72H75.345V40.88H74.625C74.105 40.88 73.74 40.93 73.53 41.03C73.33 41.13 73.205 41.36 73.155 41.72Z" fill="#004B97"/>
<path d="M65.756 76.044C65.652 76.044 65.56 76.008 65.48 75.936C65.408 75.864 65.372 75.776 65.372 75.672V74.196C65.116 74.244 64.82 74.3 64.484 74.364C64.148 74.42 63.796 74.48 63.428 74.544C63.068 74.6 62.716 74.656 62.372 74.712C62.036 74.76 61.732 74.804 61.46 74.844C61.356 74.852 61.264 74.832 61.184 74.784C61.112 74.728 61.068 74.652 61.052 74.556C61.044 74.452 61.068 74.368 61.124 74.304C61.188 74.232 61.272 74.192 61.376 74.184C61.536 74.168 61.704 74.148 61.88 74.124C62.064 74.092 62.256 74.064 62.456 74.04V69.804H61.268C61.18 69.804 61.104 69.772 61.04 69.708C60.976 69.644 60.944 69.568 60.944 69.48C60.944 69.392 60.976 69.316 61.04 69.252C61.104 69.188 61.18 69.156 61.268 69.156H71.72C71.808 69.156 71.88 69.188 71.936 69.252C72 69.316 72.032 69.392 72.032 69.48C72.032 69.568 72 69.644 71.936 69.708C71.88 69.772 71.808 69.804 71.72 69.804H66.128V75.672C66.128 75.776 66.092 75.864 66.02 75.936C65.948 76.008 65.86 76.044 65.756 76.044ZM65.048 68.508C64.528 68.508 64.128 68.46 63.848 68.364C63.576 68.268 63.388 68.1 63.284 67.86C63.18 67.612 63.128 67.276 63.128 66.852C63.128 66.42 63.18 66.084 63.284 65.844C63.388 65.604 63.576 65.436 63.848 65.34C64.128 65.244 64.528 65.196 65.048 65.196H67.976C68.504 65.196 68.904 65.244 69.176 65.34C69.456 65.436 69.648 65.604 69.752 65.844C69.856 66.084 69.908 66.42 69.908 66.852C69.908 67.276 69.856 67.612 69.752 67.86C69.648 68.1 69.456 68.268 69.176 68.364C68.904 68.46 68.504 68.508 67.976 68.508H65.048ZM66.92 75.468C66.816 75.516 66.712 75.532 66.608 75.516C66.512 75.5 66.436 75.44 66.38 75.336C66.332 75.248 66.324 75.156 66.356 75.06C66.388 74.972 66.456 74.904 66.56 74.856C67.36 74.52 68.04 74.104 68.6 73.608C68.312 73.28 68.064 72.92 67.856 72.528C67.656 72.136 67.488 71.708 67.352 71.244H66.728C66.648 71.244 66.576 71.212 66.512 71.148C66.448 71.084 66.416 71.012 66.416 70.932C66.416 70.844 66.448 70.768 66.512 70.704C66.576 70.64 66.648 70.608 66.728 70.608H69.416C70.032 70.608 70.428 70.768 70.604 71.088C70.78 71.4 70.752 71.78 70.52 72.228C70.392 72.476 70.248 72.716 70.088 72.948C69.928 73.18 69.752 73.4 69.56 73.608C70.128 74.08 70.852 74.464 71.732 74.76C71.844 74.792 71.916 74.86 71.948 74.964C71.98 75.06 71.976 75.152 71.936 75.24C71.896 75.344 71.824 75.408 71.72 75.432C71.624 75.456 71.524 75.448 71.42 75.408C70.948 75.24 70.516 75.044 70.124 74.82C69.74 74.596 69.392 74.348 69.08 74.076C68.784 74.348 68.456 74.6 68.096 74.832C67.736 75.064 67.344 75.276 66.92 75.468ZM65.048 67.908H67.976C68.288 67.908 68.524 67.888 68.684 67.848C68.852 67.808 68.968 67.732 69.032 67.62C69.104 67.5 69.144 67.332 69.152 67.116H63.872C63.888 67.444 63.972 67.66 64.124 67.764C64.284 67.86 64.592 67.908 65.048 67.908ZM63.872 66.54H69.152C69.128 66.228 69.036 66.028 68.876 65.94C68.724 65.844 68.424 65.796 67.976 65.796H65.048C64.616 65.796 64.32 65.844 64.16 65.94C64 66.028 63.904 66.228 63.872 66.54ZM69.08 73.14C69.384 72.804 69.632 72.44 69.824 72.048C69.96 71.792 69.992 71.596 69.92 71.46C69.848 71.316 69.64 71.244 69.296 71.244H68.024C68.24 71.972 68.592 72.604 69.08 73.14ZM63.2 73.932C63.608 73.868 64.004 73.808 64.388 73.752C64.772 73.688 65.1 73.632 65.372 73.584V72.768H63.2V73.932ZM63.2 72.204H65.372V71.256H63.2V72.204ZM63.2 70.692H65.372V69.804H63.2V70.692ZM73.772 75.804C73.66 75.86 73.544 75.876 73.424 75.852C73.304 75.828 73.212 75.756 73.148 75.636C73.092 75.524 73.084 75.412 73.124 75.3C73.172 75.196 73.26 75.116 73.388 75.06C74.004 74.804 74.584 74.472 75.128 74.064C75.672 73.648 76.156 73.176 76.58 72.648C77.004 72.112 77.344 71.544 77.6 70.944C77.864 70.344 78.02 69.732 78.068 69.108H73.568C73.464 69.108 73.376 69.072 73.304 69C73.232 68.928 73.196 68.84 73.196 68.736C73.196 68.632 73.232 68.544 73.304 68.472C73.376 68.4 73.464 68.364 73.568 68.364H78.092V65.376C78.092 65.256 78.128 65.16 78.2 65.088C78.28 65.016 78.376 64.98 78.488 64.98C78.6 64.98 78.692 65.016 78.764 65.088C78.844 65.16 78.884 65.256 78.884 65.376V68.364H83.42C83.524 68.364 83.612 68.4 83.684 68.472C83.756 68.544 83.792 68.632 83.792 68.736C83.792 68.84 83.756 68.928 83.684 69C83.612 69.072 83.524 69.108 83.42 69.108H78.896C78.944 69.708 79.096 70.304 79.352 70.896C79.616 71.48 79.96 72.04 80.384 72.576C80.816 73.112 81.304 73.596 81.848 74.028C82.4 74.452 82.992 74.8 83.624 75.072C83.736 75.12 83.808 75.196 83.84 75.3C83.88 75.412 83.872 75.52 83.816 75.624C83.76 75.744 83.668 75.816 83.54 75.84C83.42 75.872 83.304 75.86 83.192 75.804C82.464 75.436 81.788 74.992 81.164 74.472C80.54 73.952 79.996 73.368 79.532 72.72C79.076 72.064 78.728 71.36 78.488 70.608C78.128 71.76 77.536 72.78 76.712 73.668C75.888 74.548 74.908 75.26 73.772 75.804ZM87.524 74.88C87.028 74.88 86.64 74.832 86.36 74.736C86.08 74.632 85.884 74.464 85.772 74.232C85.668 73.992 85.616 73.668 85.616 73.26V68.964C85.616 68.46 85.696 68.088 85.856 67.848C86.024 67.608 86.332 67.456 86.78 67.392C86.812 67.24 86.852 67.056 86.9 66.84C86.948 66.624 86.996 66.408 87.044 66.192C87.092 65.976 87.128 65.792 87.152 65.64C87.168 65.528 87.216 65.444 87.296 65.388C87.384 65.324 87.488 65.3 87.608 65.316C87.728 65.332 87.812 65.384 87.86 65.472C87.916 65.552 87.932 65.648 87.908 65.76C87.884 65.896 87.848 66.06 87.8 66.252C87.752 66.444 87.7 66.64 87.644 66.84C87.596 67.032 87.548 67.2 87.5 67.344H87.524C88.028 67.344 88.416 67.396 88.688 67.5C88.96 67.596 89.148 67.76 89.252 67.992C89.364 68.224 89.42 68.548 89.42 68.964V73.26C89.42 73.668 89.364 73.992 89.252 74.232C89.148 74.464 88.956 74.632 88.676 74.736C88.404 74.832 88.02 74.88 87.524 74.88ZM92.384 75.84C92.272 75.84 92.176 75.808 92.096 75.744C92.016 75.688 91.968 75.6 91.952 75.48C91.944 75.368 91.976 75.272 92.048 75.192C92.128 75.12 92.228 75.08 92.348 75.072C92.828 75.056 93.188 75.02 93.428 74.964C93.676 74.9 93.856 74.78 93.968 74.604C94.08 74.428 94.164 74.16 94.22 73.8C94.324 73.208 94.392 72.528 94.424 71.76C94.456 70.992 94.472 70.124 94.472 69.156C94.472 68.732 94.392 68.448 94.232 68.304C94.08 68.16 93.792 68.088 93.368 68.088H91.628C91.284 68.72 90.908 69.288 90.5 69.792C90.436 69.872 90.352 69.924 90.248 69.948C90.144 69.972 90.048 69.956 89.96 69.9C89.88 69.844 89.828 69.772 89.804 69.684C89.788 69.588 89.808 69.5 89.864 69.42C90.288 68.892 90.676 68.296 91.028 67.632C91.388 66.968 91.668 66.272 91.868 65.544C91.9 65.432 91.96 65.352 92.048 65.304C92.136 65.256 92.232 65.244 92.336 65.268C92.44 65.292 92.52 65.348 92.576 65.436C92.632 65.516 92.644 65.608 92.612 65.712C92.532 65.984 92.44 66.26 92.336 66.54C92.232 66.82 92.116 67.1 91.988 67.38H93.416C93.864 67.38 94.22 67.428 94.484 67.524C94.748 67.62 94.936 67.796 95.048 68.052C95.16 68.3 95.216 68.66 95.216 69.132C95.216 70.148 95.196 71.048 95.156 71.832C95.116 72.616 95.052 73.308 94.964 73.908C94.892 74.428 94.764 74.824 94.58 75.096C94.396 75.376 94.128 75.564 93.776 75.66C93.432 75.764 92.968 75.824 92.384 75.84ZM87.524 74.172C87.988 74.172 88.292 74.108 88.436 73.98C88.58 73.852 88.652 73.596 88.652 73.212V71.388H86.384V73.212C86.384 73.468 86.412 73.668 86.468 73.812C86.532 73.948 86.644 74.044 86.804 74.1C86.972 74.148 87.212 74.172 87.524 74.172ZM86.384 70.692H88.652V69.012C88.652 68.628 88.58 68.372 88.436 68.244C88.292 68.116 87.988 68.052 87.524 68.052C87.212 68.052 86.972 68.08 86.804 68.136C86.644 68.184 86.532 68.28 86.468 68.424C86.412 68.56 86.384 68.756 86.384 69.012V70.692ZM92.972 72.492C92.884 72.548 92.788 72.572 92.684 72.564C92.58 72.548 92.5 72.492 92.444 72.396C92.332 72.204 92.188 71.984 92.012 71.736C91.844 71.488 91.672 71.248 91.496 71.016C91.328 70.776 91.176 70.576 91.04 70.416C90.976 70.344 90.948 70.26 90.956 70.164C90.964 70.06 91.008 69.98 91.088 69.924C91.176 69.86 91.268 69.832 91.364 69.84C91.46 69.84 91.544 69.88 91.616 69.96C91.76 70.128 91.92 70.328 92.096 70.56C92.28 70.792 92.456 71.032 92.624 71.28C92.8 71.52 92.948 71.744 93.068 71.952C93.132 72.048 93.152 72.148 93.128 72.252C93.112 72.348 93.06 72.428 92.972 72.492ZM99.428 76.044C99.324 76.044 99.236 76.008 99.164 75.936C99.1 75.872 99.068 75.788 99.068 75.684V69.96C98.844 70.424 98.596 70.884 98.324 71.34C98.052 71.796 97.788 72.204 97.532 72.564C97.476 72.652 97.396 72.708 97.292 72.732C97.196 72.748 97.104 72.728 97.016 72.672C96.936 72.616 96.884 72.54 96.86 72.444C96.844 72.348 96.868 72.26 96.932 72.18C97.124 71.932 97.324 71.648 97.532 71.328C97.74 71 97.94 70.664 98.132 70.32C98.332 69.968 98.512 69.628 98.672 69.3C98.84 68.972 98.972 68.676 99.068 68.412V68.196H97.316C97.212 68.196 97.128 68.164 97.064 68.1C97 68.036 96.968 67.956 96.968 67.86C96.968 67.764 97 67.684 97.064 67.62C97.128 67.556 97.212 67.524 97.316 67.524H99.068V65.328C99.068 65.216 99.1 65.128 99.164 65.064C99.236 65 99.324 64.968 99.428 64.968C99.532 64.968 99.616 65 99.68 65.064C99.752 65.128 99.788 65.216 99.788 65.328V67.524H101C101.104 67.524 101.184 67.556 101.24 67.62C101.304 67.684 101.336 67.764 101.336 67.86C101.336 67.956 101.304 68.036 101.24 68.1C101.184 68.164 101.104 68.196 101 68.196H99.788V69.132C99.916 69.308 100.076 69.52 100.268 69.768C100.468 70.016 100.668 70.26 100.868 70.5C101.068 70.732 101.236 70.92 101.372 71.064C101.444 71.136 101.476 71.224 101.468 71.328C101.468 71.424 101.432 71.504 101.36 71.568C101.288 71.632 101.2 71.664 101.096 71.664C101 71.656 100.92 71.612 100.856 71.532C100.712 71.372 100.54 71.164 100.34 70.908C100.148 70.652 99.964 70.396 99.788 70.14V75.684C99.788 75.788 99.752 75.872 99.68 75.936C99.616 76.008 99.532 76.044 99.428 76.044ZM101.492 75.852C101.388 75.9 101.276 75.908 101.156 75.876C101.044 75.852 100.96 75.784 100.904 75.672C100.856 75.56 100.852 75.456 100.892 75.36C100.94 75.264 101.02 75.192 101.132 75.144C102.34 74.672 103.332 73.98 104.108 73.068C103.86 72.724 103.632 72.356 103.424 71.964C103.216 71.572 103.032 71.148 102.872 70.692C102.84 70.588 102.844 70.496 102.884 70.416C102.932 70.328 103 70.268 103.088 70.236C103.184 70.204 103.276 70.204 103.364 70.236C103.46 70.268 103.524 70.34 103.556 70.452C103.684 70.836 103.832 71.196 104 71.532C104.176 71.868 104.364 72.18 104.564 72.468C104.988 71.852 105.308 71.152 105.524 70.368C105.556 70.256 105.616 70.18 105.704 70.14C105.792 70.1 105.888 70.1 105.992 70.14C106.08 70.172 106.148 70.228 106.196 70.308C106.252 70.388 106.264 70.484 106.232 70.596C105.936 71.548 105.536 72.372 105.032 73.068C105.432 73.524 105.876 73.924 106.364 74.268C106.852 74.604 107.364 74.9 107.9 75.156C108.004 75.212 108.072 75.288 108.104 75.384C108.144 75.488 108.136 75.592 108.08 75.696C108.024 75.8 107.94 75.864 107.828 75.888C107.716 75.92 107.608 75.908 107.504 75.852C106.944 75.556 106.416 75.228 105.92 74.868C105.432 74.508 104.988 74.1 104.588 73.644C104.172 74.124 103.704 74.544 103.184 74.904C102.664 75.264 102.1 75.58 101.492 75.852ZM101.756 67.788C101.652 67.788 101.564 67.756 101.492 67.692C101.428 67.62 101.396 67.536 101.396 67.44C101.396 67.344 101.428 67.264 101.492 67.2C101.564 67.128 101.652 67.092 101.756 67.092H104.192V65.376C104.192 65.264 104.228 65.176 104.3 65.112C104.38 65.04 104.472 65.004 104.576 65.004C104.68 65.004 104.768 65.04 104.84 65.112C104.912 65.176 104.948 65.264 104.948 65.376V67.092H107.396C107.5 67.092 107.584 67.128 107.648 67.2C107.712 67.264 107.744 67.344 107.744 67.44C107.744 67.536 107.712 67.62 107.648 67.692C107.584 67.756 107.5 67.788 107.396 67.788H101.756ZM101.972 70.584C101.892 70.64 101.796 70.664 101.684 70.656C101.58 70.648 101.496 70.604 101.432 70.524C101.368 70.436 101.34 70.348 101.348 70.26C101.356 70.164 101.4 70.088 101.48 70.032C101.664 69.896 101.864 69.724 102.08 69.516C102.304 69.308 102.524 69.088 102.74 68.856C102.956 68.624 103.136 68.412 103.28 68.22C103.344 68.14 103.424 68.096 103.52 68.088C103.616 68.072 103.704 68.096 103.784 68.16C103.872 68.224 103.92 68.304 103.928 68.4C103.936 68.496 103.908 68.584 103.844 68.664C103.596 68.992 103.3 69.332 102.956 69.684C102.612 70.036 102.284 70.336 101.972 70.584ZM107.252 70.512C106.932 70.28 106.592 69.996 106.232 69.66C105.872 69.316 105.56 68.984 105.296 68.664C105.232 68.592 105.204 68.508 105.212 68.412C105.22 68.308 105.264 68.224 105.344 68.16C105.416 68.096 105.5 68.068 105.596 68.076C105.7 68.084 105.78 68.128 105.836 68.208C105.988 68.384 106.172 68.584 106.388 68.808C106.612 69.024 106.84 69.236 107.072 69.444C107.312 69.644 107.524 69.812 107.708 69.948C107.788 70.004 107.836 70.08 107.852 70.176C107.868 70.272 107.844 70.36 107.78 70.44C107.716 70.52 107.632 70.568 107.528 70.584C107.432 70.6 107.34 70.576 107.252 70.512ZM112.904 75.624C112.272 75.624 111.74 75.584 111.308 75.504C110.876 75.424 110.528 75.276 110.264 75.06C110.008 74.844 109.82 74.536 109.7 74.136C109.588 73.736 109.532 73.22 109.532 72.588V68.28C109.532 67.648 109.588 67.136 109.7 66.744C109.82 66.344 110.008 66.036 110.264 65.82C110.528 65.604 110.876 65.456 111.308 65.376C111.74 65.288 112.272 65.244 112.904 65.244H116.096C116.728 65.244 117.26 65.288 117.692 65.376C118.124 65.456 118.468 65.604 118.724 65.82C118.988 66.036 119.176 66.344 119.288 66.744C119.408 67.136 119.468 67.648 119.468 68.28V72.588C119.468 73.22 119.408 73.736 119.288 74.136C119.176 74.536 118.988 74.844 118.724 75.06C118.468 75.276 118.124 75.424 117.692 75.504C117.26 75.584 116.728 75.624 116.096 75.624H112.904ZM112.904 74.94H116.096C116.6 74.94 117.02 74.912 117.356 74.856C117.7 74.8 117.972 74.692 118.172 74.532C118.372 74.372 118.516 74.136 118.604 73.824C118.692 73.512 118.736 73.104 118.736 72.6V68.28C118.736 67.768 118.692 67.36 118.604 67.056C118.516 66.744 118.372 66.508 118.172 66.348C117.972 66.188 117.7 66.08 117.356 66.024C117.02 65.968 116.6 65.94 116.096 65.94H112.904C112.4 65.94 111.976 65.968 111.632 66.024C111.296 66.08 111.028 66.188 110.828 66.348C110.628 66.508 110.484 66.744 110.396 67.056C110.308 67.36 110.264 67.768 110.264 68.28V72.6C110.264 73.104 110.308 73.512 110.396 73.824C110.484 74.136 110.628 74.372 110.828 74.532C111.028 74.692 111.296 74.8 111.632 74.856C111.976 74.912 112.4 74.94 112.904 74.94ZM114.392 74.724C114.304 74.724 114.224 74.696 114.152 74.64C114.088 74.576 114.056 74.492 114.056 74.388V72.24C113.792 72.448 113.496 72.66 113.168 72.876C112.848 73.084 112.52 73.28 112.184 73.464C111.848 73.648 111.528 73.808 111.224 73.944C111.144 73.976 111.06 73.98 110.972 73.956C110.884 73.924 110.82 73.872 110.78 73.8C110.748 73.728 110.744 73.652 110.768 73.572C110.792 73.492 110.844 73.436 110.924 73.404C111.204 73.3 111.508 73.164 111.836 72.996C112.172 72.82 112.504 72.632 112.832 72.432C113.16 72.224 113.448 72.024 113.696 71.832H113.396C112.852 71.832 112.48 71.76 112.28 71.616C112.08 71.464 111.98 71.176 111.98 70.752C111.98 70.32 112.08 70.032 112.28 69.888C112.48 69.736 112.852 69.66 113.396 69.66H115.568C116.12 69.66 116.492 69.736 116.684 69.888C116.884 70.032 116.984 70.32 116.984 70.752C116.984 71.176 116.884 71.464 116.684 71.616C116.492 71.76 116.12 71.832 115.568 71.832H114.74V71.844C114.74 71.844 114.756 71.852 114.788 71.868C114.972 72.012 115.168 72.152 115.376 72.288C115.592 72.416 115.812 72.54 116.036 72.66C116.204 72.524 116.396 72.364 116.612 72.18C116.828 71.996 116.988 71.848 117.092 71.736C117.148 71.672 117.216 71.636 117.296 71.628C117.384 71.62 117.464 71.64 117.536 71.688C117.6 71.728 117.64 71.792 117.656 71.88C117.672 71.96 117.648 72.032 117.584 72.096C117.464 72.216 117.304 72.352 117.104 72.504C116.912 72.656 116.736 72.796 116.576 72.924C117.056 73.14 117.536 73.316 118.016 73.452C118.104 73.468 118.164 73.516 118.196 73.596C118.236 73.668 118.24 73.748 118.208 73.836C118.176 73.924 118.116 73.988 118.028 74.028C117.94 74.068 117.848 74.072 117.752 74.04C117.216 73.864 116.68 73.64 116.144 73.368C115.608 73.096 115.14 72.808 114.74 72.504V74.388C114.74 74.492 114.704 74.576 114.632 74.64C114.568 74.696 114.488 74.724 114.392 74.724ZM110.996 69.084C110.916 69.084 110.848 69.052 110.792 68.988C110.736 68.924 110.708 68.852 110.708 68.772C110.708 68.692 110.736 68.624 110.792 68.568C110.848 68.504 110.916 68.472 110.996 68.472H114.152V67.68H111.872C111.792 67.68 111.724 67.652 111.668 67.596C111.62 67.532 111.596 67.46 111.596 67.38C111.596 67.3 111.62 67.228 111.668 67.164C111.724 67.1 111.792 67.068 111.872 67.068H114.152V66.504C114.152 66.408 114.184 66.328 114.248 66.264C114.32 66.2 114.4 66.168 114.488 66.168C114.584 66.168 114.664 66.2 114.728 66.264C114.8 66.328 114.836 66.408 114.836 66.504V67.068H117.056C117.144 67.068 117.212 67.1 117.26 67.164C117.316 67.228 117.344 67.3 117.344 67.38C117.344 67.46 117.316 67.532 117.26 67.596C117.212 67.652 117.144 67.68 117.056 67.68H114.836V68.472H117.956C118.044 68.472 118.112 68.504 118.16 68.568C118.216 68.624 118.244 68.692 118.244 68.772C118.244 68.852 118.216 68.924 118.16 68.988C118.112 69.052 118.044 69.084 117.956 69.084H110.996ZM113.396 71.256H115.568C115.848 71.256 116.036 71.232 116.132 71.184C116.228 71.128 116.276 70.984 116.276 70.752C116.276 70.512 116.228 70.368 116.132 70.32C116.036 70.264 115.848 70.236 115.568 70.236H113.396C113.116 70.236 112.928 70.264 112.832 70.32C112.736 70.368 112.688 70.512 112.688 70.752C112.688 70.984 112.736 71.128 112.832 71.184C112.928 71.232 113.116 71.256 113.396 71.256ZM121.376 71.94C121.272 71.94 121.184 71.904 121.112 71.832C121.048 71.76 121.016 71.672 121.016 71.568C121.016 71.472 121.048 71.388 121.112 71.316C121.184 71.244 121.272 71.208 121.376 71.208H124.292V68.46H122.12C122.016 68.46 121.928 68.428 121.856 68.364C121.792 68.292 121.76 68.204 121.76 68.1C121.76 67.996 121.792 67.912 121.856 67.848C121.928 67.776 122.016 67.74 122.12 67.74H124.292V65.64C124.292 65.528 124.332 65.436 124.412 65.364C124.492 65.284 124.584 65.244 124.688 65.244C124.8 65.244 124.892 65.284 124.964 65.364C125.044 65.436 125.084 65.528 125.084 65.64V67.74H127.904V65.64C127.904 65.528 127.94 65.436 128.012 65.364C128.092 65.284 128.188 65.244 128.3 65.244C128.412 65.244 128.504 65.284 128.576 65.364C128.656 65.436 128.696 65.528 128.696 65.64V67.74H130.892C130.996 67.74 131.08 67.776 131.144 67.848C131.216 67.912 131.252 67.996 131.252 68.1C131.252 68.204 131.216 68.292 131.144 68.364C131.08 68.428 130.996 68.46 130.892 68.46H128.696V71.208H131.612C131.716 71.208 131.8 71.244 131.864 71.316C131.936 71.388 131.972 71.472 131.972 71.568C131.972 71.672 131.936 71.76 131.864 71.832C131.8 71.904 131.716 71.94 131.612 71.94H121.376ZM125.084 71.208H127.904V68.46H125.084V71.208ZM131.12 75.624C130.768 75.448 130.38 75.232 129.956 74.976C129.54 74.712 129.132 74.436 128.732 74.148C128.332 73.852 127.988 73.572 127.7 73.308C127.62 73.236 127.576 73.148 127.568 73.044C127.56 72.932 127.596 72.836 127.676 72.756C127.748 72.676 127.84 72.636 127.952 72.636C128.064 72.628 128.16 72.66 128.24 72.732C128.504 72.972 128.828 73.232 129.212 73.512C129.604 73.792 130.004 74.06 130.412 74.316C130.828 74.564 131.208 74.768 131.552 74.928C131.656 74.976 131.728 75.052 131.768 75.156C131.808 75.268 131.796 75.376 131.732 75.48C131.668 75.6 131.576 75.668 131.456 75.684C131.344 75.7 131.232 75.68 131.12 75.624ZM121.88 75.624C121.768 75.68 121.652 75.7 121.532 75.684C121.42 75.668 121.332 75.6 121.268 75.48C121.212 75.376 121.2 75.268 121.232 75.156C121.272 75.052 121.344 74.976 121.448 74.928C121.792 74.776 122.172 74.576 122.588 74.328C123.012 74.072 123.416 73.804 123.8 73.524C124.192 73.236 124.512 72.972 124.76 72.732C124.848 72.66 124.944 72.628 125.048 72.636C125.16 72.636 125.252 72.676 125.324 72.756C125.404 72.836 125.44 72.932 125.432 73.044C125.424 73.148 125.38 73.236 125.3 73.308C125.012 73.572 124.668 73.852 124.268 74.148C123.876 74.436 123.468 74.712 123.044 74.976C122.628 75.232 122.24 75.448 121.88 75.624ZM137.108 76.056C136.98 76.056 136.88 76.016 136.808 75.936C136.736 75.864 136.696 75.776 136.688 75.672C136.688 75.576 136.724 75.488 136.796 75.408C136.868 75.336 136.964 75.3 137.084 75.3C137.724 75.292 138.16 75.192 138.392 75C138.624 74.8 138.74 74.476 138.74 74.028C138.74 73.836 138.708 73.644 138.644 73.452H133.304C133.208 73.452 133.124 73.42 133.052 73.356C132.988 73.284 132.956 73.2 132.956 73.104C132.956 73.016 132.988 72.94 133.052 72.876C133.124 72.804 133.208 72.768 133.304 72.768H138.212C138.092 72.624 137.948 72.492 137.78 72.372C137.708 72.316 137.664 72.24 137.648 72.144C137.632 72.048 137.652 71.96 137.708 71.88C137.772 71.8 137.852 71.756 137.948 71.748C138.044 71.732 138.132 71.752 138.212 71.808C138.26 71.832 138.304 71.86 138.344 71.892C138.384 71.916 138.42 71.94 138.452 71.964C138.684 71.908 138.944 71.844 139.232 71.772C139.52 71.7 139.788 71.632 140.036 71.568C140.284 71.496 140.468 71.444 140.588 71.412C140.708 71.372 140.764 71.316 140.756 71.244C140.748 71.172 140.68 71.136 140.552 71.136H134.744C134.656 71.136 134.576 71.104 134.504 71.04C134.44 70.968 134.408 70.888 134.408 70.8C134.408 70.704 134.44 70.624 134.504 70.56C134.576 70.496 134.656 70.464 134.744 70.464H140.744C141.032 70.464 141.256 70.528 141.416 70.656C141.576 70.776 141.664 70.928 141.68 71.112C141.704 71.288 141.652 71.456 141.524 71.616C141.396 71.776 141.192 71.892 140.912 71.964C140.784 71.996 140.608 72.04 140.384 72.096C140.168 72.152 139.932 72.212 139.676 72.276C139.428 72.34 139.188 72.4 138.956 72.456C138.996 72.504 139.032 72.556 139.064 72.612C139.096 72.66 139.128 72.712 139.16 72.768H143.66C143.748 72.768 143.824 72.804 143.888 72.876C143.96 72.94 143.996 73.016 143.996 73.104C143.996 73.2 143.96 73.284 143.888 73.356C143.824 73.42 143.748 73.452 143.66 73.452H139.424C139.44 73.548 139.452 73.648 139.46 73.752C139.476 73.848 139.484 73.944 139.484 74.04C139.484 74.72 139.308 75.224 138.956 75.552C138.604 75.888 137.988 76.056 137.108 76.056ZM136.568 69.78C136.04 69.78 135.668 69.692 135.452 69.516C135.244 69.34 135.14 69.044 135.14 68.628C135.14 68.212 135.244 67.916 135.452 67.74C135.668 67.564 136.04 67.476 136.568 67.476H140.432C140.952 67.476 141.316 67.564 141.524 67.74C141.74 67.916 141.848 68.212 141.848 68.628C141.848 69.044 141.74 69.34 141.524 69.516C141.316 69.692 140.952 69.78 140.432 69.78H136.568ZM133.676 66.768C133.58 66.768 133.496 66.736 133.424 66.672C133.36 66.608 133.328 66.528 133.328 66.432C133.328 66.336 133.36 66.256 133.424 66.192C133.496 66.128 133.58 66.096 133.676 66.096H138.08V65.256C138.08 65.136 138.12 65.04 138.2 64.968C138.28 64.888 138.376 64.848 138.488 64.848C138.6 64.848 138.696 64.888 138.776 64.968C138.856 65.04 138.896 65.136 138.896 65.256V66.096H143.288C143.384 66.096 143.464 66.128 143.528 66.192C143.6 66.256 143.636 66.336 143.636 66.432C143.636 66.528 143.6 66.608 143.528 66.672C143.464 66.736 143.384 66.768 143.288 66.768H133.676ZM136.58 69.132H140.42C140.66 69.132 140.828 69.1 140.924 69.036C141.02 68.964 141.068 68.828 141.068 68.628C141.068 68.428 141.02 68.296 140.924 68.232C140.828 68.168 140.66 68.136 140.42 68.136H136.58C136.332 68.136 136.16 68.168 136.064 68.232C135.968 68.296 135.92 68.428 135.92 68.628C135.92 68.828 135.968 68.964 136.064 69.036C136.16 69.1 136.332 69.132 136.58 69.132ZM147.356 76.008C147.26 76.008 147.18 75.976 147.116 75.912C147.052 75.848 147.02 75.764 147.02 75.66V70.68C146.708 70.704 146.404 70.728 146.108 70.752C145.82 70.776 145.56 70.796 145.328 70.812C145.096 70.828 144.972 70.728 144.956 70.512C144.948 70.424 144.972 70.348 145.028 70.284C145.092 70.212 145.176 70.172 145.28 70.164C145.368 70.164 145.464 70.164 145.568 70.164C145.68 70.156 145.796 70.148 145.916 70.14C146.068 69.94 146.232 69.708 146.408 69.444C146.592 69.172 146.772 68.888 146.948 68.592C146.788 68.464 146.596 68.32 146.372 68.16C146.156 67.992 145.936 67.832 145.712 67.68C145.496 67.52 145.304 67.388 145.136 67.284C145.064 67.236 145.02 67.172 145.004 67.092C144.988 67.004 145 66.924 145.04 66.852C145.088 66.772 145.156 66.724 145.244 66.708C145.332 66.684 145.416 66.696 145.496 66.744C145.568 66.792 145.648 66.848 145.736 66.912C145.824 66.968 145.916 67.028 146.012 67.092C146.116 66.924 146.232 66.724 146.36 66.492C146.496 66.26 146.624 66.032 146.744 65.808C146.864 65.576 146.956 65.388 147.02 65.244C147.06 65.156 147.124 65.1 147.212 65.076C147.308 65.044 147.396 65.048 147.476 65.088C147.564 65.12 147.62 65.18 147.644 65.268C147.676 65.348 147.672 65.428 147.632 65.508C147.544 65.684 147.432 65.892 147.296 66.132C147.168 66.364 147.032 66.6 146.888 66.84C146.752 67.072 146.624 67.276 146.504 67.452C146.648 67.556 146.788 67.66 146.924 67.764C147.06 67.86 147.184 67.952 147.296 68.04C147.48 67.736 147.648 67.448 147.8 67.176C147.952 66.904 148.076 66.672 148.172 66.48C148.212 66.392 148.276 66.336 148.364 66.312C148.46 66.28 148.548 66.284 148.628 66.324C148.716 66.364 148.772 66.428 148.796 66.516C148.82 66.596 148.812 66.68 148.772 66.768C148.604 67.088 148.4 67.444 148.16 67.836C147.928 68.228 147.684 68.62 147.428 69.012C147.172 69.404 146.928 69.764 146.696 70.092C147.024 70.068 147.352 70.044 147.68 70.02C148.008 69.988 148.296 69.964 148.544 69.948C148.48 69.82 148.412 69.7 148.34 69.588C148.276 69.468 148.216 69.364 148.16 69.276C148.112 69.196 148.104 69.116 148.136 69.036C148.168 68.956 148.22 68.9 148.292 68.868C148.372 68.82 148.452 68.808 148.532 68.832C148.612 68.856 148.676 68.908 148.724 68.988C148.82 69.14 148.928 69.32 149.048 69.528C149.168 69.736 149.284 69.948 149.396 70.164C149.508 70.38 149.6 70.576 149.672 70.752C149.76 70.952 149.708 71.1 149.516 71.196C149.428 71.236 149.34 71.24 149.252 71.208C149.172 71.176 149.112 71.12 149.072 71.04C149.04 70.952 149 70.864 148.952 70.776C148.912 70.68 148.868 70.584 148.82 70.488C148.668 70.504 148.496 70.524 148.304 70.548C148.112 70.572 147.912 70.592 147.704 70.608V75.66C147.704 75.764 147.668 75.848 147.596 75.912C147.532 75.976 147.452 76.008 147.356 76.008ZM149.504 75.516C149.416 75.516 149.34 75.484 149.276 75.42C149.212 75.356 149.18 75.28 149.18 75.192C149.18 75.104 149.212 75.028 149.276 74.964C149.34 74.892 149.416 74.856 149.504 74.856H152.348V72.42H150.164C150.068 72.42 149.988 72.388 149.924 72.324C149.86 72.252 149.828 72.172 149.828 72.084C149.828 71.988 149.86 71.908 149.924 71.844C149.988 71.78 150.068 71.748 150.164 71.748H155.36C155.448 71.748 155.524 71.78 155.588 71.844C155.652 71.908 155.684 71.988 155.684 72.084C155.684 72.172 155.652 72.252 155.588 72.324C155.524 72.388 155.448 72.42 155.36 72.42H153.068V74.856H155.78C155.868 74.856 155.944 74.892 156.008 74.964C156.072 75.028 156.104 75.104 156.104 75.192C156.104 75.28 156.072 75.356 156.008 75.42C155.944 75.484 155.868 75.516 155.78 75.516H149.504ZM149.924 66.372C149.836 66.372 149.756 66.34 149.684 66.276C149.62 66.204 149.588 66.124 149.588 66.036C149.588 65.948 149.62 65.872 149.684 65.808C149.756 65.736 149.836 65.7 149.924 65.7H155.564C155.652 65.7 155.728 65.736 155.792 65.808C155.864 65.872 155.9 65.948 155.9 66.036C155.9 66.124 155.864 66.204 155.792 66.276C155.728 66.34 155.652 66.372 155.564 66.372H149.924ZM155.456 71.256C155.376 71.312 155.288 71.328 155.192 71.304C155.096 71.272 155.024 71.216 154.976 71.136C154.856 70.928 154.716 70.7 154.556 70.452C154.396 70.204 154.24 69.98 154.088 69.78C153.936 69.564 153.832 69.376 153.776 69.216C153.728 69.056 153.724 68.896 153.764 68.736C153.804 68.568 153.888 68.368 154.016 68.136C154.112 67.968 154.224 67.76 154.352 67.512C154.48 67.264 154.58 67.064 154.652 66.912C154.692 66.808 154.756 66.744 154.844 66.72C154.94 66.688 155.036 66.692 155.132 66.732C155.22 66.772 155.28 66.836 155.312 66.924C155.344 67.012 155.336 67.1 155.288 67.188C155.184 67.388 155.068 67.6 154.94 67.824C154.812 68.048 154.696 68.244 154.592 68.412C154.456 68.628 154.392 68.804 154.4 68.94C154.408 69.076 154.488 69.248 154.64 69.456C154.784 69.656 154.944 69.88 155.12 70.128C155.296 70.368 155.448 70.592 155.576 70.8C155.632 70.88 155.648 70.964 155.624 71.052C155.6 71.14 155.544 71.208 155.456 71.256ZM153.428 71.304C153.34 71.344 153.248 71.352 153.152 71.328C153.064 71.296 153 71.24 152.96 71.16C152.856 70.952 152.728 70.72 152.576 70.464C152.424 70.208 152.28 69.98 152.144 69.78C152 69.556 151.904 69.368 151.856 69.216C151.816 69.056 151.816 68.896 151.856 68.736C151.904 68.576 151.988 68.384 152.108 68.16C152.196 67.984 152.3 67.78 152.42 67.548C152.54 67.308 152.636 67.1 152.708 66.924C152.748 66.828 152.812 66.764 152.9 66.732C152.996 66.7 153.088 66.704 153.176 66.744C153.272 66.784 153.336 66.848 153.368 66.936C153.4 67.016 153.396 67.1 153.356 67.188C153.252 67.396 153.14 67.608 153.02 67.824C152.908 68.04 152.796 68.24 152.684 68.424C152.556 68.648 152.492 68.828 152.492 68.964C152.5 69.1 152.572 69.276 152.708 69.492C152.844 69.692 152.992 69.916 153.152 70.164C153.312 70.404 153.452 70.628 153.572 70.836C153.62 70.916 153.628 71.004 153.596 71.1C153.572 71.188 153.516 71.256 153.428 71.304ZM151.4 71.34C151.312 71.38 151.224 71.384 151.136 71.352C151.048 71.32 150.984 71.26 150.944 71.172C150.848 70.972 150.728 70.744 150.584 70.488C150.448 70.224 150.32 69.992 150.2 69.792C150.072 69.568 149.984 69.38 149.936 69.228C149.896 69.068 149.9 68.908 149.948 68.748C149.996 68.588 150.08 68.396 150.2 68.172C150.288 67.988 150.388 67.784 150.5 67.56C150.612 67.328 150.704 67.124 150.776 66.948C150.816 66.852 150.876 66.788 150.956 66.756C151.044 66.716 151.136 66.716 151.232 66.756C151.328 66.788 151.392 66.848 151.424 66.936C151.456 67.024 151.452 67.112 151.412 67.2C151.308 67.408 151.204 67.616 151.1 67.824C150.996 68.032 150.888 68.232 150.776 68.424C150.648 68.656 150.584 68.844 150.584 68.988C150.592 69.132 150.66 69.308 150.788 69.516C150.916 69.732 151.052 69.964 151.196 70.212C151.34 70.452 151.464 70.676 151.568 70.884C151.608 70.964 151.612 71.052 151.58 71.148C151.548 71.236 151.488 71.3 151.4 71.34ZM145.208 74.544C145.128 74.512 145.072 74.456 145.04 74.376C145.008 74.288 145.012 74.204 145.052 74.124C145.164 73.916 145.272 73.672 145.376 73.392C145.488 73.112 145.592 72.824 145.688 72.528C145.784 72.224 145.86 71.952 145.916 71.712C145.94 71.624 145.988 71.56 146.06 71.52C146.132 71.472 146.212 71.46 146.3 71.484C146.388 71.5 146.452 71.544 146.492 71.616C146.532 71.688 146.544 71.768 146.528 71.856C146.44 72.272 146.312 72.708 146.144 73.164C145.976 73.62 145.808 74.02 145.64 74.364C145.544 74.548 145.4 74.608 145.208 74.544ZM149.42 74.004C149.332 74.036 149.244 74.036 149.156 74.004C149.076 73.972 149.016 73.912 148.976 73.824C148.896 73.648 148.808 73.44 148.712 73.2C148.616 72.952 148.524 72.704 148.436 72.456C148.348 72.208 148.276 71.992 148.22 71.808C148.188 71.72 148.196 71.64 148.244 71.568C148.292 71.488 148.356 71.436 148.436 71.412C148.524 71.388 148.604 71.396 148.676 71.436C148.748 71.476 148.8 71.54 148.832 71.628C148.896 71.812 148.972 72.024 149.06 72.264C149.148 72.504 149.24 72.74 149.336 72.972C149.432 73.196 149.52 73.392 149.6 73.56C149.648 73.648 149.652 73.736 149.612 73.824C149.572 73.904 149.508 73.964 149.42 74.004ZM166.1 76.032C166.004 76.032 165.92 75.996 165.848 75.924C165.776 75.852 165.74 75.764 165.74 75.66V73.74H161.612C161.524 74.212 161.36 74.612 161.12 74.94C160.888 75.268 160.556 75.572 160.124 75.852C160.036 75.908 159.94 75.928 159.836 75.912C159.732 75.896 159.648 75.84 159.584 75.744C159.528 75.656 159.512 75.568 159.536 75.48C159.56 75.392 159.616 75.32 159.704 75.264C160.008 75.072 160.252 74.864 160.436 74.64C160.628 74.416 160.768 74.136 160.856 73.8C160.952 73.456 161 73.02 161 72.492V71.172C161 71.068 161.032 70.984 161.096 70.92C161.168 70.856 161.256 70.824 161.36 70.824C161.456 70.824 161.536 70.856 161.6 70.92C161.672 70.984 161.708 71.068 161.708 71.172V71.556H165.74V71.064C165.74 70.952 165.776 70.864 165.848 70.8C165.92 70.736 166.004 70.704 166.1 70.704C166.204 70.704 166.288 70.74 166.352 70.812C166.424 70.876 166.46 70.96 166.46 71.064V75.66C166.46 75.764 166.424 75.852 166.352 75.924C166.288 75.996 166.204 76.032 166.1 76.032ZM163.628 70.92C163.532 70.92 163.448 70.888 163.376 70.824C163.312 70.76 163.28 70.676 163.28 70.572V68.544C163.232 68.488 163.152 68.404 163.04 68.292C162.928 68.172 162.808 68.048 162.68 67.92C162.552 67.784 162.432 67.66 162.32 67.548C162.216 67.428 162.14 67.344 162.092 67.296C162.044 67.24 162.02 67.176 162.02 67.104C162.02 67.032 162.044 66.968 162.092 66.912H159.872C159.792 66.912 159.72 66.88 159.656 66.816C159.592 66.752 159.56 66.676 159.56 66.588C159.56 66.5 159.592 66.428 159.656 66.372C159.72 66.308 159.792 66.276 159.872 66.276H163.28V65.292C163.28 65.18 163.316 65.088 163.388 65.016C163.468 64.944 163.56 64.908 163.664 64.908C163.768 64.908 163.856 64.944 163.928 65.016C164 65.088 164.036 65.18 164.036 65.292V66.276H167.624C167.712 66.276 167.788 66.308 167.852 66.372C167.916 66.428 167.948 66.5 167.948 66.588C167.948 66.676 167.916 66.752 167.852 66.816C167.788 66.88 167.712 66.912 167.624 66.912H165.092C165.228 67.048 165.236 67.184 165.116 67.32C165.068 67.376 164.992 67.46 164.888 67.572C164.784 67.684 164.668 67.808 164.54 67.944C164.42 68.08 164.304 68.204 164.192 68.316C164.088 68.428 164.012 68.512 163.964 68.568L163.976 70.572C163.976 70.676 163.94 70.76 163.868 70.824C163.804 70.888 163.724 70.92 163.628 70.92ZM168.02 70.788C167.94 70.844 167.852 70.872 167.756 70.872C167.668 70.864 167.588 70.824 167.516 70.752C167.412 70.64 167.312 70.528 167.216 70.416C167.12 70.304 167.028 70.192 166.94 70.08C166.908 70.112 166.86 70.14 166.796 70.164C166.636 70.204 166.42 70.26 166.148 70.332C165.884 70.404 165.62 70.476 165.356 70.548C165.092 70.612 164.876 70.664 164.708 70.704C164.604 70.72 164.512 70.708 164.432 70.668C164.36 70.62 164.316 70.548 164.3 70.452C164.26 70.236 164.356 70.108 164.588 70.068C164.628 70.06 164.668 70.052 164.708 70.044C164.748 70.036 164.784 70.028 164.816 70.02V69.096C164.816 68.824 164.836 68.608 164.876 68.448C164.924 68.288 165.02 68.16 165.164 68.064C165.308 67.96 165.528 67.868 165.824 67.788C166.056 67.724 166.276 67.664 166.484 67.608C166.692 67.544 166.896 67.472 167.096 67.392C167.184 67.36 167.272 67.356 167.36 67.38C167.448 67.404 167.508 67.464 167.54 67.56C167.564 67.648 167.56 67.728 167.528 67.8C167.504 67.872 167.444 67.924 167.348 67.956C167.228 67.996 167.104 68.036 166.976 68.076C166.848 68.116 166.724 68.156 166.604 68.196C166.892 69.004 167.372 69.708 168.044 70.308C168.108 70.38 168.136 70.464 168.128 70.56C168.128 70.648 168.092 70.724 168.02 70.788ZM159.824 70.836C159.76 70.892 159.68 70.92 159.584 70.92C159.496 70.912 159.42 70.872 159.356 70.8C159.3 70.736 159.276 70.66 159.284 70.572C159.3 70.484 159.34 70.412 159.404 70.356C159.716 70.132 159.968 69.86 160.16 69.54C160.36 69.22 160.496 68.84 160.568 68.4H159.908C159.82 68.4 159.744 68.376 159.68 68.328C159.616 68.272 159.584 68.2 159.584 68.112C159.584 68.024 159.616 67.952 159.68 67.896C159.744 67.84 159.82 67.812 159.908 67.812H161.336C161.8 67.812 162.124 67.908 162.308 68.1C162.5 68.284 162.576 68.624 162.536 69.12C162.504 69.56 162.432 69.9 162.32 70.14C162.216 70.38 162.064 70.548 161.864 70.644C161.664 70.732 161.4 70.776 161.072 70.776C160.992 70.776 160.92 70.748 160.856 70.692C160.8 70.628 160.768 70.556 160.76 70.476C160.76 70.388 160.788 70.312 160.844 70.248C160.908 70.184 160.988 70.152 161.084 70.152C161.268 70.144 161.412 70.116 161.516 70.068C161.628 70.02 161.712 69.924 161.768 69.78C161.824 69.636 161.864 69.416 161.888 69.12C161.92 68.824 161.892 68.632 161.804 68.544C161.716 68.448 161.536 68.4 161.264 68.4H161.192C161.112 68.936 160.96 69.4 160.736 69.792C160.512 70.184 160.208 70.532 159.824 70.836ZM161.696 73.128H165.74V72.168H161.708V72.492C161.708 72.604 161.708 72.712 161.708 72.816C161.708 72.92 161.704 73.024 161.696 73.128ZM157.268 75.48C157.18 75.424 157.124 75.348 157.1 75.252C157.076 75.156 157.092 75.068 157.148 74.988C157.276 74.78 157.42 74.524 157.58 74.22C157.74 73.916 157.904 73.596 158.072 73.26C158.24 72.916 158.396 72.588 158.54 72.276C158.684 71.956 158.796 71.684 158.876 71.46C158.916 71.364 158.98 71.3 159.068 71.268C159.156 71.228 159.244 71.228 159.332 71.268C159.42 71.3 159.484 71.356 159.524 71.436C159.572 71.516 159.572 71.612 159.524 71.724C159.444 71.94 159.332 72.208 159.188 72.528C159.044 72.84 158.888 73.172 158.72 73.524C158.56 73.876 158.396 74.212 158.228 74.532C158.068 74.844 157.928 75.104 157.808 75.312C157.752 75.408 157.672 75.472 157.568 75.504C157.464 75.544 157.364 75.536 157.268 75.48ZM158.636 69.744C158.516 69.64 158.368 69.528 158.192 69.408C158.024 69.288 157.852 69.172 157.676 69.06C157.5 68.94 157.344 68.844 157.208 68.772C157.128 68.732 157.076 68.668 157.052 68.58C157.028 68.484 157.04 68.396 157.088 68.316C157.136 68.236 157.204 68.184 157.292 68.16C157.388 68.136 157.476 68.144 157.556 68.184C157.708 68.256 157.876 68.352 158.06 68.472C158.244 68.584 158.424 68.7 158.6 68.82C158.784 68.94 158.936 69.052 159.056 69.156C159.136 69.22 159.184 69.3 159.2 69.396C159.216 69.492 159.192 69.584 159.128 69.672C159.072 69.752 158.996 69.8 158.9 69.816C158.804 69.824 158.716 69.8 158.636 69.744ZM158.852 67.092C158.74 66.996 158.592 66.888 158.408 66.768C158.232 66.64 158.056 66.516 157.88 66.396C157.704 66.276 157.552 66.18 157.424 66.108C157.344 66.068 157.292 66.004 157.268 65.916C157.252 65.82 157.268 65.732 157.316 65.652C157.372 65.564 157.444 65.512 157.532 65.496C157.62 65.48 157.708 65.492 157.796 65.532C157.94 65.604 158.104 65.7 158.288 65.82C158.472 65.94 158.652 66.064 158.828 66.192C159.012 66.312 159.164 66.42 159.284 66.516C159.364 66.58 159.408 66.664 159.416 66.768C159.432 66.864 159.408 66.952 159.344 67.032C159.288 67.112 159.208 67.156 159.104 67.164C159.008 67.172 158.924 67.148 158.852 67.092ZM165.452 69.876C165.66 69.828 165.864 69.78 166.064 69.732C166.272 69.684 166.456 69.64 166.616 69.6C166.488 69.4 166.376 69.196 166.28 68.988C166.192 68.78 166.108 68.564 166.028 68.34H166.016C165.768 68.404 165.612 68.48 165.548 68.568C165.484 68.656 165.452 68.828 165.452 69.084V69.876ZM163.652 68.016C163.708 67.952 163.8 67.848 163.928 67.704C164.064 67.552 164.196 67.4 164.324 67.248C164.46 67.096 164.552 66.992 164.6 66.936C164.6 66.92 164.608 66.912 164.624 66.912H162.608C162.672 66.976 162.772 67.084 162.908 67.236C163.052 67.388 163.196 67.54 163.34 67.692C163.484 67.844 163.588 67.952 163.652 68.016ZM174.5 75.984C174.396 75.984 174.304 75.948 174.224 75.876C174.144 75.804 174.104 75.708 174.104 75.588V71.472H169.316C169.212 71.472 169.124 71.436 169.052 71.364C168.988 71.292 168.956 71.204 168.956 71.1C168.956 71.004 168.988 70.92 169.052 70.848C169.124 70.776 169.212 70.74 169.316 70.74H174.104V66.468H169.88C169.776 66.468 169.688 66.432 169.616 66.36C169.552 66.288 169.52 66.2 169.52 66.096C169.52 65.992 169.552 65.908 169.616 65.844C169.688 65.772 169.776 65.736 169.88 65.736H179.096C179.2 65.736 179.284 65.772 179.348 65.844C179.42 65.908 179.456 65.992 179.456 66.096C179.456 66.2 179.42 66.288 179.348 66.36C179.284 66.432 179.2 66.468 179.096 66.468H174.896V70.74H179.648C179.752 70.74 179.84 70.776 179.912 70.848C179.984 70.92 180.02 71.004 180.02 71.1C180.02 71.204 179.984 71.292 179.912 71.364C179.84 71.436 179.752 71.472 179.648 71.472H174.896V75.588C174.896 75.708 174.856 75.804 174.776 75.876C174.704 75.948 174.612 75.984 174.5 75.984ZM176.252 70.092C176.164 70.036 176.108 69.956 176.084 69.852C176.06 69.74 176.076 69.644 176.132 69.564C176.268 69.372 176.428 69.136 176.612 68.856C176.796 68.568 176.976 68.28 177.152 67.992C177.328 67.704 177.468 67.46 177.572 67.26C177.636 67.156 177.72 67.092 177.824 67.068C177.928 67.036 178.028 67.052 178.124 67.116C178.228 67.172 178.296 67.252 178.328 67.356C178.368 67.46 178.36 67.564 178.304 67.668C178.184 67.876 178.032 68.124 177.848 68.412C177.672 68.7 177.492 68.988 177.308 69.276C177.124 69.556 176.96 69.788 176.816 69.972C176.744 70.06 176.656 70.116 176.552 70.14C176.448 70.164 176.348 70.148 176.252 70.092ZM172.76 70.092C172.656 70.156 172.548 70.176 172.436 70.152C172.332 70.12 172.256 70.056 172.208 69.96C172.104 69.76 171.968 69.516 171.8 69.228C171.632 68.94 171.456 68.652 171.272 68.364C171.096 68.076 170.94 67.836 170.804 67.644C170.748 67.556 170.732 67.46 170.756 67.356C170.788 67.252 170.852 67.176 170.948 67.128C171.052 67.064 171.156 67.044 171.26 67.068C171.364 67.084 171.448 67.14 171.512 67.236C171.64 67.428 171.792 67.672 171.968 67.968C172.152 68.264 172.328 68.56 172.496 68.856C172.672 69.144 172.808 69.384 172.904 69.576C173.016 69.792 172.968 69.964 172.76 70.092ZM185.432 75.6C184.776 75.6 184.264 75.528 183.896 75.384C183.528 75.248 183.268 75.016 183.116 74.688C182.964 74.36 182.888 73.916 182.888 73.356C182.888 72.796 182.964 72.352 183.116 72.024C183.268 71.696 183.528 71.464 183.896 71.328C184.264 71.184 184.776 71.112 185.432 71.112H187.544C188.2 71.112 188.712 71.184 189.08 71.328C189.448 71.464 189.708 71.696 189.86 72.024C190.012 72.352 190.088 72.796 190.088 73.356C190.088 73.916 190.012 74.36 189.86 74.688C189.708 75.016 189.448 75.248 189.08 75.384C188.712 75.528 188.2 75.6 187.544 75.6H185.432ZM185.432 74.856H187.532C188.004 74.856 188.364 74.812 188.612 74.724C188.868 74.628 189.044 74.472 189.14 74.256C189.236 74.04 189.284 73.74 189.284 73.356C189.284 72.972 189.236 72.672 189.14 72.456C189.044 72.232 188.868 72.076 188.612 71.988C188.364 71.9 188.004 71.856 187.532 71.856H185.432C184.968 71.856 184.608 71.9 184.352 71.988C184.104 72.076 183.928 72.232 183.824 72.456C183.728 72.672 183.68 72.972 183.68 73.356C183.68 73.74 183.728 74.04 183.824 74.256C183.928 74.472 184.104 74.628 184.352 74.724C184.608 74.812 184.968 74.856 185.432 74.856ZM191.684 70.452C191.596 70.524 191.496 70.552 191.384 70.536C191.272 70.52 191.18 70.468 191.108 70.38C190.98 70.22 190.832 70.04 190.664 69.84C190.496 69.64 190.316 69.44 190.124 69.24C189.7 69.28 189.196 69.324 188.612 69.372C188.036 69.412 187.42 69.456 186.764 69.504C186.116 69.552 185.468 69.596 184.82 69.636C184.18 69.668 183.584 69.7 183.032 69.732C182.48 69.756 182.012 69.776 181.628 69.792C181.5 69.792 181.396 69.76 181.316 69.696C181.236 69.632 181.192 69.54 181.184 69.42C181.176 69.308 181.212 69.216 181.292 69.144C181.38 69.072 181.48 69.036 181.592 69.036C181.832 69.028 182.116 69.02 182.444 69.012C182.772 68.996 183.128 68.98 183.512 68.964C183.664 68.732 183.832 68.456 184.016 68.136C184.208 67.808 184.4 67.468 184.592 67.116C184.784 66.764 184.956 66.432 185.108 66.12C185.268 65.8 185.396 65.528 185.492 65.304C185.54 65.192 185.616 65.116 185.72 65.076C185.832 65.036 185.94 65.036 186.044 65.076C186.164 65.124 186.236 65.2 186.26 65.304C186.292 65.4 186.284 65.504 186.236 65.616C186.092 65.92 185.908 66.276 185.684 66.684C185.468 67.092 185.244 67.496 185.012 67.896C184.788 68.296 184.584 68.64 184.4 68.928C185.008 68.896 185.628 68.864 186.26 68.832C186.892 68.792 187.492 68.756 188.06 68.724C188.636 68.684 189.128 68.648 189.536 68.616C189.304 68.376 189.072 68.144 188.84 67.92C188.608 67.696 188.4 67.504 188.216 67.344C188.136 67.272 188.096 67.184 188.096 67.08C188.096 66.976 188.128 66.888 188.192 66.816C188.272 66.744 188.368 66.708 188.48 66.708C188.592 66.708 188.688 66.744 188.768 66.816C188.984 67.008 189.224 67.236 189.488 67.5C189.76 67.756 190.032 68.028 190.304 68.316C190.576 68.596 190.836 68.872 191.084 69.144C191.34 69.416 191.56 69.66 191.744 69.876C191.816 69.956 191.844 70.056 191.828 70.176C191.82 70.288 191.772 70.38 191.684 70.452Z" fill="#719AC5"/>
<path d="M248.5 41L253.5 43L252.5 80L248.5 78V41Z" fill="#CECECE"/>
<defs>
<linearGradient id="paint0_linear_944_1680" x1="0" y1="124" x2="300" y2="124" gradientUnits="userSpaceOnUse">
<stop stop-color="#C1E8DD"/>
<stop offset="1" stop-color="#BDD6E1"/>
</linearGradient>
<linearGradient id="paint1_linear_944_1680" x1="1.5" y1="94.3431" x2="299.5" y2="94.3431" gradientUnits="userSpaceOnUse">
<stop stop-color="#BDD6E1"/>
<stop offset="0.620192" stop-color="white"/>
<stop offset="1" stop-color="#C1E8DD"/>
</linearGradient>
<linearGradient id="paint2_linear_944_1680" x1="261.207" y1="14.5241" x2="232.215" y2="42.8179" gradientUnits="userSpaceOnUse">
<stop stop-color="#4D81B7"/>
<stop offset="1" stop-color="#24B685"/>
</linearGradient>
<linearGradient id="paint3_linear_944_1680" x1="236" y1="30" x2="236" y2="79" gradientUnits="userSpaceOnUse">
<stop stop-color="#5E9FE2"/>
<stop offset="1" stop-color="#24B685"/>
</linearGradient>
<linearGradient id="paint4_linear_944_1680" x1="262" y1="29" x2="262" y2="78" gradientUnits="userSpaceOnUse">
<stop stop-color="#004B97"/>
<stop offset="1" stop-color="#24B685"/>
</linearGradient>
</defs>
</svg>
