<svg width="100" height="100" viewBox="0 0 100 100" fill="none" xmlns="http://www.w3.org/2000/svg">
<circle cx="50" cy="50" r="50" fill="#FBFBFB"/>
<path d="M14 40L44 27L44.5 43L27 45L14 40Z" fill="#ABDAD5"/>
<path d="M43.5 27L84 29L56.5 45L43.5 43V27Z" fill="#ABDAD5"/>
<path d="M52.5 43.5C53.1498 43.3411 56.6425 43.4299 56.5 43.5C56.3575 43.5701 84.0918 28.9476 84 29V65C74.6806 69.8914 73.2201 70.5893 56.5 79.5H52.5V43.5Z" fill="url(#paint0_linear_570_938)" fill-opacity="0.7"/>
<path d="M14 40.5985C14 40.0092 14.507 39.5477 15.0936 39.6029L55.0937 43.3654C55.6074 43.4137 56 43.845 56 44.361V78.3886C56 78.9825 55.4854 79.4455 54.8948 79.383L14.8948 75.1502C14.3861 75.0964 14 74.6673 14 74.1558V40.5985Z" fill="#004B97"/>
<line x1="43.75" y1="27.5" x2="43.75" y2="42.5" stroke="#004B97" stroke-width="0.5"/>
<rect x="26.7344" y="47.8556" width="13" height="4" rx="2" transform="rotate(5.77978 26.7344 47.8556)" fill="#ABDAD5"/>
<defs>
<linearGradient id="paint0_linear_570_938" x1="52.5" y1="54.2499" x2="84.0002" y2="54.2499" gradientUnits="userSpaceOnUse">
<stop stop-color="#004B97"/>
<stop offset="1" stop-color="#689EBE"/>
</linearGradient>
</defs>
</svg>
