<svg width="100" height="100" viewBox="0 0 100 100" fill="none" xmlns="http://www.w3.org/2000/svg">
<g clip-path="url(#clip0_560_1012)">
<circle cx="50" cy="50" r="50" fill="#FBFBFB"/>
<rect x="21" y="38" width="26" height="38" fill="#3289CB"/>
<path d="M49 34L41.5 39.1962H26.5L19 34L26.5 28.8038H41.5L49 34Z" fill="#3289CB"/>
<rect x="19.9177" y="33.3317" width="8.4" height="14.4746" transform="rotate(35.4631 19.9177 33.3317)" fill="#3289CB"/>
<rect x="41.2651" y="38.613" width="9" height="14.1737" transform="rotate(-33.1198 41.2651 38.613)" fill="#3289CB"/>
<rect x="57" y="18" width="25" height="60" rx="1" fill="url(#paint0_linear_560_1012)"/>
<rect x="69" y="39" width="1" height="40" rx="0.5" fill="white"/>
<path d="M57.4196 20.7552H82.7129" stroke="white" stroke-linecap="round"/>
<path d="M65.3949 17.793V20.0716" stroke="white" stroke-linecap="round"/>
<path d="M73.826 17.793V20.5274" stroke="white" stroke-linecap="round"/>
<path d="M69.2687 21.2111V31.0094" stroke="white" stroke-linecap="round"/>
<path d="M71.5474 21.2111V26.9078" stroke="white" stroke-linecap="round"/>
<path d="M71.4998 26.8877C71.5963 26.9239 71.5406 27.356 71.5406 27.459C71.5406 27.5974 71.4021 27.8015 71.3048 27.8987C70.9243 28.2792 70.28 28.2524 69.8268 28.4791" stroke="white" stroke-linecap="round"/>
<path d="M62.9309 21.2976C62.9309 21.6079 62.7814 21.8681 62.7676 22.1636C62.754 22.4561 62.7125 22.7822 62.6452 23.0681C62.5672 23.3997 62.378 23.7259 62.2462 24.0451C62.0986 24.4029 61.9121 24.7024 61.6206 24.9541C60.8718 25.6008 59.8456 25.7203 58.9411 26.0218C58.7632 26.0811 58.5746 26.0852 58.3902 26.1125C58.3014 26.1257 58.2242 26.1941 58.1363 26.1941C58.01 26.1941 57.4439 26.523 57.3815 26.3981" stroke="white" stroke-linecap="round"/>
<path d="M75.2129 21.1752C75.3147 21.2996 75.3123 21.5274 75.333 21.683C75.3518 21.8234 75.4169 21.9335 75.4169 22.0774C75.4169 22.4107 75.541 22.8513 75.6413 23.1723C75.7685 23.5791 75.9265 23.9511 76.1106 24.3398C76.1909 24.5094 76.3066 24.74 76.428 24.8793C76.5299 24.9964 76.5897 25.1454 76.7 25.2556C76.7889 25.3445 76.9311 25.374 77.0083 25.4687C77.1755 25.6739 77.4287 25.8403 77.643 25.9946C77.8558 26.1478 78.0884 26.1775 78.2936 26.3142C78.6131 26.5273 79.0333 26.6838 79.4339 26.6838C79.6645 26.6838 79.881 26.7953 80.1094 26.8062C80.2762 26.8141 80.4345 26.8023 80.5991 26.847C80.9786 26.9499 81.3904 26.9694 81.7824 26.9694" stroke="white" stroke-linecap="round"/>
<path d="M26.5 29C32.4297 33.7146 35.7098 33.4451 41.5 29M12.5 44.5L18.5 48.5M49 48.5L55 45M22 74H45" stroke="white"/>
</g>
<defs>
<linearGradient id="paint0_linear_560_1012" x1="69.5" y1="18" x2="69.5" y2="78" gradientUnits="userSpaceOnUse">
<stop stop-color="#BC794D"/>
<stop offset="1" stop-color="#C99B7C"/>
</linearGradient>
<clipPath id="clip0_560_1012">
<rect width="100" height="100" fill="white"/>
</clipPath>
</defs>
</svg>
