<svg width="100" height="100" viewBox="0 0 100 100" fill="none" xmlns="http://www.w3.org/2000/svg">
<circle cx="50" cy="50" r="50" fill="#FBFBFB"/>
<path d="M27.9998 31C47.3874 32.4563 56.3307 32.3146 74.4998 31L76.9998 37.8327C56.4854 39.1988 45.1067 39.2184 24.9998 37.8327L27.9998 31Z" fill="url(#paint0_linear_570_864)"/>
<path d="M63.2709 75.949C63.1206 75.4229 63.421 74.8736 63.9451 74.7164L66.4054 73.9783C67.128 73.7615 67.8213 74.3925 67.6733 75.1323L67.1605 77.6961C67.067 78.1635 66.6566 78.5 66.18 78.5H64.7541C64.3076 78.5 63.9152 78.204 63.7925 77.7747L63.2709 75.949Z" fill="#10170B"/>
<path d="M36.1552 75.7438C36.0756 75.1068 36.6083 74.5608 37.247 74.6247L39.643 74.8643C40.3153 74.9316 40.7288 75.6323 40.4626 76.2533L39.7595 77.8939C39.6019 78.2616 39.2404 78.5 38.8404 78.5H37.3825C36.8782 78.5 36.4528 78.1245 36.3903 77.624L36.1552 75.7438Z" fill="#2C2D26"/>
<path d="M22.2691 40.4068C22.1272 39.1597 23.1604 38.0923 24.4119 38.1882C47.3633 39.9472 59.9794 39.96 78.5865 38.2306C79.8368 38.1144 80.8927 39.1658 80.7737 40.4159C79.3623 55.2506 78.1635 62.9531 75.7878 73.2618C75.6137 74.0171 75.0111 74.6044 74.2519 74.7607C57.0499 78.3005 46.7776 78.1447 29.284 74.7522C28.506 74.6014 27.8883 74.0007 27.7177 73.2268C25.0395 61.0743 23.7387 53.3211 22.2691 40.4068Z" fill="url(#paint1_linear_570_864)"/>
<path d="M55.1599 59.5C56.8436 64.9645 57.3131 68.2527 57.0515 74H44.5183L44.5037 72.874C44.4552 67.3976 44.8078 64.1356 46.3845 59.5H55.1599Z" fill="#EDEAEB" stroke="black"/>
<rect x="49.4998" y="65" width="3" height="5" rx="1.5" fill="#10110E"/>
<rect x="48.9998" y="64" width="4" height="3" rx="1" fill="#1E1F1A"/>
<rect x="47.9998" y="71" width="6" height="2" rx="1" fill="#302E2F"/>
<path d="M22.9998 37C50.0309 39.7638 79.9998 37 79.9998 37L81.4998 39.5C59.0183 40.4965 45.7837 40.5407 21.4998 39.5L22.9998 37Z" fill="url(#paint2_linear_570_864)"/>
<path d="M46.4998 27.1109H55.9998C64.5693 28.2414 68.1202 29.2777 74.4998 31.1109C55.7446 33.3218 45.5417 33.3915 27.9998 31.1109C34.4611 28.7832 45.8507 26.4608 46.4998 27.1109Z" fill="url(#paint3_linear_570_864)"/>
<path d="M46.1097 23.0995C46.0508 22.5108 46.5131 22 47.1047 22H54.8948C55.4864 22 55.9487 22.5108 55.8898 23.0995L55.5898 26.0995C55.5387 26.6107 55.1085 27 54.5948 27H47.4047C46.891 27 46.4608 26.6107 46.4097 26.0995L46.1097 23.0995Z" fill="#181818"/>
<rect x="20.7573" y="42.0785" width="2" height="7" rx="0.5" transform="rotate(-4.0114 20.7573 42.0785)" fill="#0B0B0A"/>
<path d="M15.6451 41.9407C15.3187 41.9181 15.1016 41.5932 15.2057 41.2829L15.4771 40.4739C15.5649 40.2121 15.8483 40.071 16.1101 40.1589L21.7986 42.0671C22.0604 42.1549 22.2014 42.4384 22.1136 42.7002L21.8068 43.6148C21.7147 43.8893 21.4094 44.0285 21.1418 43.9179L16.5749 42.0311C16.5251 42.0105 16.4724 41.9981 16.4186 41.9944L15.6451 41.9407Z" fill="#0B0B0A"/>
<path d="M86.6273 41.9409C86.9538 41.9182 87.1709 41.5933 87.0668 41.283L86.7954 40.474C86.7076 40.2122 86.4241 40.0712 86.1623 40.159L80.4739 42.0672C80.2121 42.1551 80.071 42.4385 80.1589 42.7003L80.4657 43.6149C80.5578 43.8894 80.863 44.0286 81.1306 43.918L85.6975 42.0312C85.7473 42.0106 85.8001 41.9982 85.8539 41.9945L86.6273 41.9409Z" fill="#0B0B0A"/>
<rect x="80.1355" y="41.964" width="2" height="7" rx="0.5" transform="rotate(2.21154 80.1355 41.964)" fill="#0B0B0A"/>
<rect x="19.5615" y="34.4412" width="2" height="9" rx="1" transform="rotate(-11.0156 19.5615 34.4412)" fill="#AAAAAA"/>
<rect x="16.6731" y="37.5668" width="2" height="5" rx="1" transform="rotate(-109.676 16.6731 37.5668)" fill="#AAAAAA"/>
<defs>
<linearGradient id="paint0_linear_570_864" x1="24.9998" y1="35.3646" x2="76.9998" y2="35.3646" gradientUnits="userSpaceOnUse">
<stop stop-color="#818181"/>
<stop offset="1" stop-color="#F2F2F2"/>
</linearGradient>
<linearGradient id="paint1_linear_570_864" x1="80.9998" y1="57.6782" x2="21.9998" y2="57.6782" gradientUnits="userSpaceOnUse">
<stop stop-color="#ED652C"/>
<stop offset="0.5" stop-color="#E62610"/>
<stop offset="1" stop-color="#EE9A66"/>
</linearGradient>
<linearGradient id="paint2_linear_570_864" x1="21.4998" y1="38.632" x2="81.4998" y2="38.632" gradientUnits="userSpaceOnUse">
<stop stop-color="#C8C4CA"/>
<stop offset="0.5" stop-color="#ABA8A9"/>
<stop offset="1" stop-color="#F0F0F0"/>
</linearGradient>
<linearGradient id="paint3_linear_570_864" x1="51.2498" y1="32.7953" x2="51.2498" y2="27" gradientUnits="userSpaceOnUse">
<stop stop-color="#F9F9F9"/>
<stop offset="1" stop-color="#F0F0F0"/>
</linearGradient>
</defs>
</svg>
