<svg width="100" height="100" viewBox="0 0 100 100" fill="none" xmlns="http://www.w3.org/2000/svg">
<g clip-path="url(#clip0_560_1030)">
<circle cx="50" cy="50" r="50" fill="#FBFBFB"/>
<ellipse cx="25" cy="30" rx="11" ry="13" fill="url(#paint0_linear_560_1030)" fill-opacity="0.8"/>
<line x1="18.5" y1="21" x2="18.5" y2="39" stroke="white"/>
<line x1="24.5" y1="18" x2="24.5" y2="42" stroke="white"/>
<line x1="29.5" y1="21" x2="29.5" y2="39" stroke="white"/>
<line x1="17" y1="23.5" x2="33" y2="23.5" stroke="white"/>
<line x1="15" y1="30.5" x2="35" y2="30.5" stroke="white"/>
<line x1="17" y1="35.5" x2="33" y2="35.5" stroke="white"/>
<line x1="25.5" y1="75" x2="25.5" y2="43" stroke="#4E7FAE"/>
<rect x="24" y="69" width="3" height="11" rx="1" fill="#0D779D"/>
<ellipse cx="56.3787" cy="21.627" rx="11" ry="12.5" transform="rotate(-38.2788 56.3787 21.627)" fill="url(#paint1_linear_560_1030)" fill-opacity="0.6"/>
<rect x="62.1006" y="30.6051" width="4" height="13" rx="1" transform="rotate(-46.3412 62.1006 30.6051)" fill="#0D779D"/>
<path d="M67.2406 27.7352C67.1444 28.4905 66.9004 28.9533 67.2055 29.7118C67.3241 30.0069 67.572 30.5913 67.1333 30.0467C67.0252 29.9124 66.9682 29.7336 66.8374 29.6195C66.5957 29.4088 66.3209 29.3646 66.1437 29.0882" stroke="#4E7FAE" stroke-linecap="round"/>
<path d="M66.985 28.3745C66.9381 28.6095 66.7002 28.6551 66.559 28.8219" stroke="#4E7FAE" stroke-linecap="round"/>
<path d="M61.8515 32.8707C61.6259 32.9675 62.3226 32.6989 62.5681 32.7007C62.8036 32.7025 63.0421 32.6918 63.2789 32.7C63.6647 32.7134 64.0902 32.8798 64.4187 33.0939" stroke="#4E7FAE" stroke-linecap="round"/>
<path d="M63.2468 32.0076C63.323 32.0871 63.4157 32.0075 63.5025 31.9862" stroke="#4E7FAE" stroke-linecap="round"/>
<circle cx="56.392" cy="16.2571" r="2" transform="rotate(-23.2098 56.392 16.2571)" fill="url(#paint2_linear_560_1030)"/>
<circle cx="48" cy="55" r="15" fill="url(#paint3_linear_560_1030)" fill-opacity="0.8"/>
<path d="M41 67.5C44.6951 55.2258 48.7292 50.7318 61.5 49.5" stroke="white"/>
<path d="M34 54C43.7279 53.86 47.1659 51.353 48 40.5" stroke="white"/>
<path d="M38.5 44C45.7681 54.4234 50.0629 59.0538 58 65.5" stroke="white"/>
<path d="M67.5565 72.328L81.68 33.7178C82.1296 32.4886 83.5194 31.8895 84.7218 32.4065C85.9242 32.9235 86.4455 34.3443 85.8627 35.5162L67.5565 72.328Z" fill="url(#paint4_linear_560_1030)" fill-opacity="0.8"/>
<path d="M67.4763 69.6945C68.1174 69.1305 69.1247 69.5775 69.1367 70.4312L69.1747 73.1316C69.1849 73.861 68.436 74.3556 67.7692 74.0597L65.7035 73.1432C65.0367 72.8473 64.9009 71.9601 65.4486 71.4783L67.4763 69.6945Z" fill="url(#paint5_linear_560_1030)" fill-opacity="0.5"/>
<circle cx="58" cy="77" r="4" fill="url(#paint6_linear_560_1030)"/>
</g>
<defs>
<linearGradient id="paint0_linear_560_1030" x1="25" y1="17" x2="25" y2="43" gradientUnits="userSpaceOnUse">
<stop stop-color="#24B685" stop-opacity="0.8"/>
<stop offset="1" stop-color="#004B97" stop-opacity="0.8"/>
</linearGradient>
<linearGradient id="paint1_linear_560_1030" x1="56.3787" y1="9.12699" x2="56.3787" y2="34.127" gradientUnits="userSpaceOnUse">
<stop stop-color="#24B685" stop-opacity="0.8"/>
<stop offset="1" stop-color="#0D779D"/>
</linearGradient>
<linearGradient id="paint2_linear_560_1030" x1="56.392" y1="14.2571" x2="56.392" y2="18.2571" gradientUnits="userSpaceOnUse">
<stop stop-color="white"/>
<stop offset="0.447115" stop-color="#D1D1D1"/>
<stop offset="0.975962" stop-color="#999999" stop-opacity="0.5"/>
</linearGradient>
<linearGradient id="paint3_linear_560_1030" x1="33" y1="55" x2="63" y2="55" gradientUnits="userSpaceOnUse">
<stop stop-color="#FF6600"/>
<stop offset="1" stop-color="#FF6B36"/>
</linearGradient>
<linearGradient id="paint4_linear_560_1030" x1="90.4436" y1="19.0993" x2="67.5565" y2="72.328" gradientUnits="userSpaceOnUse">
<stop stop-color="#24B685" stop-opacity="0.6"/>
<stop offset="1" stop-color="#6092BD" stop-opacity="0.5"/>
</linearGradient>
<linearGradient id="paint5_linear_560_1030" x1="69.1062" y1="68.2606" x2="65.9464" y2="75.3818" gradientUnits="userSpaceOnUse">
<stop stop-color="#24B685" stop-opacity="0.6"/>
<stop offset="1" stop-color="#4E7FAE"/>
</linearGradient>
<linearGradient id="paint6_linear_560_1030" x1="58" y1="73" x2="58" y2="81" gradientUnits="userSpaceOnUse">
<stop stop-color="white"/>
<stop offset="1" stop-color="#CFCFCF"/>
</linearGradient>
<clipPath id="clip0_560_1030">
<rect width="100" height="100" fill="white"/>
</clipPath>
</defs>
</svg>
