<svg id="visual" viewBox="0 0 900 600" width="900" height="600" xmlns="http://www.w3.org/2000/svg" xmlns:xlink="http://www.w3.org/1999/xlink" version="1.1"><rect x="0" y="0" width="900" height="600" fill="#FFFFFF"></rect><path d="M0 456L90 499L180 463L270 479L360 484L450 492L540 484L630 476L720 466L810 471L900 477L900 601L810 601L720 601L630 601L540 601L450 601L360 601L270 601L180 601L90 601L0 601Z" fill="#24b685"></path><path d="M0 494L90 503L180 504L270 483L360 498L450 476L540 492L630 479L720 503L810 502L900 484L900 601L810 601L720 601L630 601L540 601L450 601L360 601L270 601L180 601L90 601L0 601Z" fill="#62c59c"></path><path d="M0 516L90 501L180 532L270 528L360 530L450 533L540 500L630 515L720 508L810 528L900 526L900 601L810 601L720 601L630 601L540 601L450 601L360 601L270 601L180 601L90 601L0 601Z" fill="#8dd5b4"></path><path d="M0 542L90 521L180 523L270 541L360 532L450 548L540 528L630 534L720 546L810 538L900 544L900 601L810 601L720 601L630 601L540 601L450 601L360 601L270 601L180 601L90 601L0 601Z" fill="#b4e3cc"></path><path d="M0 550L90 552L180 566L270 545L360 557L450 559L540 548L630 553L720 566L810 566L900 547L900 601L810 601L720 601L630 601L540 601L450 601L360 601L270 601L180 601L90 601L0 601Z" fill="#daf1e5"></path><path d="M0 569L90 564L180 577L270 568L360 568L450 570L540 567L630 576L720 563L810 576L900 564L900 601L810 601L720 601L630 601L540 601L450 601L360 601L270 601L180 601L90 601L0 601Z" fill="#ffffff"></path></svg>