<svg width="25" height="25" viewBox="0 0 25 25" fill="none" xmlns="http://www.w3.org/2000/svg">
<circle cx="12.5" cy="12.5" r="12.5" fill="white"/>
<path d="M13.292 6.33301C15.5155 6.33301 16.6271 6.33377 17.4258 6.89551C17.7715 7.13866 18.0688 7.45057 18.2998 7.81445C18.8335 8.6552 18.833 9.82622 18.833 12.167C18.833 14.5075 18.8334 15.6779 18.2998 16.5186C18.0688 16.8825 17.7716 17.1953 17.4258 17.4385C16.728 17.9291 15.7912 17.9873 14.083 17.9951V18L13.4033 19.4316C13.0417 20.1929 11.9583 20.1929 11.5967 19.4316L10.917 18V17.9951C9.20881 17.9873 8.27197 17.9291 7.57422 17.4385C7.22845 17.1953 6.93123 16.8825 6.7002 16.5186C6.16659 15.6779 6.16699 14.5075 6.16699 12.167C6.16699 9.82622 6.16652 8.6552 6.7002 7.81445C6.9312 7.45057 7.22853 7.13866 7.57422 6.89551C8.37289 6.33377 9.48449 6.33301 11.708 6.33301H13.292Z" fill="url(#paint0_linear_821_1114)"/>
<ellipse cx="15.6667" cy="12.1666" rx="0.791667" ry="0.833333" fill="white"/>
<ellipse cx="12.5" cy="12.1666" rx="0.791667" ry="0.833333" fill="white"/>
<ellipse cx="9.33335" cy="12.1666" rx="0.791667" ry="0.833333" fill="white"/>
<defs>
<linearGradient id="paint0_linear_821_1114" x1="12.5" y1="6.33301" x2="12.5" y2="20.0026" gradientUnits="userSpaceOnUse">
<stop stop-color="#004B97" stop-opacity="0.7"/>
<stop offset="1" stop-color="#24B685" stop-opacity="0.6"/>
</linearGradient>
</defs>
</svg>
