<svg width="23" height="23" viewBox="0 0 23 23" fill="none" xmlns="http://www.w3.org/2000/svg">
<path d="M12.458 3.83301C15.1499 3.83301 16.496 3.83348 17.4629 4.47949C17.8815 4.75917 18.2408 5.11855 18.5205 5.53711C19.1665 6.50396 19.167 7.85014 19.167 10.542C19.167 13.2334 19.1663 14.5791 18.5205 15.5459C18.2409 15.9644 17.8814 16.3239 17.4629 16.6035C16.6183 17.1678 15.4846 17.239 13.417 17.248V17.25L12.3945 19.2949C12.0259 20.0316 10.9741 20.0316 10.6055 19.2949L9.58301 17.25V17.248C7.51542 17.239 6.38169 17.1678 5.53711 16.6035C5.1186 16.3239 4.75914 15.9644 4.47949 15.5459C3.83366 14.5791 3.83301 13.2334 3.83301 10.542C3.83301 7.85014 3.83348 6.50396 4.47949 5.53711C4.75917 5.11855 5.11855 4.75917 5.53711 4.47949C6.50396 3.83348 7.85014 3.83301 10.542 3.83301H12.458Z" fill="url(#paint0_linear_879_1119)"/>
<ellipse cx="15.3333" cy="10.5417" rx="0.958333" ry="0.958333" fill="white"/>
<ellipse cx="11.5" cy="10.5417" rx="0.958333" ry="0.958333" fill="white"/>
<ellipse cx="7.66666" cy="10.5417" rx="0.958333" ry="0.958333" fill="white"/>
<defs>
<linearGradient id="paint0_linear_879_1119" x1="11.5" y1="3.83301" x2="11.5" y2="19.8474" gradientUnits="userSpaceOnUse">
<stop stop-color="#004B97" stop-opacity="0.7"/>
<stop offset="1" stop-color="#24B685" stop-opacity="0.6"/>
</linearGradient>
</defs>
</svg>
