<svg width="13" height="13" viewBox="0 0 13 13" fill="none" xmlns="http://www.w3.org/2000/svg">
<path d="M6.5 12.5H0.500001V6.5C0.500001 5.31351 0.851665 4.15358 1.51074 3.16699C2.17003 2.1803 3.10775 1.41116 4.2041 0.957032C5.30044 0.502928 6.50704 0.383728 7.6709 0.615235C8.83466 0.846789 9.90315 1.41878 10.7422 2.25781C11.5812 3.09685 12.1532 4.16535 12.3848 5.3291C12.6163 6.49297 12.4971 7.69956 12.043 8.7959C11.5888 9.89226 10.8197 10.83 9.83301 11.4893C8.90796 12.1072 7.83051 12.4551 6.72168 12.4961L6.5 12.5Z" stroke="#6F87A0"/>
<circle cx="3" cy="7" r="1" fill="#6F87A0"/>
<circle cx="10" cy="7" r="1" fill="#6F87A0"/>
<circle cx="6.5" cy="7" r="1" fill="#6F87A0"/>
</svg>
