<svg width="1920" height="640" viewBox="0 0 1920 640" fill="none" xmlns="http://www.w3.org/2000/svg">
<rect width="1920" height="640" fill="#F3E3B5"/>
<path d="M223.835 157.312H216.369C216.233 156.347 215.955 155.489 215.534 154.739C215.114 153.977 214.574 153.33 213.915 152.795C213.256 152.261 212.494 151.852 211.631 151.568C210.778 151.284 209.852 151.142 208.852 151.142C207.045 151.142 205.472 151.591 204.131 152.489C202.79 153.375 201.75 154.67 201.011 156.375C200.273 158.068 199.903 160.125 199.903 162.545C199.903 165.034 200.273 167.125 201.011 168.818C201.761 170.511 202.807 171.79 204.148 172.653C205.489 173.517 207.04 173.949 208.801 173.949C209.79 173.949 210.705 173.818 211.545 173.557C212.398 173.295 213.153 172.915 213.812 172.415C214.472 171.903 215.017 171.284 215.449 170.557C215.892 169.83 216.199 169 216.369 168.068L223.835 168.102C223.642 169.705 223.159 171.25 222.386 172.739C221.625 174.216 220.597 175.54 219.301 176.71C218.017 177.869 216.483 178.79 214.699 179.472C212.926 180.142 210.92 180.477 208.682 180.477C205.568 180.477 202.784 179.773 200.33 178.364C197.886 176.955 195.955 174.915 194.534 172.244C193.125 169.574 192.42 166.341 192.42 162.545C192.42 158.739 193.136 155.5 194.568 152.83C196 150.159 197.943 148.125 200.398 146.727C202.852 145.318 205.614 144.614 208.682 144.614C210.705 144.614 212.58 144.898 214.307 145.466C216.045 146.034 217.585 146.864 218.926 147.955C220.267 149.034 221.358 150.358 222.199 151.926C223.051 153.494 223.597 155.29 223.835 157.312ZM266.007 162.545C266.007 166.352 265.286 169.591 263.843 172.261C262.411 174.932 260.456 176.972 257.979 178.381C255.513 179.778 252.74 180.477 249.661 180.477C246.559 180.477 243.774 179.773 241.309 178.364C238.843 176.955 236.894 174.915 235.462 172.244C234.03 169.574 233.314 166.341 233.314 162.545C233.314 158.739 234.03 155.5 235.462 152.83C236.894 150.159 238.843 148.125 241.309 146.727C243.774 145.318 246.559 144.614 249.661 144.614C252.74 144.614 255.513 145.318 257.979 146.727C260.456 148.125 262.411 150.159 263.843 152.83C265.286 155.5 266.007 158.739 266.007 162.545ZM258.524 162.545C258.524 160.08 258.155 158 257.416 156.307C256.689 154.614 255.661 153.33 254.331 152.455C253.002 151.58 251.445 151.142 249.661 151.142C247.877 151.142 246.32 151.58 244.99 152.455C243.661 153.33 242.627 154.614 241.888 156.307C241.161 158 240.797 160.08 240.797 162.545C240.797 165.011 241.161 167.091 241.888 168.784C242.627 170.477 243.661 171.761 244.99 172.636C246.32 173.511 247.877 173.949 249.661 173.949C251.445 173.949 253.002 173.511 254.331 172.636C255.661 171.761 256.689 170.477 257.416 168.784C258.155 167.091 258.524 165.011 258.524 162.545ZM305.474 145.091V180H299.099L283.911 158.028H283.655V180H276.275V145.091H282.752L297.82 167.045H298.127V145.091H305.474ZM315.042 151.176V145.091H343.713V151.176H333.025V180H325.73V151.176H315.042ZM353.234 180V145.091H376.757V151.176H360.615V159.494H375.547V165.58H360.615V173.915H376.825V180H353.234ZM406.362 155.131C406.226 153.756 405.641 152.687 404.607 151.926C403.572 151.165 402.169 150.784 400.396 150.784C399.192 150.784 398.175 150.955 397.345 151.295C396.516 151.625 395.879 152.085 395.436 152.676C395.004 153.267 394.788 153.938 394.788 154.688C394.766 155.312 394.896 155.858 395.18 156.324C395.476 156.79 395.879 157.193 396.391 157.534C396.902 157.864 397.493 158.153 398.163 158.403C398.834 158.642 399.55 158.847 400.311 159.017L403.447 159.767C404.97 160.108 406.368 160.562 407.641 161.131C408.913 161.699 410.016 162.398 410.947 163.227C411.879 164.057 412.601 165.034 413.112 166.159C413.635 167.284 413.902 168.574 413.913 170.028C413.902 172.165 413.357 174.017 412.277 175.585C411.209 177.142 409.663 178.352 407.641 179.216C405.629 180.068 403.203 180.494 400.362 180.494C397.544 180.494 395.089 180.062 392.999 179.199C390.919 178.335 389.294 177.057 388.124 175.364C386.964 173.659 386.357 171.551 386.3 169.04H393.442C393.521 170.21 393.857 171.187 394.447 171.972C395.05 172.744 395.851 173.33 396.851 173.727C397.862 174.114 399.004 174.307 400.277 174.307C401.527 174.307 402.612 174.125 403.533 173.761C404.464 173.398 405.186 172.892 405.697 172.244C406.209 171.597 406.464 170.852 406.464 170.011C406.464 169.227 406.232 168.568 405.766 168.034C405.311 167.5 404.641 167.045 403.754 166.67C402.879 166.295 401.805 165.955 400.533 165.648L396.732 164.693C393.788 163.977 391.464 162.858 389.76 161.335C388.055 159.812 387.209 157.761 387.22 155.182C387.209 153.068 387.771 151.222 388.908 149.642C390.055 148.062 391.629 146.83 393.629 145.943C395.629 145.057 397.902 144.614 400.447 144.614C403.038 144.614 405.3 145.057 407.232 145.943C409.175 146.83 410.686 148.062 411.766 149.642C412.845 151.222 413.402 153.051 413.436 155.131H406.362ZM422.348 151.176V145.091H451.019V151.176H440.331V180H433.036V151.176H422.348Z" fill="#C97F5A"/>
<path d="M248.52 236.656H259.56V312.592H248.52V236.656ZM226.824 245.2H280.392V254.128H226.824V245.2ZM223.944 307.984H282.408V317.008H223.944V307.984ZM229.416 294.736H278.76V303.568H229.416V294.736ZM273.576 229.264L280.2 237.712C276.744 238.416 272.968 239.024 268.872 239.536C264.776 239.984 260.552 240.368 256.2 240.688C251.848 241.008 247.464 241.264 243.048 241.456C238.632 241.584 234.408 241.68 230.376 241.744C230.248 240.528 229.928 239.088 229.416 237.424C228.904 235.76 228.392 234.352 227.88 233.2C231.848 233.072 235.912 232.912 240.072 232.72C244.296 232.464 248.424 232.176 252.456 231.856C256.488 231.536 260.296 231.152 263.88 230.704C267.528 230.256 270.76 229.776 273.576 229.264ZM239.976 277.648V282.448H268.392V277.648H239.976ZM239.976 266.032V270.832H268.392V266.032H239.976ZM229.992 258.064H278.856V290.416H229.992V258.064ZM206.76 237.424H217.896V318.544H206.76V237.424ZM192.936 255.472H228.168V266.128H192.936V255.472ZM207.336 259.792L214.056 262.672C213.16 266.128 212.072 269.712 210.792 273.424C209.512 277.136 208.104 280.816 206.568 284.464C205.032 288.048 203.4 291.44 201.672 294.64C199.944 297.84 198.152 300.624 196.296 302.992C195.72 301.328 194.888 299.472 193.8 297.424C192.776 295.312 191.816 293.52 190.92 292.048C192.584 290.128 194.216 287.888 195.816 285.328C197.48 282.704 199.048 279.92 200.52 276.976C201.992 274.032 203.304 271.088 204.456 268.144C205.608 265.2 206.568 262.416 207.336 259.792ZM221.64 229.456L229.416 238.288C226.152 239.504 222.568 240.624 218.664 241.648C214.76 242.672 210.76 243.568 206.664 244.336C202.632 245.04 198.76 245.648 195.048 246.16C194.792 244.88 194.344 243.408 193.704 241.744C193.064 240.016 192.424 238.544 191.784 237.328C195.304 236.752 198.888 236.08 202.536 235.312C206.248 234.48 209.736 233.552 213 232.528C216.328 231.504 219.208 230.48 221.64 229.456ZM217.704 268.816C218.28 269.264 219.144 270.096 220.296 271.312C221.512 272.464 222.792 273.744 224.136 275.152C225.544 276.56 226.792 277.872 227.88 279.088C228.968 280.24 229.768 281.072 230.28 281.584L223.656 290.704C223.08 289.488 222.312 288.112 221.352 286.576C220.456 285.04 219.464 283.44 218.376 281.776C217.352 280.112 216.328 278.544 215.304 277.072C214.28 275.536 213.384 274.288 212.616 273.328L217.704 268.816ZM298.344 270.448H386.952V282.064H298.344V270.448ZM336.648 255.184H348.744V305.2C348.744 308.464 348.296 310.992 347.4 312.784C346.568 314.576 344.968 315.92 342.6 316.816C340.296 317.712 337.48 318.288 334.152 318.544C330.824 318.8 326.952 318.896 322.536 318.832C322.344 317.68 321.96 316.368 321.384 314.896C320.808 313.488 320.2 312.048 319.56 310.576C318.92 309.168 318.28 307.952 317.64 306.928C319.88 306.992 322.088 307.056 324.264 307.12C326.504 307.184 328.488 307.216 330.216 307.216C332.008 307.216 333.256 307.216 333.96 307.216C334.984 307.216 335.688 307.056 336.072 306.736C336.456 306.416 336.648 305.84 336.648 305.008V255.184ZM308.424 234.352H368.904V245.68H308.424V234.352ZM365.064 234.352H368.136L370.824 233.68L379.56 240.304C376.616 243.44 373.224 246.576 369.384 249.712C365.608 252.848 361.672 255.856 357.576 258.736C353.48 261.552 349.48 263.984 345.576 266.032C345 265.2 344.264 264.272 343.368 263.248C342.472 262.224 341.544 261.232 340.584 260.272C339.624 259.248 338.76 258.384 337.992 257.68C341.448 255.952 344.936 253.872 348.456 251.44C352.04 249.008 355.304 246.512 358.248 243.952C361.192 241.392 363.464 239.056 365.064 236.944V234.352ZM421.896 247.12H444.264V254.8H421.896V247.12ZM421.608 307.216H450.216V315.472H421.608V307.216ZM416.712 269.776H447.336V276.688H416.712V269.776ZM412.008 258.256H421.896V272.368C421.896 275.568 421.736 279.088 421.416 282.928C421.096 286.704 420.52 290.608 419.688 294.64C418.856 298.672 417.64 302.576 416.04 306.352C414.504 310.128 412.52 313.552 410.088 316.624C409.64 315.984 408.936 315.184 407.976 314.224C407.016 313.328 406.024 312.432 405 311.536C404.04 310.704 403.176 310.096 402.408 309.712C405.352 306 407.464 301.936 408.744 297.52C410.088 293.104 410.952 288.72 411.336 284.368C411.784 279.952 412.008 275.888 412.008 272.176V258.256ZM417.576 258.256H451.848V288.304H417.288V280.336H441.576V266.32H417.576V258.256ZM417.48 292.144H453.48V318.16H443.4V300.4H427.176V318.448H417.48V292.144ZM457.608 240.112H468.552V294.448H457.608V240.112ZM478.632 230.416H489.864V304.816C489.864 308.08 489.48 310.576 488.712 312.304C488.008 314.032 486.728 315.344 484.872 316.24C482.952 317.2 480.52 317.808 477.576 318.064C474.632 318.384 471.048 318.544 466.824 318.544C466.696 317.456 466.408 316.208 465.96 314.8C465.576 313.392 465.128 311.952 464.616 310.48C464.104 309.072 463.592 307.856 463.08 306.832C465.96 306.896 468.648 306.96 471.144 307.024C473.64 307.024 475.368 307.024 476.328 307.024C477.16 307.024 477.736 306.864 478.056 306.544C478.44 306.16 478.632 305.552 478.632 304.72V230.416ZM426.312 229.648H432.648V231.952H436.296V235.216C433.416 239.12 429.768 243.408 425.352 248.08C421 252.688 415.528 257.104 408.936 261.328C408.552 260.496 407.944 259.536 407.112 258.448C406.28 257.36 405.384 256.336 404.424 255.376C403.528 254.416 402.728 253.648 402.024 253.072C405.864 250.896 409.32 248.496 412.392 245.872C415.464 243.184 418.152 240.464 420.456 237.712C422.824 234.96 424.776 232.272 426.312 229.648ZM428.712 229.648H436.584C438.824 231.312 441.192 233.2 443.688 235.312C446.184 237.36 448.584 239.408 450.888 241.456C453.192 243.44 455.112 245.264 456.648 246.928L449.352 255.472C447.944 253.808 446.184 251.92 444.072 249.808C441.96 247.632 439.72 245.456 437.352 243.28C435.048 241.104 432.84 239.28 430.728 237.808H428.712V229.648ZM553.128 244.144H599.112V255.088H547.656L553.128 244.144ZM565.704 265.168H596.712V275.728H565.704V265.168ZM565.608 286.48H597.96V297.232H565.608V286.48ZM559.848 247.792H571.752V318.544H559.848V247.792ZM555.336 229.36L566.376 232.24C564.584 237.424 562.472 242.576 560.04 247.696C557.672 252.816 555.08 257.616 552.264 262.096C549.448 266.512 546.568 270.416 543.624 273.808C543.048 273.04 542.216 272.144 541.128 271.12C540.04 270.096 538.92 269.104 537.768 268.144C536.68 267.12 535.688 266.32 534.792 265.744C537.672 262.864 540.36 259.472 542.856 255.568C545.416 251.664 547.752 247.472 549.864 242.992C552.04 238.448 553.864 233.904 555.336 229.36ZM529.896 228.784L541.032 232.336C538.984 237.776 536.552 243.248 533.736 248.752C530.92 254.256 527.848 259.472 524.52 264.4C521.192 269.264 517.768 273.52 514.248 277.168C513.864 276.208 513.288 274.96 512.52 273.424C511.816 271.888 511.048 270.32 510.216 268.72C509.384 267.12 508.616 265.84 507.912 264.88C510.856 261.936 513.672 258.544 516.36 254.704C519.112 250.864 521.64 246.736 523.944 242.32C526.312 237.904 528.296 233.392 529.896 228.784ZM520.2 255.376L531.816 243.76V243.856V318.448H520.2V255.376ZM616.2 257.584H702.6V267.664H616.2V257.584ZM624.456 238.768H679.368V248.752H624.456V238.768ZM641.448 290.992H684.264V299.728H641.448V290.992ZM641.448 306.16H684.264V315.856H641.448V306.16ZM647.112 228.4H658.536V263.248H647.112V228.4ZM689.352 231.184L699.24 236.368C693.032 245.072 685.736 253.008 677.352 260.176C668.968 267.344 659.912 273.68 650.184 279.184C640.52 284.688 630.504 289.36 620.136 293.2C619.688 292.368 619.048 291.376 618.216 290.224C617.384 289.008 616.488 287.792 615.528 286.576C614.632 285.36 613.832 284.4 613.128 283.696C623.56 280.368 633.512 276.144 642.984 271.024C652.52 265.904 661.224 259.984 669.096 253.264C677.032 246.544 683.784 239.184 689.352 231.184ZM634.92 275.344H691.56V318.256H679.56V284.848H646.44V318.64H634.92V275.344ZM737.448 228.592H747.816V240.208H737.448V228.592ZM722.376 235.024H762.6V243.664H722.376V235.024ZM720.552 251.344H763.368V260.272H720.552V251.344ZM765.288 251.344H809.544V260.272H765.288V251.344ZM780.744 228.592H791.592V240.208H780.744V228.592ZM766.248 235.024H808.296V243.664H766.248V235.024ZM734.568 272.368V280.432H750.024V272.368H734.568ZM724.584 263.92H760.488V289.072H724.584V263.92ZM778.632 272.368V280.528H794.472V272.368H778.632ZM768.264 263.92H805.512V289.168H768.264V263.92ZM744.264 287.44H754.344V305.584L744.264 309.424V287.44ZM741.576 305.68C744.264 304.912 747.464 303.888 751.176 302.608C754.952 301.328 758.792 299.984 762.696 298.576L764.616 307.984C761.224 309.328 757.8 310.672 754.344 312.016C750.888 313.36 747.56 314.64 744.36 315.856L741.576 305.68ZM727.368 243.76L736.104 242.224C736.744 243.568 737.288 245.104 737.736 246.832C738.248 248.496 738.6 249.936 738.792 251.152L729.672 253.072C729.544 251.792 729.256 250.288 728.808 248.56C728.424 246.768 727.944 245.168 727.368 243.76ZM748.584 241.84L758.28 243.856C757.512 245.648 756.84 247.312 756.264 248.848C755.688 250.384 755.144 251.76 754.632 252.976L745.704 251.152C746.152 249.744 746.664 248.176 747.24 246.448C747.88 244.72 748.328 243.184 748.584 241.84ZM771.048 243.664L779.976 241.648C780.68 243.12 781.288 244.752 781.8 246.544C782.376 248.272 782.76 249.808 782.952 251.152L773.544 253.456C773.48 252.112 773.192 250.544 772.68 248.752C772.168 246.896 771.624 245.2 771.048 243.664ZM793.224 241.456L803.496 243.568C802.6 245.488 801.768 247.248 801 248.848C800.232 250.448 799.528 251.856 798.888 253.072L790.056 251.056C790.632 249.648 791.208 248.048 791.784 246.256C792.36 244.464 792.84 242.864 793.224 241.456ZM772.488 288.016H782.472C782.216 293.008 781.576 297.456 780.552 301.36C779.528 305.2 777.704 308.528 775.08 311.344C772.456 314.224 768.584 316.624 763.464 318.544C762.888 317.264 761.992 315.76 760.776 314.032C759.624 312.304 758.504 310.928 757.416 309.904C761.64 308.624 764.776 306.992 766.824 305.008C768.872 303.024 770.28 300.624 771.048 297.808C771.816 294.992 772.296 291.728 772.488 288.016ZM729.864 287.632H739.56C739.304 292.112 738.728 296.304 737.832 300.208C737 304.048 735.592 307.536 733.608 310.672C731.624 313.808 728.712 316.464 724.872 318.64C724.488 317.808 723.912 316.848 723.144 315.76C722.376 314.672 721.576 313.616 720.744 312.592C719.912 311.568 719.144 310.768 718.44 310.192C721.512 308.656 723.816 306.768 725.352 304.528C726.952 302.224 728.04 299.664 728.616 296.848C729.256 294.032 729.672 290.96 729.864 287.632ZM786.696 287.92H796.872V305.2C796.872 305.456 796.872 305.712 796.872 305.968C796.936 306.16 797.032 306.32 797.16 306.448C797.48 306.832 797.96 307.024 798.6 307.024C798.856 307.024 799.144 307.024 799.464 307.024C799.848 307.024 800.168 307.024 800.424 307.024C801.128 307.024 801.64 306.864 801.96 306.544C802.152 306.416 802.312 306.224 802.44 305.968C802.568 305.648 802.664 305.296 802.728 304.912C802.856 304.144 802.952 302.992 803.016 301.456C803.144 299.92 803.176 298.16 803.112 296.176C804.008 297.072 805.288 298 806.952 298.96C808.68 299.92 810.216 300.592 811.56 300.976C811.496 303.216 811.336 305.36 811.08 307.408C810.824 309.456 810.536 310.96 810.216 311.92C809.512 313.904 808.36 315.376 806.76 316.336C806.12 316.784 805.288 317.104 804.264 317.296C803.304 317.552 802.312 317.68 801.288 317.68C800.52 317.68 799.56 317.68 798.408 317.68C797.256 317.68 796.328 317.68 795.624 317.68C794.344 317.68 793.096 317.488 791.88 317.104C790.664 316.784 789.64 316.208 788.808 315.376C787.976 314.48 787.4 313.456 787.08 312.304C786.824 311.152 786.696 309.168 786.696 306.352V287.92ZM864.744 228.304H876.36V238.864H864.744V228.304ZM828.84 233.68H912.648V249.904H901.704V242.32H839.304V249.904H828.84V233.68ZM851.112 243.472H861.672V269.296H851.112V243.472ZM879.432 243.472H890.184V269.296H879.432V243.472ZM838.632 246.544H902.952V252.784H838.632V246.544ZM839.688 255.568H902.28V261.424H839.688V255.568ZM828.264 264.208H913.32V272.08H828.264V264.208ZM853.032 266.512L861.288 269.872C859.048 272.688 856.328 275.344 853.128 277.84C849.992 280.336 846.568 282.576 842.856 284.56C839.144 286.48 835.336 288.048 831.432 289.264C830.728 287.984 829.704 286.544 828.36 284.944C827.08 283.28 825.896 281.936 824.808 280.912C828.456 280.016 832.072 278.864 835.656 277.456C839.24 275.984 842.536 274.32 845.544 272.464C848.616 270.608 851.112 268.624 853.032 266.512ZM889.416 265.84C891.272 267.888 893.64 269.84 896.52 271.696C899.464 273.488 902.664 275.088 906.12 276.496C909.576 277.904 913.096 279.024 916.68 279.856C915.528 280.816 914.248 282.192 912.84 283.984C911.432 285.712 910.344 287.28 909.576 288.688C905.928 287.472 902.312 285.872 898.728 283.888C895.208 281.904 891.944 279.664 888.936 277.168C885.928 274.608 883.336 271.92 881.16 269.104L889.416 265.84ZM853.32 289.072V291.856H887.688V289.072H853.32ZM853.32 297.232V300.304H887.688V297.232H853.32ZM853.32 280.72V283.6H887.688V280.72H853.32ZM842.76 275.056H898.728V305.872H842.76V275.056ZM874.728 309.52L882.024 303.568C885.608 304.464 889.256 305.456 892.968 306.544C896.68 307.568 900.2 308.592 903.528 309.616C906.856 310.64 909.736 311.568 912.168 312.4L902.568 318.64C899.368 317.36 895.272 315.888 890.28 314.224C885.288 312.624 880.104 311.056 874.728 309.52ZM857.832 303.376L866.472 309.328C863.848 310.672 860.712 311.952 857.064 313.168C853.48 314.384 849.704 315.44 845.736 316.336C841.832 317.296 838.056 318.064 834.408 318.64C833.576 317.552 832.52 316.272 831.24 314.8C829.96 313.392 828.776 312.208 827.688 311.248C831.272 310.736 834.984 310.064 838.824 309.232C842.728 308.4 846.344 307.472 849.672 306.448C853.064 305.36 855.784 304.336 857.832 303.376ZM952.872 271.216H999.432V280.24H952.872V271.216ZM951.528 287.536H1001.06V296.944H951.528V287.536ZM980.232 274H990.408V316.816H980.232V274ZM961.512 274.48H971.4V292.816C971.4 294.416 971.208 296.304 970.824 298.48C970.44 300.656 969.768 302.992 968.808 305.488C967.912 307.92 966.632 310.256 964.968 312.496C963.304 314.8 961.224 316.816 958.728 318.544C957.896 317.52 956.744 316.336 955.272 314.992C953.8 313.712 952.488 312.688 951.336 311.92C954.024 310.256 956.104 308.24 957.576 305.872C959.112 303.504 960.136 301.136 960.648 298.768C961.224 296.4 961.512 294.416 961.512 292.816V274.48ZM941.544 245.2H965.64V252.688H941.544V245.2ZM986.088 245.2H1010.28V252.688H986.088V245.2ZM1005.77 232.144H1017.1V305.2C1017.1 308.144 1016.78 310.448 1016.14 312.112C1015.56 313.84 1014.38 315.184 1012.58 316.144C1010.86 317.104 1008.71 317.712 1006.15 317.968C1003.59 318.224 1000.46 318.32 996.744 318.256C996.616 317.232 996.36 316.016 995.976 314.608C995.656 313.264 995.272 311.888 994.824 310.48C994.376 309.072 993.864 307.888 993.288 306.928C995.464 306.992 997.576 307.056 999.624 307.12C1001.67 307.12 1003.08 307.088 1003.85 307.024C1004.55 307.024 1005.03 306.864 1005.29 306.544C1005.61 306.224 1005.77 305.744 1005.77 305.104V232.144ZM942.6 232.144H972.936V266.224H942.6V257.968H962.184V240.304H942.6V232.144ZM1011.72 232.144V240.304H990.12V258.256H1011.72V266.512H979.176V232.144H1011.72ZM935.784 232.144H947.016V318.64H935.784V232.144ZM1050.31 241.84V254.224H1062.41V241.84H1050.31ZM1040.62 232.048H1072.78V263.92H1040.62V232.048ZM1052.9 260.08H1062.98V302.992H1052.9V260.08ZM1040.04 270.928H1049.26V305.872H1040.04V270.928ZM1035.82 304.528C1038.95 303.824 1042.57 302.96 1046.66 301.936C1050.76 300.912 1055.05 299.824 1059.53 298.672C1064.07 297.456 1068.58 296.24 1073.06 295.024L1074.5 304.912C1068.3 306.768 1062.02 308.592 1055.69 310.384C1049.35 312.176 1043.62 313.808 1038.5 315.28L1035.82 304.528ZM1057.51 274.192H1072.1V284.08H1057.51V274.192ZM1085.26 238.864H1115.02V248.752H1085.26V238.864ZM1111.46 238.864H1122.12C1122.12 238.864 1122.12 239.152 1122.12 239.728C1122.12 240.304 1122.12 240.976 1122.12 241.744C1122.12 242.448 1122.12 243.024 1122.12 243.472C1122.12 251.536 1122.09 258.352 1122.02 263.92C1122.02 269.488 1121.93 274.096 1121.74 277.744C1121.61 281.328 1121.35 284.112 1120.97 286.096C1120.65 288.08 1120.23 289.52 1119.72 290.416C1118.76 291.824 1117.74 292.848 1116.65 293.488C1115.56 294.064 1114.25 294.512 1112.71 294.832C1111.37 295.024 1109.67 295.152 1107.62 295.216C1105.64 295.216 1103.56 295.184 1101.38 295.12C1101.32 293.648 1101 291.952 1100.42 290.032C1099.85 288.048 1099.11 286.384 1098.22 285.04C1100.14 285.168 1101.86 285.264 1103.4 285.328C1105 285.392 1106.22 285.424 1107.05 285.424C1107.75 285.424 1108.33 285.328 1108.78 285.136C1109.22 284.88 1109.64 284.464 1110.02 283.888C1110.34 283.376 1110.6 282.256 1110.79 280.528C1110.98 278.8 1111.11 276.272 1111.18 272.944C1111.3 269.616 1111.37 265.36 1111.37 260.176C1111.37 254.928 1111.4 248.528 1111.46 240.976V238.864ZM1084.58 228.592L1094.66 231.28C1093.38 235.12 1091.85 238.96 1090.06 242.8C1088.26 246.576 1086.28 250.128 1084.1 253.456C1081.99 256.72 1079.75 259.6 1077.38 262.096C1076.94 261.392 1076.26 260.528 1075.37 259.504C1074.54 258.416 1073.64 257.36 1072.68 256.336C1071.72 255.312 1070.89 254.512 1070.18 253.936C1073.38 250.864 1076.23 247.088 1078.73 242.608C1081.22 238.128 1083.18 233.456 1084.58 228.592ZM1077.29 256.336H1087.46V302.704C1087.46 304.176 1087.59 305.296 1087.85 306.064C1088.17 306.768 1088.81 307.248 1089.77 307.504C1090.73 307.76 1092.14 307.888 1093.99 307.888C1094.57 307.888 1095.43 307.888 1096.58 307.888C1097.74 307.888 1099.05 307.888 1100.52 307.888C1102.06 307.888 1103.56 307.888 1105.03 307.888C1106.57 307.888 1107.94 307.888 1109.16 307.888C1110.38 307.888 1111.3 307.888 1111.94 307.888C1113.54 307.888 1114.73 307.632 1115.5 307.12C1116.26 306.544 1116.84 305.488 1117.22 303.952C1117.61 302.416 1117.9 300.208 1118.09 297.328C1119.24 298.032 1120.71 298.768 1122.5 299.536C1124.36 300.304 1126.02 300.816 1127.5 301.072C1127.05 305.232 1126.31 308.496 1125.29 310.864C1124.26 313.232 1122.76 314.896 1120.78 315.856C1118.86 316.88 1116.17 317.392 1112.71 317.392C1112.14 317.392 1111.18 317.392 1109.83 317.392C1108.55 317.392 1107.08 317.392 1105.42 317.392C1103.75 317.392 1102.06 317.392 1100.33 317.392C1098.66 317.392 1097.16 317.392 1095.82 317.392C1094.54 317.392 1093.64 317.392 1093.13 317.392C1089.03 317.392 1085.83 316.976 1083.53 316.144C1081.22 315.312 1079.59 313.808 1078.63 311.632C1077.74 309.52 1077.29 306.544 1077.29 302.704V256.336ZM1079.88 256.336H1105.7V287.44H1079.88V278.128H1096.1V265.552H1079.88V256.336ZM1162.55 240.182L1161.22 289.068H1148.74L1147.38 240.182H1162.55ZM1154.98 310.886C1152.73 310.886 1150.8 310.091 1149.18 308.5C1147.57 306.886 1146.78 304.955 1146.8 302.705C1146.78 300.477 1147.57 298.568 1149.18 296.977C1150.8 295.386 1152.73 294.591 1154.98 294.591C1157.14 294.591 1159.04 295.386 1160.67 296.977C1162.31 298.568 1163.14 300.477 1163.16 302.705C1163.14 304.205 1162.74 305.58 1161.97 306.83C1161.22 308.057 1160.23 309.045 1159 309.795C1157.78 310.523 1156.43 310.886 1154.98 310.886Z" fill="#C97F5A"/>
<path d="M1331.75 177.704L1449.7 164.501L1556.85 215.564L1674.81 202.361L1636.98 427.295L1519.02 440.499L1411.87 389.435L1293.92 402.639L1331.75 177.704Z" stroke="#004B97" stroke-width="10" stroke-linecap="round" stroke-linejoin="round"/>
<path d="M1449.7 164.501L1411.87 389.435M1556.85 215.565L1519.02 440.499" stroke="#004B97" stroke-width="9" stroke-linecap="round" stroke-linejoin="round"/>
<path d="M1359.2 358.548C1413.23 312.564 1454.65 341.558 1486.16 291.789C1508.05 258.021 1537.49 261.872 1558.2 276.369" stroke="#004B97" stroke-width="5" stroke-linecap="round" stroke-dasharray="0.2 4"/>
<path d="M1355.42 381.041C1368.47 383.237 1380.75 374.946 1382.84 362.523C1384.92 350.1 1376.04 338.25 1362.98 336.054C1349.93 333.859 1337.65 342.15 1335.56 354.573C1333.47 366.995 1342.36 378.846 1355.42 381.041Z" fill="#ABDAD5"/>
<path d="M1581.52 255.002L1581.91 256.269L1583.18 256.653L1611.04 265.049L1587.06 280.447L1585.85 281.221L1585.91 282.652L1587.04 310.597L1563.59 292.657L1562.54 291.853L1561.28 292.269L1533.25 301.55L1543.46 275.513L1543.99 274.18L1543.1 273.054L1525.48 250.659L1554.54 251.835L1555.87 251.889L1556.66 250.82L1573.22 228.338L1581.52 255.002Z" fill="#C97F5A" stroke="#004B97" stroke-width="5"/>
<path d="M207.68 365.904V367.872H228.128V365.904H207.68ZM207.68 360.48V362.4H228.128V360.48H207.68ZM202.16 356.736H233.888V371.616H202.16V356.736ZM196.496 373.344H239.408V377.904H196.496V373.344ZM218.528 379.68H234.224V384.096H218.528V379.68ZM203.888 379.824H214.784V383.808H203.888V379.824ZM203.888 385.872H214.784V389.856H203.888V385.872ZM224.384 383.664C225.728 386.608 227.776 389.136 230.528 391.248C233.312 393.36 236.624 394.864 240.464 395.76C240.112 396.112 239.712 396.544 239.264 397.056C238.816 397.6 238.4 398.16 238.016 398.736C237.632 399.312 237.312 399.824 237.056 400.272C232.928 399.024 229.424 397.104 226.544 394.512C223.696 391.92 221.44 388.736 219.776 384.96L224.384 383.664ZM232.496 379.68H233.552L234.512 379.536L238.064 380.88C237.104 384.208 235.744 387.136 233.984 389.664C232.224 392.16 230.144 394.272 227.744 396C225.376 397.76 222.752 399.184 219.872 400.272C219.552 399.568 219.088 398.768 218.48 397.872C217.872 397.008 217.296 396.304 216.752 395.76C218.608 395.184 220.368 394.416 222.032 393.456C223.728 392.496 225.264 391.36 226.64 390.048C228.016 388.736 229.2 387.28 230.192 385.68C231.216 384.08 231.984 382.368 232.496 380.544V379.68ZM196.064 392.832C197.696 392.736 199.52 392.624 201.536 392.496C203.552 392.336 205.68 392.176 207.92 392.016C210.16 391.824 212.416 391.632 214.688 391.44V396.144C211.456 396.432 208.24 396.72 205.04 397.008C201.872 397.328 199.024 397.6 196.496 397.824L196.064 392.832ZM211.856 374.832H217.328V400.32H211.856V374.832ZM200.288 374.928H205.52V394.56H200.288V374.928ZM249.728 359.184H291.872V364.128H249.728V359.184ZM267.536 355.152H273.44V361.632H267.536V355.152ZM251.6 378.576H286.736V383.328H257.216V400.32H251.6V378.576ZM284.576 378.576H290.336V394.224C290.336 395.536 290.176 396.592 289.856 397.392C289.536 398.224 288.912 398.864 287.984 399.312C287.056 399.728 285.952 399.984 284.672 400.08C283.392 400.176 281.872 400.224 280.112 400.224C280.016 399.424 279.792 398.496 279.44 397.44C279.088 396.416 278.72 395.552 278.336 394.848C279.456 394.88 280.528 394.912 281.552 394.944C282.608 394.944 283.296 394.928 283.616 394.896C284 394.864 284.256 394.8 284.384 394.704C284.512 394.608 284.576 394.416 284.576 394.128V378.576ZM261.536 385.536H266.528V398.544H261.536V385.536ZM264.08 385.536H279.968V396.336H264.08V392.448H274.928V389.424H264.08V385.536ZM263.072 369.792V372.72H278.144V369.792H263.072ZM257.6 365.952H284V376.56H257.6V365.952ZM333.776 360.048H339.824V393.024C339.824 394.752 339.6 396.08 339.152 397.008C338.704 397.968 337.888 398.688 336.704 399.168C335.552 399.648 334.08 399.936 332.288 400.032C330.496 400.16 328.368 400.224 325.904 400.224C325.776 399.648 325.584 398.976 325.328 398.208C325.072 397.472 324.768 396.736 324.416 396C324.096 395.264 323.776 394.64 323.456 394.128C324.64 394.16 325.824 394.192 327.008 394.224C328.224 394.256 329.312 394.272 330.272 394.272C331.232 394.272 331.904 394.272 332.288 394.272C332.832 394.272 333.216 394.176 333.44 393.984C333.664 393.792 333.776 393.44 333.776 392.928V360.048ZM306.368 369.648H311.936V392.016H306.368V369.648ZM308.72 369.648H326.816V388.32H308.72V382.8H321.152V375.12H308.72V369.648ZM301.904 358.416H345.392V364.272H301.904V358.416ZM353.936 358.416L357.92 355.44C360.096 357.424 361.824 359.456 363.104 361.536C364.416 363.584 365.392 365.696 366.032 367.872C366.704 370.016 367.136 372.224 367.328 374.496C367.552 376.768 367.664 379.088 367.664 381.456C367.664 383.696 367.6 385.904 367.472 388.08C367.344 390.224 367.088 392.16 366.704 393.888C366.352 395.616 365.808 396.976 365.072 397.968C364.368 398.96 363.392 399.584 362.144 399.84C361.312 400.064 360.416 400.192 359.456 400.224C358.528 400.288 357.552 400.304 356.528 400.272C356.528 399.344 356.416 398.4 356.192 397.44C355.968 396.48 355.616 395.584 355.136 394.752C356.16 394.816 357.024 394.848 357.728 394.848C358.464 394.848 359.056 394.832 359.504 394.8C360.112 394.704 360.592 394.432 360.944 393.984C361.296 393.536 361.552 392.704 361.712 391.488C361.904 390.24 362.048 388.736 362.144 386.976C362.24 385.184 362.288 383.312 362.288 381.36C362.288 378.352 362.08 375.536 361.664 372.912C361.28 370.256 360.496 367.728 359.312 365.328C358.128 362.928 356.336 360.624 353.936 358.416ZM362.672 373.152L366.848 375.6C366.112 377.072 365.2 378.624 364.112 380.256C363.024 381.856 361.856 383.376 360.608 384.816C359.392 386.256 358.176 387.504 356.96 388.56C356.512 387.856 355.936 387.088 355.232 386.256C354.528 385.424 353.856 384.768 353.216 384.288C354.4 383.488 355.584 382.48 356.768 381.264C357.984 380.048 359.104 378.736 360.128 377.328C361.184 375.888 362.032 374.496 362.672 373.152ZM364.64 355.68L369.68 358.176C368.144 361.024 366.272 363.792 364.064 366.48C361.856 369.136 359.568 371.392 357.2 373.248C356.784 372.672 356.176 372.032 355.376 371.328C354.608 370.592 353.92 370 353.312 369.552C354.816 368.432 356.272 367.12 357.68 365.616C359.12 364.08 360.432 362.464 361.616 360.768C362.8 359.04 363.808 357.344 364.64 355.68ZM369.392 358.416H398.48V362.736H369.392V358.416ZM371.984 380.64H398.192V384.048H371.984V380.64ZM370.352 385.584H393.248V389.664H370.352V385.584ZM373.856 371.856H395.6V374.496H373.856V371.856ZM373.904 376.224H395.648V378.864H373.904V376.224ZM375.488 355.104H380.672V364.656H375.488V355.104ZM382.448 368.64H387.488V382.464H382.448V368.64ZM386.72 355.104H391.952V364.656H386.72V355.104ZM373.664 363.216L378.224 364.464C377.296 366.704 376.112 368.88 374.672 370.992C373.232 373.072 371.728 374.832 370.16 376.272C369.936 375.92 369.616 375.52 369.2 375.072C368.784 374.624 368.368 374.176 367.952 373.728C367.536 373.28 367.152 372.912 366.8 372.624C368.272 371.472 369.6 370.064 370.784 368.4C372 366.736 372.96 365.008 373.664 363.216ZM371.984 370.08L376.928 367.68V383.088H371.984V370.08ZM374.24 366.864H396.896V370.272H372.512L374.24 366.864ZM383.696 363.696L389.168 364.56C388.656 365.456 388.16 366.304 387.68 367.104C387.2 367.872 386.784 368.56 386.432 369.168L382.064 368.208C382.352 367.504 382.656 366.736 382.976 365.904C383.296 365.04 383.536 364.304 383.696 363.696ZM391.856 385.584H392.912L393.824 385.44L396.896 387.264C395.744 389.344 394.24 391.136 392.384 392.64C390.528 394.112 388.4 395.36 386 396.384C383.632 397.408 381.088 398.24 378.368 398.88C375.68 399.52 372.864 400.032 369.92 400.416C369.792 400 369.584 399.504 369.296 398.928C369.04 398.384 368.752 397.84 368.432 397.296C368.112 396.752 367.808 396.32 367.52 396C370.304 395.776 372.96 395.44 375.488 394.992C378.048 394.512 380.384 393.888 382.496 393.12C384.64 392.352 386.512 391.408 388.112 390.288C389.712 389.168 390.96 387.84 391.856 386.304V385.584ZM378.656 389.088C379.936 390.4 381.632 391.52 383.744 392.448C385.856 393.344 388.256 394.08 390.944 394.656C393.664 395.2 396.56 395.584 399.632 395.808C399.056 396.352 398.464 397.072 397.856 397.968C397.28 398.864 396.816 399.664 396.464 400.368C393.232 399.984 390.208 399.376 387.392 398.544C384.576 397.744 382.048 396.704 379.808 395.424C377.568 394.112 375.664 392.544 374.096 390.72L378.656 389.088ZM436.689 396.477C434.28 396.477 432.132 396.034 430.246 395.148C428.371 394.261 426.882 393.04 425.78 391.483C424.678 389.926 424.104 388.142 424.058 386.131H431.217C431.297 387.483 431.865 388.58 432.922 389.42C433.979 390.261 435.234 390.682 436.689 390.682C437.848 390.682 438.871 390.426 439.757 389.915C440.655 389.392 441.354 388.67 441.854 387.75C442.365 386.818 442.621 385.75 442.621 384.545C442.621 383.318 442.359 382.239 441.837 381.307C441.325 380.375 440.615 379.648 439.706 379.125C438.797 378.602 437.757 378.335 436.587 378.324C435.564 378.324 434.57 378.534 433.604 378.955C432.649 379.375 431.905 379.949 431.371 380.676L424.808 379.5L426.462 361.091H447.803V367.125H432.547L431.643 375.869H431.848C432.462 375.006 433.388 374.29 434.626 373.722C435.865 373.153 437.251 372.869 438.786 372.869C440.888 372.869 442.763 373.364 444.411 374.352C446.058 375.341 447.359 376.699 448.314 378.426C449.268 380.142 449.74 382.119 449.729 384.358C449.74 386.71 449.195 388.801 448.092 390.631C447.001 392.449 445.473 393.881 443.507 394.926C441.553 395.96 439.28 396.477 436.689 396.477ZM473.364 396.767C470.432 396.756 467.909 396.034 465.796 394.602C463.693 393.17 462.074 391.097 460.938 388.381C459.813 385.665 459.256 382.398 459.267 378.58C459.267 374.773 459.83 371.528 460.955 368.847C462.091 366.165 463.71 364.125 465.813 362.727C467.926 361.318 470.443 360.614 473.364 360.614C476.284 360.614 478.796 361.318 480.898 362.727C483.012 364.136 484.637 366.182 485.773 368.864C486.909 371.534 487.472 374.773 487.461 378.58C487.461 382.409 486.892 385.682 485.756 388.398C484.631 391.114 483.017 393.187 480.915 394.619C478.813 396.051 476.296 396.767 473.364 396.767ZM473.364 390.648C475.364 390.648 476.96 389.642 478.154 387.631C479.347 385.619 479.938 382.602 479.926 378.58C479.926 375.932 479.654 373.727 479.108 371.966C478.574 370.205 477.813 368.881 476.824 367.994C475.847 367.108 474.693 366.665 473.364 366.665C471.375 366.665 469.784 367.659 468.591 369.648C467.398 371.636 466.796 374.614 466.784 378.58C466.784 381.261 467.051 383.5 467.585 385.295C468.131 387.08 468.898 388.42 469.887 389.318C470.875 390.205 472.034 390.648 473.364 390.648ZM511.211 396.767C508.279 396.756 505.756 396.034 503.643 394.602C501.54 393.17 499.921 391.097 498.785 388.381C497.66 385.665 497.103 382.398 497.114 378.58C497.114 374.773 497.677 371.528 498.802 368.847C499.938 366.165 501.557 364.125 503.66 362.727C505.773 361.318 508.29 360.614 511.211 360.614C514.131 360.614 516.643 361.318 518.745 362.727C520.859 364.136 522.484 366.182 523.62 368.864C524.756 371.534 525.319 374.773 525.307 378.58C525.307 382.409 524.739 385.682 523.603 388.398C522.478 391.114 520.864 393.187 518.762 394.619C516.66 396.051 514.143 396.767 511.211 396.767ZM511.211 390.648C513.211 390.648 514.807 389.642 516.001 387.631C517.194 385.619 517.785 382.602 517.773 378.58C517.773 375.932 517.501 373.727 516.955 371.966C516.421 370.205 515.66 368.881 514.671 367.994C513.694 367.108 512.54 366.665 511.211 366.665C509.222 366.665 507.631 367.659 506.438 369.648C505.245 371.636 504.643 374.614 504.631 378.58C504.631 381.261 504.898 383.5 505.432 385.295C505.978 387.08 506.745 388.42 507.734 389.318C508.722 390.205 509.881 390.648 511.211 390.648ZM549.058 396.767C546.126 396.756 543.603 396.034 541.489 394.602C539.387 393.17 537.768 391.097 536.632 388.381C535.507 385.665 534.95 382.398 534.961 378.58C534.961 374.773 535.524 371.528 536.649 368.847C537.785 366.165 539.404 364.125 541.507 362.727C543.62 361.318 546.137 360.614 549.058 360.614C551.978 360.614 554.489 361.318 556.592 362.727C558.705 364.136 560.33 366.182 561.467 368.864C562.603 371.534 563.166 374.773 563.154 378.58C563.154 382.409 562.586 385.682 561.45 388.398C560.325 391.114 558.711 393.187 556.609 394.619C554.507 396.051 551.989 396.767 549.058 396.767ZM549.058 390.648C551.058 390.648 552.654 389.642 553.847 387.631C555.041 385.619 555.632 382.602 555.62 378.58C555.62 375.932 555.347 373.727 554.802 371.966C554.268 370.205 553.507 368.881 552.518 367.994C551.541 367.108 550.387 366.665 549.058 366.665C547.069 366.665 545.478 367.659 544.285 369.648C543.092 371.636 542.489 374.614 542.478 378.58C542.478 381.261 542.745 383.5 543.279 385.295C543.825 387.08 544.592 388.42 545.58 389.318C546.569 390.205 547.728 390.648 549.058 390.648ZM613.225 375.312H619.177V391.968C619.177 392.896 619.273 393.488 619.465 393.744C619.689 393.968 620.201 394.08 621.001 394.08C621.161 394.08 621.433 394.08 621.817 394.08C622.201 394.08 622.617 394.08 623.065 394.08C623.545 394.08 623.977 394.08 624.361 394.08C624.777 394.08 625.113 394.08 625.369 394.08C625.913 394.08 626.313 393.888 626.569 393.504C626.857 393.088 627.065 392.304 627.193 391.152C627.321 389.968 627.417 388.224 627.481 385.92C627.897 386.24 628.425 386.56 629.065 386.88C629.705 387.2 630.361 387.488 631.033 387.744C631.705 388 632.297 388.192 632.809 388.32C632.617 391.2 632.281 393.456 631.801 395.088C631.353 396.688 630.665 397.808 629.737 398.448C628.809 399.12 627.529 399.456 625.897 399.456C625.609 399.456 625.193 399.456 624.649 399.456C624.137 399.456 623.577 399.456 622.969 399.456C622.361 399.456 621.785 399.456 621.241 399.456C620.729 399.456 620.329 399.456 620.041 399.456C618.249 399.456 616.857 399.216 615.865 398.736C614.873 398.288 614.185 397.52 613.801 396.432C613.417 395.344 613.225 393.872 613.225 392.016V375.312ZM588.841 371.664H631.897V377.232H588.841V371.664ZM593.209 358.608H627.481V364.128H593.209V358.608ZM599.833 376.08H606.025C605.833 378.704 605.513 381.2 605.065 383.568C604.617 385.936 603.897 388.16 602.905 390.24C601.913 392.288 600.489 394.16 598.633 395.856C596.777 397.52 594.345 398.96 591.337 400.176C591.017 399.44 590.505 398.608 589.801 397.68C589.097 396.784 588.425 396.048 587.785 395.472C590.409 394.512 592.489 393.36 594.025 392.016C595.561 390.64 596.729 389.136 597.529 387.504C598.329 385.84 598.873 384.048 599.161 382.128C599.449 380.176 599.673 378.16 599.833 376.08ZM641.257 385.776H684.985V390.48H641.257V385.776ZM666.361 387.408C667.289 389.232 668.617 390.688 670.345 391.776C672.073 392.832 674.249 393.616 676.873 394.128C679.529 394.608 682.697 394.896 686.377 394.992C685.961 395.376 685.529 395.872 685.081 396.48C684.665 397.12 684.281 397.76 683.929 398.4C683.577 399.072 683.289 399.68 683.065 400.224C679.929 400.032 677.177 399.664 674.809 399.12C672.441 398.608 670.377 397.872 668.617 396.912C666.857 395.984 665.337 394.8 664.057 393.36C662.809 391.92 661.705 390.208 660.745 388.224L666.361 387.408ZM669.001 384.192L671.353 380.976C672.377 381.2 673.497 381.488 674.713 381.84C675.929 382.192 677.113 382.56 678.265 382.944C679.417 383.328 680.377 383.696 681.145 384.048L678.649 387.648C677.945 387.296 677.033 386.912 675.913 386.496C674.793 386.048 673.625 385.632 672.409 385.248C671.193 384.832 670.057 384.48 669.001 384.192ZM657.961 370.128H685.753V374.112H657.961V370.128ZM673.897 367.008H679.321V376.944C679.321 378.128 679.177 379.024 678.889 379.632C678.601 380.24 678.025 380.688 677.161 380.976C676.329 381.296 675.321 381.488 674.137 381.552C672.985 381.584 671.641 381.6 670.105 381.6C669.977 380.928 669.769 380.224 669.481 379.488C669.193 378.72 668.889 378.032 668.569 377.424C669.497 377.456 670.409 377.472 671.305 377.472C672.233 377.472 672.825 377.472 673.081 377.472C673.401 377.472 673.609 377.424 673.705 377.328C673.833 377.232 673.897 377.056 673.897 376.8V367.008ZM640.633 369.504H654.073V373.968H640.633V369.504ZM651.289 355.152H656.473V382.8H651.289V355.152ZM642.889 356.544H647.689V362.592H654.265V366.96H642.889V356.544ZM660.889 375.648L664.681 373.44C665.545 374.144 666.409 374.944 667.273 375.84C668.137 376.736 668.793 377.568 669.241 378.336L665.161 380.736C664.777 380 664.169 379.152 663.337 378.192C662.537 377.232 661.721 376.384 660.889 375.648ZM659.737 362.256L662.857 361.104C663.849 361.68 664.873 362.4 665.929 363.264C666.985 364.128 667.801 364.912 668.377 365.616L665.113 366.864C664.601 366.16 663.817 365.376 662.761 364.512C661.737 363.648 660.729 362.896 659.737 362.256ZM664.633 360.528L667.369 359.088C668.169 359.472 669.001 359.936 669.865 360.48C670.729 360.992 671.545 361.536 672.313 362.112C673.081 362.656 673.705 363.184 674.185 363.696L671.305 365.184C670.857 364.704 670.265 364.192 669.529 363.648C668.793 363.072 667.993 362.512 667.129 361.968C666.297 361.392 665.465 360.912 664.633 360.528ZM678.937 357.504H679.897L680.809 357.312L683.785 358.8C682.729 360.624 681.401 362.192 679.801 363.504C678.201 364.816 676.377 365.936 674.329 366.864C672.281 367.76 670.073 368.496 667.705 369.072C665.337 369.616 662.889 370.048 660.361 370.368C660.169 369.824 659.849 369.2 659.401 368.496C658.985 367.792 658.585 367.216 658.201 366.768C660.473 366.576 662.665 366.272 664.777 365.856C666.921 365.408 668.905 364.832 670.729 364.128C672.585 363.424 674.217 362.576 675.625 361.584C677.033 360.592 678.137 359.424 678.937 358.08V357.504ZM670.585 355.152L675.289 356.208C673.369 358 671.081 359.536 668.425 360.816C665.801 362.096 662.713 363.216 659.161 364.176C658.873 363.664 658.441 363.072 657.865 362.4C657.321 361.728 656.825 361.216 656.377 360.864C659.705 360.192 662.553 359.376 664.921 358.416C667.321 357.424 669.209 356.336 670.585 355.152ZM669.481 357.504H680.425V360.624H665.209L669.481 357.504ZM643.513 371.808H648.601V374.256C648.601 374.992 648.489 375.952 648.265 377.136C648.073 378.32 647.705 379.536 647.161 380.784C646.617 382.032 645.801 383.104 644.713 384C644.393 383.744 643.961 383.456 643.417 383.136C642.905 382.816 642.377 382.512 641.833 382.224C641.289 381.936 640.793 381.712 640.345 381.552C641.273 380.816 641.961 379.984 642.409 379.056C642.857 378.096 643.145 377.168 643.273 376.272C643.433 375.344 643.513 374.608 643.513 374.064V371.808ZM659.833 381.312H665.545V385.68C665.545 386.832 665.369 388 665.017 389.184C664.697 390.368 664.089 391.536 663.193 392.688C662.297 393.808 661.017 394.864 659.353 395.856C657.689 396.848 655.545 397.728 652.921 398.496C650.297 399.296 647.065 399.936 643.225 400.416C642.905 399.712 642.441 398.896 641.833 397.968C641.225 397.072 640.649 396.304 640.105 395.664C643.529 395.28 646.409 394.8 648.745 394.224C651.081 393.648 652.969 393.008 654.409 392.304C655.881 391.6 657.001 390.88 657.769 390.144C658.569 389.376 659.113 388.608 659.401 387.84C659.689 387.04 659.833 386.272 659.833 385.536V381.312ZM700.489 363.744H720.553V367.104H700.489V363.744ZM697.753 356.592H721.033V360.912H697.753V356.592ZM695.497 356.592H700.009V372.912C700.009 374.8 699.961 376.88 699.865 379.152C699.801 381.424 699.641 383.76 699.385 386.16C699.161 388.56 698.841 390.896 698.425 393.168C698.009 395.408 697.449 397.456 696.745 399.312C696.457 399.024 696.073 398.72 695.593 398.4C695.113 398.08 694.617 397.76 694.105 397.44C693.593 397.152 693.145 396.944 692.761 396.816C693.401 395.088 693.913 393.216 694.297 391.2C694.681 389.152 694.953 387.072 695.113 384.96C695.273 382.816 695.369 380.72 695.401 378.672C695.465 376.592 695.497 374.672 695.497 372.912V356.592ZM704.137 361.44H708.121V369.168H704.137V361.44ZM712.153 361.44H716.185V369.168H712.153V361.44ZM699.769 384.384H717.913V388.128H703.897V400.32H699.769V384.384ZM712.969 389.472L715.417 388.944C715.801 389.872 716.121 390.928 716.377 392.112C716.665 393.264 716.841 394.272 716.905 395.136L714.313 395.76C714.281 394.896 714.137 393.888 713.881 392.736C713.657 391.552 713.353 390.464 712.969 389.472ZM704.377 391.824C705.785 391.696 707.385 391.552 709.177 391.392C711.001 391.2 712.905 391.008 714.889 390.816L714.985 394.128C713.225 394.384 711.497 394.624 709.801 394.848C708.105 395.04 706.489 395.232 704.953 395.424L704.377 391.824ZM704.905 377.664V379.488H715.801V377.664H704.905ZM704.905 372.912V374.688H715.801V372.912H704.905ZM701.113 369.792H719.737V382.608H701.113V369.792ZM716.473 384.384H720.649V396.096C720.649 396.96 720.553 397.648 720.361 398.16C720.169 398.672 719.785 399.088 719.209 399.408C718.633 399.664 717.945 399.824 717.145 399.888C716.377 399.952 715.465 399.984 714.409 399.984C714.313 399.44 714.153 398.848 713.929 398.208C713.737 397.568 713.529 397.008 713.305 396.528C713.849 396.56 714.377 396.576 714.889 396.576C715.401 396.576 715.753 396.576 715.945 396.576C716.297 396.576 716.473 396.4 716.473 396.048V384.384ZM708.265 371.232H712.393V386.016H708.265V371.232ZM708.217 385.392H711.865V393.216H708.217V385.392ZM720.793 366.24H735.049V371.472H720.793V366.24ZM732.409 366.24H737.401C737.401 366.24 737.401 366.4 737.401 366.72C737.401 367.008 737.401 367.344 737.401 367.728C737.401 368.08 737.401 368.368 737.401 368.592C737.305 373.616 737.193 377.872 737.065 381.36C736.969 384.848 736.841 387.712 736.681 389.952C736.553 392.192 736.361 393.936 736.105 395.184C735.881 396.4 735.593 397.264 735.241 397.776C734.761 398.544 734.249 399.072 733.705 399.36C733.193 399.68 732.585 399.904 731.881 400.032C731.209 400.16 730.409 400.224 729.481 400.224C728.585 400.256 727.609 400.256 726.553 400.224C726.521 399.488 726.377 398.64 726.121 397.68C725.897 396.752 725.577 395.936 725.161 395.232C726.025 395.296 726.809 395.344 727.513 395.376C728.249 395.376 728.825 395.376 729.241 395.376C729.625 395.376 729.913 395.328 730.105 395.232C730.329 395.104 730.553 394.88 730.777 394.56C731.033 394.208 731.241 393.488 731.401 392.4C731.561 391.312 731.705 389.728 731.833 387.648C731.961 385.568 732.073 382.88 732.169 379.584C732.265 376.256 732.345 372.208 732.409 367.44V366.24ZM724.105 355.632H729.193C729.193 360.304 729.145 364.8 729.049 369.12C728.953 373.44 728.697 377.504 728.281 381.312C727.897 385.12 727.257 388.64 726.361 391.872C725.497 395.072 724.297 397.904 722.761 400.368C722.313 399.728 721.689 399.024 720.889 398.256C720.121 397.52 719.385 396.96 718.681 396.576C719.801 394.816 720.697 392.832 721.369 390.624C722.073 388.416 722.617 386.016 723.001 383.424C723.385 380.8 723.641 378.016 723.769 375.072C723.929 372.096 724.025 368.992 724.057 365.76C724.089 362.496 724.105 359.12 724.105 355.632ZM768.505 360.72C767.193 362.544 765.529 364.432 763.513 366.384C761.529 368.336 759.321 370.208 756.889 372C754.489 373.792 751.977 375.392 749.353 376.8C749.097 376.32 748.761 375.792 748.345 375.216C747.961 374.64 747.529 374.08 747.049 373.536C746.601 372.992 746.169 372.512 745.753 372.096C748.505 370.784 751.145 369.168 753.673 367.248C756.201 365.296 758.457 363.264 760.441 361.152C762.457 359.04 764.057 357.008 765.241 355.056H771.241C772.553 356.88 773.993 358.624 775.561 360.288C777.129 361.952 778.809 363.488 780.601 364.896C782.393 366.304 784.233 367.568 786.121 368.688C788.009 369.808 789.913 370.752 791.833 371.52C791.097 372.256 790.409 373.088 789.769 374.016C789.129 374.944 788.537 375.84 787.993 376.704C786.169 375.744 784.313 374.64 782.425 373.392C780.569 372.144 778.777 370.816 777.049 369.408C775.321 367.968 773.721 366.512 772.249 365.04C770.777 363.568 769.529 362.128 768.505 360.72ZM756.505 369.6H780.649V374.64H756.505V369.6ZM750.745 379.392H786.313V384.384H750.745V379.392ZM748.345 393.984H789.145V398.928H748.345V393.984ZM765.385 371.616H771.481V396.48H765.385V371.616ZM753.769 386.208L758.377 384.288C758.985 385.088 759.577 385.968 760.153 386.928C760.761 387.888 761.305 388.832 761.785 389.76C762.265 390.688 762.617 391.52 762.841 392.256L757.897 394.464C757.705 393.728 757.385 392.88 756.937 391.92C756.489 390.928 755.993 389.936 755.449 388.944C754.905 387.952 754.345 387.04 753.769 386.208ZM778.153 384.336L783.673 386.352C782.713 387.824 781.721 389.296 780.697 390.768C779.673 392.208 778.729 393.44 777.865 394.464L773.545 392.64C774.089 391.872 774.649 391.024 775.225 390.096C775.801 389.136 776.345 388.16 776.857 387.168C777.369 386.144 777.801 385.2 778.153 384.336ZM809.071 361.091L808.406 385.534H802.167L801.486 361.091H809.071ZM805.287 396.443C804.162 396.443 803.196 396.045 802.389 395.25C801.582 394.443 801.184 393.477 801.196 392.352C801.184 391.239 801.582 390.284 802.389 389.489C803.196 388.693 804.162 388.295 805.287 388.295C806.366 388.295 807.315 388.693 808.133 389.489C808.951 390.284 809.366 391.239 809.378 392.352C809.366 393.102 809.167 393.79 808.781 394.415C808.406 395.028 807.912 395.523 807.298 395.898C806.684 396.261 806.014 396.443 805.287 396.443Z" fill="#004B97"/>
<rect x="193" y="462" width="442" height="62" rx="31" fill="#F3E3B5" stroke="#C97F5A" stroke-width="6"/>
<path d="M239.936 492.428H254.66V509.06H250.52V496.352H243.824V509.204H239.936V492.428ZM244.724 475.472H248.9V493.508H244.724V475.472ZM247.208 482.888H255.884V486.884H247.208V482.888ZM241.988 503.876H252.464V507.8H241.988V503.876ZM226.58 479.396V487.28H235.328V479.396H226.58ZM223.376 476.516H238.676V490.16H223.376V476.516ZM226.508 480.944L228.308 480.44C228.596 481.256 228.848 482.144 229.064 483.104C229.28 484.064 229.412 484.892 229.46 485.588L227.552 486.2C227.528 485.504 227.42 484.664 227.228 483.68C227.036 482.696 226.796 481.784 226.508 480.944ZM227.408 501.608L230.036 501.284C230.252 502.268 230.42 503.348 230.54 504.524C230.684 505.7 230.768 506.72 230.792 507.584L228.02 507.944C228.044 507.08 227.996 506.06 227.876 504.884C227.756 503.684 227.6 502.592 227.408 501.608ZM231.008 501.428L233.564 500.96C233.924 501.92 234.248 502.952 234.536 504.056C234.824 505.136 235.028 506.096 235.148 506.936L232.448 507.476C232.376 506.66 232.196 505.688 231.908 504.56C231.644 503.432 231.344 502.388 231.008 501.428ZM234.5 501.14L237.056 500.168C237.656 501.032 238.22 501.992 238.748 503.048C239.276 504.104 239.648 505.028 239.864 505.82L237.128 506.936C236.936 506.12 236.588 505.172 236.084 504.092C235.604 503.012 235.076 502.028 234.5 501.14ZM224.24 501.392L227.156 502.22C226.94 503.516 226.64 504.8 226.256 506.072C225.896 507.344 225.332 508.4 224.564 509.24L221.756 507.8C222.428 507.032 222.968 506.072 223.376 504.92C223.784 503.744 224.072 502.568 224.24 501.392ZM233.564 480.404L235.724 481.124C235.388 481.988 235.04 482.9 234.68 483.86C234.344 484.82 234.032 485.624 233.744 486.272L232.124 485.66C232.316 485.156 232.496 484.604 232.664 484.004C232.856 483.38 233.036 482.756 233.204 482.132C233.372 481.484 233.492 480.908 233.564 480.404ZM222.548 496.892C223.964 496.868 225.572 496.832 227.372 496.784C229.196 496.712 231.116 496.64 233.132 496.568C235.148 496.496 237.164 496.412 239.18 496.316L239.108 499.7C237.164 499.796 235.196 499.904 233.204 500.024C231.236 500.12 229.352 500.216 227.552 500.312C225.776 500.384 224.144 500.456 222.656 500.528L222.548 496.892ZM223.448 491.708H238.604V494.984H223.448V491.708ZM229.604 477.992H232.196V488.828H232.808V498.224H228.992V488.828H229.604V477.992ZM264.884 497.612H292.64V500.24H264.884V497.612ZM262.508 501.428H294.8V504.2H262.508V501.428ZM276.476 494.66H280.76V505.532C280.76 506.492 280.616 507.2 280.328 507.656C280.064 508.136 279.572 508.496 278.852 508.736C278.132 508.976 277.268 509.12 276.26 509.168C275.252 509.216 274.052 509.24 272.66 509.24C272.54 508.736 272.348 508.184 272.084 507.584C271.82 506.984 271.556 506.468 271.292 506.036C271.868 506.06 272.456 506.072 273.056 506.072C273.68 506.072 274.232 506.06 274.712 506.036C275.192 506.036 275.528 506.036 275.72 506.036C275.984 506.036 276.176 506 276.296 505.928C276.416 505.832 276.476 505.664 276.476 505.424V494.66ZM287.24 493.256L289.76 495.38C288.2 495.644 286.472 495.86 284.576 496.028C282.704 496.196 280.736 496.328 278.672 496.424C276.632 496.52 274.58 496.592 272.516 496.64C270.452 496.664 268.448 496.652 266.504 496.604C266.48 496.292 266.396 495.896 266.252 495.416C266.108 494.936 265.976 494.552 265.856 494.264C267.728 494.264 269.66 494.252 271.652 494.228C273.644 494.18 275.6 494.12 277.52 494.048C279.44 493.952 281.228 493.844 282.884 493.724C284.564 493.604 286.016 493.448 287.24 493.256ZM262.688 477.056H278.456V479.18H262.688V477.056ZM262.148 487.064H278.564V489.152H262.148V487.064ZM266.468 483.824V484.724H274.64V483.824H266.468ZM266.468 481.52V482.384H274.64V481.52H266.468ZM263.66 480.044H277.556V486.2H263.66V480.044ZM268.808 475.436H272.084V493.004H268.808V475.436ZM279.14 484.22H291.488V486.92H279.14V484.22ZM282.848 476.408H289.256V479.324H282.848V476.408ZM290.12 484.22H290.768L291.416 484.148L293.396 484.724C292.724 486.596 291.74 488.144 290.444 489.368C289.148 490.568 287.6 491.504 285.8 492.176C284 492.848 281.972 493.352 279.716 493.688C279.596 493.256 279.392 492.776 279.104 492.248C278.84 491.696 278.564 491.252 278.276 490.916C280.196 490.724 281.948 490.388 283.532 489.908C285.116 489.404 286.472 488.72 287.6 487.856C288.728 486.992 289.568 485.888 290.12 484.544V484.22ZM283.676 486.596C284.732 487.988 286.316 489.128 288.428 490.016C290.54 490.904 292.94 491.492 295.628 491.78C295.244 492.14 294.836 492.62 294.404 493.22C293.996 493.796 293.684 494.312 293.468 494.768C291.524 494.456 289.736 493.976 288.104 493.328C286.472 492.68 285.02 491.876 283.748 490.916C282.476 489.932 281.42 488.804 280.58 487.532L283.676 486.596ZM280.76 476.408H284.324V478.64C284.324 479.36 284.228 480.104 284.036 480.872C283.844 481.616 283.496 482.336 282.992 483.032C282.512 483.704 281.792 484.304 280.832 484.832C280.64 484.568 280.376 484.28 280.04 483.968C279.704 483.632 279.356 483.308 278.996 482.996C278.636 482.66 278.336 482.42 278.096 482.276C279.272 481.7 280.004 481.1 280.292 480.476C280.604 479.852 280.76 479.204 280.76 478.532V476.408ZM287.312 476.408H290.948V479.576C290.948 480.08 290.972 480.38 291.02 480.476C291.092 480.572 291.212 480.62 291.38 480.62C291.452 480.62 291.536 480.62 291.632 480.62C291.752 480.62 291.848 480.62 291.92 480.62C292.016 480.62 292.1 480.62 292.172 480.62C292.244 480.596 292.304 480.572 292.352 480.548C292.4 480.5 292.448 480.452 292.496 480.404C292.568 480.332 292.616 480.224 292.64 480.08C292.688 479.96 292.712 479.756 292.712 479.468C292.736 479.18 292.76 478.856 292.784 478.496C293.072 478.76 293.456 479.024 293.936 479.288C294.44 479.528 294.908 479.72 295.34 479.864C295.292 480.344 295.22 480.824 295.124 481.304C295.052 481.76 294.956 482.096 294.836 482.312C294.572 482.816 294.2 483.152 293.72 483.32C293.48 483.44 293.204 483.524 292.892 483.572C292.58 483.596 292.292 483.608 292.028 483.608C291.788 483.608 291.5 483.608 291.164 483.608C290.852 483.608 290.588 483.608 290.372 483.608C289.964 483.608 289.544 483.548 289.112 483.428C288.68 483.308 288.332 483.116 288.068 482.852C287.804 482.564 287.612 482.204 287.492 481.772C287.372 481.316 287.312 480.62 287.312 479.684V476.408ZM263.876 489.404H266.828V491.204H274.172V489.404H277.232V493.364H263.876V489.404ZM309.344 491.348H330.836V509.312H326.516V494.588H313.448V509.312H309.344V491.348ZM302.144 486.416H334.256V489.836H302.144V486.416ZM304.664 481.628H332.276V484.868H304.664V481.628ZM312.116 496.136H328.244V498.836H312.116V496.136ZM312.116 500.42H328.244V503.12H312.116V500.42ZM311.648 504.74H328.28V508.016H311.648V504.74ZM329.648 475.544L332.132 478.604C330.284 478.916 328.256 479.18 326.048 479.396C323.864 479.588 321.584 479.756 319.208 479.9C316.832 480.02 314.444 480.104 312.044 480.152C309.644 480.2 307.328 480.212 305.096 480.188C305.072 479.732 304.976 479.192 304.808 478.568C304.64 477.944 304.46 477.416 304.268 476.984C306.476 476.984 308.744 476.96 311.072 476.912C313.424 476.84 315.728 476.744 317.984 476.624C320.24 476.504 322.364 476.36 324.356 476.192C326.348 476 328.112 475.784 329.648 475.544ZM314.312 478.532L318.776 479.432C317.96 482.408 316.904 485.3 315.608 488.108C314.336 490.916 312.728 493.496 310.784 495.848C308.84 498.176 306.488 500.144 303.728 501.752C303.512 501.416 303.248 501.032 302.936 500.6C302.624 500.168 302.3 499.748 301.964 499.34C301.628 498.932 301.316 498.596 301.028 498.332C303.572 496.94 305.72 495.2 307.472 493.112C309.248 491 310.688 488.684 311.792 486.164C312.896 483.644 313.736 481.1 314.312 478.532ZM341.96 477.056H373.676V480.908H341.96V477.056ZM355.82 478.676H360.356V493.22C360.356 494.684 360.212 496.088 359.924 497.432C359.636 498.776 359.132 500.048 358.412 501.248C357.716 502.448 356.744 503.552 355.496 504.56C354.272 505.568 352.7 506.468 350.78 507.26C348.86 508.052 346.544 508.724 343.832 509.276C343.664 508.94 343.424 508.532 343.112 508.052C342.824 507.572 342.512 507.092 342.176 506.612C341.84 506.156 341.516 505.76 341.204 505.424C343.796 505.04 345.968 504.548 347.72 503.948C349.472 503.348 350.888 502.676 351.968 501.932C353.048 501.164 353.864 500.324 354.416 499.412C354.968 498.5 355.34 497.528 355.532 496.496C355.724 495.44 355.82 494.336 355.82 493.184V478.676ZM349.196 492.068V494.408H367.124V492.068H349.196ZM349.196 486.488V488.828H367.124V486.488H349.196ZM345.092 482.996H371.408V497.9H345.092V482.996ZM349.376 497.72C350.648 499.328 352.124 500.6 353.804 501.536C355.508 502.472 357.416 503.168 359.528 503.624C361.664 504.056 364.028 504.332 366.62 504.452C369.236 504.548 372.08 504.596 375.152 504.596C374.768 505.076 374.396 505.724 374.036 506.54C373.676 507.356 373.436 508.124 373.316 508.844C370.148 508.796 367.184 508.64 364.424 508.376C361.664 508.136 359.12 507.68 356.792 507.008C354.464 506.36 352.364 505.412 350.492 504.164C348.62 502.916 347 501.272 345.632 499.232L349.376 497.72ZM388.076 484.364L390.956 481.952C391.7 482.288 392.48 482.684 393.296 483.14C394.112 483.596 394.88 484.064 395.6 484.544C396.344 485.024 396.944 485.48 397.4 485.912L394.376 488.576C393.944 488.144 393.368 487.676 392.648 487.172C391.928 486.668 391.172 486.164 390.38 485.66C389.588 485.156 388.82 484.724 388.076 484.364ZM404.312 478.136H405.104L405.824 477.92L408.596 479.576C407.444 481.736 405.968 483.668 404.168 485.372C402.368 487.052 400.34 488.516 398.084 489.764C395.852 491.012 393.476 492.08 390.956 492.968C388.436 493.832 385.88 494.528 383.288 495.056C383.096 494.504 382.808 493.868 382.424 493.148C382.064 492.404 381.692 491.804 381.308 491.348C383.732 490.964 386.12 490.412 388.472 489.692C390.824 488.948 393.032 488.048 395.096 486.992C397.16 485.936 398.984 484.724 400.568 483.356C402.152 481.964 403.4 480.428 404.312 478.748V478.136ZM392.9 478.136H405.284V481.664H392.9V478.136ZM394.916 475.292L399.632 476.3C397.784 478.388 395.624 480.284 393.152 481.988C390.704 483.692 387.812 485.216 384.476 486.56C384.26 486.224 383.984 485.852 383.648 485.444C383.336 485.036 382.988 484.64 382.604 484.256C382.244 483.872 381.908 483.572 381.596 483.356C383.708 482.684 385.616 481.904 387.32 481.016C389.024 480.128 390.512 479.204 391.784 478.244C393.056 477.26 394.1 476.276 394.916 475.292ZM392.972 498.008L396.104 495.56C396.848 495.968 397.628 496.424 398.444 496.928C399.26 497.432 400.04 497.96 400.784 498.512C401.528 499.04 402.128 499.532 402.584 499.988L399.236 502.652C398.828 502.196 398.264 501.692 397.544 501.14C396.848 500.588 396.092 500.036 395.276 499.484C394.484 498.932 393.716 498.44 392.972 498.008ZM408.848 491.24H409.712L410.468 491.06L413.312 492.536C412.208 495.224 410.756 497.528 408.956 499.448C407.18 501.368 405.104 502.976 402.728 504.272C400.376 505.568 397.796 506.612 394.988 507.404C392.204 508.196 389.264 508.808 386.168 509.24C386 508.664 385.736 507.992 385.376 507.224C385.016 506.456 384.656 505.82 384.296 505.316C387.152 505.028 389.876 504.56 392.468 503.912C395.06 503.264 397.436 502.412 399.596 501.356C401.756 500.276 403.616 498.956 405.176 497.396C406.76 495.812 407.984 493.964 408.848 491.852V491.24ZM398.228 491.24H410V494.84H398.228V491.24ZM400.748 487.748L405.464 488.828C403.472 491.204 401.048 493.352 398.192 495.272C395.36 497.168 391.94 498.836 387.932 500.276C387.788 499.916 387.56 499.532 387.248 499.124C386.936 498.692 386.612 498.272 386.276 497.864C385.94 497.456 385.616 497.132 385.304 496.892C387.824 496.124 390.068 495.26 392.036 494.3C394.028 493.316 395.744 492.272 397.184 491.168C398.648 490.04 399.836 488.9 400.748 487.748ZM427.352 486.128H436.424V490.34H427.352V486.128ZM424.724 475.832H429.224V505.028L424.724 506.072V475.832ZM420.188 503.984C421.628 503.744 423.26 503.456 425.084 503.12C426.908 502.76 428.828 502.376 430.844 501.968C432.86 501.536 434.852 501.116 436.82 500.708L437.216 504.92C435.416 505.328 433.58 505.748 431.708 506.18C429.836 506.612 428.024 507.008 426.272 507.368C424.52 507.752 422.9 508.112 421.412 508.448L420.188 503.984ZM450.428 483.284L453.416 487.064C452.192 487.712 450.896 488.348 449.528 488.972C448.16 489.572 446.768 490.148 445.352 490.7C443.96 491.252 442.604 491.768 441.284 492.248C441.164 491.744 440.96 491.168 440.672 490.52C440.384 489.848 440.096 489.284 439.808 488.828C441.056 488.324 442.316 487.772 443.588 487.172C444.884 486.548 446.12 485.9 447.296 485.228C448.472 484.556 449.516 483.908 450.428 483.284ZM438.476 475.832H442.94V502.112C442.94 503.168 443.024 503.828 443.192 504.092C443.384 504.356 443.816 504.488 444.488 504.488C444.656 504.488 444.908 504.488 445.244 504.488C445.604 504.488 445.988 504.488 446.396 504.488C446.828 504.488 447.224 504.488 447.584 504.488C447.968 504.488 448.244 504.488 448.412 504.488C448.892 504.488 449.24 504.32 449.456 503.984C449.696 503.624 449.864 503 449.96 502.112C450.08 501.224 450.176 499.964 450.248 498.332C450.776 498.692 451.424 499.052 452.192 499.412C452.984 499.772 453.68 500.036 454.28 500.204C454.136 502.244 453.884 503.888 453.524 505.136C453.164 506.384 452.612 507.284 451.868 507.836C451.148 508.412 450.128 508.7 448.808 508.7C448.64 508.7 448.388 508.7 448.052 508.7C447.716 508.7 447.344 508.7 446.936 508.7C446.528 508.7 446.12 508.7 445.712 508.7C445.304 508.7 444.932 508.7 444.596 508.7C444.284 508.7 444.032 508.7 443.84 508.7C442.448 508.7 441.356 508.508 440.564 508.124C439.796 507.74 439.256 507.056 438.944 506.072C438.632 505.112 438.476 503.78 438.476 502.076V475.832ZM474.404 475.364H478.76V479.324H474.404V475.364ZM460.94 477.38H492.368V483.464H488.264V480.62H464.864V483.464H460.94V477.38ZM469.292 481.052H473.252V490.736H469.292V481.052ZM479.912 481.052H483.944V490.736H479.912V481.052ZM464.612 482.204H488.732V484.544H464.612V482.204ZM465.008 485.588H488.48V487.784H465.008V485.588ZM460.724 488.828H492.62V491.78H460.724V488.828ZM470.012 489.692L473.108 490.952C472.268 492.008 471.248 493.004 470.048 493.94C468.872 494.876 467.588 495.716 466.196 496.46C464.804 497.18 463.376 497.768 461.912 498.224C461.648 497.744 461.264 497.204 460.76 496.604C460.28 495.98 459.836 495.476 459.428 495.092C460.796 494.756 462.152 494.324 463.496 493.796C464.84 493.244 466.076 492.62 467.204 491.924C468.356 491.228 469.292 490.484 470.012 489.692ZM483.656 489.44C484.352 490.208 485.24 490.94 486.32 491.636C487.424 492.308 488.624 492.908 489.92 493.436C491.216 493.964 492.536 494.384 493.88 494.696C493.448 495.056 492.968 495.572 492.44 496.244C491.912 496.892 491.504 497.48 491.216 498.008C489.848 497.552 488.492 496.952 487.148 496.208C485.828 495.464 484.604 494.624 483.476 493.688C482.348 492.728 481.376 491.72 480.56 490.664L483.656 489.44ZM470.12 498.152V499.196H483.008V498.152H470.12ZM470.12 501.212V502.364H483.008V501.212H470.12ZM470.12 495.02V496.1H483.008V495.02H470.12ZM466.16 492.896H487.148V504.452H466.16V492.896ZM478.148 505.82L480.884 503.588C482.228 503.924 483.596 504.296 484.988 504.704C486.38 505.088 487.7 505.472 488.948 505.856C490.196 506.24 491.276 506.588 492.188 506.9L488.588 509.24C487.388 508.76 485.852 508.208 483.98 507.584C482.108 506.984 480.164 506.396 478.148 505.82ZM471.812 503.516L475.052 505.748C474.068 506.252 472.892 506.732 471.524 507.188C470.18 507.644 468.764 508.04 467.276 508.376C465.812 508.736 464.396 509.024 463.028 509.24C462.716 508.832 462.32 508.352 461.84 507.8C461.36 507.272 460.916 506.828 460.508 506.468C461.852 506.276 463.244 506.024 464.684 505.712C466.148 505.4 467.504 505.052 468.752 504.668C470.024 504.26 471.044 503.876 471.812 503.516ZM501.044 478.892L502.952 475.94C503.768 476.132 504.644 476.384 505.58 476.696C506.516 476.984 507.428 477.296 508.316 477.632C509.228 477.944 509.984 478.244 510.584 478.532L508.64 481.808C508.064 481.52 507.344 481.196 506.48 480.836C505.616 480.452 504.704 480.092 503.744 479.756C502.784 479.42 501.884 479.132 501.044 478.892ZM499.46 484.976C500.78 484.736 502.364 484.4 504.212 483.968C506.084 483.536 507.968 483.104 509.864 482.672L510.26 486.056C508.7 486.56 507.116 487.04 505.508 487.496C503.924 487.928 502.448 488.336 501.08 488.72L499.46 484.976ZM515.408 477.812H529.232V480.872H512.996L515.408 477.812ZM528.224 477.812H528.836L529.484 477.668L532.328 478.424C531.872 479.384 531.332 480.368 530.708 481.376C530.108 482.384 529.52 483.224 528.944 483.896L525.56 482.852C526.04 482.276 526.532 481.568 527.036 480.728C527.54 479.864 527.936 479.06 528.224 478.316V477.812ZM519.116 479.108H522.968C522.8 480.38 522.512 481.544 522.104 482.6C521.696 483.632 521.096 484.556 520.304 485.372C519.536 486.164 518.492 486.86 517.172 487.46C515.876 488.06 514.208 488.564 512.168 488.972C512 488.516 511.724 487.988 511.34 487.388C510.956 486.764 510.584 486.272 510.224 485.912C511.952 485.624 513.368 485.276 514.472 484.868C515.576 484.46 516.428 483.992 517.028 483.464C517.652 482.912 518.12 482.276 518.432 481.556C518.744 480.836 518.972 480.02 519.116 479.108ZM522.752 480.008C522.896 480.68 523.136 481.328 523.472 481.952C523.832 482.576 524.372 483.152 525.092 483.68C525.812 484.184 526.82 484.64 528.116 485.048C529.412 485.432 531.08 485.744 533.12 485.984C532.712 486.416 532.304 486.98 531.896 487.676C531.488 488.372 531.176 488.996 530.96 489.548C528.728 489.188 526.892 488.684 525.452 488.036C524.036 487.388 522.92 486.656 522.104 485.84C521.312 485.024 520.7 484.148 520.268 483.212C519.86 482.252 519.536 481.304 519.296 480.368L522.752 480.008ZM515.3 475.4L519.116 476.048C518.42 477.464 517.604 478.832 516.668 480.152C515.732 481.448 514.58 482.648 513.212 483.752C512.828 483.368 512.312 482.984 511.664 482.6C511.04 482.216 510.464 481.916 509.936 481.7C511.256 480.788 512.36 479.78 513.248 478.676C514.136 477.548 514.82 476.456 515.3 475.4ZM508.532 495.02V496.532H524.192V495.02H508.532ZM508.532 498.98V500.564H524.192V498.98H508.532ZM508.532 491.024V492.572H524.192V491.024H508.532ZM504.356 488.468H528.548V503.12H504.356V488.468ZM518.216 505.028L521.816 502.976C523.112 503.432 524.42 503.924 525.74 504.452C527.084 504.956 528.356 505.472 529.556 506C530.78 506.504 531.812 506.96 532.652 507.368L527.612 509.312C526.94 508.928 526.1 508.484 525.092 507.98C524.084 507.476 522.992 506.96 521.816 506.432C520.664 505.928 519.464 505.46 518.216 505.028ZM510.26 502.832L514.184 504.632C513.224 505.256 512.096 505.868 510.8 506.468C509.504 507.068 508.172 507.608 506.804 508.088C505.436 508.592 504.14 509.012 502.916 509.348C502.652 509.06 502.328 508.712 501.944 508.304C501.584 507.92 501.2 507.524 500.792 507.116C500.384 506.732 500.024 506.42 499.712 506.18C500.984 505.94 502.268 505.652 503.564 505.316C504.884 504.98 506.12 504.596 507.272 504.164C508.448 503.732 509.444 503.288 510.26 502.832ZM552.956 476.84H566.924V480.944H552.956V476.84ZM552.524 488.936H563.972V492.968H552.524V488.936ZM556.484 479.576H560.588V488.684C560.588 490.388 560.516 492.14 560.372 493.94C560.228 495.74 559.928 497.54 559.472 499.34C559.04 501.14 558.38 502.88 557.492 504.56C556.604 506.216 555.428 507.776 553.964 509.24C553.748 508.928 553.448 508.568 553.064 508.16C552.68 507.776 552.284 507.404 551.876 507.044C551.492 506.684 551.132 506.396 550.796 506.18C552.068 504.908 553.088 503.552 553.856 502.112C554.624 500.672 555.188 499.196 555.548 497.684C555.932 496.148 556.184 494.624 556.304 493.112C556.424 491.576 556.484 490.076 556.484 488.612V479.576ZM564.656 476.84H569.084C569.036 478.88 569 480.968 568.976 483.104C568.952 485.24 568.94 487.328 568.94 489.368C568.964 491.384 569.012 493.292 569.084 495.092C569.156 496.868 569.252 498.452 569.372 499.844C569.516 501.212 569.684 502.316 569.876 503.156C570.068 503.972 570.308 504.416 570.596 504.488C570.692 504.512 570.776 504.284 570.848 503.804C570.92 503.324 570.98 502.7 571.028 501.932C571.1 501.164 571.148 500.372 571.172 499.556C571.388 499.916 571.64 500.336 571.928 500.816C572.216 501.296 572.504 501.74 572.792 502.148C573.08 502.556 573.332 502.868 573.548 503.084C573.356 504.956 573.02 506.372 572.54 507.332C572.084 508.292 571.532 508.88 570.884 509.096C570.236 509.312 569.516 509.252 568.724 508.916C567.86 508.604 567.164 507.776 566.636 506.432C566.108 505.112 565.712 503.42 565.448 501.356C565.184 499.268 564.992 496.916 564.872 494.3C564.776 491.66 564.716 488.852 564.692 485.876C564.668 482.9 564.656 479.888 564.656 476.84ZM540.572 486.452H551.444V489.728H540.572V486.452ZM540.716 476.552H551.372V479.792H540.716V476.552ZM540.572 491.384H551.444V494.624H540.572V491.384ZM538.88 481.376H552.632V484.796H538.88V481.376ZM542.444 496.352H551.516V507.332H542.444V503.912H547.808V499.772H542.444V496.352ZM540.5 496.352H544.136V508.736H540.5V496.352Z" fill="#004B97"/>
<path d="M612.652 490.072C614.304 491.269 614.304 493.731 612.652 494.928L591.512 510.264C589.528 511.702 586.75 510.285 586.75 507.835V477.165C586.75 474.715 589.528 473.298 591.512 474.736L612.652 490.072Z" fill="#004B97"/>
</svg>
