<svg width="89" height="89" viewBox="0 0 89 89" fill="none" xmlns="http://www.w3.org/2000/svg">
<circle cx="44.5" cy="44.5" r="42.5" stroke="url(#paint0_linear_914_37)" stroke-width="4"/>
<path d="M34.7748 44.6878C34.7334 44.6445 34.6618 44.6475 34.6221 44.6935C33.7904 45.6582 33.1818 46.0074 31.7768 45.9563C31.7621 45.9557 31.7471 45.9519 31.7341 45.9453C21.4642 40.7543 15.4331 39.2756 12.4833 43.5253C12.4763 43.5353 12.4712 43.5464 12.4684 43.5581C9.68181 55.082 18.9655 76.417 35.4122 68.0752C35.4194 68.0716 35.4267 68.0668 35.4328 68.0616C39.5825 64.5369 41.2536 61.3366 42.9697 53.31C42.9764 53.2787 42.9674 53.2456 42.9453 53.2225L34.7748 44.6878Z" stroke="url(#paint1_linear_914_37)" stroke-width="4"/>
<path d="M49.9628 37.345C50.0231 37.3503 50.0736 37.3019 50.0712 37.242C50.0212 35.9873 50.2318 35.3345 51.3117 34.4645C51.3229 34.4555 51.3365 34.4488 51.3504 34.4453C62.5788 31.667 68.0858 28.8687 67.3356 23.8039C67.3338 23.7918 67.3298 23.78 67.3237 23.7692C61.4139 13.4032 39.7385 3.54505 33.2911 20.3734C33.2883 20.3808 33.2862 20.3891 33.2852 20.3971C32.6419 25.6984 33.6161 29.157 37.8991 36.2317C37.9159 36.2595 37.9455 36.2784 37.9778 36.2812L49.9628 37.345Z" stroke="url(#paint2_linear_914_37)" stroke-width="4"/>
<path d="M48.4477 53.0834C48.4264 53.141 48.4618 53.204 48.522 53.2166C49.7918 53.4815 50.394 53.8407 50.9978 55.066C51.0045 55.0797 51.0081 55.0954 51.0081 55.1106C51.0039 66.3072 52.4418 72.1547 57.708 72.7102C57.7195 72.7114 57.7311 72.7107 57.7423 72.7079C69.6058 69.7555 84.8797 51.9226 69.6061 41.7075C69.5996 41.7032 69.5923 41.6994 69.585 41.6967C64.4284 39.7769 60.7181 39.829 52.5581 42.0789C52.5271 42.0874 52.5012 42.1107 52.49 42.1409L48.4477 53.0834Z" stroke="url(#paint3_linear_914_37)" stroke-width="4"/>
<path d="M44.4998 35.2527C49.6915 35.2527 53.7466 39.2566 53.7469 44.0106C53.7469 48.7647 49.6916 52.7693 44.4998 52.7693C39.3081 52.7693 35.2527 48.7647 35.2527 44.0106C35.253 39.2566 39.3082 35.2528 44.4998 35.2527Z" fill="white" stroke="url(#paint4_linear_914_37)" stroke-width="4"/>
<defs>
<linearGradient id="paint0_linear_914_37" x1="44.5" y1="0" x2="44.5" y2="89" gradientUnits="userSpaceOnUse">
<stop stop-color="#ABDAD5"/>
<stop offset="1" stop-color="#719AC5"/>
</linearGradient>
<linearGradient id="paint1_linear_914_37" x1="40.0315" y1="62.5449" x2="10.945" y2="46.271" gradientUnits="userSpaceOnUse">
<stop stop-color="#AAD9D5"/>
<stop offset="1" stop-color="#84AFCA"/>
</linearGradient>
<linearGradient id="paint2_linear_914_37" x1="33.6877" y1="27.4692" x2="66.2155" y2="19.3235" gradientUnits="userSpaceOnUse">
<stop stop-color="#AAD9D5"/>
<stop offset="1" stop-color="#84AFCA"/>
</linearGradient>
<linearGradient id="paint3_linear_914_37" x1="62.3928" y1="40.3155" x2="61.9602" y2="72.7685" gradientUnits="userSpaceOnUse">
<stop stop-color="#AAD9D5"/>
<stop offset="1" stop-color="#84AFCA"/>
</linearGradient>
<linearGradient id="paint4_linear_914_37" x1="44.5" y1="33.2527" x2="44.5" y2="54.7692" gradientUnits="userSpaceOnUse">
<stop stop-color="#ABDAD5"/>
<stop offset="1" stop-color="#719AC5"/>
</linearGradient>
</defs>
</svg>
