<svg width="40" height="40" viewBox="0 0 40 40" fill="none" xmlns="http://www.w3.org/2000/svg">
<circle cx="20" cy="20" r="20" fill="white"/>
<rect width="32" height="16" transform="translate(4 12)" fill="url(#paint0_linear_779_1064)"/>
<rect x="4" y="12" width="32" height="16" fill="url(#paint1_linear_779_1064)"/>
<rect x="4.25" y="12.25" width="31.5" height="15.5" stroke="#0C6F91" stroke-opacity="0.533654" stroke-width="0.5"/>
<ellipse cx="19.5897" cy="20" rx="7.38462" ry="7.2" fill="white"/>
<path d="M19.5898 13.3C23.4041 13.3001 26.4746 16.3118 26.4746 20.0002C26.4745 23.6885 23.404 26.7003 19.5898 26.7004C15.7756 26.7004 12.7052 23.6885 12.7051 20.0002C12.7051 16.3117 15.7756 13.3 19.5898 13.3Z" stroke="url(#paint2_linear_779_1064)" stroke-opacity="0.6"/>
<path d="M18.824 26.128V24.912C18.3973 24.8907 17.96 24.864 17.512 24.832C17.0747 24.8 16.696 24.7573 16.376 24.704V23.616C16.5147 23.6267 16.6747 23.6427 16.856 23.664C17.048 23.6853 17.2613 23.7013 17.496 23.712C17.7307 23.7227 17.9867 23.7387 18.264 23.76C18.5413 23.7707 18.84 23.776 19.16 23.776C19.7573 23.776 20.2 23.7387 20.488 23.664C20.776 23.5893 20.9627 23.456 21.048 23.264C21.144 23.0613 21.192 22.784 21.192 22.432C21.192 22.048 21.16 21.776 21.096 21.616C21.0427 21.4453 20.9413 21.3333 20.792 21.28C20.6427 21.2267 20.4347 21.1893 20.168 21.168L17.928 20.912C17.4373 20.8373 17.0587 20.7147 16.792 20.544C16.536 20.3627 16.3547 20.112 16.248 19.792C16.152 19.4613 16.104 19.0613 16.104 18.592C16.104 17.952 16.2107 17.4613 16.424 17.12C16.6373 16.7787 16.9413 16.5387 17.336 16.4C17.7413 16.2507 18.2373 16.16 18.824 16.128V14.864H19.848V16.112C20.264 16.1227 20.648 16.144 21 16.176C21.352 16.208 21.6933 16.2613 22.024 16.336V17.424C21.7573 17.3813 21.4693 17.3493 21.16 17.328C20.8507 17.296 20.5467 17.2747 20.248 17.264C19.9493 17.2533 19.6667 17.248 19.4 17.248C19.08 17.248 18.7973 17.2587 18.552 17.28C18.3067 17.2907 18.0987 17.3387 17.928 17.424C17.7573 17.4987 17.624 17.6267 17.528 17.808C17.4427 17.9787 17.4 18.2187 17.4 18.528C17.4 18.8693 17.4213 19.1253 17.464 19.296C17.5173 19.456 17.6187 19.568 17.768 19.632C17.9173 19.6853 18.1307 19.728 18.408 19.76L20.808 20.016C21.224 20.0587 21.5547 20.1493 21.8 20.288C22.0453 20.4267 22.2213 20.6613 22.328 20.992C22.4347 21.3227 22.488 21.792 22.488 22.4C22.488 23.0293 22.4027 23.52 22.232 23.872C22.0613 24.2133 21.784 24.464 21.4 24.624C21.016 24.7733 20.4987 24.864 19.848 24.896V26.128H18.824Z" fill="#FFC857"/>
<defs>
<linearGradient id="paint0_linear_779_1064" x1="16" y1="0" x2="16" y2="16" gradientUnits="userSpaceOnUse">
<stop stop-color="white"/>
<stop offset="1" stop-color="#999999"/>
</linearGradient>
<linearGradient id="paint1_linear_779_1064" x1="20" y1="12" x2="20" y2="28" gradientUnits="userSpaceOnUse">
<stop stop-color="#719AC5"/>
<stop offset="1" stop-color="#93DDC4"/>
</linearGradient>
<linearGradient id="paint2_linear_779_1064" x1="19.5897" y1="12.8" x2="19.5897" y2="27.2" gradientUnits="userSpaceOnUse">
<stop stop-color="#689EBE"/>
<stop offset="1" stop-color="#24B685" stop-opacity="0.8"/>
</linearGradient>
</defs>
</svg>
