<svg width="39" height="20" viewBox="0 0 39 20" fill="none" xmlns="http://www.w3.org/2000/svg">
<rect width="39" height="20" fill="#C8F5F0"/>
<rect x="0.25" y="0.25" width="38.5" height="19.5" stroke="#0C6F91" stroke-opacity="0.533654" stroke-width="0.5"/>
<circle cx="19" cy="10" r="9" fill="white"/>
<circle cx="19" cy="10" r="8.5" stroke="url(#paint0_linear_529_467)" stroke-opacity="0.8"/>
<path d="M18.824 16.128V14.912C18.3973 14.8907 17.96 14.864 17.512 14.832C17.0747 14.8 16.696 14.7573 16.376 14.704V13.616C16.5147 13.6267 16.6747 13.6427 16.856 13.664C17.048 13.6853 17.2613 13.7013 17.496 13.712C17.7307 13.7227 17.9867 13.7387 18.264 13.76C18.5413 13.7707 18.84 13.776 19.16 13.776C19.7573 13.776 20.2 13.7387 20.488 13.664C20.776 13.5893 20.9627 13.456 21.048 13.264C21.144 13.0613 21.192 12.784 21.192 12.432C21.192 12.048 21.16 11.776 21.096 11.616C21.0427 11.4453 20.9413 11.3333 20.792 11.28C20.6427 11.2267 20.4347 11.1893 20.168 11.168L17.928 10.912C17.4373 10.8373 17.0587 10.7147 16.792 10.544C16.536 10.3627 16.3547 10.112 16.248 9.792C16.152 9.46133 16.104 9.06133 16.104 8.592C16.104 7.952 16.2107 7.46133 16.424 7.12C16.6373 6.77867 16.9413 6.53867 17.336 6.4C17.7413 6.25067 18.2373 6.16 18.824 6.128V4.864H19.848V6.112C20.264 6.12267 20.648 6.144 21 6.176C21.352 6.208 21.6933 6.26133 22.024 6.336V7.424C21.7573 7.38133 21.4693 7.34933 21.16 7.328C20.8507 7.296 20.5467 7.27467 20.248 7.264C19.9493 7.25333 19.6667 7.248 19.4 7.248C19.08 7.248 18.7973 7.25867 18.552 7.28C18.3067 7.29067 18.0987 7.33867 17.928 7.424C17.7573 7.49867 17.624 7.62667 17.528 7.808C17.4427 7.97867 17.4 8.21867 17.4 8.528C17.4 8.86933 17.4213 9.12533 17.464 9.296C17.5173 9.456 17.6187 9.568 17.768 9.632C17.9173 9.68533 18.1307 9.728 18.408 9.76L20.808 10.016C21.224 10.0587 21.5547 10.1493 21.8 10.288C22.0453 10.4267 22.2213 10.6613 22.328 10.992C22.4347 11.3227 22.488 11.792 22.488 12.4C22.488 13.0293 22.4027 13.52 22.232 13.872C22.0613 14.2133 21.784 14.464 21.4 14.624C21.016 14.7733 20.4987 14.864 19.848 14.896V16.128H18.824Z" fill="#FFC857"/>
<defs>
<linearGradient id="paint0_linear_529_467" x1="19" y1="1" x2="19" y2="19" gradientUnits="userSpaceOnUse">
<stop stop-color="#004B97" stop-opacity="0.7"/>
<stop offset="1" stop-color="#24B685" stop-opacity="0.8"/>
</linearGradient>
</defs>
</svg>
