<svg width="100" height="101" viewBox="0 0 100 101" fill="none" xmlns="http://www.w3.org/2000/svg">
<rect width="100" height="100" rx="50" fill="white"/>
<path d="M66 24.5C66 27.7174 65.5732 30.9033 64.744 33.8757C63.9148 36.8482 62.6994 39.5491 61.1673 41.8241C59.6351 44.0992 57.8161 45.9038 55.8143 47.135C53.8124 48.3663 51.6668 49 49.5 49C47.3332 49 45.1876 48.3663 43.1857 47.135C41.1839 45.9038 39.3649 44.0992 37.8327 41.8241C36.3006 39.5491 35.0852 36.8482 34.256 33.8757C33.4268 30.9033 33 27.7174 33 24.5L49.5 24.5H66Z" fill="#D9D9D9"/>
<path d="M60 36.5C60 38.0102 59.7155 39.5056 59.1627 40.9009C58.6099 42.2961 57.7996 43.5639 56.7782 44.6317C55.7567 45.6996 54.5441 46.5467 53.2095 47.1246C51.8749 47.7025 50.4445 48 49 48C47.5555 48 46.1251 47.7025 44.7905 47.1246C43.4559 46.5467 42.2433 45.6996 41.2218 44.6317C40.2004 43.5639 39.3901 42.2961 38.8373 40.9009C38.2845 39.5056 38 38.0102 38 36.5L49 36.5H60Z" fill="#B4B4B4"/>
<path d="M66 76.5C66 73.2826 65.5732 70.0967 64.744 67.1243C63.9148 64.1518 62.6994 61.4509 61.1673 59.1759C59.6351 56.9008 57.8161 55.0962 55.8143 53.865C53.8124 52.6337 51.6668 52 49.5 52C47.3332 52 45.1876 52.6337 43.1857 53.865C41.1839 55.0962 39.3649 56.9008 37.8327 59.1759C36.3006 61.4509 35.0852 64.1518 34.256 67.1243C33.4268 70.0967 33 73.2826 33 76.5L49.5 76.5H66Z" fill="#D9D9D9"/>
<path d="M47.5 48H50.5C50.1343 50.6642 50.1446 50.4689 50.5 52.5H47.5C48.0689 50.1508 47.5 48 47.5 48Z" fill="#D9D9D9"/>
<rect opacity="0.44" x="30" y="76" width="40" height="7" rx="3.5" fill="#D9D9D9"/>
<rect opacity="0.44" x="29" y="18" width="40" height="7" rx="3.5" fill="#D9D9D9"/>
<circle cx="49.5" cy="49.5" r="0.5" fill="#B4B4B4"/>
<circle cx="49.5" cy="52.5" r="0.5" fill="#B4B4B4"/>
<circle cx="48.5" cy="51.5" r="0.5" fill="#B4B4B4"/>
<path d="M35 70C36 67.9999 64 70 64 70C64.9861 71.9083 65.1663 73.0077 65 75H34C34.3905 73.0473 34 72 35 70Z" fill="#B4B4B4"/>
</svg>
