<svg width="50" height="54" viewBox="0 0 50 54" fill="none" xmlns="http://www.w3.org/2000/svg">
<path d="M20.1359 49.6174C20.1911 49.6174 20.2359 49.5726 20.2359 49.5174V38.884C20.2359 38.8288 20.1911 38.784 20.1359 38.784H8.39219C8.31921 38.784 8.27081 38.7084 8.3014 38.6421L12.1912 30.2142C12.2154 30.1618 12.2789 30.1407 12.3296 30.1682L15.8677 32.0846C15.9602 32.1347 16.0574 32.0263 15.9975 31.9398L10.2657 23.6605C10.247 23.6335 10.2163 23.6174 10.1835 23.6174H0.630475C0.526718 23.6174 0.491614 23.7559 0.582847 23.8053L4.15343 25.7394C4.19981 25.7645 4.2187 25.8213 4.1966 25.8692L0.259212 34.4002C0.244717 34.4316 0.247482 34.4683 0.266522 34.4972L10.2063 49.5724C10.2248 49.6005 10.2561 49.6174 10.2897 49.6174H20.1359Z" fill="#004B97" stroke="#004B97" stroke-width="0.5"/>
<path d="M8.13263 18.3947C8.10611 18.4432 8.12128 18.5081 8.16651 18.5398L16.3608 24.2826C16.406 24.3143 16.4642 24.3007 16.4907 24.2522L22.4329 13.3945C22.4688 13.3288 22.5569 13.3319 22.595 13.4002L27.1256 21.5441C27.1531 21.5935 27.141 21.6563 27.0982 21.6856L23.8168 23.9282C23.7334 23.9851 23.7822 24.1313 23.8817 24.1225L33.1552 23.3034C33.1844 23.3008 33.2101 23.2834 33.225 23.2562L38.0497 14.4404C38.1007 14.3472 37.9988 14.2358 37.915 14.2931L34.6452 16.5277C34.6009 16.558 34.5408 16.5408 34.5122 16.4895L29.9324 8.25721C29.9131 8.2225 29.8781 8.20194 29.8422 8.20417L13.1898 9.23826C13.1598 9.24012 13.1331 9.25767 13.1179 9.28553L8.13263 18.3947Z" fill="#004B97" stroke="#004B97" stroke-width="0.5"/>
<path d="M39.459 21.9813C39.4331 21.9325 39.3746 21.9175 39.3284 21.9478L31.126 27.3256C31.0798 27.3559 31.0633 27.42 31.0892 27.4688L36.9998 38.597C37.0353 38.6637 36.9905 38.7506 36.918 38.7556L28.4611 39.3402C28.4102 39.3437 28.3675 39.3036 28.3637 39.2488L28.0631 34.9045C28.0556 34.7952 27.9165 34.7785 27.8785 34.8824L24.3717 44.4859C24.3609 44.5157 24.3628 44.5485 24.377 44.5753L29.173 53.6049C29.2232 53.6994 29.3599 53.6482 29.3522 53.5377L29.054 49.2265C29.0499 49.1673 29.0927 49.1143 29.1477 49.1105L37.6924 48.5198C37.73 48.5172 37.7637 48.491 37.7786 48.4529L44.4232 31.4111C44.435 31.3808 44.4334 31.3469 44.4188 31.3194L39.459 21.9813Z" fill="#004B97" stroke="#004B97" stroke-width="0.5"/>
</svg>
