<svg width="28" height="21" viewBox="0 0 28 21" fill="none" xmlns="http://www.w3.org/2000/svg">
<path d="M9.95996 1.5C14.6264 1.5001 18.4199 5.29993 18.4199 10C18.4199 14.7001 14.6264 18.4999 9.95996 18.5C5.29344 18.5 1.5 14.7001 1.5 10C1.5 5.29987 5.29344 1.5 9.95996 1.5Z" fill="white" stroke="url(#paint0_linear_83_152)" stroke-width="3"/>
<path d="M25.0194 20.5153C25.7345 20.9338 26.6532 20.6936 27.0714 19.9786C27.4895 19.2637 27.2488 18.3448 26.5337 17.9262L25.7765 19.2208L25.0194 20.5153ZM19.0425 15.2792L18.2853 16.5738L25.0194 20.5153L25.7765 19.2208L26.5337 17.9262L19.7997 13.9847L19.0425 15.2792Z" fill="url(#paint1_linear_83_152)" fill-opacity="0.6"/>
<defs>
<linearGradient id="paint0_linear_83_152" x1="4.5" y1="1.05551e-07" x2="15.5" y2="19.5" gradientUnits="userSpaceOnUse">
<stop stop-color="#24B685" stop-opacity="0.6"/>
<stop offset="1" stop-color="#004B97" stop-opacity="0.7"/>
</linearGradient>
<linearGradient id="paint1_linear_83_152" x1="22.5851" y1="14.5057" x2="22.3598" y2="17.9983" gradientUnits="userSpaceOnUse">
<stop stop-color="#24B685"/>
<stop offset="1" stop-color="#004B97"/>
</linearGradient>
</defs>
</svg>
