<svg width="30" height="30" viewBox="0 0 30 30" fill="none" xmlns="http://www.w3.org/2000/svg">
<path d="M14.7166 0.815217C14.81 0.546549 15.19 0.546548 15.2834 0.815216L18.4582 9.94871C18.4994 10.0672 18.61 10.1476 18.7354 10.1502L28.403 10.3472C28.6873 10.353 28.8048 10.7143 28.5781 10.8862L20.8727 16.728C20.7727 16.8038 20.7305 16.9338 20.7668 17.0539L23.5669 26.3092C23.6492 26.5814 23.3418 26.8048 23.1084 26.6423L15.1714 21.1192C15.0684 21.0476 14.9316 21.0476 14.8286 21.1192L6.89164 26.6423C6.65817 26.8048 6.35078 26.5814 6.43314 26.3092L9.23321 17.0539C9.26954 16.9338 9.2273 16.8038 9.12731 16.728L1.4219 10.8862C1.19524 10.7143 1.31266 10.353 1.59703 10.3472L11.2646 10.1502C11.39 10.1476 11.5006 10.0672 11.5418 9.94871L14.7166 0.815217Z" fill="#B4B4B4"/>
</svg>
