<svg width="153" height="13" viewBox="0 0 153 13" fill="none" xmlns="http://www.w3.org/2000/svg">
<path d="M6.01562 0.953125V11.4805C6.01562 11.5534 5.98828 11.6172 5.93359 11.6719C5.87891 11.7266 5.8151 11.7539 5.74219 11.7539C5.66927 11.7539 5.60547 11.7266 5.55078 11.6719C5.49609 11.6172 5.46875 11.5534 5.46875 11.4805V0.953125H0.820312C0.747396 0.953125 0.683594 0.925781 0.628906 0.871094C0.574219 0.816406 0.546875 0.752604 0.546875 0.679688C0.546875 0.606771 0.574219 0.542969 0.628906 0.488281C0.683594 0.433594 0.747396 0.40625 0.820312 0.40625H10.6367C10.7096 0.40625 10.7734 0.433594 10.8281 0.488281C10.8828 0.542969 10.9102 0.606771 10.9102 0.679688C10.9102 0.752604 10.8828 0.816406 10.8281 0.871094C10.7734 0.925781 10.7096 0.953125 10.6367 0.953125H6.01562ZM19.3047 3.45508C19.2135 1.83268 18.3112 0.998698 16.5977 0.953125H12.5508V5.95703H16.6387C18.3249 5.85677 19.2135 5.02279 19.3047 3.45508ZM12.0039 0.816406C12.0039 0.707031 12.0449 0.611328 12.127 0.529297C12.209 0.447266 12.3047 0.40625 12.4141 0.40625H16.6797C18.694 0.497396 19.7467 1.51367 19.8379 3.45508C19.7559 5.24154 18.8444 6.24414 17.1035 6.46289L20.0156 11.1387C20.0885 11.2389 20.125 11.3255 20.125 11.3984C20.125 11.4896 20.084 11.5671 20.002 11.6309C19.9564 11.6582 19.9108 11.6719 19.8652 11.6719C19.7559 11.6719 19.6419 11.5898 19.5234 11.4258L16.5293 6.57227L16.4883 6.50391H12.5508V11.4805C12.5508 11.5534 12.5234 11.6172 12.4688 11.6719C12.4141 11.7266 12.3503 11.7539 12.2773 11.7539C12.2044 11.7539 12.1406 11.7266 12.0859 11.6719C12.0312 11.6172 12.0039 11.5534 12.0039 11.4805V0.816406ZM21.7793 0.966797V5.25977H26.1406C26.2135 5.25977 26.2773 5.28711 26.332 5.3418C26.3867 5.39648 26.4141 5.46029 26.4141 5.5332C26.4141 5.60612 26.3867 5.66992 26.332 5.72461C26.2773 5.7793 26.2135 5.80664 26.1406 5.80664H21.7793V10.9883H28.4375C28.5104 10.9883 28.5742 11.0156 28.6289 11.0703C28.6836 11.125 28.7109 11.1888 28.7109 11.2617C28.7109 11.3346 28.6836 11.3984 28.6289 11.4531C28.5742 11.5078 28.5104 11.5352 28.4375 11.5352H21.6289C21.556 11.5352 21.4876 11.5169 21.4238 11.4805C21.36 11.444 21.3099 11.3939 21.2734 11.3301C21.237 11.2663 21.2188 11.1979 21.2188 11.125V0.830078C21.2188 0.711589 21.2552 0.615885 21.3281 0.542969C21.4102 0.460938 21.5104 0.419922 21.6289 0.419922H27.918C27.9909 0.419922 28.0547 0.447266 28.1094 0.501953C28.1641 0.556641 28.1914 0.620443 28.1914 0.693359C28.1914 0.766276 28.1641 0.830078 28.1094 0.884766C28.0547 0.939453 27.9909 0.966797 27.918 0.966797H21.7793ZM32.0469 7.66602L30.3242 11.7129C30.2969 11.7767 30.2467 11.8223 30.1738 11.8496C30.1374 11.8587 30.1009 11.8633 30.0645 11.8633C30.0371 11.8633 30.0052 11.8587 29.9688 11.8496C29.9049 11.8223 29.8594 11.7721 29.832 11.6992C29.8138 11.6628 29.8047 11.6263 29.8047 11.5898C29.8047 11.5534 29.8092 11.5215 29.8184 11.4941L34.4531 0.583984C34.4896 0.474609 34.5443 0.40625 34.6172 0.378906C34.6536 0.360677 34.6901 0.351562 34.7266 0.351562C34.763 0.351562 34.7995 0.360677 34.8359 0.378906C34.9089 0.40625 34.9635 0.474609 35 0.583984L39.6348 11.4941C39.6439 11.5215 39.6484 11.5534 39.6484 11.5898C39.6484 11.6263 39.6439 11.6628 39.6348 11.6992C39.5983 11.7721 39.5482 11.8223 39.4844 11.8496C39.457 11.8587 39.4251 11.8633 39.3887 11.8633C39.3522 11.8633 39.3158 11.8587 39.2793 11.8496C39.2064 11.8223 39.1562 11.7767 39.1289 11.7129L37.4062 7.66602H32.0469ZM37.1738 7.11914L34.7266 1.34961L32.2793 7.11914H37.1738ZM44.543 6.25781C43.5495 6.25781 42.6973 5.97526 41.9863 5.41016C41.2754 4.84505 40.9199 4.15234 40.9199 3.33203C40.9199 2.51172 41.2754 1.81901 41.9863 1.25391C42.6973 0.688802 43.5495 0.40625 44.543 0.40625C45.5273 0.40625 46.375 0.688802 47.0859 1.25391C47.7786 1.80078 48.1296 2.27018 48.1387 2.66211C48.1751 2.74414 48.1934 2.81706 48.1934 2.88086C48.1934 2.99935 48.125 3.07227 47.9883 3.09961C47.9518 3.10872 47.9199 3.11328 47.8926 3.11328C47.7376 3.11328 47.6419 3.02214 47.6055 2.83984C47.6055 2.52083 47.3092 2.12891 46.7168 1.66406C46.1243 1.1901 45.3997 0.953125 44.543 0.953125C43.6771 0.953125 42.9479 1.1901 42.3555 1.66406C41.763 2.12891 41.4668 2.6849 41.4668 3.33203C41.4668 3.97917 41.763 4.53971 42.3555 5.01367C42.9479 5.47852 43.6771 5.71094 44.543 5.71094H44.9121C46.0241 5.71094 46.9857 6.0026 47.7969 6.58594C48.6081 7.16016 49.0137 7.87565 49.0137 8.73242C49.0137 9.58919 48.6081 10.3092 47.7969 10.8926C46.9857 11.4668 46.0241 11.7539 44.9121 11.7539C43.791 11.7539 42.8249 11.4622 42.0137 10.8789C41.2572 10.3411 40.8424 9.93099 40.7695 9.64844C40.7513 9.59375 40.7422 9.54362 40.7422 9.49805C40.7422 9.36133 40.8105 9.28385 40.9473 9.26562H41.0293C41.166 9.26562 41.2572 9.32487 41.3027 9.44336C41.3574 9.65299 41.7174 9.99479 42.3828 10.4688C43.0664 10.9609 43.9095 11.207 44.9121 11.207C45.9056 11.207 46.7441 10.9609 47.4277 10.4688C48.1204 9.97656 48.4668 9.39779 48.4668 8.73242C48.4668 8.06706 48.1204 7.48828 47.4277 6.99609C46.7441 6.50391 45.9056 6.25781 44.9121 6.25781H44.543ZM58.1055 0.488281V6.96875C58.1055 8.46354 57.7819 9.55273 57.1348 10.2363C56.5059 11.1296 55.4896 11.6081 54.0859 11.6719H54.0176C52.9329 11.6719 51.9759 11.2253 51.1465 10.332C50.4538 9.63932 50.1074 8.51823 50.1074 6.96875V0.488281C50.1074 0.415365 50.1348 0.351562 50.1895 0.296875C50.2441 0.242188 50.3079 0.214844 50.3809 0.214844C50.4538 0.214844 50.5176 0.242188 50.5723 0.296875C50.627 0.351562 50.6543 0.415365 50.6543 0.488281V6.96875C50.6543 8.21745 50.9824 9.24284 51.6387 10.0449C52.3132 10.765 53.1289 11.125 54.0859 11.125C55.043 11.125 55.8815 10.7786 56.6016 10.0859C57.2396 9.32031 57.5586 8.28125 57.5586 6.96875V0.488281C57.5586 0.415365 57.5859 0.351562 57.6406 0.296875C57.6953 0.242188 57.7591 0.214844 57.832 0.214844C57.9049 0.214844 57.9688 0.242188 58.0234 0.296875C58.0781 0.351562 58.1055 0.415365 58.1055 0.488281ZM66.5 3.45508C66.4089 1.83268 65.5065 0.998698 63.793 0.953125H59.7461V5.95703H63.834C65.5202 5.85677 66.4089 5.02279 66.5 3.45508ZM59.1992 0.816406C59.1992 0.707031 59.2402 0.611328 59.3223 0.529297C59.4043 0.447266 59.5 0.40625 59.6094 0.40625H63.875C65.8893 0.497396 66.9421 1.51367 67.0332 3.45508C66.9512 5.24154 66.0397 6.24414 64.2988 6.46289L67.2109 11.1387C67.2839 11.2389 67.3203 11.3255 67.3203 11.3984C67.3203 11.4896 67.2793 11.5671 67.1973 11.6309C67.1517 11.6582 67.1061 11.6719 67.0605 11.6719C66.9512 11.6719 66.8372 11.5898 66.7188 11.4258L63.7246 6.57227L63.6836 6.50391H59.7461V11.4805C59.7461 11.5534 59.7188 11.6172 59.6641 11.6719C59.6094 11.7266 59.5456 11.7539 59.4727 11.7539C59.3997 11.7539 59.3359 11.7266 59.2812 11.6719C59.2266 11.6172 59.1992 11.5534 59.1992 11.4805V0.816406ZM68.9746 0.966797V5.25977H73.3359C73.4089 5.25977 73.4727 5.28711 73.5273 5.3418C73.582 5.39648 73.6094 5.46029 73.6094 5.5332C73.6094 5.60612 73.582 5.66992 73.5273 5.72461C73.4727 5.7793 73.4089 5.80664 73.3359 5.80664H68.9746V10.9883H75.6328C75.7057 10.9883 75.7695 11.0156 75.8242 11.0703C75.8789 11.125 75.9062 11.1888 75.9062 11.2617C75.9062 11.3346 75.8789 11.3984 75.8242 11.4531C75.7695 11.5078 75.7057 11.5352 75.6328 11.5352H68.8242C68.7513 11.5352 68.6829 11.5169 68.6191 11.4805C68.5553 11.444 68.5052 11.3939 68.4688 11.3301C68.4323 11.2663 68.4141 11.1979 68.4141 11.125V0.830078C68.4141 0.711589 68.4505 0.615885 68.5234 0.542969C68.6055 0.460938 68.7057 0.419922 68.8242 0.419922H75.1133C75.1862 0.419922 75.25 0.447266 75.3047 0.501953C75.3594 0.556641 75.3867 0.620443 75.3867 0.693359C75.3867 0.766276 75.3594 0.830078 75.3047 0.884766C75.25 0.939453 75.1862 0.966797 75.1133 0.966797H68.9746ZM92.6406 11.4805C92.6406 11.5625 92.6133 11.6309 92.5586 11.6855C92.5039 11.7311 92.4401 11.7539 92.3672 11.7539C92.2943 11.7539 92.2305 11.7311 92.1758 11.6855C92.1211 11.6309 92.0938 11.5625 92.0938 11.4805V6.17578H84.5469V11.4805C84.5469 11.5625 84.5195 11.6309 84.4648 11.6855C84.4102 11.7311 84.3464 11.7539 84.2734 11.7539C84.2005 11.7539 84.1367 11.7311 84.082 11.6855C84.0273 11.6309 84 11.5625 84 11.4805V0.488281C84 0.415365 84.0273 0.351562 84.082 0.296875C84.1367 0.242188 84.2005 0.214844 84.2734 0.214844C84.3464 0.214844 84.4102 0.242188 84.4648 0.296875C84.5195 0.351562 84.5469 0.415365 84.5469 0.488281V5.61523H92.0938V0.488281C92.0938 0.415365 92.1211 0.351562 92.1758 0.296875C92.2305 0.242188 92.2943 0.214844 92.3672 0.214844C92.4401 0.214844 92.5039 0.242188 92.5586 0.296875C92.6133 0.351562 92.6406 0.415365 92.6406 0.488281V11.4805ZM101.732 0.488281V6.96875C101.732 8.46354 101.409 9.55273 100.762 10.2363C100.133 11.1296 99.1165 11.6081 97.7129 11.6719H97.6445C96.5599 11.6719 95.6029 11.2253 94.7734 10.332C94.0807 9.63932 93.7344 8.51823 93.7344 6.96875V0.488281C93.7344 0.415365 93.7617 0.351562 93.8164 0.296875C93.8711 0.242188 93.9349 0.214844 94.0078 0.214844C94.0807 0.214844 94.1445 0.242188 94.1992 0.296875C94.2539 0.351562 94.2812 0.415365 94.2812 0.488281V6.96875C94.2812 8.21745 94.6094 9.24284 95.2656 10.0449C95.9401 10.765 96.7559 11.125 97.7129 11.125C98.6699 11.125 99.5085 10.7786 100.229 10.0859C100.867 9.32031 101.186 8.28125 101.186 6.96875V0.488281C101.186 0.415365 101.213 0.351562 101.268 0.296875C101.322 0.242188 101.386 0.214844 101.459 0.214844C101.532 0.214844 101.596 0.242188 101.65 0.296875C101.705 0.351562 101.732 0.415365 101.732 0.488281ZM103.373 5.71094V11.002H107.174C108.778 10.9199 109.626 10.0586 109.717 8.41797C109.626 6.75911 108.851 5.85677 107.393 5.71094H103.373ZM107.092 5.12305C108.249 5.0319 108.869 4.30729 108.951 2.94922C108.869 1.65495 108.181 0.985026 106.887 0.939453H103.373V5.12305H107.092ZM108.322 5.3418C109.525 5.78841 110.168 6.8138 110.25 8.41797C110.15 10.4141 109.133 11.4668 107.201 11.5762H103.387C103.013 11.5762 102.826 11.3802 102.826 10.9883V0.953125C102.826 0.570312 103.013 0.378906 103.387 0.378906H106.887C108.527 0.433594 109.398 1.29036 109.498 2.94922C109.425 4.10677 109.033 4.9043 108.322 5.3418ZM123.141 6.52734H122.895C122.699 6.52734 122.562 6.62109 122.484 6.80859L122.461 6.96094V7.71094H123.141V6.52734ZM122.461 8.19141V9.36328H123.609C123.805 9.36328 123.938 9.27344 124.008 9.09375L124.031 8.92969V8.625C124.031 8.42188 123.941 8.28516 123.762 8.21484L123.609 8.19141H122.461ZM123.633 11.2969H124.664C124.797 11.2969 124.875 11.3555 124.898 11.4727V11.5078C124.898 11.6562 124.844 11.7422 124.734 11.7656L124.723 11.7773H122.895C122.535 11.7773 122.27 11.6211 122.098 11.3086C122.02 11.1758 121.98 11.0312 121.98 10.875V6.96094C121.98 6.60156 122.137 6.33594 122.449 6.16406C122.59 6.08594 122.738 6.04688 122.895 6.04688L124.523 6.05859C124.664 6.05859 124.746 6.11719 124.77 6.23438V6.26953C124.77 6.40234 124.715 6.48438 124.605 6.51562C124.59 6.52344 124.574 6.52734 124.559 6.52734H123.621V7.71094C123.98 7.71094 124.242 7.86719 124.406 8.17969C124.477 8.3125 124.512 8.45703 124.512 8.61328V8.92969C124.512 9.28906 124.363 9.55859 124.066 9.73828C123.926 9.80859 123.781 9.84375 123.633 9.84375V11.2969ZM123.152 11.2969V9.84375H122.461V10.8633C122.461 11.0664 122.555 11.2031 122.742 11.2734L122.895 11.2969H123.152ZM125.367 2.51953V1.52344C125.367 1.39062 125.43 1.3125 125.555 1.28906H125.59C125.73 1.28906 125.812 1.34766 125.836 1.46484V2.51953H129.105C129.238 2.51953 129.316 2.58203 129.34 2.70703V2.74219C129.34 2.88281 129.285 2.96484 129.176 2.98828L129.164 3H127.137C127.441 3.26562 127.691 3.56641 127.887 3.90234C127.949 4.03516 127.93 4.13672 127.828 4.20703L127.805 4.21875C127.68 4.28906 127.578 4.27734 127.5 4.18359L127.477 4.14844C127.312 3.86719 127.09 3.59766 126.809 3.33984C126.699 3.25391 126.68 3.15625 126.75 3.04688L126.762 3.02344L126.785 3H126.035L126.129 4.37109H129.105C129.238 4.37109 129.316 4.42969 129.34 4.54688V4.59375C129.34 4.73438 129.281 4.81641 129.164 4.83984H126.164C126.32 6.58203 126.574 7.96484 126.926 8.98828C127.23 8.36328 127.48 7.69922 127.676 6.99609C127.715 6.85547 127.793 6.79297 127.91 6.80859C127.918 6.80859 127.922 6.8125 127.922 6.82031H127.945C128.086 6.85938 128.156 6.92969 128.156 7.03125V7.04297L128.145 7.05469V7.08984C127.918 7.94922 127.59 8.78516 127.16 9.59766C127.496 10.3945 127.918 11.0312 128.426 11.5078C128.613 11.6875 128.711 11.6602 128.719 11.4258V11.3906L128.73 9.26953C128.73 9.14453 128.785 9.06641 128.895 9.03516H128.93C129.086 9.03516 129.176 9.09766 129.199 9.22266V11.3906C129.199 12.0078 129.078 12.3164 128.836 12.3164H128.824C128.66 12.3086 128.418 12.1562 128.098 11.8594C127.605 11.4141 127.191 10.8281 126.855 10.1016C126.34 10.9219 125.742 11.625 125.062 12.2109L125.039 12.2227C124.945 12.3164 124.848 12.3242 124.746 12.2461L124.734 12.2227C124.633 12.0898 124.625 11.9766 124.711 11.8828L124.723 11.8711C125.48 11.207 126.117 10.4336 126.633 9.55078C126.172 8.38672 125.859 6.82031 125.695 4.85156V4.83984H121.723C121.52 4.83984 121.383 4.93359 121.312 5.12109L121.289 5.27344C121.25 8.85938 120.848 11.1914 120.082 12.2695L120.07 12.2812C119.977 12.3828 119.879 12.3984 119.777 12.3281L119.754 12.3164C119.637 12.2148 119.613 12.1094 119.684 12L119.695 11.9766C120.102 11.3828 120.402 10.3398 120.598 8.84766H119.777C119.59 10.168 119.191 11.1953 118.582 11.9297C118.465 12.0469 118.359 12.0625 118.266 11.9766L118.254 11.9648C118.145 11.8555 118.129 11.7539 118.207 11.6602L118.219 11.6367C118.758 10.9648 119.113 10.0352 119.285 8.84766H118.863C118.73 8.84766 118.652 8.78906 118.629 8.67188V8.63672C118.629 8.48828 118.684 8.40234 118.793 8.37891L118.84 8.36719H120.645L120.75 7.18359H120.176C119.816 7.18359 119.547 7.02734 119.367 6.71484C119.297 6.57422 119.262 6.42969 119.262 6.28125V4.86328C119.262 4.73047 119.32 4.65234 119.438 4.62891H119.473C119.621 4.62891 119.707 4.68359 119.73 4.79297L119.742 4.80469V6.26953C119.742 6.46484 119.832 6.60156 120.012 6.67969C120.066 6.69531 120.121 6.70312 120.176 6.70312H120.773L120.809 5.27344C120.809 4.91406 120.965 4.64453 121.277 4.46484C121.41 4.39453 121.559 4.35938 121.723 4.35938L125.648 4.37109L125.613 3.76172C125.465 3.74609 125.379 3.6875 125.355 3.58594V3.53906L125.367 3L122.191 2.98828V3.51562C122.191 3.65625 122.129 3.73828 122.004 3.76172H121.969C121.828 3.76172 121.746 3.70703 121.723 3.59766L121.711 3.58594V2.98828H118.5C118.367 2.98828 118.289 2.92969 118.266 2.8125V2.77734C118.266 2.62891 118.324 2.54297 118.441 2.51953H121.711L121.723 1.5C121.723 1.36719 121.777 1.28906 121.887 1.26562H121.922C122.07 1.26562 122.156 1.32031 122.18 1.42969L122.191 1.44141V2.51953H125.367ZM132.949 10.1016V10.4414C132.949 10.6445 133.043 10.7812 133.23 10.8516C133.277 10.8672 133.324 10.875 133.371 10.875H138.234C138.422 10.875 138.555 10.7852 138.633 10.6055C138.648 10.5508 138.656 10.5 138.656 10.4531V10.1016H132.949ZM138.656 9.62109L138.645 9H132.949V9.62109H138.656ZM138.645 8.51953V8.35547C138.645 8.15234 138.551 8.01562 138.363 7.94531L138.211 7.92188H133.371C133.184 7.92188 133.051 8.01562 132.973 8.20312L132.949 8.35547V8.51953H138.645ZM133.875 11.3555L133.793 11.4492C133.105 11.8242 132.016 12.1875 130.523 12.5391C130.391 12.5703 130.297 12.5234 130.242 12.3984V12.3867C130.219 12.2383 130.262 12.1445 130.371 12.1055L130.395 12.0938C131.457 11.8438 132.336 11.5742 133.031 11.2852C132.719 11.1602 132.535 10.9258 132.48 10.582C132.473 10.5352 132.469 10.4922 132.469 10.4531V8.35547C132.469 7.99609 132.625 7.72656 132.938 7.54688C133.078 7.47656 133.223 7.44141 133.371 7.44141H138.199C138.559 7.44141 138.824 7.59766 138.996 7.91016C139.082 8.04297 139.125 8.1875 139.125 8.34375V8.35547L139.137 10.4414C139.145 10.793 138.996 11.0586 138.691 11.2383C138.543 11.3164 138.391 11.3555 138.234 11.3555H137.707C138.379 11.6211 139.211 11.8633 140.203 12.082C140.328 12.1055 140.391 12.1719 140.391 12.2812V12.3281C140.359 12.4609 140.289 12.5312 140.18 12.5391H140.133C138.562 12.1953 137.445 11.8281 136.781 11.4375L136.699 11.3555H133.875ZM138.422 6.45703H139.688C139.883 6.45703 140.02 6.36719 140.098 6.1875L140.121 6.03516V5.8125C140.121 5.67969 140.176 5.60156 140.285 5.57812H140.32C140.461 5.57812 140.547 5.63281 140.578 5.74219L140.59 5.75391V5.78906L140.602 6.03516C140.602 6.38672 140.449 6.64844 140.145 6.82031C140.004 6.89844 139.855 6.9375 139.699 6.9375H136.688C136.328 6.9375 136.059 6.78125 135.879 6.46875C135.809 6.34375 135.773 6.20312 135.773 6.04688V5.78906C135.773 5.65625 135.832 5.57422 135.949 5.54297H135.984C136.133 5.54297 136.219 5.60156 136.242 5.71875L136.254 5.73047V6.03516C136.254 6.23047 136.344 6.36328 136.523 6.43359L136.688 6.45703H137.941V5.35547H135.281C135.148 5.35547 135.066 5.29688 135.035 5.17969V5.14453C135.035 4.99609 135.094 4.91016 135.211 4.88672L135.223 4.875H137.941V4.25391H136.395C136.152 4.48047 135.879 4.66797 135.574 4.81641C135.449 4.87891 135.352 4.85547 135.281 4.74609L135.27 4.72266C135.199 4.56641 135.223 4.45703 135.34 4.39453H135.352C135.82 4.16016 136.152 3.89453 136.348 3.59766C136.41 3.46484 136.508 3.42188 136.641 3.46875H136.652C136.793 3.53125 136.84 3.62891 136.793 3.76172V3.77344L140.309 3.78516C140.441 3.78516 140.523 3.83984 140.555 3.94922V3.98438C140.555 4.13281 140.496 4.21875 140.379 4.24219L140.367 4.25391H138.422V4.875L141.105 4.88672C141.238 4.88672 141.316 4.94141 141.34 5.05078V5.09766C141.34 5.23828 141.285 5.32031 141.176 5.34375L141.164 5.35547H138.422V6.45703ZM135.516 2.26172V1.5C135.516 1.36719 135.578 1.28906 135.703 1.26562H135.738C135.879 1.26562 135.961 1.32031 135.984 1.42969L135.996 1.44141V2.26172H140.145C140.504 2.26172 140.77 2.41797 140.941 2.73047C141.02 2.86328 141.059 3.00781 141.059 3.16406V3.62109C141.059 3.75391 140.996 3.83203 140.871 3.85547H140.836C140.695 3.85547 140.613 3.80078 140.59 3.69141L140.578 3.67969V3.17578C140.578 2.97266 140.484 2.83594 140.297 2.76562L140.145 2.74219H131.625C131.422 2.74219 131.285 2.83203 131.215 3.01172L131.191 3.17578V3.70312L134.895 3.71484C135.035 3.71484 135.117 3.76953 135.141 3.87891V3.91406C135.141 4.07031 135.078 4.16016 134.953 4.18359H132.797V4.875H134.801C134.934 4.875 135.012 4.93359 135.035 5.05078V5.09766C135.035 5.23828 134.98 5.32031 134.871 5.34375L134.859 5.35547H132.797V6.03516L135.199 5.87109C135.332 5.85547 135.414 5.90625 135.445 6.02344V6.05859C135.461 6.20703 135.414 6.29688 135.305 6.32812L135.258 6.33984C133.945 6.44922 132.461 6.53906 130.805 6.60938C130.68 6.61719 130.605 6.5625 130.582 6.44531L130.57 6.43359V6.39844C130.562 6.26562 130.613 6.18359 130.723 6.15234L130.77 6.14062C131.301 6.11719 131.816 6.08984 132.316 6.05859V5.35547H130.734C130.594 5.35547 130.512 5.29688 130.488 5.17969V5.14453C130.488 5.00391 130.547 4.91797 130.664 4.88672C130.68 4.87891 130.695 4.875 130.711 4.875H132.316V4.18359H130.477C130.344 4.18359 130.266 4.12109 130.242 3.99609V3.96094C130.242 3.82031 130.297 3.73828 130.406 3.71484L130.453 3.70312H130.711V3.17578C130.711 2.81641 130.867 2.54688 131.18 2.36719C131.312 2.29688 131.461 2.26172 131.625 2.26172H135.516ZM149.801 9.5625C149.801 9.34375 149.695 9.19922 149.484 9.12891L149.32 9.09375H146.262C146.035 9.09375 145.883 9.19531 145.805 9.39844L145.781 9.5625L145.793 10.2539C145.801 10.4805 145.91 10.6328 146.121 10.7109L146.285 10.7344H149.309C149.535 10.7344 149.684 10.6289 149.754 10.418L149.789 10.2539L149.801 9.5625ZM146.602 6.04688C146.648 6.04688 146.691 6.07422 146.73 6.12891C147.051 6.50391 147.418 6.85156 147.832 7.17188C148.145 6.92969 148.398 6.71484 148.594 6.52734C148.766 6.33203 148.766 6.19141 148.594 6.10547C148.531 6.06641 148.453 6.04688 148.359 6.04688H146.602ZM149.438 8.625C148.859 8.38281 148.324 8.08984 147.832 7.74609L147.809 7.73438C147.277 8.10156 146.789 8.39453 146.344 8.61328H149.32L149.438 8.625ZM147.422 7.45312C147.047 7.15625 146.695 6.82031 146.367 6.44531L146.344 6.42188L146.309 6.33984C145.77 6.88672 145.109 7.35938 144.328 7.75781C144.211 7.8125 144.113 7.77734 144.035 7.65234C143.965 7.49609 143.996 7.38281 144.129 7.3125C145.254 6.75 146.102 6.01953 146.672 5.12109C146.734 5.00391 146.824 4.97266 146.941 5.02734H146.953C147.094 5.10547 147.141 5.20703 147.094 5.33203V5.34375L147.082 5.35547L146.941 5.57812H148.781C149.203 5.57812 149.426 5.70703 149.449 5.96484C149.473 6.13672 149.395 6.32422 149.215 6.52734C148.902 6.84766 148.566 7.14844 148.207 7.42969C149.105 8.01562 150.148 8.44141 151.336 8.70703C151.453 8.73047 151.508 8.80469 151.5 8.92969V8.96484C151.477 9.09766 151.41 9.17188 151.301 9.1875H151.242C150.766 9.07812 150.305 8.94531 149.859 8.78906C150.133 8.96875 150.273 9.22266 150.281 9.55078V9.5625L150.27 10.2539C150.27 10.6133 150.113 10.8828 149.801 11.0625L149.789 11.0859C149.641 11.1719 149.477 11.2148 149.297 11.2148H146.285C145.918 11.2148 145.641 11.0547 145.453 10.7344C145.359 10.5859 145.312 10.4258 145.312 10.2539L145.301 9.5625C145.301 9.35156 145.359 9.16406 145.477 9C145.008 9.19531 144.527 9.36328 144.035 9.50391H144.023C143.898 9.54297 143.816 9.50391 143.777 9.38672L143.766 9.375V9.35156C143.727 9.21094 143.762 9.10938 143.871 9.04688L143.895 9.03516C145.246 8.65234 146.422 8.125 147.422 7.45312ZM146.637 3.08203V2.8125C146.637 2.58594 146.531 2.4375 146.32 2.36719L146.156 2.33203H143.977C143.758 2.33203 143.609 2.4375 143.531 2.64844L143.496 2.8125V3.08203H146.637ZM143.496 3.55078V4.30078H146.156C146.375 4.30078 146.523 4.19531 146.602 3.98438L146.637 3.82031V3.55078H143.496ZM143.496 4.78125V11.8945C143.496 12.0195 143.438 12.0938 143.32 12.1172H143.285C143.145 12.1172 143.059 12.0586 143.027 11.9414L143.016 11.8945V2.8125C143.016 2.45313 143.172 2.17578 143.484 1.98047C143.641 1.89453 143.805 1.85156 143.977 1.85156H146.156C146.516 1.85156 146.789 2.00781 146.977 2.32031C147.07 2.46875 147.117 2.62891 147.117 2.80078V3.82031C147.117 4.17969 146.961 4.45703 146.648 4.65234C146.492 4.73828 146.328 4.78125 146.156 4.78125H143.496ZM152.074 3.08203V2.8125C152.074 2.58594 151.969 2.4375 151.758 2.36719L151.594 2.33203H149.414C149.195 2.33203 149.047 2.4375 148.969 2.64844L148.934 2.8125V3.08203H152.074ZM148.934 3.55078V3.82031C148.934 4.04688 149.039 4.19531 149.25 4.26562L149.414 4.30078H152.074V3.55078H148.934ZM152.074 4.78125H149.414C149.055 4.78125 148.781 4.625 148.594 4.3125C148.5 4.16406 148.453 4.00391 148.453 3.83203V2.8125C148.453 2.45313 148.609 2.17578 148.922 1.98047C149.078 1.89453 149.242 1.85156 149.414 1.85156H151.594C151.953 1.85156 152.227 2.00781 152.414 2.32031C152.508 2.46875 152.555 2.62891 152.555 2.80078V10.7109C152.531 11.7734 152.035 12.3047 151.066 12.3047C150.895 12.3047 150.711 12.2891 150.516 12.2578C150.406 12.2578 150.34 12.2031 150.316 12.0938V12.0234C150.316 11.8906 150.375 11.8125 150.492 11.7891L150.539 11.7773C151.555 11.8711 152.066 11.5234 152.074 10.7344V4.78125Z" fill="url(#paint0_linear_322_6)"/>
<defs>
<linearGradient id="paint0_linear_322_6" x1="0" y1="6" x2="154" y2="6" gradientUnits="userSpaceOnUse">
<stop stop-color="#004B97"/>
<stop offset="1" stop-color="#4D81B7"/>
</linearGradient>
</defs>
</svg>
