<svg width="75" height="49" viewBox="0 0 75 49" fill="none" xmlns="http://www.w3.org/2000/svg">
<path d="M17.225 30.825C17.0083 30.825 16.8167 30.7417 16.65 30.575C16.5 30.425 16.425 30.2417 16.425 30.025V21.125H10.95C10.7333 21.125 10.55 21.0583 10.4 20.925C10.2667 20.775 10.2 20.6 10.2 20.4C10.2 20.1833 10.2667 20.0083 10.4 19.875C10.55 19.725 10.7333 19.65 10.95 19.65H16.425V13.625H13.7C13.3833 14.2917 13.05 14.95 12.7 15.6C12.35 16.2333 11.9917 16.8167 11.625 17.35C11.5083 17.55 11.3333 17.675 11.1 17.725C10.8667 17.775 10.65 17.7417 10.45 17.625C10.2667 17.4917 10.1583 17.325 10.125 17.125C10.0917 16.9083 10.1333 16.7083 10.25 16.525C10.7 15.8583 11.1583 15.075 11.625 14.175C12.1083 13.275 12.55 12.35 12.95 11.4C13.3667 10.4333 13.6917 9.55 13.925 8.75C13.9917 8.51667 14.1167 8.35833 14.3 8.275C14.5 8.175 14.7083 8.15833 14.925 8.225C15.1417 8.29167 15.3 8.41667 15.4 8.6C15.5 8.76667 15.5167 8.95833 15.45 9.175C15.1667 10.125 14.8 11.125 14.35 12.175H22.375C22.575 12.175 22.7417 12.25 22.875 12.4C23.025 12.5333 23.1 12.7 23.1 12.9C23.1 13.1 23.025 13.275 22.875 13.425C22.7417 13.5583 22.575 13.625 22.375 13.625H18.025V19.65H23.3C23.5167 19.65 23.6917 19.725 23.825 19.875C23.975 20.0083 24.05 20.1833 24.05 20.4C24.05 20.6 23.975 20.775 23.825 20.925C23.6917 21.0583 23.5167 21.125 23.3 21.125H18.025V30.025C18.025 30.2417 17.95 30.425 17.8 30.575C17.65 30.7417 17.4583 30.825 17.225 30.825ZM5.825 30.25C4.925 30.25 4.21667 30.1417 3.7 29.925C3.18333 29.7083 2.81667 29.3417 2.6 28.825C2.4 28.3083 2.3 27.6083 2.3 26.725C2.3 25.4083 2.55 24.4917 3.05 23.975C3.55 23.4583 4.475 23.2 5.825 23.2C7.175 23.2 8.1 23.4583 8.6 23.975C9.11667 24.4917 9.375 25.4083 9.375 26.725C9.375 27.6083 9.26667 28.3083 9.05 28.825C8.83333 29.3417 8.46667 29.7083 7.95 29.925C7.43333 30.1417 6.725 30.25 5.825 30.25ZM5.825 28.9C6.65833 28.9 7.20833 28.7583 7.475 28.475C7.74167 28.175 7.875 27.5917 7.875 26.725C7.875 25.8917 7.74167 25.325 7.475 25.025C7.20833 24.7083 6.65833 24.55 5.825 24.55C5.00833 24.55 4.45833 24.7083 4.175 25.025C3.90833 25.325 3.775 25.8917 3.775 26.725C3.775 27.5917 3.90833 28.175 4.175 28.475C4.45833 28.7583 5.00833 28.9 5.825 28.9ZM1.625 14.475C1.44167 14.475 1.275 14.4083 1.125 14.275C0.991667 14.125 0.925 13.9583 0.925 13.775C0.925 13.575 0.991667 13.4083 1.125 13.275C1.275 13.125 1.44167 13.05 1.625 13.05H9.75C9.93333 13.05 10.0917 13.125 10.225 13.275C10.3583 13.4083 10.425 13.575 10.425 13.775C10.425 13.9583 10.3583 14.125 10.225 14.275C10.0917 14.4083 9.93333 14.475 9.75 14.475H1.625ZM2.825 21.3C2.64167 21.3 2.48333 21.2333 2.35 21.1C2.21667 20.95 2.15 20.775 2.15 20.575C2.15 20.3917 2.21667 20.2333 2.35 20.1C2.48333 19.95 2.64167 19.875 2.825 19.875H8.6C8.8 19.875 8.96667 19.95 9.1 20.1C9.23333 20.2333 9.3 20.3917 9.3 20.575C9.3 20.775 9.23333 20.95 9.1 21.1C8.96667 21.2333 8.8 21.3 8.6 21.3H2.825ZM2.825 17.9C2.64167 17.9 2.48333 17.8333 2.35 17.7C2.21667 17.55 2.15 17.375 2.15 17.175C2.15 16.9917 2.21667 16.8333 2.35 16.7C2.48333 16.55 2.64167 16.475 2.825 16.475H8.6C8.8 16.475 8.96667 16.55 9.1 16.7C9.23333 16.8333 9.3 16.9917 9.3 17.175C9.3 17.375 9.23333 17.55 9.1 17.7C8.96667 17.8333 8.8 17.9 8.6 17.9H2.825ZM2.825 11.075C2.64167 11.075 2.48333 11.0083 2.35 10.875C2.21667 10.725 2.15 10.5583 2.15 10.375C2.15 10.175 2.21667 10.0083 2.35 9.875C2.48333 9.725 2.64167 9.65 2.825 9.65H8.6C8.8 9.65 8.96667 9.725 9.1 9.875C9.23333 10.0083 9.3 10.175 9.3 10.375C9.3 10.5583 9.23333 10.725 9.1 10.875C8.96667 11.0083 8.8 11.075 8.6 11.075H2.825ZM42.6 25.625C41.2667 25.625 40.3417 25.4167 39.825 25C39.3083 24.5667 39.05 23.7667 39.05 22.6V16.075C39.05 15.075 39.2417 14.35 39.625 13.9C40.025 13.4333 40.7083 13.1583 41.675 13.075C41.8083 12.7083 41.9583 12.275 42.125 11.775C42.2917 11.2583 42.425 10.8167 42.525 10.45H38.625C38.425 10.45 38.2583 10.3833 38.125 10.25C37.9917 10.1167 37.925 9.95833 37.925 9.775C37.925 9.575 37.9917 9.40833 38.125 9.275C38.2583 9.14167 38.425 9.075 38.625 9.075H48.6C48.8 9.075 48.9583 9.14167 49.075 9.275C49.2083 9.40833 49.275 9.575 49.275 9.775C49.275 9.95833 49.2083 10.1167 49.075 10.25C48.9583 10.3833 48.8 10.45 48.6 10.45H44.15C44.0333 10.8167 43.8917 11.25 43.725 11.75C43.5583 12.25 43.4083 12.6833 43.275 13.05H43.975C45.3083 13.05 46.225 13.2667 46.725 13.7C47.2417 14.1333 47.5 14.925 47.5 16.075V22.6C47.5 23.7667 47.2417 24.5667 46.725 25C46.225 25.4167 45.3083 25.625 43.975 25.625H42.6ZM31.575 30.85C31.3917 30.85 31.225 30.7833 31.075 30.65C30.925 30.5167 30.85 30.3583 30.85 30.175C30.8333 29.975 30.8833 29.8083 31 29.675C31.1333 29.5417 31.3 29.4667 31.5 29.45C32.1833 29.4 32.6167 29.2917 32.8 29.125C32.9833 28.9583 33.075 28.5917 33.075 28.025V21.95C31.9083 21.8833 31.1083 21.6333 30.675 21.2C30.2583 20.7667 30.05 20 30.05 18.9V16.225C30.05 15.2417 30.2167 14.525 30.55 14.075C30.8833 13.625 31.4833 13.3417 32.35 13.225C32.4833 12.8417 32.6333 12.375 32.8 11.825C32.9833 11.275 33.1333 10.8167 33.25 10.45H30.8C30.0333 10.45 29.4833 10.6 29.15 10.9C28.8167 11.2 28.65 11.7167 28.65 12.45V17.925C28.65 19.7417 28.6 21.35 28.5 22.75C28.4 24.1333 28.2417 25.375 28.025 26.475C27.825 27.5583 27.5583 28.5667 27.225 29.5C27.1583 29.7 27.0333 29.8417 26.85 29.925C26.6833 30.025 26.5 30.05 26.3 30C26.1 29.9333 25.9583 29.8083 25.875 29.625C25.7917 29.4417 25.7833 29.2583 25.85 29.075C26.3333 27.725 26.6833 26.1667 26.9 24.4C27.1167 22.6167 27.225 20.4583 27.225 17.925V12.375C27.225 11.2083 27.5 10.3667 28.05 9.85C28.6167 9.33333 29.5083 9.075 30.725 9.075H37.1C37.3 9.075 37.4583 9.14167 37.575 9.275C37.7083 9.40833 37.775 9.575 37.775 9.775C37.775 9.95833 37.7083 10.1167 37.575 10.25C37.4583 10.3833 37.3 10.45 37.1 10.45H34.875C34.7583 10.8333 34.6083 11.2917 34.425 11.825C34.2417 12.3417 34.0833 12.7917 33.95 13.175C34.8333 13.175 35.5167 13.275 36 13.475C36.5 13.6583 36.85 13.9667 37.05 14.4C37.25 14.8333 37.35 15.4417 37.35 16.225V18.9C37.35 19.9667 37.1417 20.725 36.725 21.175C36.325 21.625 35.5583 21.8833 34.425 21.95V28.175C34.425 29.125 34.225 29.8 33.825 30.2C33.425 30.6167 32.675 30.8333 31.575 30.85ZM40.525 20.475H46.025V18.1H40.525V20.475ZM42.775 24.275H43.8C44.6833 24.275 45.275 24.1667 45.575 23.95C45.875 23.7167 46.025 23.2167 46.025 22.45V21.775H40.525V22.45C40.525 23.2167 40.675 23.7167 40.975 23.95C41.275 24.1667 41.875 24.275 42.775 24.275ZM40.525 16.8H46.025V16.225C46.025 15.4583 45.875 14.9667 45.575 14.75C45.275 14.5333 44.6833 14.425 43.8 14.425H42.775C41.875 14.425 41.275 14.5333 40.975 14.75C40.675 14.9667 40.525 15.4583 40.525 16.225V16.8ZM33.7 20.7C34.3333 20.7 34.8083 20.6583 35.125 20.575C35.4583 20.475 35.6833 20.2917 35.8 20.025C35.9167 19.7417 35.975 19.3417 35.975 18.825V18.1H31.45V18.825C31.45 19.3417 31.5083 19.7417 31.625 20.025C31.7417 20.2917 31.9583 20.475 32.275 20.575C32.6083 20.6583 33.0833 20.7 33.7 20.7ZM31.45 16.875H35.975V16.275C35.975 15.7417 35.9167 15.3417 35.8 15.075C35.6833 14.8083 35.4583 14.6333 35.125 14.55C34.8083 14.45 34.3333 14.4 33.7 14.4C33.0833 14.4 32.6083 14.45 32.275 14.55C31.9583 14.6333 31.7417 14.8083 31.625 15.075C31.5083 15.3417 31.45 15.7417 31.45 16.275V16.875ZM38.025 30.675C37.825 30.7917 37.6167 30.8417 37.4 30.825C37.1833 30.825 37.0083 30.725 36.875 30.525C36.7583 30.375 36.7167 30.2 36.75 30C36.8 29.8 36.9167 29.65 37.1 29.55C37.5333 29.2833 38 28.9667 38.5 28.6C39 28.2333 39.4833 27.8583 39.95 27.475C40.4333 27.075 40.8333 26.7083 41.15 26.375C41.2833 26.2417 41.4583 26.1667 41.675 26.15C41.9083 26.1167 42.0833 26.1667 42.2 26.3C42.3333 26.4333 42.4083 26.5917 42.425 26.775C42.4417 26.9583 42.3833 27.125 42.25 27.275C41.9 27.6583 41.475 28.0667 40.975 28.5C40.4917 28.9167 39.9917 29.3167 39.475 29.7C38.9583 30.0833 38.475 30.4083 38.025 30.675ZM48.375 30.65C47.9417 30.3667 47.4667 30.0333 46.95 29.65C46.45 29.2833 45.9583 28.8917 45.475 28.475C44.9917 28.0417 44.5667 27.6333 44.2 27.25C44.0667 27.1167 44 26.9583 44 26.775C44.0167 26.575 44.0917 26.4083 44.225 26.275C44.3583 26.1417 44.5333 26.0917 44.75 26.125C44.9833 26.1417 45.1583 26.2167 45.275 26.35C45.6083 26.6833 46 27.05 46.45 27.45C46.9167 27.8333 47.4 28.2 47.9 28.55C48.4 28.9 48.8667 29.2083 49.3 29.475C49.4833 29.5917 49.5917 29.75 49.625 29.95C49.6583 30.15 49.6167 30.325 49.5 30.475C49.3833 30.675 49.2167 30.7833 49 30.8C48.7833 30.8167 48.575 30.7667 48.375 30.65ZM29.15 28.125C28.9833 28.0417 28.875 27.9167 28.825 27.75C28.775 27.5667 28.8 27.4 28.9 27.25C29.1 26.9333 29.3167 26.5667 29.55 26.15C29.8 25.7167 30.0333 25.2833 30.25 24.85C30.4667 24.4 30.6333 24.0083 30.75 23.675C30.8167 23.4917 30.9333 23.3583 31.1 23.275C31.2667 23.1917 31.4333 23.175 31.6 23.225C31.7833 23.275 31.9167 23.3833 32 23.55C32.0833 23.7 32.0917 23.8667 32.025 24.05C31.9083 24.4167 31.7333 24.8333 31.5 25.3C31.2833 25.7667 31.05 26.225 30.8 26.675C30.55 27.1083 30.3167 27.5 30.1 27.85C29.9833 28.0167 29.8333 28.125 29.65 28.175C29.4833 28.225 29.3167 28.2083 29.15 28.125ZM38.175 27.675C38.0083 27.775 37.8333 27.8 37.65 27.75C37.4833 27.7 37.3417 27.5917 37.225 27.425C37.0417 27.1083 36.825 26.7417 36.575 26.325C36.3417 25.9083 36.1083 25.4833 35.875 25.05C35.6583 24.6167 35.475 24.2333 35.325 23.9C35.2583 23.7167 35.2583 23.55 35.325 23.4C35.4083 23.2333 35.5333 23.1167 35.7 23.05C35.8667 22.9833 36.025 22.9833 36.175 23.05C36.325 23.1167 36.4333 23.2417 36.5 23.425C36.6333 23.7417 36.8167 24.1083 37.05 24.525C37.2833 24.925 37.5167 25.325 37.75 25.725C38 26.125 38.2167 26.475 38.4 26.775C38.5167 26.9417 38.55 27.1167 38.5 27.3C38.45 27.4667 38.3417 27.5917 38.175 27.675ZM66.625 30.35C65.325 30.35 64.2417 30.2917 63.375 30.175C62.5083 30.0583 61.825 29.8417 61.325 29.525C60.8417 29.2083 60.4917 28.7583 60.275 28.175C60.075 27.5917 59.975 26.8417 59.975 25.925V19.525L57.9 20.3C57.7 20.3667 57.5 20.3667 57.3 20.3C57.1167 20.2167 56.9833 20.0667 56.9 19.85C56.8333 19.65 56.8417 19.4583 56.925 19.275C57.0083 19.075 57.15 18.9417 57.35 18.875L59.975 17.9V11.075C59.975 10.8417 60.05 10.65 60.2 10.5C60.3667 10.35 60.5583 10.275 60.775 10.275C61.0083 10.275 61.2 10.35 61.35 10.5C61.5 10.65 61.575 10.8417 61.575 11.075V17.325L65.025 16.05V9.025C65.025 8.79167 65.1 8.6 65.25 8.45C65.4 8.3 65.5833 8.225 65.8 8.225C66.0333 8.225 66.225 8.3 66.375 8.45C66.525 8.6 66.6 8.79167 66.6 9.025V15.475L67.525 15.125C68.975 14.5917 70.0917 14.5333 70.875 14.95C71.6583 15.35 72.05 16.3333 72.05 17.9V21.225C72.05 22.4583 71.8 23.325 71.3 23.825C70.8 24.325 69.95 24.5917 68.75 24.625C68.5333 24.625 68.3417 24.5583 68.175 24.425C68.0083 24.2917 67.9167 24.1 67.9 23.85C67.8833 23.6167 67.95 23.425 68.1 23.275C68.25 23.125 68.4333 23.0417 68.65 23.025C69.1667 22.9917 69.55 22.925 69.8 22.825C70.0667 22.725 70.25 22.55 70.35 22.3C70.45 22.0333 70.5 21.6417 70.5 21.125V18.025C70.5 17.1917 70.3083 16.6583 69.925 16.425C69.5583 16.175 68.9083 16.225 67.975 16.575L66.6 17.075V25.15C66.6 25.3833 66.525 25.575 66.375 25.725C66.225 25.875 66.0333 25.95 65.8 25.95C65.5833 25.95 65.4 25.875 65.25 25.725C65.1 25.575 65.025 25.3833 65.025 25.15V17.675L61.575 18.95V25.825C61.575 26.475 61.6417 27 61.775 27.4C61.9083 27.7833 62.15 28.0833 62.5 28.3C62.85 28.5 63.3583 28.6333 64.025 28.7C64.6917 28.7667 65.5583 28.8 66.625 28.8C68.0583 28.8 69.15 28.7167 69.9 28.55C70.6667 28.3667 71.2083 28.0667 71.525 27.65C71.8417 27.2167 72.0667 26.625 72.2 25.875C72.25 25.6417 72.3833 25.4667 72.6 25.35C72.8167 25.2167 73.0417 25.1833 73.275 25.25C73.525 25.3167 73.6917 25.45 73.775 25.65C73.875 25.85 73.9 26.0667 73.85 26.3C73.6667 27.3333 73.3417 28.15 72.875 28.75C72.4083 29.3333 71.6833 29.7417 70.7 29.975C69.7167 30.225 68.3583 30.35 66.625 30.35ZM51.875 29.925C51.6583 29.7917 51.5333 29.6083 51.5 29.375C51.4833 29.1583 51.5417 28.9583 51.675 28.775C51.975 28.3417 52.3167 27.825 52.7 27.225C53.0833 26.6083 53.4667 25.9583 53.85 25.275C54.25 24.5917 54.6167 23.9333 54.95 23.3C55.3 22.65 55.5833 22.0833 55.8 21.6C55.8833 21.4 56.025 21.2667 56.225 21.2C56.4417 21.1333 56.65 21.15 56.85 21.25C57.2667 21.5 57.375 21.85 57.175 22.3C56.9417 22.8 56.65 23.3833 56.3 24.05C55.95 24.7 55.575 25.375 55.175 26.075C54.7917 26.775 54.4083 27.4417 54.025 28.075C53.6583 28.6917 53.325 29.225 53.025 29.675C52.9083 29.8583 52.7333 29.975 52.5 30.025C52.2833 30.075 52.075 30.0417 51.875 29.925ZM56.225 12.85C55.925 12.6167 55.5667 12.3583 55.15 12.075C54.75 11.7917 54.3417 11.5167 53.925 11.25C53.525 10.9667 53.1667 10.7417 52.85 10.575C52.6833 10.475 52.5667 10.3333 52.5 10.15C52.4333 9.95 52.4583 9.75833 52.575 9.575C52.675 9.39167 52.825 9.275 53.025 9.225C53.225 9.15833 53.4167 9.175 53.6 9.275C53.95 9.44167 54.35 9.66667 54.8 9.95C55.25 10.2333 55.6833 10.525 56.1 10.825C56.5333 11.1083 56.8833 11.3583 57.15 11.575C57.3333 11.7083 57.4417 11.8833 57.475 12.1C57.5083 12.3167 57.4583 12.5167 57.325 12.7C57.1917 12.8667 57.0167 12.9667 56.8 13C56.5833 13.0333 56.3917 12.9833 56.225 12.85ZM54.975 18.375C54.6917 18.1583 54.3417 17.9083 53.925 17.625C53.525 17.325 53.1167 17.0417 52.7 16.775C52.2833 16.4917 51.9167 16.2583 51.6 16.075C51.4333 15.975 51.3167 15.8333 51.25 15.65C51.2 15.4667 51.225 15.2833 51.325 15.1C51.425 14.9167 51.575 14.8 51.775 14.75C51.975 14.6833 52.175 14.7 52.375 14.8C52.7083 14.9833 53.0917 15.2083 53.525 15.475C53.975 15.7417 54.4083 16.025 54.825 16.325C55.2583 16.6083 55.6167 16.8667 55.9 17.1C56.0833 17.2333 56.1917 17.4083 56.225 17.625C56.2583 17.825 56.2083 18.0167 56.075 18.2C55.9417 18.3667 55.7667 18.4667 55.55 18.5C55.35 18.5333 55.1583 18.4917 54.975 18.375Z" fill="#004B97"/>
<path d="M4.964 45C4.72133 45 4.574 44.8743 4.522 44.623L2.494 36.368C2.45933 36.2207 2.468 36.108 2.52 36.03C2.58067 35.9433 2.67167 35.9 2.793 35.9C3.06167 35.9 3.222 36.0257 3.274 36.277L5.016 43.544L7.07 36.264C7.13067 36.0213 7.26933 35.9 7.486 35.9C7.70267 35.9 7.84133 36.0213 7.902 36.264L9.956 43.544L11.685 36.277C11.737 36.0257 11.893 35.9 12.153 35.9C12.2917 35.9 12.3913 35.9433 12.452 36.03C12.5127 36.108 12.5257 36.2207 12.491 36.368L10.45 44.623C10.398 44.8743 10.2507 45 10.008 45C9.75667 45 9.60067 44.8787 9.54 44.636L7.473 37.369L5.419 44.636C5.35833 44.8787 5.20667 45 4.964 45ZM14.5418 45C14.2818 45 14.1518 44.857 14.1518 44.571V39.202C14.1518 38.916 14.2818 38.773 14.5418 38.773C14.8018 38.773 14.9318 38.916 14.9318 39.202V44.571C14.9318 44.857 14.8018 45 14.5418 45ZM14.5418 37.421C14.3771 37.421 14.2341 37.3647 14.1128 37.252C13.9914 37.1307 13.9308 36.9877 13.9308 36.823C13.9308 36.6497 13.9914 36.5067 14.1128 36.394C14.2341 36.2813 14.3771 36.225 14.5418 36.225C14.7064 36.225 14.8451 36.2813 14.9578 36.394C15.0704 36.5067 15.1268 36.6497 15.1268 36.823C15.1268 36.9877 15.0704 37.1307 14.9578 37.252C14.8451 37.3647 14.7064 37.421 14.5418 37.421ZM19.1985 45.143C18.7218 45.143 18.2842 45.065 17.8855 44.909C17.4955 44.7443 17.1662 44.5147 16.8975 44.22C16.7848 44.1247 16.7328 44.0293 16.7415 43.934C16.7502 43.83 16.7978 43.739 16.8845 43.661C17.0492 43.5223 17.2398 43.5397 17.4565 43.713C17.6558 43.9383 17.9072 44.1117 18.2105 44.233C18.5225 44.3543 18.8605 44.415 19.2245 44.415C19.6492 44.415 20.0088 44.324 20.3035 44.142C20.6068 43.9513 20.7585 43.6567 20.7585 43.258C20.7585 42.9027 20.6155 42.6557 20.3295 42.517C20.0435 42.3783 19.6058 42.2483 19.0165 42.127C18.6525 42.049 18.3058 41.9537 17.9765 41.841C17.6558 41.7283 17.3958 41.5593 17.1965 41.334C16.9972 41.1 16.8975 40.7793 16.8975 40.372C16.8975 39.9993 16.9972 39.683 17.1965 39.423C17.4045 39.163 17.6775 38.9637 18.0155 38.825C18.3535 38.6863 18.7132 38.617 19.0945 38.617C19.9438 38.617 20.5895 38.8813 21.0315 39.41C21.1528 39.4967 21.2135 39.5877 21.2135 39.683C21.2135 39.7783 21.1702 39.865 21.0835 39.943C20.9968 40.0297 20.9058 40.0687 20.8105 40.06C20.7238 40.0427 20.6285 39.995 20.5245 39.917C20.2038 39.5357 19.7315 39.345 19.1075 39.345C18.6568 39.345 18.3102 39.4447 18.0675 39.644C17.8248 39.8347 17.7035 40.073 17.7035 40.359C17.7035 40.6797 17.8335 40.9093 18.0935 41.048C18.3622 41.178 18.7738 41.3037 19.3285 41.425C19.7185 41.5117 20.0825 41.62 20.4205 41.75C20.7672 41.88 21.0445 42.062 21.2525 42.296C21.4605 42.53 21.5645 42.855 21.5645 43.271C21.5645 43.8257 21.3478 44.2763 20.9145 44.623C20.4898 44.9697 19.9178 45.143 19.1985 45.143ZM23.4236 45C23.1549 45 23.0206 44.857 23.0206 44.571V36.043C23.0206 35.757 23.1549 35.614 23.4236 35.614C23.6836 35.614 23.8136 35.757 23.8136 36.043V39.657C23.9956 39.3623 24.2513 39.1153 24.5806 38.916C24.9186 38.7167 25.2999 38.617 25.7246 38.617C26.3919 38.617 26.9293 38.8293 27.3366 39.254C27.7439 39.6787 27.9476 40.2853 27.9476 41.074V44.571C27.9476 44.857 27.8176 45 27.5576 45C27.2976 45 27.1676 44.857 27.1676 44.571V41.191C27.1676 40.5843 27.0203 40.1293 26.7256 39.826C26.4396 39.5227 26.0669 39.371 25.6076 39.371C25.2609 39.371 24.9489 39.449 24.6716 39.605C24.4029 39.7523 24.1906 39.956 24.0346 40.216C23.8873 40.4673 23.8136 40.749 23.8136 41.061V44.571C23.8136 44.857 23.6836 45 23.4236 45ZM30.4998 45C30.2398 45 30.1098 44.857 30.1098 44.571V39.202C30.1098 38.916 30.2398 38.773 30.4998 38.773C30.7598 38.773 30.8898 38.916 30.8898 39.202V44.571C30.8898 44.857 30.7598 45 30.4998 45ZM30.4998 37.421C30.3351 37.421 30.1921 37.3647 30.0708 37.252C29.9494 37.1307 29.8888 36.9877 29.8888 36.823C29.8888 36.6497 29.9494 36.5067 30.0708 36.394C30.1921 36.2813 30.3351 36.225 30.4998 36.225C30.6644 36.225 30.8031 36.2813 30.9158 36.394C31.0284 36.5067 31.0848 36.6497 31.0848 36.823C31.0848 36.9877 31.0284 37.1307 30.9158 37.252C30.8031 37.3647 30.6644 37.421 30.4998 37.421ZM33.4275 45C33.1588 45 33.0245 44.857 33.0245 44.571V39.202C33.0245 38.916 33.1502 38.773 33.4015 38.773C33.6528 38.773 33.7785 38.8683 33.7785 39.059L33.7915 39.657C33.9908 39.3623 34.2552 39.1153 34.5845 38.916C34.9225 38.7167 35.3038 38.617 35.7285 38.617C36.3958 38.617 36.9332 38.8293 37.3405 39.254C37.7478 39.6787 37.9515 40.2853 37.9515 41.074V44.571C37.9515 44.857 37.8215 45 37.5615 45C37.3015 45 37.1715 44.857 37.1715 44.571V41.191C37.1715 40.5843 37.0242 40.1293 36.7295 39.826C36.4435 39.5227 36.0708 39.371 35.6115 39.371C35.2648 39.371 34.9528 39.449 34.6755 39.605C34.4068 39.7523 34.1945 39.956 34.0385 40.216C33.8912 40.4673 33.8175 40.749 33.8175 41.061V44.571C33.8175 44.857 33.6875 45 33.4275 45ZM42.3367 47.808C41.366 47.808 40.586 47.4743 39.9967 46.807C39.806 46.5903 39.8277 46.404 40.0617 46.248C40.2437 46.118 40.4343 46.1527 40.6337 46.352C41.0497 46.82 41.6173 47.054 42.3367 47.054C42.978 47.054 43.4677 46.8417 43.8057 46.417C44.1437 46.001 44.3127 45.3727 44.3127 44.532V43.414C44.096 43.752 43.8143 44.0207 43.4677 44.22C43.121 44.4107 42.7267 44.506 42.2847 44.506C41.756 44.506 41.2837 44.3847 40.8677 44.142C40.4603 43.8993 40.1353 43.557 39.8927 43.115C39.6587 42.673 39.5417 42.153 39.5417 41.555C39.5417 40.957 39.6587 40.4413 39.8927 40.008C40.1353 39.566 40.4603 39.2237 40.8677 38.981C41.2837 38.7383 41.756 38.617 42.2847 38.617C42.7353 38.617 43.1427 38.721 43.5067 38.929C43.8707 39.137 44.161 39.436 44.3777 39.826V39.137C44.3777 38.8943 44.4947 38.773 44.7287 38.773C44.9713 38.773 45.0927 38.916 45.0927 39.202V44.532C45.0927 45.6587 44.837 46.4863 44.3257 47.015C43.823 47.5437 43.16 47.808 42.3367 47.808ZM42.3237 43.778C42.7137 43.778 43.0603 43.687 43.3637 43.505C43.667 43.3143 43.9053 43.0543 44.0787 42.725C44.252 42.387 44.3387 41.997 44.3387 41.555C44.3387 41.113 44.252 40.7273 44.0787 40.398C43.9053 40.0687 43.667 39.813 43.3637 39.631C43.0603 39.4403 42.7137 39.345 42.3237 39.345C41.9423 39.345 41.6 39.4403 41.2967 39.631C41.002 39.813 40.768 40.0687 40.5947 40.398C40.4213 40.7273 40.3347 41.113 40.3347 41.555C40.3347 41.997 40.4213 42.387 40.5947 42.725C40.768 43.0543 41.002 43.3143 41.2967 43.505C41.6 43.687 41.9423 43.778 42.3237 43.778ZM51.204 45C50.9353 45 50.801 44.857 50.801 44.571V36.316C50.801 36.03 50.944 35.887 51.23 35.887H54.766C55.624 35.887 56.274 36.0863 56.716 36.485C57.1667 36.8837 57.392 37.4773 57.392 38.266C57.392 39.0547 57.1667 39.6483 56.716 40.047C56.274 40.4457 55.624 40.645 54.766 40.645H51.594V44.571C51.594 44.857 51.464 45 51.204 45ZM51.594 39.878H54.701C55.325 39.878 55.7887 39.748 56.092 39.488C56.404 39.228 56.56 38.8207 56.56 38.266C56.56 37.7113 56.404 37.304 56.092 37.044C55.7887 36.784 55.325 36.654 54.701 36.654H51.594V39.878ZM60.9755 45.143C60.4208 45.143 59.9268 45.0043 59.4935 44.727C59.0602 44.4497 58.7178 44.0683 58.4665 43.583C58.2152 43.089 58.0895 42.5213 58.0895 41.88C58.0895 41.2387 58.2152 40.6753 58.4665 40.19C58.7178 39.696 59.0602 39.3103 59.4935 39.033C59.9268 38.7557 60.4208 38.617 60.9755 38.617C61.5388 38.617 62.0372 38.7557 62.4705 39.033C62.9038 39.3103 63.2462 39.696 63.4975 40.19C63.7488 40.6753 63.8745 41.2387 63.8745 41.88C63.8745 42.5213 63.7488 43.089 63.4975 43.583C63.2462 44.0683 62.9038 44.4497 62.4705 44.727C62.0372 45.0043 61.5388 45.143 60.9755 45.143ZM60.9755 44.402C61.3828 44.402 61.7425 44.298 62.0545 44.09C62.3752 43.882 62.6265 43.5917 62.8085 43.219C62.9905 42.8377 63.0815 42.3913 63.0815 41.88C63.0815 41.3687 62.9905 40.9267 62.8085 40.554C62.6265 40.1727 62.3752 39.878 62.0545 39.67C61.7425 39.462 61.3828 39.358 60.9755 39.358C60.3688 39.358 59.8662 39.5877 59.4675 40.047C59.0775 40.4977 58.8825 41.1087 58.8825 41.88C58.8825 42.6427 59.0775 43.2537 59.4675 43.713C59.8662 44.1723 60.3688 44.402 60.9755 44.402ZM67.9833 45.143C67.4287 45.143 66.9347 45.0043 66.5013 44.727C66.068 44.4497 65.7257 44.0683 65.4743 43.583C65.223 43.089 65.0973 42.5213 65.0973 41.88C65.0973 41.2387 65.223 40.6753 65.4743 40.19C65.7257 39.696 66.068 39.3103 66.5013 39.033C66.9347 38.7557 67.4287 38.617 67.9833 38.617C68.5467 38.617 69.045 38.7557 69.4783 39.033C69.9117 39.3103 70.254 39.696 70.5053 40.19C70.7567 40.6753 70.8823 41.2387 70.8823 41.88C70.8823 42.5213 70.7567 43.089 70.5053 43.583C70.254 44.0683 69.9117 44.4497 69.4783 44.727C69.045 45.0043 68.5467 45.143 67.9833 45.143ZM67.9833 44.402C68.3907 44.402 68.7503 44.298 69.0623 44.09C69.383 43.882 69.6343 43.5917 69.8163 43.219C69.9983 42.8377 70.0893 42.3913 70.0893 41.88C70.0893 41.3687 69.9983 40.9267 69.8163 40.554C69.6343 40.1727 69.383 39.878 69.0623 39.67C68.7503 39.462 68.3907 39.358 67.9833 39.358C67.3767 39.358 66.874 39.5877 66.4753 40.047C66.0853 40.4977 65.8903 41.1087 65.8903 41.88C65.8903 42.6427 66.0853 43.2537 66.4753 43.713C66.874 44.1723 67.3767 44.402 67.9833 44.402ZM72.8591 45C72.5905 45 72.4561 44.857 72.4561 44.571V36.043C72.4561 35.757 72.5905 35.614 72.8591 35.614C73.1191 35.614 73.2491 35.757 73.2491 36.043V44.571C73.2491 44.857 73.1191 45 72.8591 45Z" fill="#004B97"/>
</svg>
