<svg width="101" height="106" viewBox="0 0 101 106" fill="none" xmlns="http://www.w3.org/2000/svg">
<path d="M54.6242 34.0374C31.726 48.0693 19.2225 56.7593 -9.08449e-06 79.8325C4.98479 83.3983 6.48231 85.4844 7.70156 89.3028C21.3487 68.3792 33.1521 56.0632 54.6242 34.0374Z" fill="#ABDAD5"/>
<path d="M56.1643 33.8818C41.0534 56.0828 33.2244 69.1428 25.1794 98.0764C31.1891 99.2792 33.4115 100.566 36.0919 103.546C39.9372 78.8629 45.638 62.7849 56.1643 33.8818Z" fill="#ABDAD5"/>
<rect x="8.99902" y="40.5674" width="32" height="7" transform="rotate(-20.5138 8.99902 40.5674)" fill="white"/>
<rect x="19.5308" y="43.0332" width="7" height="25" transform="rotate(-20.5138 19.5308 43.0332)" fill="white"/>
<rect x="36.9565" y="61.0703" width="11" height="6" transform="rotate(-20.5138 36.9565 61.0703)" fill="white"/>
<rect x="38.0015" y="72.4243" width="15" height="5" transform="rotate(-20.5138 38.0015 72.4243)" fill="white"/>
<rect x="37.4092" y="82.2554" width="15" height="5" transform="rotate(-20.5138 37.4092 82.2554)" fill="white"/>
<rect x="46.4312" y="69.27" width="7" height="14" transform="rotate(-20.5138 46.4312 69.27)" fill="white"/>
<rect x="34.147" y="62.1216" width="7" height="14" transform="rotate(-20.5138 34.147 62.1216)" fill="white"/>
<rect x="43.5317" y="32.9854" width="7" height="58" transform="rotate(-20.5138 43.5317 32.9854)" fill="white"/>
<rect x="59.1992" y="54.8838" width="16" height="7" transform="rotate(-20.5138 59.1992 54.8838)" fill="white"/>
<rect x="64.8311" y="35.6929" width="7" height="32" transform="rotate(-20.5138 64.8311 35.6929)" fill="white"/>
<path d="M64.628 0.345361C64.7777 -0.115295 65.4294 -0.115294 65.579 0.345361L69.257 11.665C69.324 11.871 69.5159 12.0105 69.7326 12.0105H81.6348C82.1191 12.0105 82.3205 12.6303 81.9286 12.915L72.2996 19.911C72.1243 20.0383 72.051 20.264 72.1179 20.47L75.7959 31.7896C75.9456 32.2503 75.4183 32.6334 75.0265 32.3487L65.3974 25.3527C65.2222 25.2254 64.9849 25.2254 64.8096 25.3527L55.1805 32.3487C54.7887 32.6334 54.2614 32.2503 54.4111 31.7896L58.0891 20.47C58.156 20.264 58.0827 20.0383 57.9075 19.911L48.2784 12.915C47.8865 12.6303 48.0879 12.0105 48.5723 12.0105H60.4745C60.6911 12.0105 60.8831 11.871 60.95 11.665L64.628 0.345361Z" fill="#F3E3B5"/>
</svg>
