<svg width="100" height="100" viewBox="0 0 100 100" fill="none" xmlns="http://www.w3.org/2000/svg">
<rect width="100" height="100" rx="50" fill="white"/>
<rect x="23" y="26" width="47" height="47" rx="9" fill="#D9D9D9"/>
<circle cx="40.5" cy="71.5" r="6" fill="#EEEEEE" stroke="#B4B4B4" stroke-width="5"/>
<path d="M15 31C13.3431 31 12 32.3431 12 34C12 35.6569 13.3431 37 15 37V34V31ZM15 34V37H25V34V31H15V34Z" fill="#D9D9D9"/>
<path d="M38 37C39.6569 37 41 38.3431 41 40C41 41.6569 39.6569 43 38 43V40V37ZM38 40V43H23V40V37H38V40Z" fill="white"/>
<path d="M33 49C34.6569 49 36 50.3431 36 52C36 53.6569 34.6569 55 33 55V52V49ZM33 52V55H23V52V49H33V52Z" fill="white"/>
<path d="M15 55C13.3431 55 12 56.3431 12 58C12 59.6569 13.3431 61 15 61V58V55ZM15 58V61H25V58V55H15V58Z" fill="#D9D9D9"/>
<path d="M15 43C13.3431 43 12 44.3431 12 46C12 47.6569 13.3431 49 15 49V46V43ZM15 46V49H25V46V43H15V46Z" fill="#D9D9D9"/>
<path d="M70 37.5H78C82.0387 40.7861 84.1171 42.8369 87.5 47V67.5C86.971 70.366 86.1353 71.3844 84 72.5C81.6567 73.081 80.3432 73.1636 78 72.5L70 63V37.5Z" fill="#D9D9D9"/>
<circle cx="70.5" cy="71.5" r="6" fill="#EEEEEE" stroke="#B4B4B4" stroke-width="5"/>
<path d="M70 44H75.5L80.5 49V55H70V44Z" fill="#EEEEEE"/>
</svg>
