<svg width="38" height="30" viewBox="0 0 38 30" fill="none" xmlns="http://www.w3.org/2000/svg">
<path d="M18.6543 0.330934C18.8476 0.145869 19.1524 0.145869 19.3457 0.330934L34.5548 14.8888C34.8804 15.2005 34.6598 15.75 34.209 15.75H3.79098C3.34023 15.75 3.11962 15.2005 3.44524 14.8888L18.6543 0.330934Z" fill="#004B97"/>
<path d="M14.2 29.5C14.6418 29.5 15 29.1418 15 28.7V19.3C15 18.8582 15.3582 18.5 15.8 18.5H22.2C22.6418 18.5 23 18.8582 23 19.3V28.7C23 29.1418 23.3582 29.5 23.8 29.5H29.2C29.6418 29.5 30 29.1418 30 28.7V15.8C30 15.3582 29.6418 15 29.2 15H8.8C8.35817 15 8 15.3582 8 15.8V28.7C8 29.1418 8.35817 29.5 8.8 29.5H14.2Z" fill="#004B97" stroke="#004B97"/>
</svg>
