<svg width="30" height="30" viewBox="0 0 30 30" fill="none" xmlns="http://www.w3.org/2000/svg">
<rect width="30" height="30" fill="white"/>
<rect width="30" height="30" fill="white"/>
<path d="M24 5V25H6V5H24Z" stroke="url(#paint0_linear_779_1028)" stroke-opacity="0.7" stroke-width="2"/>
<rect x="23" y="6" width="2" height="18" fill="white"/>
<path d="M10 14.5C9.72386 14.5 9.5 14.7239 9.5 15C9.5 15.2761 9.72386 15.5 10 15.5V15V14.5ZM23.3536 15.3536C23.5488 15.1583 23.5488 14.8417 23.3536 14.6464L20.1716 11.4645C19.9763 11.2692 19.6597 11.2692 19.4645 11.4645C19.2692 11.6597 19.2692 11.9763 19.4645 12.1716L22.2929 15L19.4645 17.8284C19.2692 18.0237 19.2692 18.3403 19.4645 18.5355C19.6597 18.7308 19.9763 18.7308 20.1716 18.5355L23.3536 15.3536ZM10 15V15.5H23V15V14.5H10V15Z" fill="url(#paint1_linear_779_1028)"/>
<defs>
<linearGradient id="paint0_linear_779_1028" x1="15" y1="4" x2="15" y2="26" gradientUnits="userSpaceOnUse">
<stop stop-color="#ABDAD5"/>
<stop offset="0.475962" stop-color="#5E99B9"/>
<stop offset="1" stop-color="#004B97"/>
</linearGradient>
<linearGradient id="paint1_linear_779_1028" x1="10.6602" y1="11.134" x2="22.3398" y2="17.366" gradientUnits="userSpaceOnUse">
<stop stop-color="#BDDFDF"/>
<stop offset="1" stop-color="#5084B8"/>
</linearGradient>
</defs>
</svg>
