<svg width="22" height="25" viewBox="0 0 22 25" fill="none" xmlns="http://www.w3.org/2000/svg">
<rect x="13.3857" width="8" height="24" rx="0.3" transform="rotate(30 13.3857 0)" fill="#004B97"/>
<path d="M5 0.133545L5.84853 2.28502L8 3.13354L5.84853 3.98207L5 6.13354L4.15147 3.98207L2 3.13354L4.15147 2.28502L5 0.133545Z" fill="#ABDAD5"/>
<path d="M19.5 13.1335L20.2071 14.9264L22 15.6335L20.2071 16.3407L19.5 18.1335L18.7929 16.3407L17 15.6335L18.7929 14.9264L19.5 13.1335Z" fill="#ABDAD5"/>
<path d="M1.5 9.13354L1.92426 10.2093L3 10.6335L1.92426 11.0578L1.5 12.1335L1.07574 11.0578L0 10.6335L1.07574 10.2093L1.5 9.13354Z" fill="#ABDAD5"/>
</svg>
