<svg width="29" height="31" viewBox="0 0 29 31" fill="none" xmlns="http://www.w3.org/2000/svg">
<path d="M25.1816 5.95459C24.5645 5.29456 23.8317 4.77097 23.0252 4.41374C22.2187 4.05652 21.3542 3.87265 20.4812 3.87265C19.6082 3.87265 18.7438 4.05652 17.9373 4.41374C17.1307 4.77097 16.398 5.29456 15.7808 5.95459L14.5 7.32376L13.2191 5.95459C11.9725 4.62199 10.2817 3.87334 8.51873 3.87334C6.75573 3.87334 5.06494 4.62199 3.81831 5.95459C2.57169 7.28719 1.87134 9.09459 1.87134 10.9792C1.87134 12.8638 2.57169 14.6712 3.81831 16.0038L14.5 27.4221L25.1816 16.0038C25.7991 15.344 26.2889 14.5607 26.6231 13.6986C26.9573 12.8365 27.1293 11.9124 27.1293 10.9792C27.1293 10.046 26.9573 9.12189 26.6231 8.25976C26.2889 7.39762 25.7991 6.61432 25.1816 5.95459Z" fill="#B4B4B4"/>
</svg>
