<svg width="100" height="101" viewBox="0 0 100 101" fill="none" xmlns="http://www.w3.org/2000/svg">
<rect width="100" height="100" rx="50" fill="white"/>
<path d="M67 24.5C67 27.7174 66.5732 30.9033 65.744 33.8757C64.9148 36.8482 63.6994 39.5491 62.1673 41.8241C60.6351 44.0992 58.8161 45.9038 56.8143 47.135C54.8124 48.3663 52.6668 49 50.5 49C48.3332 49 46.1876 48.3663 44.1857 47.135C42.1839 45.9038 40.3649 44.0992 38.8327 41.8241C37.3006 39.5491 36.0852 36.8482 35.256 33.8757C34.4268 30.9033 34 27.7174 34 24.5L50.5 24.5H67Z" fill="url(#paint0_linear_572_1080)" fill-opacity="0.5"/>
<path d="M61 36.5C61 38.0102 60.7155 39.5056 60.1627 40.9009C59.6099 42.2961 58.7996 43.5639 57.7782 44.6317C56.7567 45.6996 55.5441 46.5467 54.2095 47.1246C52.8749 47.7025 51.4445 48 50 48C48.5555 48 47.1251 47.7025 45.7905 47.1246C44.4559 46.5467 43.2433 45.6996 42.2218 44.6317C41.2004 43.5639 40.3901 42.2961 39.8373 40.9009C39.2845 39.5056 39 38.0102 39 36.5L50 36.5H61Z" fill="url(#paint1_linear_572_1080)"/>
<path d="M67 76.5C67 73.2826 66.5732 70.0967 65.744 67.1243C64.9148 64.1518 63.6994 61.4509 62.1673 59.1759C60.6351 56.9008 58.8161 55.0962 56.8143 53.865C54.8124 52.6337 52.6668 52 50.5 52C48.3332 52 46.1876 52.6337 44.1857 53.865C42.1839 55.0962 40.3649 56.9008 38.8327 59.1759C37.3006 61.4509 36.0852 64.1518 35.256 67.1243C34.4268 70.0967 34 73.2826 34 76.5L50.5 76.5H67Z" fill="url(#paint2_linear_572_1080)" fill-opacity="0.6"/>
<path d="M48.5 48H51.5C51.1343 50.6642 51.1446 50.4689 51.5 52.5H48.5C49.0689 50.1508 48.5 48 48.5 48Z" fill="url(#paint3_linear_572_1080)"/>
<rect x="31" y="76" width="40" height="7" rx="3.5" fill="#FFC69D"/>
<rect x="30" y="18" width="40" height="7" rx="3.5" fill="#FFC69D"/>
<circle cx="50.5" cy="49.5" r="0.5" fill="#FFE033"/>
<circle cx="50.5" cy="52.5" r="0.5" fill="#FFE033"/>
<circle cx="49.5" cy="51.5" r="0.5" fill="#FFE033"/>
<path d="M36 70C37 67.9999 65 70 65 70C65.9861 71.9083 66.1663 73.0077 66 75H35C35.3905 73.0473 35 72 36 70Z" fill="url(#paint4_linear_572_1080)"/>
<defs>
<linearGradient id="paint0_linear_572_1080" x1="50.5" y1="0" x2="50.5" y2="49" gradientUnits="userSpaceOnUse">
<stop stop-color="#FFC69D"/>
<stop offset="1" stop-color="#FFEE8F"/>
</linearGradient>
<linearGradient id="paint1_linear_572_1080" x1="50" y1="25" x2="50" y2="48" gradientUnits="userSpaceOnUse">
<stop stop-color="#FF3636"/>
<stop offset="1" stop-color="#FFE02D"/>
</linearGradient>
<linearGradient id="paint2_linear_572_1080" x1="50.5" y1="52" x2="50.5" y2="101" gradientUnits="userSpaceOnUse">
<stop stop-color="#FFF4BE"/>
<stop offset="1" stop-color="#FFC69D"/>
</linearGradient>
<linearGradient id="paint3_linear_572_1080" x1="50" y1="48" x2="50" y2="52.5" gradientUnits="userSpaceOnUse">
<stop stop-color="#FFF5BC"/>
<stop offset="1" stop-color="#FFF7D1"/>
</linearGradient>
<linearGradient id="paint4_linear_572_1080" x1="50.5273" y1="69.1111" x2="50.5273" y2="75" gradientUnits="userSpaceOnUse">
<stop stop-color="#FF991B"/>
<stop offset="1" stop-color="#FDE363"/>
</linearGradient>
</defs>
</svg>
