<svg width="101" height="48" viewBox="0 0 101 48" fill="none" xmlns="http://www.w3.org/2000/svg">
<path d="M11.3525 17.5303C11.3363 16.7816 11.6536 16.2038 12.3047 15.7969C12.6139 15.6178 12.9557 15.5283 13.3301 15.5283H19.0674C19.8486 15.5283 20.4346 15.8701 20.8252 16.5537C20.988 16.8467 21.0693 17.1641 21.0693 17.5059V17.5303L21.0449 21.5342C21.0449 22.2829 20.7194 22.8607 20.0684 23.2676C19.7591 23.4466 19.4173 23.5361 19.043 23.5361H13.4033C12.6383 23.5361 12.0605 23.2025 11.6699 22.5352C11.4746 22.2422 11.377 21.9085 11.377 21.5342L11.3525 17.5303ZM20.0684 17.5303C20.0684 17.0583 19.8568 16.749 19.4336 16.6025L19.0674 16.5293H13.3301C12.8743 16.5293 12.5651 16.749 12.4023 17.1885L12.3535 17.5303L12.3779 21.5342C12.3942 22.0062 12.6221 22.3236 13.0615 22.4863H13.0859L13.4033 22.5352H19.043C19.515 22.5352 19.8242 22.3154 19.9707 21.876L20.0439 21.5342L20.0684 17.5303ZM23.1934 11.9883C20.4102 10.2956 18.1071 7.58561 16.2842 3.8584C14.4938 7.35775 12.5244 10.0596 10.376 11.9639H23.0469L23.1934 11.9883ZM4.58984 14.7959L1.85547 16.0654C1.61133 16.1631 1.41602 16.098 1.26953 15.8701L1.24512 15.7969C1.13118 15.4876 1.18815 15.2679 1.41602 15.1377H1.44043L4.58984 13.6729V8.10645H1.36719C1.12305 8.10645 0.976562 7.98438 0.927734 7.74023V7.66699C0.927734 7.35775 1.04167 7.17871 1.26953 7.12988L1.36719 7.10547H4.58984V2.07617C4.58984 1.83203 4.72005 1.68555 4.98047 1.63672H5.05371C5.34668 1.63672 5.51758 1.75065 5.56641 1.97852L5.59082 2.00293V7.10547H8.88672C9.13086 7.10547 9.27734 7.23568 9.32617 7.49609V7.56934C9.32617 7.8623 9.21224 8.0332 8.98438 8.08203L8.95996 8.10645H5.59082V13.1602C6.55111 12.6556 7.46257 12.1429 8.3252 11.6221C8.56934 11.4919 8.77279 11.5407 8.93555 11.7686L8.95996 11.793V11.8174C11.5967 9.78288 13.9974 6.45443 16.1621 1.83203C16.2435 1.65299 16.3574 1.56348 16.5039 1.56348C16.569 1.56348 16.6341 1.57975 16.6992 1.6123H16.7236C17.0003 1.74251 17.1143 1.92969 17.0654 2.17383L17.041 2.24707L16.7236 2.93066C16.8701 2.96322 16.9678 3.02832 17.0166 3.12598L17.041 3.15039C18.8639 6.95898 21.1507 9.64453 23.9014 11.207C24.0641 11.3047 24.1455 11.4268 24.1455 11.5732C24.1455 11.6546 24.1292 11.736 24.0967 11.8174L24.0723 11.8418C23.9258 12.0859 23.7386 12.1836 23.5107 12.1348L23.4131 12.1104L23.3398 12.0615C23.4538 12.1266 23.5107 12.2324 23.5107 12.3789V12.4033C23.5107 12.7126 23.3887 12.8916 23.1445 12.9404L23.1201 12.9648H9.42383C9.32617 12.9648 9.25293 12.9404 9.2041 12.8916L9.0332 13.0137C8.78906 13.1602 8.57747 13.1195 8.39844 12.8916L8.34961 12.7939L5.59082 14.2832V22.0469C5.59082 23.8861 4.70378 24.8057 2.92969 24.8057C2.66927 24.8057 2.39258 24.7894 2.09961 24.7568C1.85547 24.7568 1.70898 24.6348 1.66016 24.3906V24.3174C1.66016 24.0081 1.77409 23.8291 2.00195 23.7803L2.09961 23.7559C3.74349 23.821 4.57357 23.2676 4.58984 22.0957V14.7959ZM31.5674 18.0918V19.6787C31.5674 20.1507 31.7871 20.46 32.2266 20.6064V20.6309H32.251L32.5684 20.6797H42.4805C42.9199 20.6797 43.221 20.4844 43.3838 20.0938C43.4326 19.9473 43.457 19.8089 43.457 19.6787V18.0918H31.5674ZM43.457 17.0908L43.4326 14.9668H31.5674V17.0908H43.457ZM43.4326 13.9658V12.8672C43.4326 12.3952 43.2129 12.0778 42.7734 11.915L42.4316 11.8662H32.5684C32.0801 11.8662 31.7627 12.0859 31.6162 12.5254L31.5674 12.8672V13.9658H43.4326ZM33.5449 21.6807C33.5449 21.7783 33.5042 21.8516 33.4229 21.9004C31.9743 23.0234 29.6631 24.0895 26.4893 25.0986C26.4242 25.1312 26.359 25.1475 26.2939 25.1475C26.1637 25.1475 26.0579 25.0579 25.9766 24.8789C25.9603 24.8626 25.9521 24.8382 25.9521 24.8057C25.9196 24.7243 25.9033 24.6429 25.9033 24.5615C25.9033 24.3825 25.9928 24.2523 26.1719 24.1709H26.1963C28.7354 23.3571 30.7048 22.5026 32.1045 21.6074C31.4372 21.4609 30.9652 21.0622 30.6885 20.4111C30.6071 20.1833 30.5664 19.9473 30.5664 19.7031V12.8672C30.5664 12.0697 30.9163 11.4756 31.6162 11.085C31.9092 10.9385 32.2266 10.8652 32.5684 10.8652H42.4072C43.2048 10.8652 43.7907 11.207 44.165 11.8906C44.3441 12.1673 44.4336 12.4847 44.4336 12.8428V12.8672L44.458 19.6787C44.4743 20.4274 44.1569 21.0052 43.5059 21.4121C43.1803 21.5911 42.8385 21.6807 42.4805 21.6807H40.8691C42.2852 22.5596 44.2546 23.3734 46.7773 24.1221C47.0052 24.1872 47.111 24.3418 47.0947 24.5859L47.0703 24.6836C47.0052 24.944 46.8587 25.0824 46.6309 25.0986C46.582 25.0986 46.5413 25.0905 46.5088 25.0742C43.1559 24.0814 40.7878 22.999 39.4043 21.8271L39.2822 21.6807H33.5449ZM38.3789 5.71387V7.98438C38.3789 8.3099 38.5417 8.47266 38.8672 8.47266H47.6074C48.0143 8.47266 48.2666 8.28548 48.3643 7.91113L48.8037 6.49512C48.8525 6.2347 49.0072 6.12077 49.2676 6.15332L49.292 6.17773H49.3408C49.6338 6.25911 49.7803 6.4056 49.7803 6.61719V6.69043L49.7559 6.71484V6.76367L49.3408 8.17969C49.0967 9.02604 48.527 9.45736 47.6318 9.47363H38.8672C37.8743 9.47363 37.3779 8.97721 37.3779 7.98438V2.07617C37.3779 1.83203 37.5 1.68555 37.7441 1.63672H37.8174C38.1266 1.63672 38.3057 1.75065 38.3545 1.97852L38.3789 2.00293V4.71289C41.7155 4.24089 45.0277 3.57357 48.3154 2.71094C48.5921 2.62956 48.7712 2.71094 48.8525 2.95508L48.877 2.97949V3.02832C48.9583 3.35384 48.877 3.57357 48.6328 3.6875H48.6084C45.0602 4.58268 41.6585 5.25814 38.4033 5.71387H38.3789ZM31.2256 4.78613C29.9398 5.35579 28.3529 5.88477 26.4648 6.37305C26.2207 6.43815 26.0417 6.33236 25.9277 6.05566V6.03125C25.9115 5.98242 25.9033 5.93359 25.9033 5.88477C25.9033 5.6569 26.001 5.51042 26.1963 5.44531L26.2451 5.4209C29.7119 4.52572 32.2835 3.39453 33.96 2.02734C34.1553 1.81576 34.3587 1.81576 34.5703 2.02734C34.8145 2.30404 34.8389 2.54004 34.6436 2.73535L34.6191 2.75977C33.9193 3.32943 33.1217 3.84212 32.2266 4.29785V9.15625C32.2266 9.40039 32.1045 9.55501 31.8604 9.62012H31.7871C31.4616 9.62012 31.2744 9.48991 31.2256 9.22949V4.78613ZM56.5674 20.0449V20.7529C56.5674 21.1761 56.7627 21.4609 57.1533 21.6074C57.251 21.64 57.3486 21.6562 57.4463 21.6562H67.5781C67.9688 21.6562 68.2454 21.4691 68.4082 21.0947C68.4408 20.9808 68.457 20.875 68.457 20.7773V20.0449H56.5674ZM68.457 19.0439L68.4326 17.75H56.5674V19.0439H68.457ZM68.4326 16.749V16.4072C68.4326 15.984 68.2373 15.6992 67.8467 15.5527L67.5293 15.5039H57.4463C57.0557 15.5039 56.779 15.6992 56.6162 16.0898L56.5674 16.4072V16.749H68.4326ZM58.4961 22.6572L58.3252 22.8525C56.8929 23.6338 54.6224 24.3906 51.5137 25.123C51.237 25.1882 51.0417 25.0905 50.9277 24.8301V24.8057C50.8789 24.4964 50.9684 24.3011 51.1963 24.2197L51.2451 24.1953C53.4587 23.6745 55.2897 23.113 56.7383 22.5107C56.0872 22.2503 55.7048 21.762 55.5908 21.0459C55.5745 20.9482 55.5664 20.8587 55.5664 20.7773V16.4072C55.5664 15.6585 55.8919 15.097 56.543 14.7227C56.8359 14.5762 57.137 14.5029 57.4463 14.5029H67.5049C68.2536 14.5029 68.807 14.8285 69.165 15.4795C69.3441 15.7562 69.4336 16.0573 69.4336 16.3828V16.4072L69.458 20.7529C69.4743 21.4854 69.165 22.0387 68.5303 22.4131C68.221 22.5758 67.9036 22.6572 67.5781 22.6572H66.4795C67.8792 23.2106 69.6126 23.7152 71.6797 24.1709C71.9401 24.2197 72.0703 24.3581 72.0703 24.5859V24.6836C72.0052 24.9603 71.8587 25.1068 71.6309 25.123H71.5332C68.2617 24.4069 65.9342 23.6419 64.5508 22.8281L64.3799 22.6572H58.4961ZM67.9688 12.4521H70.6055C71.0124 12.4521 71.2972 12.265 71.46 11.8906L71.5088 11.5732V11.1094C71.5088 10.8327 71.6227 10.6699 71.8506 10.6211H71.9238C72.2168 10.6211 72.3958 10.735 72.4609 10.9629L72.4854 10.9873V11.0605L72.5098 11.5732C72.5098 12.3057 72.1924 12.8509 71.5576 13.209C71.2646 13.3717 70.9554 13.4531 70.6299 13.4531H64.3555C63.6068 13.4531 63.0452 13.1276 62.6709 12.4766C62.5244 12.2161 62.4512 11.9232 62.4512 11.5977V11.0605C62.4512 10.7839 62.5732 10.613 62.8174 10.5479H62.8906C63.1999 10.5479 63.3789 10.6699 63.4277 10.9141L63.4521 10.9385V11.5732C63.4521 11.9801 63.6393 12.2568 64.0137 12.4033L64.3555 12.4521H66.9678V10.1572H61.4258C61.1491 10.1572 60.9782 10.0352 60.9131 9.79102V9.71777C60.9131 9.40853 61.0352 9.22949 61.2793 9.18066L61.3037 9.15625H66.9678V7.8623H63.7451C63.2406 8.33431 62.6709 8.72493 62.0361 9.03418C61.7757 9.16439 61.5723 9.11556 61.4258 8.8877L61.4014 8.83887C61.2549 8.51335 61.3037 8.28548 61.5479 8.15527H61.5723C62.5488 7.66699 63.2406 7.11361 63.6475 6.49512C63.7777 6.21842 63.9811 6.12891 64.2578 6.22656H64.2822C64.5752 6.35677 64.6729 6.56022 64.5752 6.83691V6.86133L71.8994 6.88574C72.1761 6.88574 72.347 6.99967 72.4121 7.22754V7.30078C72.4121 7.61003 72.29 7.78906 72.0459 7.83789L72.0215 7.8623H67.9688V9.15625L73.5596 9.18066C73.8363 9.18066 73.999 9.2946 74.0479 9.52246V9.62012C74.0479 9.91309 73.9339 10.084 73.7061 10.1328L73.6816 10.1572H67.9688V12.4521ZM61.9141 3.71191V2.125C61.9141 1.84831 62.0443 1.68555 62.3047 1.63672H62.3779C62.6709 1.63672 62.8418 1.75065 62.8906 1.97852L62.915 2.00293V3.71191H71.5576C72.3063 3.71191 72.8597 4.03743 73.2178 4.68848C73.3805 4.96517 73.4619 5.26628 73.4619 5.5918V6.54395C73.4619 6.82064 73.3317 6.9834 73.0713 7.03223H72.998C72.7051 7.03223 72.5342 6.91829 72.4854 6.69043L72.4609 6.66602V5.61621C72.4609 5.19303 72.2656 4.9082 71.875 4.76172L71.5576 4.71289H53.8086C53.3854 4.71289 53.1006 4.90007 52.9541 5.27441L52.9053 5.61621V6.71484L60.6201 6.73926C60.9131 6.73926 61.084 6.85319 61.1328 7.08105V7.1543C61.1328 7.47982 61.0026 7.66699 60.7422 7.71582H56.25V9.15625H60.4248C60.7015 9.15625 60.8643 9.27832 60.9131 9.52246V9.62012C60.9131 9.91309 60.7992 10.084 60.5713 10.1328L60.5469 10.1572H56.25V11.5732L61.2549 11.2314C61.5316 11.1989 61.7025 11.3047 61.7676 11.5488V11.6221C61.8001 11.9313 61.7025 12.1185 61.4746 12.1836L61.377 12.208C58.6426 12.4359 55.5501 12.623 52.0996 12.7695C51.8392 12.7858 51.6846 12.6719 51.6357 12.4277L51.6113 12.4033V12.3301C51.5951 12.0534 51.7008 11.8825 51.9287 11.8174L52.0264 11.793C53.1331 11.7441 54.2074 11.6872 55.249 11.6221V10.1572H51.9531C51.6602 10.1572 51.4893 10.0352 51.4404 9.79102V9.71777C51.4404 9.4248 51.5625 9.24577 51.8066 9.18066C51.8392 9.16439 51.8717 9.15625 51.9043 9.15625H55.249V7.71582H51.416C51.1393 7.71582 50.9766 7.58561 50.9277 7.3252V7.25195C50.9277 6.95898 51.0417 6.78809 51.2695 6.73926L51.3672 6.71484H51.9043V5.61621C51.9043 4.86751 52.2298 4.30599 52.8809 3.93164C53.1576 3.78516 53.4668 3.71191 53.8086 3.71191H61.9141ZM90.3809 11.9883V14.2344H94.5801V12.9893C94.5801 12.5173 94.3604 12.208 93.9209 12.0615L93.5791 11.9883H90.3809ZM90.3809 15.2354V17.5791H93.5791C94.0511 17.5791 94.3604 17.3675 94.5068 16.9443L94.5801 16.5781V15.2354H90.3809ZM89.3799 17.5791V15.2354H85.2295L85.2539 16.5781C85.2539 17.0501 85.4655 17.3594 85.8887 17.5059L86.2549 17.5791H89.3799ZM89.3799 14.2344V11.9883H86.2061C85.7503 11.9883 85.4411 12.1999 85.2783 12.623L85.2295 12.9893V14.2344H89.3799ZM89.3799 7.78906V6.03125C89.3799 5.81966 89.4938 5.68132 89.7217 5.61621C89.7542 5.59993 89.7868 5.5918 89.8193 5.5918C90.1449 5.5918 90.332 5.71387 90.3809 5.95801V7.78906H97.4609C97.7051 7.78906 97.8516 7.91113 97.9004 8.15527V8.22852C97.9004 8.53776 97.7865 8.7168 97.5586 8.76562L97.5342 8.79004H90.3809V10.9873H93.5791C94.3278 10.9873 94.8975 11.3128 95.2881 11.9639C95.4834 12.2731 95.5811 12.6068 95.5811 12.9648V16.5781C95.5811 17.3594 95.2393 17.9453 94.5557 18.3359C94.2464 18.4987 93.9209 18.5801 93.5791 18.5801H90.3809V20.8018H98.0957C98.3561 20.8018 98.5107 20.932 98.5596 21.1924V21.2656C98.5596 21.5586 98.4375 21.7295 98.1934 21.7783L98.1689 21.8027H90.3809V24.3174C90.3809 24.5615 90.2507 24.708 89.9902 24.7568H89.917C89.624 24.7568 89.4531 24.6429 89.4043 24.415L89.3799 24.3174V21.8027H81.7139C81.4697 21.8027 81.3232 21.6807 81.2744 21.4365V21.3633C81.2744 21.0378 81.3965 20.8506 81.6406 20.8018H89.3799V18.5801H86.2549C85.4736 18.5801 84.8877 18.2464 84.4971 17.5791C84.3343 17.2861 84.2529 16.9606 84.2529 16.6025V16.5781L84.2285 12.9893C84.2122 12.2406 84.5296 11.6628 85.1807 11.2559C85.4899 11.0768 85.8317 10.9873 86.2061 10.9873H89.3799V8.79004H82.4463C82.2021 8.79004 82.0557 8.65983 82.0068 8.39941V8.32617C82.0068 8.01693 82.1289 7.83789 82.373 7.78906H89.3799ZM89.624 4.49316H98.6084C98.8525 4.49316 98.999 4.61523 99.0479 4.85938V4.93262C99.0479 5.22559 98.9339 5.40462 98.7061 5.46973L98.6816 5.49414H80.5664C80.1107 5.49414 79.8014 5.70573 79.6387 6.12891L79.5654 6.49512C79.5003 15.3005 78.6214 21.0296 76.9287 23.6826L76.6113 24.1221C76.416 24.3174 76.2126 24.3337 76.001 24.1709L75.9521 24.1221C75.8219 23.9919 75.7568 23.8617 75.7568 23.7314C75.7568 23.6338 75.7975 23.5361 75.8789 23.4385C77.4251 21.29 78.304 16.3096 78.5156 8.49707C78.5482 7.84603 78.5645 7.17871 78.5645 6.49512C78.5645 5.69759 78.9062 5.11165 79.5898 4.7373C79.8991 4.57454 80.2246 4.49316 80.5664 4.49316H88.623V2.07617C88.623 1.83203 88.7451 1.68555 88.9893 1.63672H89.0869C89.3799 1.63672 89.5508 1.75065 89.5996 1.97852L89.624 2.00293V4.49316Z" fill="white"/>
<path d="M6.15625 31.9702V40.9937C6.15625 41.0562 6.13281 41.1108 6.08594 41.1577C6.03906 41.2046 5.98438 41.228 5.92188 41.228C5.85938 41.228 5.80469 41.2046 5.75781 41.1577C5.71094 41.1108 5.6875 41.0562 5.6875 40.9937V31.9702H1.70312C1.64062 31.9702 1.58594 31.9468 1.53906 31.8999C1.49219 31.853 1.46875 31.7983 1.46875 31.7358C1.46875 31.6733 1.49219 31.6187 1.53906 31.5718C1.58594 31.5249 1.64062 31.5015 1.70312 31.5015H10.1172C10.1797 31.5015 10.2344 31.5249 10.2812 31.5718C10.3281 31.6187 10.3516 31.6733 10.3516 31.7358C10.3516 31.7983 10.3281 31.853 10.2812 31.8999C10.2344 31.9468 10.1797 31.9702 10.1172 31.9702H6.15625ZM17.5469 34.1147C17.4688 32.7241 16.6953 32.0093 15.2266 31.9702H11.7578V36.2593H15.2617C16.707 36.1733 17.4688 35.4585 17.5469 34.1147ZM11.2891 31.853C11.2891 31.7593 11.3242 31.6772 11.3945 31.6069C11.4648 31.5366 11.5469 31.5015 11.6406 31.5015H15.2969C17.0234 31.5796 17.9258 32.4507 18.0039 34.1147C17.9336 35.646 17.1523 36.5054 15.6602 36.6929L18.1562 40.7007C18.2188 40.7866 18.25 40.8608 18.25 40.9233C18.25 41.0015 18.2148 41.0679 18.1445 41.1226C18.1055 41.146 18.0664 41.1577 18.0273 41.1577C17.9336 41.1577 17.8359 41.0874 17.7344 40.9468L15.168 36.7866L15.1328 36.728H11.7578V40.9937C11.7578 41.0562 11.7344 41.1108 11.6875 41.1577C11.6406 41.2046 11.5859 41.228 11.5234 41.228C11.4609 41.228 11.4062 41.2046 11.3594 41.1577C11.3125 41.1108 11.2891 41.0562 11.2891 40.9937V31.853ZM19.668 31.9819V35.6616H23.4062C23.4688 35.6616 23.5234 35.6851 23.5703 35.7319C23.6172 35.7788 23.6406 35.8335 23.6406 35.896C23.6406 35.9585 23.6172 36.0132 23.5703 36.0601C23.5234 36.1069 23.4688 36.1304 23.4062 36.1304H19.668V40.5718H25.375C25.4375 40.5718 25.4922 40.5952 25.5391 40.6421C25.5859 40.689 25.6094 40.7437 25.6094 40.8062C25.6094 40.8687 25.5859 40.9233 25.5391 40.9702C25.4922 41.0171 25.4375 41.0405 25.375 41.0405H19.5391C19.4766 41.0405 19.418 41.0249 19.3633 40.9937C19.3086 40.9624 19.2656 40.9194 19.2344 40.8647C19.2031 40.8101 19.1875 40.7515 19.1875 40.689V31.8647C19.1875 31.7632 19.2188 31.6812 19.2812 31.6187C19.3516 31.5483 19.4375 31.5132 19.5391 31.5132H24.9297C24.9922 31.5132 25.0469 31.5366 25.0938 31.5835C25.1406 31.6304 25.1641 31.6851 25.1641 31.7476C25.1641 31.8101 25.1406 31.8647 25.0938 31.9116C25.0469 31.9585 24.9922 31.9819 24.9297 31.9819H19.668ZM28.4688 37.7241L26.9922 41.1929C26.9688 41.2476 26.9258 41.2866 26.8633 41.3101C26.832 41.3179 26.8008 41.3218 26.7695 41.3218C26.7461 41.3218 26.7188 41.3179 26.6875 41.3101C26.6328 41.2866 26.5938 41.2437 26.5703 41.1812C26.5547 41.1499 26.5469 41.1187 26.5469 41.0874C26.5469 41.0562 26.5508 41.0288 26.5586 41.0054L30.5312 31.6538C30.5625 31.5601 30.6094 31.5015 30.6719 31.478C30.7031 31.4624 30.7344 31.4546 30.7656 31.4546C30.7969 31.4546 30.8281 31.4624 30.8594 31.478C30.9219 31.5015 30.9688 31.5601 31 31.6538L34.9727 41.0054C34.9805 41.0288 34.9844 41.0562 34.9844 41.0874C34.9844 41.1187 34.9805 41.1499 34.9727 41.1812C34.9414 41.2437 34.8984 41.2866 34.8438 41.3101C34.8203 41.3179 34.793 41.3218 34.7617 41.3218C34.7305 41.3218 34.6992 41.3179 34.668 41.3101C34.6055 41.2866 34.5625 41.2476 34.5391 41.1929L33.0625 37.7241H28.4688ZM32.8633 37.2554L30.7656 32.3101L28.668 37.2554H32.8633ZM39.1797 36.5171C38.3281 36.5171 37.5977 36.2749 36.9883 35.7905C36.3789 35.3062 36.0742 34.7124 36.0742 34.0093C36.0742 33.3062 36.3789 32.7124 36.9883 32.228C37.5977 31.7437 38.3281 31.5015 39.1797 31.5015C40.0234 31.5015 40.75 31.7437 41.3594 32.228C41.9531 32.6968 42.2539 33.0991 42.2617 33.4351C42.293 33.5054 42.3086 33.5679 42.3086 33.6226C42.3086 33.7241 42.25 33.7866 42.1328 33.8101C42.1016 33.8179 42.0742 33.8218 42.0508 33.8218C41.918 33.8218 41.8359 33.7437 41.8047 33.5874C41.8047 33.314 41.5508 32.978 41.043 32.5796C40.5352 32.1733 39.9141 31.9702 39.1797 31.9702C38.4375 31.9702 37.8125 32.1733 37.3047 32.5796C36.7969 32.978 36.543 33.4546 36.543 34.0093C36.543 34.564 36.7969 35.0444 37.3047 35.4507C37.8125 35.8491 38.4375 36.0483 39.1797 36.0483H39.4961C40.4492 36.0483 41.2734 36.2983 41.9688 36.7983C42.6641 37.2905 43.0117 37.9038 43.0117 38.6382C43.0117 39.3726 42.6641 39.9897 41.9688 40.4897C41.2734 40.9819 40.4492 41.228 39.4961 41.228C38.5352 41.228 37.707 40.978 37.0117 40.478C36.3633 40.0171 36.0078 39.6655 35.9453 39.4233C35.9297 39.3765 35.9219 39.3335 35.9219 39.2944C35.9219 39.1772 35.9805 39.1108 36.0977 39.0952H36.168C36.2852 39.0952 36.3633 39.146 36.4023 39.2476C36.4492 39.4272 36.7578 39.7202 37.3281 40.1265C37.9141 40.5483 38.6367 40.7593 39.4961 40.7593C40.3477 40.7593 41.0664 40.5483 41.6523 40.1265C42.2461 39.7046 42.543 39.2085 42.543 38.6382C42.543 38.0679 42.2461 37.5718 41.6523 37.1499C41.0664 36.728 40.3477 36.5171 39.4961 36.5171H39.1797ZM50.8047 31.5718V37.1265C50.8047 38.4077 50.5273 39.3413 49.9727 39.9272C49.4336 40.6929 48.5625 41.103 47.3594 41.1577H47.3008C46.3711 41.1577 45.5508 40.7749 44.8398 40.0093C44.2461 39.4155 43.9492 38.4546 43.9492 37.1265V31.5718C43.9492 31.5093 43.9727 31.4546 44.0195 31.4077C44.0664 31.3608 44.1211 31.3374 44.1836 31.3374C44.2461 31.3374 44.3008 31.3608 44.3477 31.4077C44.3945 31.4546 44.418 31.5093 44.418 31.5718V37.1265C44.418 38.1968 44.6992 39.0757 45.2617 39.7632C45.8398 40.3804 46.5391 40.689 47.3594 40.689C48.1797 40.689 48.8984 40.3921 49.5156 39.7983C50.0625 39.1421 50.3359 38.2515 50.3359 37.1265V31.5718C50.3359 31.5093 50.3594 31.4546 50.4062 31.4077C50.4531 31.3608 50.5078 31.3374 50.5703 31.3374C50.6328 31.3374 50.6875 31.3608 50.7344 31.4077C50.7812 31.4546 50.8047 31.5093 50.8047 31.5718ZM58 34.1147C57.9219 32.7241 57.1484 32.0093 55.6797 31.9702H52.2109V36.2593H55.7148C57.1602 36.1733 57.9219 35.4585 58 34.1147ZM51.7422 31.853C51.7422 31.7593 51.7773 31.6772 51.8477 31.6069C51.918 31.5366 52 31.5015 52.0938 31.5015H55.75C57.4766 31.5796 58.3789 32.4507 58.457 34.1147C58.3867 35.646 57.6055 36.5054 56.1133 36.6929L58.6094 40.7007C58.6719 40.7866 58.7031 40.8608 58.7031 40.9233C58.7031 41.0015 58.668 41.0679 58.5977 41.1226C58.5586 41.146 58.5195 41.1577 58.4805 41.1577C58.3867 41.1577 58.2891 41.0874 58.1875 40.9468L55.6211 36.7866L55.5859 36.728H52.2109V40.9937C52.2109 41.0562 52.1875 41.1108 52.1406 41.1577C52.0938 41.2046 52.0391 41.228 51.9766 41.228C51.9141 41.228 51.8594 41.2046 51.8125 41.1577C51.7656 41.1108 51.7422 41.0562 51.7422 40.9937V31.853ZM60.1211 31.9819V35.6616H63.8594C63.9219 35.6616 63.9766 35.6851 64.0234 35.7319C64.0703 35.7788 64.0938 35.8335 64.0938 35.896C64.0938 35.9585 64.0703 36.0132 64.0234 36.0601C63.9766 36.1069 63.9219 36.1304 63.8594 36.1304H60.1211V40.5718H65.8281C65.8906 40.5718 65.9453 40.5952 65.9922 40.6421C66.0391 40.689 66.0625 40.7437 66.0625 40.8062C66.0625 40.8687 66.0391 40.9233 65.9922 40.9702C65.9453 41.0171 65.8906 41.0405 65.8281 41.0405H59.9922C59.9297 41.0405 59.8711 41.0249 59.8164 40.9937C59.7617 40.9624 59.7188 40.9194 59.6875 40.8647C59.6562 40.8101 59.6406 40.7515 59.6406 40.689V31.8647C59.6406 31.7632 59.6719 31.6812 59.7344 31.6187C59.8047 31.5483 59.8906 31.5132 59.9922 31.5132H65.3828C65.4453 31.5132 65.5 31.5366 65.5469 31.5835C65.5938 31.6304 65.6172 31.6851 65.6172 31.7476C65.6172 31.8101 65.5938 31.8647 65.5469 31.9116C65.5 31.9585 65.4453 31.9819 65.3828 31.9819H60.1211ZM80.4062 40.9937C80.4062 41.064 80.3828 41.1226 80.3359 41.1694C80.2891 41.2085 80.2344 41.228 80.1719 41.228C80.1094 41.228 80.0547 41.2085 80.0078 41.1694C79.9609 41.1226 79.9375 41.064 79.9375 40.9937V36.4468H73.4688V40.9937C73.4688 41.064 73.4453 41.1226 73.3984 41.1694C73.3516 41.2085 73.2969 41.228 73.2344 41.228C73.1719 41.228 73.1172 41.2085 73.0703 41.1694C73.0234 41.1226 73 41.064 73 40.9937V31.5718C73 31.5093 73.0234 31.4546 73.0703 31.4077C73.1172 31.3608 73.1719 31.3374 73.2344 31.3374C73.2969 31.3374 73.3516 31.3608 73.3984 31.4077C73.4453 31.4546 73.4688 31.5093 73.4688 31.5718V35.9663H79.9375V31.5718C79.9375 31.5093 79.9609 31.4546 80.0078 31.4077C80.0547 31.3608 80.1094 31.3374 80.1719 31.3374C80.2344 31.3374 80.2891 31.3608 80.3359 31.4077C80.3828 31.4546 80.4062 31.5093 80.4062 31.5718V40.9937ZM88.1992 31.5718V37.1265C88.1992 38.4077 87.9219 39.3413 87.3672 39.9272C86.8281 40.6929 85.957 41.103 84.7539 41.1577H84.6953C83.7656 41.1577 82.9453 40.7749 82.2344 40.0093C81.6406 39.4155 81.3438 38.4546 81.3438 37.1265V31.5718C81.3438 31.5093 81.3672 31.4546 81.4141 31.4077C81.4609 31.3608 81.5156 31.3374 81.5781 31.3374C81.6406 31.3374 81.6953 31.3608 81.7422 31.4077C81.7891 31.4546 81.8125 31.5093 81.8125 31.5718V37.1265C81.8125 38.1968 82.0938 39.0757 82.6562 39.7632C83.2344 40.3804 83.9336 40.689 84.7539 40.689C85.5742 40.689 86.293 40.3921 86.9102 39.7983C87.457 39.1421 87.7305 38.2515 87.7305 37.1265V31.5718C87.7305 31.5093 87.7539 31.4546 87.8008 31.4077C87.8477 31.3608 87.9023 31.3374 87.9648 31.3374C88.0273 31.3374 88.082 31.3608 88.1289 31.4077C88.1758 31.4546 88.1992 31.5093 88.1992 31.5718ZM89.6055 36.0483V40.5835H92.8633C94.2383 40.5132 94.9648 39.7749 95.043 38.3687C94.9648 36.9468 94.3008 36.1733 93.0508 36.0483H89.6055ZM92.793 35.5444C93.7852 35.4663 94.3164 34.8452 94.3867 33.6812C94.3164 32.5718 93.7266 31.9976 92.6172 31.9585H89.6055V35.5444H92.793ZM93.8477 35.7319C94.8789 36.1147 95.4297 36.9937 95.5 38.3687C95.4141 40.0796 94.543 40.9819 92.8867 41.0757H89.6172C89.2969 41.0757 89.1367 40.9077 89.1367 40.5718V31.9702C89.1367 31.6421 89.2969 31.478 89.6172 31.478H92.6172C94.0234 31.5249 94.7695 32.2593 94.8555 33.6812C94.793 34.6733 94.457 35.3569 93.8477 35.7319Z" fill="white"/>
</svg>
