<svg width="1940" height="483" viewBox="0 0 1940 483" fill="none" xmlns="http://www.w3.org/2000/svg">
<g clip-path="url(#clip0_20_54)">
<rect width="1940" height="483" fill="white"/>
<rect width="1940" height="483" fill="#004B97" fill-opacity="0.7"/>
<rect x="50" y="70" width="1840" height="350" rx="1" fill="white"/>
<path d="M399.968 364.6C397.664 365.283 395.616 365.325 393.824 364.728C392.117 364.216 390.837 362.979 389.984 361.016C389.216 359.053 389.259 357.219 390.112 355.512C390.965 353.805 392.459 352.653 394.592 352.056C398.091 351.117 401.973 349.837 406.24 348.216C410.592 346.595 414.56 344.888 418.144 343.096C412.768 342.413 409.013 340.707 406.88 337.976C404.747 335.245 403.68 330.893 403.68 324.92V306.872C403.68 302.093 404.32 298.381 405.6 295.736C406.965 293.005 409.184 291.085 412.256 289.976C415.328 288.867 419.552 288.312 424.928 288.312H463.456C468.832 288.312 473.056 288.867 476.128 289.976C479.2 291.085 481.376 293.005 482.656 295.736C484.021 298.381 484.704 302.093 484.704 306.872V324.92C484.704 330.979 483.595 335.373 481.376 338.104C479.243 340.835 475.403 342.499 469.856 343.096C473.355 344.888 477.28 346.595 481.632 348.216C485.984 349.837 489.867 351.117 493.28 352.056C495.328 352.653 496.779 353.805 497.632 355.512C498.571 357.219 498.613 359.053 497.76 361.016C496.907 362.979 495.627 364.216 493.92 364.728C492.213 365.325 490.165 365.283 487.776 364.6C485.045 363.747 481.973 362.637 478.56 361.272C475.147 359.907 471.776 358.456 468.448 356.92C465.205 355.384 462.389 353.933 460 352.568C458.379 351.629 457.397 350.349 457.056 348.728C456.715 347.021 456.971 345.4 457.824 343.864L458.208 343.48H429.664C429.664 343.565 429.749 343.693 429.92 343.864C430.859 345.4 431.157 347.021 430.816 348.728C430.56 350.349 429.579 351.629 427.872 352.568C425.483 353.933 422.624 355.384 419.296 356.92C415.968 358.456 412.597 359.907 409.184 361.272C405.856 362.637 402.784 363.747 399.968 364.6ZM408.416 282.68C404.064 282.68 400.608 282.253 398.048 281.4C395.488 280.461 393.653 278.84 392.544 276.536C391.52 274.232 391.008 271.032 391.008 266.936C391.008 262.84 391.52 259.683 392.544 257.464C393.653 255.16 395.488 253.581 398.048 252.728C400.608 251.789 404.064 251.32 408.416 251.32H479.84C484.277 251.32 487.733 251.789 490.208 252.728C492.768 253.581 494.603 255.16 495.712 257.464C496.821 259.683 497.376 262.84 497.376 266.936C497.376 271.032 496.821 274.232 495.712 276.536C494.603 278.84 492.768 280.461 490.208 281.4C487.733 282.253 484.277 282.68 479.84 282.68H408.416ZM418.912 318.52H469.472V312.888H418.912V318.52ZM427.872 333.112H460.512C463.925 333.112 466.229 332.813 467.424 332.216C468.619 331.533 469.301 329.955 469.472 327.48H418.912C419.083 329.955 419.765 331.533 420.96 332.216C422.155 332.813 424.459 333.112 427.872 333.112ZM418.912 303.928H469.344C469.259 301.539 468.576 300.045 467.296 299.448C466.101 298.851 463.84 298.552 460.512 298.552H427.872C424.544 298.552 422.24 298.851 420.96 299.448C419.765 300.045 419.083 301.539 418.912 303.928ZM411.744 271.672H421.728V262.328H411.744C409.269 262.328 407.648 262.627 406.88 263.224C406.197 263.821 405.856 265.059 405.856 266.936C405.856 268.813 406.197 270.093 406.88 270.776C407.648 271.373 409.269 271.672 411.744 271.672ZM466.656 271.672H476.512C478.987 271.672 480.565 271.373 481.248 270.776C482.016 270.093 482.4 268.813 482.4 266.936C482.4 265.059 482.016 263.821 481.248 263.224C480.565 262.627 478.987 262.328 476.512 262.328H466.656V271.672ZM436.704 271.672H451.68V262.328H436.704V271.672ZM563.04 367.288C560.48 367.288 558.432 366.733 556.896 365.624C555.445 364.6 554.635 362.808 554.464 360.248C554.293 358.2 554.891 356.493 556.256 355.128C557.707 353.763 559.627 353.037 562.016 352.952C566.795 352.781 569.995 351.757 571.616 349.88C573.237 348.003 574.048 344.632 574.048 339.768C574.048 339.256 574.048 338.787 574.048 338.36C574.048 337.848 574.005 337.379 573.92 336.952C569.739 339.683 564.832 342.499 559.2 345.4C553.653 348.301 547.851 350.989 541.792 353.464C535.819 355.939 530.101 357.901 524.64 359.352C522.421 359.949 520.459 359.907 518.752 359.224C517.045 358.541 515.851 357.133 515.168 355C514.571 353.037 514.699 351.288 515.552 349.752C516.491 348.216 517.941 347.192 519.904 346.68C523.915 345.656 528.181 344.291 532.704 342.584C537.312 340.877 541.963 339 546.656 336.952C551.349 334.819 555.829 332.643 560.096 330.424C564.448 328.12 568.331 325.901 571.744 323.768C571.403 322.659 571.019 321.592 570.592 320.568C570.165 319.544 569.696 318.52 569.184 317.496C565.429 320.141 561.077 322.744 556.128 325.304C551.264 327.779 546.187 330.083 540.896 332.216C535.605 334.349 530.571 336.184 525.792 337.72C523.403 338.488 521.44 338.488 519.904 337.72C518.453 336.952 517.387 335.715 516.704 334.008C516.107 332.301 516.192 330.637 516.96 329.016C517.728 327.395 519.179 326.285 521.312 325.688C526.261 324.408 531.296 322.787 536.416 320.824C541.536 318.861 546.4 316.771 551.008 314.552C555.701 312.248 559.755 310.029 563.168 307.896C562.571 307.213 561.973 306.531 561.376 305.848C560.864 305.08 560.267 304.355 559.584 303.672C554.379 306.403 548.917 308.92 543.2 311.224C537.483 313.528 531.552 315.533 525.408 317.24C520.629 318.52 517.557 317.325 516.192 313.656C515.509 311.864 515.509 310.157 516.192 308.536C516.96 306.915 518.453 305.805 520.672 305.208C526.645 303.757 532.576 301.923 538.464 299.704C544.352 297.4 549.899 294.925 555.104 292.28H541.408C539.531 292.28 538.037 291.683 536.928 290.488C535.819 289.208 535.264 287.757 535.264 286.136C535.264 284.429 535.819 282.979 536.928 281.784C538.037 280.589 539.531 279.992 541.408 279.992H602.208C604.171 279.992 605.664 280.589 606.688 281.784C607.797 282.979 608.352 284.429 608.352 286.136C608.352 287.757 607.797 289.208 606.688 290.488C605.664 291.683 604.171 292.28 602.208 292.28H577.76C575.371 294.157 572.853 295.907 570.208 297.528C575.499 302.051 579.637 307.341 582.624 313.4C585.44 311.693 588.384 309.859 591.456 307.896C594.613 305.848 597.6 303.843 600.416 301.88C603.317 299.917 605.664 298.211 607.456 296.76C609.333 295.309 611.253 294.712 613.216 294.968C615.264 295.139 616.757 295.907 617.696 297.272C618.891 299.149 619.317 300.984 618.976 302.776C618.72 304.483 617.739 305.933 616.032 307.128C612.875 309.261 609.163 311.651 604.896 314.296C600.629 316.941 596.405 319.373 592.224 321.592C595.637 324.579 599.392 327.48 603.488 330.296C607.584 333.027 611.723 335.544 615.904 337.848C620.085 340.067 623.968 341.944 627.552 343.48C629.515 344.333 630.88 345.699 631.648 347.576C632.416 349.453 632.331 351.245 631.392 352.952C630.197 355.341 628.533 356.749 626.4 357.176C624.267 357.603 622.176 357.304 620.128 356.28C616.885 354.659 613.344 352.696 609.504 350.392C605.749 348.088 601.995 345.528 598.24 342.712C594.571 339.896 591.2 336.952 588.128 333.88C588.299 334.733 588.384 335.629 588.384 336.568C588.384 337.421 588.384 338.317 588.384 339.256C588.384 348.899 586.293 355.981 582.112 360.504C577.931 365.027 571.573 367.288 563.04 367.288ZM523.488 290.36C521.44 290.36 519.691 289.72 518.24 288.44C516.875 287.16 516.192 285.411 516.192 283.192V278.328C516.192 271.587 517.771 266.808 520.928 263.992C524.171 261.176 529.675 259.768 537.44 259.768H564.192V253.24C564.192 251.021 564.96 249.187 566.496 247.736C568.117 246.2 570.037 245.432 572.256 245.432C574.475 245.432 576.352 246.2 577.888 247.736C579.509 249.187 580.32 251.021 580.32 253.24V259.768H606.432C614.283 259.768 619.787 261.176 622.944 263.992C626.187 266.808 627.808 271.587 627.808 278.328V283.192C627.808 285.411 627.083 287.16 625.632 288.44C624.181 289.72 622.432 290.36 620.384 290.36C618.336 290.36 616.587 289.763 615.136 288.568C613.685 287.373 612.96 285.667 612.96 283.448V279.224C612.96 276.835 612.363 275.128 611.168 274.104C609.973 273.08 607.797 272.568 604.64 272.568H539.232C536.075 272.568 533.899 273.08 532.704 274.104C531.509 275.128 530.912 276.835 530.912 279.224V283.448C530.912 285.667 530.187 287.373 528.736 288.568C527.285 289.763 525.536 290.36 523.488 290.36ZM724.32 365.24C722.187 365.24 720.352 364.557 718.816 363.192C717.365 361.827 716.64 359.992 716.64 357.688V318.008H694.496C692.619 318.008 690.997 317.325 689.632 315.96C688.352 314.595 687.712 312.973 687.712 311.096C687.712 309.219 688.352 307.64 689.632 306.36C690.997 304.995 692.619 304.312 694.496 304.312H716.64V279.096H709.344C707.979 282.168 706.528 285.112 704.992 287.928C703.541 290.659 702.091 293.176 700.64 295.48C699.445 297.357 697.781 298.509 695.648 298.936C693.515 299.363 691.509 299.021 689.632 297.912C687.84 296.803 686.773 295.267 686.432 293.304C686.091 291.256 686.475 289.421 687.584 287.8C689.547 284.813 691.595 281.187 693.728 276.92C695.861 272.568 697.867 268.173 699.744 263.736C701.621 259.299 703.029 255.373 703.968 251.96C704.651 249.741 705.931 248.248 707.808 247.48C709.685 246.712 711.605 246.627 713.568 247.224C715.531 247.821 716.981 248.973 717.92 250.68C718.944 252.301 719.115 254.093 718.432 256.056C717.92 257.677 717.365 259.341 716.768 261.048C716.171 262.669 715.531 264.376 714.848 266.168H749.664C751.456 266.168 752.949 266.808 754.144 268.088C755.424 269.283 756.064 270.776 756.064 272.568C756.064 274.36 755.424 275.896 754.144 277.176C752.949 278.456 751.456 279.096 749.664 279.096H731.872V304.312H752.992C754.955 304.312 756.576 304.995 757.856 306.36C759.221 307.64 759.904 309.219 759.904 311.096C759.904 312.973 759.221 314.595 757.856 315.96C756.576 317.325 754.955 318.008 752.992 318.008H731.872V357.688C731.872 359.992 731.104 361.827 729.568 363.192C728.117 364.557 726.368 365.24 724.32 365.24ZM666.08 362.808C660.96 362.808 656.949 362.168 654.048 360.888C651.147 359.693 649.099 357.731 647.904 355C646.709 352.184 646.112 348.472 646.112 343.864C646.112 339.085 646.709 335.331 647.904 332.6C649.099 329.869 651.147 327.949 654.048 326.84C656.949 325.645 660.96 325.048 666.08 325.048C671.2 325.048 675.211 325.645 678.112 326.84C681.013 327.949 683.019 329.869 684.128 332.6C685.323 335.331 685.92 339.085 685.92 343.864C685.92 348.472 685.323 352.184 684.128 355C683.019 357.731 681.013 359.693 678.112 360.888C675.211 362.168 671.2 362.808 666.08 362.808ZM645.856 283.064C644.235 283.064 642.827 282.467 641.632 281.272C640.523 280.077 639.968 278.669 639.968 277.048C639.968 275.341 640.523 273.933 641.632 272.824C642.827 271.629 644.235 271.032 645.856 271.032H684.768C686.389 271.032 687.755 271.629 688.864 272.824C690.059 273.933 690.656 275.341 690.656 277.048C690.656 278.669 690.059 280.077 688.864 281.272C687.755 282.467 686.389 283.064 684.768 283.064H645.856ZM652.256 265.016C650.635 265.016 649.227 264.419 648.032 263.224C646.837 261.944 646.24 260.493 646.24 258.872C646.24 257.165 646.837 255.715 648.032 254.52C649.227 253.325 650.635 252.728 652.256 252.728H679.008C680.715 252.728 682.123 253.325 683.232 254.52C684.427 255.715 685.024 257.165 685.024 258.872C685.024 260.493 684.427 261.944 683.232 263.224C682.123 264.419 680.715 265.016 679.008 265.016H652.256ZM652.128 319.16C650.507 319.16 649.099 318.563 647.904 317.368C646.709 316.088 646.112 314.637 646.112 313.016C646.112 311.395 646.709 309.987 647.904 308.792C649.099 307.597 650.507 307 652.128 307H679.136C680.757 307 682.123 307.597 683.232 308.792C684.427 309.987 685.024 311.395 685.024 313.016C685.024 314.637 684.427 316.088 683.232 317.368C682.123 318.563 680.757 319.16 679.136 319.16H652.128ZM652.128 301.112C650.507 301.112 649.099 300.515 647.904 299.32C646.709 298.04 646.112 296.589 646.112 294.968C646.112 293.347 646.709 291.939 647.904 290.744C649.099 289.549 650.507 288.952 652.128 288.952H679.136C680.757 288.952 682.123 289.549 683.232 290.744C684.427 291.939 685.024 293.347 685.024 294.968C685.024 296.589 684.427 298.04 683.232 299.32C682.123 300.515 680.757 301.112 679.136 301.112H652.128ZM666.08 351.16C668.64 351.16 670.347 350.691 671.2 349.752C672.053 348.813 672.48 346.851 672.48 343.864C672.48 340.963 672.053 339.043 671.2 338.104C670.347 337.08 668.64 336.568 666.08 336.568C663.435 336.568 661.685 337.08 660.832 338.104C659.979 339.043 659.552 340.963 659.552 343.864C659.552 346.851 659.979 348.813 660.832 349.752C661.685 350.691 663.435 351.16 666.08 351.16ZM799.968 365.24C798.261 365.24 796.725 364.685 795.36 363.576C794.08 362.467 793.355 361.016 793.184 359.224C793.099 357.517 793.525 356.067 794.464 354.872C795.403 353.677 796.683 352.995 798.304 352.824C800.608 352.483 802.059 352.013 802.656 351.416C803.253 350.733 803.552 349.325 803.552 347.192V319.16C798.517 318.648 794.976 317.197 792.928 314.808C790.965 312.419 789.984 308.749 789.984 303.8V288.312C789.984 284.045 790.709 280.76 792.16 278.456C793.611 276.067 796.128 274.445 799.712 273.592C800.224 272.056 800.821 270.264 801.504 268.216C802.187 266.083 802.741 264.291 803.168 262.84H793.696C790.795 262.84 788.704 263.437 787.424 264.632C786.144 265.741 785.504 267.661 785.504 270.392V298.936C785.504 311.736 784.949 322.872 783.84 332.344C782.731 341.816 781.195 349.923 779.232 356.664C778.72 358.371 777.696 359.651 776.16 360.504C774.709 361.443 773.045 361.741 771.168 361.4C769.291 360.973 767.925 359.992 767.072 358.456C766.304 356.92 766.176 355.299 766.688 353.592C768.907 346.339 770.485 338.36 771.424 329.656C772.448 320.952 772.96 310.712 772.96 298.936V269.496C772.96 262.925 774.539 258.232 777.696 255.416C780.853 252.515 785.717 251.064 792.288 251.064H824.672C827.573 251.064 829.451 252.344 830.304 254.904C830.987 252.344 832.864 251.064 835.936 251.064H883.424C885.387 251.064 886.88 251.619 887.904 252.728C889.013 253.837 889.568 255.245 889.568 256.952C889.568 258.573 889.013 259.981 887.904 261.176C886.88 262.285 885.387 262.84 883.424 262.84H865.632C865.205 264.205 864.693 265.784 864.096 267.576C863.499 269.368 862.901 270.989 862.304 272.44H863.328C870.24 272.44 875.104 273.677 877.92 276.152C880.736 278.541 882.144 282.637 882.144 288.44V322.104C882.144 327.224 881.035 331.021 878.816 333.496C876.597 335.971 872.8 337.421 867.424 337.848C868.277 337.933 869.131 338.147 869.984 338.488C870.837 338.744 871.563 339.213 872.16 339.896C874.123 341.859 876.555 343.949 879.456 346.168C882.443 348.387 885.344 350.435 888.16 352.312C889.611 353.251 890.464 354.616 890.72 356.408C890.976 358.285 890.635 359.949 889.696 361.4C888.501 363.192 886.923 364.088 884.96 364.088C882.997 364.173 881.163 363.661 879.456 362.552C876.725 360.589 873.867 358.328 870.88 355.768C867.893 353.293 865.163 350.733 862.688 348.088C861.493 346.808 860.939 345.315 861.024 343.608C861.195 341.901 861.877 340.493 863.072 339.384C863.755 338.701 864.693 338.232 865.888 337.976C865.461 337.976 865.035 338.019 864.608 338.104C864.181 338.104 863.755 338.104 863.328 338.104H853.216C846.304 338.104 841.44 336.867 838.624 334.392C835.808 331.917 834.4 327.821 834.4 322.104V288.44C834.4 283.491 835.424 279.779 837.472 277.304C839.605 274.829 843.147 273.293 848.096 272.696C848.608 271.245 849.163 269.581 849.76 267.704C850.357 265.827 850.869 264.205 851.296 262.84H835.936C832.864 262.84 830.987 261.56 830.304 259C829.963 260.109 829.28 261.048 828.256 261.816C827.317 262.499 826.123 262.84 824.672 262.84H817.504C817.077 264.291 816.523 265.955 815.84 267.832C815.243 269.624 814.688 271.288 814.176 272.824C819.552 273.251 823.307 274.659 825.44 277.048C827.573 279.352 828.64 283.107 828.64 288.312V303.8C828.64 308.749 827.659 312.419 825.696 314.808C823.733 317.197 820.277 318.648 815.328 319.16V349.624C815.328 354.915 814.091 358.797 811.616 361.272C809.141 363.747 805.259 365.069 799.968 365.24ZM835.68 363.192C834.059 364.301 832.267 364.813 830.304 364.728C828.341 364.728 826.763 363.875 825.568 362.168C824.544 360.717 824.16 359.096 824.416 357.304C824.757 355.512 825.611 354.147 826.976 353.208C829.792 351.331 832.779 349.24 835.936 346.936C839.093 344.547 841.696 342.328 843.744 340.28C844.939 339.085 846.517 338.445 848.48 338.36C850.443 338.189 851.979 338.659 853.088 339.768C854.283 340.877 854.923 342.243 855.008 343.864C855.179 345.485 854.667 346.979 853.472 348.344C851.083 351.075 848.267 353.72 845.024 356.28C841.781 358.925 838.667 361.229 835.68 363.192ZM787.68 349.112C786.315 348.515 785.333 347.533 784.736 346.168C784.139 344.717 784.139 343.309 784.736 341.944C785.419 340.579 786.187 338.957 787.04 337.08C787.893 335.203 788.704 333.325 789.472 331.448C790.24 329.485 790.837 327.821 791.264 326.456C791.691 325.005 792.587 323.896 793.952 323.128C795.317 322.275 796.725 322.061 798.176 322.488C799.712 322.829 800.864 323.683 801.632 325.048C802.4 326.413 802.571 327.821 802.144 329.272C801.461 331.661 800.437 334.52 799.072 337.848C797.707 341.091 796.469 343.821 795.36 346.04C794.592 347.405 793.483 348.429 792.032 349.112C790.581 349.709 789.131 349.709 787.68 349.112ZM830.176 347.576C828.64 348.259 827.147 348.344 825.696 347.832C824.245 347.32 823.179 346.253 822.496 344.632C821.984 343.352 821.344 341.816 820.576 340.024C819.808 338.147 819.04 336.312 818.272 334.52C817.589 332.643 817.035 331.064 816.608 329.784C816.096 328.333 816.181 326.925 816.864 325.56C817.632 324.109 818.784 323.171 820.32 322.744C821.771 322.317 823.136 322.445 824.416 323.128C825.781 323.811 826.72 324.877 827.232 326.328C827.659 327.437 828.213 328.888 828.896 330.68C829.664 332.387 830.432 334.136 831.2 335.928C831.968 337.635 832.565 339.043 832.992 340.152C833.76 341.773 833.845 343.267 833.248 344.632C832.651 345.997 831.627 346.979 830.176 347.576ZM856.032 326.456H860.512C863.755 326.456 865.888 326.072 866.912 325.304C868.021 324.451 868.576 322.573 868.576 319.672V318.776H847.968V319.672C847.968 322.573 848.48 324.451 849.504 325.304C850.613 326.072 852.789 326.456 856.032 326.456ZM847.968 308.408H868.576V301.496H847.968V308.408ZM847.968 291.128H868.576V290.872C868.576 287.971 868.021 286.136 866.912 285.368C865.888 284.515 863.755 284.088 860.512 284.088H856.032C852.789 284.088 850.613 284.515 849.504 285.368C848.48 286.136 847.968 287.971 847.968 290.872V291.128ZM809.312 309.176C812.213 309.176 814.133 308.792 815.072 308.024C816.096 307.256 816.608 305.549 816.608 302.904V300.856H802.016V302.904C802.016 305.549 802.485 307.256 803.424 308.024C804.448 308.792 806.411 309.176 809.312 309.176ZM802.016 291H816.608V289.208C816.608 286.563 816.096 284.899 815.072 284.216C814.133 283.448 812.213 283.064 809.312 283.064C806.411 283.064 804.448 283.448 803.424 284.216C802.485 284.899 802.016 286.563 802.016 289.208V291ZM910.56 369.592C909.28 370.189 907.915 370.317 906.464 369.976C905.099 369.635 904.075 368.824 903.392 367.544C902.795 366.264 902.667 364.899 903.008 363.448C903.435 362.083 904.331 361.101 905.696 360.504C910.048 358.627 913.419 356.237 915.808 353.336C918.197 350.349 919.392 347.192 919.392 343.864C919.392 342.584 919.179 341.432 918.752 340.408C917.899 341.773 916.704 342.925 915.168 343.864C913.717 344.717 912.181 345.144 910.56 345.144C907.829 345.144 905.483 344.248 903.52 342.456C901.557 340.664 900.576 338.232 900.576 335.16C900.576 332.088 901.685 329.699 903.904 327.992C906.208 326.285 908.896 325.389 911.968 325.304C916.747 325.219 920.715 326.968 923.872 330.552C927.115 334.051 928.736 338.659 928.736 344.376C928.736 350.093 927.243 355.043 924.256 359.224C921.355 363.491 916.789 366.947 910.56 369.592ZM1039.07 366.904C1034.29 367.843 1031.48 366.392 1030.62 362.552C1030.28 360.845 1030.62 359.309 1031.65 357.944C1032.67 356.579 1034.12 355.725 1036 355.384C1039.67 354.787 1043.81 353.933 1048.42 352.824C1053.02 351.629 1057.08 350.349 1060.58 348.984C1054.86 348.557 1050.89 347.021 1048.67 344.376C1046.45 341.731 1045.34 337.421 1045.34 331.448V321.72C1045.34 317.197 1045.94 313.656 1047.14 311.096C1048.33 308.536 1050.38 306.744 1053.28 305.72C1056.27 304.611 1060.28 304.056 1065.31 304.056H1103.07C1108.11 304.056 1112.07 304.611 1114.98 305.72C1117.88 306.744 1119.93 308.536 1121.12 311.096C1122.4 313.656 1123.04 317.197 1123.04 321.72V331.448C1123.04 337.421 1121.93 341.731 1119.71 344.376C1117.49 347.021 1113.53 348.557 1107.81 348.984C1111.31 350.349 1115.36 351.629 1119.97 352.824C1124.58 353.933 1128.71 354.787 1132.38 355.384C1134.35 355.725 1135.84 356.579 1136.86 357.944C1137.89 359.309 1138.19 360.845 1137.76 362.552C1136.91 366.392 1134.09 367.843 1129.31 366.904C1126.41 366.307 1123.21 365.539 1119.71 364.6C1116.21 363.747 1112.76 362.723 1109.34 361.528C1105.93 360.419 1102.9 359.267 1100.26 358.072C1098.38 357.219 1097.23 356.152 1096.8 354.872C1096.37 353.507 1096.46 352.013 1097.06 350.392C1097.14 350.136 1097.27 349.923 1097.44 349.752C1097.61 349.496 1097.74 349.283 1097.82 349.112H1070.56C1070.73 349.283 1070.86 349.496 1070.94 349.752C1071.11 349.923 1071.24 350.136 1071.33 350.392C1072.01 352.013 1072.1 353.507 1071.58 354.872C1071.16 356.152 1070.01 357.219 1068.13 358.072C1065.48 359.267 1062.45 360.419 1059.04 361.528C1055.63 362.723 1052.17 363.747 1048.67 364.6C1045.17 365.539 1041.97 366.307 1039.07 366.904ZM1045.34 300.472C1041.16 300.472 1038.09 299.747 1036.13 298.296C1034.17 296.76 1033.18 294.072 1033.18 290.232C1033.18 286.477 1034.17 283.832 1036.13 282.296C1038.09 280.675 1041.16 279.864 1045.34 279.864H1122.53C1126.79 279.864 1129.87 280.632 1131.74 282.168C1133.71 283.704 1134.69 286.392 1134.69 290.232C1134.69 294.072 1133.71 296.76 1131.74 298.296C1129.87 299.747 1126.79 300.472 1122.53 300.472H1045.34ZM1041.89 276.408C1040.52 276.408 1039.46 275.981 1038.69 275.128C1037.92 274.189 1037.54 273.123 1037.54 271.928C1037.54 270.733 1037.92 269.709 1038.69 268.856C1039.46 267.917 1040.52 267.448 1041.89 267.448H1077.09V263.736H1033.7C1032.16 263.736 1030.97 263.267 1030.11 262.328C1029.26 261.304 1028.83 260.152 1028.83 258.872C1028.83 257.507 1029.26 256.355 1030.11 255.416C1030.97 254.392 1032.16 253.88 1033.7 253.88H1077.09V252.472C1077.09 250.253 1077.77 248.547 1079.14 247.352C1080.59 246.072 1082.29 245.432 1084.26 245.432C1086.22 245.432 1087.88 246.072 1089.25 247.352C1090.7 248.547 1091.42 250.253 1091.42 252.472V253.88H1134.18C1135.63 253.88 1136.78 254.392 1137.63 255.416C1138.49 256.355 1138.91 257.507 1138.91 258.872C1138.91 260.152 1138.49 261.304 1137.63 262.328C1136.78 263.267 1135.63 263.736 1134.18 263.736H1091.42V267.448H1123.55C1125 267.448 1126.07 267.917 1126.75 268.856C1127.52 269.709 1127.9 270.733 1127.9 271.928C1127.9 273.123 1127.52 274.189 1126.75 275.128C1126.07 275.981 1125 276.408 1123.55 276.408H1041.89ZM1059.81 328.76H1108.58V324.024H1059.81V328.76ZM1068.26 340.28H1100.13C1103.11 340.28 1105.21 339.981 1106.4 339.384C1107.59 338.787 1108.28 337.507 1108.45 335.544H1059.94C1060.11 337.507 1060.79 338.787 1061.98 339.384C1063.18 339.981 1065.27 340.28 1068.26 340.28ZM1059.94 317.24H1108.32C1108.15 315.363 1107.47 314.211 1106.27 313.784C1105.08 313.272 1103.03 313.016 1100.13 313.016H1068.26C1065.35 313.016 1063.31 313.272 1062.11 313.784C1060.92 314.211 1060.19 315.363 1059.94 317.24ZM1076.19 293.048H1091.68V287.416H1076.19V293.048ZM1050.46 293.048H1062.62V287.416H1050.46C1049.1 287.416 1048.2 287.587 1047.78 287.928C1047.35 288.269 1047.14 289.037 1047.14 290.232C1047.14 291.341 1047.35 292.109 1047.78 292.536C1048.2 292.877 1049.1 293.048 1050.46 293.048ZM1105.38 293.048H1117.41C1118.77 293.048 1119.67 292.877 1120.1 292.536C1120.52 292.109 1120.74 291.341 1120.74 290.232C1120.74 289.037 1120.52 288.269 1120.1 287.928C1119.67 287.587 1118.77 287.416 1117.41 287.416H1105.38V293.048ZM1203.04 367.288C1200.48 367.288 1198.43 366.733 1196.9 365.624C1195.45 364.6 1194.63 362.808 1194.46 360.248C1194.29 358.2 1194.89 356.493 1196.26 355.128C1197.71 353.763 1199.63 353.037 1202.02 352.952C1206.79 352.781 1209.99 351.757 1211.62 349.88C1213.24 348.003 1214.05 344.632 1214.05 339.768C1214.05 339.256 1214.05 338.787 1214.05 338.36C1214.05 337.848 1214.01 337.379 1213.92 336.952C1209.74 339.683 1204.83 342.499 1199.2 345.4C1193.65 348.301 1187.85 350.989 1181.79 353.464C1175.82 355.939 1170.1 357.901 1164.64 359.352C1162.42 359.949 1160.46 359.907 1158.75 359.224C1157.05 358.541 1155.85 357.133 1155.17 355C1154.57 353.037 1154.7 351.288 1155.55 349.752C1156.49 348.216 1157.94 347.192 1159.9 346.68C1163.91 345.656 1168.18 344.291 1172.7 342.584C1177.31 340.877 1181.96 339 1186.66 336.952C1191.35 334.819 1195.83 332.643 1200.1 330.424C1204.45 328.12 1208.33 325.901 1211.74 323.768C1211.4 322.659 1211.02 321.592 1210.59 320.568C1210.17 319.544 1209.7 318.52 1209.18 317.496C1205.43 320.141 1201.08 322.744 1196.13 325.304C1191.26 327.779 1186.19 330.083 1180.9 332.216C1175.61 334.349 1170.57 336.184 1165.79 337.72C1163.4 338.488 1161.44 338.488 1159.9 337.72C1158.45 336.952 1157.39 335.715 1156.7 334.008C1156.11 332.301 1156.19 330.637 1156.96 329.016C1157.73 327.395 1159.18 326.285 1161.31 325.688C1166.26 324.408 1171.3 322.787 1176.42 320.824C1181.54 318.861 1186.4 316.771 1191.01 314.552C1195.7 312.248 1199.75 310.029 1203.17 307.896C1202.57 307.213 1201.97 306.531 1201.38 305.848C1200.86 305.08 1200.27 304.355 1199.58 303.672C1194.38 306.403 1188.92 308.92 1183.2 311.224C1177.48 313.528 1171.55 315.533 1165.41 317.24C1160.63 318.52 1157.56 317.325 1156.19 313.656C1155.51 311.864 1155.51 310.157 1156.19 308.536C1156.96 306.915 1158.45 305.805 1160.67 305.208C1166.65 303.757 1172.58 301.923 1178.46 299.704C1184.35 297.4 1189.9 294.925 1195.1 292.28H1181.41C1179.53 292.28 1178.04 291.683 1176.93 290.488C1175.82 289.208 1175.26 287.757 1175.26 286.136C1175.26 284.429 1175.82 282.979 1176.93 281.784C1178.04 280.589 1179.53 279.992 1181.41 279.992H1242.21C1244.17 279.992 1245.66 280.589 1246.69 281.784C1247.8 282.979 1248.35 284.429 1248.35 286.136C1248.35 287.757 1247.8 289.208 1246.69 290.488C1245.66 291.683 1244.17 292.28 1242.21 292.28H1217.76C1215.37 294.157 1212.85 295.907 1210.21 297.528C1215.5 302.051 1219.64 307.341 1222.62 313.4C1225.44 311.693 1228.38 309.859 1231.46 307.896C1234.61 305.848 1237.6 303.843 1240.42 301.88C1243.32 299.917 1245.66 298.211 1247.46 296.76C1249.33 295.309 1251.25 294.712 1253.22 294.968C1255.26 295.139 1256.76 295.907 1257.7 297.272C1258.89 299.149 1259.32 300.984 1258.98 302.776C1258.72 304.483 1257.74 305.933 1256.03 307.128C1252.87 309.261 1249.16 311.651 1244.9 314.296C1240.63 316.941 1236.41 319.373 1232.22 321.592C1235.64 324.579 1239.39 327.48 1243.49 330.296C1247.58 333.027 1251.72 335.544 1255.9 337.848C1260.09 340.067 1263.97 341.944 1267.55 343.48C1269.51 344.333 1270.88 345.699 1271.65 347.576C1272.42 349.453 1272.33 351.245 1271.39 352.952C1270.2 355.341 1268.53 356.749 1266.4 357.176C1264.27 357.603 1262.18 357.304 1260.13 356.28C1256.89 354.659 1253.34 352.696 1249.5 350.392C1245.75 348.088 1241.99 345.528 1238.24 342.712C1234.57 339.896 1231.2 336.952 1228.13 333.88C1228.3 334.733 1228.38 335.629 1228.38 336.568C1228.38 337.421 1228.38 338.317 1228.38 339.256C1228.38 348.899 1226.29 355.981 1222.11 360.504C1217.93 365.027 1211.57 367.288 1203.04 367.288ZM1163.49 290.36C1161.44 290.36 1159.69 289.72 1158.24 288.44C1156.87 287.16 1156.19 285.411 1156.19 283.192V278.328C1156.19 271.587 1157.77 266.808 1160.93 263.992C1164.17 261.176 1169.67 259.768 1177.44 259.768H1204.19V253.24C1204.19 251.021 1204.96 249.187 1206.5 247.736C1208.12 246.2 1210.04 245.432 1212.26 245.432C1214.47 245.432 1216.35 246.2 1217.89 247.736C1219.51 249.187 1220.32 251.021 1220.32 253.24V259.768H1246.43C1254.28 259.768 1259.79 261.176 1262.94 263.992C1266.19 266.808 1267.81 271.587 1267.81 278.328V283.192C1267.81 285.411 1267.08 287.16 1265.63 288.44C1264.18 289.72 1262.43 290.36 1260.38 290.36C1258.34 290.36 1256.59 289.763 1255.14 288.568C1253.69 287.373 1252.96 285.667 1252.96 283.448V279.224C1252.96 276.835 1252.36 275.128 1251.17 274.104C1249.97 273.08 1247.8 272.568 1244.64 272.568H1179.23C1176.07 272.568 1173.9 273.08 1172.7 274.104C1171.51 275.128 1170.91 276.835 1170.91 279.224V283.448C1170.91 285.667 1170.19 287.373 1168.74 288.568C1167.29 289.763 1165.54 290.36 1163.49 290.36ZM1296.99 367.544C1294.86 367.885 1293.11 367.629 1291.74 366.776C1290.38 366.008 1289.48 364.771 1289.06 363.064C1288.71 361.528 1288.93 360.077 1289.7 358.712C1290.55 357.347 1291.96 356.493 1293.92 356.152C1297.67 355.555 1301.98 354.701 1306.85 353.592C1311.71 352.483 1316.06 351.288 1319.9 350.008C1315.13 350.008 1311.33 349.539 1308.51 348.6C1305.7 347.576 1303.69 345.869 1302.5 343.48C1301.39 341.005 1300.83 337.549 1300.83 333.112V324.28C1300.83 319.843 1301.39 316.429 1302.5 314.04C1303.69 311.565 1305.7 309.859 1308.51 308.92C1311.33 307.896 1315.13 307.384 1319.9 307.384H1360.74C1365.6 307.384 1369.44 307.896 1372.26 308.92C1375.07 309.859 1377.03 311.565 1378.14 314.04C1379.34 316.429 1379.94 319.843 1379.94 324.28V333.112C1379.94 337.549 1379.34 341.005 1378.14 343.48C1377.03 345.869 1375.07 347.576 1372.26 348.6C1369.44 349.539 1365.6 350.008 1360.74 350.008H1360.61C1364.53 351.288 1368.93 352.483 1373.79 353.592C1378.66 354.701 1382.97 355.555 1386.72 356.152C1388.68 356.493 1390.05 357.347 1390.82 358.712C1391.58 360.077 1391.8 361.528 1391.46 363.064C1391.11 364.771 1390.26 366.008 1388.9 366.776C1387.53 367.629 1385.74 367.885 1383.52 367.544C1380.45 366.947 1376.99 366.179 1373.15 365.24C1369.4 364.301 1365.69 363.235 1362.02 362.04C1358.35 360.931 1355.1 359.779 1352.29 358.584C1350.92 357.987 1349.98 356.963 1349.47 355.512C1348.96 354.147 1348.96 352.824 1349.47 351.544C1349.64 351.288 1349.81 351.032 1349.98 350.776C1350.15 350.52 1350.33 350.264 1350.5 350.008H1330.02C1330.19 350.264 1330.36 350.52 1330.53 350.776C1330.78 351.032 1330.95 351.288 1331.04 351.544C1331.55 352.824 1331.55 354.147 1331.04 355.512C1330.53 356.963 1329.59 357.987 1328.22 358.584C1325.49 359.779 1322.25 360.931 1318.5 362.04C1314.83 363.235 1311.07 364.301 1307.23 365.24C1303.48 366.179 1300.06 366.947 1296.99 367.544ZM1320.54 303.544C1309.96 303.544 1304.8 299.448 1305.06 291.256H1286.24C1285.05 291.256 1284.02 290.787 1283.17 289.848C1282.31 288.824 1281.89 287.715 1281.89 286.52C1281.89 285.325 1282.31 284.259 1283.17 283.32C1284.02 282.381 1285.05 281.912 1286.24 281.912H1306.21C1306.98 277.645 1308.73 274.531 1311.46 272.568C1314.27 270.52 1318.41 269.496 1323.87 269.496H1361.12C1366.58 269.496 1370.55 270.563 1373.02 272.696C1375.58 274.829 1376.78 277.901 1376.61 281.912H1394.4C1395.59 281.912 1396.62 282.381 1397.47 283.32C1398.33 284.259 1398.75 285.325 1398.75 286.52C1398.75 287.715 1398.33 288.824 1397.47 289.848C1396.62 290.787 1395.59 291.256 1394.4 291.256H1375.46C1374.69 295.608 1372.9 298.765 1370.08 300.728C1367.26 302.605 1363.17 303.544 1357.79 303.544H1320.54ZM1290.98 279.608C1289.18 279.608 1287.61 279.053 1286.24 277.944C1284.96 276.749 1284.32 275.128 1284.32 273.08V267.576C1284.32 263.053 1285.47 259.939 1287.78 258.232C1290.17 256.44 1294.13 255.544 1299.68 255.544H1332.45V252.216C1332.45 250.083 1333.13 248.376 1334.5 247.096C1335.95 245.731 1337.82 245.048 1340.13 245.048C1342.52 245.048 1344.39 245.731 1345.76 247.096C1347.21 248.376 1347.94 250.083 1347.94 252.216V255.544H1380.96C1386.51 255.544 1390.43 256.44 1392.74 258.232C1395.04 259.939 1396.19 263.053 1396.19 267.576V273.08C1396.19 275.128 1395.55 276.749 1394.27 277.944C1392.99 279.053 1391.41 279.608 1389.54 279.608C1387.66 279.608 1386.08 279.053 1384.8 277.944C1383.52 276.749 1382.88 275.128 1382.88 273.08V269.496C1382.88 267.789 1382.5 266.68 1381.73 266.168C1381.05 265.571 1379.42 265.272 1376.86 265.272H1303.78C1301.22 265.272 1299.55 265.571 1298.78 266.168C1298.1 266.68 1297.76 267.789 1297.76 269.496V273.08C1297.76 275.128 1297.08 276.749 1295.71 277.944C1294.43 279.053 1292.85 279.608 1290.98 279.608ZM1314.27 330.68H1366.37V326.456H1314.27V330.68ZM1322.46 341.944H1358.3C1361.21 341.944 1363.21 341.688 1364.32 341.176C1365.43 340.664 1366.07 339.469 1366.24 337.592H1314.4C1314.66 339.469 1315.34 340.664 1316.45 341.176C1317.56 341.688 1319.56 341.944 1322.46 341.944ZM1314.53 319.544H1366.24C1365.98 317.837 1365.3 316.728 1364.19 316.216C1363.08 315.704 1361.12 315.448 1358.3 315.448H1322.46C1319.65 315.448 1317.64 315.704 1316.45 316.216C1315.34 316.728 1314.7 317.837 1314.53 319.544ZM1347.55 281.912H1363.94C1364.11 279.949 1363.72 278.669 1362.78 278.072C1361.93 277.475 1360.31 277.176 1357.92 277.176H1348.19L1347.55 281.912ZM1318.75 281.912H1335.01L1335.52 277.176H1326.05C1323.4 277.176 1321.61 277.475 1320.67 278.072C1319.73 278.669 1319.09 279.949 1318.75 281.912ZM1346.02 295.864H1355.62C1358.26 295.864 1360.05 295.565 1360.99 294.968C1361.93 294.371 1362.57 293.133 1362.91 291.256H1346.53L1346.02 295.864ZM1323.74 295.864H1333.34L1333.98 291.256H1317.73C1317.64 293.133 1318.03 294.371 1318.88 294.968C1319.82 295.565 1321.44 295.864 1323.74 295.864ZM1443.68 364.344C1441.38 364.941 1439.33 364.813 1437.54 363.96C1435.74 363.192 1434.55 361.827 1433.95 359.864C1433.44 357.987 1433.65 356.28 1434.59 354.744C1435.53 353.123 1436.98 352.013 1438.94 351.416C1447.05 348.941 1453.54 345.187 1458.4 340.152C1463.26 335.117 1466.76 328.973 1468.9 321.72C1464.97 320.525 1462.15 318.392 1460.45 315.32C1458.74 312.248 1457.89 307.896 1457.89 302.264V271.672C1457.89 263.821 1459.59 258.403 1463.01 255.416C1466.51 252.429 1472.27 250.936 1480.29 250.936H1494.75C1502.86 250.936 1508.62 252.429 1512.03 255.416C1515.53 258.403 1517.28 263.821 1517.28 271.672V302.264C1517.28 308.579 1516.13 313.315 1513.82 316.472C1511.61 319.544 1507.98 321.549 1502.94 322.488V344.504C1502.94 346.211 1503.41 347.405 1504.35 348.088C1505.29 348.771 1506.95 349.112 1509.34 349.112C1511.31 349.112 1512.84 348.6 1513.95 347.576C1515.06 346.552 1515.96 344.461 1516.64 341.304C1517.07 339.512 1518.18 338.147 1519.97 337.208C1521.76 336.269 1523.59 336.056 1525.47 336.568C1527.43 337.165 1528.89 338.232 1529.82 339.768C1530.76 341.304 1531.02 343.096 1530.59 345.144C1529.48 351.885 1527.05 356.621 1523.3 359.352C1519.63 362.083 1514.89 363.448 1509.09 363.448C1502.01 363.448 1496.8 362.211 1493.47 359.736C1490.23 357.347 1488.61 352.867 1488.61 346.296V323H1482.85C1480.46 332.899 1475.98 341.517 1469.41 348.856C1462.92 356.109 1454.35 361.272 1443.68 364.344ZM1416.16 344.888C1414.03 345.485 1412.11 345.315 1410.4 344.376C1408.69 343.352 1407.63 341.816 1407.2 339.768C1406.77 337.891 1407.03 336.141 1407.97 334.52C1408.91 332.899 1410.49 331.875 1412.7 331.448C1414.41 331.192 1416.2 330.851 1418.08 330.424C1420.04 329.997 1422.05 329.528 1424.1 329.016V303.032H1415.52C1413.56 303.032 1411.98 302.392 1410.78 301.112C1409.67 299.747 1409.12 298.211 1409.12 296.504C1409.12 294.712 1409.67 293.176 1410.78 291.896C1411.98 290.531 1413.56 289.848 1415.52 289.848H1424.1V268.088H1414.62C1412.66 268.088 1411.08 267.448 1409.89 266.168C1408.78 264.803 1408.22 263.224 1408.22 261.432C1408.22 259.725 1408.78 258.232 1409.89 256.952C1411.08 255.587 1412.66 254.904 1414.62 254.904H1448.03C1449.99 254.904 1451.57 255.587 1452.77 256.952C1453.96 258.232 1454.56 259.725 1454.56 261.432C1454.56 263.224 1453.96 264.803 1452.77 266.168C1451.57 267.448 1449.99 268.088 1448.03 268.088H1438.69V289.848H1446.24C1448.2 289.848 1449.74 290.531 1450.85 291.896C1452.04 293.176 1452.64 294.712 1452.64 296.504C1452.64 298.211 1452.04 299.747 1450.85 301.112C1449.74 302.392 1448.2 303.032 1446.24 303.032H1438.69V325.048C1440.57 324.536 1442.31 324.024 1443.94 323.512C1445.64 323 1447.18 322.531 1448.54 322.104C1450.25 321.507 1451.79 321.677 1453.15 322.616C1454.6 323.469 1455.54 324.664 1455.97 326.2C1456.39 327.992 1456.27 329.613 1455.58 331.064C1454.9 332.429 1453.58 333.453 1451.62 334.136C1449.48 334.904 1446.88 335.8 1443.81 336.824C1440.74 337.848 1437.49 338.872 1434.08 339.896C1430.75 340.92 1427.51 341.859 1424.35 342.712C1421.19 343.565 1418.46 344.291 1416.16 344.888ZM1473.12 291H1501.92V282.936H1473.12V291ZM1482.08 310.456H1493.09C1496.84 310.456 1499.23 309.944 1500.26 308.92C1501.37 307.896 1501.92 305.677 1501.92 302.264V302.136H1473.12V302.264C1473.12 305.677 1473.63 307.896 1474.66 308.92C1475.77 309.944 1478.24 310.456 1482.08 310.456ZM1473.12 271.8H1501.92V271.672C1501.92 268.344 1501.37 266.168 1500.26 265.144C1499.23 264.035 1496.84 263.48 1493.09 263.48H1482.08C1478.24 263.48 1475.77 264.035 1474.66 265.144C1473.63 266.168 1473.12 268.344 1473.12 271.672V271.8ZM1596 331.576C1594.29 331.576 1592.8 330.979 1591.52 329.784C1590.24 328.589 1589.51 327.096 1589.34 325.304C1589.09 322.061 1588.83 318.349 1588.58 314.168C1588.41 309.987 1588.19 305.72 1587.94 301.368C1587.68 296.931 1587.47 292.707 1587.3 288.696C1587.13 284.685 1587 281.144 1586.91 278.072C1586.83 275 1586.78 272.739 1586.78 271.288V258.616C1586.78 256.141 1587.64 254.051 1589.34 252.344C1591.14 250.637 1593.35 249.784 1596 249.784C1598.73 249.784 1600.95 250.637 1602.66 252.344C1604.45 254.051 1605.34 256.141 1605.34 258.616V271.288C1605.34 272.739 1605.26 275 1605.09 278.072C1605 281.144 1604.87 284.685 1604.7 288.696C1604.53 292.707 1604.32 296.931 1604.06 301.368C1603.89 305.72 1603.68 309.987 1603.42 314.168C1603.17 318.349 1602.91 322.061 1602.66 325.304C1602.57 327.096 1601.89 328.589 1600.61 329.784C1599.33 330.979 1597.79 331.576 1596 331.576ZM1596 362.808C1593.01 362.808 1590.45 361.741 1588.32 359.608C1586.19 357.475 1585.12 354.915 1585.12 351.928C1585.12 348.941 1586.19 346.381 1588.32 344.248C1590.45 342.115 1593.01 341.048 1596 341.048C1598.99 341.048 1601.55 342.115 1603.68 344.248C1605.81 346.381 1606.88 348.941 1606.88 351.928C1606.88 354.915 1605.81 357.475 1603.68 359.608C1601.55 361.741 1598.99 362.808 1596 362.808Z" fill="#004B97"/>
<path d="M697.04 184.312C695.973 184.312 695.035 183.928 694.224 183.16C693.456 182.349 693.072 181.411 693.072 180.344C693.072 179.235 693.456 178.296 694.224 177.528C695.035 176.76 695.973 176.376 697.04 176.376H746.896C748.005 176.376 748.944 176.76 749.712 177.528C750.48 178.296 750.864 179.235 750.864 180.344C750.864 181.411 750.48 182.349 749.712 183.16C748.944 183.928 748.005 184.312 746.896 184.312H697.04ZM703.184 150.008C702.117 150.008 701.2 149.624 700.432 148.856C699.664 148.045 699.28 147.107 699.28 146.04C699.28 144.931 699.664 144.013 700.432 143.288C701.2 142.52 702.117 142.136 703.184 142.136H740.688C741.797 142.136 742.736 142.52 743.504 143.288C744.272 144.013 744.656 144.931 744.656 146.04C744.656 147.107 744.272 148.045 743.504 148.856C742.736 149.624 741.797 150.008 740.688 150.008H703.184ZM778.576 192.056C775.717 192.056 774.117 190.712 773.776 188.024C773.648 186.787 773.989 185.741 774.8 184.888C775.653 184.035 776.912 183.544 778.576 183.416C780.197 183.245 781.264 182.947 781.776 182.52C782.288 182.093 782.544 181.261 782.544 180.024V171.96H759.632C758.608 171.96 757.733 171.619 757.008 170.936C756.325 170.211 755.984 169.336 755.984 168.312C755.984 167.331 756.325 166.477 757.008 165.752C757.733 165.027 758.608 164.664 759.632 164.664H782.544V158.584H764.688C763.707 158.584 762.853 158.243 762.128 157.56C761.403 156.835 761.04 155.981 761.04 155C761.04 154.019 761.403 153.187 762.128 152.504C762.853 151.779 763.707 151.416 764.688 151.416H782.544V144.888C779.472 145.187 776.379 145.421 773.264 145.592C770.149 145.763 767.099 145.869 764.112 145.912C762.917 145.955 761.957 145.635 761.232 144.952C760.507 144.269 760.123 143.352 760.08 142.2C760.037 141.091 760.4 140.216 761.168 139.576C761.936 138.936 762.917 138.616 764.112 138.616C767.184 138.573 770.469 138.445 773.968 138.232C777.509 138.019 781.029 137.72 784.528 137.336C788.069 136.909 791.44 136.44 794.64 135.928C797.84 135.373 800.677 134.776 803.152 134.136C804.389 133.795 805.456 133.88 806.352 134.392C807.291 134.904 807.888 135.629 808.144 136.568C808.443 137.72 808.357 138.765 807.888 139.704C807.461 140.6 806.651 141.176 805.456 141.432C803.28 141.901 800.955 142.349 798.48 142.776C796.048 143.203 793.509 143.587 790.864 143.928V151.416H807.44C808.421 151.416 809.275 151.779 810 152.504C810.725 153.187 811.088 154.019 811.088 155C811.088 155.981 810.725 156.835 810 157.56C809.275 158.243 808.421 158.584 807.44 158.584H790.864V164.664H812.496C813.52 164.664 814.373 165.027 815.056 165.752C815.781 166.477 816.144 167.331 816.144 168.312C816.144 169.336 815.781 170.211 815.056 170.936C814.373 171.619 813.52 171.96 812.496 171.96H790.864V180.984C790.864 184.909 789.904 187.725 787.984 189.432C786.064 191.181 782.928 192.056 778.576 192.056ZM827.536 193.016C826.512 193.016 825.637 192.675 824.912 191.992C824.187 191.309 823.824 190.392 823.824 189.24V164.408C823.824 161.293 824.208 158.883 824.976 157.176C825.744 155.427 827.067 154.211 828.944 153.528C830.864 152.803 833.552 152.44 837.008 152.44C836.667 151.715 836.347 151.032 836.048 150.392C835.749 149.752 835.515 149.261 835.344 148.92C835.045 148.237 834.96 147.555 835.088 146.872C835.259 146.189 835.579 145.613 836.048 145.144H823.824C822.971 145.144 822.224 144.824 821.584 144.184C820.987 143.544 820.688 142.797 820.688 141.944C820.688 141.048 820.987 140.28 821.584 139.64C822.224 139 822.971 138.68 823.824 138.68H846.032V135.928C846.032 134.733 846.416 133.816 847.184 133.176C847.995 132.536 848.933 132.216 850 132.216C851.067 132.216 851.984 132.536 852.752 133.176C853.52 133.816 853.904 134.733 853.904 135.928V138.68H876.176C877.072 138.68 877.819 139 878.416 139.64C879.056 140.28 879.376 141.048 879.376 141.944C879.376 142.797 879.056 143.544 878.416 144.184C877.819 144.824 877.072 145.144 876.176 145.144H862.928C863.568 145.656 863.973 146.317 864.144 147.128C864.357 147.896 864.251 148.643 863.824 149.368C863.653 149.709 863.419 150.157 863.12 150.712C862.821 151.267 862.501 151.843 862.16 152.44H862.736C866.235 152.44 868.944 152.803 870.864 153.528C872.827 154.211 874.192 155.427 874.96 157.176C875.728 158.883 876.112 161.293 876.112 164.408V182.904C876.112 186.531 875.28 189.091 873.616 190.584C871.995 192.12 869.52 192.888 866.192 192.888C865.04 192.888 864.059 192.568 863.248 191.928C862.48 191.331 862.053 190.477 861.968 189.368C861.883 188.387 862.16 187.512 862.8 186.744C863.483 185.976 864.379 185.549 865.488 185.464C866.853 185.336 867.728 185.08 868.112 184.696C868.496 184.312 868.688 183.587 868.688 182.52V166.776C867.963 168.355 866.875 169.485 865.424 170.168C863.973 170.808 862.117 171.128 859.856 171.128C856.4 171.128 854.011 170.595 852.688 169.528C851.408 168.461 850.768 166.499 850.768 163.64V159.032H846.928C846.544 162.147 845.563 164.984 843.984 167.544C842.405 170.104 839.653 172.237 835.728 173.944C834.96 174.285 834.171 174.413 833.36 174.328C832.549 174.2 831.867 173.837 831.312 173.24V189.24C831.312 190.392 830.949 191.309 830.224 191.992C829.499 192.675 828.603 193.016 827.536 193.016ZM847.824 188.92C845.392 188.92 843.472 188.643 842.064 188.088C840.699 187.576 839.739 186.701 839.184 185.464C838.629 184.227 838.352 182.584 838.352 180.536C838.352 177.464 839.013 175.309 840.336 174.072C841.701 172.792 844.197 172.152 847.824 172.152H852.304C854.779 172.152 856.699 172.429 858.064 172.984C859.429 173.539 860.389 174.435 860.944 175.672C861.499 176.867 861.776 178.488 861.776 180.536C861.776 182.584 861.499 184.227 860.944 185.464C860.389 186.701 859.429 187.576 858.064 188.088C856.699 188.643 854.779 188.92 852.304 188.92H847.824ZM845.2 152.44H853.712C854.181 151.501 854.715 150.435 855.312 149.24C855.909 148.003 856.421 147 856.848 146.232C857.019 145.848 857.275 145.485 857.616 145.144H841.872C842 145.315 842.128 145.485 842.256 145.656C842.384 145.784 842.469 145.955 842.512 146.168C842.853 146.893 843.301 147.896 843.856 149.176C844.411 150.456 844.859 151.544 845.2 152.44ZM831.312 168.824C831.653 168.44 832.08 168.141 832.592 167.928C835.024 166.861 836.773 165.645 837.84 164.28C838.949 162.872 839.717 161.123 840.144 159.032H837.2C834.939 159.032 833.381 159.395 832.528 160.12C831.717 160.845 831.312 162.275 831.312 164.408V168.824ZM848.208 183.16H851.856C853.008 183.16 853.797 182.989 854.224 182.648C854.651 182.307 854.864 181.603 854.864 180.536C854.864 179.469 854.651 178.787 854.224 178.488C853.797 178.147 853.008 177.976 851.856 177.976H848.208C847.099 177.976 846.309 178.147 845.84 178.488C845.413 178.787 845.2 179.469 845.2 180.536C845.2 181.603 845.413 182.307 845.84 182.648C846.309 182.989 847.099 183.16 848.208 183.16ZM860.048 164.472C861.029 164.472 861.712 164.323 862.096 164.024C862.48 163.725 862.757 163.213 862.928 162.488C863.227 161.592 863.803 160.995 864.656 160.696C865.509 160.397 866.384 160.419 867.28 160.76C867.451 160.803 867.6 160.888 867.728 161.016C867.899 161.101 868.069 161.187 868.24 161.272C867.899 160.419 867.28 159.843 866.384 159.544C865.531 159.203 864.315 159.032 862.736 159.032H857.424V162.488C857.424 163.256 857.595 163.789 857.936 164.088C858.277 164.344 858.981 164.472 860.048 164.472ZM911.952 159.672C908.197 159.672 905.275 159.309 903.184 158.584C901.093 157.816 899.621 156.536 898.768 154.744C897.915 152.952 897.488 150.499 897.488 147.384C897.488 144.227 897.915 141.773 898.768 140.024C899.621 138.232 901.093 136.973 903.184 136.248C905.275 135.48 908.197 135.096 911.952 135.096H915.984C919.739 135.096 922.661 135.48 924.752 136.248C926.843 136.973 928.293 138.232 929.104 140.024C929.957 141.773 930.384 144.227 930.384 147.384C930.384 150.499 929.957 152.952 929.104 154.744C928.293 156.536 926.843 157.816 924.752 158.584C922.661 159.309 919.739 159.672 915.984 159.672H911.952ZM929.04 190.392C925.712 190.392 923.088 189.987 921.168 189.176C919.248 188.408 917.883 187.171 917.072 185.464C916.261 183.757 915.856 181.56 915.856 178.872V175.416C915.856 172.685 916.261 170.488 917.072 168.824C917.883 167.117 919.248 165.88 921.168 165.112C923.088 164.301 925.712 163.896 929.04 163.896C932.411 163.896 935.035 164.301 936.912 165.112C938.832 165.88 940.197 167.117 941.008 168.824C941.819 170.488 942.224 172.685 942.224 175.416V178.872C942.224 181.56 941.819 183.757 941.008 185.464C940.197 187.171 938.832 188.408 936.912 189.176C935.035 189.987 932.411 190.392 929.04 190.392ZM898.96 190.392C895.632 190.392 893.008 189.987 891.088 189.176C889.211 188.408 887.867 187.171 887.056 185.464C886.288 183.757 885.904 181.56 885.904 178.872V175.416C885.904 172.685 886.288 170.488 887.056 168.824C887.867 167.117 889.211 165.88 891.088 165.112C893.008 164.301 895.632 163.896 898.96 163.896C902.331 163.896 904.955 164.301 906.832 165.112C908.752 165.88 910.096 167.117 910.864 168.824C911.675 170.488 912.08 172.685 912.08 175.416V178.872C912.08 181.56 911.675 183.757 910.864 185.464C910.096 187.171 908.752 188.408 906.832 189.176C904.955 189.987 902.331 190.392 898.96 190.392ZM911.952 152.76H915.984C917.733 152.76 919.056 152.632 919.952 152.376C920.848 152.077 921.445 151.544 921.744 150.776C922.085 149.965 922.256 148.835 922.256 147.384C922.256 145.891 922.085 144.781 921.744 144.056C921.445 143.288 920.848 142.776 919.952 142.52C919.056 142.221 917.733 142.072 915.984 142.072H911.952C910.203 142.072 908.88 142.221 907.984 142.52C907.088 142.776 906.469 143.288 906.128 144.056C905.829 144.781 905.68 145.891 905.68 147.384C905.68 148.835 905.829 149.965 906.128 150.776C906.427 151.544 907.024 152.077 907.92 152.376C908.859 152.632 910.203 152.76 911.952 152.76ZM929.04 183.416C931.088 183.416 932.496 183.096 933.264 182.456C934.032 181.773 934.416 180.579 934.416 178.872V175.416C934.416 173.667 934.032 172.493 933.264 171.896C932.496 171.256 931.088 170.936 929.04 170.936C926.949 170.936 925.52 171.256 924.752 171.896C923.984 172.493 923.6 173.667 923.6 175.416V178.872C923.6 180.579 923.984 181.773 924.752 182.456C925.52 183.096 926.949 183.416 929.04 183.416ZM898.96 183.416C901.051 183.416 902.459 183.096 903.184 182.456C903.909 181.773 904.272 180.579 904.272 178.872V175.416C904.272 173.667 903.909 172.493 903.184 171.896C902.459 171.256 901.051 170.936 898.96 170.936C896.912 170.936 895.504 171.256 894.736 171.896C894.011 172.493 893.648 173.667 893.648 175.416V178.872C893.648 180.579 894.011 181.773 894.736 182.456C895.504 183.096 896.912 183.416 898.96 183.416ZM965.008 187C963.088 187 961.936 186.531 961.552 185.592C961.168 184.653 961.339 183.587 962.064 182.392L973.968 163.64L963.152 146.808C962.085 145.315 961.829 144.184 962.384 143.416C962.981 142.605 964.197 142.2 966.032 142.2C968.08 142.2 969.595 143.053 970.576 144.76L978 156.92L985.36 144.76C986.384 143.053 987.899 142.2 989.904 142.2C993.488 142.2 994.427 143.736 992.72 146.808L981.968 163.64L993.936 182.392C994.747 183.715 994.917 184.824 994.448 185.72C993.979 186.573 992.805 187 990.928 187C988.923 187 987.408 186.147 986.384 184.44L978 170.36L969.552 184.44C968.528 186.147 967.013 187 965.008 187ZM1054.16 192.12C1053.09 192.12 1052.18 191.779 1051.41 191.096C1050.68 190.413 1050.32 189.496 1050.32 188.344V168.504H1039.25C1038.31 168.504 1037.5 168.163 1036.82 167.48C1036.18 166.797 1035.86 165.987 1035.86 165.048C1035.86 164.109 1036.18 163.32 1036.82 162.68C1037.5 161.997 1038.31 161.656 1039.25 161.656H1050.32V149.048H1046.67C1045.99 150.584 1045.26 152.056 1044.5 153.464C1043.77 154.829 1043.05 156.088 1042.32 157.24C1041.72 158.179 1040.89 158.755 1039.82 158.968C1038.76 159.181 1037.75 159.011 1036.82 158.456C1035.92 157.901 1035.39 157.133 1035.22 156.152C1035.05 155.128 1035.24 154.211 1035.79 153.4C1036.77 151.907 1037.8 150.093 1038.86 147.96C1039.93 145.784 1040.93 143.587 1041.87 141.368C1042.81 139.149 1043.51 137.187 1043.98 135.48C1044.33 134.371 1044.97 133.624 1045.9 133.24C1046.84 132.856 1047.8 132.813 1048.78 133.112C1049.77 133.411 1050.49 133.987 1050.96 134.84C1051.47 135.651 1051.56 136.547 1051.22 137.528C1050.96 138.339 1050.68 139.171 1050.38 140.024C1050.09 140.835 1049.77 141.688 1049.42 142.584H1066.83C1067.73 142.584 1068.47 142.904 1069.07 143.544C1069.71 144.141 1070.03 144.888 1070.03 145.784C1070.03 146.68 1069.71 147.448 1069.07 148.088C1068.47 148.728 1067.73 149.048 1066.83 149.048H1057.94V161.656H1068.5C1069.48 161.656 1070.29 161.997 1070.93 162.68C1071.61 163.32 1071.95 164.109 1071.95 165.048C1071.95 165.987 1071.61 166.797 1070.93 167.48C1070.29 168.163 1069.48 168.504 1068.5 168.504H1057.94V188.344C1057.94 189.496 1057.55 190.413 1056.78 191.096C1056.06 191.779 1055.18 192.12 1054.16 192.12ZM1025.04 190.904C1022.48 190.904 1020.47 190.584 1019.02 189.944C1017.57 189.347 1016.55 188.365 1015.95 187C1015.35 185.592 1015.06 183.736 1015.06 181.432C1015.06 179.043 1015.35 177.165 1015.95 175.8C1016.55 174.435 1017.57 173.475 1019.02 172.92C1020.47 172.323 1022.48 172.024 1025.04 172.024C1027.6 172.024 1029.61 172.323 1031.06 172.92C1032.51 173.475 1033.51 174.435 1034.06 175.8C1034.66 177.165 1034.96 179.043 1034.96 181.432C1034.96 183.736 1034.66 185.592 1034.06 187C1033.51 188.365 1032.51 189.347 1031.06 189.944C1029.61 190.584 1027.6 190.904 1025.04 190.904ZM1014.93 151.032C1014.12 151.032 1013.41 150.733 1012.82 150.136C1012.26 149.539 1011.98 148.835 1011.98 148.024C1011.98 147.171 1012.26 146.467 1012.82 145.912C1013.41 145.315 1014.12 145.016 1014.93 145.016H1034.38C1035.19 145.016 1035.88 145.315 1036.43 145.912C1037.03 146.467 1037.33 147.171 1037.33 148.024C1037.33 148.835 1037.03 149.539 1036.43 150.136C1035.88 150.733 1035.19 151.032 1034.38 151.032H1014.93ZM1018.13 142.008C1017.32 142.008 1016.61 141.709 1016.02 141.112C1015.42 140.472 1015.12 139.747 1015.12 138.936C1015.12 138.083 1015.42 137.357 1016.02 136.76C1016.61 136.163 1017.32 135.864 1018.13 135.864H1031.5C1032.36 135.864 1033.06 136.163 1033.62 136.76C1034.21 137.357 1034.51 138.083 1034.51 138.936C1034.51 139.747 1034.21 140.472 1033.62 141.112C1033.06 141.709 1032.36 142.008 1031.5 142.008H1018.13ZM1018.06 169.08C1017.25 169.08 1016.55 168.781 1015.95 168.184C1015.35 167.544 1015.06 166.819 1015.06 166.008C1015.06 165.197 1015.35 164.493 1015.95 163.896C1016.55 163.299 1017.25 163 1018.06 163H1031.57C1032.38 163 1033.06 163.299 1033.62 163.896C1034.21 164.493 1034.51 165.197 1034.51 166.008C1034.51 166.819 1034.21 167.544 1033.62 168.184C1033.06 168.781 1032.38 169.08 1031.57 169.08H1018.06ZM1018.06 160.056C1017.25 160.056 1016.55 159.757 1015.95 159.16C1015.35 158.52 1015.06 157.795 1015.06 156.984C1015.06 156.173 1015.35 155.469 1015.95 154.872C1016.55 154.275 1017.25 153.976 1018.06 153.976H1031.57C1032.38 153.976 1033.06 154.275 1033.62 154.872C1034.21 155.469 1034.51 156.173 1034.51 156.984C1034.51 157.795 1034.21 158.52 1033.62 159.16C1033.06 159.757 1032.38 160.056 1031.57 160.056H1018.06ZM1025.04 185.08C1026.32 185.08 1027.17 184.845 1027.6 184.376C1028.03 183.907 1028.24 182.925 1028.24 181.432C1028.24 179.981 1028.03 179.021 1027.6 178.552C1027.17 178.04 1026.32 177.784 1025.04 177.784C1023.72 177.784 1022.84 178.04 1022.42 178.552C1021.99 179.021 1021.78 179.981 1021.78 181.432C1021.78 182.925 1021.99 183.907 1022.42 184.376C1022.84 184.845 1023.72 185.08 1025.04 185.08ZM1091.98 192.12C1091.13 192.12 1090.36 191.843 1089.68 191.288C1089.04 190.733 1088.68 190.008 1088.59 189.112C1088.55 188.259 1088.76 187.533 1089.23 186.936C1089.7 186.339 1090.34 185.997 1091.15 185.912C1092.3 185.741 1093.03 185.507 1093.33 185.208C1093.63 184.867 1093.78 184.163 1093.78 183.096V169.08C1091.26 168.824 1089.49 168.099 1088.46 166.904C1087.48 165.709 1086.99 163.875 1086.99 161.4V153.656C1086.99 151.523 1087.35 149.88 1088.08 148.728C1088.81 147.533 1090.06 146.723 1091.86 146.296C1092.11 145.528 1092.41 144.632 1092.75 143.608C1093.09 142.541 1093.37 141.645 1093.58 140.92H1088.85C1087.4 140.92 1086.35 141.219 1085.71 141.816C1085.07 142.371 1084.75 143.331 1084.75 144.696V158.968C1084.75 165.368 1084.47 170.936 1083.92 175.672C1083.37 180.408 1082.6 184.461 1081.62 187.832C1081.36 188.685 1080.85 189.325 1080.08 189.752C1079.35 190.221 1078.52 190.371 1077.58 190.2C1076.65 189.987 1075.96 189.496 1075.54 188.728C1075.15 187.96 1075.09 187.149 1075.34 186.296C1076.45 182.669 1077.24 178.68 1077.71 174.328C1078.22 169.976 1078.48 164.856 1078.48 158.968V144.248C1078.48 140.963 1079.27 138.616 1080.85 137.208C1082.43 135.757 1084.86 135.032 1088.14 135.032H1104.34C1105.79 135.032 1106.73 135.672 1107.15 136.952C1107.49 135.672 1108.43 135.032 1109.97 135.032H1133.71C1134.69 135.032 1135.44 135.309 1135.95 135.864C1136.51 136.419 1136.78 137.123 1136.78 137.976C1136.78 138.787 1136.51 139.491 1135.95 140.088C1135.44 140.643 1134.69 140.92 1133.71 140.92H1124.82C1124.6 141.603 1124.35 142.392 1124.05 143.288C1123.75 144.184 1123.45 144.995 1123.15 145.72H1123.66C1127.12 145.72 1129.55 146.339 1130.96 147.576C1132.37 148.771 1133.07 150.819 1133.07 153.72V170.552C1133.07 173.112 1132.52 175.011 1131.41 176.248C1130.3 177.485 1128.4 178.211 1125.71 178.424C1126.14 178.467 1126.57 178.573 1126.99 178.744C1127.42 178.872 1127.78 179.107 1128.08 179.448C1129.06 180.429 1130.28 181.475 1131.73 182.584C1133.22 183.693 1134.67 184.717 1136.08 185.656C1136.81 186.125 1137.23 186.808 1137.36 187.704C1137.49 188.643 1137.32 189.475 1136.85 190.2C1136.25 191.096 1135.46 191.544 1134.48 191.544C1133.5 191.587 1132.58 191.331 1131.73 190.776C1130.36 189.795 1128.93 188.664 1127.44 187.384C1125.95 186.147 1124.58 184.867 1123.34 183.544C1122.75 182.904 1122.47 182.157 1122.51 181.304C1122.6 180.451 1122.94 179.747 1123.54 179.192C1123.88 178.851 1124.35 178.616 1124.94 178.488C1124.73 178.488 1124.52 178.509 1124.3 178.552C1124.09 178.552 1123.88 178.552 1123.66 178.552H1118.61C1115.15 178.552 1112.72 177.933 1111.31 176.696C1109.9 175.459 1109.2 173.411 1109.2 170.552V153.72C1109.2 151.245 1109.71 149.389 1110.74 148.152C1111.8 146.915 1113.57 146.147 1116.05 145.848C1116.3 145.123 1116.58 144.291 1116.88 143.352C1117.18 142.413 1117.43 141.603 1117.65 140.92H1109.97C1108.43 140.92 1107.49 140.28 1107.15 139C1106.98 139.555 1106.64 140.024 1106.13 140.408C1105.66 140.749 1105.06 140.92 1104.34 140.92H1100.75C1100.54 141.645 1100.26 142.477 1099.92 143.416C1099.62 144.312 1099.34 145.144 1099.09 145.912C1101.78 146.125 1103.65 146.829 1104.72 148.024C1105.79 149.176 1106.32 151.053 1106.32 153.656V161.4C1106.32 163.875 1105.83 165.709 1104.85 166.904C1103.87 168.099 1102.14 168.824 1099.66 169.08V184.312C1099.66 186.957 1099.05 188.899 1097.81 190.136C1096.57 191.373 1094.63 192.035 1091.98 192.12ZM1109.84 191.096C1109.03 191.651 1108.13 191.907 1107.15 191.864C1106.17 191.864 1105.38 191.437 1104.78 190.584C1104.27 189.859 1104.08 189.048 1104.21 188.152C1104.38 187.256 1104.81 186.573 1105.49 186.104C1106.9 185.165 1108.39 184.12 1109.97 182.968C1111.55 181.773 1112.85 180.664 1113.87 179.64C1114.47 179.043 1115.26 178.723 1116.24 178.68C1117.22 178.595 1117.99 178.829 1118.54 179.384C1119.14 179.939 1119.46 180.621 1119.5 181.432C1119.59 182.243 1119.33 182.989 1118.74 183.672C1117.54 185.037 1116.13 186.36 1114.51 187.64C1112.89 188.963 1111.33 190.115 1109.84 191.096ZM1085.84 184.056C1085.16 183.757 1084.67 183.267 1084.37 182.584C1084.07 181.859 1084.07 181.155 1084.37 180.472C1084.71 179.789 1085.09 178.979 1085.52 178.04C1085.95 177.101 1086.35 176.163 1086.74 175.224C1087.12 174.243 1087.42 173.411 1087.63 172.728C1087.85 172.003 1088.29 171.448 1088.98 171.064C1089.66 170.637 1090.36 170.531 1091.09 170.744C1091.86 170.915 1092.43 171.341 1092.82 172.024C1093.2 172.707 1093.29 173.411 1093.07 174.136C1092.73 175.331 1092.22 176.76 1091.54 178.424C1090.85 180.045 1090.23 181.411 1089.68 182.52C1089.3 183.203 1088.74 183.715 1088.02 184.056C1087.29 184.355 1086.57 184.355 1085.84 184.056ZM1107.09 183.288C1106.32 183.629 1105.57 183.672 1104.85 183.416C1104.12 183.16 1103.59 182.627 1103.25 181.816C1102.99 181.176 1102.67 180.408 1102.29 179.512C1101.9 178.573 1101.52 177.656 1101.14 176.76C1100.79 175.821 1100.52 175.032 1100.3 174.392C1100.05 173.667 1100.09 172.963 1100.43 172.28C1100.82 171.555 1101.39 171.085 1102.16 170.872C1102.89 170.659 1103.57 170.723 1104.21 171.064C1104.89 171.405 1105.36 171.939 1105.62 172.664C1105.83 173.219 1106.11 173.944 1106.45 174.84C1106.83 175.693 1107.22 176.568 1107.6 177.464C1107.98 178.317 1108.28 179.021 1108.5 179.576C1108.88 180.387 1108.92 181.133 1108.62 181.816C1108.33 182.499 1107.81 182.989 1107.09 183.288ZM1120.02 172.728H1122.26C1123.88 172.728 1124.94 172.536 1125.46 172.152C1126.01 171.725 1126.29 170.787 1126.29 169.336V168.888H1115.98V169.336C1115.98 170.787 1116.24 171.725 1116.75 172.152C1117.31 172.536 1118.39 172.728 1120.02 172.728ZM1115.98 163.704H1126.29V160.248H1115.98V163.704ZM1115.98 155.064H1126.29V154.936C1126.29 153.485 1126.01 152.568 1125.46 152.184C1124.94 151.757 1123.88 151.544 1122.26 151.544H1120.02C1118.39 151.544 1117.31 151.757 1116.75 152.184C1116.24 152.568 1115.98 153.485 1115.98 154.936V155.064ZM1096.66 164.088C1098.11 164.088 1099.07 163.896 1099.54 163.512C1100.05 163.128 1100.3 162.275 1100.3 160.952V159.928H1093.01V160.952C1093.01 162.275 1093.24 163.128 1093.71 163.512C1094.22 163.896 1095.21 164.088 1096.66 164.088ZM1093.01 155H1100.3V154.104C1100.3 152.781 1100.05 151.949 1099.54 151.608C1099.07 151.224 1098.11 151.032 1096.66 151.032C1095.21 151.032 1094.22 151.224 1093.71 151.608C1093.24 151.949 1093.01 152.781 1093.01 154.104V155ZM1180.43 191.288C1175.74 191.288 1172.05 190.947 1169.36 190.264C1166.71 189.624 1164.84 188.408 1163.73 186.616C1162.66 184.824 1162.13 182.264 1162.13 178.936V165.176L1159.18 166.264C1158.25 166.605 1157.33 166.605 1156.43 166.264C1155.58 165.923 1154.96 165.261 1154.58 164.28C1154.19 163.299 1154.19 162.381 1154.58 161.528C1155 160.675 1155.73 160.056 1156.75 159.672L1162.13 157.688V141.56C1162.13 140.408 1162.49 139.491 1163.22 138.808C1163.94 138.083 1164.84 137.72 1165.9 137.72C1166.97 137.72 1167.85 138.083 1168.53 138.808C1169.25 139.491 1169.62 140.408 1169.62 141.56V154.936L1175.06 152.952V136.888C1175.06 135.779 1175.42 134.904 1176.14 134.264C1176.87 133.624 1177.72 133.304 1178.7 133.304C1179.69 133.304 1180.54 133.624 1181.26 134.264C1181.99 134.904 1182.35 135.779 1182.35 136.888V150.264L1183.12 150.008C1187.17 148.515 1190.35 148.387 1192.66 149.624C1195 150.861 1196.18 153.677 1196.18 158.072V167.096C1196.18 170.339 1195.49 172.685 1194.13 174.136C1192.81 175.544 1190.69 176.312 1187.79 176.44C1186.73 176.483 1185.81 176.205 1185.04 175.608C1184.27 175.011 1183.85 174.115 1183.76 172.92C1183.67 171.981 1183.91 171.149 1184.46 170.424C1185.02 169.656 1185.74 169.208 1186.64 169.08C1187.71 168.909 1188.37 168.696 1188.62 168.44C1188.88 168.141 1189.01 167.459 1189.01 166.392V159.16C1189.01 157.795 1188.71 156.899 1188.11 156.472C1187.51 156.003 1186.43 156.067 1184.85 156.664L1182.35 157.624V175.032C1182.35 176.141 1181.99 177.037 1181.26 177.72C1180.54 178.36 1179.69 178.68 1178.7 178.68C1177.72 178.68 1176.87 178.36 1176.14 177.72C1175.42 177.037 1175.06 176.141 1175.06 175.032V160.376L1169.62 162.36V178.36C1169.62 180.024 1169.87 181.283 1170.38 182.136C1170.94 182.947 1171.98 183.501 1173.52 183.8C1175.1 184.056 1177.4 184.184 1180.43 184.184C1183.42 184.184 1185.68 184.035 1187.22 183.736C1188.75 183.395 1189.84 182.883 1190.48 182.2C1191.16 181.475 1191.67 180.515 1192.02 179.32C1192.31 178.211 1192.98 177.421 1194 176.952C1195.02 176.44 1196.13 176.397 1197.33 176.824C1198.48 177.208 1199.23 177.869 1199.57 178.808C1199.95 179.747 1199.99 180.771 1199.7 181.88C1199.06 184.227 1198.07 186.083 1196.75 187.448C1195.47 188.856 1193.55 189.837 1190.99 190.392C1188.43 190.989 1184.91 191.288 1180.43 191.288ZM1143.31 190.2C1142.37 189.688 1141.78 188.92 1141.52 187.896C1141.31 186.872 1141.48 185.891 1142.03 184.952C1142.89 183.587 1143.78 181.965 1144.72 180.088C1145.7 178.211 1146.64 176.312 1147.54 174.392C1148.43 172.429 1149.16 170.723 1149.71 169.272C1150.14 168.163 1150.84 167.437 1151.82 167.096C1152.85 166.755 1153.87 166.819 1154.9 167.288C1155.83 167.715 1156.45 168.355 1156.75 169.208C1157.05 170.061 1157.01 171.021 1156.62 172.088C1155.98 173.752 1155.19 175.629 1154.26 177.72C1153.36 179.768 1152.42 181.773 1151.44 183.736C1150.5 185.699 1149.63 187.405 1148.82 188.856C1148.3 189.795 1147.51 190.392 1146.45 190.648C1145.38 190.904 1144.34 190.755 1143.31 190.2ZM1149.01 160.76C1148.5 160.419 1147.81 159.992 1146.96 159.48C1146.11 158.925 1145.25 158.371 1144.4 157.816C1143.55 157.261 1142.84 156.813 1142.29 156.472C1141.43 156.003 1140.88 155.299 1140.62 154.36C1140.41 153.421 1140.54 152.525 1141.01 151.672C1141.52 150.733 1142.22 150.115 1143.12 149.816C1144.06 149.517 1145 149.624 1145.94 150.136C1146.53 150.435 1147.3 150.883 1148.24 151.48C1149.18 152.035 1150.1 152.589 1150.99 153.144C1151.93 153.699 1152.63 154.147 1153.1 154.488C1154 155.085 1154.55 155.896 1154.77 156.92C1154.98 157.944 1154.79 158.904 1154.19 159.8C1153.64 160.653 1152.85 161.165 1151.82 161.336C1150.8 161.507 1149.86 161.315 1149.01 160.76ZM1151.57 146.296C1151.01 145.912 1150.31 145.443 1149.46 144.888C1148.6 144.333 1147.75 143.8 1146.9 143.288C1146.04 142.733 1145.34 142.307 1144.78 142.008C1143.97 141.539 1143.44 140.835 1143.18 139.896C1142.97 138.957 1143.1 138.061 1143.57 137.208C1144.08 136.269 1144.78 135.651 1145.68 135.352C1146.62 135.053 1147.56 135.16 1148.5 135.672C1149.09 135.971 1149.86 136.419 1150.8 137.016C1151.78 137.571 1152.72 138.147 1153.62 138.744C1154.55 139.299 1155.24 139.725 1155.66 140.024C1156.56 140.579 1157.09 141.368 1157.26 142.392C1157.48 143.416 1157.29 144.376 1156.69 145.272C1156.13 146.125 1155.34 146.659 1154.32 146.872C1153.34 147.043 1152.42 146.851 1151.57 146.296Z" fill="black"/>
</g>
<defs>
<clipPath id="clip0_20_54">
<rect width="1940" height="483" fill="white"/>
</clipPath>
</defs>
</svg>
