<svg width="40" height="40" viewBox="0 0 40 40" fill="none" xmlns="http://www.w3.org/2000/svg">
<circle cx="20" cy="20" r="20" fill="white"/>
<path d="M10 13.2479H31.8182L30 25.3691H11.8182L10 13.2479Z" fill="url(#paint0_linear_530_475)"/>
<circle cx="20.6059" cy="18.4848" r="8.48485" fill="white"/>
<circle cx="20.6059" cy="18.4848" r="7.98485" stroke="#004B97" stroke-opacity="0.8"/>
<line x1="3.63623" y1="11.9242" x2="9.69684" y2="11.9242" stroke="#004B97" stroke-opacity="0.7"/>
<line x1="9.32478" y1="11.0708" x2="12.4925" y2="29.1617" stroke="#4D81B7"/>
<line x1="12" y1="28.7479" x2="28.9697" y2="28.7479" stroke="#4D81B7"/>
<circle cx="15.8182" cy="31.0661" r="1.81818" fill="#93DDC4"/>
<circle cx="24.8182" cy="31.0661" r="1.81818" fill="#93DDC4"/>
<path d="M21.106 13.6364C21.106 13.3602 20.8821 13.1364 20.606 13.1364C20.3298 13.1364 20.106 13.3602 20.106 13.6364H20.606H21.106ZM20.2524 23.6869C20.4477 23.8821 20.7642 23.8821 20.9595 23.6869L24.1415 20.5049C24.3368 20.3096 24.3368 19.9931 24.1415 19.7978C23.9462 19.6025 23.6296 19.6025 23.4344 19.7978L20.606 22.6262L17.7775 19.7978C17.5823 19.6025 17.2657 19.6025 17.0704 19.7978C16.8752 19.9931 16.8752 20.3096 17.0704 20.5049L20.2524 23.6869ZM20.606 13.6364H20.106V23.3333H20.606H21.106V13.6364H20.606Z" fill="#004B97" fill-opacity="0.7"/>
<defs>
<linearGradient id="paint0_linear_530_475" x1="20.9091" y1="13.2479" x2="20.9091" y2="25.3691" gradientUnits="userSpaceOnUse">
<stop stop-color="#A7C5DA"/>
<stop offset="1" stop-color="#ABDAD5"/>
</linearGradient>
</defs>
</svg>
