<svg width="33" height="28" viewBox="0 0 33 28" fill="none" xmlns="http://www.w3.org/2000/svg">
<path d="M1.04999 4.17502L11.05 1.05002L21.05 4.17502L31.05 1.05002V22.925L21.05 26.05L11.05 22.925L1.04999 26.05V4.17502Z" stroke="#004B97" stroke-width="2.1" stroke-linecap="round" stroke-linejoin="round"/>
<path d="M11.05 1.05002V22.925M21.05 4.17502V26.05" stroke="#004B97" stroke-width="1.6" stroke-linecap="round" stroke-linejoin="round"/>
<path d="M6.04999 20.8417C10.05 15.6334 14.05 17.7167 16.05 12.5084C17.45 8.96669 20.05 8.86252 22.05 9.90419" stroke="#004B97" stroke-width="2.1" stroke-linecap="round" stroke-dasharray="0.2 4"/>
<path d="M6.05001 23.0292C7.20981 23.0292 8.15001 22.0498 8.15001 20.8417C8.15001 19.6336 7.20981 18.6542 6.05001 18.6542C4.89021 18.6542 3.95001 19.6336 3.95001 20.8417C3.95001 22.0498 4.89021 23.0292 6.05001 23.0292Z" fill="#ABDAD5"/>
<path d="M22.65 4.59167L23.95 7.40418L26.95 7.82084L24.75 10.0083L25.35 13.1333L22.65 11.5708L19.95 13.1333L20.55 10.0083L18.35 7.82084L21.35 7.40418L22.65 4.59167Z" fill="#F3E3B5"/>
</svg>
