<svg width="19" height="20" viewBox="0 0 19 20" fill="none" xmlns="http://www.w3.org/2000/svg">
<path d="M10.292 3.33301C12.5155 3.33301 13.6271 3.33377 14.4258 3.89551C14.7715 4.13866 15.0688 4.45057 15.2998 4.81445C15.8335 5.6552 15.833 6.82622 15.833 9.16699C15.833 11.5075 15.8334 12.6779 15.2998 13.5186C15.0688 13.8825 14.7716 14.1953 14.4258 14.4385C13.728 14.9291 12.7912 14.9873 11.083 14.9951V15L10.4033 16.4316C10.0417 17.1929 8.95828 17.1929 8.59668 16.4316L7.91699 15V14.9951C6.20881 14.9873 5.27197 14.9291 4.57422 14.4385C4.22845 14.1953 3.93123 13.8825 3.7002 13.5186C3.16659 12.6779 3.16699 11.5075 3.16699 9.16699C3.16699 6.82622 3.16652 5.6552 3.7002 4.81445C3.9312 4.45057 4.22853 4.13866 4.57422 3.89551C5.37289 3.33377 6.48449 3.33301 8.70801 3.33301H10.292Z" fill="url(#paint0_linear_879_1120)"/>
<ellipse cx="12.6667" cy="9.16667" rx="0.791667" ry="0.833333" fill="white"/>
<ellipse cx="9.5" cy="9.16667" rx="0.791667" ry="0.833333" fill="white"/>
<ellipse cx="6.33334" cy="9.16667" rx="0.791667" ry="0.833333" fill="white"/>
<defs>
<linearGradient id="paint0_linear_879_1120" x1="9.5" y1="3.33301" x2="9.5" y2="17.0026" gradientUnits="userSpaceOnUse">
<stop stop-color="#737373"/>
<stop offset="1" stop-color="#D9D9D9"/>
</linearGradient>
</defs>
</svg>
