<svg width="100" height="28" viewBox="0 0 100 28" fill="none" xmlns="http://www.w3.org/2000/svg">
<path d="M16.02 24.44C15.8467 24.0667 15.6733 23.7667 15.5 23.54C15.3267 23.3133 15.0933 23.1333 14.8 23C14.52 22.88 14.12 22.7867 13.6 22.72C13.48 22.56 13.5 22.42 13.66 22.3C13.78 22.3133 13.9933 22.3333 14.3 22.36C14.62 22.3733 14.9533 22.3933 15.3 22.42C15.6467 22.4333 15.9333 22.44 16.16 22.44C16.48 22.44 16.64 22.2867 16.64 21.98V12.66H12.42V13.1C12.42 13.22 12.3 13.3133 12.06 13.38C11.8333 13.4467 11.64 13.48 11.48 13.48C11.2667 13.48 11.16 13.3933 11.16 13.22C11.16 13.1533 11.16 12.96 11.16 12.64C11.1733 12.32 11.18 11.94 11.18 11.5C11.1933 11.0467 11.2 10.6 11.2 10.16C11.2133 9.70667 11.22 9.32 11.22 9C11.22 8.33333 11.2 7.84667 11.16 7.54C11.1333 7.23333 11.08 6.99333 11 6.82C10.9733 6.74 10.9867 6.67333 11.04 6.62C11.0933 6.56667 11.1667 6.56 11.26 6.6C11.4067 6.66667 11.6067 6.77333 11.86 6.92C12.1267 7.06667 12.3533 7.19333 12.54 7.3H16.22C16.3 7.3 16.3733 7.26667 16.44 7.2C16.52 7.12 16.6133 7.02 16.72 6.9C16.84 6.78 16.9333 6.67333 17 6.58C17.0933 6.48667 17.22 6.49333 17.38 6.6C17.46 6.64 17.5733 6.72 17.72 6.84C17.88 6.94667 18.0333 7.06 18.18 7.18C18.34 7.28667 18.4533 7.36667 18.52 7.42C18.68 7.55333 18.6667 7.68 18.48 7.8C18.4133 7.84 18.3333 7.88667 18.24 7.94C18.16 7.98 18.08 8.02667 18 8.08C17.92 8.13333 17.8733 8.18667 17.86 8.24C17.8467 8.29333 17.84 8.37333 17.84 8.48V13.4C17.84 16.0933 17.8667 18.16 17.92 19.6C17.9733 21.04 18 21.94 18 22.3C18 22.9133 17.8467 23.3667 17.54 23.66C17.2467 23.9533 16.74 24.2133 16.02 24.44ZM2.22 24.44C2.12667 24.44 2.03333 24.4133 1.94 24.36C1.86 24.32 1.82 24.2267 1.82 24.08C1.82 24.0133 1.82667 23.6867 1.84 23.1C1.85333 22.5267 1.86667 21.78 1.88 20.86C1.90667 19.94 1.92667 18.9333 1.94 17.84C1.96667 16.7333 1.98667 15.6267 2 14.52C2.01333 13.4 2.02 12.36 2.02 11.4C2.02 10.4933 2.01333 9.76 2 9.2C2 8.64 1.98667 8.2 1.96 7.88C1.94667 7.56 1.92 7.32 1.88 7.16C1.85333 7 1.82 6.87333 1.78 6.78C1.75333 6.7 1.76667 6.63333 1.82 6.58C1.87333 6.52667 1.94667 6.52 2.04 6.56C2.13333 6.6 2.27333 6.66667 2.46 6.76C2.66 6.85333 2.86 6.95333 3.06 7.06C3.27333 7.15333 3.44667 7.23333 3.58 7.3H7C7.08 7.3 7.15333 7.26667 7.22 7.2L7.8 6.62C7.89333 6.52667 8.00667 6.52667 8.14 6.62C8.20667 6.66 8.31333 6.74667 8.46 6.88C8.62 7.01333 8.77333 7.14667 8.92 7.28C9.08 7.4 9.18667 7.49333 9.24 7.56C9.36 7.68 9.34 7.79333 9.18 7.9C9.1 7.95333 9.02 8.00667 8.94 8.06C8.86 8.1 8.78667 8.14 8.72 8.18C8.64 8.23333 8.59333 8.28 8.58 8.32C8.56667 8.36 8.56 8.43333 8.56 8.54C8.56 8.9 8.56 9.32667 8.56 9.82C8.57333 10.3133 8.58667 10.8 8.6 11.28C8.61333 11.76 8.62 12.1667 8.62 12.5C8.63333 12.8333 8.64 13.02 8.64 13.06C8.64 13.18 8.52 13.2733 8.28 13.34C8.04 13.3933 7.84 13.42 7.68 13.42C7.48 13.42 7.38 13.34 7.38 13.18V12.66H3.24V24.02C3.24 24.1267 3.11333 24.22 2.86 24.3C2.62 24.3933 2.40667 24.44 2.22 24.44ZM11.32 24.18C11.0533 24.18 10.92 24.0667 10.92 23.84V18.26H8.8C8.70667 19.4733 8.41333 20.46 7.92 21.22C7.44 21.9667 6.83333 22.5533 6.1 22.98C5.38 23.4067 4.61333 23.7333 3.8 23.96C3.61333 23.8667 3.56667 23.74 3.66 23.58C4.80667 23.1267 5.71333 22.48 6.38 21.64C7.06 20.8 7.46 19.6733 7.58 18.26H4.98C4.98 18.26 4.86667 18.2667 4.64 18.28C4.42667 18.28 4.18 18.3067 3.9 18.36L3.74 17.48C4.07333 17.5733 4.36 17.6267 4.6 17.64C4.84 17.6533 4.96 17.66 4.96 17.66H7.6V15.12H5.78C5.78 15.12 5.66667 15.1267 5.44 15.14C5.22667 15.14 4.98667 15.1667 4.72 15.22L4.56 14.36C4.89333 14.44 5.18 14.4867 5.42 14.5C5.66 14.5133 5.78 14.52 5.78 14.52H13.16C13.2533 14.52 13.32 14.4933 13.36 14.44L14.04 13.76C14.1067 13.68 14.1667 13.6467 14.22 13.66C14.2733 13.66 14.34 13.6867 14.42 13.74C14.4867 13.7933 14.5933 13.88 14.74 14C14.9 14.12 15.0533 14.24 15.2 14.36C15.36 14.4667 15.4667 14.5467 15.52 14.6C15.6267 14.6933 15.6667 14.8067 15.64 14.94C15.6133 15.06 15.54 15.12 15.42 15.12H12.08V16.58C12.08 16.74 12.08 16.9133 12.08 17.1C12.0933 17.2733 12.1 17.46 12.1 17.66H13.76C13.84 17.66 13.9133 17.6267 13.98 17.56C14.0467 17.4933 14.16 17.38 14.32 17.22C14.4933 17.0467 14.6067 16.9333 14.66 16.88C14.7667 16.7733 14.8933 16.7733 15.04 16.88C15.1067 16.92 15.2133 17 15.36 17.12C15.52 17.24 15.6733 17.36 15.82 17.48C15.98 17.6 16.0867 17.6867 16.14 17.74C16.2467 17.8333 16.2867 17.9467 16.26 18.08C16.2333 18.2 16.16 18.26 16.04 18.26H12.12C12.1333 18.86 12.1467 19.48 12.16 20.12C12.1733 20.7467 12.1867 21.3333 12.2 21.88C12.2267 22.4133 12.2467 22.8467 12.26 23.18C12.2733 23.5133 12.28 23.6867 12.28 23.7C12.28 23.8333 12.1667 23.9467 11.94 24.04C11.7133 24.1333 11.5067 24.18 11.32 24.18ZM12.42 12.06H16.64V10.28H12.42V12.06ZM12.42 9.68H16.64V7.9H12.42V9.68ZM3.24 12.06H7.38V10.28H3.24V12.06ZM3.24 9.68H7.38V7.9H3.24V9.68ZM8.84 17.66H10.92V15.12H8.84V17.66ZM20.74 24.44C20.54 24.4 20.4733 24.28 20.54 24.08C21.5667 23.4667 22.44 22.7867 23.16 22.04C23.88 21.28 24.4733 20.44 24.94 19.52C24.6467 19.28 24.34 19.06 24.02 18.86C23.7133 18.66 23.4067 18.48 23.1 18.32L22.88 19.26C22.8533 19.38 22.74 19.48 22.54 19.56C22.34 19.64 22.1067 19.6533 21.84 19.6C21.56 19.5333 21.4667 19.3733 21.56 19.12C21.6667 18.84 21.7933 18.44 21.94 17.92C22.0867 17.3867 22.2467 16.78 22.42 16.1C22.6067 15.42 22.7867 14.7067 22.96 13.96C23.1467 13.2 23.32 12.4533 23.48 11.72H22.14C22.14 11.72 22.04 11.7267 21.84 11.74C21.64 11.74 21.3667 11.7733 21.02 11.84L20.84 10.94C21.2267 11.0333 21.54 11.0867 21.78 11.1C22.02 11.1133 22.14 11.12 22.14 11.12H23.62C23.82 10.2133 23.9933 9.41333 24.14 8.72C24.2867 8.01333 24.38 7.52667 24.42 7.26C24.4333 7.12667 24.4333 7.01333 24.42 6.92C24.4067 6.81333 24.3933 6.72667 24.38 6.66C24.3533 6.52667 24.3533 6.44667 24.38 6.42C24.42 6.38 24.4867 6.38 24.58 6.42C24.7133 6.46 24.9 6.53333 25.14 6.64C25.38 6.73333 25.62 6.83333 25.86 6.94C26.1 7.03333 26.2867 7.11333 26.42 7.18C26.5267 7.23333 26.5667 7.32 26.54 7.44C26.5 7.56 26.4133 7.62 26.28 7.62C26.1467 7.59333 26.0133 7.6 25.88 7.64C25.7467 7.66667 25.6533 7.77333 25.6 7.96C25.5333 8.18667 25.4267 8.58667 25.28 9.16C25.1467 9.72 24.9867 10.3733 24.8 11.12H26.44C26.5067 11.12 26.5533 11.1133 26.58 11.1C26.62 11.0867 26.6667 11.0533 26.72 11L27.32 10.38C27.4267 10.2467 27.56 10.24 27.72 10.36C27.88 10.48 28.08 10.6533 28.32 10.88C28.56 11.0933 28.7533 11.2733 28.9 11.42C28.9667 11.4733 28.9933 11.5333 28.98 11.6C28.9667 11.6667 28.92 11.7133 28.84 11.74C28.7467 11.7933 28.64 11.8467 28.52 11.9C28.4133 11.94 28.3267 11.9733 28.26 12C28.1667 12.04 28.1067 12.08 28.08 12.12C28.0667 12.16 28.0533 12.2333 28.04 12.34C27.9067 13.6867 27.7067 14.94 27.44 16.1C27.1733 17.26 26.7933 18.3267 26.3 19.3C26.7267 19.5533 27.1133 19.8133 27.46 20.08C27.8067 20.3467 28.0867 20.6133 28.3 20.88C28.5667 21.2 28.6867 21.5533 28.66 21.94C28.6467 22.3133 28.5267 22.5733 28.3 22.72C28.1667 22.8133 28.0333 22.8333 27.9 22.78C27.7667 22.7133 27.6067 22.5333 27.42 22.24C27.2067 21.8933 26.96 21.5533 26.68 21.22C26.4 20.8733 26.1 20.5467 25.78 20.24C25.22 21.1333 24.5267 21.9333 23.7 22.64C22.8733 23.3333 21.8867 23.9333 20.74 24.44ZM30.36 24.04C30.2533 24.04 30.1667 24.02 30.1 23.98C30.0333 23.94 30 23.8467 30 23.7C30 23.6333 30.0067 23.3933 30.02 22.98C30.0333 22.5667 30.0467 22.06 30.06 21.46C30.0867 20.8467 30.1067 20.2133 30.12 19.56C30.1333 18.9067 30.14 18.3067 30.14 17.76C30.14 17.0933 30.12 16.6 30.08 16.28C30.04 15.9467 29.9867 15.6933 29.92 15.52C29.8933 15.4267 29.9067 15.3533 29.96 15.3C30.0267 15.2467 30.1 15.24 30.18 15.28C30.3267 15.36 30.5467 15.48 30.84 15.64C31.1333 15.8 31.3867 15.94 31.6 16.06H35.92C36.0133 16.06 36.0867 16.0333 36.14 15.98C36.2067 15.9 36.2933 15.8067 36.4 15.7C36.5067 15.58 36.5933 15.4733 36.66 15.38C36.7267 15.3 36.78 15.26 36.82 15.26C36.8733 15.26 36.9467 15.2933 37.04 15.36C37.1333 15.4267 37.26 15.52 37.42 15.64C37.58 15.76 37.74 15.8867 37.9 16.02C38.06 16.14 38.18 16.2333 38.26 16.3C38.3267 16.3533 38.3533 16.42 38.34 16.5C38.34 16.5667 38.3 16.62 38.22 16.66C38.1533 16.7 38.0733 16.7467 37.98 16.8C37.8867 16.8533 37.8067 16.9 37.74 16.94C37.66 16.98 37.6133 17.02 37.6 17.06C37.5867 17.0867 37.58 17.14 37.58 17.22C37.58 17.54 37.5867 17.94 37.6 18.42C37.6133 18.9 37.6267 19.4067 37.64 19.94C37.6667 20.4733 37.6867 20.98 37.7 21.46C37.7133 21.9267 37.7267 22.32 37.74 22.64C37.7533 22.9467 37.76 23.12 37.76 23.16C37.76 23.2667 37.6467 23.38 37.42 23.5C37.2067 23.6333 36.94 23.7 36.62 23.7C36.38 23.7 36.26 23.5867 36.26 23.36V22.46H31.44V23.52C31.44 23.64 31.34 23.7533 31.14 23.86C30.9533 23.98 30.6933 24.04 30.36 24.04ZM31.44 21.86H36.26V16.68H31.44V21.86ZM38.48 14.9C38.3333 14.9667 38.1933 14.98 38.06 14.94C37.94 14.9 37.8333 14.7733 37.74 14.56C37.4867 13.96 37.22 13.4133 36.94 12.92C36.4733 13.0133 35.9267 13.12 35.3 13.24C34.6867 13.3467 34.06 13.4533 33.42 13.56C32.78 13.6667 32.1733 13.76 31.6 13.84C31.04 13.92 30.58 13.98 30.22 14.02C29.9933 14.0467 29.86 14.0933 29.82 14.16C29.78 14.2267 29.7667 14.3467 29.78 14.52C29.8067 14.6533 29.7533 14.74 29.62 14.78C29.4867 14.8333 29.4 14.8 29.36 14.68C29.3067 14.5333 29.2267 14.3533 29.12 14.14C29.0267 13.9133 28.9267 13.6867 28.82 13.46C28.7267 13.2333 28.6533 13.06 28.6 12.94C28.56 12.8467 28.5667 12.78 28.62 12.74C28.6733 12.6867 28.8133 12.68 29.04 12.72C29.1333 12.7333 29.24 12.7533 29.36 12.78C29.48 12.7933 29.6267 12.8 29.8 12.8H30.88C31.0533 12.48 31.2467 12.08 31.46 11.6C31.6867 11.12 31.9133 10.62 32.14 10.1C32.3667 9.58 32.5667 9.08 32.74 8.6C32.9133 8.12 33.0333 7.71333 33.1 7.38C33.14 7.20667 33.16 7.06 33.16 6.94C33.16 6.80667 33.1533 6.69333 33.14 6.6C33.14 6.44 33.16 6.34667 33.2 6.32C33.2533 6.28 33.32 6.28 33.4 6.32C33.5467 6.37333 33.7467 6.46 34 6.58C34.2667 6.7 34.5267 6.82667 34.78 6.96C35.0467 7.08 35.2533 7.18 35.4 7.26C35.52 7.31333 35.5533 7.40667 35.5 7.54C35.4467 7.67333 35.36 7.72 35.24 7.68C35.04 7.64 34.8933 7.63333 34.8 7.66C34.7067 7.67333 34.6267 7.75333 34.56 7.9C34.4 8.22 34.1867 8.6 33.92 9.04C33.6667 9.46667 33.3933 9.91333 33.1 10.38C32.8067 10.8333 32.52 11.2733 32.24 11.7C31.96 12.1133 31.7133 12.4733 31.5 12.78C32.0867 12.7533 32.6933 12.7267 33.32 12.7C33.96 12.66 34.5733 12.62 35.16 12.58C35.7467 12.54 36.2467 12.5067 36.66 12.48C36.3667 12.0133 36.0333 11.58 35.66 11.18C35.3 10.7667 34.9067 10.3867 34.48 10.04C34.48 9.84 34.5667 9.74 34.74 9.74C35.3267 10.06 35.8933 10.4267 36.44 10.84C37 11.2533 37.48 11.6667 37.88 12.08C38.2933 12.4933 38.5733 12.8733 38.72 13.22C38.8667 13.5667 38.9067 13.9133 38.84 14.26C38.7867 14.5933 38.6667 14.8067 38.48 14.9ZM25.3 18.76C25.7267 17.7733 26.0533 16.7 26.28 15.54C26.52 14.3667 26.6933 13.0933 26.8 11.72H24.66C24.5 12.4133 24.3267 13.14 24.14 13.9C23.9667 14.6467 23.8 15.3667 23.64 16.06C23.48 16.74 23.3333 17.34 23.2 17.86C23.5333 17.9667 23.88 18.1 24.24 18.26C24.6 18.4067 24.9533 18.5733 25.3 18.76ZM43.92 24.44C43.8133 24.44 43.7267 24.4133 43.66 24.36C43.5933 24.32 43.56 24.2267 43.56 24.08C43.56 23.9067 43.58 23.48 43.62 22.8C43.6733 22.12 43.7 21.3533 43.7 20.5V19.68C43.3667 20.4933 42.9467 21.22 42.44 21.86C41.9333 22.5 41.3933 23.04 40.82 23.48C40.62 23.4533 40.5333 23.3467 40.56 23.16C41.08 22.56 41.54 21.9267 41.94 21.26C42.34 20.58 42.6467 19.78 42.86 18.86C43.0867 17.94 43.2 16.8267 43.2 15.52C43.2 14.72 43.1867 14.12 43.16 13.72C43.1467 13.3067 43.0933 12.9933 43 12.78C42.96 12.6867 42.9733 12.6133 43.04 12.56C43.1067 12.5067 43.18 12.5 43.26 12.54C43.42 12.6333 43.64 12.76 43.92 12.92C44.2 13.08 44.4267 13.2133 44.6 13.32H48.52C48.6 13.32 48.6733 13.2867 48.74 13.22C48.8067 13.14 48.8933 13.04 49 12.92C49.1067 12.7867 49.2067 12.6733 49.3 12.58C49.42 12.4467 49.5533 12.44 49.7 12.56C49.8467 12.6667 50.04 12.8267 50.28 13.04C50.52 13.24 50.7067 13.4067 50.84 13.54C51.0267 13.7 50.9933 13.8333 50.74 13.94C50.6733 13.9667 50.5933 14.0067 50.5 14.06C50.42 14.1 50.34 14.14 50.26 14.18C50.2067 14.2067 50.1667 14.24 50.14 14.28C50.1133 14.32 50.1 14.4067 50.1 14.54C50.1 14.8067 50.1067 15.12 50.12 15.48C50.1333 15.84 50.1467 16.2 50.16 16.56C50.1867 16.9067 50.2067 17.2133 50.22 17.48C50.2333 17.7467 50.24 17.9267 50.24 18.02C50.24 18.1267 50.1267 18.2333 49.9 18.34C49.6733 18.4333 49.4667 18.48 49.28 18.48C49.0267 18.48 48.9 18.3733 48.9 18.16V17.84H44.22C44.1933 18.04 44.1533 18.2333 44.1 18.42C44.06 18.6067 44.0133 18.7933 43.96 18.98C44.12 19.0733 44.3067 19.1867 44.52 19.32C44.7467 19.44 44.94 19.5467 45.1 19.64H48.68C48.7733 19.64 48.8467 19.6133 48.9 19.56C48.9667 19.48 49.06 19.38 49.18 19.26C49.3 19.14 49.4 19.0333 49.48 18.94C49.5467 18.8733 49.6067 18.84 49.66 18.84C49.7133 18.8267 49.7867 18.8533 49.88 18.92C50.0133 19.0267 50.2 19.1933 50.44 19.42C50.6933 19.6333 50.88 19.8067 51 19.94C51.0667 19.9933 51.1 20.06 51.1 20.14C51.1 20.2067 51.0467 20.2667 50.94 20.32L50.44 20.58C50.3867 20.6067 50.3467 20.64 50.32 20.68C50.2933 20.7067 50.28 20.7867 50.28 20.92C50.28 21.12 50.2867 21.3667 50.3 21.66C50.3133 21.9533 50.3333 22.2533 50.36 22.56C50.3867 22.8533 50.4067 23.1067 50.42 23.32C50.4333 23.5467 50.44 23.68 50.44 23.72C50.44 23.8533 50.3267 23.9667 50.1 24.06C49.8733 24.1667 49.66 24.22 49.46 24.22C49.2067 24.22 49.08 24.12 49.08 23.92V23.4H44.9V24.02C44.9 24.1267 44.78 24.22 44.54 24.3C44.3133 24.3933 44.1067 24.44 43.92 24.44ZM55.8 24.26C55.64 23.8333 55.4667 23.5067 55.28 23.28C55.1067 23.0667 54.8667 22.9133 54.56 22.82C54.2533 22.7133 53.8267 22.6333 53.28 22.58C53.2267 22.5133 53.2067 22.44 53.22 22.36C53.2467 22.28 53.2933 22.22 53.36 22.18C53.4933 22.18 53.7133 22.1933 54.02 22.22C54.3267 22.2333 54.6467 22.2467 54.98 22.26C55.3267 22.2733 55.6133 22.28 55.84 22.28C56.0667 22.28 56.22 22.2333 56.3 22.14C56.38 22.0333 56.42 21.8867 56.42 21.7V7.9C56.42 7.43333 56.3733 7.12 56.28 6.96C56.2267 6.88 56.2267 6.80667 56.28 6.74C56.3067 6.68667 56.3733 6.67333 56.48 6.7C56.6133 6.71333 56.8 6.74667 57.04 6.8C57.28 6.85333 57.52 6.90667 57.76 6.96C58 7.01333 58.1933 7.06 58.34 7.1C58.4733 7.11333 58.5267 7.19333 58.5 7.34C58.4867 7.47333 58.4133 7.54 58.28 7.54C58.1467 7.55333 58.0067 7.58667 57.86 7.64C57.7133 7.68 57.64 7.8 57.64 8V14.88C57.64 15.5867 57.64 16.3067 57.64 17.04C57.6533 17.7733 57.6667 18.4733 57.68 19.14C57.6933 19.7933 57.7 20.3533 57.7 20.82C57.7133 21.2867 57.72 21.6 57.72 21.76C57.72 22.2533 57.66 22.66 57.54 22.98C57.42 23.2867 57.22 23.5333 56.94 23.72C56.6733 23.92 56.2933 24.1 55.8 24.26ZM41 13.14C40.8133 13.1 40.7467 12.9867 40.8 12.8C41.4533 12.3333 42.1133 11.78 42.78 11.14C43.4467 10.4867 44.0533 9.82667 44.6 9.16C45.1467 8.49333 45.5533 7.88667 45.82 7.34C45.9533 7.04667 46.0267 6.81333 46.04 6.64C46.0667 6.46667 46.1133 6.36 46.18 6.32C46.22 6.29333 46.2867 6.3 46.38 6.34C46.5133 6.40667 46.68 6.51333 46.88 6.66C47.0933 6.79333 47.3067 6.93333 47.52 7.08C47.7333 7.21333 47.9 7.33333 48.02 7.44C48.1267 7.50667 48.1467 7.6 48.08 7.72C48.0133 7.84 47.92 7.88 47.8 7.84C47.6267 7.77333 47.4867 7.74667 47.38 7.76C47.2867 7.77333 47.1933 7.83333 47.1 7.94L47.08 7.98C47.6 8.12667 48.1467 8.32 48.72 8.56C49.2933 8.8 49.82 9.06 50.3 9.34C50.7933 9.62 51.1733 9.91333 51.44 10.22C51.68 10.4867 51.7733 10.78 51.72 11.1C51.6667 11.42 51.5667 11.6333 51.42 11.74C51.3133 11.82 51.2 11.8467 51.08 11.82C50.96 11.78 50.8267 11.66 50.68 11.46C50.16 10.7933 49.58 10.2 48.94 9.68C48.3 9.14667 47.5933 8.69333 46.82 8.32C46.42 8.81333 45.9867 9.29333 45.52 9.76C45.0533 10.2133 44.5667 10.6467 44.06 11.06C44.3267 11.1133 44.5467 11.1467 44.72 11.16C44.8933 11.16 44.98 11.16 44.98 11.16H47.42C47.5133 11.16 47.58 11.1333 47.62 11.08C47.7 11 47.8067 10.8867 47.94 10.74C48.0867 10.58 48.1867 10.4667 48.24 10.4C48.36 10.28 48.4867 10.2733 48.62 10.38C48.7533 10.4733 48.9133 10.6133 49.1 10.8C49.2867 10.9867 49.44 11.14 49.56 11.26C49.68 11.3667 49.72 11.48 49.68 11.6C49.6533 11.7067 49.58 11.76 49.46 11.76H45C45 11.76 44.8867 11.7667 44.66 11.78C44.4333 11.78 44.1867 11.8133 43.92 11.88L43.82 11.26C43.3667 11.62 42.9 11.96 42.42 12.28C41.9533 12.5867 41.48 12.8733 41 13.14ZM53.02 20.42C52.74 20.42 52.6 20.3 52.6 20.06C52.6 19.98 52.6067 19.6733 52.62 19.14C52.6467 18.5933 52.6667 17.8533 52.68 16.92C52.6933 15.9867 52.7 14.9133 52.7 13.7V10.04C52.7 9.57333 52.6533 9.26 52.56 9.1C52.5067 9.02 52.5067 8.95333 52.56 8.9C52.6 8.84667 52.6667 8.82667 52.76 8.84C52.9067 8.86667 53.0933 8.90667 53.32 8.96C53.56 9 53.8 9.04667 54.04 9.1C54.28 9.15333 54.4733 9.2 54.62 9.24C54.7267 9.28 54.78 9.36 54.78 9.48C54.7667 9.6 54.6933 9.67333 54.56 9.7C54.4133 9.71333 54.2667 9.74 54.12 9.78C53.9867 9.82 53.92 9.94 53.92 10.14V13.72C53.92 15.68 53.9333 17.1667 53.96 18.18C54 19.1933 54.02 19.78 54.02 19.94C54.02 20.0467 53.9067 20.1533 53.68 20.26C53.4667 20.3667 53.2467 20.42 53.02 20.42ZM44.9 22.8H49.08V20.24H44.9V22.8ZM44.32 17.24H48.9V15.82H44.36V16.28C44.36 16.44 44.3533 16.6 44.34 16.76C44.34 16.92 44.3333 17.08 44.32 17.24ZM44.36 15.22H48.9V13.92H44.36V15.22ZM71.7 24.44C71.42 24.44 71.28 24.3267 71.28 24.1C71.28 24.0467 71.28 23.8867 71.28 23.62C71.2933 23.3533 71.3067 23.0267 71.32 22.64C71.3333 22.24 71.3467 21.8267 71.36 21.4C71.3733 20.96 71.38 20.5533 71.38 20.18C71.3933 19.7933 71.4 19.48 71.4 19.24V11.28H69.76C69.2533 12.08 68.72 12.8267 68.16 13.52C67.6133 14.2 67.0467 14.8267 66.46 15.4C66.26 15.4 66.16 15.3067 66.16 15.12C66.7467 14.3733 67.3 13.5667 67.82 12.7C68.34 11.82 68.8067 10.9267 69.22 10.02C69.6333 9.1 69.9667 8.21333 70.22 7.36C70.26 7.21333 70.28 7.08667 70.28 6.98C70.2933 6.86 70.3 6.76 70.3 6.68C70.3 6.50667 70.32 6.40667 70.36 6.38C70.4 6.34 70.4667 6.33333 70.56 6.36C70.5733 6.36 70.58 6.36 70.58 6.36C70.7133 6.41333 70.9 6.5 71.14 6.62C71.38 6.74 71.62 6.86667 71.86 7C72.1133 7.12 72.3067 7.21333 72.44 7.28C72.56 7.33333 72.5933 7.42667 72.54 7.56C72.5 7.69333 72.4133 7.74667 72.28 7.72C72.2533 7.72 72.22 7.71333 72.18 7.7C72.06 7.68667 71.9533 7.68667 71.86 7.7C71.78 7.71333 71.6933 7.80667 71.6 7.98C71.16 8.91333 70.6733 9.81333 70.14 10.68H76.16C76.2533 10.68 76.3267 10.6533 76.38 10.6C76.42 10.56 76.5067 10.4733 76.64 10.34C76.7733 10.2067 76.9 10.0733 77.02 9.94C77.1533 9.79333 77.24 9.70667 77.28 9.68C77.4 9.57333 77.52 9.56667 77.64 9.66C77.7067 9.71333 77.8267 9.82 78 9.98C78.1867 10.1267 78.3667 10.28 78.54 10.44C78.7267 10.6 78.8467 10.7067 78.9 10.76C79.0333 10.88 79.08 11 79.04 11.12C79 11.2267 78.9267 11.28 78.82 11.28H72.66V14.82H75.72C75.8133 14.82 75.8867 14.7933 75.94 14.74C75.98 14.7 76.0533 14.62 76.16 14.5C76.2667 14.3667 76.3733 14.24 76.48 14.12C76.5867 13.9867 76.66 13.9067 76.7 13.88C76.82 13.7733 76.94 13.7667 77.06 13.86C77.14 13.9133 77.26 14.0133 77.42 14.16C77.58 14.2933 77.74 14.4333 77.9 14.58C78.06 14.7267 78.1667 14.8333 78.22 14.9C78.34 15.02 78.38 15.14 78.34 15.26C78.3133 15.3667 78.2267 15.42 78.08 15.42H72.66V18.96H76.16C76.2533 18.96 76.3267 18.9333 76.38 18.88C76.42 18.84 76.5067 18.7533 76.64 18.62C76.7733 18.4733 76.9 18.3333 77.02 18.2C77.1533 18.0667 77.24 17.98 77.28 17.94C77.4 17.8333 77.52 17.8333 77.64 17.94C77.7067 17.98 77.8267 18.08 78 18.24C78.1867 18.4 78.3667 18.56 78.54 18.72C78.7267 18.8667 78.8467 18.9733 78.9 19.04C79.0333 19.16 79.08 19.28 79.04 19.4C79 19.5067 78.9267 19.56 78.82 19.56H72.66C72.66 19.9333 72.6667 20.36 72.68 20.84C72.6933 21.3067 72.7067 21.7667 72.72 22.22C72.7333 22.6733 72.7467 23.06 72.76 23.38C72.7733 23.7 72.78 23.8933 72.78 23.96C72.78 24.08 72.6533 24.1867 72.4 24.28C72.16 24.3867 71.9267 24.44 71.7 24.44ZM64.28 24.44C64 24.44 63.86 24.3267 63.86 24.1C63.86 24.0467 63.8667 23.8467 63.88 23.5C63.8933 23.1533 63.9067 22.7067 63.92 22.16C63.9333 21.6 63.9467 20.9867 63.96 20.32C63.9733 19.64 63.9867 18.9467 64 18.24C64.0133 17.5333 64.02 16.86 64.02 16.22V12.3C63.5 13.0067 62.9733 13.68 62.44 14.32C61.9067 14.9467 61.38 15.5333 60.86 16.08C60.66 16.08 60.56 15.9867 60.56 15.8C61.1733 15 61.7933 14.1133 62.42 13.14C63.0467 12.1533 63.6267 11.16 64.16 10.16C64.6933 9.14667 65.12 8.2 65.44 7.32C65.5467 7.01333 65.58 6.78 65.54 6.62C65.5133 6.46 65.5467 6.34667 65.64 6.28C65.6933 6.24 65.7667 6.24 65.86 6.28C65.9933 6.34667 66.1733 6.44667 66.4 6.58C66.6267 6.7 66.8533 6.82667 67.08 6.96C67.32 7.09333 67.5133 7.20667 67.66 7.3C67.78 7.35333 67.8133 7.44 67.76 7.56C67.72 7.70667 67.6333 7.76 67.5 7.72C67.3 7.65333 67.16 7.64 67.08 7.68C67 7.70667 66.9067 7.81333 66.8 8C66.3067 8.89333 65.7667 9.77333 65.18 10.64V16.24C65.18 17.0533 65.1867 17.9 65.2 18.78C65.2133 19.6467 65.2267 20.46 65.24 21.22C65.2533 21.98 65.2667 22.6067 65.28 23.1C65.2933 23.5933 65.3 23.88 65.3 23.96C65.3 24.0667 65.1867 24.1733 64.96 24.28C64.7333 24.3867 64.5067 24.44 64.28 24.44Z" fill="#383838"/>
<line x1="0.5" y1="27.5" x2="99.5" y2="27.5" stroke="#4D81B7" stroke-linecap="round"/>
<rect x="90.0734" y="4.99475" width="6" height="12" rx="1" transform="rotate(20 90.0734 4.99475)" stroke="#4D81B7"/>
<path d="M85.839 16.1151L86.4267 21.7855C86.5171 22.6572 87.6055 22.9993 88.1783 22.3359L91.9211 18.0015" stroke="#4D81B7" stroke-linecap="round"/>
<path d="M87 22.5L86.5 24" stroke="#4D81B7" stroke-linecap="round"/>
</svg>
