<svg width="1200" height="172" viewBox="0 0 1200 172" fill="none" xmlns="http://www.w3.org/2000/svg">
<rect width="1200" height="172" fill="white"/>
<rect y="72" width="1200" height="100" rx="20" fill="#004B97"/>
<rect y="152" width="1200" height="20" fill="#004B97"/>
<path d="M65.528 134.888C65.208 135.144 64.84 135.272 64.424 135.272C64.04 135.272 63.704 135.112 63.416 134.792C63.192 134.504 63.08 134.168 63.08 133.784C63.112 133.4 63.288 133.096 63.608 132.872C65.112 131.784 66.408 130.6 67.496 129.32C68.616 128.008 69.528 126.536 70.232 124.904C69.592 124.36 68.968 123.88 68.36 123.464C67.784 123.016 67.272 122.648 66.824 122.36C66.536 122.136 66.36 121.848 66.296 121.496C66.232 121.144 66.312 120.824 66.536 120.536C66.792 120.216 67.096 120.024 67.448 119.96C67.8 119.896 68.136 119.96 68.456 120.152C68.808 120.376 69.224 120.664 69.704 121.016C70.184 121.368 70.68 121.752 71.192 122.168C71.832 119.832 72.184 117.096 72.248 113.96H67.256C66.904 113.96 66.6 113.832 66.344 113.576C66.088 113.288 65.96 112.968 65.96 112.616C65.96 112.264 66.088 111.96 66.344 111.704C66.6 111.416 66.904 111.272 67.256 111.272H72.296V104.216C72.296 103.8 72.424 103.464 72.68 103.208C72.968 102.952 73.304 102.824 73.688 102.824C74.072 102.824 74.408 102.952 74.696 103.208C74.984 103.464 75.128 103.8 75.128 104.216V111.272H76.472C78.84 111.272 80.424 111.736 81.224 112.664C82.056 113.56 82.344 115.144 82.088 117.416C81.768 120.104 81.688 122.632 81.848 125C82.04 127.336 82.536 129.24 83.336 130.712C83.496 131.032 83.672 131.192 83.864 131.192C84.088 131.192 84.28 131.016 84.44 130.664C84.632 130.28 84.824 129.848 85.016 129.368C85.24 128.856 85.448 128.36 85.64 127.88C85.8 127.528 86.056 127.288 86.408 127.16C86.792 127 87.16 127 87.512 127.16C87.864 127.32 88.104 127.576 88.232 127.928C88.36 128.28 88.344 128.648 88.184 129.032C87.928 129.704 87.624 130.392 87.272 131.096C86.952 131.8 86.616 132.472 86.264 133.112C85.656 134.264 84.856 134.84 83.864 134.84C82.904 134.84 82.072 134.248 81.368 133.064C80.312 131.336 79.624 129.096 79.304 126.344C79.016 123.56 79.032 120.568 79.352 117.368C79.512 115.96 79.384 115.048 78.968 114.632C78.584 114.184 77.704 113.96 76.328 113.96H75.128C75.096 115.848 74.952 117.624 74.696 119.288C74.44 120.952 74.056 122.52 73.544 123.992C74.28 124.568 74.984 125.144 75.656 125.72C76.36 126.296 76.952 126.808 77.432 127.256C77.752 127.544 77.928 127.896 77.96 128.312C77.992 128.728 77.864 129.08 77.576 129.368C77.288 129.656 76.936 129.816 76.52 129.848C76.136 129.848 75.8 129.704 75.512 129.416C75.128 129.064 74.664 128.648 74.12 128.168C73.608 127.688 73.064 127.192 72.488 126.68C71.688 128.344 70.712 129.848 69.56 131.192C68.408 132.536 67.064 133.768 65.528 134.888ZM45.032 123.992C44.712 124.152 44.344 124.2 43.928 124.136C43.544 124.072 43.256 123.864 43.064 123.512C42.904 123.16 42.872 122.824 42.968 122.504C43.096 122.152 43.352 121.88 43.736 121.688C46.872 120.152 49.176 118.136 50.648 115.64H44.504C44.152 115.64 43.848 115.512 43.592 115.256C43.368 115 43.256 114.712 43.256 114.392C43.256 114.04 43.368 113.736 43.592 113.48C43.848 113.224 44.152 113.096 44.504 113.096H53.624V109.688H46.616C46.296 109.688 46.008 109.56 45.752 109.304C45.528 109.048 45.416 108.76 45.416 108.44C45.416 108.088 45.528 107.8 45.752 107.576C46.008 107.352 46.296 107.24 46.616 107.24H53.624V104.168C53.624 103.752 53.752 103.416 54.008 103.16C54.296 102.872 54.648 102.728 55.064 102.728C55.448 102.728 55.784 102.872 56.072 103.16C56.36 103.416 56.504 103.752 56.504 104.168V107.24H63.224C63.576 107.24 63.864 107.352 64.088 107.576C64.312 107.8 64.424 108.088 64.424 108.44C64.424 108.76 64.312 109.048 64.088 109.304C63.864 109.56 63.576 109.688 63.224 109.688H56.504V113.096H64.856C65.208 113.096 65.496 113.224 65.72 113.48C65.976 113.736 66.104 114.04 66.104 114.392C66.104 114.712 65.976 115 65.72 115.256C65.496 115.512 65.208 115.64 64.856 115.64H58.712V118.088C58.712 118.824 58.872 119.304 59.192 119.528C59.512 119.752 60.152 119.864 61.112 119.864C61.944 119.864 62.536 119.72 62.888 119.432C63.272 119.144 63.576 118.552 63.8 117.656C63.864 117.336 64.056 117.112 64.376 116.984C64.728 116.824 65.064 116.776 65.384 116.84C66.184 117.096 66.504 117.624 66.344 118.424C66.024 119.896 65.448 120.92 64.616 121.496C63.784 122.072 62.568 122.36 60.968 122.36C59.208 122.36 57.944 122.088 57.176 121.544C56.408 121 56.024 119.928 56.024 118.328V115.64H53.528C52.632 117.496 51.48 119.096 50.072 120.44C48.696 121.784 47.016 122.968 45.032 123.992ZM45.368 134.312C44.344 134.408 43.8 133.992 43.736 133.064C43.704 132.648 43.816 132.312 44.072 132.056C44.328 131.8 44.68 131.656 45.128 131.624C46.12 131.592 47.368 131.512 48.872 131.384C50.376 131.224 51.96 131.064 53.624 130.904V126.776H47.384C47.064 126.776 46.776 126.648 46.52 126.392C46.264 126.136 46.136 125.848 46.136 125.528C46.136 125.176 46.264 124.888 46.52 124.664C46.776 124.44 47.064 124.328 47.384 124.328H53.624V121.4C53.624 120.984 53.752 120.648 54.008 120.392C54.296 120.104 54.648 119.96 55.064 119.96C55.448 119.96 55.784 120.104 56.072 120.392C56.36 120.648 56.504 120.984 56.504 121.4V124.328H62.696C63.048 124.328 63.336 124.44 63.56 124.664C63.784 124.888 63.896 125.176 63.896 125.528C63.896 125.848 63.784 126.136 63.56 126.392C63.336 126.648 63.048 126.776 62.696 126.776H56.504V130.616C57.848 130.456 59.128 130.312 60.344 130.184C61.56 130.024 62.6 129.896 63.464 129.8C63.816 129.768 64.12 129.864 64.376 130.088C64.664 130.28 64.824 130.552 64.856 130.904C64.888 131.224 64.792 131.528 64.568 131.816C64.344 132.072 64.056 132.216 63.704 132.248C62.456 132.408 61.048 132.6 59.48 132.824C57.912 133.016 56.28 133.224 54.584 133.448C52.888 133.64 51.24 133.816 49.64 133.976C48.04 134.136 46.616 134.248 45.368 134.312ZM84.872 146.264C84.488 146.52 84.088 146.6 83.672 146.504C83.256 146.408 82.936 146.184 82.712 145.832C82.296 145.128 81.736 144.264 81.032 143.24C80.36 142.216 79.656 141.192 78.92 140.168C78.184 139.144 77.512 138.28 76.904 137.576C76.68 137.288 76.568 136.952 76.568 136.568C76.6 136.184 76.776 135.88 77.096 135.656C77.448 135.4 77.816 135.288 78.2 135.32C78.584 135.32 78.904 135.48 79.16 135.8C79.832 136.536 80.552 137.416 81.32 138.44C82.12 139.464 82.872 140.488 83.576 141.512C84.28 142.504 84.856 143.368 85.304 144.104C85.528 144.488 85.592 144.872 85.496 145.256C85.432 145.672 85.224 146.008 84.872 146.264ZM44.504 146.312C44.184 146.024 44.024 145.672 44.024 145.256C44.024 144.84 44.184 144.472 44.504 144.152C45.144 143.512 45.832 142.744 46.568 141.848C47.304 140.92 48.008 139.976 48.68 139.016C49.352 138.056 49.912 137.208 50.36 136.472C50.584 136.12 50.888 135.896 51.272 135.8C51.688 135.704 52.072 135.768 52.424 135.992C52.776 136.216 53 136.52 53.096 136.904C53.192 137.288 53.128 137.656 52.904 138.008C52.104 139.352 51.144 140.76 50.024 142.232C48.936 143.704 47.864 145 46.808 146.12C46.488 146.44 46.12 146.632 45.704 146.696C45.288 146.76 44.888 146.632 44.504 146.312ZM71.384 146.552C70.968 146.648 70.568 146.584 70.184 146.36C69.832 146.168 69.624 145.864 69.56 145.448C69.432 144.744 69.256 143.896 69.032 142.904C68.808 141.88 68.568 140.872 68.312 139.88C68.056 138.856 67.816 138.008 67.592 137.336C67.464 136.952 67.496 136.6 67.688 136.28C67.88 135.928 68.168 135.704 68.552 135.608C68.968 135.48 69.352 135.512 69.704 135.704C70.056 135.896 70.296 136.2 70.424 136.616C70.648 137.288 70.888 138.12 71.144 139.112C71.432 140.104 71.688 141.112 71.912 142.136C72.168 143.128 72.376 144.008 72.536 144.776C72.6 145.192 72.52 145.56 72.296 145.88C72.104 146.232 71.8 146.456 71.384 146.552ZM60.728 146.744C60.312 146.808 59.928 146.728 59.576 146.504C59.256 146.312 59.064 146.008 59 145.592C58.936 144.888 58.84 144.04 58.712 143.048C58.584 142.088 58.44 141.128 58.28 140.168C58.12 139.176 57.96 138.376 57.8 137.768C57.704 137.352 57.768 136.984 57.992 136.664C58.216 136.344 58.52 136.152 58.904 136.088C59.32 135.992 59.688 136.056 60.008 136.28C60.36 136.472 60.584 136.792 60.68 137.24C60.84 137.912 61 138.728 61.16 139.688C61.352 140.648 61.512 141.608 61.64 142.568C61.8 143.528 61.928 144.36 62.024 145.064C62.088 145.48 61.992 145.848 61.736 146.168C61.512 146.488 61.176 146.68 60.728 146.744ZM106.52 140.12C104.632 140.12 103.144 139.944 102.056 139.592C101 139.208 100.264 138.552 99.848 137.624C99.432 136.696 99.224 135.416 99.224 133.784V130.328C99.224 128.664 99.432 127.384 99.848 126.488C100.264 125.56 101 124.92 102.056 124.568C103.144 124.184 104.632 123.992 106.52 123.992H119.432C121.352 123.992 122.84 124.184 123.896 124.568C124.952 124.92 125.688 125.56 126.104 126.488C126.52 127.384 126.728 128.664 126.728 130.328V133.784C126.728 135.416 126.52 136.696 126.104 137.624C125.688 138.552 124.952 139.208 123.896 139.592C122.84 139.944 121.352 140.12 119.432 140.12H106.52ZM98.744 122.12C97.176 122.12 96.056 121.848 95.384 121.304C94.712 120.76 94.376 119.8 94.376 118.424C94.376 117.112 94.712 116.184 95.384 115.64C96.056 115.064 97.176 114.776 98.744 114.776H127.256C128.856 114.776 129.976 115.032 130.616 115.544C131.288 116.056 131.624 117.016 131.624 118.424C131.624 119.8 131.288 120.76 130.616 121.304C129.976 121.848 128.856 122.12 127.256 122.12H98.744ZM96.92 112.808C96.6 112.808 96.344 112.696 96.152 112.472C95.96 112.248 95.864 112.008 95.864 111.752C95.864 111.464 95.96 111.208 96.152 110.984C96.344 110.76 96.6 110.648 96.92 110.648H111.56V108.2H93.944C93.624 108.2 93.368 108.088 93.176 107.864C92.984 107.64 92.888 107.384 92.888 107.096C92.888 106.776 92.984 106.52 93.176 106.328C93.368 106.104 93.624 105.992 93.944 105.992H111.56V103.88C111.56 103.432 111.704 103.08 111.992 102.824C112.28 102.536 112.632 102.392 113.048 102.392C113.464 102.392 113.8 102.536 114.056 102.824C114.344 103.08 114.488 103.432 114.488 103.88V105.992H132.008C132.328 105.992 132.584 106.104 132.776 106.328C132.968 106.52 133.064 106.776 133.064 107.096C133.064 107.384 132.968 107.64 132.776 107.864C132.584 108.088 132.328 108.2 132.008 108.2H114.488V110.648H128.744C129.064 110.648 129.32 110.76 129.512 110.984C129.704 111.208 129.8 111.464 129.8 111.752C129.8 112.008 129.704 112.248 129.512 112.472C129.32 112.696 129.064 112.808 128.744 112.808H96.92ZM102.2 133.208H123.752V130.472H102.2V133.208ZM106.904 137.96H119.048C120.744 137.96 121.912 137.784 122.552 137.432C123.224 137.048 123.608 136.28 123.704 135.128H102.248C102.344 136.28 102.712 137.048 103.352 137.432C104.024 137.784 105.208 137.96 106.904 137.96ZM102.296 128.552H123.656C123.528 127.592 123.128 126.952 122.456 126.632C121.784 126.312 120.648 126.152 119.048 126.152H106.904C105.304 126.152 104.168 126.312 103.496 126.632C102.856 126.952 102.456 127.592 102.296 128.552ZM95 146.984C93.944 147.176 93.32 146.872 93.128 146.072C93.032 145.72 93.08 145.384 93.272 145.064C93.496 144.744 93.816 144.536 94.232 144.44C95.448 144.216 96.776 143.88 98.216 143.432C99.688 143.016 101.112 142.536 102.488 141.992C103.864 141.448 105.032 140.936 105.992 140.456C106.344 140.296 106.696 140.264 107.048 140.36C107.432 140.424 107.688 140.616 107.816 140.936C108.136 141.672 107.912 142.248 107.144 142.664C106.088 143.208 104.84 143.752 103.4 144.296C101.96 144.872 100.504 145.384 99.032 145.832C97.56 146.312 96.216 146.696 95 146.984ZM130.952 146.984C129.768 146.696 128.424 146.312 126.92 145.832C125.448 145.384 123.992 144.872 122.552 144.296C121.112 143.752 119.864 143.208 118.808 142.664C118.04 142.248 117.816 141.672 118.136 140.936C118.296 140.616 118.552 140.424 118.904 140.36C119.288 140.264 119.64 140.296 119.96 140.456C120.92 140.936 122.088 141.448 123.464 141.992C124.84 142.536 126.264 143.016 127.736 143.432C129.208 143.88 130.536 144.216 131.72 144.44C132.168 144.536 132.488 144.744 132.68 145.064C132.872 145.384 132.92 145.72 132.824 146.072C132.568 146.872 131.944 147.176 130.952 146.984ZM108.632 120.152H117.32V116.648H108.632V120.152ZM120.152 120.152H126.632C127.496 120.152 128.056 120.04 128.312 119.816C128.6 119.592 128.744 119.128 128.744 118.424C128.744 117.688 128.6 117.208 128.312 116.984C128.056 116.76 127.496 116.648 126.632 116.648H120.152V120.152ZM99.368 120.152H105.752V116.648H99.368C98.472 116.648 97.896 116.776 97.64 117.032C97.384 117.288 97.256 117.752 97.256 118.424C97.256 119.128 97.384 119.592 97.64 119.816C97.896 120.04 98.472 120.152 99.368 120.152ZM162.728 147.032C162.312 147.032 161.96 146.904 161.672 146.648C161.384 146.424 161.224 146.104 161.192 145.688C161.16 145.304 161.272 144.952 161.528 144.632C161.816 144.344 162.184 144.184 162.632 144.152C164.04 144.088 165.096 143.96 165.8 143.768C166.536 143.608 167.032 143.32 167.288 142.904C167.544 142.456 167.672 141.816 167.672 140.984V136.856H152.312C152.376 136.888 152.44 136.92 152.504 136.952C152.568 136.984 152.616 137.032 152.648 137.096C153.384 137.768 154.168 138.584 155 139.544C155.864 140.472 156.568 141.272 157.112 141.944C157.368 142.232 157.48 142.568 157.448 142.952C157.448 143.304 157.288 143.624 156.968 143.912C156.68 144.136 156.344 144.232 155.96 144.2C155.576 144.2 155.256 144.056 155 143.768C154.456 143.032 153.752 142.2 152.888 141.272C152.056 140.312 151.304 139.48 150.632 138.776C150.408 138.52 150.312 138.232 150.344 137.912C150.376 137.592 150.504 137.32 150.728 137.096C150.792 137.032 150.84 136.984 150.872 136.952C150.936 136.92 151 136.888 151.064 136.856H140.504C140.152 136.856 139.864 136.744 139.64 136.52C139.416 136.264 139.304 135.976 139.304 135.656C139.304 135.336 139.416 135.064 139.64 134.84C139.864 134.584 140.152 134.456 140.504 134.456H167.672V130.664C165.08 130.792 162.328 130.904 159.416 131C156.536 131.096 153.688 131.192 150.872 131.288C148.056 131.352 145.448 131.4 143.048 131.432C142.696 131.432 142.392 131.32 142.136 131.096C141.912 130.84 141.784 130.536 141.752 130.184C141.752 129.864 141.848 129.592 142.04 129.368C142.264 129.112 142.584 128.984 143 128.984C145.304 128.984 147.896 128.968 150.776 128.936C153.688 128.872 156.6 128.808 159.512 128.744V125.672H153.608C151.464 125.672 149.832 125.496 148.712 125.144C147.592 124.792 146.824 124.136 146.408 123.176C145.992 122.184 145.784 120.776 145.784 118.952C145.784 117.128 145.992 115.736 146.408 114.776C146.824 113.784 147.592 113.112 148.712 112.76C149.832 112.376 151.464 112.184 153.608 112.184H159.512V109.496H140.792C140.472 109.496 140.2 109.384 139.976 109.16C139.752 108.904 139.64 108.616 139.64 108.296C139.64 107.944 139.752 107.656 139.976 107.432C140.2 107.208 140.472 107.096 140.792 107.096H159.512V103.88C159.512 103.432 159.656 103.08 159.944 102.824C160.232 102.536 160.584 102.392 161 102.392C161.448 102.392 161.816 102.536 162.104 102.824C162.392 103.08 162.536 103.432 162.536 103.88V107.096H181.16C181.512 107.096 181.784 107.208 181.976 107.432C182.2 107.656 182.312 107.944 182.312 108.296C182.312 108.616 182.2 108.904 181.976 109.16C181.784 109.384 181.512 109.496 181.16 109.496H162.536V112.184H168.296C170.472 112.184 172.12 112.376 173.24 112.76C174.36 113.112 175.112 113.784 175.496 114.776C175.912 115.736 176.12 117.128 176.12 118.952C176.12 120.552 175.976 121.816 175.688 122.744C175.4 123.672 174.84 124.36 174.008 124.808C173.208 125.224 172.04 125.496 170.504 125.624C170.504 125.624 170.568 125.656 170.696 125.72C171.4 126.168 172.2 126.696 173.096 127.304C173.992 127.88 174.872 128.456 175.736 129.032C176.6 129.608 177.304 130.136 177.848 130.616C178.136 130.84 178.28 131.128 178.28 131.48C178.312 131.832 178.2 132.152 177.944 132.44C177.72 132.664 177.416 132.792 177.032 132.824C176.68 132.824 176.376 132.712 176.12 132.488C175.8 132.168 175.4 131.832 174.92 131.48C174.44 131.096 173.928 130.728 173.384 130.376C172.936 130.408 172.472 130.44 171.992 130.472C171.544 130.472 171.064 130.488 170.552 130.52V134.456H181.64C181.992 134.456 182.264 134.584 182.456 134.84C182.68 135.064 182.792 135.336 182.792 135.656C182.792 135.976 182.68 136.264 182.456 136.52C182.264 136.744 181.992 136.856 181.64 136.856H170.552V141.224C170.552 142.6 170.312 143.704 169.832 144.536C169.384 145.4 168.584 146.024 167.432 146.408C166.312 146.824 164.744 147.032 162.728 147.032ZM153.8 123.416H159.512V119.912H148.76C148.824 120.872 148.984 121.608 149.24 122.12C149.528 122.632 150.024 122.984 150.728 123.176C151.464 123.336 152.488 123.416 153.8 123.416ZM162.536 123.416H168.152C169.464 123.416 170.472 123.336 171.176 123.176C171.88 122.984 172.376 122.632 172.664 122.12C172.984 121.608 173.16 120.872 173.192 119.912H162.536V123.416ZM148.76 117.656H159.512V114.488H153.8C151.88 114.488 150.584 114.696 149.912 115.112C149.24 115.496 148.856 116.344 148.76 117.656ZM162.536 117.656H173.192C173.096 116.344 172.696 115.496 171.992 115.112C171.32 114.696 170.04 114.488 168.152 114.488H162.536V117.656ZM162.536 128.696C163.944 128.632 165.32 128.584 166.664 128.552C168.04 128.52 169.336 128.488 170.552 128.456C170.296 128.296 170.04 128.136 169.784 127.976C169.528 127.784 169.288 127.624 169.064 127.496C168.84 127.336 168.696 127.096 168.632 126.776C168.6 126.424 168.696 126.136 168.92 125.912C168.952 125.848 168.984 125.8 169.016 125.768C169.08 125.736 169.128 125.704 169.16 125.672H162.536V128.696ZM203.816 145.208C201.16 145.208 198.952 145.048 197.192 144.728C195.432 144.408 194.024 143.832 192.968 143C191.944 142.168 191.208 140.984 190.76 139.448C190.312 137.912 190.088 135.928 190.088 133.496V107.384H188.072C187.656 107.384 187.32 107.24 187.064 106.952C186.808 106.664 186.68 106.328 186.68 105.944C186.68 105.56 186.808 105.224 187.064 104.936C187.32 104.648 187.656 104.504 188.072 104.504H228.488C228.904 104.504 229.24 104.648 229.496 104.936C229.752 105.224 229.88 105.56 229.88 105.944C229.88 106.328 229.752 106.664 229.496 106.952C229.24 107.24 228.904 107.384 228.488 107.384H193.16V133.4C193.16 135.288 193.32 136.824 193.64 138.008C193.96 139.16 194.504 140.04 195.272 140.648C196.072 141.256 197.16 141.672 198.536 141.896C199.912 142.12 201.672 142.232 203.816 142.232H228.872C229.32 142.232 229.672 142.376 229.928 142.664C230.216 142.952 230.36 143.304 230.36 143.72C230.36 144.136 230.216 144.488 229.928 144.776C229.672 145.064 229.32 145.208 228.872 145.208H203.816ZM208.856 122.312C206.392 122.312 204.68 121.928 203.72 121.16C202.76 120.392 202.28 118.92 202.28 116.744C202.28 114.568 202.76 113.096 203.72 112.328C204.68 111.56 206.392 111.176 208.856 111.176H213.944C216.408 111.176 218.12 111.56 219.08 112.328C220.072 113.096 220.568 114.568 220.568 116.744C220.568 118.92 220.072 120.392 219.08 121.16C218.12 121.928 216.408 122.312 213.944 122.312H208.856ZM219.752 138.104C217.32 138.104 215.608 137.672 214.616 136.808C213.656 135.912 213.176 134.248 213.176 131.816C213.176 129.416 213.656 127.768 214.616 126.872C215.608 125.976 217.32 125.528 219.752 125.528C222.152 125.528 223.832 125.976 224.792 126.872C225.784 127.768 226.28 129.416 226.28 131.816C226.28 134.248 225.784 135.912 224.792 136.808C223.832 137.672 222.152 138.104 219.752 138.104ZM203.672 138.104C201.24 138.104 199.544 137.672 198.584 136.808C197.656 135.912 197.192 134.248 197.192 131.816C197.192 129.416 197.656 127.768 198.584 126.872C199.544 125.976 201.24 125.528 203.672 125.528C206.072 125.528 207.752 125.976 208.712 126.872C209.672 127.768 210.152 129.416 210.152 131.816C210.152 134.248 209.672 135.912 208.712 136.808C207.752 137.672 206.072 138.104 203.672 138.104ZM208.856 119.72H213.944C215.384 119.72 216.344 119.544 216.824 119.192C217.304 118.84 217.544 118.024 217.544 116.744C217.544 115.432 217.304 114.616 216.824 114.296C216.344 113.976 215.384 113.816 213.944 113.816H208.856C207.416 113.816 206.456 113.976 205.976 114.296C205.528 114.616 205.304 115.432 205.304 116.744C205.304 118.024 205.528 118.84 205.976 119.192C206.456 119.544 207.416 119.72 208.856 119.72ZM219.752 135.512C221.256 135.512 222.248 135.288 222.728 134.84C223.208 134.392 223.448 133.384 223.448 131.816C223.448 130.248 223.208 129.256 222.728 128.84C222.248 128.392 221.256 128.168 219.752 128.168C218.76 128.168 217.992 128.264 217.448 128.456C216.904 128.616 216.52 128.952 216.296 129.464C216.104 129.976 216.008 130.76 216.008 131.816C216.008 133.384 216.248 134.392 216.728 134.84C217.24 135.288 218.248 135.512 219.752 135.512ZM203.672 135.512C204.696 135.512 205.464 135.432 205.976 135.272C206.488 135.08 206.824 134.712 206.984 134.168C207.176 133.624 207.272 132.84 207.272 131.816C207.272 130.76 207.176 129.976 206.984 129.464C206.824 128.952 206.488 128.616 205.976 128.456C205.464 128.264 204.696 128.168 203.672 128.168C202.68 128.168 201.912 128.264 201.368 128.456C200.856 128.616 200.504 128.952 200.312 129.464C200.12 129.976 200.024 130.76 200.024 131.816C200.024 132.84 200.12 133.624 200.312 134.168C200.504 134.712 200.856 135.08 201.368 135.272C201.912 135.432 202.68 135.512 203.672 135.512Z" fill="white"/>
<g filter="url(#filter0_d_874_1072)">
<rect x="274" y="18" width="877" height="120" rx="50" fill="#FFD900"/>
</g>
<path d="M484.712 108.176C484.296 108.176 483.944 108.032 483.656 107.744C483.4 107.488 483.272 107.152 483.272 106.736V83.84C482.376 85.696 481.384 87.536 480.296 89.36C479.208 91.184 478.152 92.816 477.128 94.256C476.904 94.608 476.584 94.832 476.168 94.928C475.784 94.992 475.416 94.912 475.064 94.688C474.744 94.464 474.536 94.16 474.44 93.776C474.376 93.392 474.472 93.04 474.728 92.72C475.496 91.728 476.296 90.592 477.128 89.312C477.96 88 478.76 86.656 479.528 85.28C480.328 83.872 481.048 82.512 481.688 81.2C482.36 79.888 482.888 78.704 483.272 77.648V76.784H476.264C475.848 76.784 475.512 76.656 475.256 76.4C475 76.144 474.872 75.824 474.872 75.44C474.872 75.056 475 74.736 475.256 74.48C475.512 74.224 475.848 74.096 476.264 74.096H483.272V65.312C483.272 64.864 483.4 64.512 483.656 64.256C483.944 64 484.296 63.872 484.712 63.872C485.128 63.872 485.464 64 485.72 64.256C486.008 64.512 486.152 64.864 486.152 65.312V74.096H491C491.416 74.096 491.736 74.224 491.96 74.48C492.216 74.736 492.344 75.056 492.344 75.44C492.344 75.824 492.216 76.144 491.96 76.4C491.736 76.656 491.416 76.784 491 76.784H486.152V80.528C486.664 81.232 487.304 82.08 488.072 83.072C488.872 84.064 489.672 85.04 490.472 86C491.272 86.928 491.944 87.68 492.488 88.256C492.776 88.544 492.904 88.896 492.872 89.312C492.872 89.696 492.728 90.016 492.44 90.272C492.152 90.528 491.8 90.656 491.384 90.656C491 90.624 490.68 90.448 490.424 90.128C489.848 89.488 489.16 88.656 488.36 87.632C487.592 86.608 486.856 85.584 486.152 84.56V106.736C486.152 107.152 486.008 107.488 485.72 107.744C485.464 108.032 485.128 108.176 484.712 108.176ZM492.968 107.408C492.552 107.6 492.104 107.632 491.624 107.504C491.176 107.408 490.84 107.136 490.616 106.688C490.424 106.24 490.408 105.824 490.568 105.44C490.76 105.056 491.08 104.768 491.528 104.576C496.36 102.688 500.328 99.92 503.432 96.272C502.44 94.896 501.528 93.424 500.696 91.856C499.864 90.288 499.128 88.592 498.488 86.768C498.36 86.352 498.376 85.984 498.536 85.664C498.728 85.312 499 85.072 499.352 84.944C499.736 84.816 500.104 84.816 500.456 84.944C500.84 85.072 501.096 85.36 501.224 85.808C501.736 87.344 502.328 88.784 503 90.128C503.704 91.472 504.456 92.72 505.256 93.872C506.952 91.408 508.232 88.608 509.096 85.472C509.224 85.024 509.464 84.72 509.816 84.56C510.168 84.4 510.552 84.4 510.968 84.56C511.32 84.688 511.592 84.912 511.784 85.232C512.008 85.552 512.056 85.936 511.928 86.384C510.744 90.192 509.144 93.488 507.128 96.272C508.728 98.096 510.504 99.696 512.456 101.072C514.408 102.416 516.456 103.6 518.6 104.624C519.016 104.848 519.288 105.152 519.416 105.536C519.576 105.952 519.544 106.368 519.32 106.784C519.096 107.2 518.76 107.456 518.312 107.552C517.864 107.68 517.432 107.632 517.016 107.408C514.776 106.224 512.664 104.912 510.68 103.472C508.728 102.032 506.952 100.4 505.352 98.576C503.688 100.496 501.816 102.176 499.736 103.616C497.656 105.056 495.4 106.32 492.968 107.408ZM494.024 75.152C493.608 75.152 493.256 75.024 492.968 74.768C492.712 74.48 492.584 74.144 492.584 73.76C492.584 73.376 492.712 73.056 492.968 72.8C493.256 72.512 493.608 72.368 494.024 72.368H503.768V65.504C503.768 65.056 503.912 64.704 504.2 64.448C504.52 64.16 504.888 64.016 505.304 64.016C505.72 64.016 506.072 64.16 506.36 64.448C506.648 64.704 506.792 65.056 506.792 65.504V72.368H516.584C517 72.368 517.336 72.512 517.592 72.8C517.848 73.056 517.976 73.376 517.976 73.76C517.976 74.144 517.848 74.48 517.592 74.768C517.336 75.024 517 75.152 516.584 75.152H494.024ZM494.888 86.336C494.568 86.56 494.184 86.656 493.736 86.624C493.32 86.592 492.984 86.416 492.728 86.096C492.472 85.744 492.36 85.392 492.392 85.04C492.424 84.656 492.6 84.352 492.92 84.128C493.656 83.584 494.456 82.896 495.32 82.064C496.216 81.232 497.096 80.352 497.96 79.424C498.824 78.496 499.544 77.648 500.12 76.88C500.376 76.56 500.696 76.384 501.08 76.352C501.464 76.288 501.816 76.384 502.136 76.64C502.488 76.896 502.68 77.216 502.712 77.6C502.744 77.984 502.632 78.336 502.376 78.656C501.384 79.968 500.2 81.328 498.824 82.736C497.448 84.144 496.136 85.344 494.888 86.336ZM516.008 86.048C514.728 85.12 513.368 83.984 511.928 82.64C510.488 81.264 509.24 79.936 508.184 78.656C507.928 78.368 507.816 78.032 507.848 77.648C507.88 77.232 508.056 76.896 508.376 76.64C508.664 76.384 509 76.272 509.384 76.304C509.8 76.336 510.12 76.512 510.344 76.832C510.952 77.536 511.688 78.336 512.552 79.232C513.448 80.096 514.36 80.944 515.288 81.776C516.248 82.576 517.096 83.248 517.832 83.792C518.152 84.016 518.344 84.32 518.408 84.704C518.472 85.088 518.376 85.44 518.12 85.76C517.864 86.08 517.528 86.272 517.112 86.336C516.728 86.4 516.36 86.304 516.008 86.048ZM538.616 106.496C536.088 106.496 533.96 106.336 532.232 106.016C530.504 105.696 529.112 105.104 528.056 104.24C527.032 103.376 526.28 102.144 525.8 100.544C525.352 98.944 525.128 96.88 525.128 94.352V77.12C525.128 74.592 525.352 72.544 525.8 70.976C526.28 69.376 527.032 68.144 528.056 67.28C529.112 66.416 530.504 65.824 532.232 65.504C533.96 65.152 536.088 64.976 538.616 64.976H551.384C553.912 64.976 556.04 65.152 557.768 65.504C559.496 65.824 560.872 66.416 561.896 67.28C562.952 68.144 563.704 69.376 564.152 70.976C564.632 72.544 564.872 74.592 564.872 77.12V94.352C564.872 96.88 564.632 98.944 564.152 100.544C563.704 102.144 562.952 103.376 561.896 104.24C560.872 105.104 559.496 105.696 557.768 106.016C556.04 106.336 553.912 106.496 551.384 106.496H538.616ZM538.616 103.76H551.384C553.4 103.76 555.08 103.648 556.424 103.424C557.8 103.2 558.888 102.768 559.688 102.128C560.488 101.488 561.064 100.544 561.416 99.296C561.768 98.048 561.944 96.416 561.944 94.4V77.12C561.944 75.072 561.768 73.44 561.416 72.224C561.064 70.976 560.488 70.032 559.688 69.392C558.888 68.752 557.8 68.32 556.424 68.096C555.08 67.872 553.4 67.76 551.384 67.76H538.616C536.6 67.76 534.904 67.872 533.528 68.096C532.184 68.32 531.112 68.752 530.312 69.392C529.512 70.032 528.936 70.976 528.584 72.224C528.232 73.44 528.056 75.072 528.056 77.12V94.4C528.056 96.416 528.232 98.048 528.584 99.296C528.936 100.544 529.512 101.488 530.312 102.128C531.112 102.768 532.184 103.2 533.528 103.424C534.904 103.648 536.6 103.76 538.616 103.76ZM544.568 102.896C544.216 102.896 543.896 102.784 543.608 102.56C543.352 102.304 543.224 101.968 543.224 101.552V92.96C542.168 93.792 540.984 94.64 539.672 95.504C538.392 96.336 537.08 97.12 535.736 97.856C534.392 98.592 533.112 99.232 531.896 99.776C531.576 99.904 531.24 99.92 530.888 99.824C530.536 99.696 530.28 99.488 530.12 99.2C529.992 98.912 529.976 98.608 530.072 98.288C530.168 97.968 530.376 97.744 530.696 97.616C531.816 97.2 533.032 96.656 534.344 95.984C535.688 95.28 537.016 94.528 538.328 93.728C539.64 92.896 540.792 92.096 541.784 91.328H540.584C538.408 91.328 536.92 91.04 536.12 90.464C535.32 89.856 534.92 88.704 534.92 87.008C534.92 85.28 535.32 84.128 536.12 83.552C536.92 82.944 538.408 82.64 540.584 82.64H549.272C551.48 82.64 552.968 82.944 553.736 83.552C554.536 84.128 554.936 85.28 554.936 87.008C554.936 88.704 554.536 89.856 553.736 90.464C552.968 91.04 551.48 91.328 549.272 91.328H545.96V91.376C545.96 91.376 546.024 91.408 546.152 91.472C546.888 92.048 547.672 92.608 548.504 93.152C549.368 93.664 550.248 94.16 551.144 94.64C551.816 94.096 552.584 93.456 553.448 92.72C554.312 91.984 554.952 91.392 555.368 90.944C555.592 90.688 555.864 90.544 556.184 90.512C556.536 90.48 556.856 90.56 557.144 90.752C557.4 90.912 557.56 91.168 557.624 91.52C557.688 91.84 557.592 92.128 557.336 92.384C556.856 92.864 556.216 93.408 555.416 94.016C554.648 94.624 553.944 95.184 553.304 95.696C555.224 96.56 557.144 97.264 559.064 97.808C559.416 97.872 559.656 98.064 559.784 98.384C559.944 98.672 559.96 98.992 559.832 99.344C559.704 99.696 559.464 99.952 559.112 100.112C558.76 100.272 558.392 100.288 558.008 100.16C555.864 99.456 553.72 98.56 551.576 97.472C549.432 96.384 547.56 95.232 545.96 94.016V101.552C545.96 101.968 545.816 102.304 545.528 102.56C545.272 102.784 544.952 102.896 544.568 102.896ZM530.984 80.336C530.664 80.336 530.392 80.208 530.168 79.952C529.944 79.696 529.832 79.408 529.832 79.088C529.832 78.768 529.944 78.496 530.168 78.272C530.392 78.016 530.664 77.888 530.984 77.888H543.608V74.72H534.488C534.168 74.72 533.896 74.608 533.672 74.384C533.48 74.128 533.384 73.84 533.384 73.52C533.384 73.2 533.48 72.912 533.672 72.656C533.896 72.4 534.168 72.272 534.488 72.272H543.608V70.016C543.608 69.632 543.736 69.312 543.992 69.056C544.28 68.8 544.6 68.672 544.952 68.672C545.336 68.672 545.656 68.8 545.912 69.056C546.2 69.312 546.344 69.632 546.344 70.016V72.272H555.224C555.576 72.272 555.848 72.4 556.04 72.656C556.264 72.912 556.376 73.2 556.376 73.52C556.376 73.84 556.264 74.128 556.04 74.384C555.848 74.608 555.576 74.72 555.224 74.72H546.344V77.888H558.824C559.176 77.888 559.448 78.016 559.64 78.272C559.864 78.496 559.976 78.768 559.976 79.088C559.976 79.408 559.864 79.696 559.64 79.952C559.448 80.208 559.176 80.336 558.824 80.336H530.984ZM540.584 89.024H549.272C550.392 89.024 551.144 88.928 551.528 88.736C551.912 88.512 552.104 87.936 552.104 87.008C552.104 86.048 551.912 85.472 551.528 85.28C551.144 85.056 550.392 84.944 549.272 84.944H540.584C539.464 84.944 538.712 85.056 538.328 85.28C537.944 85.472 537.752 86.048 537.752 87.008C537.752 87.936 537.944 88.512 538.328 88.736C538.712 88.928 539.464 89.024 540.584 89.024ZM590.024 108.176C589.608 108.176 589.24 108.032 588.92 107.744C588.632 107.456 588.488 107.104 588.488 106.688V100.784C587.464 100.976 586.28 101.2 584.936 101.456C583.592 101.68 582.184 101.92 580.712 102.176C579.272 102.4 577.864 102.624 576.488 102.848C575.144 103.04 573.928 103.216 572.84 103.376C572.424 103.408 572.056 103.328 571.736 103.136C571.448 102.912 571.272 102.608 571.208 102.224C571.176 101.808 571.272 101.472 571.496 101.216C571.752 100.928 572.088 100.768 572.504 100.736C573.144 100.672 573.816 100.592 574.52 100.496C575.256 100.368 576.024 100.256 576.824 100.16V83.216H572.072C571.72 83.216 571.416 83.088 571.16 82.832C570.904 82.576 570.776 82.272 570.776 81.92C570.776 81.568 570.904 81.264 571.16 81.008C571.416 80.752 571.72 80.624 572.072 80.624H613.88C614.232 80.624 614.52 80.752 614.744 81.008C615 81.264 615.128 81.568 615.128 81.92C615.128 82.272 615 82.576 614.744 82.832C614.52 83.088 614.232 83.216 613.88 83.216H591.512V106.688C591.512 107.104 591.368 107.456 591.08 107.744C590.792 108.032 590.44 108.176 590.024 108.176ZM587.192 78.032C585.112 78.032 583.512 77.84 582.392 77.456C581.304 77.072 580.552 76.4 580.136 75.44C579.72 74.448 579.512 73.104 579.512 71.408C579.512 69.68 579.72 68.336 580.136 67.376C580.552 66.416 581.304 65.744 582.392 65.36C583.512 64.976 585.112 64.784 587.192 64.784H598.904C601.016 64.784 602.616 64.976 603.704 65.36C604.824 65.744 605.592 66.416 606.008 67.376C606.424 68.336 606.632 69.68 606.632 71.408C606.632 73.104 606.424 74.448 606.008 75.44C605.592 76.4 604.824 77.072 603.704 77.456C602.616 77.84 601.016 78.032 598.904 78.032H587.192ZM594.68 105.872C594.264 106.064 593.848 106.128 593.432 106.064C593.048 106 592.744 105.76 592.52 105.344C592.328 104.992 592.296 104.624 592.424 104.24C592.552 103.888 592.824 103.616 593.24 103.424C596.44 102.08 599.16 100.416 601.4 98.432C600.248 97.12 599.256 95.68 598.424 94.112C597.624 92.544 596.952 90.832 596.408 88.976H593.912C593.592 88.976 593.304 88.848 593.048 88.592C592.792 88.336 592.664 88.048 592.664 87.728C592.664 87.376 592.792 87.072 593.048 86.816C593.304 86.56 593.592 86.432 593.912 86.432H604.664C607.128 86.432 608.712 87.072 609.416 88.352C610.12 89.6 610.008 91.12 609.08 92.912C608.568 93.904 607.992 94.864 607.352 95.792C606.712 96.72 606.008 97.6 605.24 98.432C607.512 100.32 610.408 101.856 613.928 103.04C614.376 103.168 614.664 103.44 614.792 103.856C614.92 104.24 614.904 104.608 614.744 104.96C614.584 105.376 614.296 105.632 613.88 105.728C613.496 105.824 613.096 105.792 612.68 105.632C610.792 104.96 609.064 104.176 607.496 103.28C605.96 102.384 604.568 101.392 603.32 100.304C602.136 101.392 600.824 102.4 599.384 103.328C597.944 104.256 596.376 105.104 594.68 105.872ZM587.192 75.632H598.904C600.152 75.632 601.096 75.552 601.736 75.392C602.408 75.232 602.872 74.928 603.128 74.48C603.416 74 603.576 73.328 603.608 72.464H582.488C582.552 73.776 582.888 74.64 583.496 75.056C584.136 75.44 585.368 75.632 587.192 75.632ZM582.488 70.16H603.608C603.512 68.912 603.144 68.112 602.504 67.76C601.896 67.376 600.696 67.184 598.904 67.184H587.192C585.464 67.184 584.28 67.376 583.64 67.76C583 68.112 582.616 68.912 582.488 70.16ZM603.32 96.56C604.536 95.216 605.528 93.76 606.296 92.192C606.84 91.168 606.968 90.384 606.68 89.84C606.392 89.264 605.56 88.976 604.184 88.976H599.096C599.96 91.888 601.368 94.416 603.32 96.56ZM579.8 99.728C581.432 99.472 583.016 99.232 584.552 99.008C586.088 98.752 587.4 98.528 588.488 98.336V95.072H579.8V99.728ZM579.8 92.816H588.488V89.024H579.8V92.816ZM579.8 86.768H588.488V83.216H579.8V86.768ZM623.048 107.648C621.928 107.808 621.288 107.392 621.128 106.4C621.064 105.952 621.176 105.568 621.464 105.248C621.752 104.928 622.136 104.752 622.616 104.72C626.04 104.336 629.128 103.696 631.88 102.8C634.664 101.904 637.144 100.784 639.32 99.44C636.312 96.656 633.896 93.12 632.072 88.832H628.184C627.8 88.832 627.48 88.704 627.224 88.448C626.968 88.16 626.84 87.824 626.84 87.44C626.84 87.088 626.968 86.784 627.224 86.528C627.48 86.24 627.8 86.096 628.184 86.096H645.464C647.48 86.096 648.968 86.464 649.928 87.2C650.888 87.936 651.368 88.864 651.368 89.984C651.368 91.072 650.904 92.208 649.976 93.392C648.312 95.696 646.408 97.696 644.264 99.392C646.408 100.768 648.824 101.872 651.512 102.704C654.232 103.536 657.24 104.08 660.536 104.336C660.984 104.368 661.352 104.528 661.64 104.816C661.96 105.136 662.088 105.52 662.024 105.968C661.928 106.992 661.304 107.456 660.152 107.36C652.472 106.656 646.312 104.64 641.672 101.312C639.304 102.88 636.6 104.192 633.56 105.248C630.52 106.304 627.016 107.104 623.048 107.648ZM622.52 89.072C622.104 89.072 621.736 88.928 621.416 88.64C621.128 88.352 620.984 88 620.984 87.584V84.368C620.984 82.096 621.528 80.48 622.616 79.52C623.736 78.56 625.768 78.08 628.712 78.08H630.056C629.768 77.952 629.56 77.744 629.432 77.456C629.272 77.104 629.048 76.64 628.76 76.064C628.504 75.488 628.232 74.912 627.944 74.336C627.656 73.76 627.4 73.296 627.176 72.944C627.016 72.592 626.984 72.24 627.08 71.888C627.208 71.504 627.448 71.232 627.8 71.072C628.184 70.88 628.552 70.832 628.904 70.928C629.288 71.024 629.576 71.264 629.768 71.648C629.992 72.032 630.248 72.544 630.536 73.184C630.856 73.792 631.144 74.384 631.4 74.96C631.688 75.536 631.88 75.968 631.976 76.256C632.36 77.056 632.152 77.648 631.352 78.032L631.256 78.08H647.48C647.832 77.376 648.216 76.512 648.632 75.488C649.08 74.464 649.496 73.44 649.88 72.416C650.296 71.392 650.632 70.544 650.888 69.872C651.048 69.424 651.32 69.136 651.704 69.008C652.12 68.848 652.52 68.848 652.904 69.008C653.32 69.168 653.592 69.44 653.72 69.824C653.88 70.176 653.88 70.56 653.72 70.976C653.496 71.552 653.192 72.272 652.808 73.136C652.424 73.968 652.024 74.832 651.608 75.728C651.192 76.592 650.792 77.376 650.408 78.08H653.336C656.28 78.08 658.296 78.544 659.384 79.472C660.472 80.4 661.016 82 661.016 84.272V87.584C661.016 88 660.872 88.352 660.584 88.64C660.296 88.928 659.944 89.072 659.528 89.072C659.112 89.072 658.76 88.928 658.472 88.64C658.184 88.352 658.04 88 658.04 87.584V84.32C658.04 82.944 657.72 82 657.08 81.488C656.44 80.976 655.176 80.72 653.288 80.72H628.76C626.872 80.72 625.608 80.976 624.968 81.488C624.328 82 624.008 82.944 624.008 84.32V87.584C624.008 88 623.864 88.352 623.576 88.64C623.288 88.928 622.936 89.072 622.52 89.072ZM623.912 69.824C623.496 69.824 623.128 69.696 622.808 69.44C622.488 69.152 622.328 68.784 622.328 68.336C622.328 67.888 622.488 67.536 622.808 67.28C623.128 67.024 623.528 66.912 624.008 66.944C626.632 66.944 629.4 66.896 632.312 66.8C635.256 66.672 638.184 66.496 641.096 66.272C644.04 66.016 646.856 65.728 649.544 65.408C652.232 65.056 654.632 64.656 656.744 64.208C657.256 64.112 657.688 64.176 658.04 64.4C658.392 64.592 658.616 64.864 658.712 65.216C658.84 65.664 658.776 66.064 658.52 66.416C658.296 66.736 657.96 66.928 657.512 66.992C654.376 67.536 650.936 68.032 647.192 68.48C643.448 68.896 639.592 69.216 635.624 69.44C631.656 69.664 627.752 69.792 623.912 69.824ZM641.912 97.664C643.992 96 645.768 94.16 647.24 92.144C647.976 91.184 648.184 90.4 647.864 89.792C647.544 89.152 646.632 88.832 645.128 88.832H635.24C636.808 92.32 639.032 95.264 641.912 97.664ZM641.48 77.744C641.064 77.872 640.68 77.872 640.328 77.744C639.976 77.616 639.72 77.36 639.56 76.976C639.4 76.592 639.192 76.096 638.936 75.488C638.68 74.848 638.408 74.208 638.12 73.568C637.864 72.896 637.64 72.352 637.448 71.936C637.32 71.584 637.32 71.232 637.448 70.88C637.576 70.528 637.816 70.288 638.168 70.16C638.584 70 638.984 69.968 639.368 70.064C639.752 70.16 640.024 70.4 640.184 70.784C640.376 71.2 640.6 71.744 640.856 72.416C641.144 73.088 641.416 73.76 641.672 74.432C641.928 75.072 642.12 75.584 642.248 75.968C642.504 76.8 642.248 77.392 641.48 77.744ZM690.056 107.36C689.768 107.104 689.624 106.784 689.624 106.4H678.056C676.328 106.4 674.984 106.224 674.024 105.872C673.064 105.552 672.376 104.976 671.96 104.144C671.576 103.312 671.384 102.176 671.384 100.736V91.376C670.968 91.952 670.52 92.512 670.04 93.056C669.592 93.6 669.144 94.112 668.696 94.592C668.472 94.848 668.184 95.008 667.832 95.072C667.48 95.104 667.144 95.008 666.824 94.784C666.536 94.56 666.376 94.272 666.344 93.92C666.344 93.568 666.456 93.28 666.68 93.056C667.544 92.128 668.408 91.104 669.272 89.984C670.136 88.864 670.936 87.728 671.672 86.576C672.44 85.392 673.064 84.304 673.544 83.312C673.672 83.12 673.768 82.992 673.832 82.928C672.136 82.864 670.968 82.528 670.328 81.92C669.72 81.28 669.416 80.176 669.416 78.608C669.416 76.944 669.752 75.824 670.424 75.248C671.128 74.64 672.44 74.336 674.36 74.336C676.28 74.336 677.576 74.64 678.248 75.248C678.952 75.824 679.304 76.944 679.304 78.608C679.304 80.08 679.032 81.136 678.488 81.776C677.976 82.416 677 82.784 675.56 82.88C675.784 83.04 675.928 83.264 675.992 83.552C676.056 83.808 676.008 84.064 675.848 84.32C675.624 84.832 675.352 85.344 675.032 85.856C674.744 86.336 674.44 86.848 674.12 87.392H680.168C680.424 86.816 680.728 86.16 681.08 85.424C681.464 84.656 681.736 84.064 681.896 83.648C682.056 83.296 682.296 83.056 682.616 82.928C682.936 82.8 683.272 82.8 683.624 82.928C683.976 83.056 684.216 83.28 684.344 83.6C684.504 83.888 684.504 84.208 684.344 84.56C684.216 84.88 684.008 85.312 683.72 85.856C683.432 86.368 683.16 86.88 682.904 87.392H690.44C690.728 87.392 690.968 87.52 691.16 87.776C691.384 88 691.496 88.256 691.496 88.544C691.496 88.832 691.384 89.104 691.16 89.36C690.968 89.584 690.728 89.696 690.44 89.696H682.664V92.864H689.24C689.528 92.864 689.768 92.976 689.96 93.2C690.184 93.424 690.296 93.68 690.296 93.968C690.296 94.256 690.184 94.512 689.96 94.736C689.768 94.928 689.528 95.024 689.24 95.024H682.664V98.336H689.24C689.528 98.336 689.768 98.448 689.96 98.672C690.184 98.864 690.296 99.104 690.296 99.392C690.296 99.68 690.184 99.936 689.96 100.16C689.768 100.384 689.528 100.496 689.24 100.496H682.664V104.048H690.392C690.68 104.048 690.92 104.144 691.112 104.336C693.192 102 694.936 99.056 696.344 95.504C697.752 91.952 698.456 87.856 698.456 83.216V79.232C698.456 78.816 698.584 78.496 698.84 78.272C699.096 78.016 699.416 77.888 699.8 77.888C700.184 77.888 700.504 78.016 700.76 78.272C701.048 78.496 701.192 78.816 701.192 79.232V83.216C701.192 86.608 701.672 89.68 702.632 92.432C703.592 95.152 704.84 97.568 706.376 99.68C707.944 101.792 709.592 103.616 711.32 105.152C711.64 105.408 711.8 105.744 711.8 106.16C711.832 106.576 711.688 106.944 711.368 107.264C711.048 107.552 710.68 107.68 710.264 107.648C709.848 107.616 709.48 107.44 709.16 107.12C707.048 105.008 705.192 102.672 703.592 100.112C701.992 97.52 700.776 94.688 699.944 91.616C698.696 97.728 696.136 102.912 692.264 107.168C691.976 107.488 691.624 107.68 691.208 107.744C690.792 107.808 690.408 107.68 690.056 107.36ZM703.976 84.8C703.656 84.608 703.432 84.336 703.304 83.984C703.176 83.632 703.224 83.296 703.448 82.976C703.96 82.176 704.408 81.488 704.792 80.912C705.208 80.336 705.624 79.696 706.04 78.992C706.584 78.064 706.712 77.376 706.424 76.928C706.168 76.448 705.544 76.208 704.552 76.208H696.872C696.424 77.488 695.944 78.752 695.432 80C694.92 81.248 694.376 82.448 693.8 83.6C693.608 83.952 693.336 84.208 692.984 84.368C692.632 84.496 692.264 84.48 691.88 84.32C691.496 84.16 691.24 83.904 691.112 83.552C691.016 83.168 691.048 82.816 691.208 82.496C692.04 80.992 692.824 79.248 693.56 77.264C694.328 75.248 694.984 73.2 695.528 71.12C696.104 69.008 696.52 67.072 696.776 65.312C696.84 64.864 697.016 64.544 697.304 64.352C697.624 64.128 697.992 64.048 698.408 64.112C698.824 64.176 699.128 64.352 699.32 64.64C699.544 64.928 699.624 65.296 699.56 65.744C699.336 67.024 699.064 68.32 698.744 69.632C698.456 70.944 698.12 72.256 697.736 73.568H705.272C707.224 73.568 708.536 74.128 709.208 75.248C709.912 76.368 709.8 77.76 708.872 79.424C708.392 80.256 707.928 81.04 707.48 81.776C707.032 82.48 706.52 83.28 705.944 84.176C705.72 84.496 705.416 84.736 705.032 84.896C704.68 85.024 704.328 84.992 703.976 84.8ZM675.944 74.048C675.592 74.048 675.288 73.92 675.032 73.664C674.776 73.408 674.648 73.104 674.648 72.752V70.784H668.552C668.2 70.784 667.912 70.672 667.688 70.448C667.464 70.224 667.352 69.952 667.352 69.632C667.352 69.28 667.464 68.992 667.688 68.768C667.912 68.544 668.2 68.432 668.552 68.432H674.648V65.456C674.648 65.072 674.776 64.768 675.032 64.544C675.288 64.288 675.592 64.16 675.944 64.16C676.328 64.16 676.648 64.288 676.904 64.544C677.16 64.768 677.288 65.072 677.288 65.456V68.432H683.384V65.456C683.384 65.072 683.512 64.768 683.768 64.544C684.024 64.288 684.328 64.16 684.68 64.16C685.032 64.16 685.336 64.288 685.592 64.544C685.88 64.768 686.024 65.072 686.024 65.456V68.432H692.264C692.616 68.432 692.904 68.544 693.128 68.768C693.352 68.992 693.464 69.28 693.464 69.632C693.464 69.952 693.352 70.224 693.128 70.448C692.904 70.672 692.616 70.784 692.264 70.784H686.024V72.752C686.024 73.104 685.88 73.408 685.592 73.664C685.336 73.92 685.032 74.048 684.68 74.048C684.328 74.048 684.024 73.92 683.768 73.664C683.512 73.408 683.384 73.104 683.384 72.752V70.784H677.288V72.752C677.288 73.104 677.16 73.408 676.904 73.664C676.648 73.92 676.328 74.048 675.944 74.048ZM686.264 82.928C684.344 82.928 683.032 82.624 682.328 82.016C681.656 81.408 681.32 80.272 681.32 78.608C681.32 76.944 681.656 75.824 682.328 75.248C683.032 74.64 684.344 74.336 686.264 74.336C688.184 74.336 689.48 74.64 690.152 75.248C690.856 75.824 691.208 76.944 691.208 78.608C691.208 80.272 690.856 81.408 690.152 82.016C689.48 82.624 688.184 82.928 686.264 82.928ZM674.072 98.336H680.024V95.024H674.072V98.336ZM678.104 104.048H680.024V100.496H674.072V100.592C674.072 101.936 674.312 102.848 674.792 103.328C675.304 103.808 676.408 104.048 678.104 104.048ZM674.072 92.864H680.024V89.696H674.072V92.864ZM674.36 80.672C675.384 80.672 676.056 80.56 676.376 80.336C676.696 80.08 676.856 79.504 676.856 78.608C676.856 77.712 676.696 77.136 676.376 76.88C676.056 76.624 675.384 76.496 674.36 76.496C673.368 76.496 672.696 76.624 672.344 76.88C672.024 77.136 671.864 77.712 671.864 78.608C671.864 79.504 672.024 80.08 672.344 80.336C672.696 80.56 673.368 80.672 674.36 80.672ZM686.264 80.672C687.288 80.672 687.96 80.56 688.28 80.336C688.6 80.08 688.76 79.504 688.76 78.608C688.76 77.712 688.6 77.136 688.28 76.88C687.96 76.624 687.288 76.496 686.264 76.496C685.272 76.496 684.6 76.624 684.248 76.88C683.928 77.136 683.768 77.712 683.768 78.608C683.768 79.504 683.928 80.08 684.248 80.336C684.6 80.56 685.272 80.672 686.264 80.672ZM744.008 101.696C743.592 101.696 743.24 101.552 742.952 101.264C742.664 100.976 742.52 100.624 742.52 100.208V73.376C742.52 71.872 742.712 70.704 743.096 69.872C743.512 69.04 744.216 68.464 745.208 68.144C746.2 67.792 747.592 67.616 749.384 67.616C751.176 67.616 752.568 67.792 753.56 68.144C754.552 68.464 755.24 69.04 755.624 69.872C756.04 70.704 756.248 71.872 756.248 73.376V90.272C756.248 92.32 755.768 93.776 754.808 94.64C753.88 95.504 752.184 95.968 749.72 96.032C749.304 96.064 748.936 95.952 748.616 95.696C748.296 95.408 748.12 95.056 748.088 94.64C748.056 94.224 748.168 93.856 748.424 93.536C748.68 93.216 749.032 93.04 749.48 93.008C751.112 92.912 752.152 92.672 752.6 92.288C753.08 91.872 753.32 91.104 753.32 89.984V73.616C753.32 72.72 753.224 72.048 753.032 71.6C752.84 71.152 752.456 70.848 751.88 70.688C751.336 70.528 750.504 70.448 749.384 70.448C748.296 70.448 747.464 70.528 746.888 70.688C746.344 70.848 745.976 71.152 745.784 71.6C745.592 72.048 745.496 72.72 745.496 73.616V100.208C745.496 100.624 745.352 100.976 745.064 101.264C744.776 101.552 744.424 101.696 744.008 101.696ZM743.096 106.4C739.928 106.4 737.176 106.24 734.84 105.92C732.504 105.632 730.456 105.104 728.696 104.336C726.968 103.6 725.416 102.592 724.04 101.312C723.464 101.696 722.76 102.192 721.928 102.8C721.128 103.376 720.36 103.92 719.624 104.432C718.888 104.976 718.344 105.376 717.992 105.632C717.608 105.92 717.176 106.032 716.696 105.968C716.216 105.904 715.848 105.664 715.592 105.248C715.368 104.864 715.304 104.448 715.4 104C715.496 103.552 715.736 103.216 716.12 102.992C716.536 102.768 717.096 102.448 717.8 102.032C718.536 101.616 719.304 101.152 720.104 100.64C720.904 100.128 721.624 99.68 722.264 99.296V87.488C722.264 86.56 722.088 85.936 721.736 85.616C721.416 85.264 720.792 85.088 719.864 85.088H716.408C715.992 85.088 715.64 84.96 715.352 84.704C715.096 84.416 714.968 84.064 714.968 83.648C714.968 83.264 715.096 82.944 715.352 82.688C715.64 82.4 715.992 82.256 716.408 82.256H720.584C722.184 82.256 723.336 82.624 724.04 83.36C724.776 84.064 725.144 85.216 725.144 86.816V98.96C726.488 100.144 727.928 101.072 729.464 101.744C731 102.416 732.856 102.896 735.032 103.184C737.208 103.44 739.896 103.568 743.096 103.568C746.04 103.568 748.68 103.536 751.016 103.472C753.384 103.376 755.448 103.264 757.208 103.136C757.688 103.104 758.088 103.232 758.408 103.52C758.76 103.808 758.936 104.176 758.936 104.624C758.936 105.616 758.376 106.144 757.256 106.208C755.688 106.24 753.608 106.272 751.016 106.304C748.456 106.368 745.816 106.4 743.096 106.4ZM728.696 96.32C728.28 96.448 727.896 96.416 727.544 96.224C727.192 96.032 726.952 95.744 726.824 95.36C726.696 94.944 726.712 94.576 726.872 94.256C727.032 93.936 727.32 93.712 727.736 93.584C728.152 93.456 728.6 93.328 729.08 93.2C729.592 93.04 730.104 92.896 730.616 92.768V73.856C730.616 72.64 730.728 71.68 730.952 70.976C731.208 70.24 731.64 69.632 732.248 69.152C732.856 68.672 733.688 68.24 734.744 67.856C735.48 67.6 736.36 67.264 737.384 66.848C738.408 66.432 739.24 66.064 739.88 65.744C740.296 65.552 740.696 65.504 741.08 65.6C741.464 65.696 741.768 65.936 741.992 66.32C742.152 66.64 742.184 67.008 742.088 67.424C742.024 67.808 741.8 68.08 741.416 68.24C740.712 68.56 739.848 68.928 738.824 69.344C737.8 69.728 736.888 70.064 736.088 70.352C735.096 70.736 734.424 71.168 734.072 71.648C733.752 72.128 733.592 72.864 733.592 73.856V91.856C734.744 91.504 735.864 91.152 736.952 90.8C738.04 90.416 738.968 90.096 739.736 89.84C740.088 89.712 740.424 89.728 740.744 89.888C741.064 90.016 741.288 90.288 741.416 90.704C741.512 91.056 741.496 91.408 741.368 91.76C741.24 92.08 740.968 92.32 740.552 92.48C739.88 92.704 739.016 92.992 737.96 93.344C736.904 93.696 735.8 94.064 734.648 94.448C733.496 94.8 732.392 95.152 731.336 95.504C730.28 95.824 729.4 96.096 728.696 96.32ZM725.816 74.576C725.528 74.864 725.176 75.008 724.76 75.008C724.344 75.008 724.008 74.848 723.752 74.528C723.272 73.888 722.68 73.2 721.976 72.464C721.272 71.728 720.552 71.008 719.816 70.304C719.112 69.6 718.44 68.992 717.8 68.48C717.512 68.224 717.368 67.92 717.368 67.568C717.4 67.184 717.544 66.864 717.8 66.608C718.056 66.32 718.376 66.16 718.76 66.128C719.144 66.096 719.496 66.208 719.816 66.464C720.488 67.008 721.192 67.648 721.928 68.384C722.696 69.088 723.432 69.792 724.136 70.496C724.872 71.2 725.496 71.84 726.008 72.416C726.296 72.736 726.424 73.104 726.392 73.52C726.36 73.904 726.168 74.256 725.816 74.576ZM765.368 100.592C764.92 100.592 764.536 100.432 764.216 100.112C763.928 99.792 763.784 99.424 763.784 99.008C763.784 98.56 763.928 98.192 764.216 97.904C764.536 97.584 764.92 97.424 765.368 97.424H804.632C805.08 97.424 805.448 97.584 805.736 97.904C806.056 98.192 806.216 98.56 806.216 99.008C806.216 99.424 806.056 99.792 805.736 100.112C805.448 100.432 805.08 100.592 804.632 100.592H765.368ZM769.64 75.008C769.224 75.008 768.856 74.848 768.536 74.528C768.216 74.208 768.056 73.84 768.056 73.424C768.056 72.976 768.216 72.608 768.536 72.32C768.856 72 769.224 71.84 769.64 71.84H800.312C800.76 71.84 801.128 72 801.416 72.32C801.736 72.608 801.896 72.976 801.896 73.424C801.896 73.84 801.736 74.208 801.416 74.528C801.128 74.848 800.76 75.008 800.312 75.008H769.64ZM826.376 106.976C825.864 106.976 825.448 106.832 825.128 106.544C824.808 106.256 824.632 105.872 824.6 105.392C824.568 104.912 824.712 104.496 825.032 104.144C825.352 103.824 825.784 103.648 826.328 103.616C827.896 103.552 829.08 103.408 829.88 103.184C830.68 102.96 831.224 102.576 831.512 102.032C831.8 101.456 831.944 100.672 831.944 99.68V91.472H812.6C812.184 91.472 811.832 91.328 811.544 91.04C811.256 90.752 811.112 90.4 811.112 89.984C811.112 89.568 811.256 89.216 811.544 88.928C811.832 88.64 812.184 88.496 812.6 88.496H831.944V81.104H816.584C816.168 81.104 815.816 80.96 815.528 80.672C815.24 80.384 815.096 80.032 815.096 79.616C815.096 79.2 815.24 78.848 815.528 78.56C815.816 78.272 816.168 78.128 816.584 78.128H831.944V70.544C829.224 70.8 826.472 71.008 823.688 71.168C820.904 71.296 818.168 71.392 815.48 71.456C815.032 71.456 814.648 71.312 814.328 71.024C814.04 70.736 813.88 70.368 813.848 69.92C813.816 69.472 813.96 69.12 814.28 68.864C814.6 68.576 815.016 68.432 815.528 68.432C818.088 68.432 820.808 68.368 823.688 68.24C826.6 68.08 829.496 67.856 832.376 67.568C835.288 67.28 838.04 66.944 840.632 66.56C843.256 66.144 845.576 65.68 847.592 65.168C848.072 65.04 848.504 65.088 848.888 65.312C849.272 65.504 849.512 65.808 849.608 66.224C849.704 66.64 849.656 67.04 849.464 67.424C849.272 67.808 848.936 68.048 848.456 68.144C846.472 68.56 844.344 68.944 842.072 69.296C839.832 69.648 837.528 69.952 835.16 70.208V78.128H849.416C849.832 78.128 850.184 78.272 850.472 78.56C850.76 78.848 850.904 79.2 850.904 79.616C850.904 80.032 850.76 80.384 850.472 80.672C850.184 80.96 849.832 81.104 849.416 81.104H835.16V88.496H853.448C853.864 88.496 854.216 88.64 854.504 88.928C854.792 89.216 854.936 89.568 854.936 89.984C854.936 90.4 854.792 90.752 854.504 91.04C854.216 91.328 853.864 91.472 853.448 91.472H835.16V99.92C835.16 101.616 834.888 102.976 834.344 104C833.832 105.056 832.936 105.808 831.656 106.256C830.408 106.736 828.648 106.976 826.376 106.976ZM882.392 107.984C882.008 107.984 881.672 107.84 881.384 107.552C881.096 107.296 880.952 106.96 880.952 106.544V90.512C880.952 89.008 881.144 87.84 881.528 87.008C881.912 86.176 882.584 85.584 883.544 85.232C884.504 84.88 885.816 84.704 887.48 84.704H892.808C894.504 84.704 895.816 84.88 896.744 85.232C897.704 85.584 898.376 86.176 898.76 87.008C899.144 87.84 899.336 89.008 899.336 90.512V102.896C899.336 104.752 898.872 106.032 897.944 106.736C897.048 107.44 895.464 107.792 893.192 107.792C892.776 107.792 892.424 107.664 892.136 107.408C891.88 107.152 891.736 106.832 891.704 106.448C891.672 106.064 891.784 105.728 892.04 105.44C892.328 105.152 892.68 104.992 893.096 104.96C894.504 104.864 895.416 104.688 895.832 104.432C896.248 104.176 896.456 103.552 896.456 102.56V98.864H883.832V106.544C883.832 106.96 883.688 107.296 883.4 107.552C883.144 107.84 882.808 107.984 882.392 107.984ZM868.904 107.888C868.488 107.888 868.136 107.744 867.848 107.456C867.592 107.2 867.464 106.864 867.464 106.448V87.248C866.504 89.264 865.448 91.216 864.296 93.104C863.144 94.992 862.056 96.576 861.032 97.856C860.808 98.176 860.488 98.368 860.072 98.432C859.688 98.496 859.336 98.416 859.016 98.192C858.696 97.936 858.52 97.616 858.488 97.232C858.456 96.848 858.568 96.512 858.824 96.224C859.656 95.232 860.568 93.968 861.56 92.432C862.584 90.864 863.576 89.216 864.536 87.488C865.496 85.728 866.28 84.08 866.888 82.544H860.792C860.376 82.544 860.04 82.416 859.784 82.16C859.56 81.904 859.448 81.584 859.448 81.2C859.448 80.816 859.56 80.496 859.784 80.24C860.04 79.984 860.376 79.856 860.792 79.856H867.464V65.168C867.464 64.72 867.592 64.368 867.848 64.112C868.136 63.856 868.488 63.728 868.904 63.728C869.256 63.728 869.576 63.856 869.864 64.112C870.152 64.368 870.296 64.72 870.296 65.168V79.856H876.248C876.664 79.856 877 79.984 877.256 80.24C877.512 80.496 877.64 80.816 877.64 81.2C877.64 81.584 877.512 81.904 877.256 82.16C877 82.416 876.664 82.544 876.248 82.544H870.296V84.272C870.744 85.04 871.32 85.952 872.024 87.008C872.728 88.064 873.464 89.104 874.232 90.128C875 91.12 875.688 91.968 876.296 92.672C876.584 92.992 876.712 93.36 876.68 93.776C876.648 94.192 876.456 94.528 876.104 94.784C875.784 95.008 875.432 95.104 875.048 95.072C874.696 95.008 874.392 94.816 874.136 94.496C872.888 92.832 871.608 90.864 870.296 88.592V106.448C870.296 106.864 870.152 107.2 869.864 107.456C869.608 107.744 869.288 107.888 868.904 107.888ZM878.984 82.112C878.632 82.112 878.328 81.984 878.072 81.728C877.848 81.44 877.736 81.136 877.736 80.816C877.736 80.464 877.848 80.16 878.072 79.904C878.328 79.648 878.632 79.52 878.984 79.52H888.584V76.16H881C880.648 76.16 880.36 76.032 880.136 75.776C879.912 75.52 879.8 75.232 879.8 74.912C879.8 74.56 879.912 74.272 880.136 74.048C880.36 73.792 880.648 73.664 881 73.664H888.584V70.544H879.752C879.4 70.544 879.112 70.416 878.888 70.16C878.664 69.872 878.552 69.568 878.552 69.248C878.552 68.896 878.664 68.608 878.888 68.384C879.112 68.128 879.4 68 879.752 68H888.584V65.072C888.584 64.624 888.712 64.272 888.968 64.016C889.256 63.76 889.608 63.632 890.024 63.632C890.44 63.632 890.776 63.76 891.032 64.016C891.32 64.272 891.464 64.624 891.464 65.072V68H900.488C900.84 68 901.128 68.128 901.352 68.384C901.608 68.608 901.736 68.896 901.736 69.248C901.736 69.568 901.608 69.872 901.352 70.16C901.128 70.416 900.84 70.544 900.488 70.544H891.464V73.664H899.144C899.496 73.664 899.784 73.792 900.008 74.048C900.232 74.272 900.344 74.56 900.344 74.912C900.344 75.232 900.232 75.52 900.008 75.776C899.784 76.032 899.496 76.16 899.144 76.16H891.464V79.52H901.688C902.04 79.52 902.328 79.648 902.552 79.904C902.808 80.16 902.936 80.464 902.936 80.816C902.936 81.136 902.808 81.44 902.552 81.728C902.328 81.984 902.04 82.112 901.688 82.112H878.984ZM883.832 96.464H896.456V93.008H883.832V96.464ZM883.832 90.656H896.456V90.512C896.456 89.584 896.344 88.88 896.12 88.4C895.928 87.92 895.544 87.6 894.968 87.44C894.424 87.28 893.592 87.2 892.472 87.2H887.816C886.184 87.2 885.112 87.408 884.6 87.824C884.088 88.208 883.832 89.104 883.832 90.512V90.656ZM872.504 77.552C872.184 77.392 871.96 77.152 871.832 76.832C871.736 76.48 871.768 76.144 871.928 75.824C872.216 75.248 872.536 74.56 872.888 73.76C873.272 72.928 873.64 72.096 873.992 71.264C874.344 70.4 874.616 69.648 874.808 69.008C874.904 68.624 875.112 68.352 875.432 68.192C875.784 68.032 876.136 68.016 876.488 68.144C876.872 68.272 877.144 68.512 877.304 68.864C877.464 69.184 877.48 69.52 877.352 69.872C877.128 70.512 876.824 71.28 876.44 72.176C876.088 73.04 875.72 73.904 875.336 74.768C874.952 75.6 874.616 76.32 874.328 76.928C874.168 77.248 873.912 77.472 873.56 77.6C873.208 77.728 872.856 77.712 872.504 77.552ZM865.016 77.312C864.632 77.472 864.28 77.472 863.96 77.312C863.64 77.152 863.4 76.896 863.24 76.544C862.92 75.616 862.456 74.56 861.848 73.376C861.272 72.16 860.76 71.136 860.312 70.304C860.152 69.984 860.136 69.664 860.264 69.344C860.392 68.992 860.616 68.752 860.936 68.624C861.288 68.464 861.64 68.448 861.992 68.576C862.344 68.672 862.6 68.896 862.76 69.248C863.08 69.824 863.432 70.496 863.816 71.264C864.2 72.032 864.568 72.8 864.92 73.568C865.304 74.304 865.608 74.96 865.832 75.536C865.992 75.888 865.976 76.24 865.784 76.592C865.624 76.912 865.368 77.152 865.016 77.312ZM920.024 94.352C919.704 94.352 919.432 94.224 919.208 93.968C918.984 93.712 918.872 93.424 918.872 93.104C918.872 92.752 918.984 92.464 919.208 92.24C919.432 91.984 919.704 91.856 920.024 91.856H927.272V87.392H921.656C921.336 87.392 921.048 87.264 920.792 87.008C920.568 86.752 920.456 86.464 920.456 86.144C920.456 85.792 920.568 85.504 920.792 85.28C921.016 85.024 921.304 84.896 921.656 84.896H927.272V82.016C927.272 81.6 927.416 81.264 927.704 81.008C927.992 80.752 928.328 80.624 928.712 80.624C929.096 80.624 929.416 80.752 929.672 81.008C929.96 81.264 930.104 81.6 930.104 82.016V84.896H937.256V82.016C937.256 81.6 937.384 81.264 937.64 81.008C937.928 80.752 938.264 80.624 938.648 80.624C939.064 80.624 939.4 80.752 939.656 81.008C939.944 81.264 940.088 81.6 940.088 82.016V84.896H947C947.352 84.896 947.624 85.024 947.816 85.28C948.04 85.504 948.152 85.792 948.152 86.144C948.152 86.464 948.04 86.752 947.816 87.008C947.624 87.264 947.352 87.392 947 87.392H940.088V91.856H948.632C948.984 91.856 949.272 91.984 949.496 92.24C949.72 92.464 949.832 92.752 949.832 93.104C949.832 93.424 949.72 93.712 949.496 93.968C949.272 94.224 948.984 94.352 948.632 94.352H920.024ZM934.424 106.304C931.384 106.304 928.696 106.16 926.36 105.872C924.056 105.616 922.024 105.136 920.264 104.432C918.504 103.76 916.936 102.832 915.56 101.648C915.016 102.032 914.36 102.496 913.592 103.04C912.856 103.552 912.136 104.048 911.432 104.528C910.728 105.04 910.2 105.424 909.848 105.68C909.496 105.936 909.08 106.016 908.6 105.92C908.152 105.856 907.8 105.632 907.544 105.248C907.32 104.896 907.256 104.496 907.352 104.048C907.48 103.632 907.736 103.328 908.12 103.136C908.504 102.912 909.032 102.608 909.704 102.224C910.376 101.84 911.08 101.424 911.816 100.976C912.552 100.528 913.224 100.112 913.832 99.728V87.536C913.832 86.64 913.672 86.016 913.352 85.664C913.032 85.312 912.408 85.136 911.48 85.136H908.312C907.896 85.136 907.56 85.008 907.304 84.752C907.048 84.464 906.92 84.128 906.92 83.744C906.92 83.36 907.048 83.04 907.304 82.784C907.56 82.496 907.896 82.352 908.312 82.352H912.152C913.752 82.352 914.904 82.72 915.608 83.456C916.344 84.16 916.712 85.312 916.712 86.912V99.392C918.024 100.512 919.448 101.376 920.984 101.984C922.552 102.592 924.408 103.024 926.552 103.28C928.728 103.504 931.352 103.616 934.424 103.616C937.368 103.616 940.152 103.584 942.776 103.52C945.432 103.424 947.64 103.312 949.4 103.184C949.88 103.12 950.28 103.232 950.6 103.52C950.952 103.776 951.128 104.144 951.128 104.624C951.128 105.552 950.584 106.048 949.496 106.112C948.44 106.144 947.064 106.176 945.368 106.208C943.704 106.24 941.912 106.256 939.992 106.256C938.072 106.288 936.216 106.304 934.424 106.304ZM940.088 80.336C938.232 80.336 936.904 80.016 936.104 79.376C935.304 78.736 934.904 77.536 934.904 75.776C934.904 74.08 935.272 72.928 936.008 72.32C936.776 71.68 938.104 71.36 939.992 71.36H942.056C943.016 71.36 943.64 71.248 943.928 71.024C944.216 70.768 944.36 70.272 944.36 69.536C944.36 68.8 944.216 68.32 943.928 68.096C943.64 67.872 943.016 67.76 942.056 67.76H935.768C935.384 67.76 935.08 67.632 934.856 67.376C934.632 67.12 934.52 66.832 934.52 66.512C934.52 66.16 934.632 65.872 934.856 65.648C935.08 65.392 935.384 65.264 935.768 65.264H942.344C944.072 65.264 945.304 65.584 946.04 66.224C946.776 66.832 947.144 67.936 947.144 69.536C947.144 71.104 946.776 72.192 946.04 72.8C945.304 73.408 944.072 73.712 942.344 73.712H940.328C939.336 73.712 938.648 73.856 938.264 74.144C937.912 74.4 937.736 74.944 937.736 75.776C937.736 76.64 937.912 77.2 938.264 77.456C938.648 77.712 939.368 77.84 940.424 77.84H942.92C943.944 77.84 944.648 77.68 945.032 77.36C945.448 77.04 945.784 76.528 946.04 75.824C946.168 75.472 946.408 75.232 946.76 75.104C947.112 74.976 947.48 74.992 947.864 75.152C948.664 75.44 948.952 76.016 948.728 76.88C948.312 78.256 947.688 79.184 946.856 79.664C946.056 80.112 944.792 80.336 943.064 80.336H940.088ZM925.064 80.336C923.208 80.336 921.88 80.016 921.08 79.376C920.312 78.736 919.928 77.536 919.928 75.776C919.928 74.08 920.296 72.928 921.032 72.32C921.8 71.68 923.128 71.36 925.016 71.36H926.696C927.656 71.36 928.28 71.248 928.568 71.024C928.888 70.768 929.048 70.272 929.048 69.536C929.048 68.8 928.888 68.32 928.568 68.096C928.28 67.872 927.656 67.76 926.696 67.76H920.744C920.392 67.76 920.088 67.632 919.832 67.376C919.608 67.12 919.496 66.832 919.496 66.512C919.496 66.16 919.608 65.872 919.832 65.648C920.088 65.392 920.392 65.264 920.744 65.264H926.984C928.744 65.264 929.976 65.584 930.68 66.224C931.416 66.832 931.784 67.936 931.784 69.536C931.784 71.104 931.416 72.192 930.68 72.8C929.976 73.408 928.744 73.712 926.984 73.712H925.352C924.328 73.712 923.64 73.856 923.288 74.144C922.936 74.4 922.76 74.944 922.76 75.776C922.76 76.64 922.936 77.2 923.288 77.456C923.64 77.712 924.344 77.84 925.4 77.84H927.608C928.632 77.84 929.336 77.68 929.72 77.36C930.104 77.04 930.424 76.528 930.68 75.824C930.808 75.472 931.048 75.232 931.4 75.104C931.752 74.976 932.136 74.992 932.552 75.152C933.352 75.44 933.624 76.016 933.368 76.88C932.952 78.256 932.328 79.184 931.496 79.664C930.696 80.112 929.448 80.336 927.752 80.336H925.064ZM930.104 91.856H937.256V87.392H930.104V91.856ZM917.336 74.432C917.016 74.72 916.648 74.864 916.232 74.864C915.848 74.832 915.528 74.656 915.272 74.336C914.792 73.728 914.184 73.056 913.448 72.32C912.744 71.552 912.024 70.816 911.288 70.112C910.552 69.376 909.88 68.752 909.272 68.24C908.984 67.984 908.84 67.68 908.84 67.328C908.872 66.944 909.016 66.64 909.272 66.416C909.528 66.128 909.832 65.968 910.184 65.936C910.568 65.904 910.92 66.016 911.24 66.272C911.88 66.816 912.584 67.456 913.352 68.192C914.152 68.928 914.92 69.664 915.656 70.4C916.392 71.104 917 71.744 917.48 72.32C917.768 72.64 917.896 73.008 917.864 73.424C917.832 73.808 917.656 74.144 917.336 74.432ZM923.336 101.552C922.888 101.776 922.456 101.84 922.04 101.744C921.624 101.616 921.32 101.344 921.128 100.928C920.968 100.576 920.952 100.224 921.08 99.872C921.208 99.488 921.496 99.216 921.944 99.056C923.128 98.608 924.344 98 925.592 97.232C926.84 96.432 927.928 95.632 928.856 94.832C929.176 94.544 929.512 94.432 929.864 94.496C930.216 94.56 930.536 94.736 930.824 95.024C931.08 95.248 931.176 95.552 931.112 95.936C931.08 96.32 930.92 96.64 930.632 96.896C929.64 97.76 928.504 98.624 927.224 99.488C925.944 100.32 924.648 101.008 923.336 101.552ZM943.88 101.552C942.568 101.008 941.272 100.32 939.992 99.488C938.744 98.624 937.608 97.76 936.584 96.896C936.296 96.64 936.136 96.32 936.104 95.936C936.104 95.552 936.216 95.248 936.44 95.024C936.696 94.736 937 94.56 937.352 94.496C937.704 94.432 938.04 94.544 938.36 94.832C939.288 95.632 940.376 96.432 941.624 97.232C942.904 98 944.136 98.608 945.32 99.056C945.768 99.184 946.04 99.44 946.136 99.824C946.264 100.208 946.248 100.576 946.088 100.928C945.896 101.344 945.592 101.616 945.176 101.744C944.76 101.84 944.328 101.776 943.88 101.552Z" fill="black"/>
<defs>
<filter id="filter0_d_874_1072" x="274" y="18" width="885" height="128" filterUnits="userSpaceOnUse" color-interpolation-filters="sRGB">
<feFlood flood-opacity="0" result="BackgroundImageFix"/>
<feColorMatrix in="SourceAlpha" type="matrix" values="0 0 0 0 0 0 0 0 0 0 0 0 0 0 0 0 0 0 127 0" result="hardAlpha"/>
<feOffset dx="4" dy="4"/>
<feGaussianBlur stdDeviation="2"/>
<feComposite in2="hardAlpha" operator="out"/>
<feColorMatrix type="matrix" values="0 0 0 0 0 0 0 0 0 0 0 0 0 0 0 0 0 0 0.25 0"/>
<feBlend mode="normal" in2="BackgroundImageFix" result="effect1_dropShadow_874_1072"/>
<feBlend mode="normal" in="SourceGraphic" in2="effect1_dropShadow_874_1072" result="shape"/>
</filter>
</defs>
</svg>
