<svg width="40" height="19" viewBox="0 0 40 19" fill="none" xmlns="http://www.w3.org/2000/svg">
<path d="M5.18 14.3C4.94 14.3 4.82 14.1933 4.82 13.98C4.82 13.86 4.82667 13.6 4.84 13.2C4.86667 12.8 4.88667 12.3467 4.9 11.84C4.91333 11.3333 4.92 10.8733 4.92 10.46C4.92 10.02 4.90667 9.7 4.88 9.5C4.85333 9.3 4.80667 9.13333 4.74 9C4.7 8.90667 4.70667 8.83333 4.76 8.78C4.82667 8.72667 4.90667 8.72 5 8.76C5.09333 8.81333 5.23333 8.89333 5.42 9C5.62 9.10667 5.82 9.21333 6.02 9.32C6.23333 9.42667 6.4 9.51333 6.52 9.58H13.4C13.4533 9.58 13.4933 9.57333 13.52 9.56C13.56 9.53333 13.5933 9.51333 13.62 9.5L14.22 8.9C14.3133 8.80667 14.4267 8.80667 14.56 8.9C14.7067 8.99333 14.9067 9.14667 15.16 9.36C15.4133 9.56 15.5867 9.70667 15.68 9.8C15.84 9.94667 15.8333 10.0733 15.66 10.18C15.5667 10.2333 15.4867 10.28 15.42 10.32C15.3533 10.36 15.2867 10.4 15.22 10.44C15.14 10.4933 15.0933 10.54 15.08 10.58C15.0667 10.6067 15.06 10.66 15.06 10.74C15.06 11.06 15.0667 11.4333 15.08 11.86C15.1067 12.2733 15.1267 12.6533 15.14 13C15.1667 13.3467 15.18 13.5733 15.18 13.68C15.18 13.7867 15.08 13.8933 14.88 14C14.6933 14.1067 14.46 14.16 14.18 14.16C13.9 14.16 13.76 14.0533 13.76 13.84V13.5H6.24V13.84C6.24 13.96 6.12 14.0667 5.88 14.16C5.64 14.2533 5.40667 14.3 5.18 14.3ZM17.62 9.34C16.74 8.87333 15.9 8.35333 15.1 7.78C14.3 7.19333 13.5667 6.54 12.9 5.82C12.2467 5.1 11.7 4.28667 11.26 3.38C10.8333 2.46 10.5533 1.43333 10.42 0.299999C10.54 0.139999 10.6733 0.119999 10.82 0.239999C10.9667 0.986665 11.18 1.66667 11.46 2.28C11.74 2.88 12.0667 3.42667 12.44 3.92C12.7467 3.57333 13.06 3.18 13.38 2.74C13.7133 2.3 13.9867 1.88 14.2 1.48C14.32 1.25333 14.38 1.08 14.38 0.959999C14.3933 0.839999 14.44 0.766666 14.52 0.74C14.5867 0.713332 14.6467 0.733332 14.7 0.799999C14.9267 0.933333 15.1733 1.10667 15.44 1.32C15.7067 1.53333 15.94 1.73333 16.14 1.92C16.2333 2.01333 16.2467 2.11333 16.18 2.22C16.1133 2.32667 16.0133 2.34667 15.88 2.28C15.7067 2.21333 15.5733 2.18667 15.48 2.2C15.4 2.21333 15.3 2.28 15.18 2.4C14.8867 2.69333 14.5 3.02667 14.02 3.4C13.5533 3.76 13.14 4.06667 12.78 4.32C13.0333 4.61333 13.2933 4.88667 13.56 5.14C13.84 5.38 14.1267 5.60667 14.42 5.82C14.7667 5.48667 15.1267 5.1 15.5 4.66C15.8733 4.22 16.1733 3.8 16.4 3.4C16.5333 3.17333 16.6067 3 16.62 2.88C16.6467 2.76 16.6933 2.69333 16.76 2.68C16.8267 2.66667 16.8933 2.68667 16.96 2.74C17.16 2.9 17.3867 3.09333 17.64 3.32C17.9067 3.54667 18.1333 3.75333 18.32 3.94C18.4 4.02 18.4067 4.12 18.34 4.24C18.2733 4.32 18.1733 4.34 18.04 4.3C17.8667 4.22 17.74 4.18667 17.66 4.2C17.58 4.2 17.4733 4.25333 17.34 4.36C17.0333 4.62667 16.64 4.93333 16.16 5.28C15.6933 5.61333 15.2667 5.89333 14.88 6.12C15.6 6.58667 16.3467 6.98 17.12 7.3C17.9067 7.62 18.66 7.89333 19.38 8.12C18.98 8.22667 18.62 8.4 18.3 8.64C17.9933 8.88 17.7667 9.11333 17.62 9.34ZM1.12 17.98L0.96 17.12C1.29333 17.2 1.58 17.2467 1.82 17.26C2.06 17.2733 2.18 17.28 2.18 17.28H7.86C7.79333 17.2133 7.74 17.08 7.7 16.88C7.60667 16.4133 7.45333 15.9267 7.24 15.42C7.02667 14.9 6.77333 14.48 6.48 14.16C6.46667 14.0667 6.48667 13.9933 6.54 13.94C6.60667 13.8867 6.68 13.86 6.76 13.86C7.05333 13.9933 7.34667 14.18 7.64 14.42C7.93333 14.6467 8.18667 14.9 8.4 15.18C8.62667 15.4467 8.77333 15.7 8.84 15.94C8.94667 16.2733 8.95333 16.56 8.86 16.8C8.76667 17.0267 8.64 17.1867 8.48 17.28H11.12C11.2267 17.08 11.3533 16.82 11.5 16.5C11.6467 16.18 11.7933 15.84 11.94 15.48C12.0867 15.12 12.1933 14.7867 12.26 14.48C12.2867 14.3467 12.3 14.24 12.3 14.16C12.3133 14.0667 12.3133 13.9933 12.3 13.94C12.3 13.8333 12.32 13.7667 12.36 13.74C12.4267 13.7 12.4933 13.7067 12.56 13.76C12.6933 13.8267 12.86 13.92 13.06 14.04C13.2733 14.1467 13.48 14.26 13.68 14.38C13.8933 14.5 14.06 14.5933 14.18 14.66C14.2867 14.7133 14.32 14.8067 14.28 14.94C14.24 15.06 14.1533 15.1067 14.02 15.08C13.8467 15.0267 13.72 15.02 13.64 15.06C13.56 15.0867 13.4667 15.1733 13.36 15.32C13.1467 15.6133 12.8867 15.9467 12.58 16.32C12.2733 16.6933 11.9867 17.0133 11.72 17.28H16.12C16.2133 17.28 16.2867 17.2533 16.34 17.2C16.38 17.16 16.46 17.0733 16.58 16.94C16.7133 16.7933 16.84 16.6533 16.96 16.52C17.0933 16.3733 17.1733 16.28 17.2 16.24C17.32 16.1067 17.4467 16.0933 17.58 16.2C17.66 16.2533 17.7933 16.3667 17.98 16.54C18.18 16.7 18.3733 16.86 18.56 17.02C18.7467 17.1933 18.8667 17.3067 18.92 17.36C19.0267 17.4533 19.0667 17.56 19.04 17.68C19.0133 17.8133 18.9467 17.88 18.84 17.88H2.18C2.18 17.88 2.06667 17.88 1.84 17.88C1.62667 17.8933 1.38667 17.9267 1.12 17.98ZM6.24 12.9H13.76V10.18H6.24V12.9ZM0.88 10.72C0.693333 10.6533 0.633333 10.5333 0.7 10.36C1.72667 9.70667 2.72667 8.94 3.7 8.06C4.67333 7.16667 5.52667 6.18667 6.26 5.12C7.00667 4.05333 7.54 2.94 7.86 1.78H2.94C2.94 1.78 2.84 1.78667 2.64 1.8C2.45333 1.8 2.18667 1.82667 1.84 1.88L1.66 0.979999C2.04667 1.07333 2.35333 1.13333 2.58 1.16C2.82 1.17333 2.94 1.18 2.94 1.18H7.54C7.64667 1.18 7.74667 1.14 7.84 1.06C7.90667 1.00667 8.02 0.913332 8.18 0.779999C8.35333 0.646666 8.46667 0.553332 8.52 0.499999C8.64 0.419999 8.75333 0.419999 8.86 0.499999C8.95333 0.566666 9.08 0.673333 9.24 0.82C9.4 0.953333 9.56 1.08667 9.72 1.22C9.88 1.35333 10 1.46667 10.08 1.56C10.1467 1.65333 10.16 1.75333 10.12 1.86C10.0667 1.96667 9.94667 2.02 9.76 2.02C9.54667 2.02 9.4 2.04 9.32 2.08C9.25333 2.10667 9.18667 2.2 9.12 2.36C8.65333 3.50667 8.08 4.53333 7.4 5.44C6.73333 6.34667 6.01333 7.14667 5.24 7.84C4.48 8.52 3.72 9.1 2.96 9.58C2.21333 10.06 1.52 10.44 0.88 10.72ZM6.46 7.94L6.3 7.08C6.63333 7.16 6.92 7.20667 7.16 7.22C7.4 7.23333 7.52 7.24 7.52 7.24H11.74C11.82 7.24 11.8867 7.21333 11.94 7.16C12.0067 7.09333 12.1133 6.98 12.26 6.82C12.4067 6.64667 12.5067 6.53333 12.56 6.48C12.68 6.36 12.8067 6.35333 12.94 6.46C13.0067 6.51333 13.1 6.6 13.22 6.72C13.3533 6.82667 13.4867 6.94 13.62 7.06C13.7533 7.18 13.8467 7.26667 13.9 7.32C14.02 7.44 14.06 7.56 14.02 7.68C13.98 7.78667 13.9067 7.84 13.8 7.84H7.52C7.52 7.84 7.40667 7.84667 7.18 7.86C6.96667 7.86 6.72667 7.88667 6.46 7.94ZM4.9 6.1C4.76667 6.11333 4.66 6.08667 4.58 6.02C4.5 5.95333 4.40667 5.80667 4.3 5.58C4.11333 5.12667 3.83333 4.66667 3.46 4.2C3.1 3.72 2.66667 3.31333 2.16 2.98C2.14667 2.9 2.16 2.82667 2.2 2.76C2.24 2.69333 2.3 2.65333 2.38 2.64C3.00667 2.84 3.6 3.11333 4.16 3.46C4.72 3.80667 5.11333 4.21333 5.34 4.68C5.51333 5.01333 5.53333 5.32667 5.4 5.62C5.26667 5.9 5.1 6.06 4.9 6.1ZM21.06 18.36C20.8867 18.2667 20.8333 18.14 20.9 17.98C21.8867 17.5 22.82 16.92 23.7 16.24C24.58 15.56 25.3733 14.7533 26.08 13.82C26.7867 12.8733 27.3867 11.76 27.88 10.48C28.3733 9.2 28.7333 7.72 28.96 6.04C28.9867 5.84 28.9933 5.68667 28.98 5.58C28.9667 5.46 28.9533 5.36667 28.94 5.3C28.9267 5.19333 28.9333 5.12 28.96 5.08C29 5.02667 29.06 5.02 29.14 5.06C29.1933 5.07333 29.26 5.1 29.34 5.14C29.4333 5.18 29.5333 5.22 29.64 5.26C29.56 4.39333 29.52 3.48 29.52 2.52H26.12C26.12 2.52 26.0067 2.52667 25.78 2.54C25.5667 2.54 25.3267 2.56667 25.06 2.62L24.9 1.76C25.2333 1.84 25.52 1.88667 25.76 1.9C26 1.91333 26.12 1.92 26.12 1.92H28.94C29.0333 1.92 29.1 1.89333 29.14 1.84C29.2467 1.73333 29.3667 1.6 29.5 1.44C29.6467 1.28 29.7667 1.15333 29.86 1.06C29.9267 0.979999 29.9867 0.939999 30.04 0.939999C30.0933 0.939999 30.16 0.973333 30.24 1.04C30.3333 1.10667 30.4667 1.22 30.64 1.38C30.8133 1.52667 30.9867 1.68 31.16 1.84C31.3333 2 31.4667 2.13333 31.56 2.24C31.6267 2.30667 31.6533 2.38 31.64 2.46C31.64 2.52667 31.5867 2.58 31.48 2.62C31.3733 2.67333 31.22 2.74 31.02 2.82C30.8333 2.88667 30.6667 2.94667 30.52 3C30.44 3.02667 30.3867 3.06667 30.36 3.12C30.3333 3.16 30.32 3.24 30.32 3.36C30.32 5.85333 30.68 7.98 31.4 9.74C32.1333 11.4867 33.1667 12.9267 34.5 14.06C35.8333 15.1933 37.3933 16.0733 39.18 16.7C38.7133 16.8067 38.3 16.9933 37.94 17.26C37.58 17.5267 37.3067 17.7867 37.12 18.04C35.2133 17 33.6733 15.6333 32.5 13.94C31.34 12.2467 30.52 10.26 30.04 7.98C29.6267 9.92667 28.9667 11.5933 28.06 12.98C27.1533 14.3667 26.0933 15.5 24.88 16.38C23.6667 17.26 22.3933 17.92 21.06 18.36Z" fill="#383838"/>
</svg>
