<svg width="100" height="100" viewBox="0 0 100 100" fill="none" xmlns="http://www.w3.org/2000/svg">
<circle cx="50" cy="50" r="50" fill="#FBFBFB"/>
<rect x="48" y="64" width="4" height="10" fill="#719AC5"/>
<circle cx="50" cy="43" r="22.5" stroke="#719AC5"/>
<path d="M44.8631 42.8818C44.8236 42.8356 44.7532 42.8353 44.7127 42.88C44.2086 43.4377 43.8326 43.632 43.003 43.5625C42.9886 43.5612 42.9739 43.5565 42.9613 43.5492C36.8355 39.9871 34.0819 39.0944 31.5671 41.3092C31.5524 41.3222 31.5417 41.3391 31.5367 41.3583C29.6661 48.5517 34.7186 62.3988 44.8249 57.623C44.832 57.6196 44.8392 57.6151 44.8454 57.6101C47.4161 55.5107 48.4836 53.5421 49.657 48.5448C49.6644 48.5133 49.6565 48.4791 49.6354 48.4545L44.8631 42.8818Z" fill="#719AC5" stroke="#719AC5"/>
<path d="M53.3972 39.2641C53.4572 39.2582 53.4987 39.2001 53.4864 39.1407C53.3339 38.3993 53.3972 37.9752 53.9356 37.3297C53.945 37.3184 53.9574 37.309 53.9706 37.3028C60.3841 34.3096 62.7003 32.5518 62.3926 29.1831C62.3908 29.1634 62.3835 29.1448 62.3711 29.1296C57.7074 23.3964 43.6938 19.5166 41.6316 30.6539C41.6301 30.6617 41.6295 30.6703 41.63 30.6783C41.8128 34.0261 42.7658 36.0546 46.0792 39.9332C46.1001 39.9576 46.132 39.9709 46.164 39.9678L53.3972 39.2641Z" fill="#719AC5" stroke="#719AC5"/>
<path d="M52.0357 47.9876C52.0168 48.0448 52.0525 48.1055 52.1114 48.1182C52.8196 48.2711 53.1658 48.4939 53.5186 49.2274C53.5249 49.2404 53.5283 49.2552 53.5285 49.2697C53.6188 56.1866 54.2448 58.9497 57.3192 59.9901C57.3381 59.9965 57.3584 59.9973 57.3776 59.9918C64.248 58.0495 73.1861 47.0045 64.2357 40.806C64.2291 40.8014 64.2215 40.7974 64.214 40.7946C61.2066 39.6512 59.0513 39.713 54.3422 41.1675C54.3114 41.177 54.2862 41.2011 54.2761 41.2318L52.0357 47.9876Z" fill="#719AC5" stroke="#719AC5"/>
<circle cx="50" cy="43" r="5.5" fill="white" stroke="#B4B4B4"/>
<path d="M35.7412 76.3234C35.9069 76.1163 36.1481 75.9835 36.4117 75.9542L45 75H54.5L62.6257 75.9559C62.8669 75.9843 63.0896 76.0996 63.2521 76.2801L65.9979 79.331C66.5771 79.9745 66.1204 81 65.2546 81H34.0806C33.2421 81 32.7759 80.03 33.2998 79.3753L35.7412 76.3234Z" fill="#719AC5"/>
<path d="M45.8681 72.9103C45.9145 72.3949 46.3465 72 46.864 72H53.136C53.6535 72 54.0855 72.3949 54.1319 72.9103L54.4019 75.9103C54.4546 76.4956 53.9936 77 53.406 77H46.594C46.0064 77 45.5454 76.4956 45.5981 75.9103L45.8681 72.9103Z" fill="#719AC5"/>
</svg>
