<svg width="23" height="16" viewBox="0 0 23 16" fill="none" xmlns="http://www.w3.org/2000/svg">
<rect width="23" height="16" rx="3" fill="url(#paint0_linear_593_1001)"/>
<path d="M14.9258 3.22656C14.9258 2.80729 15.1081 2.49284 15.4727 2.2832C15.6276 2.20117 15.8008 2.16016 15.9922 2.16016H16.7578C17.1771 2.16016 17.4915 2.34245 17.7012 2.70703C17.7832 2.86198 17.8242 3.0306 17.8242 3.21289V11.1289C17.8242 11.9857 17.332 12.332 16.3477 12.168C16.1927 12.168 16.1016 12.1042 16.0742 11.9766V11.9355C16.0742 11.7624 16.138 11.6621 16.2656 11.6348L16.2793 11.6211H16.3203C16.9401 11.6576 17.2546 11.498 17.2637 11.1426V3.22656C17.2637 2.98958 17.1543 2.83008 16.9355 2.74805L16.7578 2.7207H15.9922C15.7552 2.7207 15.5957 2.83008 15.5137 3.04883L15.4863 3.22656L15.4727 14.1504C15.4727 14.3053 15.4089 14.3965 15.2812 14.4238H15.2402C15.0671 14.4238 14.9668 14.36 14.9395 14.2324L14.9258 14.1777V3.22656ZM9.11523 11.6895C8.00326 12.0814 6.98242 12.4141 6.05273 12.6875C5.89779 12.7331 5.78841 12.6921 5.72461 12.5645C5.71549 12.5553 5.71094 12.5462 5.71094 12.5371C5.65625 12.3548 5.70182 12.2318 5.84766 12.168H5.86133L6.79102 11.8945V2.7207H5.79297C5.63802 2.7207 5.54688 2.65234 5.51953 2.51562V2.47461C5.51953 2.30143 5.58333 2.20117 5.71094 2.17383L5.76562 2.16016L10.6738 2.17383C10.8288 2.17383 10.9199 2.24219 10.9473 2.37891V2.43359C10.9473 2.59766 10.8789 2.69336 10.7422 2.7207H9.67578V10.9102L10.4141 10.6504L10.5645 10.6367L10.9746 10.4453V2.7207C10.9746 2.56576 11.0475 2.47461 11.1934 2.44727H11.2344C11.3984 2.44727 11.4941 2.51107 11.5215 2.63867L11.5352 2.65234V2.76172C12.1367 2.46094 12.7839 2.02344 13.4766 1.44922C13.6042 1.33984 13.7227 1.33984 13.832 1.44922L13.8457 1.46289C13.9824 1.60872 13.9824 1.74089 13.8457 1.85938C13.0618 2.51562 12.3327 3.00326 11.6582 3.32227H11.6445L11.5352 3.34961V10.1855C12.0273 9.94857 12.5013 9.68424 12.957 9.39258C13.1667 8.04362 13.2806 6.37565 13.2988 4.38867C13.2988 4.22461 13.3717 4.12891 13.5176 4.10156H13.5586C13.7227 4.10156 13.8184 4.16992 13.8457 4.30664L13.8594 4.32031V4.36133C13.8411 6.28451 13.7409 7.92057 13.5586 9.26953L13.5723 9.2832C13.6816 9.43815 13.6771 9.56576 13.5586 9.66602L13.5449 9.67969L13.4902 9.70703C13.1074 12.0951 12.3965 13.6901 11.3574 14.4922C11.2207 14.5833 11.1022 14.5742 11.002 14.4648L10.9883 14.4375C10.8789 14.2826 10.888 14.1549 11.0156 14.0547L11.0293 14.041C11.8314 13.3848 12.4284 12.0859 12.8203 10.1445V10.1309C12.1549 10.5319 11.3802 10.9056 10.4961 11.252L10.3457 11.2656L9.67578 11.5117V14.1504C9.67578 14.3053 9.60742 14.3965 9.4707 14.4238H9.42969C9.25651 14.4238 9.15625 14.36 9.12891 14.2324L9.11523 14.1777V11.6895ZM9.11523 8.33984H7.35156V11.7031L9.11523 11.1152V8.33984ZM7.35156 4.99023H9.11523V2.7207H7.35156V4.99023ZM9.11523 5.55078H7.35156V7.7793H9.11523V5.55078Z" fill="white"/>
<defs>
<linearGradient id="paint0_linear_593_1001" x1="5.5" y1="0.5" x2="20.5" y2="16" gradientUnits="userSpaceOnUse">
<stop stop-color="#90C0EB"/>
<stop offset="1" stop-color="#24B685" stop-opacity="0.31"/>
</linearGradient>
</defs>
</svg>
