<svg width="100" height="100" viewBox="0 0 100 100" fill="none" xmlns="http://www.w3.org/2000/svg">
<circle cx="50" cy="50" r="50" fill="#FBFBFB"/>
<path d="M38.5 25.5913L41 19.0913C44.2117 18.762 45.9723 19.263 49 21.5913L47 28.0913C44.5933 25.9885 42.7192 25.4605 38.5 25.5913Z" fill="#24B685" fill-opacity="0.6"/>
<path d="M70 24.0913C72.1879 20.9168 73.8663 20.192 78 21.5913C80.8506 23.7272 80.879 25.6236 78.5 30.0913C75.8325 26.594 73.917 25.377 70 24.0913Z" fill="#FFD900"/>
<path d="M35 31.0913H32L23 53.5913L24 54.5913L32.5 33.0913L34 32.5913L35 31.0913Z" fill="#FFD900" stroke="#004B97" stroke-opacity="0.7" stroke-width="0.5" stroke-linecap="round" stroke-linejoin="round"/>
<path d="M22.6169 83.6859L26.1769 80.0252C24.8754 78.9232 23.9926 78.4844 21.7145 78.5233L22.6169 83.6859Z" fill="#427DB7"/>
<path d="M20 68.7142L21.7145 78.5233M32.7884 73.2268L26.1769 80.0252M26.1769 80.0252L22.6169 83.6859L21.7145 78.5233M26.1769 80.0252C24.8754 78.9232 23.9926 78.4844 21.7145 78.5233" stroke="#427DB7" stroke-linecap="round" stroke-linejoin="round"/>
<path d="M42.0188 80.0503L45.5904 77.4605C44.7142 76.2835 44.0655 75.7539 42.1856 75.4064L42.0188 80.0503Z" fill="#427DB7"/>
<path d="M42.5026 66.583L42.1856 75.4064M52.2234 72.6509L45.5904 77.4605M45.5904 77.4605L42.0188 80.0503L42.1856 75.4064M45.5904 77.4605C44.7142 76.2835 44.0655 75.7539 42.1856 75.4064" stroke="#427DB7" stroke-linecap="round" stroke-linejoin="round"/>
<path d="M69.5204 23.3317C69.7944 22.9087 70.3418 22.7554 70.7935 22.9791C74.8335 24.9803 77.0745 26.5354 79.9631 29.5268C80.2809 29.856 80.3274 30.3612 80.0808 30.7467L53.6309 72.1048C53.2997 72.6227 52.5836 72.7202 52.1175 72.3194C48.855 69.5139 46.5319 68.1056 42.821 66.9694C42.1721 66.7707 41.878 66.0077 42.247 65.4381L69.5204 23.3317Z" fill="#145AA1"/>
<path d="M69.9404 23.604C70.0778 23.3919 70.3496 23.3176 70.5713 23.4272C74.5687 25.4073 76.761 26.9308 79.6035 29.8745C79.7577 30.0344 79.783 30.2834 79.6592 30.4771L53.21 71.8354C53.0463 72.0913 52.684 72.1469 52.4434 71.9399C49.1413 69.1005 46.7586 67.6524 42.9678 66.4917C42.6233 66.3862 42.4859 65.9891 42.667 65.7095L69.9404 23.604Z" stroke="#004B97" stroke-opacity="0.7"/>
<path d="M36.8277 25.3543C36.9667 24.9449 37.355 24.6707 37.7873 24.6766C41.9649 24.734 43.83 24.9548 47.5779 28.2375C47.8731 28.4962 47.9836 28.9079 47.8637 29.2816L46.3754 33.9211C46.1817 34.5248 45.4803 34.7966 44.9301 34.4816C41.3641 32.4401 39.8414 31.5225 36.1992 31.1844C35.5387 31.1231 35.0919 30.4672 35.3051 29.839L36.8277 25.3543Z" fill="#004B97" fill-opacity="0.7"/>
<path d="M37.7801 25.1771C39.8735 25.2058 41.3136 25.2762 42.6897 25.7226C44.0559 26.1659 45.3998 26.994 47.2486 28.6133C47.3911 28.7381 47.448 28.9413 47.3879 29.1288L45.8996 33.7679C45.8032 34.0685 45.453 34.2044 45.1784 34.0472C41.6097 32.0041 40.0045 31.0359 36.2455 30.6869C35.8908 30.654 35.6746 30.307 35.7788 29.9999L37.3012 25.5153C37.3705 25.3112 37.5646 25.1742 37.7801 25.1771Z" stroke="#004B97" stroke-opacity="0.7"/>
<path d="M35.6963 30.6694C39.5661 31.1253 41.7838 32.0159 45.0811 34.0962C45.2688 34.2147 45.3536 34.4504 45.2812 34.6675L32.9424 71.6831C32.8458 71.9728 32.458 72.1555 32.0801 71.9741C31.4888 71.6904 30.9401 71.5359 30.3828 71.5083C29.8265 71.4808 29.2916 71.5809 28.7324 71.7661C28.4407 71.8627 28.1245 71.7447 27.9736 71.4927C27.5697 70.8178 27.1376 70.2889 26.6182 69.9878C26.0674 69.6685 25.4765 69.6385 24.8496 69.8442C24.5907 69.9292 24.217 69.8881 23.7676 69.7153C23.3321 69.5479 22.8996 69.285 22.5723 69.0386C22.225 68.7772 21.7909 68.5802 21.2822 68.4146C20.9364 68.3019 20.7843 67.956 20.8887 67.687L35.1904 30.98C35.2724 30.7696 35.4823 30.6444 35.6963 30.6694Z" fill="#004B97" stroke="#004B97"/>
<path d="M34.4763 65.6017C34.2274 65.5178 33.9975 65.3857 33.7996 65.213C33.6018 65.0403 33.4399 64.8302 33.3232 64.5949C33.2065 64.3596 33.1373 64.1037 33.1196 63.8416C33.1018 63.5796 33.1358 63.3166 33.2197 63.0677C33.3036 62.8188 33.4356 62.5889 33.6084 62.391C33.7811 62.1932 33.9911 62.0313 34.2264 61.9146C34.4617 61.7979 34.7177 61.7287 34.9797 61.7109C35.2418 61.6932 35.5047 61.7272 35.7536 61.8111L35.115 63.7064L34.4763 65.6017Z" fill="white"/>
<path d="M29.7825 45.8397C30.0314 45.9236 30.2613 46.0557 30.4591 46.2284C30.657 46.4012 30.8189 46.6112 30.9356 46.8465C31.0523 47.0818 31.1215 47.3377 31.1392 47.5998C31.157 47.8618 31.123 48.1248 31.0391 48.3737C30.9552 48.6226 30.8232 48.8525 30.6504 49.0504C30.4777 49.2482 30.2677 49.4101 30.0324 49.5268C29.7971 49.6435 29.5411 49.7127 29.2791 49.7305C29.017 49.7482 28.754 49.7142 28.5052 49.6303L29.1438 47.735L29.7825 45.8397Z" fill="white"/>
<circle cx="34.5" cy="55.0913" r="1.5" fill="white"/>
<circle cx="36.5" cy="38.0913" r="1.5" fill="white"/>
<circle cx="25.5" cy="62.0913" r="1.5" fill="white"/>
</svg>
