<svg width="100" height="100" viewBox="0 0 100 100" fill="none" xmlns="http://www.w3.org/2000/svg">
<rect width="100" height="100" rx="50" fill="white"/>
<path d="M13 48.9381L21.367 35.3299L53.4404 19L84.1193 35.3299V64.5876L53.4404 85L21.367 67.9897V53.0206L13 48.9381Z" fill="url(#paint0_linear_572_1081)"/>
<path d="M21.367 35.3299L13 48.9381L21.367 53.0206M21.367 35.3299L53.4404 52.3402M21.367 35.3299L53.4404 19L84.1193 35.3299M53.4404 52.3402L45.0734 65.9485L21.367 53.0206M53.4404 52.3402L84.1193 35.3299M53.4404 52.3402V85M84.1193 35.3299V64.5876L53.4404 85M84.1193 35.3299L89 44.8557M53.4404 85L21.367 67.9897V53.0206" stroke="url(#paint1_linear_572_1081)" stroke-width="4" stroke-linecap="round" stroke-linejoin="round"/>
<path d="M53.5 42L61 46L53.5 50L45.5 46L53.5 42Z" fill="#FBFBFB"/>
<defs>
<linearGradient id="paint0_linear_572_1081" x1="51" y1="19" x2="51" y2="85" gradientUnits="userSpaceOnUse">
<stop stop-color="#7CD6FF" stop-opacity="0.74"/>
<stop offset="1" stop-color="#DCADDB"/>
</linearGradient>
<linearGradient id="paint1_linear_572_1081" x1="51" y1="19" x2="51" y2="85" gradientUnits="userSpaceOnUse">
<stop stop-color="#EDF8FF"/>
<stop offset="1" stop-color="#EFE5FF"/>
</linearGradient>
</defs>
</svg>
