<svg width="142" height="146" viewBox="0 0 142 146" fill="none" xmlns="http://www.w3.org/2000/svg">
<path d="M20.0425 52.6509C19.9726 51.6114 20.7312 50.6736 21.7618 50.5208C47.0634 46.7695 58.4824 39.9696 67.8946 19.4532C68.6524 17.8013 71.1007 17.8312 71.8238 19.4986C80.6066 39.7493 92.4564 47.5069 118.515 49.6268C119.602 49.7152 120.44 50.6624 120.373 51.7516C118.097 88.4119 106.134 106.372 72.3179 139.797C71.5319 140.574 70.243 140.569 69.4642 139.785C43.424 113.567 23.3038 101.12 20.0425 52.6509Z" fill="white" stroke="#004B97" stroke-width="10"/>
<path d="M54.0149 79.8787L66.2469 97.6858C67.0532 98.8596 68.7932 98.8386 69.5709 97.6456L94.0149 60.149" stroke="#004B97" stroke-width="10" stroke-linecap="round"/>
</svg>
