<svg width="82" height="81" viewBox="0 0 82 81" fill="none" xmlns="http://www.w3.org/2000/svg">
<path d="M2 20.8092L13.1374 2.24279C13.2277 2.09217 13.3905 2 13.5661 2H70.369C70.559 2 70.7326 2.10772 70.817 2.27799L80 20.8092M2 20.8092H80M2 20.8092V78.5C2 78.7761 2.22386 79 2.5 79H79.5C79.7761 79 80 78.7761 80 78.5V20.8092M60.3774 32.4771V41.4695C60.3774 41.7456 60.1535 41.9695 59.8774 41.9695H19.1792C18.9031 41.9695 18.6792 41.7456 18.6792 41.4695V32.4771C18.6792 32.201 18.9031 31.9771 19.1792 31.9771H59.8774C60.1535 31.9771 60.3774 32.201 60.3774 32.4771Z" stroke="url(#paint0_linear_914_58)" stroke-width="4"/>
<defs>
<linearGradient id="paint0_linear_914_58" x1="41" y1="2" x2="41" y2="79" gradientUnits="userSpaceOnUse">
<stop stop-color="#ABDAD5"/>
<stop offset="1" stop-color="#759EC6"/>
</linearGradient>
</defs>
</svg>
