<svg width="26" height="22" viewBox="0 0 26 22" fill="none" xmlns="http://www.w3.org/2000/svg">
<g clip-path="url(#clip0_4_31)">
<rect width="16" height="10" rx="1" transform="matrix(-1 0 0 1 21 11)" fill="url(#paint0_linear_4_31)" fill-opacity="0.6"/>
<ellipse cx="1.5" cy="1" rx="1.5" ry="1" transform="matrix(-1 0 0 1 3.94 8.5)" fill="#009497" fill-opacity="0.4"/>
<ellipse cx="1.6" cy="1" rx="1.6" ry="1" transform="matrix(-1 0 0 1 22.1 8.5)" fill="#009497" fill-opacity="0.4"/>
<ellipse cx="1.5" cy="1" rx="1.5" ry="1" transform="matrix(-1 0 0 1 12.9 8.5)" fill="#009497" fill-opacity="0.4"/>
<ellipse cx="1.5" cy="1" rx="1.5" ry="1" transform="matrix(-1 0 0 1 9.9 8.5)" fill="#009497" fill-opacity="0.4"/>
<ellipse cx="1.5" cy="1" rx="1.5" ry="1" transform="matrix(-1 0 0 1 6.9 8.5)" fill="#009497" fill-opacity="0.4"/>
<ellipse cx="1.5" cy="1" rx="1.5" ry="1" transform="matrix(-1 0 0 1 15.9 8.5)" fill="#009497" fill-opacity="0.4"/>
<ellipse cx="1.5" cy="1" rx="1.5" ry="1" transform="matrix(-1 0 0 1 18.9 8.5)" fill="#009497" fill-opacity="0.4"/>
<ellipse cx="1.5" cy="1" rx="1.5" ry="1" transform="matrix(-1 0 0 1 25.1 8.5)" fill="#009497" fill-opacity="0.4"/>
<path d="M12.9142 -10.6567C12.953 -10.7215 13.047 -10.7215 13.0858 -10.6567L25.0337 9.29863C25.0736 9.36528 25.0256 9.45 24.9479 9.45H1.05207C0.974385 9.45 0.926367 9.36529 0.966275 9.29863L12.9142 -10.6567Z" fill="url(#paint1_linear_4_31)" fill-opacity="0.6"/>
<rect x="7" y="11" width="12" height="7" fill="white"/>
</g>
<defs>
<linearGradient id="paint0_linear_4_31" x1="8" y1="10" x2="8" y2="0" gradientUnits="userSpaceOnUse">
<stop offset="0.2" stop-color="#0D779D"/>
<stop offset="0.879808" stop-color="#24B685" stop-opacity="0.8"/>
</linearGradient>
<linearGradient id="paint1_linear_4_31" x1="13" y1="16.2" x2="13" y2="-10.8" gradientUnits="userSpaceOnUse">
<stop stop-color="#004B97"/>
<stop offset="0.576923" stop-color="#009497" stop-opacity="0.8"/>
</linearGradient>
<clipPath id="clip0_4_31">
<rect width="26" height="22" fill="white" transform="matrix(-1 0 0 1 26 0)"/>
</clipPath>
</defs>
</svg>
