<svg width="303" height="29" viewBox="0 0 303 29" fill="none" xmlns="http://www.w3.org/2000/svg">
<path d="M203.28 24.44C202.987 24.44 202.84 24.32 202.84 24.08C202.84 24.0267 202.847 23.82 202.86 23.46C202.873 23.1133 202.887 22.6733 202.9 22.14C202.927 21.5933 202.947 21.0067 202.96 20.38C202.973 19.74 202.987 19.1067 203 18.48C203.013 17.8533 203.02 17.2867 203.02 16.78V15.44C202.567 16.44 202.06 17.3667 201.5 18.22C200.94 19.06 200.393 19.78 199.86 20.38C199.78 20.3933 199.707 20.38 199.64 20.34C199.573 20.2867 199.533 20.22 199.52 20.14C199.813 19.6733 200.12 19.1133 200.44 18.46C200.773 17.8067 201.1 17.0933 201.42 16.32C201.74 15.5467 202.027 14.7533 202.28 13.94C202.547 13.1267 202.753 12.3267 202.9 11.54C202.753 11.54 202.613 11.54 202.48 11.54C202.347 11.54 202.227 11.54 202.12 11.54C201.92 11.54 201.753 11.54 201.62 11.54C201.487 11.54 201.387 11.54 201.32 11.54C201.32 11.54 201.193 11.5467 200.94 11.56C200.687 11.56 200.407 11.58 200.1 11.62L199.92 10.78C200.307 10.8467 200.633 10.8867 200.9 10.9C201.18 10.9133 201.32 10.92 201.32 10.92H203.02V7.8C203.02 7.46667 203.007 7.20667 202.98 7.02C202.953 6.83333 202.913 6.69333 202.86 6.6C202.833 6.50667 202.84 6.44 202.88 6.4C202.92 6.36 202.98 6.34667 203.06 6.36C203.207 6.37333 203.407 6.40667 203.66 6.46C203.913 6.51333 204.167 6.56667 204.42 6.62C204.673 6.67333 204.88 6.72 205.04 6.76C205.173 6.8 205.227 6.88667 205.2 7.02C205.2 7.15333 205.127 7.23333 204.98 7.26C204.82 7.27333 204.68 7.30667 204.56 7.36C204.44 7.4 204.38 7.52667 204.38 7.74V10.92H204.92C205.04 10.92 205.133 10.8867 205.2 10.82C205.267 10.7267 205.367 10.6 205.5 10.44C205.647 10.28 205.753 10.16 205.82 10.08C205.953 9.94667 206.087 9.94 206.22 10.06C206.367 10.1667 206.547 10.32 206.76 10.52C206.973 10.72 207.147 10.8933 207.28 11.04C207.387 11.1467 207.42 11.26 207.38 11.38C207.34 11.4867 207.267 11.54 207.16 11.54H204.38V13.86C204.727 14.02 205.1 14.2533 205.5 14.56C205.9 14.8533 206.24 15.1733 206.52 15.52C207.307 14.7467 207.947 13.9667 208.44 13.18C208.933 12.3933 209.233 11.7333 209.34 11.2C209.367 11.1067 209.393 11.0533 209.42 11.04C209.46 11.0133 209.527 11.02 209.62 11.06C209.767 11.14 209.953 11.2533 210.18 11.4C210.407 11.5333 210.633 11.6733 210.86 11.82C211.087 11.9533 211.26 12.0667 211.38 12.16C211.473 12.2267 211.493 12.32 211.44 12.44C211.4 12.56 211.313 12.6067 211.18 12.58C211.02 12.5267 210.893 12.5133 210.8 12.54C210.72 12.5533 210.627 12.6133 210.52 12.72C210.387 12.88 210.24 13.0467 210.08 13.22C209.92 13.38 209.76 13.5333 209.6 13.68C209.76 14.8 210.053 15.7933 210.48 16.66C210.907 17.5133 211.413 18.26 212 18.9C212.373 18.3 212.687 17.6733 212.94 17.02C213.207 16.3533 213.407 15.7467 213.54 15.2C213.673 14.64 213.72 14.2333 213.68 13.98C213.68 13.9667 213.68 13.94 213.68 13.9C213.68 13.8333 213.687 13.7933 213.7 13.78C213.727 13.7267 213.793 13.7133 213.9 13.74C214.033 13.7933 214.24 13.88 214.52 14C214.8 14.12 215.073 14.24 215.34 14.36C215.62 14.48 215.827 14.5733 215.96 14.64C216.067 14.6933 216.093 14.7933 216.04 14.94C216 15.06 215.92 15.1133 215.8 15.1C215.613 15.06 215.48 15.0667 215.4 15.12C215.333 15.16 215.267 15.2733 215.2 15.46C214.933 16.34 214.613 17.1467 214.24 17.88C213.88 18.6 213.467 19.2533 213 19.84C213.827 20.4933 214.713 21.02 215.66 21.42C216.62 21.8067 217.553 22.1 218.46 22.3C218.073 22.46 217.693 22.7067 217.32 23.04C216.947 23.3867 216.687 23.7133 216.54 24.02C215.74 23.6333 214.96 23.18 214.2 22.66C213.453 22.14 212.76 21.5333 212.12 20.84C211.267 21.6933 210.273 22.4 209.14 22.96C208.007 23.5067 206.747 23.94 205.36 24.26C205.187 24.1533 205.147 24.02 205.24 23.86C206.467 23.4333 207.593 22.9 208.62 22.26C209.647 21.6067 210.54 20.8067 211.3 19.86C210.74 19.0867 210.267 18.2267 209.88 17.28C209.493 16.3333 209.247 15.2733 209.14 14.1C208.34 14.82 207.553 15.42 206.78 15.9C206.9 16.1267 206.98 16.3333 207.02 16.52C207.087 16.8933 207.047 17.2067 206.9 17.46C206.767 17.7133 206.587 17.86 206.36 17.9C206.04 17.9667 205.833 17.84 205.74 17.52C205.633 17.04 205.46 16.5267 205.22 15.98C204.98 15.4333 204.7 14.9533 204.38 14.54V16.8C204.38 17.52 204.38 18.28 204.38 19.08C204.393 19.88 204.407 20.6333 204.42 21.34C204.433 22.0467 204.44 22.6333 204.44 23.1C204.453 23.5667 204.46 23.8333 204.46 23.9C204.46 24.0333 204.34 24.1533 204.1 24.26C203.86 24.38 203.587 24.44 203.28 24.44ZM207.26 10.78L207.08 9.94C207.453 10.0067 207.767 10.0467 208.02 10.06C208.287 10.0733 208.42 10.08 208.42 10.08H211.24V7.7C211.24 7.14 211.193 6.78667 211.1 6.64C211.047 6.54667 211.047 6.47333 211.1 6.42C211.14 6.36667 211.207 6.34667 211.3 6.36C211.46 6.37333 211.673 6.40667 211.94 6.46C212.207 6.5 212.473 6.54667 212.74 6.6C213.02 6.65333 213.24 6.7 213.4 6.74C213.52 6.78 213.58 6.87333 213.58 7.02C213.567 7.15333 213.48 7.23333 213.32 7.26C213.187 7.27333 213.053 7.30667 212.92 7.36C212.8 7.4 212.74 7.51333 212.74 7.7V10.08H215.12C215.267 10.08 215.373 10.0467 215.44 9.98C215.48 9.92667 215.553 9.83333 215.66 9.7C215.767 9.56667 215.873 9.43333 215.98 9.3C216.087 9.16667 216.16 9.08 216.2 9.04C216.32 8.92 216.447 8.91333 216.58 9.02C216.687 9.08667 216.827 9.2 217 9.36C217.187 9.50667 217.367 9.66 217.54 9.82C217.713 9.96667 217.833 10.08 217.9 10.16C218.007 10.28 218.047 10.4 218.02 10.52C217.993 10.64 217.913 10.7 217.78 10.7C217.7 10.7 217.547 10.7 217.32 10.7C217.093 10.7 216.813 10.7 216.48 10.7C216 10.6867 215.433 10.68 214.78 10.68C214.14 10.68 213.48 10.68 212.8 10.68C212.12 10.6667 211.473 10.66 210.86 10.66C210.26 10.66 209.74 10.6667 209.3 10.68C208.873 10.68 208.593 10.6867 208.46 10.7C208.46 10.7 208.333 10.7067 208.08 10.72C207.84 10.72 207.567 10.74 207.26 10.78ZM217.48 14.78C217.36 14.8733 217.22 14.9133 217.06 14.9C216.913 14.8733 216.767 14.7533 216.62 14.54C216.193 13.9133 215.687 13.36 215.1 12.88C214.513 12.3867 213.887 11.98 213.22 11.66C213.18 11.58 213.173 11.5067 213.2 11.44C213.24 11.36 213.293 11.3067 213.36 11.28C213.867 11.3467 214.4 11.4667 214.96 11.64C215.533 11.8133 216.053 12.02 216.52 12.26C216.987 12.5 217.32 12.7533 217.52 13.02C217.773 13.3533 217.88 13.6933 217.84 14.04C217.8 14.3867 217.68 14.6333 217.48 14.78ZM221.36 24.72C221.24 24.72 221.14 24.6933 221.06 24.64C220.98 24.5867 220.94 24.4867 220.94 24.34C220.94 24.2733 220.947 23.9933 220.96 23.5C220.973 23.02 220.987 22.3867 221 21.6C221.027 20.8133 221.047 19.92 221.06 18.92C221.087 17.92 221.107 16.8667 221.12 15.76C221.133 14.6533 221.14 13.5467 221.14 12.44C221.14 11.1067 221.133 10.0733 221.12 9.34C221.107 8.59333 221.08 8.05333 221.04 7.72C221.013 7.37333 220.973 7.14 220.92 7.02C220.88 6.95333 220.893 6.88667 220.96 6.82C221 6.78 221.06 6.77333 221.14 6.8C221.153 6.8 221.16 6.8 221.16 6.8C221.267 6.84 221.42 6.91333 221.62 7.02C221.833 7.12667 222.053 7.24 222.28 7.36C222.507 7.48 222.687 7.58 222.82 7.66H234.8C234.907 7.66 234.993 7.62667 235.06 7.56C235.127 7.48 235.227 7.36 235.36 7.2C235.507 7.02667 235.607 6.9 235.66 6.82C235.727 6.75333 235.787 6.72 235.84 6.72C235.893 6.70667 235.967 6.73333 236.06 6.8C236.167 6.85333 236.32 6.95333 236.52 7.1C236.72 7.24667 236.92 7.39333 237.12 7.54C237.32 7.68667 237.467 7.8 237.56 7.88C237.653 7.94667 237.693 8.02667 237.68 8.12C237.68 8.2 237.627 8.26667 237.52 8.32C237.32 8.42667 237.147 8.51333 237 8.58C236.92 8.62 236.86 8.66667 236.82 8.72C236.793 8.77333 236.78 8.87333 236.78 9.02V13.86C236.78 14.6733 236.787 15.5267 236.8 16.42C236.813 17.3 236.827 18.16 236.84 19C236.867 19.84 236.887 20.6133 236.9 21.32C236.927 22.0133 236.947 22.5867 236.96 23.04C236.973 23.5067 236.98 23.7933 236.98 23.9C236.993 24.0067 236.927 24.1 236.78 24.18C236.633 24.26 236.46 24.32 236.26 24.36C236.073 24.4 235.893 24.42 235.72 24.42C235.44 24.42 235.3 24.3067 235.3 24.08V23.28H222.6V24.24C222.6 24.3733 222.453 24.4867 222.16 24.58C221.88 24.6733 221.613 24.72 221.36 24.72ZM222.6 22.68H235.3V8.28H222.6V22.68ZM228.66 22.38C228.367 22.38 228.22 22.2533 228.22 22C228.22 21.9467 228.22 21.8 228.22 21.56C228.233 21.3067 228.24 21.0133 228.24 20.68C228.253 20.3333 228.26 19.98 228.26 19.62C228.273 19.26 228.28 18.94 228.28 18.66V18.64C227.467 19.4533 226.593 20.1667 225.66 20.78C224.727 21.3933 223.82 21.8733 222.94 22.22C222.86 22.1933 222.8 22.14 222.76 22.06C222.733 21.98 222.733 21.9067 222.76 21.84C223.613 21.3333 224.467 20.7 225.32 19.94C226.173 19.1667 226.88 18.36 227.44 17.52H226.3V17.96C226.3 18.08 226.167 18.18 225.9 18.26C225.647 18.34 225.407 18.38 225.18 18.38C224.913 18.38 224.78 18.2533 224.78 18C224.78 17.92 224.787 17.74 224.8 17.46C224.827 17.18 224.847 16.8467 224.86 16.46C224.873 16.06 224.88 15.66 224.88 15.26C224.88 14.82 224.867 14.4933 224.84 14.28C224.827 14.0533 224.787 13.86 224.72 13.7C224.693 13.6067 224.707 13.54 224.76 13.5C224.827 13.4467 224.9 13.44 224.98 13.48C225.14 13.5467 225.38 13.6667 225.7 13.84C226.02 14 226.28 14.1333 226.48 14.24H230.84C230.947 14.24 231.027 14.2067 231.08 14.14C231.133 14.0733 231.207 13.98 231.3 13.86C231.407 13.7267 231.487 13.6333 231.54 13.58C231.647 13.4467 231.773 13.4267 231.92 13.52C232.093 13.6133 232.313 13.76 232.58 13.96C232.86 14.1467 233.073 14.3 233.22 14.42C233.327 14.5 233.373 14.5867 233.36 14.68C233.36 14.7733 233.293 14.8533 233.16 14.92C233.093 14.9467 233.033 14.9733 232.98 15C232.927 15.0133 232.86 15.04 232.78 15.08C232.713 15.12 232.667 15.1667 232.64 15.22C232.613 15.2733 232.6 15.3733 232.6 15.52C232.6 15.7467 232.607 15.9933 232.62 16.26C232.647 16.5267 232.667 16.7733 232.68 17C232.693 17.2133 232.7 17.36 232.7 17.44L232.74 17.4C232.873 17.2267 232.96 17.0933 233 17C233.053 16.9067 233.107 16.86 233.16 16.86C233.227 16.8333 233.287 16.8533 233.34 16.92C233.42 16.9867 233.54 17.1 233.7 17.26C233.873 17.42 234.04 17.58 234.2 17.74C234.36 17.8867 234.467 18 234.52 18.08C234.587 18.16 234.58 18.2533 234.5 18.36C234.433 18.44 234.333 18.46 234.2 18.42C234.107 18.3533 234.007 18.3267 233.9 18.34C233.793 18.3533 233.653 18.4 233.48 18.48C233.227 18.5867 232.953 18.7 232.66 18.82C232.367 18.9267 232.1 19.0267 231.86 19.12C232.393 19.3067 232.867 19.5133 233.28 19.74C233.707 19.9667 234.027 20.2 234.24 20.44C234.507 20.7333 234.613 21.04 234.56 21.36C234.52 21.6667 234.433 21.8667 234.3 21.96C234.167 22.0533 234.02 22.0867 233.86 22.06C233.713 22.0333 233.547 21.9133 233.36 21.7C232.893 21.1533 232.353 20.64 231.74 20.16C231.127 19.68 230.433 19.2733 229.66 18.94C229.673 19.3533 229.68 19.78 229.68 20.22C229.693 20.6467 229.707 21.02 229.72 21.34C229.733 21.6467 229.74 21.8333 229.74 21.9C229.74 22.02 229.62 22.1333 229.38 22.24C229.14 22.3333 228.9 22.38 228.66 22.38ZM223.08 13.18L222.9 12.34C223.287 12.42 223.613 12.4667 223.88 12.48C224.16 12.4933 224.3 12.5 224.3 12.5H228.1V10.96C227.82 10.96 227.547 10.96 227.28 10.96C227.027 10.96 226.787 10.96 226.56 10.96C226.227 10.96 225.947 10.96 225.72 10.96C225.493 10.96 225.36 10.96 225.32 10.96C225.32 10.96 225.193 10.9667 224.94 10.98C224.687 10.98 224.407 11 224.1 11.04L223.92 10.2C224.307 10.28 224.633 10.3267 224.9 10.34C225.18 10.3533 225.32 10.36 225.32 10.36H228.1V9.9C228.1 9.38 228.047 9.03333 227.94 8.86C227.9 8.78 227.9 8.70667 227.94 8.64C227.98 8.58667 228.047 8.56667 228.14 8.58C228.287 8.59333 228.493 8.62667 228.76 8.68C229.027 8.73333 229.293 8.78667 229.56 8.84C229.84 8.89333 230.053 8.94 230.2 8.98C230.32 9.02 230.38 9.11333 230.38 9.26C230.367 9.38 230.287 9.45333 230.14 9.48C229.993 9.49333 229.86 9.52667 229.74 9.58C229.62 9.62 229.56 9.73333 229.56 9.92V10.36H231.56C231.68 10.36 231.767 10.32 231.82 10.24C231.887 10.16 231.98 10.04 232.1 9.88C232.233 9.70667 232.327 9.59333 232.38 9.54C232.473 9.43333 232.6 9.42667 232.76 9.52C232.853 9.57333 232.98 9.66667 233.14 9.8C233.3 9.92 233.453 10.0467 233.6 10.18C233.76 10.3 233.873 10.3933 233.94 10.46C234.033 10.5533 234.067 10.66 234.04 10.78C234.013 10.9 233.947 10.96 233.84 10.96H229.56V12.5H232.54C232.66 12.5 232.747 12.46 232.8 12.38C232.867 12.3 232.967 12.1733 233.1 12C233.247 11.8133 233.347 11.6933 233.4 11.64C233.493 11.5067 233.62 11.5 233.78 11.62C233.86 11.6733 233.98 11.7667 234.14 11.9C234.313 12.0333 234.48 12.1667 234.64 12.3C234.813 12.4333 234.927 12.5333 234.98 12.6C235.087 12.6933 235.127 12.8 235.1 12.92C235.073 13.04 235.007 13.1 234.9 13.1C234.847 13.1 234.727 13.1 234.54 13.1C234.367 13.1 234.14 13.1 233.86 13.1C233.407 13.1 232.867 13.1 232.24 13.1C231.627 13.0867 230.967 13.08 230.26 13.08C229.567 13.08 228.873 13.08 228.18 13.08C227.5 13.08 226.873 13.08 226.3 13.08C225.74 13.08 225.28 13.0867 224.92 13.1C224.56 13.1 224.353 13.1 224.3 13.1C224.3 13.1 224.173 13.1067 223.92 13.12C223.667 13.12 223.387 13.14 223.08 13.18ZM226.3 16.92H231.18V14.84H226.3V16.92ZM231.28 18.92C231.413 18.8133 231.6 18.64 231.84 18.4C232.08 18.16 232.313 17.9067 232.54 17.64C232.42 17.7067 232.267 17.7667 232.08 17.82C231.893 17.8733 231.713 17.9 231.54 17.9C231.3 17.9 231.18 17.7867 231.18 17.56V17.52H229.66V18.48C229.927 18.5333 230.193 18.6 230.46 18.68C230.74 18.7467 231.013 18.8267 231.28 18.92ZM244.22 24.44C244.14 24.4 244.093 24.34 244.08 24.26C244.067 24.18 244.087 24.1067 244.14 24.04C245.74 23.5467 247.12 22.9133 248.28 22.14C249.44 21.3667 250.407 20.42 251.18 19.3C250.713 18.5133 250.313 17.6333 249.98 16.66C249.66 15.6867 249.427 14.6 249.28 13.4C248.853 14.0533 248.4 14.68 247.92 15.28C247.44 15.8667 246.947 16.4067 246.44 16.9C246.24 16.9267 246.14 16.84 246.14 16.64C246.647 15.96 247.12 15.22 247.56 14.42C248 13.6067 248.393 12.7933 248.74 11.98C249.087 11.1533 249.38 10.38 249.62 9.66C249.86 8.92667 250.04 8.29333 250.16 7.76C250.28 7.21333 250.333 6.82 250.32 6.58C250.32 6.47333 250.333 6.40667 250.36 6.38C250.413 6.34 250.48 6.34 250.56 6.38C250.72 6.42 250.94 6.49333 251.22 6.6C251.513 6.70667 251.8 6.82 252.08 6.94C252.373 7.04667 252.593 7.14 252.74 7.22C252.873 7.28667 252.907 7.38667 252.84 7.52C252.8 7.64 252.72 7.69333 252.6 7.68C252.427 7.65333 252.287 7.67333 252.18 7.74C252.087 7.79333 252.007 7.91333 251.94 8.1C251.74 8.66 251.513 9.21333 251.26 9.76C251.02 10.2933 250.767 10.82 250.5 11.34H255.08C255.2 11.34 255.293 11.3 255.36 11.22C255.413 11.1533 255.493 11.06 255.6 10.94C255.707 10.8067 255.813 10.6733 255.92 10.54C256.04 10.4067 256.12 10.3133 256.16 10.26C256.267 10.14 256.4 10.1267 256.56 10.22C256.667 10.2867 256.813 10.4067 257 10.58C257.2 10.74 257.387 10.9 257.56 11.06C257.747 11.22 257.88 11.34 257.96 11.42C258.067 11.54 258.1 11.66 258.06 11.78C258.033 11.8867 257.96 11.94 257.84 11.94H255.4C255.2 13.4867 254.887 14.8867 254.46 16.14C254.047 17.38 253.507 18.48 252.84 19.44C253.56 20.16 254.38 20.76 255.3 21.24C256.233 21.72 257.24 22.0933 258.32 22.36C257.907 22.5333 257.52 22.7733 257.16 23.08C256.813 23.3867 256.553 23.7 256.38 24.02C255.553 23.6067 254.767 23.1133 254.02 22.54C253.273 21.9533 252.6 21.2733 252 20.5C250.2 22.4733 247.607 23.7867 244.22 24.44ZM241.42 22.42C241.3 22.4733 241.2 22.4533 241.12 22.36C241.027 22.2133 240.9 22.0067 240.74 21.74C240.58 21.46 240.42 21.18 240.26 20.9C240.113 20.62 240 20.4133 239.92 20.28C239.88 20.1867 239.88 20.12 239.92 20.08C239.973 20.0133 240.053 19.9867 240.16 20C240.307 20.0133 240.567 20 240.94 19.96C241.313 19.92 241.727 19.86 242.18 19.78C242.633 19.7 243.047 19.62 243.42 19.54V10.72C243.233 10.72 243.047 10.72 242.86 10.72C242.687 10.72 242.527 10.72 242.38 10.72C242.14 10.72 241.933 10.72 241.76 10.72C241.6 10.72 241.487 10.72 241.42 10.72C241.42 10.72 241.28 10.7267 241 10.74C240.72 10.74 240.413 10.7667 240.08 10.82L239.9 9.96C240.313 10.04 240.667 10.0867 240.96 10.1C241.267 10.1133 241.42 10.12 241.42 10.12H245.78C245.887 10.12 245.98 10.08 246.06 10C246.1 9.94667 246.173 9.86 246.28 9.74C246.4 9.62 246.513 9.5 246.62 9.38C246.74 9.24667 246.82 9.16 246.86 9.12C246.967 8.98667 247.093 8.97333 247.24 9.08C247.333 9.14667 247.46 9.25333 247.62 9.4C247.78 9.54667 247.94 9.7 248.1 9.86C248.26 10.0067 248.38 10.12 248.46 10.2C248.567 10.32 248.6 10.44 248.56 10.56C248.533 10.6667 248.453 10.72 248.32 10.72H244.94V19.22C245.567 19.0867 246.18 18.9533 246.78 18.82C247.38 18.6733 247.92 18.54 248.4 18.42C248.893 18.2867 249.287 18.18 249.58 18.1C249.767 18.1933 249.813 18.3267 249.72 18.5C249.4 18.6333 248.98 18.8067 248.46 19.02C247.94 19.2333 247.373 19.46 246.76 19.7C246.147 19.94 245.527 20.18 244.9 20.42C244.287 20.66 243.713 20.88 243.18 21.08C242.647 21.28 242.207 21.44 241.86 21.56C241.687 21.6133 241.58 21.68 241.54 21.76C241.5 21.84 241.507 21.9667 241.56 22.14C241.587 22.2733 241.54 22.3667 241.42 22.42ZM251.82 18.26C252.287 17.3933 252.673 16.44 252.98 15.4C253.287 14.3467 253.527 13.1933 253.7 11.94H250.18C250.113 12.0467 250.047 12.16 249.98 12.28C249.927 12.3867 249.867 12.4933 249.8 12.6C249.92 13.7467 250.153 14.7933 250.5 15.74C250.847 16.6733 251.287 17.5133 251.82 18.26ZM269.26 24.44C268.967 24.44 268.82 24.3133 268.82 24.06C268.82 23.98 268.827 23.7667 268.84 23.42C268.853 23.0733 268.867 22.66 268.88 22.18C268.907 21.6867 268.927 21.1867 268.94 20.68C268.953 20.16 268.96 19.6867 268.96 19.26C268.96 18.7133 268.947 18.2867 268.92 17.98C268.907 17.6733 268.88 17.44 268.84 17.28C268.547 17.4133 268.253 17.54 267.96 17.66C267.667 17.78 267.373 17.8933 267.08 18C267.107 18.7867 267.12 19.4467 267.12 19.98C267.133 20.5 267.14 20.78 267.14 20.82C267.14 20.94 267.02 21.06 266.78 21.18C266.553 21.3 266.307 21.36 266.04 21.36C265.773 21.36 265.64 21.2467 265.64 21.02V20.16H261.88V21.78C261.88 21.9 261.767 22.0133 261.54 22.12C261.313 22.2133 261.067 22.26 260.8 22.26C260.56 22.26 260.44 22.1467 260.44 21.92C260.44 21.8533 260.44 21.5933 260.44 21.14C260.453 20.6867 260.467 20.1067 260.48 19.4C260.493 18.68 260.507 17.8933 260.52 17.04C260.533 16.1867 260.54 15.3133 260.54 14.42C260.553 13.5267 260.56 12.68 260.56 11.88C260.56 10.76 260.54 9.94667 260.5 9.44C260.473 8.93333 260.427 8.59333 260.36 8.42C260.333 8.34 260.347 8.27333 260.4 8.22C260.453 8.16667 260.52 8.16 260.6 8.2C260.773 8.26667 261.013 8.38667 261.32 8.56C261.64 8.72 261.9 8.85333 262.1 8.96H265.26C265.38 8.96 265.467 8.92667 265.52 8.86C265.587 8.79333 265.667 8.70667 265.76 8.6C265.867 8.49333 265.953 8.4 266.02 8.32C266.087 8.25333 266.147 8.21333 266.2 8.2C266.267 8.18667 266.347 8.21333 266.44 8.28C266.587 8.37333 266.793 8.52 267.06 8.72C267.327 8.92 267.52 9.07333 267.64 9.18C267.733 9.26 267.773 9.34667 267.76 9.44C267.747 9.52 267.687 9.58667 267.58 9.64C267.5 9.66667 267.433 9.69333 267.38 9.72C267.327 9.74667 267.253 9.78 267.16 9.82C267.107 9.86 267.067 9.90667 267.04 9.96C267.013 10.0133 267 10.1067 267 10.24V11.36C267 11.9467 267 12.5933 267 13.3C267.013 14.0067 267.027 14.7267 267.04 15.46C267.053 16.1933 267.067 16.8867 267.08 17.54C267.853 17.14 268.667 16.6333 269.52 16.02C270.387 15.3933 271.2 14.64 271.96 13.76C271.627 13.32 271.327 12.8467 271.06 12.34C270.793 11.8333 270.58 11.28 270.42 10.68C270.007 11.3333 269.547 11.96 269.04 12.56C268.547 13.1467 268.027 13.6867 267.48 14.18C267.387 14.1933 267.313 14.1733 267.26 14.12C267.207 14.0533 267.18 13.98 267.18 13.9C267.673 13.3 268.12 12.6533 268.52 11.96C268.92 11.2667 269.26 10.58 269.54 9.9C269.833 9.20667 270.06 8.56667 270.22 7.98C270.38 7.39333 270.467 6.90667 270.48 6.52C270.48 6.44 270.5 6.39333 270.54 6.38C270.593 6.34 270.66 6.33333 270.74 6.36C270.873 6.41333 271.06 6.49333 271.3 6.6C271.553 6.69333 271.807 6.79333 272.06 6.9C272.313 7.00667 272.5 7.09333 272.62 7.16C272.727 7.21333 272.767 7.30667 272.74 7.44C272.673 7.56 272.587 7.61333 272.48 7.6C272.333 7.57333 272.207 7.58 272.1 7.62C272.007 7.66 271.927 7.76667 271.86 7.94C271.793 8.1 271.72 8.26667 271.64 8.44C271.56 8.6 271.48 8.76667 271.4 8.94H274.18C274.247 8.94 274.293 8.93333 274.32 8.92C274.36 8.90667 274.407 8.87333 274.46 8.82C274.473 8.80667 274.527 8.76 274.62 8.68C274.713 8.58667 274.807 8.5 274.9 8.42C274.993 8.32667 275.047 8.27333 275.06 8.26C275.167 8.15333 275.293 8.15333 275.44 8.26C275.547 8.31333 275.687 8.40667 275.86 8.54C276.033 8.67333 276.207 8.81333 276.38 8.96C276.567 9.09333 276.707 9.20667 276.8 9.3C276.92 9.40667 276.947 9.52667 276.88 9.66C276.827 9.78 276.72 9.84 276.56 9.84C276.36 9.85333 276.213 9.88667 276.12 9.94C276.027 9.98 275.933 10.0933 275.84 10.28C275.507 10.9733 275.14 11.6133 274.74 12.2C274.353 12.7867 273.947 13.3267 273.52 13.82C274.32 14.3533 275.173 14.7467 276.08 15C276.987 15.24 277.84 15.4 278.64 15.48C278.253 15.6667 277.907 15.9333 277.6 16.28C277.293 16.6133 277.08 16.9267 276.96 17.22C276.173 16.9133 275.42 16.5533 274.7 16.14C273.98 15.7133 273.327 15.2133 272.74 14.64C272.207 15.1467 271.647 15.6 271.06 16C270.473 16.4 269.88 16.7533 269.28 17.06C269.467 17.1267 269.693 17.22 269.96 17.34C270.227 17.46 270.447 17.56 270.62 17.64H274.2C274.293 17.64 274.367 17.6067 274.42 17.54L274.92 17C275.013 16.8933 275.133 16.88 275.28 16.96C275.44 17.0533 275.667 17.1933 275.96 17.38C276.253 17.5667 276.487 17.72 276.66 17.84C276.74 17.8933 276.773 17.9667 276.76 18.06C276.76 18.14 276.713 18.2067 276.62 18.26C276.567 18.3 276.5 18.34 276.42 18.38C276.353 18.42 276.287 18.4533 276.22 18.48C276.113 18.56 276.06 18.68 276.06 18.84C276.06 19.1733 276.067 19.5933 276.08 20.1C276.093 20.5933 276.107 21.1 276.12 21.62C276.147 22.14 276.167 22.5933 276.18 22.98C276.193 23.3667 276.2 23.6133 276.2 23.72C276.2 23.8667 276.067 24 275.8 24.12C275.547 24.24 275.267 24.3 274.96 24.3C274.68 24.3 274.54 24.1733 274.54 23.92V23.28H270.46V23.88C270.46 24.0133 270.333 24.14 270.08 24.26C269.84 24.38 269.567 24.44 269.26 24.44ZM270.46 22.68H274.54V18.24H270.46V22.68ZM272.54 13.02C272.913 12.5133 273.253 11.9733 273.56 11.4C273.88 10.8133 274.147 10.1933 274.36 9.54H271.08C271.027 9.63333 270.973 9.72667 270.92 9.82C270.88 9.91333 270.833 10.0067 270.78 10.1C270.967 10.7133 271.207 11.26 271.5 11.74C271.807 12.22 272.153 12.6467 272.54 13.02ZM264.36 19.56H265.64V14.82H264.36V19.56ZM264.36 14.22H265.64V9.58H264.36V14.22ZM261.88 19.56H263.08V14.82H261.88V19.56ZM261.88 14.22H263.08V9.58H261.88V14.22ZM288.76 24.46C288.48 24.46 288.34 24.34 288.34 24.1C288.34 24.02 288.347 23.7667 288.36 23.34C288.373 22.9267 288.387 22.4067 288.4 21.78C288.427 21.14 288.447 20.4533 288.46 19.72C288.473 18.9733 288.48 18.24 288.48 17.52C288.48 16.7733 288.46 16.2467 288.42 15.94C288.393 15.62 288.347 15.3933 288.28 15.26C288.253 15.18 288.267 15.1133 288.32 15.06C288.373 15.0067 288.447 15 288.54 15.04C288.647 15.08 288.813 15.16 289.04 15.28C289.267 15.4 289.5 15.5267 289.74 15.66C289.98 15.78 290.16 15.88 290.28 15.96H291.7V7.72C291.7 7.16 291.647 6.79333 291.54 6.62C291.5 6.55333 291.5 6.48 291.54 6.4C291.58 6.36 291.647 6.34 291.74 6.34C291.887 6.35333 292.1 6.38667 292.38 6.44C292.66 6.49333 292.94 6.54667 293.22 6.6C293.513 6.65333 293.733 6.7 293.88 6.74C294 6.78 294.06 6.87333 294.06 7.02C294.047 7.14 293.967 7.21333 293.82 7.24C293.687 7.25333 293.553 7.28667 293.42 7.34C293.3 7.38 293.24 7.49333 293.24 7.68V11.16H295.24C295.373 11.16 295.467 11.12 295.52 11.04C295.587 10.9467 295.713 10.7933 295.9 10.58C296.087 10.3667 296.213 10.22 296.28 10.14C296.387 10.02 296.513 10.0067 296.66 10.1C296.767 10.1667 296.907 10.2733 297.08 10.42C297.253 10.5667 297.42 10.72 297.58 10.88C297.753 11.0267 297.88 11.1467 297.96 11.24C298.067 11.36 298.1 11.48 298.06 11.6C298.033 11.7067 297.953 11.76 297.82 11.76H293.24V15.96H295.18C295.287 15.96 295.367 15.92 295.42 15.84C295.487 15.76 295.573 15.66 295.68 15.54C295.8 15.4067 295.887 15.3067 295.94 15.24C296.033 15.1067 296.16 15.0867 296.32 15.18C296.427 15.2333 296.573 15.3267 296.76 15.46C296.947 15.5933 297.133 15.7267 297.32 15.86C297.507 15.98 297.647 16.08 297.74 16.16C297.833 16.2133 297.873 16.2933 297.86 16.4C297.847 16.4933 297.78 16.5667 297.66 16.62C297.567 16.6733 297.48 16.72 297.4 16.76C297.32 16.7867 297.247 16.82 297.18 16.86C297.113 16.9 297.067 16.9467 297.04 17C297.013 17.0533 297 17.1533 297 17.3C297 18.0733 297.007 18.8267 297.02 19.56C297.047 20.28 297.067 20.9333 297.08 21.52C297.107 22.1067 297.127 22.5867 297.14 22.96C297.167 23.32 297.18 23.52 297.18 23.56C297.18 23.6933 297.047 23.82 296.78 23.94C296.513 24.0733 296.213 24.14 295.88 24.14C295.6 24.14 295.46 24.02 295.46 23.78V22.9H290.02V23.9C290.02 24.0333 289.9 24.16 289.66 24.28C289.433 24.4 289.133 24.46 288.76 24.46ZM290.02 22.3H295.46V16.56H290.02V22.3ZM281.32 23.64C281.187 23.72 281.08 23.7 281 23.58C280.947 23.4867 280.84 23.3133 280.68 23.06C280.52 22.8067 280.353 22.5467 280.18 22.28C280.02 22.0133 279.893 21.8133 279.8 21.68C279.76 21.6133 279.753 21.5533 279.78 21.5C279.82 21.4467 279.873 21.42 279.94 21.42C280.14 21.42 280.487 21.38 280.98 21.3C281.473 21.22 282.02 21.1133 282.62 20.98C283.233 20.8467 283.793 20.7133 284.3 20.58C284.553 19.9133 284.787 19.18 285 18.38C285.213 17.58 285.393 16.7933 285.54 16.02C285.7 15.2333 285.807 14.5467 285.86 13.96C285.927 13.36 285.933 12.94 285.88 12.7C285.84 12.4467 285.92 12.3467 286.12 12.4C286.24 12.4267 286.433 12.4867 286.7 12.58C286.98 12.66 287.26 12.74 287.54 12.82C287.833 12.9 288.047 12.96 288.18 13C288.313 13.0533 288.367 13.1533 288.34 13.3C288.313 13.46 288.233 13.5267 288.1 13.5C287.94 13.4867 287.813 13.5 287.72 13.54C287.64 13.58 287.58 13.6867 287.54 13.86C287.38 14.5133 287.153 15.2333 286.86 16.02C286.58 16.8067 286.273 17.5867 285.94 18.36C285.607 19.12 285.273 19.8067 284.94 20.42C285.607 20.2333 286.233 20.0533 286.82 19.88C287.407 19.7067 287.867 19.56 288.2 19.44C288.387 19.5067 288.447 19.6333 288.38 19.82C288.06 19.9933 287.607 20.22 287.02 20.5C286.433 20.7667 285.8 21.0533 285.12 21.36C284.453 21.6667 283.807 21.9533 283.18 22.22C282.567 22.4867 282.053 22.6933 281.64 22.84C281.48 22.8933 281.393 22.9533 281.38 23.02C281.367 23.1 281.387 23.2067 281.44 23.34C281.48 23.46 281.44 23.56 281.32 23.64ZM280.04 11.98L279.86 11.14C280.247 11.22 280.573 11.2667 280.84 11.28C281.12 11.2933 281.26 11.3 281.26 11.3H283.52V7.98C283.52 7.42 283.467 7.05333 283.36 6.88C283.307 6.8 283.307 6.72667 283.36 6.66C283.4 6.62 283.467 6.6 283.56 6.6C283.707 6.61333 283.913 6.64667 284.18 6.7C284.46 6.75333 284.74 6.80667 285.02 6.86C285.3 6.91333 285.513 6.96 285.66 7C285.793 7.04 285.847 7.13333 285.82 7.28C285.82 7.42667 285.747 7.5 285.6 7.5C285.453 7.51333 285.313 7.54667 285.18 7.6C285.06 7.64 285 7.75333 285 7.94V11.3H286.48C286.6 11.3 286.687 11.26 286.74 11.18C286.807 11.0867 286.927 10.9333 287.1 10.72C287.287 10.5067 287.413 10.36 287.48 10.28C287.573 10.1333 287.7 10.12 287.86 10.24C287.967 10.3067 288.1 10.4133 288.26 10.56C288.433 10.7067 288.6 10.86 288.76 11.02C288.92 11.1667 289.04 11.2867 289.12 11.38C289.227 11.5 289.26 11.62 289.22 11.74C289.193 11.8467 289.113 11.9 288.98 11.9C288.887 11.9 288.733 11.9 288.52 11.9C288.32 11.9 288.073 11.9 287.78 11.9C287.26 11.8867 286.66 11.88 285.98 11.88C285.313 11.88 284.647 11.88 283.98 11.88C283.327 11.88 282.747 11.88 282.24 11.88C281.747 11.88 281.42 11.8867 281.26 11.9C281.26 11.9 281.133 11.9067 280.88 11.92C280.627 11.92 280.347 11.94 280.04 11.98ZM282.98 20.22C282.82 20.26 282.673 20.24 282.54 20.16C282.42 20.0667 282.347 19.8933 282.32 19.64C282.28 19.04 282.187 18.36 282.04 17.6C281.893 16.8267 281.7 16.0533 281.46 15.28C281.22 14.5067 280.933 13.82 280.6 13.22C280.627 13.14 280.673 13.08 280.74 13.04C280.807 12.9867 280.873 12.9733 280.94 13C281.42 13.52 281.86 14.0933 282.26 14.72C282.673 15.3333 283.02 15.96 283.3 16.6C283.58 17.24 283.753 17.8467 283.82 18.42C283.887 18.9933 283.827 19.4267 283.64 19.72C283.467 20 283.247 20.1667 282.98 20.22Z" fill="#383838"/>
<path d="M10.3125 6.0625V24.1094C10.3125 24.2344 10.2656 24.3438 10.1719 24.4375C10.0781 24.5312 9.96875 24.5781 9.84375 24.5781C9.71875 24.5781 9.60938 24.5312 9.51562 24.4375C9.42188 24.3438 9.375 24.2344 9.375 24.1094V6.0625H1.40625C1.28125 6.0625 1.17188 6.01562 1.07812 5.92188C0.984375 5.82812 0.9375 5.71875 0.9375 5.59375C0.9375 5.46875 0.984375 5.35938 1.07812 5.26562C1.17188 5.17188 1.28125 5.125 1.40625 5.125H18.2344C18.3594 5.125 18.4688 5.17188 18.5625 5.26562C18.6562 5.35938 18.7031 5.46875 18.7031 5.59375C18.7031 5.71875 18.6562 5.82812 18.5625 5.92188C18.4688 6.01562 18.3594 6.0625 18.2344 6.0625H10.3125ZM33.0938 10.3516C32.9375 7.57031 31.3906 6.14063 28.4531 6.0625H21.5156V14.6406H28.5234C31.4141 14.4688 32.9375 13.0391 33.0938 10.3516ZM20.5781 5.82812C20.5781 5.64062 20.6484 5.47656 20.7891 5.33594C20.9297 5.19531 21.0938 5.125 21.2812 5.125H28.5938C32.0469 5.28125 33.8516 7.02344 34.0078 10.3516C33.8672 13.4141 32.3047 15.1328 29.3203 15.5078L34.3125 23.5234C34.4375 23.6953 34.5 23.8438 34.5 23.9688C34.5 24.125 34.4297 24.2578 34.2891 24.3672C34.2109 24.4141 34.1328 24.4375 34.0547 24.4375C33.8672 24.4375 33.6719 24.2969 33.4688 24.0156L28.3359 15.6953L28.2656 15.5781H21.5156V24.1094C21.5156 24.2344 21.4688 24.3438 21.375 24.4375C21.2812 24.5312 21.1719 24.5781 21.0469 24.5781C20.9219 24.5781 20.8125 24.5312 20.7188 24.4375C20.625 24.3438 20.5781 24.2344 20.5781 24.1094V5.82812ZM37.3359 6.08594V13.4453H44.8125C44.9375 13.4453 45.0469 13.4922 45.1406 13.5859C45.2344 13.6797 45.2812 13.7891 45.2812 13.9141C45.2812 14.0391 45.2344 14.1484 45.1406 14.2422C45.0469 14.3359 44.9375 14.3828 44.8125 14.3828H37.3359V23.2656H48.75C48.875 23.2656 48.9844 23.3125 49.0781 23.4062C49.1719 23.5 49.2188 23.6094 49.2188 23.7344C49.2188 23.8594 49.1719 23.9688 49.0781 24.0625C48.9844 24.1562 48.875 24.2031 48.75 24.2031H37.0781C36.9531 24.2031 36.8359 24.1719 36.7266 24.1094C36.6172 24.0469 36.5312 23.9609 36.4688 23.8516C36.4062 23.7422 36.375 23.625 36.375 23.5V5.85156C36.375 5.64844 36.4375 5.48438 36.5625 5.35938C36.7031 5.21875 36.875 5.14844 37.0781 5.14844H47.8594C47.9844 5.14844 48.0938 5.19531 48.1875 5.28906C48.2812 5.38281 48.3281 5.49219 48.3281 5.61719C48.3281 5.74219 48.2812 5.85156 48.1875 5.94531C48.0938 6.03906 47.9844 6.08594 47.8594 6.08594H37.3359ZM54.9375 17.5703L51.9844 24.5078C51.9375 24.6172 51.8516 24.6953 51.7266 24.7422C51.6641 24.7578 51.6016 24.7656 51.5391 24.7656C51.4922 24.7656 51.4375 24.7578 51.375 24.7422C51.2656 24.6953 51.1875 24.6094 51.1406 24.4844C51.1094 24.4219 51.0938 24.3594 51.0938 24.2969C51.0938 24.2344 51.1016 24.1797 51.1172 24.1328L59.0625 5.42969C59.125 5.24219 59.2188 5.125 59.3438 5.07812C59.4062 5.04687 59.4688 5.03125 59.5312 5.03125C59.5938 5.03125 59.6562 5.04687 59.7188 5.07812C59.8438 5.125 59.9375 5.24219 60 5.42969L67.9453 24.1328C67.9609 24.1797 67.9688 24.2344 67.9688 24.2969C67.9688 24.3594 67.9609 24.4219 67.9453 24.4844C67.8828 24.6094 67.7969 24.6953 67.6875 24.7422C67.6406 24.7578 67.5859 24.7656 67.5234 24.7656C67.4609 24.7656 67.3984 24.7578 67.3359 24.7422C67.2109 24.6953 67.125 24.6172 67.0781 24.5078L64.125 17.5703H54.9375ZM63.7266 16.6328L59.5312 6.74219L55.3359 16.6328H63.7266ZM76.3594 15.1562C74.6562 15.1562 73.1953 14.6719 71.9766 13.7031C70.7578 12.7344 70.1484 11.5469 70.1484 10.1406C70.1484 8.73438 70.7578 7.54688 71.9766 6.57812C73.1953 5.60937 74.6562 5.125 76.3594 5.125C78.0469 5.125 79.5 5.60937 80.7188 6.57812C81.9062 7.51562 82.5078 8.32031 82.5234 8.99219C82.5859 9.13281 82.6172 9.25781 82.6172 9.36719C82.6172 9.57031 82.5 9.69531 82.2656 9.74219C82.2031 9.75781 82.1484 9.76562 82.1016 9.76562C81.8359 9.76562 81.6719 9.60938 81.6094 9.29688C81.6094 8.75 81.1016 8.07812 80.0859 7.28125C79.0703 6.46875 77.8281 6.0625 76.3594 6.0625C74.875 6.0625 73.625 6.46875 72.6094 7.28125C71.5938 8.07812 71.0859 9.03125 71.0859 10.1406C71.0859 11.25 71.5938 12.2109 72.6094 13.0234C73.625 13.8203 74.875 14.2188 76.3594 14.2188H76.9922C78.8984 14.2188 80.5469 14.7188 81.9375 15.7188C83.3281 16.7031 84.0234 17.9297 84.0234 19.3984C84.0234 20.8672 83.3281 22.1016 81.9375 23.1016C80.5469 24.0859 78.8984 24.5781 76.9922 24.5781C75.0703 24.5781 73.4141 24.0781 72.0234 23.0781C70.7266 22.1562 70.0156 21.4531 69.8906 20.9688C69.8594 20.875 69.8438 20.7891 69.8438 20.7109C69.8438 20.4766 69.9609 20.3438 70.1953 20.3125H70.3359C70.5703 20.3125 70.7266 20.4141 70.8047 20.6172C70.8984 20.9766 71.5156 21.5625 72.6562 22.375C73.8281 23.2188 75.2734 23.6406 76.9922 23.6406C78.6953 23.6406 80.1328 23.2188 81.3047 22.375C82.4922 21.5312 83.0859 20.5391 83.0859 19.3984C83.0859 18.2578 82.4922 17.2656 81.3047 16.4219C80.1328 15.5781 78.6953 15.1562 76.9922 15.1562H76.3594ZM99.6094 5.26562V16.375C99.6094 18.9375 99.0547 20.8047 97.9453 21.9766C96.8672 23.5078 95.125 24.3281 92.7188 24.4375H92.6016C90.7422 24.4375 89.1016 23.6719 87.6797 22.1406C86.4922 20.9531 85.8984 19.0312 85.8984 16.375V5.26562C85.8984 5.14062 85.9453 5.03125 86.0391 4.9375C86.1328 4.84375 86.2422 4.79688 86.3672 4.79688C86.4922 4.79688 86.6016 4.84375 86.6953 4.9375C86.7891 5.03125 86.8359 5.14062 86.8359 5.26562V16.375C86.8359 18.5156 87.3984 20.2734 88.5234 21.6484C89.6797 22.8828 91.0781 23.5 92.7188 23.5C94.3594 23.5 95.7969 22.9062 97.0312 21.7188C98.125 20.4062 98.6719 18.625 98.6719 16.375V5.26562C98.6719 5.14062 98.7188 5.03125 98.8125 4.9375C98.9062 4.84375 99.0156 4.79688 99.1406 4.79688C99.2656 4.79688 99.375 4.84375 99.4688 4.9375C99.5625 5.03125 99.6094 5.14062 99.6094 5.26562ZM114 10.3516C113.844 7.57031 112.297 6.14063 109.359 6.0625H102.422V14.6406H109.43C112.32 14.4688 113.844 13.0391 114 10.3516ZM101.484 5.82812C101.484 5.64062 101.555 5.47656 101.695 5.33594C101.836 5.19531 102 5.125 102.188 5.125H109.5C112.953 5.28125 114.758 7.02344 114.914 10.3516C114.773 13.4141 113.211 15.1328 110.227 15.5078L115.219 23.5234C115.344 23.6953 115.406 23.8438 115.406 23.9688C115.406 24.125 115.336 24.2578 115.195 24.3672C115.117 24.4141 115.039 24.4375 114.961 24.4375C114.773 24.4375 114.578 24.2969 114.375 24.0156L109.242 15.6953L109.172 15.5781H102.422V24.1094C102.422 24.2344 102.375 24.3438 102.281 24.4375C102.188 24.5312 102.078 24.5781 101.953 24.5781C101.828 24.5781 101.719 24.5312 101.625 24.4375C101.531 24.3438 101.484 24.2344 101.484 24.1094V5.82812ZM118.242 6.08594V13.4453H125.719C125.844 13.4453 125.953 13.4922 126.047 13.5859C126.141 13.6797 126.188 13.7891 126.188 13.9141C126.188 14.0391 126.141 14.1484 126.047 14.2422C125.953 14.3359 125.844 14.3828 125.719 14.3828H118.242V23.2656H129.656C129.781 23.2656 129.891 23.3125 129.984 23.4062C130.078 23.5 130.125 23.6094 130.125 23.7344C130.125 23.8594 130.078 23.9688 129.984 24.0625C129.891 24.1562 129.781 24.2031 129.656 24.2031H117.984C117.859 24.2031 117.742 24.1719 117.633 24.1094C117.523 24.0469 117.438 23.9609 117.375 23.8516C117.312 23.7422 117.281 23.625 117.281 23.5V5.85156C117.281 5.64844 117.344 5.48438 117.469 5.35938C117.609 5.21875 117.781 5.14844 117.984 5.14844H128.766C128.891 5.14844 129 5.19531 129.094 5.28906C129.188 5.38281 129.234 5.49219 129.234 5.61719C129.234 5.74219 129.188 5.85156 129.094 5.94531C129 6.03906 128.891 6.08594 128.766 6.08594H118.242ZM158.812 24.1094C158.812 24.25 158.766 24.3672 158.672 24.4609C158.578 24.5391 158.469 24.5781 158.344 24.5781C158.219 24.5781 158.109 24.5391 158.016 24.4609C157.922 24.3672 157.875 24.25 157.875 24.1094V15.0156H144.938V24.1094C144.938 24.25 144.891 24.3672 144.797 24.4609C144.703 24.5391 144.594 24.5781 144.469 24.5781C144.344 24.5781 144.234 24.5391 144.141 24.4609C144.047 24.3672 144 24.25 144 24.1094V5.26562C144 5.14062 144.047 5.03125 144.141 4.9375C144.234 4.84375 144.344 4.79688 144.469 4.79688C144.594 4.79688 144.703 4.84375 144.797 4.9375C144.891 5.03125 144.938 5.14062 144.938 5.26562V14.0547H157.875V5.26562C157.875 5.14062 157.922 5.03125 158.016 4.9375C158.109 4.84375 158.219 4.79688 158.344 4.79688C158.469 4.79688 158.578 4.84375 158.672 4.9375C158.766 5.03125 158.812 5.14062 158.812 5.26562V24.1094ZM174.398 5.26562V16.375C174.398 18.9375 173.844 20.8047 172.734 21.9766C171.656 23.5078 169.914 24.3281 167.508 24.4375H167.391C165.531 24.4375 163.891 23.6719 162.469 22.1406C161.281 20.9531 160.688 19.0312 160.688 16.375V5.26562C160.688 5.14062 160.734 5.03125 160.828 4.9375C160.922 4.84375 161.031 4.79688 161.156 4.79688C161.281 4.79688 161.391 4.84375 161.484 4.9375C161.578 5.03125 161.625 5.14062 161.625 5.26562V16.375C161.625 18.5156 162.188 20.2734 163.312 21.6484C164.469 22.8828 165.867 23.5 167.508 23.5C169.148 23.5 170.586 22.9062 171.82 21.7188C172.914 20.4062 173.461 18.625 173.461 16.375V5.26562C173.461 5.14062 173.508 5.03125 173.602 4.9375C173.695 4.84375 173.805 4.79688 173.93 4.79688C174.055 4.79688 174.164 4.84375 174.258 4.9375C174.352 5.03125 174.398 5.14062 174.398 5.26562ZM177.211 14.2188V23.2891H183.727C186.477 23.1484 187.93 21.6719 188.086 18.8594C187.93 16.0156 186.602 14.4688 184.102 14.2188H177.211ZM183.586 13.2109C185.57 13.0547 186.633 11.8125 186.773 9.48438C186.633 7.26563 185.453 6.11719 183.234 6.03906H177.211V13.2109H183.586ZM185.695 13.5859C187.758 14.3516 188.859 16.1094 189 18.8594C188.828 22.2812 187.086 24.0859 183.773 24.2734H177.234C176.594 24.2734 176.273 23.9375 176.273 23.2656V6.0625C176.273 5.40625 176.594 5.07812 177.234 5.07812H183.234C186.047 5.17188 187.539 6.64062 187.711 9.48438C187.586 11.4688 186.914 12.8359 185.695 13.5859Z" fill="#383838"/>
</svg>
