<svg width="101" height="106" viewBox="0 0 101 106" fill="none" xmlns="http://www.w3.org/2000/svg">
<path d="M54.6242 34.0375C31.726 48.0694 19.2225 56.7595 -9.08449e-06 79.8326C4.98479 83.3984 6.48231 85.4846 7.70156 89.3029C21.3487 68.3793 33.1521 56.0634 54.6242 34.0375Z" fill="#ABDAD5"/>
<path d="M56.1644 33.882C41.0535 56.0829 33.2245 69.1429 25.1795 98.0765C31.1892 99.2793 33.4116 100.566 36.092 103.546C39.9372 78.8631 45.6381 62.785 56.1644 33.882Z" fill="#ABDAD5"/>
<rect x="8.99902" y="40.5677" width="32" height="7" transform="rotate(-20.5138 8.99902 40.5677)" fill="#004B97"/>
<rect x="19.5309" y="43.0333" width="7" height="25" transform="rotate(-20.5138 19.5309 43.0333)" fill="#004B97"/>
<rect x="36.9567" y="61.0705" width="11" height="6" transform="rotate(-20.5138 36.9567 61.0705)" fill="#004B97"/>
<rect x="38.0017" y="72.4242" width="15" height="5" transform="rotate(-20.5138 38.0017 72.4242)" fill="#004B97"/>
<rect x="37.4093" y="82.2553" width="15" height="5" transform="rotate(-20.5138 37.4093 82.2553)" fill="#004B97"/>
<rect x="46.431" y="69.2703" width="7" height="14" transform="rotate(-20.5138 46.431 69.2703)" fill="#004B97"/>
<rect x="34.147" y="62.1218" width="7" height="14" transform="rotate(-20.5138 34.147 62.1218)" fill="#004B97"/>
<rect x="43.5317" y="32.9854" width="7" height="58" transform="rotate(-20.5138 43.5317 32.9854)" fill="#004B97"/>
<rect x="59.1991" y="54.8837" width="16" height="7" transform="rotate(-20.5138 59.1991 54.8837)" fill="#004B97"/>
<rect x="64.8312" y="35.6931" width="7" height="32" transform="rotate(-20.5138 64.8312 35.6931)" fill="#004B97"/>
<path d="M64.628 0.34549C64.7777 -0.115165 65.4294 -0.115164 65.5791 0.345491L69.2571 11.6652C69.324 11.8712 69.516 12.0106 69.7326 12.0106H81.6348C82.1192 12.0106 82.3206 12.6305 81.9287 12.9152L72.2996 19.9111C72.1244 20.0384 72.0511 20.2641 72.118 20.4701L75.796 31.7898C75.9456 32.2504 75.4184 32.6335 75.0265 32.3488L65.3975 25.3528C65.2222 25.2255 64.9849 25.2255 64.8097 25.3528L55.1806 32.3488C54.7887 32.6335 54.2615 32.2504 54.4112 31.7898L58.0892 20.4701C58.1561 20.2641 58.0828 20.0384 57.9075 19.9111L48.2785 12.9152C47.8866 12.6305 48.088 12.0106 48.5723 12.0106H60.4745C60.6912 12.0106 60.8831 11.8712 60.9501 11.6652L64.628 0.34549Z" fill="#F3E3B5"/>
</svg>
