<svg width="29" height="27" viewBox="0 0 29 27" fill="none" xmlns="http://www.w3.org/2000/svg">
<g clip-path="url(#clip0_894_1211)">
<ellipse cx="13.6875" cy="13.5" rx="12.6875" ry="13.5" fill="url(#paint0_linear_894_1211)" fill-opacity="0.7"/>
<g clip-path="url(#clip1_894_1211)">
<rect width="29" height="18.3214" transform="translate(-1.5)" fill="white"/>
<path d="M13.44 11.9L10.0279 7.39999H16.8521L13.44 11.9Z" fill="#E2C9C9"/>
<ellipse cx="11.595" cy="6.04999" rx="2.055" ry="2" fill="#E2C9C9"/>
<ellipse cx="15.41" cy="6" rx="2.05" ry="2" fill="#E2C9C9"/>
<ellipse cx="13.43" cy="7.89999" rx="2.05" ry="2" fill="#E2C9C9"/>
<ellipse cx="7.5" cy="17" rx="5" ry="8" fill="#004B97" fill-opacity="0.4"/>
<ellipse cx="19.5" cy="17" rx="5" ry="8" fill="#004B97" fill-opacity="0.6"/>
<ellipse cx="6.00761" cy="16.4459" rx="5.4404" ry="6.7773" transform="rotate(147.638 6.00761 16.4459)" fill="white"/>
<ellipse cx="21.5757" cy="16.5187" rx="6.34642" ry="6.06341" transform="rotate(165.708 21.5757 16.5187)" fill="white"/>
<ellipse cx="7" cy="17.5" rx="2.5" ry="3.5" fill="#004B97" fill-opacity="0.7"/>
<ellipse cx="20" cy="17.5" rx="2.5" ry="3.5" fill="#004B97" fill-opacity="0.5"/>
<ellipse cx="6" cy="17.5" rx="2.5" ry="3.5" fill="white"/>
<ellipse cx="21" cy="17.5" rx="2.5" ry="3.5" fill="white"/>
</g>
<ellipse cx="9.96875" cy="22.1786" rx="0.90625" ry="0.964286" fill="white"/>
<ellipse cx="17.2188" cy="22.1786" rx="0.90625" ry="0.964286" fill="white"/>
<ellipse cx="13.5938" cy="22.1786" rx="0.90625" ry="0.964286" fill="white"/>
</g>
<defs>
<linearGradient id="paint0_linear_894_1211" x1="13.6875" y1="27" x2="13.6875" y2="0" gradientUnits="userSpaceOnUse">
<stop stop-color="#24B685" stop-opacity="0.6"/>
<stop offset="0.293269" stop-color="#004B97" stop-opacity="0.7"/>
</linearGradient>
<clipPath id="clip0_894_1211">
<rect width="29" height="27" fill="white"/>
</clipPath>
<clipPath id="clip1_894_1211">
<rect width="29" height="18.3214" fill="white" transform="translate(-1.5)"/>
</clipPath>
</defs>
</svg>
