<svg width="100" height="100" viewBox="0 0 100 100" fill="none" xmlns="http://www.w3.org/2000/svg">
<path d="M65.5 26.5L69 26L79.5 31L80 34.5L48.5 83L45 84L32 77V74.5L65.5 26.5Z" fill="#E9F4FF"/>
<circle cx="50" cy="50" r="50" fill="#FBFBFB"/>
<path d="M49 16H53L63 24.5L63.5 27.5L31 73.5L30.5 75.5H26.5L14 66V61L49 16Z" fill="#004B97" fill-opacity="0.7"/>
<path d="M50 14.5L53.5 14L53 16H49L50 14.5Z" fill="#719AC5"/>
<path d="M53.5 14L64.5 23L63 24.5L53 16L53.5 14Z" fill="#719AC5"/>
<path d="M63 24.5L64.5 23L65 26L63.5 27.5L63 24.5Z" fill="#719AC5"/>
<path d="M31.5 73L65 25.5L65.5 26.5L32 74L31.5 73Z" fill="#719AC5"/>
<path d="M65 25.5L69 24.5V26L65.5 26.5L65 25.5Z" fill="#719AC5"/>
<path d="M69 24.5L80.5 30L81 32L69 26V24.5Z" fill="#719AC5"/>
<path d="M79.5 31L81 32L81.5 33.5L80 35L79.5 31Z" fill="#719AC5"/>
<path d="M49 83L81.5 33.5V36.5L49.5 85L49 83Z" fill="#719AC5"/>
<path d="M45 84L49 82.5L49.5 85L45 86.5V84Z" fill="#719AC5"/>
<path d="M31.5 76.5L45.5 84V86.5L32.5 79.5L31.5 76.5Z" fill="#719AC5"/>
<path d="M31.5 73L32 74V77L31.5 76.5L30.5 75.5L31 73.5L31.5 73Z" fill="#719AC5"/>
<path d="M74.5 29.5L76.5 30L45.5 84L44 83L74.5 29.5Z" fill="#FFEA83"/>
<path d="M76.5 30.5L78.5 32L47.5 82.5L46 83.5L76.5 30.5Z" fill="#FFEA83"/>
<path d="M65 32.5C66.5751 32.5299 67.4664 32.5248 68.5 34C58.8691 47.8379 47.7378 63.877 48 66L45.5 65L65 32.5Z" fill="#ABDAD5"/>
<path d="M50.5 70.5C50.5 74.0899 46.366 77.5 42.5 77.5C38.634 77.5 35.5 74.5899 35.5 71C35.5 67.4101 39.134 64 43 64C46.866 64 50.5 66.9101 50.5 70.5Z" fill="#ABDAD5"/>
</svg>
