<svg width="100" height="100" viewBox="0 0 100 100" fill="none" xmlns="http://www.w3.org/2000/svg">
<circle cx="50" cy="50" r="50" fill="#FBFBFB"/>
<rect x="25" y="21" width="50" height="60" rx="1" fill="#004B97" fill-opacity="0.7"/>
<rect x="49" y="21" width="18" height="60" fill="#F6F7F0"/>
<path d="M55.185 36.936C55.107 36.702 55.0203 36.5243 54.925 36.403C54.8383 36.2817 54.717 36.1863 54.561 36.117C54.4137 36.0563 54.2057 36.0043 53.937 35.961C53.9023 35.9177 53.8893 35.87 53.898 35.818C53.9153 35.766 53.9457 35.727 53.989 35.701C54.171 35.7097 54.3833 35.727 54.626 35.753C54.8773 35.7703 55.0983 35.779 55.289 35.779C55.4277 35.779 55.5187 35.7573 55.562 35.714C55.6053 35.662 55.627 35.5753 55.627 35.454V34.128C55.263 34.2407 54.925 34.3447 54.613 34.44C54.3097 34.5353 54.0583 34.609 53.859 34.661C53.7463 34.687 53.677 34.7303 53.651 34.791C53.6337 34.8517 53.638 34.9383 53.664 35.051C53.69 35.1377 53.6597 35.194 53.573 35.22C53.5037 35.2633 53.443 35.246 53.391 35.168C53.339 35.0727 53.2697 34.9557 53.183 34.817C53.105 34.6783 53.027 34.5353 52.949 34.388C52.871 34.2407 52.8017 34.1237 52.741 34.037C52.7063 33.9937 52.702 33.9503 52.728 33.907C52.754 33.8723 52.832 33.8637 52.962 33.881C53.014 33.881 53.0703 33.8853 53.131 33.894C53.1917 33.9027 53.261 33.9027 53.339 33.894C53.5557 33.8767 53.872 33.8333 54.288 33.764C54.704 33.686 55.1503 33.595 55.627 33.491V32.841C55.627 32.529 55.5967 32.3253 55.536 32.23C55.5013 32.178 55.5013 32.1347 55.536 32.1C55.5707 32.0653 55.614 32.0523 55.666 32.061C55.7267 32.0697 55.796 32.087 55.874 32.113C55.9607 32.1303 56.0473 32.1477 56.134 32.165C56.2293 32.0523 56.3507 31.9093 56.498 31.736C56.654 31.554 56.7883 31.3937 56.901 31.255H55.549C55.1243 31.671 54.6693 32.0567 54.184 32.412C53.7073 32.7673 53.196 33.1053 52.65 33.426C52.5893 33.4087 52.546 33.3783 52.52 33.335C52.5027 33.2917 52.4983 33.2483 52.507 33.205C53.3043 32.659 54.0713 32.009 54.808 31.255H53.989C53.989 31.255 53.9153 31.2593 53.768 31.268C53.6293 31.268 53.4733 31.2853 53.3 31.32L53.196 30.748C53.4127 30.8087 53.599 30.8433 53.755 30.852C53.911 30.8607 53.989 30.865 53.989 30.865H55.172C55.328 30.683 55.484 30.4967 55.64 30.306C55.796 30.1153 55.9477 29.9203 56.095 29.721H53.521C53.521 29.721 53.4473 29.7253 53.3 29.734C53.1613 29.734 53.001 29.7513 52.819 29.786L52.715 29.214C52.9317 29.2747 53.118 29.3093 53.274 29.318C53.43 29.3267 53.508 29.331 53.508 29.331H55.211V27.641H53.989C53.989 27.641 53.9153 27.6453 53.768 27.654C53.6293 27.654 53.4733 27.6757 53.3 27.719L53.196 27.147C53.4127 27.199 53.599 27.2293 53.755 27.238C53.911 27.2467 53.989 27.251 53.989 27.251H55.211V25.964C55.211 25.6433 55.1807 25.4397 55.12 25.353C55.0853 25.301 55.0853 25.2533 55.12 25.21C55.1633 25.184 55.2067 25.1753 55.25 25.184C55.3887 25.21 55.5837 25.249 55.835 25.301C56.0863 25.353 56.2857 25.4007 56.433 25.444C56.5023 25.47 56.537 25.522 56.537 25.6C56.5283 25.678 56.4807 25.7257 56.394 25.743C56.2987 25.7517 56.2033 25.769 56.108 25.795C56.0213 25.821 55.978 25.899 55.978 26.029V27.251H56.55C56.6107 27.251 56.6583 27.2337 56.693 27.199C56.7363 27.147 56.784 27.095 56.836 27.043C56.8967 26.9823 56.9487 26.9303 56.992 26.887C57.0353 26.8437 57.07 26.822 57.096 26.822C57.122 26.822 57.161 26.8437 57.213 26.887C57.265 26.9217 57.3213 26.965 57.382 27.017C57.4513 27.069 57.5163 27.121 57.577 27.173C57.6463 27.0257 57.7113 26.8783 57.772 26.731C57.8413 26.575 57.9063 26.419 57.967 26.263C58.019 26.133 58.045 26.0247 58.045 25.938C58.0537 25.8427 58.058 25.7647 58.058 25.704C58.058 25.6087 58.071 25.5523 58.097 25.535C58.1403 25.5177 58.188 25.522 58.24 25.548C58.318 25.6 58.422 25.6693 58.552 25.756C58.6907 25.834 58.825 25.9163 58.955 26.003C59.0937 26.081 59.202 26.146 59.28 26.198C59.3407 26.2327 59.358 26.2933 59.332 26.38C59.2973 26.4493 59.2367 26.4753 59.15 26.458C59.0287 26.432 58.9333 26.432 58.864 26.458C58.8033 26.4753 58.747 26.5403 58.695 26.653C58.2183 27.6497 57.707 28.5423 57.161 29.331H57.616C57.668 29.331 57.7157 29.3093 57.759 29.266C57.8023 29.214 57.8673 29.1403 57.954 29.045C58.0493 28.941 58.1143 28.8717 58.149 28.837C58.227 28.7503 58.3093 28.746 58.396 28.824C58.4827 28.8847 58.5867 28.9757 58.708 29.097C58.8293 29.2097 58.9333 29.305 59.02 29.383C59.0893 29.4523 59.111 29.526 59.085 29.604C59.0677 29.682 59.0243 29.721 58.955 29.721H56.875C56.5717 30.1283 56.2553 30.5097 55.926 30.865H56.823C56.875 30.865 56.927 30.8477 56.979 30.813C57.0657 30.7263 57.1307 30.6613 57.174 30.618C57.2173 30.5747 57.2737 30.5227 57.343 30.462C57.4297 30.384 57.5163 30.3883 57.603 30.475C57.6983 30.553 57.8197 30.6657 57.967 30.813C58.123 30.9517 58.2487 31.073 58.344 31.177C58.4133 31.2463 58.4133 31.32 58.344 31.398C58.292 31.4587 58.2227 31.4803 58.136 31.463C57.98 31.4283 57.863 31.4153 57.785 31.424C57.7157 31.424 57.616 31.4717 57.486 31.567C57.3733 31.645 57.2217 31.7533 57.031 31.892C56.849 32.022 56.68 32.1433 56.524 32.256C56.6367 32.282 56.745 32.308 56.849 32.334C56.9183 32.36 56.953 32.412 56.953 32.49C56.9443 32.568 56.8967 32.6157 56.81 32.633C56.7147 32.6417 56.6193 32.659 56.524 32.685C56.4373 32.711 56.394 32.789 56.394 32.919V33.322C56.7927 33.2267 57.1697 33.1357 57.525 33.049C57.889 32.9623 58.2097 32.8843 58.487 32.815C58.7643 32.737 58.968 32.6807 59.098 32.646C59.1413 32.6633 59.1717 32.698 59.189 32.75C59.2063 32.802 59.202 32.854 59.176 32.906C59.0373 32.9667 58.8207 33.049 58.526 33.153C58.24 33.257 57.9107 33.374 57.538 33.504C57.1653 33.6253 56.784 33.751 56.394 33.881V35.597C56.394 35.9437 56.3073 36.2253 56.134 36.442C55.9607 36.6587 55.6443 36.8233 55.185 36.936ZM56.732 36.806C56.628 36.7453 56.6063 36.6587 56.667 36.546C57.577 36.26 58.3613 35.8787 59.02 35.402C59.6873 34.9253 60.2463 34.3577 60.697 33.699C60.4543 33.231 60.242 32.7153 60.06 32.152C59.8867 31.58 59.7523 30.9387 59.657 30.228C59.4577 30.6267 59.2497 31.008 59.033 31.372C58.825 31.7273 58.617 32.0393 58.409 32.308C58.279 32.334 58.2053 32.2863 58.188 32.165C58.4133 31.775 58.6387 31.3113 58.864 30.774C59.098 30.228 59.3147 29.656 59.514 29.058C59.7133 28.46 59.878 27.875 60.008 27.303C60.1467 26.731 60.2333 26.2197 60.268 25.769C60.2767 25.6737 60.2723 25.5957 60.255 25.535C60.2463 25.4657 60.2377 25.4093 60.229 25.366C60.2117 25.2793 60.216 25.2273 60.242 25.21C60.2593 25.1753 60.3027 25.1667 60.372 25.184C60.4673 25.21 60.593 25.2533 60.749 25.314C60.9137 25.3747 61.074 25.4353 61.23 25.496C61.3947 25.548 61.5203 25.5957 61.607 25.639C61.685 25.665 61.711 25.7213 61.685 25.808C61.659 25.8947 61.6027 25.9293 61.516 25.912C61.4033 25.8947 61.321 25.9033 61.269 25.938C61.217 25.9727 61.178 26.0507 61.152 26.172C60.97 26.9433 60.697 27.7797 60.333 28.681H62.608C62.66 28.681 62.7033 28.6637 62.738 28.629C62.764 28.603 62.8203 28.5467 62.907 28.46C62.9937 28.3647 63.0803 28.2737 63.167 28.187C63.2537 28.1003 63.31 28.044 63.336 28.018C63.414 27.9487 63.492 27.9487 63.57 28.018C63.6133 28.0527 63.6913 28.122 63.804 28.226C63.9167 28.3213 64.0337 28.421 64.155 28.525C64.2763 28.6203 64.3543 28.6897 64.389 28.733C64.467 28.811 64.493 28.889 64.467 28.967C64.4497 29.0363 64.402 29.071 64.324 29.071H63.076C62.9113 30.9517 62.4087 32.5117 61.568 33.751C61.9753 34.2363 62.4433 34.6393 62.972 34.96C63.5007 35.2807 64.0683 35.545 64.675 35.753C64.389 35.8397 64.142 35.9653 63.934 36.13C63.7347 36.3033 63.583 36.4637 63.479 36.611C63.0023 36.299 62.5647 35.961 62.166 35.597C61.776 35.2243 61.4207 34.8127 61.1 34.362C60.0513 35.6013 58.5953 36.416 56.732 36.806ZM61.087 33.075C61.6937 31.9657 62.062 30.631 62.192 29.071H60.177C60.1423 29.1577 60.1077 29.24 60.073 29.318C60.0383 29.396 60.0037 29.474 59.969 29.552C60.047 30.2887 60.1813 30.9473 60.372 31.528C60.5627 32.1087 60.801 32.6243 61.087 33.075ZM55.978 29.331H56.368C56.7233 28.811 57.0527 28.2477 57.356 27.641H55.978V29.331ZM55.211 55.936C55.029 55.936 54.938 55.8623 54.938 55.715C54.938 55.6717 54.9423 55.507 54.951 55.221C54.9597 54.935 54.9727 54.5667 54.99 54.116C55.0073 53.6567 55.0203 53.1497 55.029 52.595C55.0377 52.0403 55.042 51.4813 55.042 50.918V50.086C54.7387 50.8487 54.3877 51.5767 53.989 52.27C53.5903 52.9547 53.183 53.544 52.767 54.038C52.6457 54.064 52.5677 54.0163 52.533 53.895C52.949 53.2277 53.3737 52.4087 53.807 51.438C54.2403 50.4587 54.6 49.3927 54.886 48.24H53.547C53.547 48.24 53.4733 48.2443 53.326 48.253C53.1873 48.253 53.0313 48.2703 52.858 48.305L52.754 47.733C52.9707 47.7937 53.157 47.8283 53.313 47.837C53.469 47.8457 53.547 47.85 53.547 47.85H55.042V45.77C54.6173 45.8827 54.21 45.9823 53.82 46.069C53.43 46.147 53.105 46.2077 52.845 46.251C52.793 46.2163 52.7583 46.173 52.741 46.121C52.7323 46.069 52.7453 46.0257 52.78 45.991C53.0313 45.9217 53.3217 45.8393 53.651 45.744C53.9803 45.64 54.3183 45.5273 54.665 45.406C55.0203 45.276 55.3583 45.1417 55.679 45.003C55.9997 44.8557 56.2683 44.7127 56.485 44.574C56.5977 44.5047 56.6713 44.4267 56.706 44.34C56.7407 44.2533 56.7753 44.2013 56.81 44.184C56.8447 44.1753 56.888 44.184 56.94 44.21C57.0527 44.288 57.2087 44.4007 57.408 44.548C57.616 44.6953 57.7763 44.8167 57.889 44.912C57.941 44.964 57.954 45.029 57.928 45.107C57.876 45.1763 57.8153 45.198 57.746 45.172C57.7373 45.172 57.7287 45.1677 57.72 45.159C57.642 45.133 57.5683 45.1157 57.499 45.107C57.4383 45.0897 57.356 45.0983 57.252 45.133C57.0353 45.211 56.8013 45.289 56.55 45.367C56.2987 45.4363 56.043 45.5057 55.783 45.575V47.85H56.628C56.68 47.85 56.7277 47.8283 56.771 47.785C56.8143 47.7417 56.8967 47.6507 57.018 47.512C57.1393 47.3733 57.2217 47.278 57.265 47.226C57.3343 47.1567 57.4123 47.1523 57.499 47.213C57.5857 47.2737 57.7113 47.382 57.876 47.538C58.0407 47.6853 58.162 47.8023 58.24 47.889C58.318 47.967 58.344 48.045 58.318 48.123C58.3007 48.201 58.2487 48.24 58.162 48.24H55.783V49.579C55.9823 49.6223 56.1947 49.683 56.42 49.761C56.654 49.839 56.875 49.9387 57.083 50.06C57.2997 50.1727 57.473 50.3113 57.603 50.476C57.7677 50.684 57.8327 50.9007 57.798 51.126C57.772 51.3513 57.6983 51.503 57.577 51.581C57.5077 51.6243 57.434 51.6417 57.356 51.633C57.2867 51.6243 57.2173 51.555 57.148 51.425C56.9833 51.1303 56.784 50.853 56.55 50.593C56.3247 50.333 56.069 50.1077 55.783 49.917V50.918C55.783 51.4813 55.7873 52.036 55.796 52.582C55.8047 53.1193 55.8133 53.609 55.822 54.051C55.8393 54.493 55.8523 54.8527 55.861 55.13C55.8697 55.416 55.874 55.585 55.874 55.637C55.874 55.6977 55.796 55.7627 55.64 55.832C55.4927 55.9013 55.3497 55.936 55.211 55.936ZM61.685 55.936C61.503 55.936 61.412 55.8623 61.412 55.715C61.412 55.6803 61.4163 55.5373 61.425 55.286C61.4337 55.0433 61.4423 54.7313 61.451 54.35C61.4597 53.96 61.4683 53.531 61.477 53.063C61.4857 52.5863 61.49 52.1053 61.49 51.62L57.018 52.66C57.018 52.66 56.9487 52.6817 56.81 52.725C56.68 52.7597 56.5283 52.8117 56.355 52.881L56.121 52.361C56.3463 52.361 56.537 52.348 56.693 52.322C56.849 52.296 56.927 52.283 56.927 52.283L61.49 51.217V44.964C61.49 44.6607 61.4597 44.457 61.399 44.353C61.3643 44.301 61.3643 44.2533 61.399 44.21C61.425 44.184 61.4683 44.1753 61.529 44.184C61.6243 44.2013 61.75 44.2273 61.906 44.262C62.062 44.2967 62.218 44.3313 62.374 44.366C62.53 44.4007 62.6557 44.431 62.751 44.457C62.8377 44.483 62.8723 44.535 62.855 44.613C62.8463 44.6997 62.7987 44.743 62.712 44.743C62.6253 44.7517 62.5343 44.7733 62.439 44.808C62.3437 44.834 62.296 44.912 62.296 45.042V51.035L62.79 50.918C62.842 50.9093 62.8853 50.879 62.92 50.827C62.9373 50.7923 62.9677 50.7317 63.011 50.645C63.063 50.5497 63.115 50.4543 63.167 50.359C63.219 50.2637 63.2537 50.203 63.271 50.177C63.3317 50.099 63.4053 50.0773 63.492 50.112C63.5527 50.138 63.6437 50.1857 63.765 50.255C63.8863 50.3157 64.0077 50.3807 64.129 50.45C64.2503 50.5107 64.3327 50.5583 64.376 50.593C64.4713 50.6537 64.5147 50.7273 64.506 50.814C64.506 50.892 64.4627 50.9397 64.376 50.957L62.296 51.438C62.296 51.906 62.3003 52.374 62.309 52.842C62.3263 53.31 62.3393 53.7433 62.348 54.142C62.3567 54.532 62.3653 54.857 62.374 55.117C62.3827 55.377 62.387 55.533 62.387 55.585C62.387 55.663 62.3177 55.741 62.179 55.819C62.0403 55.897 61.8757 55.936 61.685 55.936ZM60.151 50.905C60.0817 50.957 60.0037 50.9787 59.917 50.97C59.839 50.9527 59.7567 50.8703 59.67 50.723C59.4793 50.3937 59.2583 50.086 59.007 49.8C58.7643 49.514 58.4393 49.241 58.032 48.981C57.9887 48.851 58.0277 48.7687 58.149 48.734C58.6083 48.864 59.0113 49.0113 59.358 49.176C59.7047 49.332 59.982 49.54 60.19 49.8C60.346 49.9907 60.4067 50.203 60.372 50.437C60.346 50.671 60.2723 50.827 60.151 50.905ZM60.112 47.564C60.0427 47.6247 59.9647 47.6507 59.878 47.642C59.7913 47.6333 59.7133 47.5727 59.644 47.46C59.5227 47.2693 59.358 47.0743 59.15 46.875C58.9507 46.667 58.734 46.472 58.5 46.29C58.266 46.108 58.032 45.965 57.798 45.861C57.772 45.8177 57.7677 45.77 57.785 45.718C57.8023 45.666 57.8327 45.6313 57.876 45.614C58.3093 45.6747 58.721 45.7787 59.111 45.926C59.5097 46.0647 59.8217 46.2467 60.047 46.472C60.229 46.6627 60.3157 46.8663 60.307 47.083C60.2983 47.2997 60.2333 47.46 60.112 47.564ZM52.728 70.087L52.624 69.528C52.8407 69.58 53.027 69.6103 53.183 69.619C53.339 69.6277 53.417 69.632 53.417 69.632H58.071V68.67H54.496C54.496 68.67 54.4223 68.6743 54.275 68.683C54.1363 68.683 53.9803 68.7003 53.807 68.735L53.69 68.176C53.9067 68.228 54.093 68.2583 54.249 68.267C54.4137 68.2757 54.496 68.28 54.496 68.28H58.071V67.318H55.094C55.094 67.318 55.0203 67.3223 54.873 67.331C54.7343 67.331 54.5783 67.3483 54.405 67.383L54.301 66.811C54.5177 66.863 54.704 66.8933 54.86 66.902C55.016 66.9107 55.094 66.915 55.094 66.915H58.071V65.966H53.417C53.417 65.966 53.3433 65.9703 53.196 65.979C53.0573 65.979 52.9013 65.9963 52.728 66.031L52.624 65.459C52.8407 65.511 53.027 65.5413 53.183 65.55C53.339 65.5587 53.417 65.563 53.417 65.563H58.071V64.601H55.094C55.094 64.601 55.0203 64.6053 54.873 64.614C54.7343 64.614 54.5783 64.6313 54.405 64.666L54.301 64.107C54.5177 64.159 54.704 64.1893 54.86 64.198C55.016 64.2067 55.094 64.211 55.094 64.211H58.071V63.964C58.071 63.6607 58.0407 63.457 57.98 63.353C57.9453 63.301 57.9453 63.2533 57.98 63.21C57.9973 63.1753 58.0407 63.1667 58.11 63.184C58.2053 63.2013 58.331 63.2273 58.487 63.262C58.643 63.2967 58.799 63.3313 58.955 63.366C59.1197 63.4007 59.254 63.431 59.358 63.457C59.4447 63.483 59.4793 63.5393 59.462 63.626C59.462 63.7127 59.4143 63.756 59.319 63.756C59.2323 63.7647 59.1413 63.7863 59.046 63.821C58.9593 63.847 58.916 63.925 58.916 64.055V64.211H60.697C60.7577 64.211 60.8053 64.1937 60.84 64.159C60.8833 64.1157 60.9397 64.0463 61.009 63.951C61.087 63.8557 61.1433 63.782 61.178 63.73C61.2213 63.6867 61.256 63.665 61.282 63.665C61.3167 63.665 61.3643 63.6823 61.425 63.717C61.4857 63.7517 61.568 63.808 61.672 63.886C61.7847 63.9553 61.8973 64.0333 62.01 64.12C62.1227 64.198 62.205 64.263 62.257 64.315C62.361 64.4103 62.3393 64.497 62.192 64.575C62.1313 64.6097 62.0707 64.6443 62.01 64.679C61.958 64.7137 61.906 64.7483 61.854 64.783C61.7847 64.8177 61.75 64.8783 61.75 64.965C61.75 65.0517 61.75 65.147 61.75 65.251C61.75 65.355 61.7543 65.459 61.763 65.563H62.504C62.5647 65.563 62.6123 65.5457 62.647 65.511C62.673 65.485 62.7293 65.4287 62.816 65.342C62.9027 65.2553 62.9893 65.1687 63.076 65.082C63.1627 64.9953 63.2147 64.939 63.232 64.913C63.31 64.835 63.388 64.8307 63.466 64.9C63.5267 64.952 63.609 65.0257 63.713 65.121C63.8257 65.2077 63.934 65.2987 64.038 65.394C64.1507 65.4893 64.233 65.563 64.285 65.615C64.363 65.693 64.389 65.771 64.363 65.849C64.3457 65.927 64.3023 65.966 64.233 65.966H61.776C61.7933 66.2867 61.8107 66.5857 61.828 66.863C61.8453 67.1317 61.854 67.3007 61.854 67.37C61.854 67.4567 61.789 67.5347 61.659 67.604C61.529 67.6647 61.3773 67.695 61.204 67.695C61.126 67.695 61.0653 67.6863 61.022 67.669C60.9873 67.643 60.97 67.591 60.97 67.513V67.318H58.916V68.28H61.321C61.373 68.28 61.4207 68.2583 61.464 68.215L61.88 67.799C61.932 67.7383 61.9753 67.708 62.01 67.708C62.0447 67.708 62.088 67.7297 62.14 67.773C62.218 67.8163 62.3393 67.903 62.504 68.033C62.6687 68.163 62.79 68.2627 62.868 68.332C62.9373 68.3927 62.9633 68.4663 62.946 68.553C62.9287 68.631 62.881 68.67 62.803 68.67H58.916V69.632H62.504C62.5647 69.632 62.6123 69.6147 62.647 69.58C62.673 69.554 62.7293 69.4977 62.816 69.411C62.9027 69.3243 62.985 69.2377 63.063 69.151C63.1497 69.0643 63.206 69.008 63.232 68.982C63.3013 68.904 63.3793 68.8997 63.466 68.969C63.518 69.0037 63.6003 69.073 63.713 69.177C63.8257 69.2723 63.9383 69.3677 64.051 69.463C64.1637 69.5583 64.2417 69.632 64.285 69.684C64.3717 69.762 64.402 69.84 64.376 69.918C64.35 69.9873 64.3023 70.022 64.233 70.022H53.417C53.417 70.022 53.3433 70.0263 53.196 70.035C53.0573 70.035 52.9013 70.0523 52.728 70.087ZM55.042 74.936C54.86 74.936 54.769 74.8623 54.769 74.715C54.769 74.6717 54.7777 74.4983 54.795 74.195C54.8123 73.8917 54.8253 73.506 54.834 73.038C54.8513 72.5613 54.86 72.05 54.86 71.504C54.86 71.2267 54.8513 71.0273 54.834 70.906C54.8167 70.7847 54.7907 70.6807 54.756 70.594C54.7213 70.5507 54.7257 70.5073 54.769 70.464C54.8037 70.4293 54.8557 70.425 54.925 70.451C55.029 70.5117 55.1763 70.6027 55.367 70.724C55.5663 70.8367 55.7223 70.9277 55.835 70.997H60.957C61.0177 70.997 61.0653 70.9797 61.1 70.945C61.152 70.8843 61.2127 70.815 61.282 70.737C61.3513 70.6503 61.412 70.5767 61.464 70.516C61.5247 70.438 61.607 70.4337 61.711 70.503C61.763 70.5377 61.8497 70.5983 61.971 70.685C62.0923 70.763 62.2093 70.8453 62.322 70.932C62.4433 71.01 62.53 71.0707 62.582 71.114C62.634 71.1487 62.6557 71.192 62.647 71.244C62.647 71.2873 62.6123 71.3263 62.543 71.361C62.4823 71.3957 62.4173 71.4303 62.348 71.465C62.2873 71.491 62.231 71.5213 62.179 71.556C62.0923 71.5907 62.049 71.6557 62.049 71.751C62.049 72.0197 62.0533 72.31 62.062 72.622C62.0793 72.934 62.0923 73.233 62.101 73.519C62.1183 73.7963 62.1313 74.0347 62.14 74.234C62.1573 74.4333 62.166 74.5547 62.166 74.598C62.166 74.6673 62.0923 74.7323 61.945 74.793C61.8063 74.8623 61.6417 74.897 61.451 74.897C61.3557 74.897 61.2907 74.884 61.256 74.858C61.2213 74.832 61.204 74.78 61.204 74.702V74.312H55.731V74.637C55.731 74.6977 55.666 74.7627 55.536 74.832C55.4147 74.9013 55.25 74.936 55.042 74.936ZM55.731 72.466H61.204V71.387H55.731V72.466ZM55.731 73.922H61.204V72.856H55.731V73.922ZM58.916 65.563H60.97V64.601H58.916V65.563ZM58.916 66.915H60.97V65.966H58.916V66.915Z" fill="#004B97" fill-opacity="0.7"/>
</svg>
