<svg width="100" height="100" viewBox="0 0 100 100" fill="none" xmlns="http://www.w3.org/2000/svg">
<circle cx="50" cy="50" r="50" fill="#FBFBFB"/>
<path d="M36.9186 17.0215C36.9186 16.4609 37.3794 16.0098 37.9399 16.0217L59.9319 16.4896C60.2391 16.4962 60.5263 16.6436 60.7106 16.8894L66.133 24.1192C66.3137 24.3601 66.3762 24.6696 66.3031 24.9618L66.0554 25.9527C65.9705 26.2924 65.714 26.5629 65.3794 26.6659L59.5623 28.4558C59.467 28.4851 59.3679 28.5 59.2682 28.5H51.4186C50.8663 28.5 50.4186 28.0523 50.4186 27.5V25.2482C50.4186 24.8046 50.1263 24.414 49.7007 24.2889L42.0567 22.0406C41.9651 22.0137 41.8701 22 41.7746 22H37.9186C37.3663 22 36.9186 21.5523 36.9186 21V17.0215Z" fill="#4D81B7"/>
<path d="M34.3828 54.052C34.4053 53.3938 34.7503 52.787 35.3074 52.4355C38.991 50.1113 41.6405 48.6452 46.2404 46.5353C46.9554 46.2074 47.4186 45.4941 47.4186 44.7074V39.1533C47.4186 38.1938 48.1007 37.3644 49.0472 37.207C52.952 36.5577 55.5941 36.5589 59.4637 37.306C60.0673 37.4225 60.5779 37.8236 60.8451 38.3772C63.3282 43.5218 64.5985 46.8637 66.336 52.7208C66.3905 52.9045 66.4186 53.0973 66.4186 53.289V81.5C66.4186 82.6045 65.5231 83.5 64.4186 83.5H36.3066C35.2467 83.5 34.3699 82.6702 34.3154 81.6117C33.7712 71.0385 34.0231 64.5975 34.3828 54.052Z" fill="#004B97" fill-opacity="0.7"/>
<path d="M45.9186 35.5C49.7461 33.2405 52.9011 33.0066 59.4186 33.5C60.3465 34.6349 60.4276 35.6203 60.4186 37.5C57.0306 36.8974 54.5471 36.7678 47.4186 37.5L45.9186 35.5Z" fill="#689EBE"/>
<path d="M49.9186 28.5C54.4304 27.1024 56.6562 27.2215 59.9186 29.5V33.5C55.6137 32.8621 53.4805 32.9563 49.9186 33.5V28.5Z" fill="#D7E6EE"/>
<rect x="48.4186" y="23" width="2" height="4" fill="#4D81B7"/>
<rect x="45.4186" y="23" width="3" height="6" rx="1" fill="#FFD900"/>
<path d="M41.9186 22L46.4186 23C45.7223 25.1087 45.3097 26.0454 44.4186 26C42.7164 30.5082 41.3788 32.3486 38.4186 34.5C37.2766 34.5688 36.9722 34.3313 36.9186 33.5C40.1288 29.6897 41.5922 27.3721 41.9186 22Z" fill="#FFD900"/>
<line x1="51.4686" y1="30.05" x2="51.4686" y2="31.95" stroke="#004B97" stroke-opacity="0.7" stroke-width="0.1" stroke-linecap="round"/>
<line x1="58.4686" y1="30.05" x2="58.4686" y2="31.95" stroke="#004B97" stroke-opacity="0.7" stroke-width="0.1" stroke-linecap="round"/>
<line x1="57.4686" y1="29.05" x2="57.4686" y2="31.95" stroke="#004B97" stroke-opacity="0.7" stroke-width="0.1" stroke-linecap="round"/>
<line x1="56.4686" y1="29.05" x2="56.4686" y2="31.95" stroke="#004B97" stroke-opacity="0.7" stroke-width="0.1" stroke-linecap="round"/>
<line x1="55.4686" y1="29.05" x2="55.4686" y2="31.95" stroke="#004B97" stroke-opacity="0.7" stroke-width="0.1" stroke-linecap="round"/>
<line x1="54.4686" y1="29.05" x2="54.4686" y2="31.95" stroke="#004B97" stroke-opacity="0.7" stroke-width="0.1" stroke-linecap="round"/>
<line x1="53.4686" y1="29.05" x2="53.4686" y2="31.95" stroke="#004B97" stroke-opacity="0.7" stroke-width="0.1" stroke-linecap="round"/>
<line x1="52.4686" y1="29.05" x2="52.4686" y2="31.95" stroke="#004B97" stroke-opacity="0.7" stroke-width="0.1" stroke-linecap="round"/>
<rect x="40.4186" y="55" width="20" height="23" rx="2" fill="white"/>
<path d="M46.7876 62.095C46.8309 62.095 46.8526 62.1167 46.8526 62.16V62.524C46.8526 62.5413 46.8439 62.5587 46.8266 62.576C46.8179 62.5847 46.8006 62.589 46.7746 62.589C46.1766 62.615 45.3922 62.628 44.4216 62.628C44.4562 63.5727 44.4736 64.7123 44.4736 66.047C44.4736 67.763 44.4389 69.3923 44.3696 70.935C44.3696 70.9523 44.3609 70.9697 44.3436 70.987C44.3349 70.9957 44.3219 71 44.3046 71H43.9406C43.8972 71 43.8756 70.9783 43.8756 70.935C43.9449 69.3663 43.9796 67.7283 43.9796 66.021C43.9796 64.695 43.9622 63.564 43.9276 62.628C43.0262 62.628 42.3416 62.615 41.8736 62.589C41.8302 62.589 41.8086 62.5673 41.8086 62.524L41.8346 62.16C41.8346 62.1167 41.8562 62.095 41.8996 62.095C42.4282 62.121 43.2169 62.134 44.2656 62.134C45.3142 62.134 46.1549 62.121 46.7876 62.095ZM51.4707 62.719C51.4967 62.745 51.4924 62.7753 51.4577 62.81L51.1457 63.018C51.1197 63.044 51.0894 63.0397 51.0547 63.005C50.8554 62.7277 50.5521 62.589 50.1447 62.589C49.8241 62.589 49.5597 62.68 49.3517 62.862C49.1437 63.044 49.0397 63.2737 49.0397 63.551C49.0397 63.8457 49.0961 64.1057 49.2087 64.331C49.3214 64.5477 49.4687 64.747 49.6507 64.929C49.8414 65.1023 50.1274 65.345 50.5087 65.657C50.9334 66.0037 51.2801 66.3157 51.5487 66.593C51.8261 66.8617 52.0644 67.191 52.2637 67.581C52.4631 67.9623 52.5627 68.387 52.5627 68.855C52.5627 69.271 52.4587 69.6437 52.2507 69.973C52.0514 70.2937 51.7741 70.545 51.4187 70.727C51.0634 70.909 50.6604 71 50.2097 71C49.7244 71 49.2867 70.896 48.8967 70.688C48.5154 70.4713 48.2121 70.1723 47.9867 69.791C47.7614 69.4097 47.6444 68.9763 47.6357 68.491C47.6357 68.4477 47.6574 68.426 47.7007 68.426H48.0647C48.1081 68.426 48.1297 68.4477 48.1297 68.491C48.1384 69.089 48.3377 69.5743 48.7277 69.947C49.1177 70.3197 49.6117 70.506 50.2097 70.506C50.7644 70.506 51.2107 70.3543 51.5487 70.051C51.8954 69.739 52.0687 69.3403 52.0687 68.855C52.0687 68.4563 51.9821 68.0967 51.8087 67.776C51.6354 67.4553 51.4317 67.1823 51.1977 66.957C50.9724 66.723 50.6387 66.4197 50.1967 66.047C49.7807 65.7003 49.4731 65.4273 49.2737 65.228C49.0744 65.0287 48.9011 64.7903 48.7537 64.513C48.6151 64.2357 48.5457 63.915 48.5457 63.551C48.5457 63.135 48.6974 62.7883 49.0007 62.511C49.3041 62.2337 49.6854 62.095 50.1447 62.095C50.4221 62.095 50.6777 62.1513 50.9117 62.264C51.1457 62.368 51.3321 62.5197 51.4707 62.719ZM57.5866 62.173C57.6126 63.551 57.6256 64.8077 57.6256 65.943V67.23C57.617 68.4173 57.591 69.648 57.5476 70.922C57.5476 70.9393 57.539 70.9567 57.5216 70.974C57.513 70.9827 57.5 70.987 57.4826 70.987H57.1186C57.0753 70.987 57.0536 70.9653 57.0536 70.922C57.0883 69.5873 57.11 68.5993 57.1186 67.958C56.772 67.958 56.1393 67.9753 55.2206 68.01L54.2586 68.036C54.25 68.6773 54.2196 69.648 54.1676 70.948C54.1676 70.9913 54.146 71.013 54.1026 71.013L53.7386 70.987C53.7213 70.987 53.704 70.9827 53.6866 70.974C53.678 70.9567 53.6736 70.9393 53.6736 70.922C53.7256 69.6133 53.756 68.6557 53.7646 68.049H53.4396C53.3963 68.049 53.3746 68.0273 53.3746 67.984L53.3486 67.62C53.3486 67.5767 53.3703 67.555 53.4136 67.555H53.7776V67.334C53.7863 67.022 53.7906 66.5713 53.7906 65.982C53.7906 64.812 53.7646 63.5467 53.7126 62.186C53.7126 62.1687 53.717 62.1557 53.7256 62.147C53.743 62.1297 53.7603 62.121 53.7776 62.121L54.1416 62.095C54.185 62.095 54.2066 62.1167 54.2066 62.16C54.2586 63.5467 54.2846 64.8207 54.2846 65.982C54.2846 66.5713 54.2803 67.022 54.2716 67.334V67.542C54.6876 67.5247 55.017 67.516 55.2596 67.516C56.1783 67.4813 56.8023 67.464 57.1316 67.464V67.23V65.956C57.1316 64.8207 57.1186 63.5597 57.0926 62.173C57.0926 62.1297 57.1143 62.108 57.1576 62.108H57.5216C57.539 62.108 57.552 62.1167 57.5606 62.134C57.578 62.1427 57.5866 62.1557 57.5866 62.173Z" fill="#004B97" fill-opacity="0.7"/>
</svg>
